<svg width="40" height="40" viewBox="0 0 40 40" fill="none" xmlns="http://www.w3.org/2000/svg">
<g clip-path="url(#clip0_770_18)">
<path d="M30 0.75H10C4.89137 0.75 0.75 4.89137 0.75 10V30C0.75 35.1086 4.89137 39.25 10 39.25H30C35.1086 39.25 39.25 35.1086 39.25 30V10C39.25 4.89137 35.1086 0.75 30 0.75Z" fill="white"/>
<path d="M18.1508 14.7016L11.2681 6.61129C11.1028 6.44148 11 6.20375 11 5.94715C11 5.42263 11.4113 5 11.9182 5C12.2193 5 12.4838 5.15472 12.6491 5.38868H12.6564L19.5354 13.479C19.6676 13.6073 19.7558 13.7771 19.7925 13.9658C19.8513 13.962 19.9137 13.9583 19.9798 13.9583C20.0606 13.9583 20.1341 13.962 20.2075 13.9734C20.2442 13.7809 20.3324 13.6111 20.4609 13.479L27.3436 5.38868H27.3473C27.5199 5.15472 27.7807 5 28.0855 5C28.5887 5 29 5.42263 29 5.94715C29 6.20752 28.8972 6.44526 28.7282 6.61506L21.8455 14.7016L21.8419 14.7054C21.7831 14.7922 21.7023 14.8601 21.6178 14.9243C22.2165 15.6752 22.6536 16.6488 22.6095 18.9317C22.5948 19.8223 22.525 21.543 22.0879 23.5316C21.7501 25.0599 21.2432 25.8259 20.4426 26.0221V34.1185C20.4426 34.6019 20.101 35 19.6713 35C19.2416 35 18.9 34.6019 18.9 34.1185C18.9 33.8532 18.9 25.8674 18.9 25.8674V25.8636C18.0553 25.5014 17.5228 24.7052 17.7468 23.6373C17.9378 22.7467 18.6613 20.5468 18.5878 18.9317C18.4997 17.0827 18.3969 17.4751 18.059 16.5016C17.8276 15.8337 17.9267 15.2941 18.2683 14.8224C18.2279 14.7884 18.1912 14.7507 18.1581 14.7054C18.1581 14.7054 18.1545 14.7016 18.1508 14.7016Z" fill="#18191B"/>
<path d="M12 25.4982C12 26.8796 13.1177 28 14.5035 28C15.8823 28 17 26.8796 17 25.4982C17 24.1204 15.8823 23 14.5035 23C13.1177 23 12 24.1204 12 25.4982Z" fill="#18191B"/>
</g>
<defs>
<clipPath id="clip0_770_18">
<rect width="40" height="40" fill="white"/>
</clipPath>
</defs>
</svg>
