<svg width="40" height="40" viewBox="0 0 40 40" fill="none" xmlns="http://www.w3.org/2000/svg">
<g clip-path="url(#clip0_770_22)">
<path d="M30 0.75H10C4.89137 0.75 0.75 4.89137 0.75 10V30C0.75 35.1086 4.89137 39.25 10 39.25H30C35.1086 39.25 39.25 35.1086 39.25 30V10C39.25 4.89137 35.1086 0.75 30 0.75Z" fill="white"/>
<path d="M33.0001 32.304L22.6619 26.3309C22.5971 26.3646 22.5491 26.3862 22.5107 26.4012C22.4387 26.4415 22.3595 26.4677 22.2756 26.4781C22.2516 26.4799 22.2276 26.4799 22.2036 26.4799C22.1412 26.4799 22.0812 26.4705 22.0188 26.4537C21.8604 26.4059 21.726 26.2952 21.6492 26.1462C21.5772 26.0093 21.558 25.8612 21.5916 25.7122L18.4263 23.888C18.2583 23.9892 18.0928 24.0848 17.9272 24.1711L32.7529 32.7315L33.0001 32.304Z" fill="#18191B"/>
<path d="M16.9913 23.0584L12.1558 20.2668L11.9062 20.6971L16.5738 23.3912L16.7298 23.2646C16.8065 23.2046 16.8953 23.1343 16.9913 23.0584Z" fill="#18191B"/>
<path d="M17.3319 24.4542C17.2647 24.4814 17.1951 24.5095 17.1255 24.5292C17.044 24.5676 16.9552 24.5863 16.864 24.5863H16.8544L16.852 24.5892C16.7848 24.5863 16.7296 24.5798 16.6792 24.5629C16.3624 24.4664 16.1777 24.143 16.2473 23.8261L7.24838 18.6329L7 19.0622L27.8477 31.0976L28.0949 30.6673L17.3319 24.4542Z" fill="#18191B"/>
<path d="M31.697 14.3594C31.4834 13.4227 30.5499 12.8398 29.614 13.0553C28.6805 13.2718 28.0949 14.2055 28.3109 15.1393C28.5269 16.0747 29.4604 16.6578 30.3939 16.4422C31.3298 16.2238 31.913 15.2919 31.697 14.3594Z" fill="#18191B"/>
<path d="M26.2758 21.8969C25.983 20.7421 25.4503 19.6528 24.7328 18.7069C24.7328 18.7069 24.5096 18.5485 25.3039 17.8436C25.4959 17.6749 25.8774 17.5361 26.3142 17.4424L23.9816 15.1916C23.6793 15.3932 23.3625 15.6332 23.0385 15.9191C22.3282 16.5519 21.7186 18.0161 21.5939 18.2345C20.6196 20.2387 20.358 20.353 20.118 20.5911C19.7557 20.9005 17.0463 23.0481 16.528 23.4587C16.4992 23.4802 16.4752 23.4999 16.4512 23.5215C16.4464 23.5233 16.444 23.5262 16.444 23.5262C16.4416 23.528 16.4416 23.5308 16.4392 23.5308C16.408 23.5618 16.384 23.5955 16.36 23.6293C16.3552 23.6368 16.3504 23.6414 16.3456 23.6508C16.3216 23.6911 16.3024 23.7296 16.288 23.7755C16.288 23.7802 16.288 23.7802 16.2856 23.783C16.1896 24.1017 16.3696 24.4383 16.6864 24.5367C16.7416 24.5526 16.7943 24.5582 16.8519 24.5601H16.8543C16.9455 24.5629 17.0343 24.5414 17.1159 24.5048C17.9486 24.2311 19.0549 23.4568 19.8924 22.9018C21.1427 22.0619 22.249 20.877 22.9017 19.4203C22.9353 19.3453 22.9833 19.2469 23.0313 19.1344C23.1009 19.156 23.1729 19.1681 23.2473 19.1803C23.3289 19.4606 23.4729 19.7465 23.5569 19.9696C23.8832 20.6633 24.8936 22.2419 25.0063 22.6403C25.1479 23.0865 22.5706 24.6342 21.8171 25.3878C21.8171 25.3878 21.6635 25.5584 21.6275 25.6738C21.5291 25.9925 21.7091 26.329 22.0282 26.4274C22.1074 26.4537 22.1938 26.4612 22.273 26.4509C22.3546 26.4415 22.4314 26.4124 22.4986 26.3768C22.9089 26.2184 25.5967 24.6829 26.2086 23.7249C26.5254 23.2234 26.4126 22.4481 26.2758 21.8969Z" fill="#18191B"/>
<path d="M30.6937 20.4205C30.6793 20.1637 30.5737 20.0437 30.4537 19.9312C30.4465 19.9237 30.3961 19.8853 30.3817 19.8759C29.5106 19.2038 28.9539 18.9807 28.3995 17.853C28.2364 17.3683 28.2076 16.9699 28.222 16.5884C28.4115 16.1253 28.414 15.5592 28.186 15.1438C28.0468 14.8936 27.8764 14.6442 27.5524 14.4333C27.2693 14.2487 26.9165 14.0491 26.4605 14.1671C26.3478 14.1717 25.9014 14.2336 25.2703 14.4961L19.4197 8L19.1629 8.22966L24.9343 14.6423C24.7447 14.7332 24.5407 14.841 24.3296 14.9687L26.7077 17.2652C26.7053 17.2793 26.7125 17.3102 26.7197 17.3561C26.7197 17.3533 26.7197 17.3515 26.7197 17.3515L18.011 8.90447L17.771 9.1538L26.8109 17.8483C26.8109 17.8483 26.8253 17.9205 26.8301 17.9392C26.9957 18.5204 27.2909 19.0547 27.7348 19.5516C28.2052 20.0868 29.3474 20.9914 29.4218 21.0036C29.4218 21.0036 29.4218 21.0064 29.4242 21.0036C29.4842 21.0448 29.5514 21.073 29.6234 21.088C29.6402 21.0898 29.6546 21.0898 29.6714 21.0898C29.6666 21.0973 30.1082 21.1048 30.2138 20.6586C30.2402 20.488 30.1778 20.3221 30.0602 20.2115C30.0602 20.2115 30.0602 20.2115 30.0578 20.2115C30.0506 20.2068 30.0002 20.1665 29.9858 20.1571C29.1171 19.485 28.5579 19.2591 28.006 18.1333C27.8932 17.7977 27.8308 17.4761 27.8092 17.1621C27.8308 17.1424 27.8524 17.1237 27.874 17.1068C27.8932 17.4499 27.958 17.7761 28.0684 18.1051C28.5004 18.9929 28.9371 19.3069 29.5418 19.7418C29.693 19.8497 29.8538 19.9668 30.0218 20.1018C30.041 20.1112 30.0914 20.1515 30.101 20.159L30.1178 20.173V20.1759C30.2474 20.3052 30.3074 20.488 30.281 20.6746C30.233 20.8789 30.1202 20.997 30.0002 21.0664C30.0338 21.1236 30.2618 21.0589 30.2618 21.0589C30.2618 21.0589 30.4345 21.0233 30.5977 20.7927C30.6793 20.6746 30.7105 20.5358 30.6937 20.4205Z" fill="#18191B"/>
</g>
<defs>
<clipPath id="clip0_770_22">
<rect width="40" height="40" fill="white"/>
</clipPath>
</defs>
</svg>
