<svg width="40" height="40" viewBox="0 0 40 40" fill="none" xmlns="http://www.w3.org/2000/svg">
<g clip-path="url(#clip0_770_35)">
<path d="M30 0.75H10C4.89137 0.75 0.75 4.89137 0.75 10V30C0.75 35.1086 4.89137 39.25 10 39.25H30C35.1086 39.25 39.25 35.1086 39.25 30V10C39.25 4.89137 35.1086 0.75 30 0.75Z" fill="white"/>
<path d="M15.4131 13.3859C16.5916 13.5703 17.6978 12.7668 17.883 11.5879C18.0695 10.4127 17.2672 9.30688 16.0896 9.11922C14.9131 8.93156 13.8061 9.73836 13.6196 10.9136C13.4356 12.0924 14.2367 13.1982 15.4131 13.3859Z" fill="#18191B"/>
<path d="M25.4533 14.1978C25.3266 14.0804 25.1671 14.0252 25.0089 14.0276C25.0089 14.0276 18.6224 13.8435 16.8397 13.8867C16.6695 13.8306 16.4584 13.7988 16.1933 13.7988C15.899 13.7814 15.1916 13.7495 14.7989 13.8435C14.7436 13.8516 14.6863 13.8669 14.6322 13.881L16.2732 13.9396C16.456 13.9456 16.6146 14.0159 16.7389 14.1309C16.8794 14.26 16.9593 14.438 16.9686 14.6293C16.9734 14.8194 16.904 15.001 16.774 15.1442C16.6755 15.2475 16.5512 15.3178 16.4092 15.3505L16.4044 15.3565L13.4958 15.4586C13.4159 16.1387 13.4195 17.001 13.4195 17.4793C13.4195 17.7517 13.6495 22.551 13.6495 22.551C13.6435 27.4548 13.6495 33.5831 13.6495 33.5831C13.6483 33.6008 13.6435 33.6206 13.6435 33.6417C13.6435 34.0545 13.9789 34.3923 14.3917 34.3923C14.8082 34.3923 15.1424 34.0545 15.1424 33.6417L15.3769 25.5689C15.4135 25.5314 15.5613 25.4083 15.7828 25.4083H15.7864H15.7897C16.0161 25.4083 16.1651 25.5314 16.2017 25.5689L17.2325 33.7473C17.2325 33.7534 17.2361 33.7534 17.2385 33.7591C17.2946 34.1167 17.6021 34.3923 17.975 34.3923C17.9867 34.3923 17.9948 34.3923 18.0041 34.389C18.0126 34.3923 18.0219 34.3923 18.03 34.3923C18.1567 34.3923 18.2648 34.3479 18.3621 34.2809C18.58 34.1521 18.7269 33.9173 18.7269 33.6417C18.7269 33.6125 18.7197 33.5855 18.7173 33.5597C18.7173 33.5537 18.7197 33.548 18.7197 33.542C18.7197 33.521 17.9 25.9794 17.6171 22.2588L17.8588 17.2391C17.9069 16.5882 17.9363 16.0369 17.9174 15.5793C20.5083 15.4739 25.1365 15.2766 25.1365 15.2766H25.1377C25.2656 15.2568 25.3899 15.1923 25.4827 15.089C25.7229 14.8371 25.7067 14.4359 25.4533 14.1978Z" fill="#18191B"/>
<path d="M23.9586 5C23.8205 5 23.6808 5.03153 23.5469 5.09369C25.1962 5.18406 26.5309 9.48857 26.5309 14.7995C26.5309 19.7103 25.3872 23.7686 23.9048 24.4171C23.9235 24.4171 23.9412 24.4195 23.9586 24.4195C25.6394 24.4195 26.9999 20.0739 26.9999 14.7116C26.9999 9.34534 25.6394 5 23.9586 5Z" fill="#18191B"/>
<path d="M16.6834 14.1894C16.5555 14.0744 16.3973 14.0183 16.239 14.0219H16.2355L12.7684 13.9081C12.7612 13.9081 12.7579 13.9081 12.7506 13.9081C12.7485 13.9081 12.7461 13.9081 12.7401 13.9081H12.7143C12.6816 13.9081 12.6486 13.9138 12.617 13.9186C12.6101 13.9186 12.6029 13.9186 12.5972 13.9222C12.5819 13.9255 12.569 13.9315 12.5573 13.9315C12.2393 14.0183 12 14.3092 12 14.6551C12 14.6587 12 14.6587 12 14.6587C12.0048 15.0446 12.2982 15.3565 12.6735 15.3977C12.6885 15.3977 12.705 15.4058 12.7215 15.4058H12.7344C12.7389 15.4058 12.7461 15.4058 12.7506 15.4058C12.7612 15.4058 12.7732 15.4001 12.7849 15.4001L16.3642 15.2767C16.3642 15.2709 16.3679 15.271 16.3679 15.271C16.4934 15.2475 16.6165 15.1866 16.7129 15.0833C16.9498 14.8287 16.9369 14.4299 16.6834 14.1894Z" fill="#18191B"/>
</g>
<defs>
<clipPath id="clip0_770_35">
<rect width="40" height="40" fill="white"/>
</clipPath>
</defs>
</svg>
