<svg width="40" height="40" viewBox="0 0 40 40" fill="none" xmlns="http://www.w3.org/2000/svg">
<g clip-path="url(#clip0_770_47)">
<path d="M30 0.75H10C4.89137 0.75 0.75 4.89137 0.75 10V30C0.75 35.1086 4.89137 39.25 10 39.25H30C35.1086 39.25 39.25 35.1086 39.25 30V10C39.25 4.89137 35.1086 0.75 30 0.75Z" fill="white"/>
<path d="M28.5929 6.31698H28.5991C28.7427 6.12573 28.9642 6 29.22 6C29.6537 6 30 6.34756 30 6.77748C30 6.99338 29.9126 7.18836 29.7722 7.33094L23.9256 14.019C23.9256 14.019 23.9224 14.019 23.9224 14.0228C23.8694 14.0923 23.8008 14.1507 23.729 14.1997C24.2376 14.8271 24.6088 15.628 24.5745 17.5167C24.5589 18.2543 24.5028 19.6738 24.1284 21.3192C23.8413 22.5844 23.4108 23.2143 22.7337 23.3787V30.073C22.7337 30.4717 22.4374 30.8006 22.0755 30.8006C21.7136 30.8006 21.4172 30.4717 21.4172 30.073C21.4172 29.8537 21.4203 23.2508 21.4203 23.2508C21.4203 23.2483 21.4203 23.2483 21.4203 23.2483C20.7027 22.9497 20.2472 22.288 20.4406 21.4082C20.606 20.6709 21.2175 18.8549 21.1551 17.5167C21.0802 15.9874 20.9929 16.314 20.7058 15.506C20.5093 14.9516 20.5966 14.5104 20.8806 14.1204C21.1426 13.7938 28.5929 6.31698 28.5929 6.31698Z" fill="#18191B"/>
<path d="M16.0352 23.7687C16.0352 25.0057 17.0367 26.0112 18.2784 26.0112C19.517 26.0112 20.5185 25.0057 20.5185 23.7687C20.5185 22.532 19.517 21.5264 18.2784 21.5264C17.0367 21.5264 16.0352 22.532 16.0352 23.7687Z" fill="#18191B"/>
<path d="M25.6042 33.8537C25.6042 33.8499 25.6042 33.8474 25.6042 33.8474C24.8149 31.9037 23.2424 30.8005 21.3081 30.8005H11.6739C11.6708 30.8005 11.6645 30.8005 11.6583 30.8005C11.2964 30.8005 11 31.0907 11 31.4563C11 31.8183 11.2964 32.1143 11.6583 32.1143H16.6002C16.6002 32.8603 16.6002 33.9753 16.6002 34.1435C16.6002 34.5054 16.8935 34.798 17.2585 34.798C17.6204 34.798 17.9168 34.5054 17.9168 34.1435C17.9168 33.9753 17.9168 32.8603 17.9168 32.1143H20.5219C22.1005 32.1143 23.5014 33.0066 24.3968 34.3897C24.4062 34.4081 24.4186 34.4177 24.428 34.4324C24.5341 34.6492 24.7556 34.798 25.0145 34.798C25.3764 34.798 25.6759 34.5054 25.6759 34.1435C25.6759 34.0399 25.6447 33.9426 25.6042 33.8537Z" fill="#18191B"/>
</g>
<defs>
<clipPath id="clip0_770_47">
<rect width="40" height="40" fill="white"/>
</clipPath>
</defs>
</svg>
