<svg width="40" height="40" viewBox="0 0 40 40" fill="none" xmlns="http://www.w3.org/2000/svg">
<g clip-path="url(#clip0_770_41)">
<path d="M30 0.75H10C4.89137 0.75 0.75 4.89137 0.75 10V30C0.75 35.1086 4.89137 39.25 10 39.25H30C35.1086 39.25 39.25 35.1086 39.25 30V10C39.25 4.89137 35.1086 0.75 30 0.75Z" fill="white"/>
<path d="M34 15.2587C34 14.9419 33.743 14.6824 33.4239 14.6824C33.3502 14.6824 33.2786 14.6988 33.2136 14.7261L33.2179 14.7233C33.2136 14.7261 30.8659 15.674 29.6528 16.3624C28.2399 16.9224 26.7503 17.1928 25.2607 17.6627C25.0793 17.4933 24.8733 17.354 24.6428 17.2502C24.6663 17.2475 24.0473 17.0043 23.6665 17.0453C23.3144 17.048 22.9824 17.1327 22.6858 17.2748C21.5824 16.2449 20.4064 15.3653 19.4129 14.2808C18.5926 13.0816 16.7604 11.153 16.7604 11.153H16.7593C16.658 11.0601 16.5222 11 16.3739 11C16.054 11 15.7988 11.2595 15.7988 11.5764C15.7988 11.7048 15.8414 11.8222 15.9141 11.9179L15.9108 11.9233C15.9108 11.9233 20.908 17.8675 21.6016 18.3647C21.5076 18.5914 21.4565 18.7745 21.4598 18.7718C21.4502 18.8209 21.4437 18.8701 21.4363 18.9165C22.4255 18.4412 23.5438 17.9768 23.9514 17.8129L23.9642 17.8075L23.9716 17.8238L23.9653 17.8075C24.0443 17.7747 24.1262 17.7583 24.2074 17.7583C24.5649 17.7583 24.8583 18.0506 24.8583 18.4112C24.8583 18.6242 24.7496 18.8264 24.5701 18.9493V18.9548L24.5264 18.9767C24.4005 19.0368 23.0155 19.665 21.4415 20.3616L21.5057 22.0799C19.794 22.0444 18.1571 22.1291 16.821 22.4159C16.8232 22.4541 16.7721 23.4212 16.7721 23.4212C18.7739 22.7082 21.448 22.3749 24.0568 22.6044C28.6732 23.0141 33.0642 22.4541 33.0642 22.4541V20.6621C33.0642 20.6621 29.7361 22.1755 25.7964 22.2738L25.966 19.3727C25.9682 19.3755 25.969 19.3755 25.969 19.3755C25.969 19.2717 25.9606 19.1679 25.9447 19.0695C26.7738 18.922 33.7129 15.7559 33.7129 15.7559V15.7532C33.8837 15.6549 34 15.4691 34 15.2587Z" fill="#18191B"/>
<path d="M24.5105 13.1608C23.4263 13.1608 22.5469 14.0404 22.5469 15.1222C22.5469 16.2094 23.4263 17.089 24.5105 17.089C25.5944 17.089 26.4727 16.2094 26.4727 15.1222C26.4727 14.0404 25.5944 13.1608 24.5105 13.1608Z" fill="#18191B"/>
<path d="M24.2073 17.8348C24.1327 17.8348 24.0612 17.8485 23.994 17.8785L23.9983 17.873C23.994 17.8785 21.6474 18.8264 20.4332 19.5175C19.0214 20.0748 17.5307 20.348 16.0422 20.8151C15.8608 20.6485 15.6537 20.5064 15.4232 20.4026C15.4488 20.3999 14.8266 20.1568 14.4479 20.1977C14.0936 20.2005 13.7639 20.2851 13.4651 20.4272C12.3628 19.3973 11.1868 18.5177 10.1944 17.4332C9.37377 16.234 7.54487 14.3081 7.54487 14.3081C7.54268 14.3081 7.54269 14.3081 7.54269 14.3081C7.43915 14.2098 7.30366 14.1552 7.15342 14.1552C6.83626 14.1552 6.57703 14.4092 6.57703 14.7316C6.57703 14.8599 6.62183 14.9774 6.69341 15.073C6.69341 15.073 11.6894 21.02 12.3841 21.5171C12.288 21.7466 12.2391 21.9269 12.2421 21.9269C12.2027 22.0881 12.1847 22.2574 12.1847 22.4295L12.2872 25.235C9.13283 25.1613 6.22081 25.5137 5 26.7812V28.0569C6.60052 26.3824 10.8027 25.4017 14.8372 25.7568C19.4525 26.1666 23.8467 25.6066 23.8467 25.6066V23.8118C23.8467 23.8118 20.5184 25.3306 16.5779 25.4262C16.5779 25.4262 16.7486 22.5279 16.7527 22.5279C16.7516 22.4214 16.741 22.3203 16.7262 22.2192C17.5531 22.0744 24.4955 18.9084 24.4955 18.9084L24.4933 18.9056C24.6641 18.8073 24.7826 18.6243 24.7826 18.4112C24.7826 18.0916 24.5253 17.8348 24.2073 17.8348Z" fill="#18191B"/>
<path d="M15.2908 20.2387C16.3737 20.2387 17.2541 19.3591 17.2541 18.2773C17.2541 17.1928 16.3737 16.3132 15.2908 16.3132C14.2066 16.3132 13.3262 17.1928 13.3262 18.2773C13.3262 19.1242 13.8651 19.8453 14.6185 20.1185C14.768 20.1322 15.007 20.1786 15.2001 20.236C15.231 20.236 15.2597 20.2387 15.2908 20.2387Z" fill="#18191B"/>
</g>
<defs>
<clipPath id="clip0_770_41">
<rect width="40" height="40" fill="white"/>
</clipPath>
</defs>
</svg>
