<svg width="40" height="40" viewBox="0 0 40 40" fill="none" xmlns="http://www.w3.org/2000/svg">
<g clip-path="url(#clip0_770_61)">
<path d="M30 0.75H10C4.89137 0.75 0.75 4.89137 0.75 10V30C0.75 35.1086 4.89137 39.25 10 39.25H30C35.1086 39.25 39.25 35.1086 39.25 30V10C39.25 4.89137 35.1086 0.75 30 0.75Z" fill="white"/>
<path d="M27.1 9.29113C26.3768 8.0359 24.7699 7.60349 23.5172 8.32844C22.2609 9.05156 21.8336 10.6607 22.5567 11.9163C23.2798 13.1675 24.8868 13.5995 26.1395 12.875C27.3958 12.1475 27.8267 10.5423 27.1 9.29113Z" fill="#18191B"/>
<path d="M9 29.709C9 29.709 9 29.7061 9 29.7017C9 29.6305 9.01096 29.5633 9.02557 29.495C9.02922 29.4807 9.03651 29.4705 9.03651 29.4592C9.05842 29.3978 9.08034 29.3423 9.10956 29.285C9.10956 29.281 9.10956 29.2766 9.10956 29.2766C9.10956 29.2766 9.11687 29.2707 9.12053 29.2667C9.14609 29.2211 9.1753 29.1809 9.20817 29.1425C9.77425 28.3179 12.7361 24.0139 13.1269 23.4076C13.3643 22.958 13.693 22.6797 14.2189 19.3516C14.2992 18.9849 14.5403 17.0234 15.1319 16.4171L18.9885 11.7764C18.9922 11.7691 18.9958 11.7691 18.9995 11.7665C18.6818 10.5536 18.2508 9.00587 18.1011 8.68485C17.1588 7.35804 13.2182 7.54648 13.1671 7.56073C13.1634 7.56073 13.1561 7.56511 13.1525 7.56073C13.0137 7.58921 12.8676 7.57935 12.7288 7.52932C12.3307 7.3752 12.1299 6.93 12.2832 6.53083C12.3636 6.32668 12.5207 6.17693 12.7106 6.09841C13.0502 5.93443 15.9062 5.98448 17.4583 6.18133C18.6708 6.33801 19.6423 7.18274 20.3289 9.08294C20.3471 9.18009 20.8621 10.5281 21.1616 11.3385C21.629 11.4524 22.06 11.6737 22.3777 11.9732C23.2177 12.7891 23.3419 14.4555 22.5238 15.2999L22.2535 15.5611C22.4033 18.5784 25.4528 18.9878 26.1905 19.0919C26.7493 19.1518 27.6002 19.1204 27.6294 19.1204C27.812 19.1204 27.9837 19.1876 28.1152 19.3016C28.1298 19.3132 28.148 19.3231 28.1626 19.3417C28.2065 19.3771 28.2393 19.4159 28.2649 19.4615C28.2759 19.4772 28.2831 19.4801 28.2905 19.4984C28.3014 19.5057 28.3014 19.5229 28.3051 19.5342C28.3599 19.6412 28.3964 19.7581 28.3964 19.8866C28.3964 20.2789 28.1006 20.5999 27.7244 20.6499C27.7171 20.6499 27.7171 20.6499 27.7134 20.6499C27.0305 20.8639 25.8837 20.811 25.1314 20.6612C22.5384 20.3048 21.2492 18.6599 20.6174 17.0946L18.963 18.6456C20.4129 19.7011 21.6655 21.0392 22.5968 22.5757C23.0424 23.3148 23.5427 24.3846 23.3127 25.2479C22.8488 26.9027 19.6459 30.3079 19.12 30.7144C19.0397 30.8002 18.9411 30.8744 18.8242 30.9215C18.7146 30.9715 18.5905 31 18.4663 31C17.9587 31 17.5496 30.5906 17.5496 30.087C17.5496 29.9014 17.6993 29.5917 17.703 29.5848C18.4553 28.1681 21.4939 24.7914 21.0958 24.2137C20.7562 23.6856 18.5941 21.8482 17.8199 20.9921C17.6007 20.7113 17.2647 20.3618 17.02 19.9863C16.9141 20.0079 16.8046 20.0192 16.6914 20.0192C16.6731 20.2047 16.6475 20.3687 16.6329 20.4899C16.3335 22.8795 15.2561 25.0836 13.8172 26.8457C12.8567 28.0224 11.6003 29.6305 10.5193 30.3908C10.417 30.4836 10.2965 30.5435 10.165 30.5862H10.1577C10.0774 30.6074 9.99337 30.626 9.90937 30.626C9.40538 30.626 9 30.2195 9 29.7159C9 29.7159 9 29.7159 9 29.709Z" fill="#18191B"/>
<path d="M31.2137 33C31.6482 33 32 33.2237 32 33.5014C32 33.7774 31.6482 34 31.2137 34H10.7863C10.3521 34 10 33.7774 10 33.5015C10 33.2237 10.3521 33 10.7863 33H31.2137Z" fill="#18191B"/>
<path d="M29.596 25.0606C28.2063 24.8495 25.5537 25.261 26.0605 28.5962C27.4501 28.8073 30.1027 28.3958 29.596 25.0606Z" fill="#18191B"/>
</g>
<defs>
<clipPath id="clip0_770_61">
<rect width="40" height="40" fill="white"/>
</clipPath>
</defs>
</svg>
