<svg width="40" height="40" viewBox="0 0 40 40" fill="none" xmlns="http://www.w3.org/2000/svg">
<g clip-path="url(#clip0_770_56)">
<path d="M30 0.75H10C4.89137 0.75 0.75 4.89137 0.75 10V30C0.75 35.1086 4.89137 39.25 10 39.25H30C35.1086 39.25 39.25 35.1086 39.25 30V10C39.25 4.89137 35.1086 0.75 30 0.75Z" fill="white"/>
<path d="M12.68 5.77054C12.765 5.76446 12.851 5.79933 12.9124 5.86423C13.0186 5.98541 13.0099 6.17022 12.89 6.27637C12.7701 6.38508 12.585 6.3739 12.4776 6.25527C12.4165 6.18525 12.3954 6.10148 12.4079 6.01803L11.6782 5.55568L12.2979 4.99999L12.68 5.77054Z" fill="#18191B"/>
<path d="M13.7381 7.17326C14.5886 6.51109 15.6041 6.52611 16.0038 7.20427C16.4009 7.88147 16.0326 8.96793 15.1795 9.62978C14.3265 10.2894 13.3135 10.2731 12.9139 9.59877C12.5168 8.91806 12.8825 7.83511 13.7381 7.17326ZM30.8388 18.2166C30.8328 18.208 30.774 18.1478 30.7541 18.1328C30.513 17.9205 29.7498 17.2961 29.44 17.0614C26.4725 14.8169 21.1883 15.2814 20.796 15.6785C20.6937 15.6188 20.2265 15.4787 19.9803 15.425C19.3795 15.2753 18.6278 15.6037 18.6464 15.6101C18.3679 15.7537 18.122 15.9535 17.9158 16.1994C16.1662 16.3407 14.6622 16.7839 12.9337 15.8435C11.5924 14.8667 11.43 14.0863 10.7531 12.7996C10.7419 12.7773 10.7019 12.706 10.693 12.6935C10.5782 12.5125 10.3784 12.3939 10.1497 12.3875C10.2671 12.2877 12.5267 10.3642 12.8064 10.1231C13.381 10.7453 14.4761 10.6792 15.3755 9.92331C15.724 9.63619 15.9939 9.28383 16.1799 8.91549C16.5195 8.23477 16.5633 7.48787 16.2298 6.95711C15.7115 6.14275 14.4988 6.14915 13.5095 6.97343C12.6878 7.66022 12.2881 8.69936 12.4777 9.4987C12.4777 9.55241 12.479 9.59877 12.4953 9.62978C12.1158 9.95463 9.11827 12.3338 9.00445 12.7498C8.97215 12.9272 9.12308 13.0708 9.22188 13.0682C9.32548 13.0621 9.39805 13.0334 9.46295 12.9934C9.46039 13.0145 9.45784 13.0372 9.45784 13.0583C9.45784 13.1619 9.48023 13.2521 9.51923 13.3394C9.51923 13.3394 9.51923 13.3394 9.51923 13.3432C9.51923 13.4391 10.4333 15.1353 11.0217 15.871C12.0544 17.1986 13.4072 17.8268 15.082 18.0292C15.6265 18.0168 16.5857 18.1917 17.3013 18.0606C17.2814 18.1079 17.2664 18.1542 17.244 18.1952C17.244 18.1952 17.6111 24.9611 17.4512 25.0634C16.8204 25.583 10.9018 33.1079 10.5056 33.7823C10.4158 33.9073 10.3659 34.0659 10.3659 34.2321C10.3659 34.6692 10.723 35.0315 11.1652 35.0315C11.3389 35.0315 11.4961 34.9752 11.6247 34.8815C11.6272 34.8815 11.6298 34.8815 11.6298 34.8815C12.549 34.5093 17.7662 28.6492 19.1487 26.4412C19.2174 26.491 19.597 26.5259 19.6619 26.491C19.3022 27.6712 19.0224 29.0364 19.0138 29.8882C19.0151 30.5002 19.1461 31.2058 19.6145 31.578C20.1479 32.049 25.3672 35.34 25.3672 35.34H25.3723C25.491 35.4062 25.6246 35.4462 25.7707 35.4462C26.2117 35.4462 26.5701 35.0938 26.5701 34.6504C26.5701 34.3907 26.4425 34.1596 26.2516 34.016C26.2516 34.0134 26.2516 34.0134 26.2478 34.0134C26.2478 34.0134 21.9214 30.5101 20.9872 30.1693C21.7715 28.9639 21.9 24.1742 21.9 23.787L22.0826 18.0791C22.0826 17.8917 22.0637 17.7168 22.0337 17.5458C22.0276 17.5359 21.9064 17.2213 21.8952 17.1762C21.9099 17.1736 25.0037 15.6811 29.0279 18.4689C29.1967 18.5888 29.6063 18.9197 29.8323 19.1007C29.8736 19.147 29.9935 19.2282 29.9935 19.2282C30.0894 19.2845 30.2058 19.3194 30.327 19.3194C30.6991 19.3194 31 19.0198 31 18.6476C31 18.4852 30.9376 18.3352 30.8388 18.2166Z" fill="#18191B"/>
<path d="M20.9543 12.9934C20.9543 14.2637 19.9242 15.2939 18.6587 15.2939C17.3861 15.2939 16.3569 14.2637 16.3569 12.9934C16.3569 11.7257 17.3861 10.6951 18.6587 10.6951C19.9242 10.6951 20.9543 11.7257 20.9543 12.9934Z" fill="#18191B"/>
</g>
<defs>
<clipPath id="clip0_770_56">
<rect width="40" height="40" fill="white"/>
</clipPath>
</defs>
</svg>
