<svg width="40" height="40" viewBox="0 0 40 40" fill="none" xmlns="http://www.w3.org/2000/svg">
<g clip-path="url(#clip0_770_78)">
<path d="M30 0.75H10C4.89137 0.75 0.75 4.89137 0.75 10V30C0.75 35.1086 4.89137 39.25 10 39.25H30C35.1086 39.25 39.25 35.1086 39.25 30V10C39.25 4.89137 35.1086 0.75 30 0.75Z" fill="white"/>
<path d="M32.0707 16C32.5843 16 33 16.2237 33 16.5014C33 16.7774 32.5843 17 32.0707 17H7.92929C7.4161 17 7 16.7774 7 16.5015C7 16.2237 7.4161 16 7.92929 16H32.0707Z" fill="#18191B"/>
<path d="M32 26C32.5523 26 33 25.5523 33 25C33 24.4477 32.5523 24 32 24C31.4477 24 31 24.4477 31 25C31 25.5523 31.4477 26 32 26Z" fill="#18191B"/>
<path d="M17.6232 29.8679C17.5146 29.9183 17.3994 29.9374 17.2842 29.9374C17.2809 29.9374 17.2776 29.9374 17.2776 29.9374C17.2743 29.9374 17.2711 29.9374 17.2711 29.9374H17.248H17.2447H17.2283C17.2184 29.9374 17.2085 29.9374 17.2019 29.9374C17.1888 29.9374 17.1756 29.9338 17.1624 29.9272C16.9287 29.8949 16.7312 29.7728 16.5962 29.5954H14.98V30.21H19.5588V29.5954H17.9952C17.9623 29.6277 17.9261 29.6573 17.9031 29.6741C17.8241 29.7564 17.7319 29.8219 17.6232 29.8679Z" fill="#18191B"/>
<path d="M9.75582 29.5621C9.66365 29.5891 9.58795 29.602 9.51553 29.602C9.16661 29.602 8.86706 29.391 8.7288 29.0954L7.10664 28.8087L7 29.414L11.5103 30.21L11.619 29.6046L10.1344 29.3423C10.1212 29.3551 10.1015 29.3719 10.085 29.3808C9.99612 29.4631 9.8842 29.5259 9.75582 29.5621Z" fill="#18191B"/>
<path d="M24.2527 13.4455C25.3916 12.7907 25.7834 11.3328 25.125 10.1896C24.4667 9.05166 23.0084 8.66323 21.8662 9.31796C20.7272 9.97993 20.3388 11.4342 20.9972 12.5735C21.6555 13.7154 23.1105 14.1074 24.2527 13.4455Z" fill="#18191B"/>
<path d="M32.7915 28.3339C31.6262 28.5808 30.2338 28.456 29.7368 28.3994C29.7236 28.3931 29.7104 28.3866 29.7006 28.3843C29.615 28.3843 29.4932 28.3339 29.3451 28.1822L23.7722 22.0898C23.8215 21.9677 23.8281 21.8854 23.8117 21.7774C23.7919 21.4252 23.6504 21.254 23.4957 21.0987V21.096C23.4825 21.0895 23.4166 21.0305 23.3903 21.02C22.2217 20.0749 21.4548 19.7586 20.7273 18.195C20.4738 17.3955 20.4179 16.7345 20.4804 16.112C20.7602 15.8487 20.9709 15.6505 20.9709 15.6505C21.7115 14.8842 21.5963 13.3733 20.8326 12.6327C20.5495 12.3588 20.227 12.103 19.72 11.9549C19.2691 11.8265 18.7292 11.7004 18.1762 12.0438C17.8898 12.135 14.2558 16.665 14.2558 16.665C13.7192 17.2115 13.5019 18.9923 13.4262 19.328C12.9522 22.3499 12.6527 22.603 12.4321 23.0118C12.0832 23.5648 9.3873 27.4685 8.87708 28.2157C8.84746 28.2516 8.82442 28.2878 8.79808 28.3276C8.79808 28.3339 8.79479 28.3378 8.79479 28.3378C8.7915 28.3405 8.79149 28.3441 8.79149 28.3467C8.76187 28.3994 8.73884 28.4498 8.72238 28.5051C8.71909 28.5153 8.71579 28.5281 8.7125 28.5383C8.69933 28.5976 8.68945 28.6631 8.68945 28.7263C8.68945 28.7286 8.68945 28.7286 8.68945 28.7325V28.7352C8.68945 29.193 9.05813 29.5657 9.51568 29.5657C9.59468 29.5657 9.6671 29.5492 9.74281 29.5258H9.7461C9.8679 29.4926 9.97323 29.4307 10.0687 29.351C11.0496 28.6604 12.1886 27.1946 13.0642 26.1327C14.3677 24.5293 15.3453 22.5309 15.6185 20.358C15.6317 20.2501 15.6547 20.1019 15.6712 19.9337C15.7732 19.9337 15.872 19.9232 15.9708 19.9081C16.1913 20.2435 16.5007 20.5624 16.6949 20.8156C17.3994 21.596 19.3645 23.2613 19.6707 23.7423C20.0328 24.2696 17.2743 27.3296 16.5896 28.6206C16.5863 28.6206 16.4513 28.91 16.4513 29.0745C16.4513 29.5324 16.8233 29.9041 17.2842 29.9041C17.3961 29.9041 17.508 29.8784 17.6133 29.832C17.7154 29.7895 17.8042 29.7227 17.8832 29.648C18.354 29.2753 21.2639 26.1814 21.6819 24.6811C21.8926 23.8966 21.4383 22.9259 21.0334 22.2544C20.1875 20.862 19.0518 19.647 17.7318 18.6888L18.4955 17.9751C18.6897 18.8935 19.0979 19.7356 19.7727 20.5098C20.4047 21.2606 21.9485 22.5246 22.0539 22.5437C22.0539 22.5437 22.0539 22.5437 22.0572 22.5437C22.1362 22.603 22.225 22.6455 22.3271 22.6659C22.3501 22.6659 22.3699 22.6659 22.3929 22.6659C22.3896 22.6724 22.992 22.6955 23.1467 22.0898C23.1862 21.8535 23.1006 21.6283 22.9459 21.4739C22.9459 21.4739 22.9459 21.4739 22.9459 21.4716C22.9328 21.4611 22.8669 21.4111 22.8439 21.3956C21.672 20.4545 20.9083 20.1342 20.1776 18.5706C19.9603 17.8866 19.8978 17.245 19.9307 16.6252C19.9636 16.5956 19.9932 16.5633 20.0295 16.5301C19.9801 17.2411 20.0591 17.8826 20.2632 18.5347C20.8359 19.7626 21.4317 20.2036 22.2481 20.8156C22.4522 20.97 22.6694 21.1345 22.8965 21.3159C22.9229 21.3327 22.9887 21.3916 23.0052 21.4045L23.0249 21.4213L23.0282 21.4252C23.1994 21.6026 23.2817 21.8561 23.2389 22.1132C23.1665 22.392 23.0085 22.5477 22.8439 22.6428C22.8867 22.7251 23.0545 22.626 23.1829 22.626L28.6571 28.802C28.7032 28.851 28.7394 28.8932 28.7855 28.9307C28.8414 28.9794 28.9928 29.0979 28.9928 29.0979C29.0389 29.1249 29.0949 29.1542 29.1541 29.1776C30.0462 29.5515 32.2286 29.5453 32.7256 29.2493C32.9264 29.1272 33.1931 28.249 32.7915 28.3339Z" fill="#18191B"/>
</g>
<defs>
<clipPath id="clip0_770_78">
<rect width="40" height="40" fill="white"/>
</clipPath>
</defs>
</svg>
