<svg width="40" height="40" viewBox="0 0 40 40" fill="none" xmlns="http://www.w3.org/2000/svg">
<g clip-path="url(#clip0_770_67)">
<path d="M30 0.75H10C4.89137 0.75 0.75 4.89137 0.75 10V30C0.75 35.1086 4.89137 39.25 10 39.25H30C35.1086 39.25 39.25 35.1086 39.25 30V10C39.25 4.89137 35.1086 0.75 30 0.75Z" fill="white"/>
<path d="M22.8262 12.6855C22.8262 13.9185 21.8218 14.9214 20.5835 14.9214C19.3452 14.9214 18.3408 13.9185 18.3408 12.6855C18.3408 11.4429 19.3452 10.4401 20.5835 10.4401C21.8218 10.4401 22.8262 11.4429 22.8262 12.6855Z" fill="#18191B"/>
<path d="M27.9913 33.1882L27.9882 33.1857C27.9882 33.1857 23.7679 29.7705 22.8571 29.4389C23.6244 28.2596 23.7492 23.5868 23.7492 23.209L23.927 17.641C23.927 17.462 23.9052 17.2913 23.8771 17.1207C23.874 17.1145 23.7991 16.3069 23.3157 15.8047C23.1223 15.6001 23.1191 15.5147 22.6825 15.2408C22.5795 15.1834 22.3674 15.092 21.8341 15.0459C21.1697 14.991 20.5552 15.2283 20.5739 15.2283C20.3025 15.3721 20.0624 15.5696 19.8627 15.8047C18.1534 15.9473 16.6843 16.3837 15 15.4635C13.693 14.5072 13.5308 13.7458 12.8727 12.4969C12.8633 12.4688 12.8228 12.4017 12.8165 12.3871C12.8041 12.3712 12.7916 12.3531 12.7791 12.3409C12.7916 12.3322 12.8009 12.32 12.8103 12.3103C13.509 11.567 15.053 10.2208 15.7454 9.47503C16.5065 8.66498 18.6057 6.06952 18.6057 6.06952C18.8365 5.79191 18.8022 5.38112 18.5277 5.15218C18.2532 4.92074 17.8446 4.95723 17.6138 5.23484C17.6138 5.23484 15.4273 7.74981 14.7535 8.64033C14.1422 9.45319 13.1222 11.1444 12.5202 11.9632C12.5389 11.9389 12.5015 11.985 12.5202 11.9632C12.489 11.8815 12.3424 11.7318 12.1085 11.689C11.678 11.6488 11.441 11.9326 11.3786 12.1494C11.3162 12.3409 11.3443 12.4969 11.3942 12.5942C11.5096 12.4601 11.5626 12.4566 11.834 12.4382C11.9307 12.4445 12.0149 12.4601 12.096 12.4969C12.2301 12.5455 12.3456 12.6394 12.4329 12.7589L12.4516 12.7854C12.4578 12.8013 12.4953 12.8709 12.5078 12.8989C12.6356 13.1425 12.7479 13.3702 12.854 13.5873C13.2719 14.4548 13.5745 15.0798 14.6069 15.8291C15.3992 16.2617 16.2258 16.4591 17.2707 16.4591C17.8103 16.4591 18.3468 16.408 18.9145 16.3556C19.1016 16.3372 19.295 16.3191 19.4822 16.3044C19.4884 16.2945 19.5258 16.2945 19.5414 16.3007C19.5383 16.3409 19.529 16.3896 19.529 16.3896C17.8197 16.5262 16.2383 16.821 14.5539 15.9024C13.2439 14.9457 13.0879 14.1903 12.4298 12.9354C12.4173 12.9111 12.3767 12.8403 12.3705 12.8281C12.3642 12.8185 12.3612 12.8135 12.358 12.81C12.2801 12.6978 12.1709 12.6151 12.043 12.5661C11.9775 12.5418 11.912 12.5321 11.8371 12.5296C11.2507 12.5639 11.1603 13.1241 11.1696 13.1207C11.1665 13.1425 11.1603 13.1631 11.1603 13.1815C11.1603 13.2788 11.1821 13.3702 11.2227 13.4532L11.2258 13.4594C11.2258 13.4679 11.232 13.4897 11.2476 13.5203C10.7641 14.0867 10.3118 14.6107 10.1964 14.7449C10.1216 14.7205 10.053 14.7227 10.0218 14.7595C9.96252 14.8325 10.028 14.991 10.1715 15.1104C10.315 15.2283 10.4834 15.2711 10.5395 15.1981C10.5739 15.1616 10.5676 15.092 10.5271 15.0249C10.6363 14.8933 11.0105 14.4279 11.4347 13.9102C11.7373 14.4766 12.2925 15.4295 12.6886 15.9292C13.6993 17.218 15.0156 17.836 16.65 18.0346C17.0118 18.0284 18.3125 18.277 19.242 18.3756V18.461C19.3325 20.1669 19.5321 24.3765 19.4105 24.4579C18.796 24.9635 13.0193 32.3023 12.6325 32.9627C12.5452 33.088 12.4953 33.2368 12.4953 33.4012C12.4953 33.8313 12.8446 34.1785 13.2751 34.1785C13.4435 34.1785 13.5995 34.1261 13.7274 34.0347C13.7274 34.0325 13.7274 34.0325 13.7274 34.0325C14.6288 33.6729 19.7161 27.9548 21.0636 25.7982C21.1322 25.8506 21.5003 25.8837 21.5627 25.8469C21.2133 27.0022 20.9388 28.3301 20.9295 29.161C20.9295 29.7618 21.0605 30.4467 21.519 30.8061C22.0368 31.2727 27.1304 34.4795 27.1304 34.4795C27.1335 34.4795 27.1335 34.4795 27.1335 34.4795C27.252 34.5466 27.383 34.5868 27.5265 34.5868C27.9539 34.5868 28.3032 34.2396 28.3032 33.8095C28.3032 33.5572 28.1816 33.3319 27.9913 33.1882Z" fill="#18191B"/>
<path d="M29 14C29.5523 14 30 13.5523 30 13C30 12.4477 29.5523 12 29 12C28.4477 12 28 12.4477 28 13C28 13.5523 28.4477 14 29 14Z" fill="#18191B"/>
</g>
<defs>
<clipPath id="clip0_770_67">
<rect width="40" height="40" fill="white"/>
</clipPath>
</defs>
</svg>
