<svg width="40" height="40" viewBox="0 0 40 40" fill="none" xmlns="http://www.w3.org/2000/svg">
<g clip-path="url(#clip0_770_72)">
<path d="M30 0.75H10C4.89137 0.75 0.75 4.89137 0.75 10V30C0.75 35.1086 4.89137 39.25 10 39.25H30C35.1086 39.25 39.25 35.1086 39.25 30V10C39.25 4.89137 35.1086 0.75 30 0.75Z" fill="white"/>
<path d="M28.0036 13.7242L27.3885 10.5387H31.0978L30.4789 13.7242H31.1686L32.1378 9.86208H26.3447L27.3065 13.7242" fill="#18191B"/>
<path d="M29.2412 9.37506C28.444 9.37506 27.7994 8.72792 27.7994 7.92929C27.7994 7.13384 28.444 6.48699 29.2412 6.48699C30.0355 6.48699 30.683 7.13384 30.683 7.92929C30.683 8.72792 30.0355 9.37506 29.2412 9.37506ZM29.2412 5.99999C28.1735 5.99999 27.3101 6.86629 27.3101 7.92929C27.3101 9.00152 28.1735 9.86206 29.2412 9.86206C30.306 9.86206 31.1722 9.00152 31.1722 7.92929C31.1722 6.86629 30.306 5.99999 29.2412 5.99999Z" fill="#18191B"/>
<path d="M26.1823 11.7232C26.2785 11.6286 26.3448 11.5095 26.3448 11.374C26.3448 11.2469 26.2851 11.1327 26.1923 11.0361C26.1923 11.0361 26.1757 11.0209 26.1724 11.0178C26.043 10.9008 25.8606 10.8276 25.645 10.8276C25.446 10.8276 25.2669 10.8935 25.1376 11.0006H25.1343C25.1343 11.0006 21.6848 14.55 20.0596 15.2554C19.6019 15.4915 18.9585 15.7847 18.2852 15.9577C17.99 15.8253 17.6683 15.744 17.3167 15.7185C17.0679 15.688 16.6136 15.7643 16.3714 15.8071C15.7711 15.9679 15.2703 16.316 14.9784 16.7689C11.3599 17.5478 8.04312 22.4183 8.04312 22.6453V22.6505C8.0199 22.7084 8 22.7725 8 22.8407C8 23.1462 8.31177 23.3885 8.69983 23.3885C8.932 23.3885 9.14093 23.2968 9.26365 23.1563C9.26365 23.1563 9.26698 23.1563 9.27029 23.1542H9.27361C9.27693 23.1493 9.28025 23.1462 9.28025 23.1391C9.54559 22.8256 12.0265 18.7895 14.7661 18.421C14.7695 18.4179 14.7727 18.4179 14.7761 18.416C14.7761 18.416 15.3565 24.7138 15.3897 24.9072C15.6451 25.5923 14.0132 29.328 12.2653 30.5493C11.2404 31.267 9.73134 32.5465 9.36981 32.8498C9.18739 32.967 9.06798 33.145 9.06798 33.3485C9.06798 33.705 9.43613 34 9.89384 34H9.90048C9.90048 34 9.90048 34 9.9038 34C9.92038 34 9.93698 33.994 9.95356 33.994C9.99336 33.9898 10.0332 33.9898 10.0763 33.9818C10.1094 33.9747 10.1426 33.9664 10.1791 33.9544C10.199 33.9513 10.2156 33.9461 10.2322 33.939C10.2487 33.9359 10.262 33.9309 10.2753 33.9257C10.2819 33.9257 10.3018 33.9135 10.3151 33.9054C10.3947 33.8679 10.461 33.822 10.5207 33.7709C11.2703 33.2592 13.5688 31.6232 14.4743 31.0379C16.2454 29.8877 17.8341 25.7012 18.0563 25.7194C18.8623 25.813 21.1641 25.8588 20.5339 27.4367C20.4643 27.8051 18.6202 30.8547 18.5571 30.9413C18.4908 31.0379 18.4543 31.1419 18.4543 31.2568C18.4543 31.6183 18.8225 31.9104 19.2802 31.9104C19.5654 31.9104 19.8208 31.7962 19.9701 31.6203C20.0596 31.5185 22.8755 27.9253 23.0115 26.0624C23.0646 25.3958 22.6666 24.6609 21.3664 24.2995C20.6699 24.1132 19.6683 23.9503 19.1376 23.9402L19.5223 17.6882C19.5223 17.5069 19.4958 17.3338 19.4394 17.1692C19.456 17.1608 19.4726 17.1538 19.4892 17.1457C22.2852 15.9934 25.8805 12.056 26.1823 11.7232Z" fill="#18191B"/>
<path d="M18.6209 13.7264C18.6209 14.7914 17.7588 15.6552 16.6925 15.6552C15.6263 15.6552 14.7588 14.7914 14.7588 13.7264C14.7588 12.659 15.6263 11.7931 16.6925 11.7931C17.7588 11.7931 18.6209 12.659 18.6209 13.7264Z" fill="#18191B"/>
</g>
<defs>
<clipPath id="clip0_770_72">
<rect width="40" height="40" fill="white"/>
</clipPath>
</defs>
</svg>
