<svg width="40" height="40" viewBox="0 0 40 40" fill="none" xmlns="http://www.w3.org/2000/svg">
<g clip-path="url(#clip0_770_86)">
<path d="M39.25 9.61039V30.3896C39.25 35.2793 35.2793 39.25 30.3896 39.25H9.61039C4.72071 39.25 0.75 35.2793 0.75 30.3896V9.61039C0.75 4.72071 4.72071 0.75 9.61039 0.75H30.3896C35.2793 0.75 39.25 4.72071 39.25 9.61039Z" fill="white"/>
<path d="M17 8C17.5523 8 18 7.55228 18 7C18 6.44772 17.5523 6 17 6C16.4477 6 16 6.44772 16 7C16 7.55228 16.4477 8 17 8Z" fill="#18191B"/>
<path d="M33.8883 18.5303C33.8829 18.5222 33.83 18.4685 33.8121 18.455C33.5961 18.265 32.9124 17.705 32.6346 17.4944C29.9759 15.4835 25.2399 15.8993 24.8887 16.256C24.7973 16.2022 24.3788 16.0768 24.1574 16.0284C23.6198 15.8939 22.9459 16.1888 22.962 16.1941C22.7129 16.3232 22.4925 16.5024 22.3079 16.7219C20.7397 16.8492 18.5756 18.1629 17.0271 17.3205C15.8245 16.4451 15.5996 15.7246 14.993 14.5722C14.9831 14.5516 14.9473 14.488 14.9392 14.4772C14.8361 14.3141 14.6569 14.2084 14.4526 14.2021C14.5574 14.1134 13.7787 14.781 13.837 14.7451C13.8343 14.764 13.8325 14.7846 13.8325 14.8034C13.8325 14.8966 13.8522 14.9772 13.8872 15.0552V15.0588C13.8872 15.1448 14.7062 16.6646 15.234 17.3241C16.1588 18.5142 16.6606 18.6325 18.1616 18.8135C18.6491 18.8027 21.1161 18.5079 21.7568 18.3905C21.7389 18.4326 21.7254 18.4738 21.7057 18.5106C21.7057 18.5106 22.0346 24.5736 21.8912 24.665C21.3257 25.131 16.0226 31.8742 15.6677 32.4782C15.5871 32.5902 15.5423 32.7327 15.5423 32.8814C15.5423 33.273 15.8622 33.5983 16.2583 33.5983C16.4142 33.5983 16.5549 33.5473 16.6705 33.4639H16.6749C17.4985 33.1297 22.1735 27.8785 23.4128 25.8999C23.4737 25.9447 23.8142 25.976 23.8725 25.9447C23.5499 27.0021 23.299 28.2253 23.2918 28.9888C23.2927 29.5372 23.4101 30.1698 23.8304 30.5032C24.308 30.9252 28.9848 33.8743 28.9848 33.8743H28.9893C29.0959 33.9335 29.216 33.9693 29.3468 33.9693C29.742 33.9693 30.0628 33.6539 30.0628 33.256C30.0628 33.0239 29.949 32.8169 29.7778 32.6879C29.7778 32.6852 29.7778 32.6852 29.7742 32.6852C29.7742 32.6852 25.8968 29.5461 25.0598 29.2406C25.7633 28.1608 25.878 23.8684 25.878 23.5216L26.042 18.4066C26.042 18.2391 26.0249 18.0822 25.998 17.929C25.9927 17.92 25.8833 17.6378 25.8735 17.5974C25.8869 17.5957 28.6595 16.2578 32.2654 18.7561C32.4169 18.8636 32.7834 19.1603 32.9859 19.3225C33.0235 19.3637 33.1311 19.4363 33.1311 19.4363C33.2162 19.4873 33.321 19.5178 33.4295 19.5178C33.7628 19.5178 34.0325 19.2499 34.0325 18.9165C34.0325 18.7705 33.977 18.636 33.8883 18.5303Z" fill="#18191B"/>
<path d="M25.0309 13.849C25.0309 14.988 24.107 15.911 22.9735 15.911C21.8327 15.911 20.9106 14.988 20.9106 13.849C20.9106 12.7137 21.8327 11.7898 22.9735 11.7898C24.107 11.7898 25.0309 12.7137 25.0309 13.849Z" fill="#18191B"/>
<path d="M7.83474 8.2361C12.4682 13.3804 15.1336 13.3766 15.2257 13.4025L13.1865 15.1339C9.76581 13.501 7.52119 10.5933 6.82648 9.34357C6.65403 8.89722 6.75845 7.89278 7.83474 8.2361Z" fill="#18191B"/>
</g>
<defs>
<clipPath id="clip0_770_86">
<rect width="40" height="40" fill="white"/>
</clipPath>
</defs>
</svg>
