<svg width="40" height="40" viewBox="0 0 40 40" fill="none" xmlns="http://www.w3.org/2000/svg">
<g clip-path="url(#clip0_770_107)">
<path d="M30 0.75H10C4.89137 0.75 0.75 4.89137 0.75 10V30C0.75 35.1086 4.89137 39.25 10 39.25H30C35.1086 39.25 39.25 35.1086 39.25 30V10C39.25 4.89137 35.1086 0.75 30 0.75Z" fill="white"/>
<path d="M29.9999 25.8441C29.9999 26.2088 29.764 26.5039 29.4711 26.5039C29.1801 26.5039 28.9453 26.2088 28.9453 25.8441V8.70564C28.9453 8.34131 29.1801 8.04592 29.4711 8.04592C29.764 8.04592 29.9999 8.34131 29.9999 8.70564V25.8441Z" fill="#18191B"/>
<path d="M25.394 9.24409C24.6274 9.24409 24.0067 8.6223 24.0067 7.85682C24.0067 7.08884 24.6274 6.46704 25.394 6.46704C26.1597 6.46704 26.7826 7.08884 26.7826 7.85682C26.7826 8.6223 26.1597 9.24409 25.394 9.24409ZM25.394 6.00001C24.3677 6.00001 23.5361 6.82611 23.5361 7.85682C23.5361 8.87866 24.3677 9.71143 25.394 9.71143C26.4203 9.71143 27.2497 8.87866 27.2497 7.85682C27.2497 6.82611 26.4203 6.00001 25.394 6.00001Z" fill="#18191B"/>
<path d="M26.5469 10.9713V10.9691C26.6172 10.8739 26.6604 10.7548 26.6604 10.6253C26.6604 10.3038 26.3999 10.0411 26.0798 10.0411C25.922 10.0411 25.7792 10.104 25.672 10.2089C25.672 10.2089 20.0507 15.1542 19.7935 15.549C19.5717 15.4214 19.3261 15.3347 19.0623 15.3001C18.8732 15.2625 18.5369 15.3045 18.1723 15.3942C17.8414 15.5133 17.5527 15.7165 17.3223 15.9814C15.803 16.1027 14.4988 16.4953 13.001 15.6788C11.8028 14.8048 11.7184 14.1451 11.0877 12.9752C10.9847 12.7966 10.7959 12.6798 10.5828 12.6798C10.2594 12.6798 10 12.9394 10 13.2639C10 13.3428 10.0149 13.4153 10.0421 13.4801C10.0421 13.4801 10.8856 15.1271 11.343 15.7004C12.2397 16.8466 13.4107 17.3928 14.8589 17.568C15.3434 17.5625 16.2052 17.7173 16.827 17.5896C16.8185 17.8308 16.827 18.0492 16.8572 18.166C16.8605 18.1605 17.3514 24.8494 17.3774 25.0548C17.3387 26.1091 16.8475 29.0993 14.7701 31.0458L12.2773 33.5408C12.1735 33.6628 12.1024 33.822 12.1024 33.9981C12.1024 34.3821 12.4127 34.6902 12.7945 34.6902C12.9783 34.6902 13.1458 34.6168 13.2701 34.4978C13.2701 34.4978 15.8008 32.3705 16.6139 31.5671C17.9765 30.2153 19.415 25.8951 19.6041 25.9144C20.2746 26.0171 22.1973 26.0681 21.6719 27.7422C21.6157 28.1206 19.9729 31.5865 19.9729 31.5865C19.9729 31.5887 19.9729 31.5887 19.9729 31.5887C19.9427 31.6646 19.9264 31.7487 19.9264 31.8354C19.9264 32.2194 20.2348 32.5275 20.6163 32.5275C20.8663 32.5275 21.0814 32.3943 21.2046 32.1975C21.2046 32.1975 23.6142 28.418 23.7438 26.2821C23.7817 25.5706 23.4531 24.7952 22.3662 24.4081C21.7865 24.2102 20.9496 24.0371 20.5094 24.0275L20.8294 17.3809C20.8294 17.1949 20.8067 17.0088 20.7602 16.8305C20.7721 16.825 26.5469 10.9713 26.5469 10.9713Z" fill="#18191B"/>
<path d="M20.107 13.2345C20.107 14.3344 19.2191 15.2245 18.117 15.2245C17.0193 15.2245 16.1284 14.3344 16.1284 13.2345C16.1284 12.1371 17.0193 11.2448 18.117 11.2448C19.2191 11.2448 20.107 12.1371 20.107 13.2345Z" fill="#18191B"/>
</g>
<defs>
<clipPath id="clip0_770_107">
<rect width="40" height="40" fill="white"/>
</clipPath>
</defs>
</svg>
