<svg width="40" height="40" viewBox="0 0 40 40" fill="none" xmlns="http://www.w3.org/2000/svg">
<g clip-path="url(#clip0_770_92)">
<path d="M30 0.75H10C4.89137 0.75 0.75 4.89137 0.75 10V30C0.75 35.1086 4.89137 39.25 10 39.25H30C35.1086 39.25 39.25 35.1086 39.25 30V10C39.25 4.89137 35.1086 0.75 30 0.75Z" fill="white"/>
<path d="M22.8579 9.24409C22.0913 9.24409 21.4706 8.6223 21.4706 7.85682C21.4706 7.08884 22.0913 6.46704 22.8579 6.46704C23.6237 6.46704 24.2466 7.08884 24.2466 7.85682C24.2466 8.6223 23.6237 9.24409 22.8579 9.24409ZM22.8579 6.00001C21.8316 6.00001 21 6.82611 21 7.85682C21 8.87866 21.8316 9.71143 22.8579 9.71143C23.8842 9.71143 24.7136 8.87866 24.7136 7.85682C24.7136 6.82611 23.8842 6.00001 22.8579 6.00001Z" fill="#18191B"/>
<path d="M28.4966 12.7185C28.4966 13.9294 27.5181 14.9104 26.3085 14.9104C25.1005 14.9104 24.1182 13.9294 24.1182 12.7185C24.1182 11.5114 25.1005 10.5304 26.3085 10.5304C27.5181 10.5304 28.4966 11.5114 28.4966 12.7185Z" fill="#18191B"/>
<path d="M32.9947 24.1903C32.9957 24.1518 32.6444 22.8058 32.5077 22.3487C31.3356 18.4804 26.3411 15.5313 25.8629 15.7138C25.7176 15.392 25.5104 15.1027 25.2335 14.8643C24.9985 14.631 24.5306 14.4421 24.3815 14.3887C23.9542 14.2584 23.5047 14.246 23.0714 14.3515C22.5822 14.041 20.1283 12.2652 19.7967 11.9336C19.0131 10.7465 20.3988 7.606 20.4252 7.56244C20.4252 7.56244 20.4313 7.55894 20.4313 7.55259C20.4945 7.4534 20.533 7.32657 20.533 7.19877C20.533 6.83 20.2339 6.528 19.8651 6.528C19.6737 6.528 19.5011 6.60874 19.3784 6.73686C19.1361 6.96638 18.288 9.30105 17.9663 10.6261C17.7142 11.6605 18.0979 12.7124 19.4305 13.8585C19.5237 13.9255 21.2584 15.4915 21.4085 15.5996C21.2222 15.833 21.0734 16.0565 21.0213 16.1957C21.0213 16.1957 21.0162 16.1992 21.0111 16.2116C20.8932 16.1397 18.2657 20.4797 18.2657 20.4797C18.0569 20.8399 15.6888 25.9909 15.6939 26.8912C14.6445 26.7074 8.75349 27.6389 8.75349 27.6389C8.75349 27.6389 8.75221 27.6389 8.75221 27.6423C8.49375 27.6735 8.25534 27.8162 8.11515 28.0585C7.87799 28.4683 8.01945 28.9899 8.42668 29.2246C8.56465 29.3066 8.71121 29.3374 8.85776 29.3374C8.85776 29.34 8.85902 29.3399 8.85902 29.3399C8.85902 29.3399 15.4691 29.0831 16.2165 28.9302C16.8488 28.837 17.3467 28.2534 17.677 27.6859C18.1239 26.8912 18.5947 25.4755 18.8939 24.1865C18.9349 24.2548 19.3037 24.4262 19.3994 24.4163C19.3844 24.615 19.1883 26.9248 18.4021 28.6011C17.1181 31.3332 15.3077 33.1958 15.274 33.233L15.2717 33.2368H15.2679C15.1265 33.376 15.0381 33.5747 15.0381 33.7944C15.0381 34.2302 15.3957 34.5866 15.8328 34.5866C16.0925 34.5866 16.3173 34.4626 16.4639 34.2738C16.4639 34.27 16.4674 34.2639 16.4712 34.2639C16.5643 34.1123 19.3523 30.8338 20.0463 29.592C20.7256 28.3653 21.4794 24.6337 21.7041 24.0501C21.6545 23.948 22.8715 22.0047 23.9492 20.3122L25.5625 18.304C25.7027 18.1117 25.8133 17.9066 25.8941 17.7006C25.91 17.7006 29.5274 18.36 31.2599 23.3087C31.3664 23.613 31.5851 24.4945 31.5851 24.4945C31.5902 24.497 31.5924 24.5009 31.5975 24.5009C31.6436 24.6398 31.7292 24.7676 31.8569 24.8572C32.1739 25.0906 32.6145 25.0222 32.8504 24.7142C32.8517 24.7081 32.8568 24.7081 32.8568 24.7081C32.8568 24.7081 32.8567 24.7081 32.8606 24.7056C32.8606 24.7056 32.8618 24.6996 32.864 24.6996C32.9747 24.5466 33.0157 24.3641 32.9947 24.1903Z" fill="#18191B"/>
</g>
<defs>
<clipPath id="clip0_770_92">
<rect width="40" height="40" fill="white"/>
</clipPath>
</defs>
</svg>
