<svg width="40" height="40" viewBox="0 0 40 40" fill="none" xmlns="http://www.w3.org/2000/svg">
<g clip-path="url(#clip0_770_147)">
<path d="M30 0.75H10C4.89137 0.75 0.75 4.89137 0.75 10V30C0.75 35.1086 4.89137 39.25 10 39.25H30C35.1086 39.25 39.25 35.1086 39.25 30V10C39.25 4.89137 35.1086 0.75 30 0.75Z" fill="white"/>
<path d="M20.4991 17.1629C20.6417 17.0082 20.8591 16.943 21.0645 16.994C21.0887 17.0016 21.1104 17.0129 21.1346 17.0233L22.7099 15.1168C22.693 15.1045 22.6761 15.0922 22.6592 15.0781C22.5819 15.0196 22.5069 14.9639 22.4369 14.9139C22.4127 14.897 22.3861 14.8798 22.3644 14.86C22.2798 14.7996 22.2025 14.7421 22.13 14.6911C22.1252 14.6892 22.1204 14.6846 22.1155 14.6817L18.1362 18.9458L18.9287 19.6829L20.4001 17.9076C20.3904 17.8302 20.3808 17.7745 20.3759 17.7528L20.3687 17.7405V17.7264C20.3373 17.6245 20.3349 17.5178 20.359 17.4187C20.3832 17.3253 20.4291 17.2356 20.4991 17.1629Z" fill="#18191B"/>
<path d="M23.6308 14.0049L23.9159 13.6623L23.609 13.3745L25.6917 11.1367L25.5468 11L23.0654 13.6597C23.0678 13.6623 23.0702 13.6623 23.0702 13.6623C23.1862 13.7341 23.4012 13.8653 23.6308 14.0049Z" fill="#18191B"/>
<path d="M25.5393 14.7204C26.0225 15.5566 27.0904 15.8417 27.9288 15.3603C28.7648 14.8772 29.0523 13.8098 28.5691 12.9735C28.0834 12.1354 27.0155 11.8476 26.1795 12.3309C25.3436 12.8121 25.056 13.8842 25.5393 14.7204Z" fill="#18191B"/>
<path d="M16.5537 26.2866C16.5537 26.2838 16.5561 26.2791 16.5585 26.2763L16.5634 26.2668C16.5827 26.2357 16.602 26.2092 16.6213 26.1828L16.7156 26.045L10.2742 25.8204L10.2573 26.3178L16.4836 26.5349C16.486 26.5009 16.4885 26.4678 16.4981 26.431C16.5006 26.4216 16.503 26.4122 16.5054 26.4027C16.5174 26.364 16.5344 26.3225 16.5537 26.2866Z" fill="#18191B"/>
<path d="M23.9594 26.296C23.9014 26.3611 23.8435 26.4243 23.7903 26.4847L23.7758 26.4989V26.4961C23.6526 26.6338 23.4835 26.7113 23.3047 26.7113C23.0147 26.7113 22.7707 26.5159 22.6958 26.2544L18.545 26.1072C18.3903 26.2818 18.2333 26.4432 18.0786 26.5933L34.4792 27.1652L34.4961 26.666L23.9594 26.296Z" fill="#18191B"/>
<path d="M17.5324 27.0548C17.4647 27.1152 17.3826 27.1634 17.2908 27.1898C17.2207 27.2096 17.1651 27.2162 17.112 27.2162C16.8486 27.2162 16.6215 27.0548 16.5249 26.8255L5.03383 26.0204L5 26.5178L29.178 28.2091L29.2095 27.7089L17.7208 26.9076C17.658 26.9605 17.5952 27.0086 17.5324 27.0548Z" fill="#18191B"/>
<path d="M17.6892 15.5227C17.6941 15.5444 17.6941 15.5661 17.7037 15.5906C17.7835 15.8586 18.071 16.0134 18.3416 15.9285C18.4358 15.8992 18.518 15.8435 18.5784 15.7737C18.5808 15.7718 18.5832 15.769 18.5832 15.7662C18.6073 15.7378 20.5982 14.0221 21.6396 14.3287C21.7869 14.409 22.2581 14.745 22.7558 15.1187L22.7413 15.1385L20.591 17.7264C20.1971 18.1247 20.0377 19.4319 19.9821 19.6782C19.6342 21.8914 19.4143 22.0801 19.2549 22.3793C18.9987 22.7852 17.02 25.6533 16.6431 26.197C16.6213 26.2262 16.6044 26.2545 16.5875 26.2838C16.5851 26.2885 16.5826 26.2913 16.5826 26.2913C16.5802 26.2932 16.5802 26.2961 16.5802 26.2961C16.5585 26.3319 16.544 26.3734 16.5319 26.4121C16.5295 26.4216 16.5271 26.4291 16.5222 26.4357C16.5126 26.482 16.5053 26.5282 16.5053 26.5764L16.5029 26.5811H16.5053C16.5053 26.5839 16.5029 26.5839 16.5029 26.5839C16.5029 26.9171 16.7783 27.1898 17.1118 27.1898C17.1698 27.1898 17.2253 27.1804 17.2785 27.1653C17.2785 27.1653 17.2809 27.1634 17.2833 27.1634C17.3703 27.137 17.45 27.0936 17.5153 27.0303C18.2377 26.5254 19.0737 25.4551 19.7163 24.6727C20.6731 23.4958 21.3907 22.0263 21.5937 20.4342C21.6009 20.3549 21.6178 20.2463 21.6323 20.1227C21.7072 20.1208 21.7773 20.1133 21.8522 20.0982C22.0141 20.3473 22.2388 20.5795 22.3837 20.7701C22.9008 21.343 24.3408 22.5652 24.5655 22.9135C24.8047 23.2636 23.5024 24.6652 22.8162 25.7156C22.7437 25.8175 22.6954 25.9412 22.6954 26.079C22.6954 26.4121 22.966 26.6849 23.3043 26.6849C23.4903 26.6849 23.6546 26.5981 23.7657 26.4678H23.7682C24.5172 25.6335 25.8436 24.315 26.0441 23.6044C26.1988 23.0296 25.8629 22.317 25.5633 21.8262C24.9448 20.8013 24.1113 19.9075 23.1424 19.2072L24.249 18.1709C24.4423 18.0228 25.1719 17.3564 25.3386 17.1488L25.5198 16.977C26.0635 16.4164 25.9813 15.3075 25.4184 14.761C25.2106 14.5609 24.9231 14.4138 24.6114 14.3362C24.6114 14.3287 24.6065 14.3241 24.6065 14.3193C24.4447 14.3222 24.2997 14.2901 24.1112 14.3005C24.0943 14.3005 24.0774 14.3005 24.0629 14.3024C23.5894 14.0125 23.0143 13.6624 22.9708 13.6302C21.8328 12.9102 20.9751 12.8667 20.2744 13.283C19.3781 13.8114 17.8583 14.9592 17.7448 15.1866C17.7424 15.1914 17.7399 15.1989 17.7375 15.2037L17.7134 15.1914L10.1558 11.807L10.0132 12.125L17.6578 15.5104L17.6892 15.5227Z" fill="#18191B"/>
</g>
<defs>
<clipPath id="clip0_770_147">
<rect width="40" height="40" fill="white"/>
</clipPath>
</defs>
</svg>
