<svg width="40" height="40" viewBox="0 0 40 40" fill="none" xmlns="http://www.w3.org/2000/svg">
<g clip-path="url(#clip0_770_134)">
<path d="M30 0.75H10C4.89137 0.75 0.75 4.89137 0.75 10V30C0.75 35.1086 4.89137 39.25 10 39.25H30C35.1086 39.25 39.25 35.1086 39.25 30V10C39.25 4.89137 35.1086 0.75 30 0.75Z" fill="white"/>
<path d="M20 8.5C22.4853 8.5 24.5 10.5147 24.5 13C24.5 15.4853 22.4853 17.5 20 17.5C17.5147 17.5 15.5 15.4853 15.5 13C15.5 10.5147 17.5147 8.5 20 8.5Z" fill="white" stroke="#18191B"/>
<path d="M11 31.25C13.3472 31.25 15.25 29.3472 15.25 27C15.25 24.6528 13.3472 22.75 11 22.75C8.65279 22.75 6.75 24.6528 6.75 27C6.75 29.3472 8.65279 31.25 11 31.25Z" stroke="#18191B" stroke-width="1.5"/>
<path d="M11 26.5C11.2761 26.5 11.5 26.7239 11.5 27C11.5 27.2761 11.2761 27.5 11 27.5C10.7239 27.5 10.5 27.2761 10.5 27C10.5 26.7239 10.7239 26.5 11 26.5Z" fill="white" stroke="#18191B"/>
<path d="M29 31.25C31.3472 31.25 33.25 29.3472 33.25 27C33.25 24.6528 31.3472 22.75 29 22.75C26.6528 22.75 24.75 24.6528 24.75 27C24.75 29.3472 26.6528 31.25 29 31.25Z" stroke="#18191B" stroke-width="1.5"/>
</g>
<defs>
<clipPath id="clip0_770_134">
<rect width="40" height="40" fill="white"/>
</clipPath>
</defs>
</svg>
