<svg width="40" height="40" viewBox="0 0 40 40" fill="none" xmlns="http://www.w3.org/2000/svg">
<g clip-path="url(#clip0_770_127)">
<path d="M30 0.75H10C4.89137 0.75 0.75 4.89137 0.75 10V30C0.75 35.1086 4.89137 39.25 10 39.25H30C35.1086 39.25 39.25 35.1086 39.25 30V10C39.25 4.89137 35.1086 0.75 30 0.75Z" fill="white"/>
<path d="M27.8681 20.5128C25.1984 20.0946 20.2266 17.7794 14.9356 14.3417C12.7301 12.9089 10.7258 11.4501 9.0301 10.0676C8.05077 9.91462 7.37732 10.0174 7.11706 10.4145C6.15383 11.8955 11.241 16.9074 18.4746 21.6049C25.7135 26.3035 32.3595 28.9142 33.3227 27.4302C33.9908 26.3999 31.7371 23.6634 27.8681 20.5128Z" fill="#18191B"/>
<path d="M15.6817 21.6375C10.8441 18.1736 7.44999 14.8229 7.04485 13.103C6.57263 14.4947 10.0418 18.1495 15.3329 21.9865C15.4241 21.8471 15.5395 21.7266 15.6817 21.6375Z" fill="#18191B"/>
<path d="M33.3976 29.2035C33.3762 29.2633 33.3547 29.3167 33.3225 29.365C32.5873 30.4969 28.5439 29.2444 23.4514 26.5016C23.4219 26.6787 23.3575 26.8485 23.2583 26.9953C28.4393 29.8125 32.5793 31.1111 33.3225 29.9655C33.4486 29.7695 33.4701 29.5148 33.3976 29.2035Z" fill="#18191B"/>
<path d="M18.587 12.3536C18.3456 11.3077 17.3045 10.6557 16.2581 10.8966C15.2117 11.1389 14.5597 12.1826 14.8012 13.2256C15.0454 14.2725 16.0891 14.9213 17.1328 14.6835C18.1766 14.4413 18.8285 13.3975 18.587 12.3536Z" fill="#18191B"/>
<path d="M25.1528 15.9945C24.9113 14.9518 23.8676 14.2998 22.8212 14.5408C21.7774 14.7798 21.1254 15.8237 21.3642 16.8697C21.6084 17.9136 22.6494 18.5655 23.6958 18.3265C24.7396 18.0854 25.3916 17.0415 25.1528 15.9945Z" fill="#18191B"/>
</g>
<defs>
<clipPath id="clip0_770_127">
<rect width="40" height="40" fill="white"/>
</clipPath>
</defs>
</svg>
