<svg width="40" height="40" viewBox="0 0 40 40" fill="none" xmlns="http://www.w3.org/2000/svg">
<g clip-path="url(#clip0_770_140)">
<path d="M30 0.75H10C4.89137 0.75 0.75 4.89137 0.75 10V30C0.75 35.1086 4.89137 39.25 10 39.25H30C35.1086 39.25 39.25 35.1086 39.25 30V10C39.25 4.89137 35.1086 0.75 30 0.75Z" fill="white"/>
<path d="M31 21C31.5523 21 32 20.5523 32 20C32 19.4477 31.5523 19 31 19C30.4477 19 30 19.4477 30 20C30 20.5523 30.4477 21 31 21Z" fill="#18191B"/>
<path d="M28.6422 15.67C28.5117 15.4292 28.2708 15.2792 28.0054 15.2554C28.0032 15.2528 22.0814 14.6898 20.9182 13.7113C20.6921 13.531 20.4827 13.3329 20.2768 13.1307C20.2104 12.8143 20.0661 12.5387 19.8309 12.3413C19.7035 12.2377 19.0673 11.6189 18.0929 11.7113C17.2139 11.7707 15.8096 13.0665 14.0329 14.7912C12.4133 16.3471 10.5536 18.2137 10.4337 18.6413C10.1424 19.2297 10.4828 20.1514 10.624 20.4152C11.7619 22.5747 17.281 20.4795 18.4125 20.2929C19.1246 20.6799 19.3155 28.8041 19.3181 28.814C19.3347 29.0531 19.4449 29.2872 19.6413 29.4539C20.0326 29.7994 20.6326 29.7567 20.9724 29.3605C21.0851 29.2322 21.152 29.0813 21.1841 28.9267C21.183 28.9227 21.1859 28.9219 21.1859 28.9219C21.1859 28.9219 21.5623 25.4713 21.5735 25.1816C21.63 24.037 21.6478 21.6785 21.5535 20.4916C21.4831 19.5882 21.279 18.2146 20.2564 17.8468C18.9158 17.4473 18.1539 17.8123 16.8557 18.0515C16.8557 18.0515 18.0681 16.8746 18.8377 16.1321C19.4208 15.8778 20.9617 16.1039 20.9617 16.1039C23.1602 16.5658 27.8012 16.9067 27.9869 16.8448C27.9912 16.8436 28.1275 16.8318 28.1884 16.8076C28.608 16.6752 28.8374 16.2215 28.7016 15.8059C28.6996 15.7986 28.6996 15.7986 28.6989 15.7961L28.6977 15.7917C28.681 15.7408 28.6618 15.7032 28.6422 15.67Z" fill="#18191B"/>
<path d="M23.8208 11.7626C24.8088 10.6289 24.6872 8.90558 23.554 7.91898C22.4179 6.93315 20.6969 7.05262 19.7106 8.187C18.7237 9.32505 18.8438 11.0429 19.9803 12.0302C21.1139 13.0182 22.8352 12.894 23.8208 11.7626Z" fill="#18191B"/>
<path d="M9.28955 27.4101C9.28955 27.6914 9.00035 27.9223 8.64291 27.9223C8.28919 27.9223 8 27.6914 8 27.4101V14.2495C8 13.9682 8.28919 13.7373 8.64291 13.7373C9.00035 13.7373 9.28955 13.9682 9.28955 14.2495V27.4101Z" fill="#18191B"/>
<path d="M13.1582 33.0805C16.007 33.0805 18.3164 30.7711 18.3164 27.9223C18.3164 25.0735 16.007 22.7641 13.1582 22.7641C10.3094 22.7641 8 25.0735 8 27.9223C8 30.7711 10.3094 33.0805 13.1582 33.0805Z" fill="#18191B"/>
</g>
<defs>
<clipPath id="clip0_770_140">
<rect width="40" height="40" fill="white"/>
</clipPath>
</defs>
</svg>
