<svg width="40" height="40" viewBox="0 0 40 40" fill="none" xmlns="http://www.w3.org/2000/svg">
<g clip-path="url(#clip0_770_240)">
<path d="M39.25 9.61039V30.3896C39.25 35.2793 35.2793 39.25 30.3896 39.25H9.61039C4.72071 39.25 0.75 35.2793 0.75 30.3896V9.61039C0.75 4.72071 4.72071 0.75 9.61039 0.75H30.3896C35.2793 0.75 39.25 4.72071 39.25 9.61039Z" fill="white"/>
<path d="M27.473 9.33992C26.735 8.05992 25.095 7.61992 23.813 8.35792C22.535 9.09992 22.092 10.7379 22.833 12.0189C23.575 13.2969 25.211 13.7369 26.493 12.9989C27.771 12.2579 28.211 10.6189 27.473 9.33992Z" fill="#18191B"/>
<path d="M25.412 23.2759L25.837 22.9289C25.964 22.7429 26.023 22.5349 25.997 22.3599C25.975 21.9639 25.814 21.7709 25.639 21.5959C25.628 21.5889 25.554 21.5249 25.528 21.5059C24.208 20.4479 23.351 20.0939 22.531 18.3349C22.244 17.4369 22.185 16.6919 22.248 15.9949C22.565 15.6929 22.803 15.4759 22.803 15.4759C23.634 14.6089 23.508 12.9099 22.651 12.0819C22.334 11.7759 21.969 11.4879 21.398 11.3199C20.892 11.1749 20.284 11.0359 19.666 11.4219C19.345 11.5289 15.257 16.6129 15.257 16.6129C14.65 17.2319 14.411 19.2329 14.325 19.6089C13.789 23.0049 13.453 23.2919 13.211 23.7499C12.816 24.3689 9.79 28.7549 9.212 29.5969C9.179 29.6369 9.153 29.6799 9.127 29.7229C9.119 29.7279 9.116 29.7349 9.116 29.7349V29.7419C9.082 29.8059 9.06 29.8569 9.045 29.9209C9.041 29.9329 9.034 29.9469 9.03 29.9589C9.015 30.0259 9.004 30.0999 9.004 30.1699C9.004 30.1749 9 30.1789 9 30.1789H9.004C9.004 30.1819 9 30.1819 9 30.1819C9 30.6959 9.414 31.1129 9.932 31.1129C10.017 31.1129 10.103 31.0939 10.181 31.0769C10.185 31.0679 10.185 31.0679 10.185 31.0679C10.327 31.0319 10.446 30.9649 10.55 30.8719C11.657 30.0999 12.932 28.4529 13.915 27.2529C15.384 25.4609 16.483 23.2089 16.792 20.7689C16.807 20.6449 16.83 20.4779 16.848 20.2869C16.964 20.2869 17.076 20.2769 17.187 20.2539C17.433 20.6379 17.776 20.9919 18 21.2829C18.794 22.1549 21 24.0329 21.343 24.5659C21.752 25.1619 18.652 28.6049 17.884 30.0519C17.881 30.0549 17.728 30.3759 17.728 30.5659C17.728 31.0769 18.145 31.4939 18.659 31.4939C18.79 31.4939 18.913 31.4649 19.025 31.4119C19.14 31.3669 19.248 31.2929 19.33 31.2039C19.867 30.7889 23.135 27.3129 23.608 25.6279C23.843 24.7449 23.329 23.6489 22.874 22.8959C21.924 21.3279 20.646 19.9639 19.162 18.8899L20.023 18.0849C20.236 19.1139 20.698 20.0649 21.462 20.9389C22.17 21.7749 23.906 23.2019 24.018 23.2209L24.026 23.2249C24.111 23.2879 24.216 23.3359 24.328 23.3549C24.354 23.3589 24.376 23.3589 24.402 23.3619C24.398 23.3739 25.077 23.3999 25.252 22.7099C25.293 22.4489 25.2 22.1959 25.024 22.0209H25.021C25.01 22.0099 24.935 21.9469 24.909 21.9279C23.593 20.8699 22.736 20.5119 21.916 18.7609C21.67 17.9849 21.603 17.2649 21.633 16.5679C21.67 16.5319 21.708 16.4979 21.749 16.4649C21.693 17.2579 21.779 17.9849 22.01 18.7149C22.654 20.0939 23.321 20.5899 24.238 21.2829C24.469 21.4509 24.711 21.6369 24.972 21.8449C24.998 21.8639 25.073 21.9239 25.088 21.9379L25.114 21.9569L25.118 21.9639C25.311 22.1699 25.401 22.4489 25.352 22.7359C25.274 23.0529 25.095 23.2279 24.909 23.3289C24.957 23.4259 25.147 23.3109 25.293 23.3109C25.334 23.2989 25.371 23.2919 25.412 23.2759Z" fill="#18191B"/>
<path d="M29.75 26.7499C30.3023 26.7499 30.75 26.3022 30.75 25.7499C30.75 25.1976 30.3023 24.7499 29.75 24.7499C29.1977 24.7499 28.75 25.1976 28.75 25.7499C28.75 26.3022 29.1977 26.7499 29.75 26.7499Z" fill="#18191B"/>
</g>
<defs>
<clipPath id="clip0_770_240">
<rect width="40" height="40" fill="white"/>
</clipPath>
</defs>
</svg>
