<svg width="40" height="40" viewBox="0 0 40 40" fill="none" xmlns="http://www.w3.org/2000/svg">
<g clip-path="url(#clip0_770_97)">
<path d="M30 0.75H10C4.89137 0.75 0.75 4.89137 0.75 10V30C0.75 35.1086 4.89137 39.25 10 39.25H30C35.1086 39.25 39.25 35.1086 39.25 30V10C39.25 4.89137 35.1086 0.75 30 0.75Z" fill="white"/>
<path d="M32.0707 32C32.5843 32 33 32.2237 33 32.5014C33 32.7774 32.5843 33 32.0707 33H7.92929C7.4161 33 7 32.7774 7 32.5015C7 32.2237 7.4161 32 7.92929 32H32.0707Z" fill="#18191B"/>
<path d="M25.2322 11.0577C24.4941 9.95882 23.0014 9.67053 21.9058 10.4089C20.807 11.151 20.519 12.6404 21.2604 13.7379C22.0018 14.8343 23.4879 15.1252 24.5867 14.3844C25.6823 13.6462 25.9736 12.1529 25.2322 11.0577Z" fill="#18191B"/>
<path d="M29.1942 23.2536C29.1148 23.1256 28.999 23.0286 28.8666 22.9795C28.8666 22.9731 28.8632 22.9731 28.8599 22.9666C28.8599 22.9666 28.0159 22.6912 27.7346 22.5722C23.1208 20.5838 22.6673 17.1085 22.6508 16.9792C22.6508 16.9792 22.6475 16.9792 22.6442 16.9792C22.7203 16.2371 22.4423 15.4161 21.8961 14.9572C21.595 14.7012 21.254 14.4671 20.7311 14.3547C20.2743 14.2513 19.7216 14.1724 19.1921 14.5525C18.9141 14.665 15.5811 19.4616 15.5811 19.4616C15.3792 19.7059 14.4657 21.0725 14.469 21.8676C13.1716 24.3034 12.8075 24.7999 12.4831 25.0972C11.9668 25.511 8.13078 28.3411 7.39932 28.8841C7.3596 28.9074 7.31985 28.9371 7.28676 28.963C7.28345 28.9668 7.27686 28.9707 7.27686 28.9707C7.27355 28.9733 7.27023 28.9772 7.27023 28.9798C7.23051 29.0199 7.19081 29.0625 7.15771 29.1065C7.15109 29.1156 7.14445 29.1285 7.13783 29.1362C7.10473 29.1918 7.07494 29.2448 7.05177 29.3082C7.05177 29.3108 7.04846 29.3146 7.04846 29.3146C7.04846 29.3172 7.04515 29.3172 7.04515 29.3172C6.89621 29.7516 7.12791 30.2248 7.56149 30.3735C7.63762 30.3994 7.71373 30.4097 7.78985 30.4162C7.79316 30.4162 7.79317 30.4162 7.79648 30.4162C7.92225 30.4201 8.0447 30.3994 8.15723 30.3502C9.32227 30.0167 10.8779 29.0005 12.0628 28.2713C13.8269 27.1762 15.4057 25.5976 16.3788 23.6221C16.531 23.476 17.8284 23.4398 18.027 23.4721C19.0795 23.582 21.5486 23.8432 22.098 23.9893C22.7236 24.1379 22.7269 28.2855 23.0811 29.7077C23.0811 29.7115 23.1704 30.0167 23.283 30.1421C23.5908 30.4821 24.117 30.5093 24.4612 30.2016C24.5473 30.1253 24.6135 30.0296 24.6598 29.9301C24.7062 29.8279 24.7293 29.718 24.736 29.6094C24.8419 29.0134 24.9279 24.743 24.2329 23.3363C23.8688 22.6123 22.8692 22.1947 22.1179 21.9633C21.0422 21.6427 19.9202 21.4707 18.7949 21.4539C19.907 20.3511 21.3467 18.9418 21.3633 18.9212C21.3633 18.925 21.3633 18.925 21.3633 18.9289C21.4195 18.8785 21.4692 18.8229 21.5254 18.766C22.5316 20.4868 24.3917 22.8308 26.7152 23.7178C27.1455 23.8768 28.4363 24.3099 28.4694 24.3137C28.6382 24.3461 28.8169 24.3202 28.9725 24.2246C28.9758 24.2207 28.9758 24.2168 28.9758 24.2168C28.9791 24.2168 28.9791 24.2168 28.9824 24.2142C28.9824 24.2142 28.9857 24.2103 28.989 24.2103C29.3035 23.9983 29.3994 23.5781 29.1942 23.2536Z" fill="#18191B"/>
<path d="M31 30C31.5523 30 32 29.5523 32 29C32 28.4477 31.5523 28 31 28C30.4477 28 30 28.4477 30 29C30 29.5523 30.4477 30 31 30Z" fill="#18191B"/>
</g>
<defs>
<clipPath id="clip0_770_97">
<rect width="40" height="40" fill="white"/>
</clipPath>
</defs>
</svg>
