<svg width="40" height="40" viewBox="0 0 40 40" fill="none" xmlns="http://www.w3.org/2000/svg">
<g clip-path="url(#clip0_770_118)">
<path d="M30 0.75H10C4.89137 0.75 0.75 4.89137 0.75 10V30C0.75 35.1086 4.89137 39.25 10 39.25H30C35.1086 39.25 39.25 35.1086 39.25 30V10C39.25 4.89137 35.1086 0.75 30 0.75Z" fill="white"/>
<path d="M12.5743 17.2656C13.3549 17.5054 14.2786 17.5154 14.6429 17.4904V33C12.988 33 12.106 31.951 11.8718 31.4266C11.2994 30.1403 10.1311 27.1708 10.0375 25.5824C9.92036 23.5968 10.0375 22.3606 10.9742 20.5623C11.3644 19.8505 12.2491 18.0898 12.5743 17.2656Z" fill="#18191B"/>
<path d="M16.7116 17.2656C15.931 17.5054 15.0073 17.5154 14.6431 17.4904V33C16.2979 33 17.1799 31.951 17.4141 31.4266C17.9865 30.1403 19.1548 27.1708 19.2484 25.5824C19.3655 23.5968 19.2484 22.3606 18.3118 20.5623C17.9215 19.8505 17.0368 18.0898 16.7116 17.2656Z" fill="#18191B"/>
<path d="M14.643 14.9429H12.8867V16.2166C13.5111 16.4789 14.1746 16.5163 14.643 16.5163V14.9429Z" fill="#18191B"/>
<path d="M14.6431 14.9429H16.3994V16.2166C15.7749 16.4789 15.1114 16.5163 14.6431 16.5163V14.9429Z" fill="#18191B"/>
<path d="M12.6134 12.8825C12.6004 12.87 12.4963 12.2681 12.1841 9.96036C11.9655 7.53277 13.7322 6.97582 14.6429 7.00079V13.894C14.4998 13.894 14.0652 13.8865 13.472 13.8565C12.8788 13.8265 12.6524 13.1946 12.6134 12.8825Z" fill="#18191B"/>
<path d="M16.6722 12.8832C16.6852 12.8708 16.7892 12.2689 17.1015 9.96115C17.32 7.53356 15.5533 6.97661 14.6426 7.00158L14.6427 13.8947C14.7858 13.8947 15.2203 13.8873 15.8135 13.8573C16.4068 13.8273 16.6331 13.1954 16.6722 12.8832Z" fill="#18191B"/>
<path fill-rule="evenodd" clip-rule="evenodd" d="M22.0716 33C17.9689 33 14.6431 29.6741 14.6431 25.5715C14.6431 21.4688 17.9689 18.1429 22.0716 18.1429C26.1743 18.1429 29.5002 21.4688 29.5002 25.5715C29.5002 29.6741 26.1743 33 22.0716 33ZM23.6263 21.9435C23.6263 22.516 24.0904 22.9801 24.6629 22.9801C25.2354 22.9801 25.6994 22.516 25.6994 21.9435C25.6994 21.3711 25.2354 20.907 24.6629 20.907C24.0904 20.907 23.6263 21.3711 23.6263 21.9435ZM25.3539 24.7076C25.3539 25.2801 25.818 25.7442 26.3905 25.7442C26.9629 25.7442 27.427 25.2801 27.427 24.7076C27.427 24.1352 26.9629 23.6711 26.3905 23.6711C25.818 23.6711 25.3539 24.1352 25.3539 24.7076ZM22.9353 25.7442C22.3628 25.7442 21.8988 25.2801 21.8988 24.7076C21.8988 24.1352 22.3628 23.6711 22.9353 23.6711C23.5078 23.6711 23.9719 24.1352 23.9719 24.7076C23.9719 25.2801 23.5078 25.7442 22.9353 25.7442Z" fill="#18191B"/>
</g>
<defs>
<clipPath id="clip0_770_118">
<rect width="40" height="40" fill="white"/>
</clipPath>
</defs>
</svg>
