<svg width="40" height="40" viewBox="0 0 40 40" fill="none" xmlns="http://www.w3.org/2000/svg">
<g clip-path="url(#clip0_770_177)">
<path d="M30 0.75H10C4.89137 0.75 0.75 4.89137 0.75 10V30C0.75 35.1086 4.89137 39.25 10 39.25H30C35.1086 39.25 39.25 35.1086 39.25 30V10C39.25 4.89137 35.1086 0.75 30 0.75Z" fill="white"/>
<path d="M29 10.6229C28.9927 9.69244 28.2885 8.91562 27.3544 8.91562C27.3544 8.91562 27.2121 8.89409 26.9822 8.94116C26.1941 9.09077 25.5993 9.78221 25.5993 10.616C25.5993 10.7871 25.6358 10.9539 25.6832 11.1104C25.7562 11.36 25.8912 11.5851 26.059 11.7734C26.07 11.7803 26.0773 11.7946 26.0882 11.8019C26.1065 11.8274 26.1284 11.8416 26.1503 11.8632C26.1941 11.9015 26.2342 11.9442 26.2816 11.9799C26.2634 12.0084 26.2488 12.0299 26.2305 12.0555C25.7014 12.7995 24.9352 13.6974 24.1653 13.8656C23.7566 13.9682 23.4136 13.6876 23.1363 13.4336C23.8843 12.9819 25.041 12.0014 25.6066 11.2173C25.5373 11.025 25.4935 10.8254 25.4935 10.616C25.4935 9.73916 26.1211 9.0083 26.953 8.84155C26.7487 8.13878 26.0992 7.61845 25.3329 7.61845C24.3988 7.61845 23.6362 8.37813 23.6362 9.31442C23.6362 9.84898 23.8843 10.3266 24.2711 10.6371C23.6946 11.1961 22.9137 11.9343 22.2825 12.1368C22.1949 11.9799 22.1183 11.8019 22.0307 11.6209C21.9869 10.6018 21.4323 10.4521 20.542 10.2624C20.5821 10.2697 20.542 10.2668 20.5347 10.2624C20.2245 10.1456 19.0022 10.1982 18.4439 10.5018C17.0245 11.2786 17.1047 12.5287 17.1047 13.9613L17.4842 21.209C17.4842 21.4443 17.5061 21.6724 17.5353 21.8833C17.5718 22.4635 17.7506 23.0265 17.9039 23.5891C18.1702 24.6469 18.36 25.7459 18.2177 26.8318C18.09 27.8196 17.6557 28.4851 16.8493 29.3404C15.5175 30.5763 13.6164 31.7564 12.4087 32.8298C12.3795 32.847 12.3612 32.8682 12.3357 32.8897C12.3101 32.9083 12.281 32.9294 12.2591 32.9539C12.2408 32.9751 12.2226 33.0035 12.2007 33.0294C12.1788 33.0579 12.1569 33.0849 12.1387 33.1104C12.1241 33.1389 12.1095 33.1604 12.0985 33.1933C12.0766 33.2287 12.062 33.2644 12.0511 33.3071C12.0438 33.3286 12.0328 33.3571 12.0255 33.3812C12.0146 33.4425 12.0036 33.5023 12 33.5738C12 33.5779 12 33.5808 12 33.5851V33.5881C12 34.0913 12.4123 34.5003 12.9122 34.5003C13.1093 34.5003 13.2917 34.4361 13.4413 34.3335H13.445C13.445 34.3335 17.0099 31.6352 17.9257 30.9054C18.3527 30.5165 18.8088 30.1428 19.181 29.7039C20.3924 28.3326 20.8886 27.0814 20.7536 25.3139C20.7244 24.6513 20.5894 24.0211 20.4325 23.387C20.4507 23.3727 20.469 23.3611 20.4909 23.3585C20.7719 23.5581 21.0637 23.7391 21.3338 23.9427C22.5488 24.7907 23.7128 25.824 24.2273 27.1741C24.968 29.1409 24.8768 34.03 24.8768 34.0726C24.8768 34.1766 24.8951 34.2722 24.9279 34.362V34.3689C24.9316 34.3718 24.9316 34.3719 24.9316 34.3835C24.9389 34.3978 24.9425 34.4189 24.9534 34.4405C25.0045 34.5744 25.0921 34.6896 25.2088 34.771C25.3001 34.8465 25.4023 34.8995 25.5117 34.9349C25.519 34.9422 25.5263 34.9422 25.5299 34.9422C25.6139 34.9677 25.6942 34.9849 25.7854 34.9849C25.7927 34.9849 25.7927 34.9849 25.7927 34.9849C26.2999 34.9849 26.7049 34.5744 26.7049 34.0726C26.7049 34.0726 27.7667 26.7436 24.563 23.5366C24.1507 23.0334 22.6619 21.772 21.4834 21.2987C21.4834 21.2703 21.487 21.2374 21.487 21.209L21.8556 14.8921C22.9283 15.462 24.2455 15.6459 25.3548 15.0731C26.3509 14.5597 27.0917 13.4095 27.4785 12.4003C27.4894 12.3718 27.504 12.3404 27.5149 12.312C28.3542 12.2124 29 11.4997 29 10.6331C29 10.6331 29 10.6258 29 10.6229Z" fill="#18191B"/>
<path d="M23.877 7.61843C23.877 9.06958 22.7057 10.2408 21.2534 10.2408C19.8085 10.2408 18.6372 9.06958 18.6372 7.61843C18.6372 6.17166 19.8085 5 21.2534 5C22.7057 5 23.877 6.17166 23.877 7.61843Z" fill="#18191B"/>
</g>
<defs>
<clipPath id="clip0_770_177">
<rect width="40" height="40" fill="white"/>
</clipPath>
</defs>
</svg>
