<svg width="40" height="40" viewBox="0 0 40 40" fill="none" xmlns="http://www.w3.org/2000/svg">
<g clip-path="url(#clip0_770_160)">
<path d="M30 0.75H10C4.89137 0.75 0.75 4.89137 0.75 10V30C0.75 35.1086 4.89137 39.25 10 39.25H30C35.1086 39.25 39.25 35.1086 39.25 30V10C39.25 4.89137 35.1086 0.75 30 0.75Z" fill="white"/>
<path d="M10.0958 10.304C11.4782 11.0123 12.0303 12.7056 11.3215 14.0946C10.6127 15.4745 8.92105 16.0251 7.53482 15.3214C6.1525 14.6146 5.60036 12.9198 6.30914 11.5355C7.01008 10.1512 8.70569 9.60497 10.0958 10.304Z" fill="#18191B"/>
<path d="M32.7689 29.6054C32.7689 29.1692 32.4791 28.8054 32.0914 28.6797L20.8606 23.6348C20.7431 23.6043 20.6883 23.2421 20.7784 22.939C20.8488 22.6989 21.2992 22.5153 21.4127 22.4573L32.4791 17.0698C32.4791 17.0651 32.4791 17.0651 32.4791 17.0651C32.7885 16.8967 32.9999 16.5756 32.9999 16.2056C32.9999 15.6656 32.5613 15.2266 32.0248 15.2266C31.9387 15.2266 31.8525 15.2403 31.7742 15.2646C31.7546 15.2677 31.6293 15.3108 31.6097 15.3214C30.5838 15.765 22.4622 19.3367 20.5434 20.2926C20.0383 20.5499 14.8888 16.1597 14.8222 16.1366C14.7165 16.094 14.2819 15.7192 14.1761 15.6855C14.4385 15.0429 21.0251 18.8136 21.961 19.0462C21.9688 19.0462 21.9766 19.0462 21.9884 19.0505C22.0706 19.0814 22.1646 19.0994 22.2625 19.0994C22.7128 19.0994 23.0848 18.7325 23.0848 18.2736C23.0848 17.9724 22.9203 17.712 22.6736 17.5667V17.5624C22.6736 17.5624 20.5434 16.3814 18.2526 15.2646C16.8546 14.584 15.1786 13.6739 13.0914 13.9598C10.8594 14.4571 9.33606 15.7298 8.81525 17.7766C8.02032 20.8632 8.98366 28.1702 8.98757 28.1702C9.05023 28.5681 9.39089 28.8665 9.80206 28.8665C10.225 28.8665 10.5617 28.5575 10.6165 28.1522C10.6165 28.1522 10.6557 19.5862 10.6635 19.5783C10.7536 19.6394 11.1491 20.1352 11.2431 20.1978C11.3019 20.2362 14.1017 23.0721 18.4327 25.2869C23.9424 28.1017 31.4766 30.5308 31.4844 30.5308C31.5823 30.5613 31.6842 30.5797 31.7899 30.5797C32.1032 30.5797 32.3733 30.4313 32.5535 30.2049C32.5574 30.2018 32.5613 30.1971 32.5613 30.194C32.6866 30.0291 32.7689 29.8271 32.7689 29.6054Z" fill="#18191B"/>
</g>
<defs>
<clipPath id="clip0_770_160">
<rect width="40" height="40" fill="white"/>
</clipPath>
</defs>
</svg>
