<svg width="40" height="40" viewBox="0 0 40 40" fill="none" xmlns="http://www.w3.org/2000/svg">
<g clip-path="url(#clip0_770_218)">
<path d="M30 0.75H10C4.89137 0.75 0.75 4.89137 0.75 10V30C0.75 35.1086 4.89137 39.25 10 39.25H30C35.1086 39.25 39.25 35.1086 39.25 30V10C39.25 4.89137 35.1086 0.75 30 0.75Z" fill="white"/>
<mask id="mask0_770_218" style="mask-type:luminance" maskUnits="userSpaceOnUse" x="15" y="12" width="17" height="21">
<path d="M31.0078 15.2622L20.5358 12.4562C20.0023 12.3133 19.4539 12.6299 19.311 13.1633L15.2586 28.2869C15.1157 28.8204 15.4323 29.3687 15.9658 29.5117L26.4378 32.3177C26.9713 32.4606 27.5196 32.144 27.6626 31.6106L31.7149 16.487C31.8579 15.9535 31.5413 15.4052 31.0078 15.2622Z" fill="white"/>
</mask>
<g mask="url(#mask0_770_218)">
<path d="M31.0078 15.2622L20.5358 12.4562C20.0023 12.3133 19.4539 12.6299 19.311 13.1633L15.2586 28.2869C15.1157 28.8204 15.4323 29.3687 15.9658 29.5117L26.4378 32.3177C26.9713 32.4606 27.5196 32.144 27.6626 31.6106L31.7149 16.487C31.8579 15.9535 31.5413 15.4052 31.0078 15.2622Z" stroke="#18191B" stroke-width="3" stroke-linejoin="round"/>
</g>
<path fill-rule="evenodd" clip-rule="evenodd" d="M20.9486 10C20.9486 9.44772 20.5008 9 19.9486 9H9C8.44772 9 8 9.44772 8 10V25.6571C8 26.2094 8.44772 26.6571 9 26.6571H19.9486C20.5008 26.6571 20.9486 26.2094 20.9486 25.6571V10ZM15.2424 15.219C14.8426 14.7392 14.1058 14.7392 13.706 15.219L12.0648 17.1884C11.7558 17.5592 11.7558 18.0979 12.0648 18.4687L13.706 20.4381C14.1058 20.9179 14.8426 20.9179 15.2424 20.4381L16.8836 18.4687C17.1926 18.0979 17.1926 17.5592 16.8836 17.1884L15.2424 15.219Z" fill="#18191B"/>
</g>
<defs>
<clipPath id="clip0_770_218">
<rect width="40" height="40" fill="white"/>
</clipPath>
</defs>
</svg>
