<svg width="40" height="40" viewBox="0 0 40 40" fill="none" xmlns="http://www.w3.org/2000/svg">
<g clip-path="url(#clip0_770_103)">
<path d="M30 0.75H10C4.89137 0.75 0.75 4.89137 0.75 10V30C0.75 35.1086 4.89137 39.25 10 39.25H30C35.1086 39.25 39.25 35.1086 39.25 30V10C39.25 4.89137 35.1086 0.75 30 0.75Z" fill="white"/>
<path d="M19.8518 13.5865V13.5833C19.9125 13.4908 19.9467 13.3878 19.9467 13.2776C19.9467 13.2695 19.9467 13.2624 19.9467 13.2539C19.9467 13.2436 19.9467 13.2386 19.9467 13.2334C19.9441 13.221 19.9441 13.2107 19.9414 13.2004C20.4896 13.7689 24.3822 17.8454 25.1675 18.636C25.1517 18.6331 25.1359 18.631 25.1227 18.631C25.0252 18.6073 24.9224 18.6073 24.8275 18.6402C24.7695 18.6537 22.1104 19.8148 21.6176 19.9848C20.9719 20.2112 19.4038 20.3883 19.2272 20.1928C18.8003 19.5183 17.451 18.7462 16.2308 19.0189C15.4902 18.0802 19.8518 13.5865 19.8518 13.5865ZM25.4995 19.3897C25.5628 19.2435 25.5655 19.0788 25.4917 18.9212C25.4811 18.9038 25.4653 18.8822 25.4548 18.8627L25.4521 18.8595C26.1321 19.5368 27.4788 20.9544 28.6278 22.1619C28.6199 22.1693 28.612 22.1764 28.6015 22.1796C28.6015 22.1846 28.6015 22.1846 28.6015 22.1846C28.4539 22.5913 28.5567 23.1761 28.8044 23.7732C28.8255 23.8296 28.8571 23.904 28.8887 23.9841H18.4472L19.388 21.7194C21.0668 22.0642 25.2703 19.6469 25.2703 19.6469C25.4073 19.58 25.4706 19.4907 25.4995 19.3897ZM18.774 26.6833C12.2381 27.2238 6.13178 24.5813 6.00528 24.5214L29.1839 24.5246C29.2761 24.6759 29.3684 24.8098 29.4395 24.9025C29.5476 25.0496 29.6583 25.1887 29.7742 25.3195C30.6966 26.3436 31.793 26.4703 32.4861 25.8476C33.1792 25.2217 33.2082 24.0871 32.2805 23.0596C32.1092 22.8672 31.9037 22.6869 31.6796 22.5193C31.3133 22.2052 30.5279 21.8583 30.4436 21.8449C29.935 21.6575 29.4395 21.5927 29.0838 21.7194C29.0838 21.7142 29.0758 21.711 29.0732 21.706C29.0653 21.7213 29.0548 21.7316 29.0469 21.7503L18.5763 10.9203C18.5737 10.9171 18.5657 10.91 18.5657 10.91C18.5816 10.8636 18.5921 10.8172 18.6053 10.7658C18.6053 10.7658 18.6053 10.7658 18.6053 10.7626C18.6712 10.4229 18.6026 9.99364 18.4392 9.54588C18.4261 9.46049 18.0782 8.67803 17.7672 8.3125C17.6012 8.08928 17.4167 7.88346 17.2243 7.7082C16.1991 6.78685 15.0632 6.81269 14.436 7.50765C13.8167 8.19945 13.9379 9.29366 14.9657 10.2171C15.0949 10.3333 15.2346 10.4435 15.3822 10.5518C15.6325 10.7503 16.2176 11.0953 16.5154 11.1849C17.111 11.4299 17.696 11.538 18.0993 11.3886L18.1019 11.3907C18.1019 11.3886 18.1019 11.3886 18.1019 11.3886C18.5341 11.7902 19.5488 12.7445 19.5488 12.7445C19.5408 12.7424 19.5356 12.7445 19.5277 12.7392C19.4987 12.7321 19.4644 12.7268 19.4354 12.7268C19.4223 12.7239 19.4143 12.7239 19.4038 12.7239C19.3142 12.7218 19.2299 12.7374 19.1508 12.7785C19.1034 12.7991 19.0691 12.8249 19.0349 12.8557L19.0269 12.8578C19.0269 12.8578 15.087 17.2432 14.8841 17.6994C14.2595 18.7802 14.8577 19.9229 15.3057 20.4552L14.5125 23.9841H6V24.5214V26.9953C6 26.9953 12.2908 27.7675 18.9031 27.2054C24.6852 26.7144 30.7072 28.0679 33 30.3792V28.6166C30.7652 26.3818 24.5851 26.2026 18.774 26.6833Z" fill="#18191B"/>
<path d="M21.1961 16.9056C21.6547 17.8485 21.2673 18.981 20.3238 19.439C19.3883 19.8991 18.2524 19.5059 17.7938 18.5691C17.3352 17.6293 17.7253 16.4947 18.6661 16.0367C19.607 15.5786 20.7376 15.9697 21.1961 16.9056Z" fill="#18191B"/>
</g>
<defs>
<clipPath id="clip0_770_103">
<rect width="40" height="40" fill="white"/>
</clipPath>
</defs>
</svg>
