<svg width="40" height="40" viewBox="0 0 40 40" fill="none" xmlns="http://www.w3.org/2000/svg">
<g clip-path="url(#clip0_770_156)">
<path d="M30 0.75H10C4.89137 0.75 0.75 4.89137 0.75 10V30C0.75 35.1086 4.89137 39.25 10 39.25H30C35.1086 39.25 39.25 35.1086 39.25 30V10C39.25 4.89137 35.1086 0.75 30 0.75Z" fill="white"/>
<path d="M24.8024 13.2003C24.8024 14.2355 23.9643 15.0769 22.9253 15.0769C21.8914 15.0769 21.0508 14.2355 21.0508 13.2003C21.0508 12.1633 21.8914 11.324 22.9253 11.324C23.9643 11.324 24.8024 12.1633 24.8024 13.2003Z" fill="#18191B"/>
<path d="M31.6242 24.5509C31.2482 24.1613 30.8383 23.888 30.465 23.8452C30.4546 23.8146 30.4311 23.7483 30.3971 23.6515H32.8669C32.5222 23.9726 32.1045 24.2705 31.6242 24.5509ZM21.0534 23.1129C21.3928 22.6132 21.539 22.4142 21.774 21.9146C21.9489 21.5404 21.9489 21.1987 21.6147 20.851C21.1265 20.3442 18.1973 19.4007 17.8762 19.3273L20.8576 16.6882C22.2073 17.7262 26.9954 17.3967 26.9954 17.3967C27.152 17.3967 27.246 17.349 27.3113 17.2693C27.4288 17.1675 27.5071 17.0195 27.5071 16.8493C27.5071 16.8258 27.5019 16.8033 27.4993 16.783C27.4993 16.7777 27.4993 16.7777 27.5019 16.7749C27.9692 18.129 29.0526 21.624 29.533 23.1129H21.0534ZM19.4426 23.1129H13.5842C14.2108 22.6132 15.7589 21.1601 15.9469 20.9538C17.3515 21.2956 19.581 21.4282 20.0327 21.9247C20.2937 22.2868 19.5314 22.9753 19.4426 23.1129ZM24.805 9.64946V9.64632C24.899 9.59228 24.9747 9.5116 25.0217 9.41475C25.0269 9.40979 25.0295 9.39961 25.0321 9.39126C25.0347 9.3863 25.04 9.37924 25.04 9.37402C25.0452 9.3607 25.0504 9.35576 25.053 9.34349C25.2932 10.0878 26.9902 15.4113 27.3452 16.4535C27.3322 16.4433 27.3191 16.4383 27.3035 16.4282C27.2304 16.3668 27.1416 16.3261 27.0398 16.3089C26.9797 16.2955 24.1132 16.1783 23.5989 16.117C22.9253 16.0355 21.4476 15.5102 21.3798 15.2583C21.2936 14.4751 20.4269 13.2003 19.2207 12.9149C18.9701 11.7574 24.805 9.64946 24.805 9.64946ZM30.2144 23.1129C29.1231 19.98 25.1549 8.57358 25.1549 8.57358C24.7867 7.61493 24.5805 7.982 24.9016 8.7673C24.8938 8.76208 24.8885 8.7592 24.8833 8.75398C24.8598 8.73361 24.8337 8.71614 24.8076 8.70099C24.7972 8.69577 24.7893 8.68767 24.7789 8.68559C24.7032 8.64486 24.6197 8.62135 24.5309 8.62135C24.4839 8.62135 24.4395 8.62945 24.3977 8.64172C24.3925 8.64172 24.3899 8.64172 24.3899 8.64172C24.3899 8.64172 18.9753 10.8373 18.5941 11.1556C17.5708 11.844 17.6021 13.1217 17.7718 13.7898L14.3935 18.0189C13.934 18.4778 13.7878 19.4059 14.1847 20.0769C14.0176 20.3544 12.5321 22.3816 11.8794 23.1129L7 23.116V23.6515H29.7027C29.7366 23.7533 29.7967 23.9339 29.8358 24.0512C29.5278 24.347 29.3685 24.9158 29.3294 25.5502C26.5855 26.4629 22.9618 26.8812 19.4296 26.5801C13.0621 26.0376 7 26.7822 7 26.7822V29.1655C7 29.1655 12.9394 26.5577 19.3043 27.0851C22.8888 27.3809 26.6195 27.4114 29.4025 26.8331C29.4338 27.0117 29.4703 27.1869 29.5199 27.35C29.8933 28.6658 30.8149 29.2522 31.7051 29.0003C32.5927 28.7452 33.1097 27.7427 32.7311 26.4303C32.6606 26.1825 32.5562 25.9327 32.4283 25.6857C32.6397 25.54 32.8329 25.387 33 25.2218V23.6515V23.5259V23.116L30.2144 23.1129Z" fill="#18191B"/>
</g>
<defs>
<clipPath id="clip0_770_156">
<rect width="40" height="40" fill="white"/>
</clipPath>
</defs>
</svg>
