<svg width="40" height="40" viewBox="0 0 40 40" fill="none" xmlns="http://www.w3.org/2000/svg">
<g clip-path="url(#clip0_770_196)">
<path d="M30 0.75H10C4.89137 0.75 0.75 4.89137 0.75 10V30C0.75 35.1086 4.89137 39.25 10 39.25H30C35.1086 39.25 39.25 35.1086 39.25 30V10C39.25 4.89137 35.1086 0.75 30 0.75Z" fill="white"/>
<path d="M17.9834 13.6832C17.9834 15.34 16.6402 16.6832 14.9834 16.6832C13.3265 16.6832 11.9834 15.34 11.9834 13.6832C11.9834 12.0263 13.3265 10.6832 14.9834 10.6832C16.6402 10.6832 17.9834 12.0263 17.9834 13.6832Z" fill="#18191B"/>
<path d="M9 17C9 16.4477 9.44772 16 10 16H20C20.5523 16 21 16.4477 21 17C21 17.5523 20.5523 18 20 18H10C9.44772 18 9 17.5523 9 17Z" fill="#18191B"/>
<path d="M12.807 18H15V29H10V26.963C12.1053 24.5185 12.7485 19.9691 12.807 18Z" fill="#18191B"/>
<path d="M17.193 18H15V29H20V26.963C17.8947 24.5185 17.2515 19.9691 17.193 18Z" fill="#18191B"/>
<path d="M28.25 15.8C28.25 16.7941 27.4665 17.6 26.5 17.6C25.5335 17.6 24.75 16.7941 24.75 15.8C24.75 14.8059 25.5335 14 26.5 14C27.4665 14 28.25 14.8059 28.25 15.8Z" fill="#18191B"/>
<path d="M23 17.8C23 17.4686 23.2612 17.2 23.5833 17.2H29.4167C29.7388 17.2 30 17.4686 30 17.8C30 18.1314 29.7388 18.4 29.4167 18.4H23.5833C23.2612 18.4 23 18.1314 23 17.8Z" fill="#18191B"/>
<path d="M25.221 18.4H26.5002V25H23.5835V23.7778C24.8116 22.3111 25.1868 19.5815 25.221 18.4Z" fill="#18191B"/>
<path d="M27.7792 18.4H26.5V25H29.4167V23.7778C28.1886 22.3111 27.8134 19.5815 27.7792 18.4Z" fill="#18191B"/>
</g>
<defs>
<clipPath id="clip0_770_196">
<rect width="40" height="40" fill="white"/>
</clipPath>
</defs>
</svg>
