<svg width="40" height="40" viewBox="0 0 40 40" fill="none" xmlns="http://www.w3.org/2000/svg">
<g clip-path="url(#clip0_770_181)">
<path d="M30 0.75H10C4.89137 0.75 0.75 4.89137 0.75 10V30C0.75 35.1086 4.89137 39.25 10 39.25H30C35.1086 39.25 39.25 35.1086 39.25 30V10C39.25 4.89137 35.1086 0.75 30 0.75Z" fill="white"/>
<path d="M13.6222 12.793C13.5106 12.9341 13.1411 12.8277 12.7946 12.5536C12.4503 12.2813 12.2629 11.9474 12.3745 11.8062L17.6225 5.1705C17.7341 5.02943 18.1023 5.13474 18.4466 5.40701C18.7932 5.6811 18.9818 6.0162 18.8702 6.15726L13.6222 12.793Z" fill="#18191B"/>
<path d="M8 26.7498C8 26.8881 7.77631 27 7.49855 27C7.22263 27 7 26.8881 7 26.7498V20.2502C7 20.112 7.22263 20 7.49855 20C7.77631 20 8 20.112 8 20.2502V26.7498Z" fill="#18191B"/>
<path d="M14 26.7498C14 26.8881 13.7763 27 13.4985 27C13.2226 27 13 26.8881 13 26.7498V20.2502C13 20.112 13.2226 20 13.4985 20C13.7763 20 14 20.112 14 20.2502V26.7498Z" fill="#18191B"/>
<path d="M11 26.7498C11 26.8881 10.7763 27 10.4985 27C10.2226 27 10 26.8881 10 26.7498V20.2502C10 20.112 10.2226 20 10.4985 20C10.7763 20 11 20.112 11 20.2502V26.7498Z" fill="#18191B"/>
<path d="M13.7498 20C13.8881 20 14 20.2237 14 20.5014C14 20.7774 13.8881 21 13.7498 21H7.25019C7.11203 21 7 20.7774 7 20.5015C7 20.2237 7.11203 20 7.25019 20H13.7498Z" fill="#18191B"/>
<path d="M28 19C28.5523 19 29 18.5523 29 18C29 17.4477 28.5523 17 28 17C27.4477 17 27 17.4477 27 18C27 18.5523 27.4477 19 28 19Z" fill="#18191B"/>
<path d="M22.1848 13.3013C22.1848 14.4727 21.2307 15.4254 20.0543 15.4254C18.8779 15.4254 17.9238 14.4727 17.9238 13.3013C17.9238 12.1208 18.8779 11.1681 20.0543 11.1681C21.2307 11.1681 22.1848 12.1208 22.1848 13.3013Z" fill="#18191B"/>
<path d="M27.0917 32.7787L27.0888 32.7763C27.0888 32.7763 23.0795 29.5319 22.2143 29.2169C22.9432 28.0966 23.0617 23.6574 23.0617 23.2985L23.2307 18.0089C23.2307 17.8388 23.2099 17.6768 23.1832 17.5147C23.1803 17.5087 23.1092 16.7415 22.6499 16.2645C22.4662 16.0701 22.4632 15.9889 22.0483 15.7287C21.9506 15.6742 21.7491 15.5874 21.2424 15.5435C20.6112 15.4914 20.0274 15.7169 20.0452 15.7169C19.7874 15.8535 19.5592 16.041 19.3696 16.2645C17.7458 16.3999 16.3501 16.8144 14.75 15.9403C13.5084 15.0318 13.3543 14.3085 12.729 13.122C12.7201 13.0953 12.6816 13.0316 12.6757 13.0177C12.6639 13.0026 12.652 12.9854 12.6402 12.9738C12.652 12.9655 12.6609 12.954 12.6698 12.9448C13.3335 12.2387 14.8003 10.9598 15.4582 10.2512C16.1812 9.48169 18.1754 7.016 18.1754 7.016C18.3947 6.75228 18.3621 6.36203 18.1013 6.14453C17.8406 5.92466 17.4524 5.95933 17.2331 6.22306C17.2331 6.22306 15.1559 8.61228 14.5159 9.45828C13.9351 10.2305 12.9661 11.8372 12.3942 12.615C12.412 12.5919 12.3764 12.6357 12.3942 12.615C12.3646 12.5374 12.2253 12.3951 12.0031 12.3545C11.5941 12.3163 11.3689 12.5859 11.3097 12.7919C11.2504 12.9738 11.2771 13.122 11.3245 13.2145C11.4341 13.087 11.4845 13.0838 11.7423 13.0663C11.8342 13.0722 11.9142 13.087 11.9912 13.122C12.1186 13.1682 12.2283 13.2574 12.3112 13.3709L12.329 13.3961C12.3349 13.4112 12.3705 13.4773 12.3824 13.504C12.5039 13.7354 12.6105 13.9517 12.7113 14.1579C13.1083 14.982 13.3958 15.5758 14.3766 16.2876C15.1292 16.6986 15.9145 16.8862 16.9072 16.8862C17.4198 16.8862 17.9295 16.8376 18.4688 16.7878C18.6466 16.7703 18.8303 16.7531 19.0081 16.7392C19.014 16.7297 19.0496 16.7297 19.0644 16.7356C19.0614 16.7739 19.0525 16.8201 19.0525 16.8201C17.4287 16.9499 15.9263 17.2299 14.3262 16.3572C13.0817 15.4484 12.9335 14.7307 12.3083 13.5386C12.2964 13.5155 12.2579 13.4483 12.252 13.4367C12.246 13.4275 12.2431 13.4228 12.2401 13.4195C12.1661 13.3128 12.0623 13.2343 11.9408 13.1878C11.8786 13.1647 11.8164 13.1555 11.7453 13.1531C11.1882 13.1857 11.1022 13.7179 11.1111 13.7146C11.1082 13.7354 11.1022 13.7549 11.1022 13.7724C11.1022 13.8649 11.123 13.9517 11.1615 14.0305L11.1645 14.0364C11.1645 14.0444 11.1704 14.0652 11.1852 14.0942C10.7259 14.6323 10.2963 15.1302 10.1866 15.2576C10.1155 15.2345 10.0503 15.2365 10.0207 15.2715C9.9644 15.3409 10.0266 15.4914 10.1629 15.6049C10.2992 15.7169 10.4592 15.7575 10.5126 15.6881C10.5452 15.6535 10.5393 15.5874 10.5007 15.5237C10.6044 15.3986 10.96 14.9565 11.363 14.4646C11.6504 15.0027 12.1779 15.908 12.5542 16.3827C13.5143 17.6071 14.7648 18.1941 16.3175 18.3829C16.6612 18.377 17.8969 18.6131 18.7799 18.7067V18.788C18.8658 20.4085 19.0555 24.4077 18.9399 24.485C18.3562 24.9653 12.8683 31.9372 12.5009 32.5645C12.4179 32.6836 12.3705 32.8249 12.3705 32.9811C12.3705 33.3897 12.7024 33.7195 13.1113 33.7195C13.2713 33.7195 13.4195 33.6698 13.541 33.5829C13.541 33.5809 13.541 33.5809 13.541 33.5809C14.3974 33.2392 19.2303 27.807 20.5104 25.7583C20.5756 25.8081 20.9253 25.8395 20.9846 25.8045C20.6527 26.9021 20.3919 28.1635 20.383 28.9529C20.383 29.5236 20.5075 30.1744 20.9431 30.5157C21.435 30.959 26.2739 34.0055 26.2739 34.0055C26.2768 34.0055 26.2768 34.0055 26.2768 34.0055C26.3894 34.0692 26.5139 34.1074 26.6502 34.1074C27.0562 34.1074 27.388 33.7776 27.388 33.369C27.388 33.1293 27.2725 32.9153 27.0917 32.7787Z" fill="#18191B"/>
</g>
<defs>
<clipPath id="clip0_770_181">
<rect width="40" height="40" fill="white"/>
</clipPath>
</defs>
</svg>
