<svg width="40" height="40" viewBox="0 0 40 40" fill="none" xmlns="http://www.w3.org/2000/svg">
<g clip-path="url(#clip0_770_268)">
<path d="M30 0.75H10C4.89137 0.75 0.75 4.89137 0.75 10V30C0.75 35.1086 4.89137 39.25 10 39.25H30C35.1086 39.25 39.25 35.1086 39.25 30V10C39.25 4.89137 35.1086 0.75 30 0.75Z" fill="white"/>
<path d="M25.1942 14.8644C25.6693 15.6866 26.7192 15.9668 27.5411 15.4936C28.3654 15.0186 28.6457 13.9691 28.1706 13.1469C27.6955 12.3228 26.6456 12.0399 25.8213 12.515C24.9993 12.9882 24.7167 14.0422 25.1942 14.8644Z" fill="#18191B"/>
<path d="M16.3594 26.2362C16.3594 26.2334 16.3594 26.2288 16.3618 26.226L16.3665 26.2167C16.3855 26.1861 16.4045 26.1601 16.4259 26.1341L16.5185 25.9986L10.1855 25.7778L10.1665 26.2668L16.2881 26.4802C16.2905 26.4468 16.2929 26.4162 16.3 26.3781C16.3047 26.3689 16.3071 26.3596 16.3095 26.3503C16.3214 26.3123 16.338 26.2714 16.3594 26.2362Z" fill="#18191B"/>
<path d="M23.6403 26.2473C23.5833 26.3094 23.5239 26.3735 23.4717 26.4329L23.4598 26.4449L23.4574 26.4421C23.3386 26.5776 23.17 26.6537 22.9942 26.6537C22.7091 26.6537 22.4716 26.4616 22.3956 26.2046L18.3168 26.0598C18.1648 26.2315 18.0104 26.3902 17.8584 26.5377L33.9832 27.1L33.9998 26.6092L23.6403 26.2473Z" fill="#18191B"/>
<path d="M17.3217 26.9915C17.2528 27.0509 17.172 27.0982 17.0817 27.1242C17.0129 27.1437 16.9606 27.1502 16.906 27.1502C16.647 27.1502 16.4237 26.9915 16.3311 26.766L5.03323 25.9745L5 26.4635L28.7668 28.1263L28.8024 27.6345L17.5069 26.8467C17.4452 26.8987 17.3811 26.9488 17.3217 26.9915Z" fill="#18191B"/>
<path d="M17.4737 15.6531C17.4785 15.6745 17.4785 15.6958 17.4856 15.7199C17.5687 15.9835 17.8514 16.1356 18.1151 16.0522C18.2101 16.0234 18.2861 15.9686 18.3479 15.9C18.3526 15.8981 18.355 15.8953 18.355 15.8925C18.3764 15.8647 20.3362 14.1778 21.3576 14.4821C21.5049 14.5582 21.9658 14.8886 22.4575 15.256L22.4385 15.2755L20.329 17.8198C19.9418 18.2114 19.7827 19.4966 19.7304 19.7388C19.386 21.9148 19.1698 22.1004 19.013 22.3945C18.7612 22.7935 16.8157 25.6135 16.4475 26.148C16.4261 26.1767 16.4047 26.2046 16.3905 26.2333C16.3881 26.238 16.3857 26.2408 16.3857 26.2408C16.3857 26.2408 16.3857 26.2454 16.3834 26.2454C16.3644 26.2807 16.3477 26.3215 16.3359 26.3595C16.3335 26.3688 16.3311 26.3762 16.3287 26.3827C16.3168 26.4282 16.3097 26.4737 16.3097 26.521L16.3074 26.5256H16.3097C16.3097 26.5284 16.3074 26.5284 16.3074 26.5284C16.3074 26.856 16.5782 27.1241 16.906 27.1241C16.9654 27.1241 17.0176 27.1149 17.0699 27.1C17.0723 27.0982 17.0723 27.0982 17.0746 27.0982C17.1625 27.0722 17.2385 27.0295 17.305 26.9673C18.0153 26.4709 18.8372 25.4186 19.4667 24.6494C20.4098 23.4923 21.113 22.0475 21.3125 20.4821C21.322 20.4041 21.3386 20.2974 21.3505 20.1758C21.4242 20.174 21.4954 20.1666 21.5667 20.1517C21.7282 20.3967 21.9468 20.625 22.0893 20.8124C22.5976 21.3756 24.0111 22.5773 24.2344 22.9197C24.4719 23.264 23.1915 24.6419 22.5169 25.6747C22.4409 25.7749 22.3957 25.8965 22.3957 26.032C22.3957 26.3595 22.6642 26.6277 22.9944 26.6277C23.1773 26.6277 23.3412 26.5423 23.4504 26.4143H23.4528C24.1892 25.594 25.4934 24.2977 25.6905 23.599C25.8426 23.0339 25.51 22.3333 25.2178 21.8507C24.6073 20.843 23.7901 19.9643 22.8352 19.2758L23.9208 18.2569C24.1108 18.1112 24.833 17.4561 24.9945 17.2519L25.1727 17.0831C25.7072 16.5319 25.6264 15.4416 25.0753 14.9043C24.871 14.7076 24.5859 14.5629 24.2819 14.4867C24.2795 14.4793 24.2771 14.4748 24.2747 14.47C24.1132 14.4729 23.9731 14.4413 23.7878 14.4515C23.7711 14.4515 23.7569 14.4515 23.7402 14.4534C23.2746 14.1683 22.7093 13.8241 22.6665 13.7925C21.5477 13.0846 20.7044 13.0419 20.0179 13.4512C19.1342 13.9707 17.6424 15.0992 17.5284 15.3228C17.526 15.3274 17.526 15.3348 17.5236 15.3395L17.4975 15.3274L10.0646 12L9.92676 12.3126L17.4452 15.6411L17.4737 15.6531Z" fill="#18191B"/>
</g>
<defs>
<clipPath id="clip0_770_268">
<rect width="40" height="40" fill="white"/>
</clipPath>
</defs>
</svg>
