<svg width="40" height="40" viewBox="0 0 40 40" fill="none" xmlns="http://www.w3.org/2000/svg">
<g clip-path="url(#clip0_770_225)">
<path d="M30 0.75H10C4.89137 0.75 0.75 4.89137 0.75 10V30C0.75 35.1086 4.89137 39.25 10 39.25H30C35.1086 39.25 39.25 35.1086 39.25 30V10C39.25 4.89137 35.1086 0.75 30 0.75Z" fill="white"/>
<path d="M30.4263 20.6994H19.8726L18.6869 23.4598H29.217C29.8661 23.4598 30.3079 24.1201 30.0511 24.7175L29.5206 25.9524H14.3945L16.5621 20.9062C17.2749 19.2474 18.9143 18.1721 20.7276 18.1721H29.6414L30.8101 15.4511H18.9055L19.9593 13H31.8826C33.3978 13 34.4242 14.5398 33.8274 15.9288L32.3262 19.4232C31.9994 20.1844 31.2549 20.682 30.4263 20.6994Z" fill="#18191B"/>
<path fill-rule="evenodd" clip-rule="evenodd" d="M12.8531 13C12.1025 12.9998 11.4237 13.4397 11.1266 14.1184L9.90847 16.9364C9.6447 17.547 10.0995 18.2245 10.7733 18.2245H14.7397C14.9279 18.2245 15.0979 18.1138 15.1718 17.9433L15.566 17.034H11.3917L12.5077 14.4569L11.9017 14.1746H16.4951C16.6834 14.1746 16.8534 14.064 16.9272 13.8935L17.3144 13.0005L12.8531 13ZM11.1058 24.8095L11.4678 23.9742H8.30189C7.62841 23.9742 7.17361 23.2975 7.43666 22.6871L7.77394 21.9041C8.0685 21.2199 8.74989 20.7755 9.5046 20.7755H14.3335L13.9481 21.6683C13.8745 21.8392 13.704 21.95 13.5156 21.95H8.52607L9.11701 22.2322L8.88473 22.7702H12.0476C12.7218 22.7702 13.1768 23.4486 12.9121 24.0591L12.5581 24.8757C12.2626 25.5575 11.5821 26 10.8292 26H6L6.39735 25.0895C6.47158 24.9196 6.64124 24.8095 6.82913 24.8095H11.1058Z" fill="#18191B"/>
</g>
<defs>
<clipPath id="clip0_770_225">
<rect width="40" height="40" fill="white"/>
</clipPath>
</defs>
</svg>
