<svg width="40" height="40" viewBox="0 0 40 40" fill="none" xmlns="http://www.w3.org/2000/svg">
<g clip-path="url(#clip0_770_191)">
<path d="M30 0.75H10C4.89137 0.75 0.75 4.89137 0.75 10V30C0.75 35.1086 4.89137 39.25 10 39.25H30C35.1086 39.25 39.25 35.1086 39.25 30V10C39.25 4.89137 35.1086 0.75 30 0.75Z" fill="white"/>
<path d="M11.7724 14.9137C11.787 14.8736 11.7987 14.8452 11.8163 14.8189C11.9217 14.636 12.1119 14.5195 12.3138 14.5078C12.3167 14.5045 16.8995 14.1502 17.8096 13.4104C18.4417 12.9246 18.9538 12.2869 19.5274 11.7461C19.6708 11.6214 19.8318 11.5187 20.0103 11.4558C20.6131 11.107 21.4588 11.2041 22.0851 11.7461C22.0851 11.7461 26.5332 15.5791 26.8259 16.1047C27.0688 16.5393 26.8493 17.2399 26.7556 17.4365C26.7 17.5966 26.6357 17.7543 26.5713 17.903C25.7343 19.5342 24.871 20.2602 23.917 21.8261C23.5395 22.4606 22.5006 26.0706 22.4772 26.1335C22.4421 26.2307 22.3894 26.3074 22.328 26.3782C22.325 26.3817 22.3221 26.3817 22.3192 26.3873C22.29 26.4194 22.2607 26.4478 22.2255 26.473C22.2168 26.4789 22.2109 26.4821 22.2051 26.4879C22.129 26.5394 22.05 26.5851 21.9622 26.6079C21.9446 26.6103 21.9329 26.6079 21.9183 26.6138C21.9007 26.6158 21.8861 26.6158 21.8685 26.6158C21.8481 26.6217 21.8305 26.6252 21.8129 26.6252C21.8071 26.6252 21.8071 26.6252 21.8012 26.6252C21.7749 26.6252 21.7427 26.6252 21.7134 26.6252C21.7105 26.6217 21.7076 26.6217 21.7017 26.6217C21.6695 26.6158 21.6373 26.6079 21.6022 26.6024C21.5993 26.5988 21.5935 26.5965 21.5876 26.5965C21.5759 26.593 21.5642 26.593 21.5525 26.5874H21.5466C21.5437 26.5874 21.5437 26.5874 21.5437 26.5874H21.5408C21.1603 26.456 20.9555 26.0387 21.0872 25.6556C21.093 25.6419 21.1047 25.6273 21.1077 25.6135C21.2072 25.2989 21.7076 23.6496 22.6645 21.1288C22.8284 20.6717 23.4751 19.0826 24.0663 17.7772C23.8731 17.8231 23.6771 17.8459 23.4869 17.8652C22.6206 17.9088 21.7632 17.7508 20.9057 17.6572C20.8794 19.1971 21.5964 21.9953 21.5964 22.0011C21.6081 22.1039 21.5993 22.2092 21.5642 22.3119C21.4296 22.695 21.017 22.8984 20.6336 22.767C20.4405 22.7009 20.2941 22.5613 20.2122 22.3898C20.1595 22.3544 19.8054 20.8432 19.5888 20.2008C19.384 19.4748 19.1001 18.3832 19.144 17.6171C19.1821 17.0994 19.2933 16.5255 19.7293 16.1884C20.06 15.8478 21.0023 15.7849 21.9856 15.9104L19.981 14.1706C19.9693 14.1557 19.9547 14.1443 19.943 14.1305C19.4806 14.4931 18.9772 14.8016 18.4593 15.0702C17.4613 15.5024 12.4747 15.7939 12.305 15.7369C12.3021 15.7369 12.3021 15.7369 12.2991 15.7334C12.2494 15.731 12.2026 15.7219 12.1499 15.7047C11.828 15.5938 11.6583 15.2452 11.7724 14.9219C11.7724 14.9219 11.7724 14.9195 11.7724 14.916V14.9137Z" fill="#18191B"/>
<path d="M24.1042 24.3616C24.7656 21.8981 27.2969 20.4349 29.7639 21.0945C32.2279 21.7577 33.6911 24.2896 33.0268 26.7566C32.3713 29.22 29.8341 30.6832 27.373 30.0201C24.906 29.3628 23.4458 26.8274 24.1042 24.3616ZM8.52397 20.1894C9.18826 17.7259 11.7196 16.2627 14.1836 16.922C16.6506 17.5828 18.1138 20.1151 17.4495 22.5806C16.7882 25.044 14.2597 26.5107 11.7928 25.8476C9.32871 25.1871 7.86845 22.6526 8.52397 20.1894ZM30.3111 31.44C29.1435 31.5942 27.9905 31.1541 26.9077 30.7517C26.7643 30.697 26.6209 30.6376 26.4805 30.5747C26.6999 30.6627 26.9253 30.7403 27.1594 30.8056C30.0594 31.5828 33.0356 29.8659 33.814 26.9646C34.5895 24.0669 32.8688 21.089 29.9716 20.3114C27.0745 19.5342 24.0954 21.2546 23.3228 24.1524C22.6995 26.4707 23.677 28.8393 25.5733 30.0909C25.4152 29.9938 25.2543 29.8887 25.0933 29.7825C24.5958 29.443 24.1774 29.0942 23.5804 28.9341C23.0741 28.7971 22.5269 28.8279 22.0118 28.8484C21.4002 28.8735 20.9378 28.82 20.414 28.4908C19.8872 28.1627 19.4249 27.7969 18.863 27.5247C18.3479 27.2766 17.8182 27.0103 17.2739 26.8309C16.2877 26.5108 15.1933 26.6535 14.1807 26.7302C14.0637 26.7393 13.9495 26.744 13.8354 26.7507C15.8897 26.425 17.6602 24.9299 18.2367 22.7898C19.0122 19.8944 17.2915 16.9141 14.3943 16.1392C11.4972 15.3617 8.5181 17.0821 7.7426 19.9767C7.21292 21.9611 7.85087 23.9812 9.23214 25.3071C8.00012 24.6247 6.67445 24.013 5.31366 24.4096C4.76642 24.5696 4.99469 25.4192 5.54193 25.2615C6.42864 25.0019 7.36804 25.3733 8.16402 25.7528C9.13852 26.2134 10.0311 26.8388 11.0348 27.2388C12.0591 27.6447 13.0979 27.6883 14.1836 27.6105C15.2108 27.5362 16.3229 27.3705 17.3091 27.7761C17.83 27.9933 18.3509 28.2426 18.8513 28.5022C19.3692 28.774 19.7994 29.1799 20.3174 29.4509C21.3241 29.9803 22.4303 29.5367 23.4867 29.8202C24.0749 29.9768 24.5666 30.5027 25.0699 30.817C25.6288 31.169 26.2317 31.4318 26.8463 31.663C27.9466 32.0721 29.1289 32.478 30.3141 32.3203C30.8701 32.2459 30.873 31.3633 30.3111 31.44Z" fill="#18191B"/>
<path d="M20.1681 10.1035C20.1681 11.2638 19.2229 12.2044 18.0641 12.2044C16.9023 12.2044 15.9629 11.2638 15.9629 10.1035C15.9629 8.94084 16.9023 8 18.0641 8C19.2229 8 20.1681 8.94084 20.1681 10.1035Z" fill="#18191B"/>
</g>
<defs>
<clipPath id="clip0_770_191">
<rect width="40" height="40" fill="white"/>
</clipPath>
</defs>
</svg>
