<svg width="40" height="40" viewBox="0 0 40 40" fill="none" xmlns="http://www.w3.org/2000/svg">
<g clip-path="url(#clip0_770_245)">
<path d="M30 0.75H10C4.89137 0.75 0.75 4.89137 0.75 10V30C0.75 35.1086 4.89137 39.25 10 39.25H30C35.1086 39.25 39.25 35.1086 39.25 30V10C39.25 4.89137 35.1086 0.75 30 0.75Z" fill="white"/>
<mask id="path-2-inside-1_770_245" fill="white">
<path d="M6.86998 24.3504C6.86998 21.609 9.09183 19.3871 11.8332 19.3871C14.5776 19.3871 16.7995 21.609 16.7995 24.3504C16.7995 27.0948 14.5776 29.3167 11.8332 29.3167C9.09183 29.3167 6.86998 27.0948 6.86998 24.3504ZM6 24.3504C6 27.5736 8.60991 30.1898 11.8332 30.1898C15.0564 30.1898 17.6695 27.5736 17.6695 24.3504C17.6695 21.1302 15.0564 18.5172 11.8332 18.5172C8.60991 18.5172 6 21.1302 6 24.3504Z"/>
</mask>
<path d="M6.86998 24.3504C6.86998 21.609 9.09183 19.3871 11.8332 19.3871C14.5776 19.3871 16.7995 21.609 16.7995 24.3504C16.7995 27.0948 14.5776 29.3167 11.8332 29.3167C9.09183 29.3167 6.86998 27.0948 6.86998 24.3504ZM6 24.3504C6 27.5736 8.60991 30.1898 11.8332 30.1898C15.0564 30.1898 17.6695 27.5736 17.6695 24.3504C17.6695 21.1302 15.0564 18.5172 11.8332 18.5172C8.60991 18.5172 6 21.1302 6 24.3504Z" fill="#18191B"/>
<path d="M6.86998 24.3504H7.86998C7.86998 22.1613 9.64413 20.3871 11.8332 20.3871V19.3871V18.3871C8.53953 18.3871 5.86998 21.0567 5.86998 24.3504H6.86998ZM11.8332 19.3871V20.3871C14.0257 20.3871 15.7995 22.1617 15.7995 24.3504H16.7995H17.7995C17.7995 21.0563 15.1295 18.3871 11.8332 18.3871V19.3871ZM16.7995 24.3504H15.7995C15.7995 26.5425 14.0253 28.3167 11.8332 28.3167V29.3167V30.3167C15.1299 30.3167 17.7995 27.6471 17.7995 24.3504H16.7995ZM11.8332 29.3167V28.3167C9.64453 28.3167 7.86998 26.5429 7.86998 24.3504H6.86998H5.86998C5.86998 27.6467 8.53914 30.3167 11.8332 30.3167V29.3167ZM6 24.3504H5C5 28.1245 8.05623 31.1898 11.8332 31.1898V30.1898V29.1898C9.16359 29.1898 7 27.0227 7 24.3504H6ZM11.8332 30.1898V31.1898C15.6094 31.1898 18.6695 28.1252 18.6695 24.3504H17.6695H16.6695C16.6695 27.022 14.5034 29.1898 11.8332 29.1898V30.1898ZM17.6695 24.3504H18.6695C18.6695 20.5776 15.6083 17.5172 11.8332 17.5172V18.5172V19.5172C14.5045 19.5172 16.6695 21.6829 16.6695 24.3504H17.6695ZM11.8332 18.5172V17.5172C8.05728 17.5172 5 20.5783 5 24.3504H6H7C7 21.6822 9.16254 19.5172 11.8332 19.5172V18.5172Z" fill="#18191B" mask="url(#path-2-inside-1_770_245)"/>
<path d="M29.1636 19.0172C32.1107 19.0172 34.5004 21.4064 34.5005 24.3502C34.5005 27.2976 32.1103 29.6901 29.1636 29.6901C26.2172 29.69 23.8306 27.2979 23.8306 24.3502C23.8307 21.4061 26.2167 19.0173 29.1636 19.0172Z" fill="#18191B" stroke="#18191B"/>
<path d="M22.0703 26.8245C22.0714 26.8243 22.0728 26.8238 22.0742 26.8235C22.0751 26.8234 22.076 26.8228 22.0771 26.8226C22.0738 26.8232 22.0714 26.8243 22.0703 26.8245ZM16.7178 12.4622C17.072 12.108 17.7396 11.9776 18.3701 12.2855L18.3721 12.2864H18.373L18.376 12.2884C18.3787 12.2897 18.3834 12.2917 18.3887 12.2943C18.3993 12.2994 18.4151 12.3068 18.4355 12.3167C18.4769 12.3367 18.5377 12.366 18.6152 12.4036C18.7703 12.4789 18.9928 12.587 19.2607 12.7181C19.7968 12.9803 20.5158 13.335 21.248 13.7034C21.9811 14.0723 22.7245 14.4537 23.3105 14.7708C23.604 14.9296 23.8536 15.0699 24.041 15.1829C24.1349 15.2395 24.2085 15.2872 24.2627 15.3245C24.3239 15.3667 24.337 15.3807 24.3281 15.3714L24.3291 15.3724C24.4024 15.4482 24.4691 15.6091 24.498 15.8431C24.5257 16.0672 24.5074 16.2643 24.4961 16.3196L24.4893 16.3528L24.4873 16.386C24.4763 16.5465 24.456 16.7061 24.4307 16.8655C24.2351 17.7732 23.9744 18.464 23.6865 19.1722C23.3973 19.8836 23.0738 20.6289 22.7881 21.5989L22.7871 21.6038C22.7169 21.8511 22.6693 22.2977 22.6328 22.7708C22.5947 23.2644 22.5642 23.8477 22.541 24.4046C22.5178 24.9622 22.5021 25.4979 22.4912 25.8978C22.4858 26.0976 22.4813 26.2638 22.4785 26.3821C22.4771 26.4412 22.4764 26.4886 22.4756 26.5218C22.4753 26.5337 22.4748 26.5431 22.4746 26.5501C22.4716 26.5794 22.4633 26.6116 22.4385 26.6614L22.4336 26.6693C22.4328 26.6708 22.4324 26.6726 22.4316 26.6741L22.4258 26.6859L22.4248 26.6868C22.4241 26.6878 22.4239 26.6893 22.4229 26.6907C22.4197 26.6952 22.4152 26.7003 22.4092 26.7083C22.3872 26.7319 22.3724 26.7486 22.3594 26.7601C22.3503 26.7681 22.3447 26.7715 22.3428 26.7728L22.3281 26.7796C22.3272 26.7799 22.3262 26.7812 22.3252 26.7816C22.3215 26.7829 22.3166 26.7846 22.3115 26.7864C22.3064 26.7883 22.3 26.7905 22.293 26.7933L22.2744 26.8011L22.2686 26.804H22.2646L22.2305 26.8109H22.2012C22.1869 26.8109 22.1731 26.8137 22.1602 26.8148C22.1568 26.8148 22.1536 26.8146 22.1504 26.8148C22.0052 26.7937 21.9002 26.6688 21.9053 26.5228C21.906 26.5187 21.9075 26.5145 21.9082 26.5101L21.9131 26.4827L21.915 26.4554C21.9342 26.0985 21.9897 24.273 22.2822 21.4153L22.2832 21.4046C22.3224 20.9106 22.5449 19.1045 22.7939 17.6009L22.9609 16.5921L22.0625 17.0794C21.9144 17.1598 21.7537 17.2209 21.5596 17.2972C20.7318 17.5587 19.8803 17.6287 18.9297 17.7757L18.3877 17.8597L18.5205 18.3919C18.735 19.2478 19.2361 20.3621 19.665 21.2357C19.8825 21.6785 20.0872 22.0706 20.2373 22.3519C20.3124 22.4925 20.3741 22.6056 20.417 22.6839C20.4357 22.718 20.4499 22.7459 20.4609 22.7659C20.473 22.8018 20.4778 22.8301 20.4756 22.8597V22.8655C20.4658 23.0146 20.3327 23.1338 20.1748 23.1224C20.0945 23.1166 20.0251 23.0775 19.9834 23.0276L19.9561 22.9944C19.9347 22.9619 19.903 22.9124 19.8623 22.8441C19.7761 22.6992 19.662 22.4995 19.5342 22.2757C19.2889 21.8464 18.9883 21.3213 18.7744 21.0003C18.4061 20.3807 17.9462 19.5583 17.7373 18.8909L17.6641 18.6146C17.5632 18.0737 17.5685 17.6575 17.7803 17.3831L17.8047 17.3519L17.8242 17.3157C17.8328 17.3001 17.8691 17.2506 17.9717 17.181C18.0712 17.1135 18.2103 17.0433 18.3877 16.9749C18.743 16.8379 19.2061 16.728 19.7061 16.6595L21.335 16.4359L19.8574 15.7142L17.3066 14.4691L17.2764 14.4544L17.2676 14.4515L16.8828 14.2591L16.6328 14.595C16.2896 15.0564 15.8815 15.4842 15.4434 15.888C15.2704 16.0214 14.8502 16.2362 14.2441 16.4954C13.6497 16.7497 12.9344 17.0247 12.2363 17.2776C11.539 17.5303 10.8638 17.7598 10.3525 17.9251C10.0965 18.0079 9.88386 18.0733 9.73145 18.1175C9.65744 18.139 9.60169 18.1549 9.56348 18.1644H9.53711L9.49121 18.1732C9.46979 18.1772 9.45795 18.1762 9.4502 18.1761C9.41361 18.1722 9.37995 18.155 9.35449 18.1282L9.51953 17.9603L9.42383 17.8655L9.5293 17.8314L9.5332 17.8265C9.56139 17.8162 9.59519 17.8045 9.63379 17.7903C9.76362 17.7428 9.94967 17.6738 10.1748 17.5882C10.6248 17.4172 11.2339 17.1781 11.8672 16.9066C12.4987 16.6358 13.1633 16.3284 13.7217 16.0208C14.0007 15.8671 14.2613 15.7099 14.4805 15.5521C14.69 15.4012 14.8897 15.2292 15.0283 15.0413L15.0293 15.0423C15.3096 14.6736 15.541 14.279 15.752 13.9007C15.9666 13.5157 16.1532 13.1604 16.3652 12.8177C16.4442 12.6959 16.5408 12.5939 16.6475 12.5208L16.6855 12.4944L16.7178 12.4622ZM22.3809 26.7503C22.3815 26.7493 22.3826 26.7472 22.3838 26.7454C22.3846 26.7442 22.3857 26.743 22.3867 26.7415C22.384 26.7457 22.3817 26.749 22.3809 26.7503ZM22.4443 26.6526C22.4517 26.6387 22.4591 26.6254 22.4668 26.6136C22.471 26.6071 22.4764 26.6017 22.4805 26.596C22.4673 26.6139 22.4553 26.6327 22.4443 26.6526ZM20.4785 22.7962C20.4794 22.7978 20.4803 22.7988 20.4805 22.7991L20.4795 22.7982C20.4792 22.7976 20.4783 22.7966 20.4775 22.7952L20.4717 22.7835C20.4746 22.7889 20.4768 22.7931 20.4785 22.7962ZM9.18164 18.305L9.16992 18.3167L9.18262 18.303L9.18164 18.305Z" fill="#18191B" stroke="#18191B"/>
<path d="M13.9624 9.50684C14.8677 9.45867 15.9707 9.68448 17.3755 10.1436C17.5252 10.1925 17.678 10.2442 17.8335 10.2979C17.0185 10.2947 16.3835 10.4335 15.9253 10.7744L15.7144 10.9316L15.7241 11.1943C15.7363 11.5285 15.6531 11.8515 15.4937 12.127L15.4849 12.1426L15.4771 12.1582C15.3223 12.475 15.1038 12.6933 14.8149 12.793L14.7026 12.832L14.6831 12.8506C14.6056 12.8845 14.5243 12.9154 14.436 12.9385L14.4321 12.9395C13.5009 13.1898 12.5413 12.6387 12.2876 11.7021C12.257 11.5831 12.2406 11.4668 12.2358 11.3467L12.2329 11.2764C12.221 10.4919 12.7397 9.77347 13.5269 9.5625L13.5376 9.55957C13.5906 9.54421 13.6403 9.53713 13.7349 9.52246H13.7563L13.7681 9.51953H13.7759L13.8101 9.51465C13.8522 9.5089 13.8887 9.50684 13.936 9.50684H13.9624Z" fill="#18191B" stroke="#18191B"/>
</g>
<defs>
<clipPath id="clip0_770_245">
<rect width="40" height="40" fill="white"/>
</clipPath>
</defs>
</svg>
