<svg width="40" height="40" viewBox="0 0 40 40" fill="none" xmlns="http://www.w3.org/2000/svg">
<g clip-path="url(#clip0_770_260)">
<path d="M30 0.75H10C4.89137 0.75 0.75 4.89137 0.75 10V30C0.75 35.1086 4.89137 39.25 10 39.25H30C35.1086 39.25 39.25 35.1086 39.25 30V10C39.25 4.89137 35.1086 0.75 30 0.75Z" fill="white"/>
<path d="M26.3066 18.5829C24.7449 20.1448 22.2108 20.1465 20.6456 18.5818C19.0865 17.0206 19.083 14.4851 20.6471 12.9245C22.21 11.3603 24.7417 11.363 26.3064 12.9245C27.8672 14.4867 27.8681 17.0208 26.3066 18.5829ZM20.1493 12.4274C18.3132 14.2619 18.314 17.2415 20.1528 19.0807C21.9875 20.9175 24.9679 20.9172 26.8014 19.0811C28.6364 17.243 28.6392 14.2627 26.8009 12.4267C24.9664 10.59 21.9858 10.5902 20.1493 12.4274Z" fill="#18191B"/>
<path d="M17.1865 27.4641C15.6231 29.0251 13.0919 29.0256 11.5284 27.4619C9.96761 25.8997 9.96586 23.3652 11.527 21.8058C13.0912 20.2394 15.6241 20.2399 17.1863 21.8058C18.7501 23.3668 18.7519 25.9013 17.1865 27.4641ZM11.0334 21.3053C9.19427 23.141 9.19684 26.1216 11.0316 27.9584C12.8704 29.7975 15.8491 29.7962 17.6843 27.9612C19.5229 26.1223 19.5209 23.145 17.6846 21.3073C15.8475 19.4691 12.8695 19.4708 11.0334 21.3053Z" fill="#18191B"/>
<path d="M12.2516 8.453C12.2707 8.39415 12.3009 8.34175 12.3369 8.29555C12.3326 8.29303 12.9271 7.81508 13.1814 7.59499C12.3028 7.62937 10.8895 7.99862 10.7334 8.04822C10.4845 8.12876 10.2546 8.26107 10.0628 8.44152C9.84721 8.63738 9.67518 8.89043 9.57245 9.18639C9.2471 10.1343 9.75136 11.168 10.7003 11.4945C11.3166 11.7076 11.972 11.5677 12.4404 11.18C12.6107 11.0424 13.5131 10.3404 14.1242 9.79041C14.137 9.46295 14.0894 9.14136 13.9906 8.83386C13.5413 8.96756 12.9899 9.14429 12.9899 9.14429L12.9912 9.14211C12.8692 9.19399 12.7311 9.19868 12.5977 9.15373C12.3077 9.05328 12.1515 8.73884 12.2516 8.453Z" fill="#18191B"/>
<path d="M12.3928 8.33652C12.3595 8.37847 12.3189 8.41909 12.3036 8.47139C12.2117 8.73286 12.3521 9.01775 12.6162 9.10614C12.7367 9.14953 12.8555 9.12491 12.9659 9.07798C12.8515 8.77316 12.6651 8.52867 12.3928 8.33652Z" fill="#18191B"/>
<path d="M18.1681 9.39658C18.1356 9.37779 18.1113 9.36674 18.0835 9.35942C17.9119 9.29816 17.7238 9.3323 17.5861 9.43916C17.5818 9.43664 14.4041 11.7983 13.3902 11.8303C12.7079 11.8732 12.0148 11.7497 11.3328 11.7229C11.1727 11.7207 11.0045 11.7459 10.8536 11.8044C10.2627 11.9175 9.76853 12.4621 9.66731 13.1696C9.66731 13.1696 8.94155 18.1757 9.04893 18.6833C9.14012 19.1029 9.67906 19.4344 9.84946 19.5095C9.97483 19.5819 10.1066 19.6492 10.2337 19.711C11.6981 20.2972 12.6661 20.2795 14.1785 20.7596C14.7815 20.9563 17.5009 22.7185 17.552 22.748C17.6245 22.7899 17.7042 22.8097 17.7849 22.8213C17.7875 22.8228 17.7888 22.8206 17.7944 22.821C17.8317 22.825 17.8678 22.8255 17.9024 22.8251C17.9117 22.8246 17.9171 22.8248 17.9231 22.8225C18.0052 22.8145 18.0797 22.7994 18.1522 22.7626C18.1632 22.7573 18.1721 22.7479 18.1818 22.7447C18.1937 22.7341 18.2042 22.7256 18.2187 22.7165C18.2335 22.7105 18.2453 22.6998 18.2572 22.6892C18.2602 22.6881 18.2651 22.6851 18.2664 22.6829C18.2862 22.6682 18.305 22.6498 18.3217 22.6304L18.3242 22.626C18.3461 22.6037 18.3656 22.58 18.3795 22.556C18.3838 22.5527 18.3851 22.5505 18.3888 22.5439C18.3939 22.5352 18.4031 22.5288 18.4081 22.5201L18.4106 22.5158L18.4119 22.5136C18.5859 22.2122 18.4823 21.8262 18.1837 21.6538C18.1684 21.645 18.1569 21.6413 18.1458 21.6348C17.9009 21.4876 16.6443 20.6951 14.596 19.597C14.2334 19.3934 12.9125 18.724 11.7919 18.2081C11.9405 18.1337 12.0839 18.0331 12.2143 17.9395C12.8037 17.476 13.2737 16.8883 13.7765 16.3428C14.6673 17.3318 15.7827 19.5571 15.7827 19.5571C15.8351 19.6339 15.9004 19.6978 15.9832 19.7456C16.2844 19.9195 16.6704 19.8162 16.8444 19.5148C16.9327 19.3619 16.9469 19.1895 16.9051 19.0315C16.9204 18.9792 16.2962 17.7947 16.0702 17.2565C15.796 16.6672 15.3624 15.7966 14.9 15.3229C14.5813 15.0078 14.1859 14.698 13.7134 14.7281C13.3051 14.6903 12.6548 15.1827 12.088 15.8193L12.4066 13.5571C12.4083 13.5406 12.4091 13.5236 12.4123 13.508C12.9166 13.4818 13.4177 13.3983 13.9085 13.2769C14.7988 12.9959 18.2065 10.3681 18.2847 10.2327L18.2872 10.2283C18.3172 10.202 18.3443 10.1652 18.367 10.1259C18.5146 9.87034 18.4282 9.54675 18.1722 9.39897C18.1722 9.39897 18.1722 9.39897 18.1696 9.39746L18.1681 9.39658Z" fill="#18191B"/>
<path d="M18.8462 34.2269L19.5222 34.4081C20.3993 27.1134 26.2852 21.1796 33.8954 20.5123L33.8382 19.8224C25.9284 20.514 19.803 26.6578 18.8462 34.2269Z" fill="#18191B"/>
</g>
<defs>
<clipPath id="clip0_770_260">
<rect width="40" height="40" fill="white"/>
</clipPath>
</defs>
</svg>
