<svg width="40" height="40" viewBox="0 0 40 40" fill="none" xmlns="http://www.w3.org/2000/svg">
<g clip-path="url(#clip0_770_164)">
<path d="M30 0.75H10C4.89137 0.75 0.75 4.89137 0.75 10V30C0.75 35.1086 4.89137 39.25 10 39.25H30C35.1086 39.25 39.25 35.1086 39.25 30V10C39.25 4.89137 35.1086 0.75 30 0.75Z" fill="white"/>
<path d="M26.5791 31.8511C23.821 31.1123 22.1811 28.2762 22.9211 25.5125C23.6612 22.7579 26.4976 21.115 29.2558 21.8574C32.0172 22.5962 33.6506 25.4322 32.9138 28.1934C32.1738 30.9506 29.3373 32.5895 26.5791 31.8511ZM29.4906 20.9788C26.2499 20.1089 22.9146 22.0357 22.0441 25.2833C21.1736 28.5246 23.1005 31.8611 26.3411 32.7271C29.5851 33.5933 32.9236 31.6701 33.7908 28.4252C34.6613 25.1842 32.7345 21.8473 29.4906 20.9788Z" fill="#18191B"/>
<path d="M10.7409 27.3809C7.98271 26.6395 6.34604 23.806 7.08612 21.0449C7.8262 18.2877 10.6626 16.6475 13.4175 17.3872C16.1822 18.126 17.8189 20.9621 17.0755 23.7232C16.3387 26.483 13.5023 28.1233 10.7409 27.3809ZM13.6588 16.5112C10.4148 15.6388 7.07962 17.5682 6.20913 20.8095C5.33864 24.0571 7.26547 27.391 10.5062 28.2595C13.7534 29.1294 17.0853 27.2026 17.9558 23.9589C18.8263 20.714 16.8995 17.3811 13.6588 16.5112Z" fill="#18191B"/>
<path d="M28.8353 9.56783C28.9136 9.55121 28.9918 9.55121 29.0668 9.56164C29.0668 9.55512 29.9862 9.91179 30.397 10.0543C29.7906 9.09281 28.4637 7.74927 28.3072 7.60647C28.0561 7.37988 27.7594 7.20806 27.4334 7.10993C27.0748 6.99517 26.6803 6.96614 26.2825 7.04243C25.011 7.29086 24.1797 8.52357 24.4275 9.79703C24.5872 10.6248 25.1676 11.2681 25.9044 11.5419C26.1685 11.6436 27.5378 12.2002 28.5484 12.5288C28.9234 12.3315 29.2527 12.0704 29.533 11.761C29.0929 11.3443 28.5387 10.8413 28.5387 10.8413H28.5419C28.405 10.7383 28.3105 10.5867 28.2746 10.4083C28.1996 10.0187 28.4506 9.64054 28.8353 9.56783Z" fill="#18191B"/>
<path d="M29.057 9.65063C28.9886 9.64052 28.9168 9.6213 28.8484 9.63793C28.4963 9.70411 28.2681 10.0455 28.3398 10.3982C28.3691 10.5612 28.4735 10.6783 28.5974 10.7715C28.8647 10.4465 29.0179 10.0797 29.057 9.65063Z" fill="#18191B"/>
<path d="M31.6034 16.8017C31.6034 16.7531 31.6001 16.7189 31.5903 16.683C31.5479 16.4512 31.3882 16.2628 31.1795 16.1777C31.1795 16.1711 26.4815 14.14 25.7903 13.0257C25.3013 12.2895 24.9916 11.4337 24.5808 10.6528C24.4797 10.4722 24.3428 10.3001 24.1798 10.169C23.6712 9.58056 22.742 9.3794 21.8845 9.72336C21.8845 9.72336 15.8107 12.1467 15.3119 12.595C14.9011 12.9683 14.8783 13.7859 14.9043 14.0253C14.9043 14.2124 14.9141 14.4034 14.9272 14.5857C15.2173 16.6041 15.8628 17.6764 16.303 19.6798C16.4725 20.4822 16.2573 24.6657 16.2573 24.742C16.2573 24.8503 16.2867 24.9523 16.3258 25.0501C16.3258 25.054 16.3291 25.054 16.3323 25.0606C16.3519 25.1049 16.3747 25.1456 16.3975 25.1841C16.404 25.1942 16.4073 25.2004 16.4138 25.2057C16.4758 25.2924 16.541 25.366 16.629 25.4234C16.642 25.4322 16.6583 25.4361 16.6681 25.4449C16.6877 25.4515 16.704 25.4577 16.7236 25.4681C16.7399 25.4808 16.7594 25.487 16.779 25.4935C16.7823 25.4961 16.7887 25.4997 16.792 25.4997C16.8213 25.5124 16.854 25.5216 16.8866 25.5278H16.8931C16.9322 25.5379 16.9713 25.5444 17.0072 25.5444C17.0137 25.547 17.017 25.547 17.0268 25.547C17.0398 25.547 17.0529 25.5532 17.0659 25.5532H17.0724H17.0756C17.5256 25.5532 17.8907 25.1877 17.8907 24.742C17.8907 24.7192 17.8874 24.7039 17.8874 24.6873C17.894 24.3179 17.969 22.3989 17.8744 19.3959C17.8679 18.8583 17.7636 16.9468 17.6169 15.3587C17.7962 15.4771 18.0016 15.5726 18.1907 15.658C19.0905 16.0182 20.0523 16.1646 20.988 16.3749C20.4565 18.0116 18.6862 20.6987 18.6862 20.6987C18.6341 20.8069 18.6047 20.9213 18.6047 21.0449C18.6047 21.4945 18.9699 21.86 19.4198 21.86C19.648 21.86 19.8502 21.7644 20.0001 21.6155C20.0686 21.5988 20.9912 20.1343 21.4477 19.5335C21.9302 18.8455 22.6246 17.7974 22.8561 16.9735C23.0028 16.4131 23.0941 15.7701 22.755 15.2606C22.5333 14.779 21.5618 14.3692 20.4826 14.1462L23.2213 13.0406C23.2408 13.0318 23.2604 13.0217 23.2799 13.0152C23.6353 13.5629 24.0526 14.0699 24.5058 14.541C25.3958 15.3561 30.5405 17.4726 30.7426 17.4726H30.7492C30.7981 17.4893 30.8568 17.4958 30.9155 17.4958C31.2969 17.4958 31.6034 17.19 31.6034 16.8079C31.6034 16.8079 31.6034 16.8079 31.6034 16.804V16.8017Z" fill="#18191B"/>
</g>
<defs>
<clipPath id="clip0_770_164">
<rect width="40" height="40" fill="white"/>
</clipPath>
</defs>
</svg>
