<svg width="40" height="40" viewBox="0 0 40 40" fill="none" xmlns="http://www.w3.org/2000/svg">
<g clip-path="url(#clip0_770_254)">
<path d="M30 0.75H10C4.89137 0.75 0.75 4.89137 0.75 10V30C0.75 35.1086 4.89137 39.25 10 39.25H30C35.1086 39.25 39.25 35.1086 39.25 30V10C39.25 4.89137 35.1086 0.75 30 0.75Z" fill="white"/>
<mask id="path-2-inside-1_770_254" fill="white">
<path d="M6.86979 24.3464C6.86979 21.605 9.09117 19.3842 11.8351 19.3842C14.5758 19.3842 16.7972 21.605 16.7972 24.3464C16.7972 27.0899 14.5758 29.3144 11.8351 29.3144C9.09117 29.3144 6.86979 27.0899 6.86979 24.3464ZM6 24.3464C6 27.5693 8.61248 30.182 11.8351 30.182C15.0576 30.182 17.6701 27.5693 17.6701 24.3464C17.6701 21.126 15.0576 18.5129 11.8351 18.5129C8.61248 18.5129 6 21.126 6 24.3464Z"/>
</mask>
<path d="M6.86979 24.3464C6.86979 21.605 9.09117 19.3842 11.8351 19.3842C14.5758 19.3842 16.7972 21.605 16.7972 24.3464C16.7972 27.0899 14.5758 29.3144 11.8351 29.3144C9.09117 29.3144 6.86979 27.0899 6.86979 24.3464ZM6 24.3464C6 27.5693 8.61248 30.182 11.8351 30.182C15.0576 30.182 17.6701 27.5693 17.6701 24.3464C17.6701 21.126 15.0576 18.5129 11.8351 18.5129C8.61248 18.5129 6 21.126 6 24.3464Z" fill="#18191B"/>
<path d="M6.86979 24.3464H7.86979C7.86979 22.1578 9.64297 20.3842 11.8351 20.3842V19.3842V18.3842C8.53937 18.3842 5.86979 21.0522 5.86979 24.3464H6.86979ZM11.8351 19.3842V20.3842C14.0236 20.3842 15.7972 22.1574 15.7972 24.3464H16.7972H17.7972C17.7972 21.0527 15.128 18.3842 11.8351 18.3842V19.3842ZM16.7972 24.3464H15.7972C15.7972 26.5388 14.0223 28.3144 11.8351 28.3144V29.3144V30.3144C15.1293 30.3144 17.7972 27.641 17.7972 24.3464H16.7972ZM11.8351 29.3144V28.3144C9.64422 28.3144 7.86979 26.5384 7.86979 24.3464H6.86979H5.86979C5.86979 27.6414 8.53812 30.3144 11.8351 30.3144V29.3144ZM6 24.3464H5C5 28.1215 8.06012 31.182 11.8351 31.182V30.182V29.182C9.16485 29.182 7 27.0171 7 24.3464H6ZM11.8351 30.182V31.182C15.61 31.182 18.6701 28.1215 18.6701 24.3464H17.6701H16.6701C16.6701 27.0171 14.5052 29.182 11.8351 29.182V30.182ZM17.6701 24.3464H18.6701C18.6701 20.5736 15.6098 17.5129 11.8351 17.5129V18.5129V19.5129C14.5054 19.5129 16.6701 21.6784 16.6701 24.3464H17.6701ZM11.8351 18.5129V17.5129C8.0603 17.5129 5 20.5736 5 24.3464H6H7C7 21.6784 9.16466 19.5129 11.8351 19.5129V18.5129Z" fill="#18191B" mask="url(#path-2-inside-1_770_254)"/>
<mask id="path-4-inside-2_770_254" fill="white">
<path d="M24.1996 24.3464C24.1996 21.605 26.4179 19.3842 29.1617 19.3842C31.9056 19.3842 34.1239 21.605 34.1239 24.3464C34.1239 27.0899 31.9056 29.3144 29.1617 29.3144C26.4179 29.3144 24.1996 27.0899 24.1996 24.3464ZM23.3267 24.3464C23.3267 27.5693 25.9392 30.182 29.1617 30.182C32.3874 30.182 34.9999 27.5693 34.9999 24.3464C34.9999 21.126 32.3874 18.5129 29.1617 18.5129C25.9392 18.5129 23.3267 21.126 23.3267 24.3464Z"/>
</mask>
<path d="M24.1996 24.3464C24.1996 21.605 26.4179 19.3842 29.1617 19.3842C31.9056 19.3842 34.1239 21.605 34.1239 24.3464C34.1239 27.0899 31.9056 29.3144 29.1617 29.3144C26.4179 29.3144 24.1996 27.0899 24.1996 24.3464ZM23.3267 24.3464C23.3267 27.5693 25.9392 30.182 29.1617 30.182C32.3874 30.182 34.9999 27.5693 34.9999 24.3464C34.9999 21.126 32.3874 18.5129 29.1617 18.5129C25.9392 18.5129 23.3267 21.126 23.3267 24.3464Z" fill="#18191B"/>
<path d="M24.1996 24.3464H25.1996C25.1996 22.157 26.9705 20.3842 29.1617 20.3842V19.3842V18.3842C25.8652 18.3842 23.1996 21.0531 23.1996 24.3464H24.1996ZM29.1617 19.3842V20.3842C31.3529 20.3842 33.1239 22.157 33.1239 24.3464H34.1239H35.1239C35.1239 21.0531 32.4582 18.3842 29.1617 18.3842V19.3842ZM34.1239 24.3464H33.1239C33.1239 26.5392 31.3517 28.3144 29.1617 28.3144V29.3144V30.3144C32.4594 30.3144 35.1239 27.6406 35.1239 24.3464H34.1239ZM29.1617 29.3144V28.3144C26.9717 28.3144 25.1996 26.5392 25.1996 24.3464H24.1996H23.1996C23.1996 27.6406 25.864 30.3144 29.1617 30.3144V29.3144ZM23.3267 24.3464H22.3267C22.3267 28.1215 25.3868 31.182 29.1617 31.182V30.182V29.182C26.4915 29.182 24.3267 27.0171 24.3267 24.3464H23.3267ZM29.1617 30.182V31.182C32.9394 31.182 35.9999 28.1219 35.9999 24.3464H34.9999H33.9999C33.9999 27.0168 31.8353 29.182 29.1617 29.182V30.182ZM34.9999 24.3464H35.9999C35.9999 20.5733 32.9392 17.5129 29.1617 17.5129V18.5129V19.5129C31.8355 19.5129 33.9999 21.6788 33.9999 24.3464H34.9999ZM29.1617 18.5129V17.5129C25.387 17.5129 22.3267 20.5736 22.3267 24.3464H23.3267H24.3267C24.3267 21.6784 26.4913 19.5129 29.1617 19.5129V18.5129Z" fill="#18191B" mask="url(#path-4-inside-2_770_254)"/>
<path d="M9.44336 17.8541C9.44133 17.8549 9.43938 17.8557 9.43848 17.856C9.43751 17.8564 9.43627 17.8557 9.43555 17.856L9.42285 17.8609C9.37352 17.878 9.33068 17.921 9.31445 17.981L9.31055 17.9947L9.30859 18.0005C9.30405 18.0859 9.37161 18.165 9.46191 18.1724C9.46808 18.1719 9.47914 18.1706 9.49609 18.1675L9.54102 18.1597H9.56445C9.60259 18.1502 9.65854 18.1354 9.73242 18.1138C9.88458 18.0695 10.0968 18.0034 10.3525 17.9205C10.8634 17.7548 11.5383 17.5241 12.2354 17.2711C12.9329 17.0178 13.648 16.7441 14.2422 16.4898C14.8525 16.2286 15.2744 16.0115 15.4453 15.8785C15.8811 15.4823 16.2851 15.053 16.6367 14.5875L16.9111 14.2232L17.2988 14.4644C17.301 14.4658 17.3056 14.4681 17.3154 14.4732H17.3145L19.8574 15.7105L21.3389 16.4322L19.7061 16.6558C19.2047 16.7244 18.7415 16.8342 18.3867 16.9713C18.2095 17.0398 18.071 17.1108 17.9717 17.1783C17.8694 17.2478 17.8338 17.2972 17.8252 17.313L17.8057 17.3482L17.7812 17.3795C17.5682 17.6559 17.5615 18.0724 17.6621 18.6109C17.8066 19.31 18.3442 20.276 18.7666 20.9781L18.9404 21.2535C19.1273 21.5595 19.3456 21.9431 19.5332 22.2711C19.661 22.4946 19.775 22.6939 19.8613 22.8384C19.9013 22.9053 19.9318 22.9554 19.9531 22.9879L19.9795 23.0181C20.0309 23.0779 20.0946 23.1116 20.1719 23.1168H20.1748C20.3261 23.1272 20.4612 23.012 20.4727 22.855V22.8521C20.4748 22.8235 20.4695 22.7909 20.457 22.7515C20.4466 22.7326 20.433 22.7084 20.417 22.6793C20.374 22.6009 20.3116 22.4871 20.2363 22.3463C20.086 22.0649 19.8817 21.6728 19.6641 21.23C19.2344 20.3562 18.733 19.2412 18.5186 18.3873L18.3848 17.855L18.9268 17.772C19.8834 17.625 20.7364 17.5554 21.5654 17.2906C21.753 17.2171 21.9146 17.1551 22.0566 17.0767L22.957 16.5797L22.791 17.5953C22.5452 19.0989 22.3217 20.9107 22.2793 21.4039V21.4107C21.9899 24.2676 21.9341 26.0926 21.915 26.4507L21.9131 26.4498C21.9121 26.4716 21.9122 26.4905 21.9102 26.5054C21.9095 26.5105 21.908 26.5156 21.9072 26.5201C21.8986 26.662 22.0012 26.787 22.1475 26.8072C22.1565 26.8066 22.1682 26.8062 22.1816 26.8062H22.2139L22.2891 26.7886L22.293 26.7877C22.304 26.7832 22.3157 26.7786 22.3281 26.774C22.3539 26.7557 22.381 26.7327 22.4082 26.7007L22.4092 26.7017C22.4102 26.7005 22.411 26.6991 22.4121 26.6978C22.4198 26.6864 22.4281 26.6743 22.4365 26.6607C22.4381 26.6576 22.4388 26.654 22.4404 26.6509L22.4658 26.5914C22.4702 26.5769 22.4721 26.5635 22.4736 26.5504C22.4738 26.5429 22.4742 26.5319 22.4746 26.5162C22.4754 26.483 22.4771 26.4355 22.4785 26.3765C22.4813 26.2581 22.4848 26.0912 22.4902 25.8912C22.5012 25.4914 22.5186 24.9562 22.542 24.399C22.5654 23.8424 22.5952 23.2596 22.6338 22.7662C22.6707 22.2935 22.7186 21.8462 22.79 21.5982L22.791 21.5972C23.0736 20.6259 23.3945 19.8805 23.6836 19.1685C23.9713 18.4598 24.2327 17.769 24.4297 16.8609C24.455 16.7022 24.4744 16.5451 24.4824 16.3941L24.4844 16.358L24.4922 16.3218C24.5042 16.2623 24.5228 16.0622 24.4961 15.8375C24.4682 15.6027 24.4021 15.4431 24.3301 15.3677C24.3219 15.3612 24.3018 15.3467 24.2656 15.3218C24.2111 15.2844 24.1371 15.2368 24.043 15.1802C23.855 15.0673 23.6044 14.9269 23.3105 14.7681C22.7239 14.4512 21.9805 14.0695 21.2471 13.7007C20.5142 13.3323 19.7941 12.9786 19.2578 12.7164C18.9901 12.5855 18.7683 12.4771 18.6133 12.4019C18.536 12.3644 18.4749 12.335 18.4336 12.315C18.4129 12.305 18.3964 12.2977 18.3857 12.2925C18.3806 12.29 18.3767 12.288 18.374 12.2867C18.3727 12.286 18.3718 12.285 18.3711 12.2847H18.3701L18.3682 12.2838C17.7368 11.9758 17.0724 12.1026 16.7158 12.4595L16.6855 12.4908L16.6494 12.5162C16.5446 12.5896 16.4482 12.6912 16.3691 12.8082C16.1551 13.1517 15.9671 13.5091 15.752 13.8961C15.5416 14.2745 15.3103 14.6698 15.0293 15.0377L15.0283 15.0367C14.8898 15.2243 14.6912 15.3958 14.4824 15.5464C14.2631 15.7046 14.0028 15.8633 13.7236 16.0172C13.1649 16.3251 12.499 16.6322 11.8672 16.9029C11.2338 17.1743 10.6249 17.4128 10.1748 17.5836C9.94945 17.669 9.76284 17.7383 9.63281 17.7857C9.57388 17.8072 9.52644 17.8242 9.49219 17.8365L9.49023 17.8384L9.44336 17.8541ZM9.44336 17.8541C9.44493 17.8535 9.44691 17.8526 9.44824 17.8521V17.8511C9.44611 17.8519 9.44414 17.8534 9.44238 17.8541C9.44132 17.8544 9.44033 17.8547 9.43945 17.855L9.44336 17.8541ZM22.1035 26.8121C22.1002 26.8125 22.0971 26.8129 22.0957 26.813C22.0944 26.8132 22.0938 26.813 22.0938 26.813C22.0942 26.813 22.0965 26.8124 22.0996 26.8121C22.1012 26.8119 22.1036 26.8114 22.1064 26.8111C22.1053 26.8112 22.1044 26.812 22.1035 26.8121Z" fill="#18191B" stroke="#18191B"/>
<path d="M13.5264 9.56055C14.4579 9.30883 15.4209 9.86562 15.666 10.7939L15.667 10.7979C15.9194 11.7306 15.366 12.6874 14.4307 12.9375C13.5015 13.1862 12.5407 12.6347 12.29 11.7021V11.7012C12.04 10.7712 12.5937 9.81055 13.5254 9.56055H13.5264Z" fill="#18191B" stroke="#18191B"/>
</g>
<defs>
<clipPath id="clip0_770_254">
<rect width="40" height="40" fill="white"/>
</clipPath>
</defs>
</svg>
