<svg width="40" height="40" viewBox="0 0 40 40" fill="none" xmlns="http://www.w3.org/2000/svg">
<g clip-path="url(#clip0_770_206)">
<path d="M30 0.75H10C4.89137 0.75 0.75 4.89137 0.75 10V30C0.75 35.1086 4.89137 39.25 10 39.25H30C35.1086 39.25 39.25 35.1086 39.25 30V10C39.25 4.89137 35.1086 0.75 30 0.75Z" fill="white"/>
<path d="M19 24.25C20.2426 24.25 21.25 23.2426 21.25 22C21.25 20.7574 20.2426 19.75 19 19.75C17.7574 19.75 16.75 20.7574 16.75 22C16.75 23.2426 17.7574 24.25 19 24.25Z" fill="#18191B" stroke="#18191B" stroke-width="1.5"/>
<path d="M19 28.25C22.4518 28.25 25.25 25.4518 25.25 22C25.25 18.5482 22.4518 15.75 19 15.75C15.5482 15.75 12.75 18.5482 12.75 22C12.75 25.4518 15.5482 28.25 19 28.25Z" fill="#18191B" stroke="#18191B" stroke-width="1.5"/>
<path d="M19 32.25C24.6609 32.25 29.25 27.6609 29.25 22C29.25 16.3391 24.6609 11.75 19 11.75C13.3391 11.75 8.75 16.3391 8.75 22C8.75 27.6609 13.3391 32.25 19 32.25Z" fill="#18191B" stroke="#18191B" stroke-width="1.5"/>
<path d="M30.0576 10.0967L30.1104 10.4678L30.4814 10.5215L31.5176 10.6689L30.1367 12.0498L28.9668 11.6113L28.5273 10.4414L29.9092 9.05957L30.0576 10.0967Z" fill="#18191B" stroke="#18191B"/>
<path d="M28.9775 12.0529L22.5303 18.5002H22.0791V18.049L28.5264 11.6017L28.9775 12.0529Z" fill="#18191B" stroke="#18191B"/>
</g>
<defs>
<clipPath id="clip0_770_206">
<rect width="40" height="40" fill="white"/>
</clipPath>
</defs>
</svg>
