<svg width="40" height="40" viewBox="0 0 40 40" fill="none" xmlns="http://www.w3.org/2000/svg">
<g clip-path="url(#clip0_770_229)">
<path d="M30 0.75H10C4.89137 0.75 0.75 4.89137 0.75 10V30C0.75 35.1086 4.89137 39.25 10 39.25H30C35.1086 39.25 39.25 35.1086 39.25 30V10C39.25 4.89137 35.1086 0.75 30 0.75Z" fill="white"/>
<path d="M27.8389 25.4506V32.2709H27.415C27.3857 32.2561 27.3512 32.2385 27.3115 32.2191C27.1727 32.1514 26.9711 32.0572 26.7158 31.9477C26.2223 31.7358 25.525 31.4668 24.6865 31.225C25.394 31.2996 25.9859 31.3921 26.415 31.4701C26.6604 31.5147 26.853 31.5543 26.9824 31.5824C27.0467 31.5964 27.0956 31.6071 27.1279 31.6147C27.144 31.6184 27.1564 31.6216 27.1641 31.6234C27.1679 31.6244 27.1712 31.625 27.1729 31.6254H27.1738L27.7949 31.7807V25.4506H27.8389Z" fill="#18191B" stroke="#18191B"/>
<path d="M17.3037 14.3344C18.1551 14.3345 18.8408 15.0206 18.8408 15.8666C18.8406 16.7126 18.155 17.3978 17.3037 17.3979C16.4591 17.3979 15.7707 16.7129 15.7705 15.8666C15.7705 15.0202 16.459 14.3344 17.3037 14.3344Z" fill="#18191B" stroke="#18191B"/>
<path d="M28.6948 7.5C28.7491 7.50023 28.7922 7.54397 28.7925 7.59668C28.7925 7.59668 28.7911 7.5983 28.7905 7.60156C28.7637 7.63147 28.7293 7.66979 28.688 7.71582C28.5794 7.83699 28.4226 8.01182 28.23 8.22656C27.8449 8.65592 27.3159 9.24567 26.7378 9.88867C25.5805 11.1758 24.2289 12.6743 23.4419 13.5293L22.5649 14.4824L23.854 14.3662C24.6863 14.2914 25.5864 14.2207 26.313 14.1865C26.6771 14.1694 26.9901 14.1621 27.2261 14.167C27.3444 14.1694 27.4353 14.1743 27.4995 14.1816C27.5268 14.1848 27.5442 14.1878 27.5532 14.1895L27.5718 14.1992L27.6196 14.2109C27.6942 14.2301 27.8152 14.3145 27.9507 14.4883C28.0785 14.6524 28.1605 14.8205 28.1792 14.8711L28.1821 14.8779C28.2657 15.0933 28.2307 15.3707 27.9907 15.749C27.7511 16.1265 27.3546 16.5241 26.8843 16.9131C26.4188 17.298 25.9084 17.6521 25.4653 17.9492C25.0462 18.2303 24.637 18.4919 24.4448 18.6523L24.3149 18.7607L24.2778 18.9258C24.2343 19.1187 24.295 19.2906 24.3296 19.375C24.3721 19.4786 24.4332 19.5828 24.4966 19.6797C24.6245 19.8752 24.8052 20.1029 25.0112 20.3418C25.4263 20.8229 25.986 21.4005 26.5415 21.9512C27.5735 22.9742 28.6194 23.9326 28.77 24.0703H28.771C28.8056 24.105 28.8286 24.1567 28.8286 24.2148C28.8285 24.3254 28.7375 24.4188 28.6216 24.4189C28.5946 24.4189 28.5635 24.4119 28.5249 24.3896L28.4839 24.3662C28.4774 24.3617 28.4707 24.3566 28.4634 24.3516C28.4049 24.3108 28.3203 24.2531 28.2192 24.1826C28.0172 24.0416 27.7463 23.8516 27.4702 23.6582C27.194 23.4647 26.9128 23.2673 26.6909 23.1104C26.58 23.0319 26.4841 22.9642 26.4116 22.9121C26.3753 22.886 26.3454 22.8643 26.3228 22.8477C26.3116 22.8394 26.3031 22.8322 26.2964 22.8271C26.2906 22.8228 26.2874 22.8209 26.2866 22.8203L26.2817 22.8164L25.6821 22.3291C25.0019 21.7625 24.1448 21.0102 23.6938 20.5508L23.6929 20.5498C23.4629 20.3165 23.2185 20.0407 23.063 19.7539C22.9094 19.4705 22.88 19.2472 22.9497 19.0615C23.3119 18.2679 23.7321 18.1219 24.5737 17.4482L25.8608 16.418L24.2183 16.5596H24.2163C24.2151 16.5597 24.2135 16.5604 24.2114 16.5605C24.2064 16.561 24.1986 16.5617 24.189 16.5625C24.1695 16.5642 24.1404 16.5662 24.104 16.5693C24.0312 16.5756 23.9271 16.5849 23.8022 16.5957C23.5523 16.6172 23.2184 16.646 22.8843 16.6748L21.5415 16.791C21.1532 16.8206 20.7632 16.7089 20.481 16.5205C20.2277 16.3515 20.115 16.1625 20.0923 16.0078L20.0874 15.9443C20.0921 15.7746 20.079 15.3453 20.4292 15.0107L20.436 15.0049L20.4419 14.998C20.8135 14.6165 22.8594 12.7498 24.8374 10.957C25.8211 10.0654 26.7812 9.198 27.4956 8.55371C27.8527 8.23164 28.1484 7.96519 28.355 7.7793C28.4581 7.68648 28.5391 7.61396 28.5942 7.56445C28.6189 7.54229 28.638 7.52411 28.6519 7.51172C28.6649 7.50369 28.6795 7.5 28.6948 7.5Z" fill="#18191B" stroke="#18191B"/>
</g>
<defs>
<clipPath id="clip0_770_229">
<rect width="40" height="40" fill="white"/>
</clipPath>
</defs>
</svg>
