<svg width="40" height="40" viewBox="0 0 40 40" fill="none" xmlns="http://www.w3.org/2000/svg">
<g clip-path="url(#clip0_770_251)">
<path d="M39.25 9.61039V30.3896C39.25 35.2793 35.2793 39.25 30.3896 39.25H9.61039C4.72071 39.25 0.75 35.2793 0.75 30.3896V9.61039C0.75 4.72071 4.72071 0.75 9.61039 0.75H30.3896C35.2793 0.75 39.25 4.72071 39.25 9.61039Z" fill="white"/>
<path d="M22.8594 24.1953L16.1084 30.9473C15.7178 31.3374 15.0846 31.3375 14.6943 30.9473L8.41309 24.6651C8.02265 24.2745 8.02259 23.6415 8.41309 23.251L15.1631 16.5L22.8594 24.1953ZM20.2617 22.459C19.3492 21.5467 17.8705 21.5467 16.958 22.459C16.0456 23.3715 16.0456 24.8503 16.958 25.7627C17.8705 26.6751 19.3492 26.6752 20.2617 25.7627C21.1742 24.8503 21.1742 23.3715 20.2617 22.459ZM13.6924 22.3057C12.78 21.3937 11.301 21.3937 10.3887 22.3057C9.47621 23.2182 9.47621 24.6979 10.3887 25.6104C11.3011 26.5226 12.78 26.5226 13.6924 25.6104C14.6048 24.6979 14.6048 23.2182 13.6924 22.3057ZM23.25 8.41409C23.6404 8.02365 24.2735 8.02365 24.6641 8.41409L30.9463 14.6953C31.3366 15.0858 31.3364 15.7189 30.9463 16.1094L24.0596 22.9951L16.3633 15.2998L23.25 8.41409ZM25.6094 13.75C24.6969 12.8378 23.2171 12.8377 22.3047 13.75C21.3923 14.6624 21.3925 16.1422 22.3047 17.0547C23.2171 17.9672 24.6969 17.9672 25.6094 17.0547C26.5218 16.1422 26.5218 14.6625 25.6094 13.75Z" fill="#18191B" stroke="#18191B"/>
</g>
<defs>
<clipPath id="clip0_770_251">
<rect width="40" height="40" fill="white"/>
</clipPath>
</defs>
</svg>
