<svg width="40" height="40" viewBox="0 0 40 40" fill="none" xmlns="http://www.w3.org/2000/svg">
<g clip-path="url(#clip0_770_213)">
<path d="M30 0.75H10C4.89137 0.75 0.75 4.89137 0.75 10V30C0.75 35.1086 4.89137 39.25 10 39.25H30C35.1086 39.25 39.25 35.1086 39.25 30V10C39.25 4.89137 35.1086 0.75 30 0.75Z" fill="white"/>
<path d="M30.3828 24.085L28.6367 28.457L25.5664 28.0811L9.91406 11.8936L10.9697 11.5488L30.3828 24.085Z" fill="#18191B" stroke="#18191B"/>
<path d="M28.4307 12.2236L27.8672 15.1904L23.2754 12.3398L26.6309 11.5225L28.4307 12.2236Z" fill="#18191B" stroke="#18191B"/>
<path d="M16.0107 27.1582L11.9961 28.4463L9.60742 26.7217L11.1416 22.8457L16.0107 27.1582Z" fill="#18191B" stroke="#18191B"/>
</g>
<defs>
<clipPath id="clip0_770_213">
<rect width="40" height="40" fill="white"/>
</clipPath>
</defs>
</svg>
