<svg width="40" height="40" viewBox="0 0 40 40" fill="none" xmlns="http://www.w3.org/2000/svg">
<g clip-path="url(#clip0_770_234)">
<path d="M30 0.75H10C4.89137 0.75 0.75 4.89137 0.75 10V30C0.75 35.1086 4.89137 39.25 10 39.25H30C35.1086 39.25 39.25 35.1086 39.25 30V10C39.25 4.89137 35.1086 0.75 30 0.75Z" fill="white"/>
<path d="M22.103 7.87729C23.1312 7.87729 23.9652 8.70598 23.9653 9.73471C23.9653 10.7601 23.1304 11.5941 22.103 11.5941C21.0756 11.5939 20.2407 10.7598 20.2407 9.73471C20.2409 8.70633 21.0748 7.87745 22.103 7.87729Z" fill="#18191B" stroke="#18191B"/>
<path d="M20.2607 32.9062C20.2608 32.7691 20.2616 32.5675 20.2617 32.3115C20.262 31.7991 20.2621 31.0665 20.2627 30.1875C20.2638 28.4295 20.2653 26.0838 20.2676 23.7344C20.2698 21.3852 20.273 19.032 20.2764 17.2578C20.278 16.3706 20.2793 15.6279 20.2812 15.1035C20.2822 14.8417 20.2831 14.6347 20.2842 14.4912C20.2847 14.4193 20.2856 14.3639 20.2861 14.3262L20.2871 14.2852C20.2975 14.1933 20.3042 14.1257 20.3145 14.0566L20.3555 13.7793L20.1416 13.5996C20.1155 13.5777 20.0755 13.5498 20.0244 13.5244H20.0254C18.6512 12.8037 17.3291 12.034 16.3164 11.3936C15.8098 11.0732 15.3849 10.7879 15.0713 10.5596C14.9141 10.4452 14.7894 10.3479 14.6982 10.2705C14.5975 10.185 14.5668 10.1472 14.5684 10.1494L14.5488 10.124L14.5107 10.0596C14.503 10.039 14.5 10.019 14.5 10C14.5 9.96449 14.5111 9.92744 14.5381 9.88867L14.5498 9.87695C14.5881 9.83249 14.639 9.80957 14.6924 9.80957C14.7478 9.8097 14.7957 9.83156 14.833 9.87109L14.9805 10.0273H15.082C15.0833 10.028 15.0846 10.0287 15.0859 10.0293C15.1548 10.0627 15.2555 10.1115 15.3809 10.1729C15.632 10.2957 15.984 10.4693 16.3857 10.6699C17.1867 11.07 18.1818 11.576 18.9766 12.0137C19.4281 12.3098 20.08 12.6923 20.7793 12.9268L20.9873 12.9971L21.1797 12.8906C21.2918 12.8288 21.3798 12.7864 21.4619 12.7607C21.5367 12.7428 21.6274 12.727 21.7637 12.6992L21.7793 12.6963L21.7881 12.6934C21.7896 12.6932 21.7917 12.6936 21.7939 12.6934L21.8125 12.6914L21.8311 12.6875C21.8386 12.6861 21.848 12.6852 21.8652 12.6826C21.878 12.6807 21.8977 12.6765 21.9189 12.6729C21.9367 12.6708 21.9526 12.6706 21.9639 12.6689C21.9699 12.6681 21.9746 12.6666 21.9785 12.666C21.9823 12.6661 21.9866 12.667 21.9912 12.667H22.0312L22.0703 12.6602H22.126L22.165 12.667H22.21C22.2148 12.667 22.2194 12.6661 22.2236 12.666C22.2279 12.6666 22.2332 12.6679 22.2402 12.6689C22.251 12.6705 22.2673 12.6716 22.2861 12.6738C22.3493 12.6842 22.3418 12.682 22.3701 12.6875L22.3916 12.6914L22.4131 12.6934C22.4247 12.6946 22.4224 12.695 22.416 12.6934L22.4277 12.6963L22.4404 12.6992C22.5766 12.7272 22.6667 12.7426 22.7422 12.7607C22.8243 12.7868 22.9141 12.8298 23.0273 12.8916L23.2188 12.9961L23.4258 12.9268C23.9601 12.748 24.4653 12.484 24.875 12.2373L25.251 12C25.7122 11.7367 26.2569 11.2581 26.793 10.7246C27.3531 10.1672 27.9419 9.51358 28.4746 8.89355C29.0081 8.27259 29.4903 7.67985 29.8389 7.24316C30.0131 7.02486 30.1542 6.84514 30.252 6.71973C30.3007 6.65719 30.3383 6.60782 30.3643 6.57422C30.3687 6.56852 30.3723 6.56241 30.376 6.55762C30.4136 6.51882 30.459 6.50007 30.5117 6.5C30.567 6.5 30.6176 6.52356 30.6553 6.56738L30.6631 6.57617C30.6932 6.61763 30.705 6.65573 30.7051 6.69043C30.7051 6.72918 30.6921 6.77007 30.6572 6.8125L30.6465 6.8252L30.6367 6.83887C30.4901 7.04439 29.535 8.37596 28.2764 9.83398C27.0037 11.3082 25.477 12.8422 24.1846 13.5215C24.1725 13.5273 24.1604 13.5337 24.1494 13.54C24.1157 13.5593 24.0522 13.6 23.9951 13.6719L23.8652 13.835L23.8896 14.042L23.916 14.2881C23.9162 14.2959 23.9157 14.3086 23.916 14.3271C23.9166 14.3645 23.9174 14.4194 23.918 14.4912C23.9192 14.6346 23.9207 14.8423 23.9219 15.1045C23.9242 15.6287 23.9267 16.3708 23.9287 17.2578C23.9327 19.0321 23.9357 21.3859 23.9385 23.7354C23.9412 26.0846 23.9429 28.4297 23.9443 30.1875C23.945 31.0665 23.9459 31.7991 23.9463 32.3115V33.1162C23.9463 33.1406 23.9478 33.1619 23.9492 33.1777C23.9496 33.1822 23.9498 33.1865 23.9502 33.1904C23.9441 33.3655 23.8059 33.5 23.6318 33.5C23.4526 33.5 23.3106 33.3585 23.3105 33.1787V33.1641L23.0547 24.333L23.0498 24.1475L22.9248 24.0107L22.8125 23.9092C22.6673 23.7965 22.424 23.6661 22.1035 23.666C21.6715 23.666 21.3855 23.901 21.2871 24.0059L21.1572 24.1436L21.1514 24.333L20.8936 33.1641V33.1787C20.8935 33.36 20.7506 33.5 20.5742 33.5C20.4001 33.4998 20.2624 33.3659 20.2549 33.1934L20.2607 33.1553V32.9062Z" fill="#18191B" stroke="#18191B"/>
<path d="M13.6387 7.50195C13.6766 7.51058 13.7117 7.51904 13.7314 7.52344C13.7711 7.53229 13.7896 7.53789 13.8008 7.54199C13.9176 7.58508 14.0308 7.67235 14.1475 7.82422C14.1568 7.83641 14.1647 7.84979 14.1738 7.8623C14.15 7.84422 14.1268 7.8247 14.1006 7.80859C13.9254 7.70086 13.73 7.65985 13.5361 7.66992C13.1731 7.68889 12.9161 7.89103 12.752 8.14258L12.7432 8.15527L12.7363 8.16699C12.6557 8.30774 12.6103 8.45819 12.5977 8.61328L12.5957 8.76953C12.6089 9.00821 12.698 9.21946 12.8457 9.3916V9.39258C13.0483 9.62841 13.3309 9.75952 13.6572 9.7373C13.9766 9.71553 14.2414 9.55265 14.4131 9.29102C14.5255 9.11946 14.5852 8.92966 14.5908 8.73535C14.7011 9.08409 14.7629 9.44925 14.7822 9.83105V9.83203C14.783 9.84615 14.7865 9.85961 14.7881 9.87207C14.7881 10.0133 14.7885 10.1509 14.7861 10.292C14.781 10.3421 14.777 10.3901 14.7734 10.4316L14.7607 10.5664C14.7401 10.7408 14.7259 10.844 14.6934 10.9336C14.6848 10.9572 14.6747 10.9715 14.6689 10.9814L14.6221 10.9492C14.4187 10.7883 14.2359 10.5941 14.0498 10.373L13.8613 10.1436C13.7152 9.96075 13.5085 9.81867 13.2451 9.78613L13.1289 9.7793C12.4713 9.7795 11.8132 9.77917 11.1553 9.78027C10.894 9.78074 10.6694 9.88688 10.502 10.0586L10.4346 10.1357C10.3034 10.3008 10.1728 10.4554 10.0381 10.5986L9.90137 10.7383C9.76043 10.8758 9.68223 10.946 9.61719 10.9834C9.60981 10.9706 9.59775 10.9464 9.58594 10.9033C9.54788 10.7645 9.52871 10.6114 9.51367 10.4258C9.51067 10.3886 9.50417 10.3428 9.5 10.3115C9.50001 10.1354 9.5003 9.96279 9.50293 9.78613C9.51009 9.7209 9.51616 9.65924 9.52051 9.6123C9.54911 9.30361 9.60877 9.00632 9.70215 8.7207C9.70235 8.73561 9.70141 8.75082 9.70215 8.76562C9.71438 9.00911 9.80647 9.22273 9.95605 9.39551C10.1625 9.63373 10.4446 9.75758 10.7627 9.73828C10.9931 9.72429 11.1985 9.6312 11.3613 9.47852C11.5643 9.28829 11.6803 9.04193 11.6943 8.76465L11.6934 8.64355C11.6844 8.47849 11.6397 8.31553 11.5508 8.16504C11.4446 7.9854 11.2898 7.83793 11.0869 7.74805C10.9201 7.67427 10.7594 7.66179 10.625 7.66992C10.4933 7.67792 10.3785 7.71444 10.2822 7.76074L10.1924 7.80957C10.1609 7.82855 10.133 7.85082 10.1055 7.87207C10.1131 7.8613 10.1201 7.84946 10.1279 7.83887C10.2614 7.65848 10.3998 7.55987 10.5527 7.51855L10.5518 7.51758C10.5787 7.5103 10.5979 7.50705 10.6309 7.5C10.6787 7.5001 10.7233 7.50056 10.7686 7.50195C10.7739 7.50271 10.7791 7.50436 10.7832 7.50488C10.787 7.50536 10.7906 7.50557 10.793 7.50586C10.7955 7.50616 10.7967 7.50669 10.7979 7.50684C10.7971 7.50673 10.796 7.50603 10.7949 7.50586C10.9852 7.53594 11.1624 7.61197 11.3311 7.73828C11.4823 7.85152 11.6832 7.95314 11.9297 7.96484C12.0719 7.97154 12.2155 7.9717 12.3584 7.96484C12.579 7.95424 12.7807 7.87386 12.9473 7.74512C13.0893 7.63542 13.2455 7.56178 13.4199 7.51953C13.4524 7.51167 13.4735 7.50826 13.5186 7.5C13.5604 7.50008 13.5995 7.50092 13.6387 7.50195Z" fill="#18191B" stroke="#18191B"/>
<mask id="path-5-inside-1_770_234" fill="white">
<path d="M21.7795 12C21.6128 11.9504 21.5318 11.8586 21.5314 11.7186C21.531 11.5909 21.6156 11.4763 21.7394 11.4474C21.7872 11.4362 21.8385 11.4384 21.8882 11.438C22.0415 11.437 22.1948 11.4398 22.348 11.4368C22.448 11.4349 22.5287 11.4679 22.5961 11.5417C22.6128 11.56 22.6454 11.5759 22.6692 11.574C23.2552 11.5275 23.7332 11.2924 24.0355 10.7704C24.1162 10.6311 24.1707 10.4769 24.2445 10.3136C24.0654 10.2732 24.0569 10.1526 24.0581 10.0178C24.0622 9.58277 24.06 9.14772 24.0602 8.71268C24.0603 8.51714 24.0833 8.48425 24.2616 8.42503C24.2548 7.38212 23.3677 6.29633 22.0715 6.25634C20.7434 6.21536 19.757 7.29088 19.7359 8.42174C19.9229 8.49235 19.9391 8.51596 19.9392 8.71871C19.9394 9.16039 19.9397 9.60206 19.94 10.0437C19.9401 10.2508 19.8863 10.3057 19.6826 10.3064C19.6493 10.3065 19.616 10.3066 19.5827 10.3066C19.2267 10.3064 19.0513 10.1539 19.0019 9.785C19.0005 9.49485 18.9994 9.22185 19.0003 8.94108C19.0576 8.61913 19.1781 8.4941 19.4918 8.42713C19.4935 8.41501 19.4961 8.40214 19.497 8.38916C19.5832 7.129 20.5 6.18014 21.7529 6.03158C21.8024 6.02571 21.8508 6.01073 21.8997 6C21.9471 6 21.9945 6 22.0537 6.00804C22.0787 6.01775 22.0918 6.02038 22.1049 6.02094C23.1844 6.06719 24.1202 6.80085 24.41 7.83795C24.4638 8.03053 24.4861 8.23186 24.5241 8.4357C24.6431 8.44009 24.7537 8.4857 24.8418 8.5809C24.9434 8.69062 24.9867 8.82376 25 8.97794C24.9992 9.25355 25.0002 9.51992 24.9992 9.79416C24.9603 10.1041 24.7814 10.3123 24.467 10.3162C24.4579 10.3499 24.4488 10.3847 24.439 10.4192C24.3024 10.9022 24.0242 11.2803 23.5949 11.5446C23.3375 11.703 23.0486 11.7609 22.7543 11.8025C22.707 11.8092 22.6605 11.8349 22.6182 11.8597C22.5435 11.9034 22.4724 11.9532 22.3906 11.999C22.1807 11.9984 21.9801 11.9992 21.7795 12Z"/>
</mask>
<path d="M21.7795 12C21.6128 11.9504 21.5318 11.8586 21.5314 11.7186C21.531 11.5909 21.6156 11.4763 21.7394 11.4474C21.7872 11.4362 21.8385 11.4384 21.8882 11.438C22.0415 11.437 22.1948 11.4398 22.348 11.4368C22.448 11.4349 22.5287 11.4679 22.5961 11.5417C22.6128 11.56 22.6454 11.5759 22.6692 11.574C23.2552 11.5275 23.7332 11.2924 24.0355 10.7704C24.1162 10.6311 24.1707 10.4769 24.2445 10.3136C24.0654 10.2732 24.0569 10.1526 24.0581 10.0178C24.0622 9.58277 24.06 9.14772 24.0602 8.71268C24.0603 8.51714 24.0833 8.48425 24.2616 8.42503C24.2548 7.38212 23.3677 6.29633 22.0715 6.25634C20.7434 6.21536 19.757 7.29088 19.7359 8.42174C19.9229 8.49235 19.9391 8.51596 19.9392 8.71871C19.9394 9.16039 19.9397 9.60206 19.94 10.0437C19.9401 10.2508 19.8863 10.3057 19.6826 10.3064C19.6493 10.3065 19.616 10.3066 19.5827 10.3066C19.2267 10.3064 19.0513 10.1539 19.0019 9.785C19.0005 9.49485 18.9994 9.22185 19.0003 8.94108C19.0576 8.61913 19.1781 8.4941 19.4918 8.42713C19.4935 8.41501 19.4961 8.40214 19.497 8.38916C19.5832 7.129 20.5 6.18014 21.7529 6.03158C21.8024 6.02571 21.8508 6.01073 21.8997 6C21.9471 6 21.9945 6 22.0537 6.00804C22.0787 6.01775 22.0918 6.02038 22.1049 6.02094C23.1844 6.06719 24.1202 6.80085 24.41 7.83795C24.4638 8.03053 24.4861 8.23186 24.5241 8.4357C24.6431 8.44009 24.7537 8.4857 24.8418 8.5809C24.9434 8.69062 24.9867 8.82376 25 8.97794C24.9992 9.25355 25.0002 9.51992 24.9992 9.79416C24.9603 10.1041 24.7814 10.3123 24.467 10.3162C24.4579 10.3499 24.4488 10.3847 24.439 10.4192C24.3024 10.9022 24.0242 11.2803 23.5949 11.5446C23.3375 11.703 23.0486 11.7609 22.7543 11.8025C22.707 11.8092 22.6605 11.8349 22.6182 11.8597C22.5435 11.9034 22.4724 11.9532 22.3906 11.999C22.1807 11.9984 21.9801 11.9992 21.7795 12Z" fill="#18191B"/>
<path d="M21.7795 12L21.4943 12.9585L21.6359 13.0006L21.7835 13L21.7795 12ZM21.5314 11.7186L22.5314 11.7157L22.5314 11.7155L21.5314 11.7186ZM21.7394 11.4474L21.9668 12.4212L21.9676 12.421L21.7394 11.4474ZM21.8882 11.438L21.8817 10.438L21.8802 10.438L21.8882 11.438ZM22.348 11.4368L22.329 10.437L22.3284 10.437L22.348 11.4368ZM22.5961 11.5417L23.3348 10.8676L23.3345 10.8673L22.5961 11.5417ZM22.6692 11.574L22.5901 10.5771L22.5896 10.5772L22.6692 11.574ZM24.0355 10.7704L23.1702 10.2691L23.1702 10.2693L24.0355 10.7704ZM24.2445 10.3136L25.1558 10.7254L25.6608 9.60795L24.4646 9.33811L24.2445 10.3136ZM24.0581 10.0178L23.0582 10.0084L23.0582 10.0089L24.0581 10.0178ZM24.0602 8.71268L23.0602 8.71217L23.0602 8.71222L24.0602 8.71268ZM24.2616 8.42503L24.5768 9.37405L25.2663 9.14504L25.2616 8.41851L24.2616 8.42503ZM22.0715 6.25634L22.0407 7.25586L22.0407 7.25586L22.0715 6.25634ZM19.7359 8.42174L18.7361 8.40308L18.7229 9.10816L19.3827 9.35727L19.7359 8.42174ZM19.9392 8.71871L20.9392 8.71826L20.9392 8.71822L19.9392 8.71871ZM19.94 10.0437L20.94 10.0432L20.94 10.043L19.94 10.0437ZM19.6826 10.3064L19.6856 11.3064L19.6861 11.3064L19.6826 10.3064ZM19.5827 10.3066L19.5822 11.3066H19.5827V10.3066ZM19.0019 9.785L18.0019 9.78982L18.0022 9.85406L18.0108 9.91773L19.0019 9.785ZM19.0003 8.94108L18.0158 8.76586L18.0006 8.85119L18.0003 8.93787L19.0003 8.94108ZM19.4918 8.42713L19.7006 9.40509L20.3849 9.259L20.4821 8.56603L19.4918 8.42713ZM19.497 8.38916L20.4946 8.45833L20.4947 8.4574L19.497 8.38916ZM21.7529 6.03158L21.8707 7.02462L21.8707 7.02462L21.7529 6.03158ZM21.8997 6V5H21.7913L21.6854 5.02324L21.8997 6ZM22.0537 6.00804L22.4158 5.07588L22.3055 5.03306L22.1883 5.01714L22.0537 6.00804ZM22.1049 6.02094L22.1477 5.02186L22.1476 5.02185L22.1049 6.02094ZM24.41 7.83795L25.3731 7.56889L25.3731 7.56883L24.41 7.83795ZM24.5241 8.4357L23.5411 8.61896L23.6877 9.40552L24.4873 9.43502L24.5241 8.4357ZM24.8418 8.5809L24.1079 9.26011L24.1081 9.26033L24.8418 8.5809ZM25 8.97794L26 8.98084L26.0002 8.93634L25.9963 8.892L25 8.97794ZM24.9992 9.79416L25.9914 9.91869L25.999 9.85848L25.9992 9.79781L24.9992 9.79416ZM24.467 10.3162L24.4546 9.31628L23.6987 9.32565L23.5016 10.0555L24.467 10.3162ZM24.439 10.4192L23.4771 10.146L23.4768 10.1471L24.439 10.4192ZM23.5949 11.5446L24.119 12.3963L24.1192 12.3962L23.5949 11.5446ZM22.7543 11.8025L22.6144 10.8123L22.6141 10.8124L22.7543 11.8025ZM22.6182 11.8597L23.1232 12.7229L23.124 12.7224L22.6182 11.8597ZM22.3906 11.999L22.3878 12.999L22.6502 12.9997L22.8792 12.8715L22.3906 11.999ZM21.7795 12L22.0647 11.0415C22.0908 11.0493 22.2193 11.0914 22.3431 11.2318C22.484 11.3915 22.531 11.5779 22.5314 11.7157L21.5314 11.7186L20.5314 11.7215C20.5322 11.9993 20.6199 12.3016 20.8431 12.5546C21.0492 12.7883 21.3016 12.9011 21.4943 12.9585L21.7795 12ZM21.5314 11.7186L22.5314 11.7155C22.5324 12.0186 22.3299 12.3364 21.9668 12.4212L21.7394 11.4474L21.5121 10.4736C20.9014 10.6162 20.5297 11.1632 20.5314 11.7217L21.5314 11.7186ZM21.7394 11.4474L21.9676 12.421C21.934 12.4289 21.9063 12.4329 21.8869 12.4351C21.8677 12.4372 21.8541 12.4378 21.8491 12.438C21.8446 12.4382 21.8438 12.4381 21.8527 12.4381C21.8577 12.4381 21.8612 12.4381 21.8695 12.4381C21.8765 12.4381 21.886 12.4381 21.8963 12.438L21.8882 11.438L21.8802 10.438C21.8709 10.4381 21.8715 10.438 21.8487 10.4381C21.8326 10.4381 21.8067 10.4382 21.7772 10.4393C21.7199 10.4414 21.6235 10.4475 21.5113 10.4738L21.7394 11.4474ZM21.8882 11.438L21.8948 12.438C22.0065 12.4372 22.2142 12.4396 22.3676 12.4366L22.348 11.4368L22.3284 10.437C22.1754 10.44 22.0766 10.4367 21.8817 10.438L21.8882 11.438ZM22.348 11.4368L22.367 12.4366C22.2995 12.4379 22.2034 12.4274 22.0975 12.383C21.9905 12.3381 21.9108 12.2742 21.8577 12.2161L22.5961 11.5417L23.3345 10.8673C23.0647 10.5719 22.7037 10.4299 22.329 10.437L22.348 11.4368ZM22.5961 11.5417L21.8575 12.2158C21.974 12.3435 22.1049 12.425 22.2151 12.4753C22.3164 12.5215 22.5069 12.5901 22.7488 12.5708L22.6692 11.574L22.5896 10.5772C22.8078 10.5598 22.97 10.6214 23.0449 10.6556C23.1287 10.6938 23.2349 10.7582 23.3348 10.8676L22.5961 11.5417ZM22.6692 11.574L22.7483 12.5709C23.584 12.5046 24.3982 12.1395 24.9009 11.2715L24.0355 10.7704L23.1702 10.2693C23.0682 10.4453 22.9265 10.5504 22.5901 10.5771L22.6692 11.574ZM24.0355 10.7704L24.9008 11.2717C25.0132 11.0777 25.1303 10.7819 25.1558 10.7254L24.2445 10.3136L23.3333 9.90177C23.2112 10.1719 23.2193 10.1845 23.1702 10.2691L24.0355 10.7704ZM24.2445 10.3136L24.4646 9.33811C24.5207 9.35078 24.6222 9.38288 24.7321 9.46368C24.849 9.5496 24.9351 9.66118 24.9894 9.77718C25.0389 9.88283 25.0516 9.96997 25.0555 10.005C25.0591 10.0375 25.0578 10.0555 25.0581 10.0267L24.0581 10.0178L23.0582 10.0089C23.0578 10.0514 23.0439 10.3385 23.178 10.625C23.3595 11.0127 23.699 11.2157 24.0245 11.2891L24.2445 10.3136ZM24.0581 10.0178L25.0581 10.0272C25.0622 9.58626 25.06 9.14078 25.0602 8.71314L24.0602 8.71268L23.0602 8.71222C23.06 9.15466 23.0622 9.57928 23.0582 10.0084L24.0581 10.0178ZM24.0602 8.71268L25.0602 8.71319C25.0602 8.67146 25.0624 8.69865 25.0545 8.74897C25.0449 8.81039 25.0147 8.94635 24.9133 9.09124C24.8101 9.23871 24.6885 9.31637 24.6241 9.35058C24.5726 9.37792 24.54 9.3863 24.5768 9.37405L24.2616 8.42503L23.9464 7.47601C23.9016 7.49091 23.5201 7.59393 23.2749 7.94423C23.0382 8.28232 23.0602 8.66733 23.0602 8.71217L24.0602 8.71268ZM24.2616 8.42503L25.2616 8.41851C25.2515 6.86741 23.9651 5.31428 22.1024 5.25682L22.0715 6.25634L22.0407 7.25586C22.7703 7.27838 23.2582 7.89683 23.2616 8.43155L24.2616 8.42503ZM22.0715 6.25634L22.1024 5.25682C20.1941 5.19793 18.7672 6.73893 18.7361 8.40308L19.7359 8.42174L20.7358 8.44039C20.7469 7.84283 21.2927 7.23279 22.0407 7.25586L22.0715 6.25634ZM19.7359 8.42174L19.3827 9.35727C19.4305 9.37533 19.4058 9.36828 19.3644 9.34548C19.3106 9.31587 19.1871 9.23838 19.0825 9.08562C18.9787 8.93389 18.9514 8.79247 18.9434 8.73531C18.9371 8.6908 18.9392 8.66732 18.9392 8.7192L19.9392 8.71871L20.9392 8.71822C20.9392 8.66872 20.9392 8.56627 20.9241 8.4581C20.9072 8.33728 20.8641 8.14753 20.7328 7.95572C20.6008 7.76289 20.4382 7.65359 20.3288 7.59336C20.2317 7.53993 20.1348 7.50345 20.0892 7.48621L19.7359 8.42174ZM19.9392 8.71871L18.9392 8.71916C18.9394 9.16098 18.9397 9.60276 18.94 10.0444L19.94 10.0437L20.94 10.043C20.9397 9.60136 20.9394 9.1598 20.9392 8.71826L19.9392 8.71871ZM19.94 10.0437L18.94 10.0442C18.94 10.0633 18.9376 10.0158 18.956 9.93905C18.9769 9.85194 19.0318 9.69714 19.1735 9.55258C19.3162 9.40694 19.4723 9.34769 19.5647 9.32444C19.6451 9.30418 19.6962 9.30635 19.6792 9.30641L19.6826 10.3064L19.6861 11.3064C19.7951 11.306 20.2501 11.3115 20.602 10.9523C20.9485 10.5987 20.9401 10.1494 20.94 10.0432L19.94 10.0437ZM19.6826 10.3064L19.6796 9.3064C19.6461 9.30651 19.6143 9.3066 19.5827 9.3066V10.3066V11.3066C19.6178 11.3066 19.6526 11.3065 19.6856 11.3064L19.6826 10.3064ZM19.5827 10.3066L19.5833 9.3066C19.5345 9.30657 19.6831 9.29522 19.8428 9.43759C19.9986 9.5765 20.0017 9.71693 19.9931 9.65227L19.0019 9.785L18.0108 9.91773C18.0515 10.222 18.1671 10.6231 18.5119 10.9305C18.8607 11.2414 19.2749 11.3064 19.5822 11.3066L19.5827 10.3066ZM19.0019 9.785L20.0019 9.78017C20.0005 9.49013 19.9994 9.22066 20.0003 8.94429L19.0003 8.94108L18.0003 8.93787C17.9994 9.22304 18.0005 9.49957 18.0019 9.78982L19.0019 9.785ZM19.0003 8.94108L19.9849 9.1163C19.9992 9.03557 19.9947 9.15217 19.8721 9.28018C19.7476 9.4102 19.6274 9.42071 19.7006 9.40509L19.4918 8.42713L19.283 7.44917C19.0425 7.50051 18.7053 7.60703 18.4277 7.89679C18.1521 8.18455 18.0587 8.52464 18.0158 8.76586L19.0003 8.94108ZM19.4918 8.42713L20.4821 8.56603C20.4812 8.57279 20.4804 8.57739 20.4807 8.57548C20.4808 8.57513 20.4809 8.57473 20.481 8.57388C20.4811 8.57315 20.4813 8.572 20.4815 8.57077C20.4819 8.56832 20.4825 8.56452 20.4832 8.5601C20.4856 8.54426 20.4913 8.50595 20.4946 8.45833L19.497 8.38916L18.4994 8.31999C18.5007 8.30172 18.5023 8.28683 18.5036 8.2766C18.5048 8.26651 18.5059 8.25918 18.5063 8.25684C18.5065 8.25559 18.5066 8.25496 18.5065 8.25565C18.5064 8.256 18.5064 8.25641 18.5062 8.25726C18.5061 8.25797 18.5059 8.25913 18.5057 8.26034C18.505 8.26465 18.5033 8.27541 18.5015 8.28823L19.4918 8.42713ZM19.497 8.38916L20.4947 8.4574C20.5476 7.68425 21.088 7.11743 21.8707 7.02462L21.7529 6.03158L21.6352 5.03854C19.9121 5.24285 18.6189 6.57375 18.4994 8.32092L19.497 8.38916ZM21.7529 6.03158L21.8707 7.02462C21.9531 7.01485 22.0218 6.99909 22.0586 6.99033C22.0757 6.98625 22.0962 6.98111 22.1025 6.97956C22.1127 6.97705 22.1148 6.9766 22.1141 6.97676L21.8997 6L21.6854 5.02324C21.6602 5.02876 21.6379 5.03421 21.6237 5.03771C21.62 5.03863 21.6164 5.03951 21.6134 5.04027C21.6102 5.04106 21.6076 5.0417 21.6051 5.04232C21.6001 5.04357 21.5969 5.04434 21.5945 5.0449C21.5896 5.04607 21.5919 5.04546 21.598 5.04426C21.6044 5.04301 21.6174 5.04065 21.6352 5.03854L21.7529 6.03158ZM21.8997 6V7C21.9059 7 21.9105 7 21.9149 7.00001C21.9191 7.00002 21.9224 7.00004 21.925 7.00007C21.9303 7.00013 21.9323 7.0002 21.9324 7.00021C21.9324 7.00021 21.932 7.00019 21.9312 7.00014C21.9304 7.0001 21.9293 7.00002 21.928 6.99991C21.9252 6.99967 21.9221 6.99935 21.9192 6.99894L22.0537 6.00804L22.1883 5.01714C22.0554 4.99909 21.9477 5 21.8997 5V6ZM22.0537 6.00804L21.6917 6.9402C21.777 6.97332 21.9025 7.0132 22.0622 7.02003L22.1049 6.02094L22.1476 5.02185C22.2019 5.02417 22.2599 5.0317 22.3186 5.04587C22.3688 5.05801 22.4042 5.0714 22.4158 5.07588L22.0537 6.00804ZM22.1049 6.02094L22.0621 7.02002C22.7155 7.04801 23.2753 7.4928 23.4469 8.10707L24.41 7.83795L25.3731 7.56883C24.9652 6.1089 23.6534 5.08636 22.1477 5.02186L22.1049 6.02094ZM24.41 7.83795L23.4469 8.10701C23.4858 8.24637 23.4842 8.31394 23.5411 8.61896L24.5241 8.4357L25.5072 8.25244C25.4881 8.14978 25.4418 7.81469 25.3731 7.56889L24.41 7.83795ZM24.5241 8.4357L24.4873 9.43502C24.4295 9.43289 24.36 9.41997 24.2876 9.3877C24.2142 9.35498 24.1534 9.3093 24.1079 9.26011L24.8418 8.5809L25.5758 7.90169C25.2961 7.59947 24.929 7.44996 24.561 7.43638L24.5241 8.4357ZM24.8418 8.5809L24.1081 9.26033C24.0663 9.21522 24.0368 9.16405 24.0193 9.11801C24.0035 9.0765 24.0028 9.05314 24.0037 9.06388L25 8.97794L25.9963 8.892C25.9709 8.59697 25.8753 8.22517 25.5756 7.90147L24.8418 8.5809ZM25 8.97794L24 8.97504C23.9992 9.27648 24.0003 9.49967 23.9992 9.79051L24.9992 9.79416L25.9992 9.79781C26.0002 9.54017 25.9993 9.23062 26 8.98084L25 8.97794ZM24.9992 9.79416L24.007 9.66963C24.0072 9.66803 24.01 9.64618 24.0252 9.61098C24.0407 9.57477 24.0697 9.52396 24.12 9.47229C24.2372 9.35196 24.3777 9.31723 24.4546 9.31628L24.467 10.3162L24.4794 11.3161C24.8707 11.3113 25.2579 11.1705 25.5529 10.8676C25.8326 10.5803 25.9528 10.2266 25.9914 9.91869L24.9992 9.79416ZM24.467 10.3162L23.5016 10.0555C23.4897 10.0996 23.4845 10.1198 23.4771 10.146L24.439 10.4192L25.401 10.6924C25.4131 10.6496 25.4261 10.6002 25.4324 10.5769L24.467 10.3162ZM24.439 10.4192L23.4768 10.1471C23.406 10.3972 23.2792 10.5647 23.0707 10.693L23.5949 11.5446L24.1192 12.3962C24.7693 11.9959 25.1988 11.4072 25.4013 10.6913L24.439 10.4192ZM23.5949 11.5446L23.0708 10.6929C23.0007 10.7361 22.8888 10.7736 22.6144 10.8123L22.7543 11.8025L22.8943 12.7927C23.2085 12.7482 23.6744 12.6699 24.119 12.3963L23.5949 11.5446ZM22.7543 11.8025L22.6141 10.8124C22.344 10.8506 22.1365 10.9829 22.1125 10.997L22.6182 11.8597L23.124 12.7224C23.1418 12.7119 23.1258 12.7221 23.0978 12.7349C23.0694 12.7477 22.9975 12.778 22.8946 12.7926L22.7543 11.8025ZM22.6182 11.8597L22.1133 10.9966C22.0569 11.0296 22.0018 11.0649 21.9722 11.0836C21.9363 11.1063 21.9176 11.1178 21.9021 11.1265L22.3906 11.999L22.8792 12.8715C22.9454 12.8344 23.0032 12.7981 23.042 12.7735C23.0871 12.7449 23.1049 12.7335 23.1232 12.7228L22.6182 11.8597ZM22.3906 11.999L22.3935 10.999C22.1796 10.9984 21.9757 10.9992 21.7755 11L21.7795 12L21.7835 13C21.9846 12.9992 22.1818 12.9984 22.3878 12.999L22.3906 11.999Z" fill="#18191B" mask="url(#path-5-inside-1_770_234)"/>
</g>
<defs>
<clipPath id="clip0_770_234">
<rect width="40" height="40" fill="white"/>
</clipPath>
</defs>
</svg>
