<svg width="40" height="40" viewBox="0 0 40 40" fill="none" xmlns="http://www.w3.org/2000/svg">
<g clip-path="url(#clip0_770_275)">
<path d="M30 0.75H10C4.89137 0.75 0.75 4.89137 0.75 10V30C0.75 35.1086 4.89137 39.25 10 39.25H30C35.1086 39.25 39.25 35.1086 39.25 30V10C39.25 4.89137 35.1086 0.75 30 0.75Z" fill="white"/>
<path d="M26.2988 18.1758H24.0498L26.3154 14.2559L26.749 13.5059H24.625L24.4805 13.7559L18.5811 23.9629L18.4375 24.2129L18.5811 24.4629L19.0645 25.3027L19.4971 26.0557L19.9307 25.3037L22.9854 20.0088H25.2422L19.499 29.9961C19.4753 29.9548 19.451 29.912 19.4258 29.8682C19.1212 29.3384 18.715 28.6317 18.3086 27.9248C17.4902 26.5013 16.6907 25.11 16.6904 25.1104L16.6865 25.1035L16.6465 25.0186C16.5562 24.8071 16.4996 24.5114 16.499 24.1846C16.4984 23.8193 16.5678 23.4747 16.6826 23.2344C16.6847 23.2308 16.6871 23.2267 16.6895 23.2227C16.7019 23.2014 16.7201 23.1705 16.7432 23.1309C16.7897 23.0509 16.8582 22.9338 16.9443 22.7852C17.1167 22.4876 17.3624 22.0624 17.6572 21.5527C18.247 20.533 19.0328 19.173 19.8184 17.8135C20.6038 16.4541 21.3896 15.0948 21.9785 14.0752C22.273 13.5654 22.5187 13.1402 22.6904 12.8428C22.7763 12.6941 22.8436 12.5767 22.8896 12.4971C22.9126 12.4574 22.9305 12.4268 22.9424 12.4062C22.9482 12.3961 22.9521 12.388 22.9551 12.3828C22.9582 12.3781 22.9632 12.3721 22.9688 12.3643C22.9848 12.3414 23.011 12.3061 23.0459 12.2627C23.1163 12.1752 23.2215 12.0578 23.3564 11.9414C23.6307 11.705 23.9945 11.501 24.4307 11.501L30.1357 11.5L26.2988 18.1758ZM15.6963 11.501H21.3379L20.1895 13.4883H15.7725L15.6279 13.7393L15.1426 14.5801L14.7109 15.3301H19.126L17.9609 17.3477H13.5488L13.4043 17.5977L12.8828 18.4961L11.7568 16.5381L14.1562 12.3887C14.159 12.3848 14.1622 12.3802 14.166 12.375C14.1826 12.352 14.21 12.3171 14.2461 12.2734C14.3188 12.1854 14.4272 12.0668 14.5674 11.9492C14.8513 11.7111 15.2334 11.501 15.6963 11.501ZM12.5439 11.501L10.6982 14.6943L8.86426 11.501H12.5439ZM22.9502 12.3906V12.3916V12.3926H22.9492C22.9494 12.3924 22.9496 12.3916 22.9502 12.3906Z" fill="#18191B" stroke="#18191B"/>
</g>
<defs>
<clipPath id="clip0_770_275">
<rect width="40" height="40" fill="white"/>
</clipPath>
</defs>
</svg>
