<svg width="40" height="40" viewBox="0 0 40 40" fill="none" xmlns="http://www.w3.org/2000/svg">
<g clip-path="url(#clip0_770_278)">
<path d="M39.25 9.61045V30.3897C39.25 35.2794 35.2793 39.2501 30.3896 39.2501H9.61039C4.72071 39.2501 0.75 35.2794 0.75 30.3897V9.61045C0.75 4.72077 4.72071 0.750061 9.61039 0.750061H30.3896C35.2793 0.750061 39.25 4.72077 39.25 9.61045Z" fill="white"/>
<path d="M20.0078 9.5C23.9507 9.5 27.3851 11.6719 29.1826 14.8848H25.3916C24.0391 13.4626 22.128 12.5732 20.0078 12.5732C17.8896 12.5732 15.9791 13.463 14.625 14.8848H10.833C12.6321 11.6717 16.0669 9.5 20.0078 9.5Z" fill="#18191B" stroke="#18191B"/>
<path d="M14.624 25.1325C15.9779 26.5545 17.8873 27.444 20.0078 27.444C22.128 27.444 24.0391 26.5547 25.3916 25.1325H29.1826C27.3849 28.3454 23.9489 30.5173 20.0078 30.5173C16.0649 30.5173 12.6305 28.3454 10.833 25.1325H14.624Z" fill="#18191B" stroke="#18191B"/>
<path d="M26.2578 18.4709C26.3785 18.963 26.4434 19.4775 26.4434 20.008C26.4433 20.5382 26.3784 21.0522 26.2578 21.5441H9.61328C9.53924 21.0428 9.50002 20.5297 9.5 20.008C9.5 19.4861 9.5392 18.9724 9.61328 18.4709H26.2578Z" fill="#18191B" stroke="#18191B"/>
</g>
<defs>
<clipPath id="clip0_770_278">
<rect width="40" height="40" fill="white"/>
</clipPath>
</defs>
</svg>
