<svg width="40" height="40" viewBox="0 0 40 40" fill="none" xmlns="http://www.w3.org/2000/svg">
<g clip-path="url(#clip0_770_283)">
<path d="M30 0.75H10C4.89137 0.75 0.75 4.89137 0.75 10V30C0.75 35.1086 4.89137 39.25 10 39.25H30C35.1086 39.25 39.25 35.1086 39.25 30V10C39.25 4.89137 35.1086 0.75 30 0.75Z" fill="white"/>
<mask id="path-2-inside-1_770_283" fill="white">
<path d="M16.0491 21.544C15.9596 21.5384 15.8322 21.5325 15.6394 21.5325C15.5257 21.5325 15.4018 21.5325 15.264 21.5349C15.1871 21.5384 15.1033 21.5384 15.0219 21.5384C14.7051 21.5554 14.3676 21.574 14.006 21.5889C13.4402 21.6119 12.8846 21.6268 12.3543 21.6268C9.04056 21.6268 7.28785 21.1411 6.71624 20.9472L6 20.6454V21.4212L6.20202 21.5211C6.27318 21.5534 8.03623 22.3429 12.3543 22.3429C12.8961 22.3429 13.4608 22.3315 14.0347 22.305C14.8175 22.273 15.4925 22.2316 16.0859 22.179C16.11 21.8493 16.0997 21.6269 16.0491 21.544Z"/>
</mask>
<path d="M16.0491 21.544C15.9596 21.5384 15.8322 21.5325 15.6394 21.5325C15.5257 21.5325 15.4018 21.5325 15.264 21.5349C15.1871 21.5384 15.1033 21.5384 15.0219 21.5384C14.7051 21.5554 14.3676 21.574 14.006 21.5889C13.4402 21.6119 12.8846 21.6268 12.3543 21.6268C9.04056 21.6268 7.28785 21.1411 6.71624 20.9472L6 20.6454V21.4212L6.20202 21.5211C6.27318 21.5534 8.03623 22.3429 12.3543 22.3429C12.8961 22.3429 13.4608 22.3315 14.0347 22.305C14.8175 22.273 15.4925 22.2316 16.0859 22.179C16.11 21.8493 16.0997 21.6269 16.0491 21.544Z" fill="#18191B"/>
<path d="M16.0491 21.544L16.9027 21.023L16.6313 20.5785L16.1115 20.5459L16.0491 21.544ZM15.264 21.5349L15.2466 20.535L15.2326 20.5353L15.2185 20.5359L15.264 21.5349ZM15.0219 21.5384V20.5384H14.9951L14.9683 20.5398L15.0219 21.5384ZM14.006 21.5889L14.0466 22.5881L14.0472 22.588L14.006 21.5889ZM6.71624 20.9472L6.32793 21.8687L6.36101 21.8827L6.395 21.8942L6.71624 20.9472ZM6 20.6454L6.38831 19.7239L5 19.1389V20.6454H6ZM6 21.4212H5V22.0423L5.55673 22.3176L6 21.4212ZM6.20202 21.5211L5.75875 22.4175L5.77361 22.4248L5.7887 22.4317L6.20202 21.5211ZM14.0347 22.305L13.9939 21.3058L13.9886 21.3061L14.0347 22.305ZM16.0859 22.179L16.1742 23.1751L17.0212 23.1L17.0832 22.2519L16.0859 22.179ZM16.0491 21.544L16.1115 20.5459C16.0028 20.5391 15.8545 20.5325 15.6394 20.5325V21.5325V22.5325C15.8099 22.5325 15.9164 22.5376 15.9867 22.542L16.0491 21.544ZM15.6394 21.5325V20.5325C15.5263 20.5325 15.3942 20.5325 15.2466 20.535L15.264 21.5349L15.2814 22.5347C15.4094 22.5325 15.5251 22.5325 15.6394 22.5325V21.5325ZM15.264 21.5349L15.2185 20.5359C15.1686 20.5382 15.1084 20.5384 15.0219 20.5384V21.5384V22.5384C15.0982 22.5384 15.2056 22.5386 15.3095 22.5339L15.264 21.5349ZM15.0219 21.5384L14.9683 20.5398C14.6494 20.5569 14.3189 20.5751 13.9648 20.5897L14.006 21.5889L14.0472 22.588C14.4163 22.5728 14.7608 22.5538 15.0755 22.537L15.0219 21.5384ZM14.006 21.5889L13.9654 20.5897C13.4079 20.6124 12.8667 20.6268 12.3543 20.6268V21.6268V22.6268C12.9025 22.6268 13.4725 22.6114 14.0466 22.5881L14.006 21.5889ZM12.3543 21.6268V20.6268C9.13996 20.6268 7.49669 20.156 7.03748 20.0002L6.71624 20.9472L6.395 21.8942C7.07901 22.1262 8.94116 22.6268 12.3543 22.6268V21.6268ZM6.71624 20.9472L7.10454 20.0257L6.38831 19.7239L6 20.6454L5.61169 21.5669L6.32793 21.8687L6.71624 20.9472ZM6 20.6454H5V21.4212H6H7V20.6454H6ZM6 21.4212L5.55673 22.3176L5.75875 22.4175L6.20202 21.5211L6.64529 20.6247L6.44327 20.5248L6 21.4212ZM6.20202 21.5211L5.7887 22.4317C6.00444 22.5296 7.91081 23.3429 12.3543 23.3429V22.3429V21.3429C8.16165 21.3429 6.54192 20.5772 6.61534 20.6105L6.20202 21.5211ZM12.3543 22.3429V23.3429C12.91 23.3429 13.4901 23.3312 14.0808 23.3039L14.0347 22.305L13.9886 21.3061C13.4315 21.3318 12.8822 21.3429 12.3543 21.3429V22.3429ZM14.0347 22.305L14.0755 23.3042C14.8695 23.2717 15.5609 23.2294 16.1742 23.1751L16.0859 22.179L15.9976 21.1829C15.4241 21.2337 14.7655 21.2743 13.9939 21.3058L14.0347 22.305ZM16.0859 22.179L17.0832 22.2519C17.0968 22.0665 17.1032 21.8813 17.094 21.7141C17.088 21.6056 17.0712 21.2991 16.9027 21.023L16.0491 21.544L15.1955 22.065C15.1555 21.9994 15.1332 21.9432 15.1213 21.9088C15.1089 21.8732 15.1027 21.8461 15.0999 21.8322C15.0946 21.8064 15.0957 21.8003 15.097 21.8238C15.0982 21.8447 15.0989 21.8789 15.0977 21.9285C15.0965 21.9775 15.0936 22.0365 15.0886 22.1061L16.0859 22.179Z" fill="#18191B" mask="url(#path-2-inside-1_770_283)"/>
<mask id="path-4-inside-2_770_283" fill="white">
<path d="M20.4086 19.7189C19.8817 20.316 19.4226 20.7268 18.5721 21.0151C18.5962 21.2651 18.5847 21.5234 18.5571 21.7702C19.6522 21.4535 20.2674 20.9622 20.9457 20.1955C21.01 20.1162 21.0881 20.0222 21.1684 19.9187C20.9331 19.8282 20.7013 19.7374 20.4694 19.6434C20.4499 19.6663 20.4269 19.696 20.4086 19.7189Z"/>
</mask>
<path d="M20.4086 19.7189C19.8817 20.316 19.4226 20.7268 18.5721 21.0151C18.5962 21.2651 18.5847 21.5234 18.5571 21.7702C19.6522 21.4535 20.2674 20.9622 20.9457 20.1955C21.01 20.1162 21.0881 20.0222 21.1684 19.9187C20.9331 19.8282 20.7013 19.7374 20.4694 19.6434C20.4499 19.6663 20.4269 19.696 20.4086 19.7189Z" fill="#18191B"/>
<path d="M20.4086 19.7189L21.1584 20.3806L21.1746 20.3623L21.1898 20.3432L20.4086 19.7189ZM18.5721 21.0151L18.2511 20.068L17.5007 20.3224L17.5767 21.1111L18.5721 21.0151ZM18.5571 21.7702L17.5633 21.6591L17.397 23.1467L18.8349 22.7308L18.5571 21.7702ZM20.9457 20.1955L21.6947 20.8581L21.7089 20.842L21.7225 20.8253L20.9457 20.1955ZM21.1684 19.9187L21.9585 20.5317L22.7834 19.4684L21.5274 18.9854L21.1684 19.9187ZM20.4694 19.6434L20.8451 18.7166L20.1761 18.4455L19.7081 18.9951L20.4694 19.6434ZM20.4086 19.7189L19.6588 19.0572C19.1953 19.5825 18.8748 19.8566 18.2511 20.068L18.5721 21.0151L18.8932 21.9622C19.9705 21.597 20.5682 21.0495 21.1584 20.3806L20.4086 19.7189ZM18.5721 21.0151L17.5767 21.1111C17.592 21.2697 17.5862 21.4542 17.5633 21.6591L18.5571 21.7702L19.5509 21.8813C19.5832 21.5926 19.6004 21.2605 19.5675 20.9191L18.5721 21.0151ZM18.5571 21.7702L18.8349 22.7308C20.1601 22.3476 20.9285 21.7242 21.6947 20.8581L20.9457 20.1955L20.1968 19.5329C19.6063 20.2003 19.1444 20.5594 18.2793 20.8096L18.5571 21.7702ZM20.9457 20.1955L21.7225 20.8253C21.7774 20.7576 21.8694 20.6465 21.9585 20.5317L21.1684 19.9187L20.3783 19.3057C20.3068 19.3979 20.2427 19.4748 20.169 19.5657L20.9457 20.1955ZM21.1684 19.9187L21.5274 18.9854C21.2958 18.8963 21.0698 18.8077 20.8451 18.7166L20.4694 19.6434L20.0938 20.5702C20.3328 20.6671 20.5705 20.7601 20.8094 20.852L21.1684 19.9187ZM20.4694 19.6434L19.7081 18.9951C19.6752 19.0337 19.6301 19.0913 19.6274 19.0946L20.4086 19.7189L21.1898 20.3432C21.1961 20.3353 21.2025 20.3273 21.2073 20.3212C21.2127 20.3144 21.2167 20.3092 21.2208 20.3042C21.2295 20.2932 21.232 20.2904 21.2308 20.2917L20.4694 19.6434Z" fill="#18191B" mask="url(#path-4-inside-2_770_283)"/>
<mask id="path-6-inside-3_770_283" fill="white">
<path d="M32.1764 21.1596H32.1776L32.1649 21.1411L26.3051 12L26.0583 12.9056C25.8794 13.4601 25.6108 13.6552 25.1229 14.0052C24.7338 14.284 24.254 14.6284 23.6847 15.2678C23.1073 15.9222 22.3521 17.0068 21.6852 17.9653C21.6037 18.0822 21.5211 18.2004 21.4419 18.3153C21.6531 18.4175 21.8734 18.5207 22.103 18.6229C22.1569 18.5415 22.2144 18.4587 22.2752 18.3761C22.9294 17.4302 23.6721 16.3674 24.223 15.7477C24.7395 15.1644 25.1642 14.8603 25.5409 14.5882C25.9264 14.3128 26.2696 14.0625 26.5243 13.6241L31.304 21.0183L29.8427 22.117L25.1562 18.3232L24.7545 18.8168L25.8012 19.6663V25.9196H26.4394V20.1838L29.8163 22.9227L29.8277 22.9283H29.8312H29.8336L29.8427 22.9227L32.1764 21.162H32.1776L32.1764 21.1596Z"/>
</mask>
<path d="M32.1764 21.1596H32.1776L32.1649 21.1411L26.3051 12L26.0583 12.9056C25.8794 13.4601 25.6108 13.6552 25.1229 14.0052C24.7338 14.284 24.254 14.6284 23.6847 15.2678C23.1073 15.9222 22.3521 17.0068 21.6852 17.9653C21.6037 18.0822 21.5211 18.2004 21.4419 18.3153C21.6531 18.4175 21.8734 18.5207 22.103 18.6229C22.1569 18.5415 22.2144 18.4587 22.2752 18.3761C22.9294 17.4302 23.6721 16.3674 24.223 15.7477C24.7395 15.1644 25.1642 14.8603 25.5409 14.5882C25.9264 14.3128 26.2696 14.0625 26.5243 13.6241L31.304 21.0183L29.8427 22.117L25.1562 18.3232L24.7545 18.8168L25.8012 19.6663V25.9196H26.4394V20.1838L29.8163 22.9227L29.8277 22.9283H29.8312H29.8336L29.8427 22.9227L32.1764 21.162H32.1776L32.1764 21.1596Z" fill="#18191B"/>
<path d="M32.1764 21.1596V20.1596H30.5601L31.2815 21.606L32.1764 21.1596ZM32.1776 21.1596V22.1596H34.077L33.002 20.5937L32.1776 21.1596ZM32.1649 21.1411L31.323 21.6808L31.3315 21.694L31.3405 21.707L32.1649 21.1411ZM26.3051 12L27.147 11.4603L25.9322 9.56526L25.3403 11.7371L26.3051 12ZM26.0583 12.9056L27.01 13.2126L27.0171 13.1907L27.0231 13.1685L26.0583 12.9056ZM25.1229 14.0052L25.7053 14.8181L25.7058 14.8178L25.1229 14.0052ZM23.6847 15.2678L22.9378 14.6028L22.9348 14.6062L23.6847 15.2678ZM21.6852 17.9653L22.5055 18.5372L22.5061 18.5364L21.6852 17.9653ZM21.4419 18.3153L20.6185 17.7478L19.9569 18.7076L21.0063 19.2154L21.4419 18.3153ZM22.103 18.6229L21.6963 19.5365L22.4695 19.8806L22.9368 19.175L22.103 18.6229ZM22.2752 18.3761L23.0805 18.9689L23.0893 18.957L23.0977 18.9449L22.2752 18.3761ZM24.223 15.7477L24.9704 16.4121L24.9717 16.4106L24.223 15.7477ZM25.5409 14.5882L24.9596 13.7745L24.9553 13.7776L25.5409 14.5882ZM26.5243 13.6241L27.3641 13.0812L26.4788 11.7117L25.6596 13.1218L26.5243 13.6241ZM31.304 21.0183L31.9049 21.8176L32.6495 21.2578L32.1438 20.4754L31.304 21.0183ZM29.8427 22.117L29.2135 22.8942L29.82 23.3852L30.4436 22.9163L29.8427 22.117ZM25.1562 18.3232L25.7854 17.546L25.0102 16.9184L24.3806 17.692L25.1562 18.3232ZM24.7545 18.8168L23.9789 18.1856L23.3468 18.9622L24.1243 19.5933L24.7545 18.8168ZM25.8012 19.6663H26.8012V19.19L26.4314 18.8898L25.8012 19.6663ZM25.8012 25.9196H24.8012V26.9196H25.8012V25.9196ZM26.4394 25.9196V26.9196H27.4394V25.9196H26.4394ZM26.4394 20.1838L27.0693 19.4071L25.4394 18.0852V20.1838H26.4394ZM29.8163 22.9227L29.1864 23.6994L29.2741 23.7705L29.3754 23.8203L29.8163 22.9227ZM29.8277 22.9283L29.3868 23.8259L29.5953 23.9283H29.8277V22.9283ZM29.8336 22.9283V23.9283H30.1166L30.3577 23.78L29.8336 22.9283ZM29.8427 22.9227L30.3668 23.7744L30.4071 23.7495L30.445 23.721L29.8427 22.9227ZM32.1764 21.162V20.162H31.8415L31.5741 20.3637L32.1764 21.162ZM32.1776 21.162V22.162H33.7939L33.0724 20.7156L32.1776 21.162ZM32.1764 21.1596V22.1596H32.1776V21.1596V20.1596H32.1764V21.1596ZM32.1776 21.1596L33.002 20.5937L32.9893 20.5752L32.1649 21.1411L31.3405 21.707L31.3532 21.7255L32.1776 21.1596ZM32.1649 21.1411L33.0068 20.6014L27.147 11.4603L26.3051 12L25.4632 12.5397L31.323 21.6808L32.1649 21.1411ZM26.3051 12L25.3403 11.7371L25.0935 12.6427L26.0583 12.9056L27.0231 13.1685L27.2699 12.2629L26.3051 12ZM26.0583 12.9056L25.1066 12.5986C25.0566 12.7536 25.0136 12.8087 24.9742 12.8511C24.905 12.9255 24.8049 13.0026 24.54 13.1927L25.1229 14.0052L25.7058 14.8178C25.9288 14.6578 26.2069 14.4624 26.4388 14.2131C26.7004 13.9318 26.8811 13.6121 27.01 13.2126L26.0583 12.9056ZM25.1229 14.0052L24.5405 13.1923C24.1356 13.4824 23.5827 13.8786 22.9378 14.6028L23.6847 15.2678L24.4316 15.9328C24.9253 15.3782 25.332 15.0856 25.7053 14.8181L25.1229 14.0052ZM23.6847 15.2678L22.9348 14.6062C22.3102 15.3141 21.5172 16.4558 20.8643 17.3942L21.6852 17.9653L22.5061 18.5364C23.187 17.5578 23.9044 16.5303 24.4345 15.9294L23.6847 15.2678ZM21.6852 17.9653L20.8649 17.3934C20.7843 17.5089 20.6997 17.6301 20.6185 17.7478L21.4419 18.3153L22.2652 18.8828C22.3425 18.7707 22.423 18.6555 22.5055 18.5372L21.6852 17.9653ZM21.4419 18.3153L21.0063 19.2154C21.2253 19.3214 21.4554 19.4292 21.6963 19.5365L22.103 18.6229L22.5097 17.7093C22.2914 17.6122 22.0809 17.5136 21.8775 17.4152L21.4419 18.3153ZM22.103 18.6229L22.9368 19.175C22.9823 19.1062 23.0304 19.0371 23.0805 18.9689L22.2752 18.3761L21.4698 17.7833C21.3984 17.8803 21.3315 17.9768 21.2692 18.0708L22.103 18.6229ZM22.2752 18.3761L23.0977 18.9449C23.7643 17.9811 24.4689 16.9762 24.9704 16.4121L24.223 15.7477L23.4756 15.0833C22.8753 15.7586 22.0945 16.8793 21.4527 17.8073L22.2752 18.3761ZM24.223 15.7477L24.9717 16.4106C25.4119 15.9135 25.7621 15.662 26.1264 15.3988L25.5409 14.5882L24.9553 13.7776C24.5663 14.0586 24.0671 14.4153 23.4743 15.0848L24.223 15.7477ZM25.5409 14.5882L26.1222 15.4019C26.5008 15.1314 27.0138 14.7722 27.389 14.1264L26.5243 13.6241L25.6596 13.1218C25.5254 13.3528 25.352 13.4942 24.9596 13.7745L25.5409 14.5882ZM26.5243 13.6241L25.6845 14.167L30.4642 21.5612L31.304 21.0183L32.1438 20.4754L27.3641 13.0812L26.5243 13.6241ZM31.304 21.0183L30.703 20.219L29.2417 21.3177L29.8427 22.117L30.4436 22.9163L31.9049 21.8176L31.304 21.0183ZM29.8427 22.117L30.4719 21.3398L25.7854 17.546L25.1562 18.3232L24.527 19.1004L29.2135 22.8942L29.8427 22.117ZM25.1562 18.3232L24.3806 17.692L23.9789 18.1856L24.7545 18.8168L25.5301 19.448L25.9318 18.9544L25.1562 18.3232ZM24.7545 18.8168L24.1243 19.5933L25.171 20.4428L25.8012 19.6663L26.4314 18.8898L25.3847 18.0403L24.7545 18.8168ZM25.8012 19.6663H24.8012V25.9196H25.8012H26.8012V19.6663H25.8012ZM25.8012 25.9196V26.9196H26.4394V25.9196V24.9196H25.8012V25.9196ZM26.4394 25.9196H27.4394V20.1838H26.4394H25.4394V25.9196H26.4394ZM26.4394 20.1838L25.8095 20.9605L29.1864 23.6994L29.8163 22.9227L30.4462 22.146L27.0693 19.4071L26.4394 20.1838ZM29.8163 22.9227L29.3754 23.8203L29.3868 23.8259L29.8277 22.9283L30.2686 22.0307L30.2572 22.0251L29.8163 22.9227ZM29.8277 22.9283V23.9283H29.8312V22.9283V21.9283H29.8277V22.9283ZM29.8312 22.9283V23.9283H29.8336V22.9283V21.9283H29.8312V22.9283ZM29.8336 22.9283L30.3577 23.78L30.3668 23.7744L29.8427 22.9227L29.3186 22.071L29.3095 22.0766L29.8336 22.9283ZM29.8427 22.9227L30.445 23.721L32.7787 21.9603L32.1764 21.162L31.5741 20.3637L29.2404 22.1244L29.8427 22.9227ZM32.1764 21.162V22.162H32.1776V21.162V20.162H32.1764V21.162ZM32.1776 21.162L33.0724 20.7156L33.0712 20.7132L32.1764 21.1596L31.2815 21.606L31.2827 21.6084L32.1776 21.162Z" fill="#18191B" mask="url(#path-6-inside-3_770_283)"/>
<path d="M17.4756 15.4599L17.4893 15.4619C17.9968 15.5475 18.2388 15.9371 18.3379 16.0761V16.0771C18.3973 16.162 18.4328 16.2801 18.4238 16.4433L18.416 16.5947L18.4932 16.7245C18.609 16.9209 18.7359 17.1294 18.8848 17.331V17.33C19.0144 17.5121 19.202 17.6779 19.3965 17.8232C19.601 17.9759 19.8443 18.129 20.1045 18.2783C20.625 18.5768 21.245 18.8768 21.834 19.1415C22.4249 19.4071 22.9941 19.6415 23.4141 19.8095C23.6242 19.8936 23.7978 19.961 23.9189 20.0078H23.9199L23.9229 20.0126L24.085 20.0722C24.0887 20.0736 24.0919 20.075 24.0947 20.0761H24.0967L24.1143 20.0829C24.1583 20.0993 24.1848 20.1321 24.1934 20.1679L24.1953 20.1767L24.1973 20.1816V20.1923C24.2007 20.2555 24.1502 20.3106 24.0898 20.3134H24.085C24.0819 20.3131 24.0778 20.313 24.0732 20.3124C24.0638 20.3113 24.0543 20.3098 24.0459 20.3085C24.0407 20.3078 24.0386 20.3074 24.0332 20.3066C24.0315 20.3063 24.0276 20.3062 24.0234 20.3056C24.0215 20.3053 24.0165 20.3043 24.0107 20.3036C24.0097 20.3035 24.0084 20.3028 24.0068 20.3027C23.984 20.2969 23.9481 20.2866 23.8975 20.2714C23.7942 20.2405 23.6479 20.1941 23.4678 20.1337C23.1084 20.0134 22.6243 19.8429 22.0957 19.6474C21.032 19.254 19.8148 18.7692 19.0654 18.3896L19.0381 18.3759H19.0361C19.0353 18.3756 19.0345 18.3745 19.0332 18.374C19.0307 18.3729 19.0269 18.3719 19.0225 18.3701C19.0131 18.3661 18.9992 18.3604 18.9824 18.3535C18.9486 18.3395 18.8999 18.319 18.8408 18.2958C18.7232 18.2498 18.5603 18.1888 18.3799 18.1298C18.2007 18.0713 17.9957 18.0124 17.7969 17.9726C17.6093 17.935 17.3789 17.904 17.1689 17.9355L17.0801 17.9492L17.001 17.9931C16.6378 18.1942 16.1698 18.4542 15.793 18.664C15.6045 18.7689 15.439 18.8615 15.3203 18.9277C15.2612 18.9606 15.2134 18.9866 15.1807 19.0048C15.1643 19.0139 15.1511 19.0215 15.1426 19.0263C15.1384 19.0286 15.135 19.03 15.1328 19.0312C15.1318 19.0317 15.1314 19.0328 15.1309 19.0331H15.1299L13.6885 19.8369L15.334 19.9687C16.4476 20.0575 16.9032 19.9413 17.6836 20.416C17.8548 20.539 17.9599 20.7531 17.9922 21.0888C18.0249 21.4299 17.9736 21.8133 17.9111 22.1494V22.1503C17.749 23.0287 17.2688 24.7685 17 25.6044L16.998 25.6093C16.998 25.6093 16.9971 25.6133 16.9941 25.622C16.9912 25.6304 16.9873 25.6415 16.9824 25.6552C16.9725 25.6829 16.9595 25.719 16.9434 25.7626C16.911 25.85 16.8676 25.9644 16.8174 26.0966C16.7171 26.3608 16.5897 26.6937 16.4639 27.0204C16.3381 27.347 16.2144 27.6668 16.1221 27.9052C16.0759 28.0243 16.0375 28.1234 16.0107 28.1923C15.9987 28.2234 15.9885 28.2484 15.9814 28.2665C15.9601 28.3063 15.9357 28.3338 15.9092 28.3515L15.9043 28.3544C15.7998 28.4258 15.6569 28.3978 15.5879 28.2939L15.582 28.2851C15.557 28.2487 15.5441 28.2063 15.5439 28.164L15.5488 28.122C15.5516 28.1105 15.5552 28.0936 15.5605 28.0712C15.5714 28.0257 15.5874 27.9589 15.6074 27.874C15.6474 27.704 15.704 27.4612 15.7705 27.1689C15.9034 26.5844 16.0767 25.7991 16.2354 24.9999C16.3935 24.2035 16.5395 23.3821 16.6172 22.7275C16.6558 22.4022 16.6792 22.1019 16.6758 21.8603C16.6741 21.7407 16.6656 21.6179 16.6426 21.5058C16.6236 21.4139 16.5777 21.2354 16.4336 21.0986L16.3096 20.9804L16.1387 20.9638L15.9043 20.9511C15.6312 20.9444 15.2509 20.9525 14.8574 20.954C14.304 20.9562 13.6591 20.9482 13.0342 20.8876C12.4024 20.8264 11.8268 20.7148 11.3984 20.5283C10.9691 20.3413 10.7734 20.1195 10.7188 19.8788L10.7178 19.8759C10.7028 19.8116 10.6758 19.615 10.6904 19.3984C10.706 19.1683 10.7621 19.0192 10.8203 18.9531L10.8506 18.9179L10.8604 18.9003C10.8508 18.9135 10.8571 18.9013 10.9053 18.8603C10.957 18.8162 11.033 18.7584 11.1338 18.6874C11.3346 18.546 11.6091 18.3706 11.9326 18.1738C12.5781 17.781 13.394 17.3182 14.1543 16.8994L14.1572 16.8984C14.9981 16.4294 15.7251 16.0349 16.3213 15.7734C16.6187 15.6429 16.869 15.5511 17.0742 15.4999C17.2329 15.4604 17.3436 15.4503 17.416 15.4531L17.4756 15.4599Z" fill="#18191B" stroke="#18191B"/>
<path d="M19.771 13.0688C20.5078 12.572 21.5101 12.766 22.0093 13.5034V13.5044C22.506 14.2423 22.3113 15.2464 21.5737 15.7426C20.8364 16.2389 19.8333 16.0449 19.3374 15.3081L19.3364 15.3071C18.8383 14.569 19.0312 13.5681 19.77 13.0678L19.771 13.0688Z" fill="#18191B" stroke="#18191B"/>
<path d="M33.438 17.8212C33.4638 17.8212 33.4845 17.8255 33.5005 17.83V28.3837C33.4845 28.3883 33.464 28.3934 33.438 28.3935C33.4137 28.3935 33.3937 28.389 33.3784 28.3847V17.829C33.3937 17.8248 33.4138 17.8212 33.438 17.8212Z" fill="#18191B" stroke="#18191B"/>
</g>
<defs>
<clipPath id="clip0_770_283">
<rect width="40" height="40" fill="white"/>
</clipPath>
</defs>
</svg>
