<svg width="40" height="40" viewBox="0 0 40 40" fill="none" xmlns="http://www.w3.org/2000/svg">
<g clip-path="url(#clip0_770_291)">
<path d="M30 0.75H10C4.89137 0.75 0.75 4.89137 0.75 10V30C0.75 35.1086 4.89137 39.25 10 39.25H30C35.1086 39.25 39.25 35.1086 39.25 30V10C39.25 4.89137 35.1086 0.75 30 0.75Z" fill="white"/>
<path d="M7.60156 9.50293C7.61752 9.50725 7.62937 9.51498 7.63867 9.52441C7.64862 9.53455 7.65854 9.5497 7.66406 9.56934L7.66504 9.57129C7.94165 10.7586 7.88676 11.5951 8.90527 12.8525L8.92578 12.877L8.94824 12.8994C10.2395 14.1338 11.694 14.184 13.0029 14.3945L13.2334 14.4316L13.4102 14.2773C13.6067 14.1059 13.8426 13.9829 14.0986 13.9219C14.1967 13.9107 14.321 13.8982 14.4414 13.8936C14.5867 13.888 14.6761 13.8962 14.708 13.9043L14.7217 13.9072L14.7363 13.9102C15.0007 13.9618 15.2273 14.041 15.3779 14.1484L15.3877 14.1562L15.3984 14.1621C15.4429 14.1906 15.6229 14.322 15.8057 14.5195C15.9921 14.7211 16.1406 14.949 16.1904 15.1699L16.1992 15.209L16.2148 15.2471V15.248L16.2158 15.25C16.2165 15.2516 16.2176 15.2541 16.2188 15.2568C16.221 15.2623 16.2245 15.2697 16.2285 15.2793C16.2367 15.299 16.2482 15.3276 16.2637 15.3633C16.2946 15.4347 16.3401 15.5363 16.3984 15.6602C16.515 15.9077 16.6856 16.2475 16.9004 16.6133C17.3167 17.3225 17.9492 18.2186 18.7402 18.6816L18.7686 18.6982L18.7979 18.7109C20.2923 19.3457 21.0811 19.0618 22.3047 18.999C22.3215 18.9996 22.3335 19.0028 22.3408 19.0059C22.3483 19.009 22.3539 19.0136 22.3594 19.0195L22.4199 19.085L22.3701 19.1357C22.3603 19.1456 22.3532 19.1513 22.3486 19.1553C22.3451 19.1562 22.3399 19.1578 22.332 19.1592C22.3197 19.16 22.3034 19.1619 22.2842 19.1631C22.2334 19.1662 22.1599 19.1698 22.0693 19.1748C21.8878 19.1848 21.6385 19.1977 21.3672 19.207C20.8085 19.2263 20.2063 19.2302 19.8887 19.1885H19.8848C18.6071 19.031 17.6495 18.4013 16.8184 17.3359C16.7679 17.2551 16.709 17.1631 16.6416 17.0693L15.9287 16.0771L15.7412 17.2852L15.0381 21.8252L14.9912 22.127L15.2383 22.3066C16.2753 23.0587 17.3938 24.3398 18.0527 25.459C18.0876 25.5181 18.138 25.642 18.1924 25.8477C18.2446 26.045 18.2938 26.2882 18.3389 26.5654C18.4289 27.1197 18.4984 27.7818 18.5518 28.4277C18.605 29.072 18.6415 29.6933 18.6641 30.1641C18.6754 30.3992 18.6834 30.5962 18.6885 30.7393C18.691 30.8106 18.6922 30.8682 18.6934 30.9102C18.694 30.9312 18.695 30.9486 18.6953 30.9609C18.6956 30.9735 18.6953 30.9785 18.6953 30.9785C18.6952 31.0858 18.6101 31.1709 18.5029 31.1709C18.3944 31.1708 18.3107 31.0871 18.3105 30.9785C18.3105 30.8892 18.2518 29.8188 18.166 28.749C18.1227 28.2093 18.0724 27.6566 18.0166 27.2148C17.9888 26.9949 17.9589 26.7945 17.9268 26.6338C17.9108 26.5539 17.8921 26.4757 17.8711 26.4062C17.8542 26.3501 17.8206 26.2492 17.7578 26.1592C17.6561 26.0085 17.4702 25.8152 17.2852 25.6328C17.0801 25.4308 16.8277 25.1948 16.5703 24.9561C16.0432 24.4671 15.5085 23.9775 15.2324 23.6729C15.1453 23.56 15.0399 23.4357 14.9531 23.332C14.848 23.2065 14.7544 23.0894 14.6807 22.9756L14.5078 22.708L14.1924 22.752C14.1039 22.7642 14.0561 22.7695 14.0098 22.7695H13.5645L13.5127 23.2109L13.4688 23.5674C13.2554 25.248 12.3932 26.7534 11.3359 28.0557C11.1475 28.2858 10.9525 28.5403 10.7588 28.7949C10.5631 29.0521 10.367 29.3104 10.1689 29.5586C9.76602 30.0635 9.3879 30.4828 9.04004 30.7275L9.01758 30.7432L8.99707 30.7607C8.97931 30.7764 8.95465 30.79 8.92676 30.7979L8.87207 30.8125C8.86983 30.8127 8.86766 30.8135 8.86523 30.8135C8.76751 30.8135 8.67741 30.7302 8.67578 30.6211C8.67644 30.6124 8.67705 30.6057 8.67773 30.6006C8.67807 30.5981 8.67945 30.5961 8.67969 30.5947C8.68115 30.5901 8.68216 30.5851 8.68359 30.5801C8.6908 30.5611 8.69925 30.5405 8.70996 30.5176L8.71191 30.5166V30.5156C8.71317 30.5139 8.71466 30.5116 8.7168 30.5088L8.7373 30.4814L8.74316 30.4746L8.74805 30.4668C9.16738 29.8572 11.4291 26.5797 11.7275 26.1045L11.7354 26.0928L11.7412 26.0811C11.8206 25.9381 11.9611 25.7451 12.1143 25.2754C12.261 24.8255 12.4267 24.11 12.626 22.8438L12.625 22.8428C12.6383 22.783 12.6527 22.7176 12.6611 22.6689L12.667 22.6318L12.668 22.5938C12.6831 21.8736 12.7277 20.2412 12.7686 18.7871C12.789 18.0607 12.8091 17.3796 12.8232 16.8799C12.8303 16.6301 12.8359 16.4253 12.8398 16.2832C12.8418 16.2122 12.8428 16.1562 12.8438 16.1182C12.8442 16.0993 12.8445 16.0839 12.8447 16.0732C12.8448 16.0683 12.8456 16.0631 12.8457 16.0586C12.8457 16.0568 12.8457 16.052 12.8457 16.0469C12.8457 16.0452 12.8449 16.04 12.8447 16.0332C12.8563 15.857 12.8873 15.673 12.9316 15.4863L13.0664 14.918L12.4844 14.8721C12.2375 14.8524 11.9402 14.7684 11.6182 14.6602C11.3453 14.5684 11.0156 14.4448 10.7676 14.3779C9.51874 13.8708 8.65402 13.1252 8.14844 11.9395L8.14648 11.9355C8.01908 11.6429 7.85763 11.0638 7.72168 10.5215C7.65564 10.258 7.59827 10.0144 7.55762 9.83691C7.53731 9.74822 7.5208 9.67571 7.50977 9.62598C7.50608 9.60938 7.5025 9.59538 7.5 9.58398V9.56641L7.50098 9.56543C7.5118 9.52624 7.54076 9.50472 7.57129 9.50098L7.60156 9.50293ZM12.3457 16.0488L12.6611 16.4365C12.5478 16.4589 12.4417 16.4519 12.3457 16.4297V16.0488Z" fill="#18191B" stroke="#18191B"/>
<path d="M15.3306 9.85184C16.191 9.94127 16.796 10.6895 16.7153 11.4934C16.6348 12.2496 15.9736 12.8283 15.1782 12.8225L15.0171 12.8138C14.1535 12.7223 13.5507 11.9767 13.6343 11.1721C13.7128 10.4176 14.3753 9.83811 15.1694 9.84305L15.3306 9.85184Z" fill="#18191B" stroke="#18191B"/>
</g>
<defs>
<clipPath id="clip0_770_291">
<rect width="40" height="40" fill="white"/>
</clipPath>
</defs>
</svg>
