<svg width="40" height="40" viewBox="0 0 40 40" fill="none" xmlns="http://www.w3.org/2000/svg">
<g clip-path="url(#clip0_770_295)">
<path d="M30 0.75H10C4.89137 0.75 0.75 4.89137 0.75 10V30C0.75 35.1086 4.89137 39.25 10 39.25H30C35.1086 39.25 39.25 35.1086 39.25 30V10C39.25 4.89137 35.1086 0.75 30 0.75Z" fill="white"/>
<path d="M17.4983 13.2747C18.409 12.4853 18.5033 11.1033 17.7139 10.1927C16.9233 9.28546 15.5425 9.18864 14.633 9.97827C13.7222 10.7688 13.6256 12.1472 14.4173 13.0581C15.2091 13.9687 16.5875 14.0653 17.4983 13.2747Z" fill="#18191B"/>
<path d="M34.9998 15.1091L29.4212 12.3852L29.1738 12.8919L31.271 13.9145C31.3263 13.872 31.364 13.8449 31.3864 13.8367C31.4831 13.7966 31.5879 13.7731 31.6928 13.7731C31.9025 13.7731 32.1016 13.8579 32.2524 14.0052C32.2901 14.0441 32.3242 14.0865 32.3586 14.1348C32.3607 14.1407 32.3655 14.1501 32.3703 14.1619L32.3773 14.1772C32.4361 14.2762 32.4705 14.3916 32.4786 14.5059L34.7513 15.6158L34.9998 15.1091Z" fill="#18191B"/>
<path d="M22.2087 31.7073C22.0803 31.8157 21.9224 31.8817 21.7515 31.8935C21.7374 31.897 21.7233 31.897 21.7091 31.897H21.682H21.6573C21.6443 31.897 21.629 31.897 21.6161 31.8935C21.384 31.8758 21.1754 31.758 21.0399 31.5801H18.6094V32.1444H24.8148V31.5801H22.323C22.2912 31.6248 22.2511 31.6673 22.2087 31.7073Z" fill="#18191B"/>
<path d="M32.347 14.1925C32.3374 14.1737 32.334 14.1619 32.3268 14.156C32.2997 14.1136 32.2668 14.0688 32.2267 14.0323C32.004 13.8096 31.6753 13.7519 31.3996 13.8697C31.012 14.0229 25.1034 20.4451 22.092 19.2081H22.0908C21.9671 19.1904 21.5253 18.8675 21.3945 18.7521C21.3945 18.7521 21.2661 18.6826 20.7559 18.0593C20.2705 17.4643 19.7993 16.6408 19.4199 15.9386C20.6911 15.4343 24.0772 13.2335 25.0575 10.361C25.1753 10.0112 25.4451 9.11326 25.524 8.82009C25.5311 8.79656 25.5452 8.71754 25.5452 8.7094C25.5605 8.56432 25.5311 8.41351 25.4427 8.28382C25.2448 7.98824 24.8478 7.91284 24.5544 8.10828C24.4589 8.17795 24.3883 8.26271 24.3411 8.35922C24.3388 8.35922 24.2893 8.4853 24.2822 8.54562C24.2009 8.81164 24.056 9.28789 23.9841 9.47158C22.2934 13.8096 19.0664 14.2762 19.0511 14.2762C19.0452 14.262 18.9828 14.3245 18.4502 14.2974C18.0225 13.9086 17.4511 13.8367 16.9009 14.017L16.8986 14.0146C16.326 14.1466 15.9407 14.632 15.8288 14.7957C15.0571 14.9313 12.6088 15.0915 11.1514 15.0491C9.45718 15.0337 6.60363 14.7557 6.60363 14.7557C6.60363 14.7557 6.60363 14.7557 6.6001 14.7557C6.44574 14.7687 6.29611 14.8311 6.17947 14.9489C5.93441 15.2058 5.94032 15.6099 6.19715 15.8538C6.29849 15.9539 6.42689 16.0105 6.55884 16.0258C6.55884 16.0293 6.55884 16.0293 6.55884 16.0293C6.55884 16.0293 14.0497 16.5513 15.8194 16.4817C15.9018 16.6926 16.009 16.9188 16.1434 17.1627C16.1481 17.178 16.9857 18.5683 16.9857 18.5683C17.4853 19.3164 17.9495 19.8926 18.244 20.246C19.2691 21.4725 20.2328 21.919 20.5568 22.1276C20.5368 24.815 20.9232 31.2125 20.928 31.2278C20.9327 31.2573 20.9374 31.2844 20.9444 31.3174C21.0363 31.6284 21.3097 31.8393 21.6195 31.8605C21.6419 31.8641 21.6608 31.8605 21.682 31.8605C21.7032 31.8605 21.7256 31.8641 21.748 31.8605C21.9046 31.8487 22.0578 31.7886 22.1851 31.6802C22.3736 31.5165 22.4584 31.2785 22.4419 31.0488C22.4419 31.0464 22.4419 31.0464 22.4443 31.0428C22.4443 31.0428 22.8755 24.2813 22.9096 22.0828C22.9132 21.8436 23.1948 21.6634 23.4657 21.542C27.7296 20.5111 32.1938 15.1363 32.2267 15.1056C32.4764 14.8559 32.5141 14.4812 32.347 14.1925Z" fill="#18191B"/>
</g>
<defs>
<clipPath id="clip0_770_295">
<rect width="40" height="40" fill="white"/>
</clipPath>
</defs>
</svg>
