<svg width="40" height="40" viewBox="0 0 40 40" fill="none" xmlns="http://www.w3.org/2000/svg">
<g clip-path="url(#clip0_770_301)">
<path d="M30 0.75H10C4.89137 0.75 0.75 4.89137 0.75 10V30C0.75 35.1086 4.89137 39.25 10 39.25H30C35.1086 39.25 39.25 35.1086 39.25 30V10C39.25 4.89137 35.1086 0.75 30 0.75Z" fill="white"/>
<path d="M29.0357 8.52374C28.1953 7.06499 26.3299 6.56756 24.8695 7.40962C23.412 8.25041 22.9082 10.1153 23.752 11.5796C24.5974 13.0384 26.4628 13.5358 27.9182 12.6937C29.3756 11.8529 29.8799 9.98802 29.0357 8.52374Z" fill="#18191B"/>
<path d="M31.2158 18.3853C31.209 18.3688 31.206 18.3522 31.1992 18.3357C31.189 18.3221 31.1742 18.314 31.1661 18.2941C31.1296 18.2359 31.0829 18.1863 31.035 18.14C31.0167 18.1201 30.9938 18.1069 30.9768 18.095C30.8079 17.9541 30.5974 17.8629 30.3601 17.8629C30.327 17.8629 29.2643 17.9045 28.5597 17.8332C27.797 17.7254 25.0684 17.3489 24.0268 15.0977C24.6155 14.0579 24.4016 12.4781 23.543 11.6492C23.1814 11.2978 22.6742 11.0406 22.1368 10.9031C21.6742 10.7868 21.2515 10.7537 20.8338 10.8369C20.7591 10.8483 20.6832 10.8747 20.6085 10.8946C19.7066 10.6213 16.966 9.72575 16.3277 9.92141C14.0893 10.4969 13.557 12.4166 13.65 13.8291C13.7663 15.6448 14.3448 18.9159 14.6117 19.2673C14.7395 19.4664 14.9432 19.6119 15.197 19.6535C15.6809 19.7448 16.1452 19.4163 16.2331 18.9324C16.2628 18.7584 16.2398 18.5925 16.1783 18.4431C16.18 18.435 16.1783 18.4265 16.1702 18.4265C16.1617 18.3968 15.8303 17.0259 15.7059 15.6083C15.7042 15.5616 15.6991 15.5171 15.6974 15.4708C16.1965 15.6448 16.8149 15.7492 17.4134 15.5782C18.7185 15.2055 19.423 13.6933 19.3849 13.5524C19.345 13.42 17.9426 12.5028 16.6426 12.8758C16.3243 12.9671 16.0505 13.1245 15.8052 13.3151C15.8269 13.2489 15.8451 13.1878 15.8685 13.1246C15.9763 12.8478 16.1354 12.6356 16.3608 12.5363C16.601 12.3704 17.5063 12.5609 18.4762 12.7816L18.4333 12.8313L18.4414 12.8262C18.4333 12.8347 18.4167 12.8559 18.4065 12.8678C19.0203 13.08 19.4659 13.3983 19.4978 13.5193C19.5606 13.7383 18.803 15.3014 17.4482 15.6911C16.9741 15.8269 16.4903 15.8023 16.0505 15.6996C15.9347 15.8405 15.8634 15.9232 15.8634 15.9232C15.9809 17.0836 16.2165 18.1447 16.2827 18.3722L16.298 18.4134C16.3642 18.5925 16.3825 18.7699 16.351 18.9524C16.2628 19.4379 15.8451 19.7893 15.3545 19.7893C15.2963 19.7893 15.2369 19.7864 15.1754 19.7728C14.9016 19.7282 14.6665 19.5708 14.509 19.3369C14.4577 19.2588 14.3893 19.0848 14.3197 18.8446C14.1856 19.471 14.1045 20.03 14.063 20.2206C13.456 24.0884 13.0749 24.4152 12.7931 24.9372C12.3419 25.6418 8.89682 30.6454 8.23853 31.5991C8.20373 31.6436 8.16892 31.6899 8.14091 31.748C8.13751 31.748 8.12903 31.7565 8.12903 31.7565C8.12903 31.7595 8.12903 31.7595 8.12776 31.7646C8.09253 31.8308 8.06791 31.8974 8.04457 31.9717C8.03948 31.9836 8.03481 32.0001 8.02971 32.0133C8.01146 32.088 8 32.1707 8 32.2539C8 32.2569 8 32.2569 8 32.262V32.2654C8 32.8456 8.47409 33.3265 9.05598 33.3265C9.15699 33.3265 9.25164 33.3065 9.34799 33.2815C9.34799 33.2815 9.34926 33.2768 9.35435 33.2768C9.50715 33.2318 9.64636 33.1571 9.76562 33.0497C11.0224 32.1661 12.4781 30.2922 13.5986 28.9328C15.2717 26.8819 16.5166 24.3239 16.868 21.5435C16.8845 21.3975 16.9147 21.212 16.9376 20.9998C17.0688 20.9964 17.1948 20.9799 17.3209 20.9582C17.6027 21.3894 17.9987 21.8007 18.2474 22.1271C19.151 23.127 21.6628 25.2572 22.0558 25.8705C22.5201 26.5454 18.9867 30.4667 18.1133 32.116C18.1099 32.1211 17.9359 32.4857 17.9359 32.6966C17.9359 33.2815 18.4099 33.7577 19.0003 33.7577C19.1459 33.7577 19.2919 33.7241 19.4197 33.6664C19.5508 33.6134 19.6684 33.5255 19.763 33.4258C20.3712 32.9585 24.0935 28.996 24.6321 27.073C24.9041 26.0696 24.3154 24.8265 23.798 23.964C22.7158 22.1852 21.2651 20.6267 19.5737 19.4048L21.5019 17.5929C21.7324 17.4185 22.049 17.1418 22.3707 16.8434C23.3125 18.2478 24.8243 19.463 27.23 19.7978C28.1769 19.985 29.6144 20.0597 30.473 19.7864C30.4764 19.7864 30.4781 19.7813 30.4828 19.7813C30.9586 19.7197 31.3287 19.322 31.3287 18.828C31.3287 18.6672 31.2871 18.5178 31.2158 18.3853Z" fill="#18191B"/>
<path d="M11.5 15C11.1 16.6 12.1667 18.3333 13 19V20C11.5 20 10.3333 18.5 10 17.5L11.5 15Z" fill="#18191B"/>
</g>
<defs>
<clipPath id="clip0_770_301">
<rect width="40" height="40" fill="white"/>
</clipPath>
</defs>
</svg>
