<svg width="40" height="40" viewBox="0 0 40 40" fill="none" xmlns="http://www.w3.org/2000/svg">
<g clip-path="url(#clip0_770_317)">
<path d="M30 0.75H10C4.89137 0.75 0.75 4.89137 0.75 10V30C0.75 35.1086 4.89137 39.25 10 39.25H30C35.1086 39.25 39.25 35.1086 39.25 30V10C39.25 4.89137 35.1086 0.75 30 0.75Z" fill="white"/>
<path d="M16.249 11.4325C15.3134 11.2332 14.7146 10.3134 14.9129 9.375C15.1131 8.43846 16.0339 7.83964 16.9695 8.03797C17.906 8.23917 18.5048 9.15895 18.3046 10.0984C18.1063 11.032 17.1858 11.6308 16.249 11.4325Z" fill="#18191B"/>
<path d="M16.043 32.1083C25.5444 32.1083 33.2466 24.4052 33.2466 14.9027H33.9999C33.9999 24.8197 25.9588 32.8606 16.043 32.8606C13.1603 32.8606 10.4376 32.1794 8.02441 30.9725V30.122C10.4189 31.3869 13.1452 32.1083 16.043 32.1083Z" fill="#18191B"/>
<path d="M15.5678 18.7089C15.5724 18.6968 15.5752 18.6781 15.5798 18.6631C16.5175 17.9642 17.3829 17.0061 17.6936 16.7637C17.9602 16.7619 18.7863 17.9548 19.5236 19.1038L19.2206 19.6334L19.2103 19.653C19.2112 19.6642 19.2112 19.6745 19.2103 19.6867C19.2 19.813 19.3281 19.8495 19.4366 19.8776L19.4508 19.856L19.7126 19.4013C20.3207 20.3688 20.8242 21.2268 20.8242 21.2268C20.8242 21.2286 20.8251 21.2286 20.8251 21.2286C20.8953 21.3362 21.0029 21.4176 21.1301 21.4635L19.5902 22.5844C19.4618 22.3711 19.332 22.1652 19.2148 21.9762C18.4206 20.6972 17.2761 19.552 15.8485 18.8502C15.7755 18.8147 15.6792 18.7641 15.5678 18.7089ZM20.4397 17.5113C20.1197 16.9219 19.7547 16.2875 19.5013 15.9067C19.1839 15.4202 18.6469 14.723 17.9657 14.8335C17.0929 15.0206 16.7822 15.4613 16.1319 15.9956C16.1319 15.9956 16.7971 13.8126 16.8009 13.7958C16.8505 13.6284 16.9393 13.4488 17.0452 13.2643C17.0452 13.2643 17.0462 13.2643 17.0462 13.2627C17.0469 13.2627 17.0488 13.2598 17.0488 13.2569C17.0965 13.2138 19.0249 11.54 22.4896 12.7134C22.6084 12.7518 22.864 12.8593 23.0623 12.9436L20.4397 17.5113ZM7 25.7291C7.00479 25.7394 7.00934 25.7487 7.01126 25.7609C7.04862 25.8853 7.17964 25.8704 7.29198 25.8591L7.29653 25.832L8.59332 17.7583C8.62901 17.7508 8.66278 17.7434 8.69632 17.7321C8.72075 17.7247 8.74231 17.7125 8.76362 17.7031L8.76458 17.705C8.84315 17.72 13.8133 14.112 13.8133 14.112C13.3934 15.48 12.671 18.0287 12.7383 18.3066C12.7476 18.5387 12.8777 18.7829 13.0171 18.97C13.3232 19.4537 14.415 19.988 14.62 20.1124C16.5848 21.1547 16.6886 21.4205 16.9178 21.6693C17.0694 21.8611 17.6869 22.6901 18.3027 23.5182L11.7036 28.3115L11.9965 28.7138L18.5973 23.9158C19.0709 24.5558 19.4975 25.135 19.6546 25.3483C19.6733 25.3773 19.692 25.4035 19.7135 25.4297C19.7173 25.4325 19.7202 25.4344 19.7202 25.4344C19.7212 25.4372 19.7229 25.4372 19.7248 25.44C19.7538 25.4708 19.7856 25.4971 19.8194 25.5214C19.8249 25.5261 19.8323 25.5307 19.839 25.5382C19.8484 25.5448 19.8606 25.5476 19.8709 25.5523L9.35405 30.0172L9.54687 30.4747L31.6627 21.0855L31.4689 20.6298L20.7466 25.1836C20.7559 25.1424 20.7605 25.1022 20.7634 25.0657C20.7634 25.0657 20.7634 25.0638 20.7634 25.061C20.7681 24.9703 20.7511 24.8814 20.7176 24.7981C20.566 24.2686 20.218 23.6239 19.8484 23.0063L31.4344 14.5911L31.1425 14.1915L21.9265 20.889C21.9255 20.8263 21.9162 20.7711 21.8982 20.7159C21.8982 20.714 21.9001 20.714 21.9001 20.7112C21.9001 20.7112 21.0412 18.6753 20.9607 18.5106C20.8719 18.3281 20.754 18.098 20.6184 17.8444L23.3878 13.0727C23.459 13.0847 23.5337 13.0801 23.6096 13.0615C23.8791 12.9846 24.0353 12.7022 23.9557 12.4308C23.9229 12.3139 23.8482 12.2155 23.7529 12.1529C23.7462 12.1481 23.6911 12.1172 23.6705 12.1079C23.4525 12.0068 22.7703 11.7122 22.4961 11.6047C20.9356 11.0011 18.9763 11.2696 17.6074 11.6617C17.6055 11.6617 17.6055 11.6617 17.6055 11.6617C17.5017 11.6459 15.3779 11.729 14.865 12.0837C14.0782 12.5795 10.4619 15.2864 8.29128 16.8068C8.07594 16.9219 7.96936 17.181 8.05175 17.4159C8.09103 17.5282 8.16409 17.617 8.25559 17.6788L7.00192 25.7076L7 25.7291Z" fill="#18191B"/>
</g>
<defs>
<clipPath id="clip0_770_317">
<rect width="40" height="40" fill="white"/>
</clipPath>
</defs>
</svg>
