<svg width="40" height="40" viewBox="0 0 40 40" fill="none" xmlns="http://www.w3.org/2000/svg">
<g clip-path="url(#clip0_770_322)">
<path d="M30 0.75H10C4.89137 0.75 0.75 4.89137 0.75 10V30C0.75 35.1086 4.89137 39.25 10 39.25H30C35.1086 39.25 39.25 35.1086 39.25 30V10C39.25 4.89137 35.1086 0.75 30 0.75Z" fill="white"/>
<path d="M27.7982 33C28.1628 33 28.4579 33.2359 28.4579 33.5288C28.4579 33.8197 28.1628 34.0545 27.7982 34.0545H10.6597C10.2954 34.0545 10 33.8197 10 33.5288C10 33.2359 10.2954 33 10.6597 33H27.7982Z" fill="#18191B"/>
<path d="M21.1022 7.90256C20.8255 9.19905 19.5531 10.0244 18.2556 9.7504C16.9607 9.4764 16.1294 8.2033 16.4047 6.90347C16.6814 5.60698 17.9552 4.77832 19.254 5.05232C20.5515 5.32966 21.3802 6.60607 21.1022 7.90256Z" fill="#18191B"/>
<path d="M13.6064 30.0833C13.6064 31.079 12.7958 31.8876 11.801 31.8876C10.808 31.8876 10 31.079 10 30.0833C10 29.0942 10.808 28.2822 11.801 28.2822C12.7958 28.2822 13.6064 29.0942 13.6064 30.0833Z" fill="#18191B"/>
<path d="M28.8137 11.0603C28.6767 10.9132 28.4889 10.8397 28.3008 10.8397H28.2994C28.2994 10.8397 22.5956 11.3978 20.8206 10.8163C20.3949 10.7161 19.8519 10.5557 19.3323 10.3185C19.3299 10.3285 19.3286 10.3452 19.3286 10.3586C19.3286 10.3586 19.3259 10.3552 19.3259 10.3519C19.3193 10.3452 19.3182 10.3385 19.3156 10.3318C19.215 10.2483 19.1067 10.1681 18.9904 10.0979C18.9029 10.0578 18.7883 10.0043 18.6667 9.95757C18.6446 9.94754 18.6199 9.93753 18.5938 9.92751C18.5611 9.91414 18.5297 9.90413 18.4969 9.8941C18.4645 9.88074 18.4318 9.86737 18.3993 9.85735C18.386 9.85401 18.3639 9.85065 18.3482 9.84397C18.3118 9.83395 18.2751 9.82728 18.2413 9.81725C18.2045 9.81057 18.1708 9.80387 18.1317 9.79719C18.116 9.79384 18.0936 9.78715 18.0792 9.78715C18.0468 9.78381 18.0114 9.7838 17.979 9.78046C17.9409 9.77712 17.9085 9.77381 17.8717 9.77381C17.8483 9.77381 17.8223 9.77047 17.7976 9.77047C17.6656 9.76713 17.5389 9.76712 17.4437 9.76712C17.1082 9.79386 16.8238 9.89407 16.5876 10.0311C16.5823 10.0311 16.5782 10.0311 16.5746 10.0344C15.8722 10.3285 15.6032 10.5089 14.6492 11.3209C13.2983 12.4537 12.4719 13.7769 12.3219 15.5245C12.2317 16.4066 12.4602 18.6254 12.4602 18.6254C12.4773 18.7122 12.511 18.7958 12.5621 18.8793C12.7723 19.2001 13.2057 19.297 13.5345 19.0831C13.751 18.9395 13.862 18.6989 13.8489 18.4549L13.8516 18.4516C13.7213 16.851 13.3751 16.1293 14.011 14.4619C14.3321 13.8671 14.7117 13.4227 15.1414 13.0551C14.3465 16.7541 12.511 25.4052 12.5177 25.4052C12.5033 25.4587 12.498 25.5154 12.498 25.5756C12.498 26.0401 12.8716 26.411 13.332 26.411C13.6805 26.411 13.9782 26.1938 14.1049 25.8897L14.1102 25.8696C14.1296 25.8195 14.144 25.7694 14.1493 25.7193L15.2143 21.8432C15.2654 21.8131 15.4558 21.7062 15.7038 21.7597C15.9504 21.8131 16.0824 21.9869 16.1151 22.037L14.5029 30.8785C14.4063 31.3263 14.695 31.7707 15.1424 31.8642C15.5955 31.9645 16.0379 31.6738 16.1345 31.226C16.1385 31.2026 16.1385 31.1826 16.1439 31.1625C16.1439 31.1625 20.0634 12.6608 20.0998 12.3935C23.2966 12.8947 27.8948 12.2999 28.3426 12.2431C28.5006 12.2331 28.656 12.1696 28.7773 12.056C28.8999 11.9458 28.9667 11.8021 28.9941 11.6517C28.9941 11.645 28.9951 11.6216 28.9951 11.6149C29.0175 11.4211 28.9614 11.214 28.8137 11.0603Z" fill="#18191B"/>
</g>
<defs>
<clipPath id="clip0_770_322">
<rect width="40" height="40" fill="white"/>
</clipPath>
</defs>
</svg>
