<svg width="40" height="40" viewBox="0 0 40 40" fill="none" xmlns="http://www.w3.org/2000/svg">
<g clip-path="url(#clip0_770_328)">
<path d="M30 0.75H10C4.89137 0.75 0.75 4.89137 0.75 10V30C0.75 35.1086 4.89137 39.25 10 39.25H30C35.1086 39.25 39.25 35.1086 39.25 30V10C39.25 4.89137 35.1086 0.75 30 0.75Z" fill="white"/>
<path d="M30.8848 23.2362C30.705 22.5652 31.1037 21.876 31.7738 21.6965C32.446 21.5163 33.1359 21.9138 33.3157 22.5848C33.4953 23.2552 33.0971 23.9463 32.4249 24.1264C31.7548 24.3059 31.0644 23.9065 30.8848 23.2362ZM33.7245 22.4753C33.4838 21.577 32.5656 21.0427 31.6634 21.2845C30.7689 21.5242 30.235 22.4475 30.4757 23.3458C30.7164 24.2442 31.64 24.7749 32.5344 24.5352C33.4367 24.2935 33.9652 23.3737 33.7245 22.4753Z" fill="#18191B"/>
<path d="M29.6434 24.6504L29.6453 24.6499C29.7452 24.6891 29.8595 24.699 29.9729 24.6686C30.2543 24.5932 30.4232 24.3035 30.3481 24.0234C30.3111 23.8853 30.2226 23.775 30.1056 23.7058C30.1056 23.7058 24.4582 19.945 24.0523 19.8125C24.112 19.5884 24.1303 19.3531 24.0987 19.1141C24.0873 18.9397 23.9715 18.6552 23.8075 18.357C23.6257 18.0954 23.3801 17.8903 23.0942 17.7508C22.6316 16.4493 21.9821 15.3997 22.3455 13.8971C22.8295 12.6433 23.3872 12.4146 24.2634 11.5882C24.3955 11.4561 24.4535 11.2635 24.4035 11.0769C24.3277 10.7938 24.0395 10.6277 23.7555 10.7038C23.6864 10.7223 23.6264 10.7524 23.5761 10.7913C23.5761 10.7913 22.3323 11.916 21.9377 12.4508C21.1447 13.5046 20.9412 14.6578 21.1275 15.9666C21.246 16.3894 21.3127 17.1801 21.5702 17.6944C21.3571 17.7435 21.1679 17.8022 21.0728 17.8561C21.0784 17.8577 15.3383 19.8562 15.1646 19.9272C14.2327 20.1405 11.5 20.412 9.30891 19.05L6.54027 17.4532C6.40904 17.3909 6.25302 17.366 6.09889 17.4073C5.76277 17.4974 5.56583 17.8413 5.65538 18.1755C5.6985 18.3364 5.802 18.4658 5.93536 18.5467C5.93536 18.5467 8.39106 20.2629 9.28504 20.7863C10.788 21.662 14.9071 21.9079 14.9344 22.0779C15.0018 22.689 15.4082 24.384 13.8195 24.3167C13.4751 24.3562 10.0559 23.7311 10.0559 23.7311C10.054 23.7316 10.054 23.7316 10.054 23.7316C9.98051 23.723 9.903 23.7284 9.82715 23.7488C9.49102 23.8388 9.29364 24.1811 9.38312 24.515C9.44175 24.7339 9.60878 24.8909 9.80998 24.9526C9.80998 24.9526 13.6836 26.1754 15.5836 25.7879C16.2153 25.6542 16.817 25.1846 16.9009 24.1424C16.9382 23.5886 16.8933 22.8154 16.7986 22.4278L22.6917 21.149C22.8546 21.1054 23.0121 21.0418 23.1573 20.9593C23.1649 20.9684 29.6434 24.6504 29.6434 24.6504Z" fill="#18191B"/>
<path d="M26.1518 19.5442C25.189 19.8022 24.2016 19.2338 23.9431 18.269C23.6857 17.3082 24.2558 16.3196 25.2187 16.0616C26.1793 15.8042 27.1693 16.3747 27.4268 17.3356C27.6853 18.3004 27.1125 19.2868 26.1518 19.5442Z" fill="#18191B"/>
</g>
<defs>
<clipPath id="clip0_770_328">
<rect width="40" height="40" fill="white"/>
</clipPath>
</defs>
</svg>
