<svg width="40" height="40" viewBox="0 0 40 40" fill="none" xmlns="http://www.w3.org/2000/svg">
<g clip-path="url(#clip0_770_333)">
<path d="M30 0.75H10C4.89137 0.75 0.75 4.89137 0.75 10V30C0.75 35.1086 4.89137 39.25 10 39.25H30C35.1086 39.25 39.25 35.1086 39.25 30V10C39.25 4.89137 35.1086 0.75 30 0.75Z" fill="white"/>
<path d="M25.977 6.45293C25.5844 6.12861 25.4095 6.04169 24.8256 5.72071C24.8223 5.72071 24.4759 5.57024 24.4231 5.58361C24.4891 5.52343 24.4726 5.54351 24.5319 5.48333C24.6738 5.31949 24.499 4.97174 24.2548 5.00183L21.0976 7.09491C20.6885 6.74718 20.1574 6.53987 19.5833 6.53987C18.2736 6.53987 17.2146 7.61318 17.2146 8.94392C17.2146 9.21141 17.2575 9.46884 17.3399 9.70957V9.71292C14.9118 11.4181 12.4309 13.1535 9.99286 14.8486C9.49799 15.0827 9.05259 15.5241 9.0163 16.1092C8.89423 16.7812 9.47489 17.5704 10.1875 17.6874C10.5966 17.6372 10.656 17.4934 10.7186 17.226C10.8374 16.6174 10.6263 16.0557 10.4283 15.494C12.8927 13.7854 15.1955 12.0568 17.6566 10.3415C18.0888 10.9467 18.7882 11.3446 19.5833 11.3446C20.893 11.3446 21.9554 10.268 21.9554 8.94392C21.9554 8.44907 21.8069 7.99101 21.5595 7.61319L23.2783 6.42285C23.6181 6.69703 23.7402 6.6569 24.2449 7.00798C24.2482 7.01132 24.852 7.42257 25.0796 7.79371C25.5514 8.54936 25.5316 9.1211 24.9839 9.79316C24.4891 10.4953 23.7336 10.9601 22.9517 11.2777C22.4997 11.465 22.0214 11.5519 21.5364 11.6388C20.418 11.2008 18.7585 11.6622 18.3066 12.4246C17.7259 13.2972 17.9107 14.0863 17.9173 14.5277C17.8777 14.8386 19.26 20.3221 19.4117 21.693C19.4546 22.1276 19.1544 25.2204 18.6661 26.9591C18.1614 27.2767 14.0672 31.4729 14.0672 31.4729C14.0672 31.4729 14.0672 31.4763 14.0639 31.4796C13.9946 31.5298 13.9419 31.5966 13.8924 31.6668C13.8693 31.6969 13.8462 31.7304 13.8297 31.7671C13.8198 31.7805 13.8132 31.7939 13.8066 31.8073C13.7538 31.9176 13.7208 32.038 13.7208 32.1684C13.7208 32.1751 13.7208 32.1784 13.7208 32.1851C13.7208 32.1918 13.7208 32.1951 13.7208 32.1985C13.7208 32.2052 13.7241 32.2185 13.7274 32.2252C13.7571 32.6599 14.1068 33.0043 14.5423 33.0043C14.7666 33.0043 14.9679 32.9106 15.1164 32.7669C15.1164 32.7669 18.7256 29.4501 19.3062 28.905C19.8209 28.4804 20.3586 28.0926 20.4873 27.4138C20.6489 26.5445 20.9854 24.5584 21.2395 22.8732V22.8666C21.312 22.9067 21.7838 22.8632 21.8597 22.803C21.9554 22.9869 21.8564 33.2644 21.8597 33.2774C21.9158 33.6864 22.2556 34 22.6713 34C23.1298 34 23.4993 33.6275 23.4993 33.1664C23.4993 33.1641 23.5752 22.91 23.4993 20.7969C23.4366 19.202 23.0276 14.5678 23.0276 14.5678C23.0177 14.3839 22.8857 13.7854 22.7439 13.4276C22.7439 13.4276 22.7406 13.4042 22.7274 13.3708C23.9777 12.876 25.1126 12.0835 25.977 11.0337C26.4157 10.4652 27.0162 9.54575 26.9997 8.80682C26.9865 7.91409 26.683 7.03806 25.977 6.45293Z" fill="#18191B"/>
</g>
<defs>
<clipPath id="clip0_770_333">
<rect width="40" height="40" fill="white"/>
</clipPath>
</defs>
</svg>
