<svg width="40" height="40" viewBox="0 0 40 40" fill="none" xmlns="http://www.w3.org/2000/svg">
<g clip-path="url(#clip0_770_336)">
<path d="M30 0.75H10C4.89137 0.75 0.75 4.89137 0.75 10V30C0.75 35.1086 4.89137 39.25 10 39.25H30C35.1086 39.25 39.25 35.1086 39.25 30V10C39.25 4.89137 35.1086 0.75 30 0.75Z" fill="white"/>
<path d="M30.9506 27C30.8386 26.4535 30.5391 25.9925 30.1631 25.7098C29.2881 25.052 28.5007 24.2235 27.4241 23.9081C27.2737 23.8641 27.119 23.8065 26.9663 23.8066C25.7264 23.8073 24.7532 23.265 24.0262 22.207C23.8037 21.8831 23.5424 21.5804 23.37 21.2286C23.1286 20.7359 22.7609 20.532 22.2713 20.5341C21.5336 20.5372 20.7841 20.5102 20.1068 20.8951C19.0065 21.5205 17.8052 21.6489 16.5949 21.7045C16.2084 21.7223 15.8993 21.791 15.6414 22.12C15.3014 22.5539 14.8525 22.7051 14.326 22.5872C14.2381 22.5675 14.112 22.5424 14.0559 22.5898C13.3614 23.1761 12.4894 22.9956 11.7121 23.2168C11.4849 23.2814 11.251 23.3247 11.0299 23.407C10.6881 23.5344 10.6238 23.8051 10.8755 24.0812C11.0133 24.2323 11.0982 24.4029 11.1601 24.5925C11.241 24.8406 11.3985 25.1468 11.0607 25.279C10.7448 25.4027 10.4667 25.23 10.3359 24.8982C10.2156 24.5928 10.1413 24.267 10.0462 23.9482C9.47606 23.9673 8.98284 24.2573 8.51091 24.5541C8.21881 24.7377 8.06357 25.1292 7.65362 25.1711C7.39895 25.1971 7.11168 25.3227 7.01789 24.9764C6.94265 24.6986 7.11289 24.4706 7.37648 24.3537C7.81841 24.1579 8.19 23.8432 8.53655 23.5074C8.85608 23.1978 9.19476 22.9388 9.59667 22.775C9.73177 22.7199 9.85588 22.6683 9.91319 22.5049C10.0534 22.1052 10.3654 21.9064 10.7258 21.8085C11.4922 21.6004 12.1805 21.1894 12.9676 20.8746C12.8369 20.336 12.821 19.7756 12.8223 19.2137C12.8224 19.1562 12.7826 19.0874 12.7426 19.0429C12.5667 18.8472 11.3289 18.6297 11.0853 18.7553C10.4301 19.0931 9.71546 19.2346 9.02739 19.4626C8.74701 19.5555 7.91156 19.1397 7.77756 18.8738C7.6949 18.7098 7.69235 18.5606 7.85405 18.4347C8.12006 18.2274 8.37621 18.0059 8.64191 17.7982C8.96468 17.5458 9.2177 17.261 9.45585 16.8911C9.897 16.206 10.5539 15.6906 11.1751 15.1735C11.3859 14.9981 11.6928 14.9611 12.0036 15.0382C11.9158 15.2812 11.8339 15.508 11.7285 15.7998C12.3331 15.8423 12.913 15.9643 13.4767 15.9072C14.9738 15.7553 16.4052 16.1437 17.8618 16.3655C18.9983 16.5386 20.0992 16.8759 21.2288 17.0713C21.6071 17.1367 21.9783 17.1389 22.3547 17.0895C23.3193 16.963 24.2684 16.9813 25.173 17.4284C25.2707 17.4767 25.3795 17.5117 25.4862 17.5256C26.1647 17.6142 26.6816 17.9949 27.1291 18.5171C27.436 18.8752 27.7416 19.2376 28.0757 19.5658C28.6716 20.151 29.3462 20.5401 30.2024 20.4472C30.6499 20.3986 31.0371 20.5764 31.3528 20.9165C31.5227 21.0997 31.6396 21.3063 31.5695 21.5724C31.5129 21.5876 31.4643 21.6113 31.457 21.6012C31.0177 20.9932 30.42 20.9865 29.7693 21.0295C28.7985 21.0937 27.9526 20.7244 27.1914 19.8871C27.2376 20.3796 27.2318 20.7568 27.3141 21.1108C27.5558 22.1514 28.1518 22.6492 29.2404 22.7399C29.4759 22.7596 29.6619 22.8128 29.8143 23.0122C30.1419 23.4405 30.6305 23.6281 31.0502 23.9183C31.3114 24.099 31.6058 24.2268 31.7457 24.5647C31.826 24.7587 32.0284 24.758 32.1987 24.7772C32.3387 24.7929 32.4827 24.7713 32.622 24.7902C32.8297 24.8183 32.973 24.9434 32.9978 25.1736C33.0211 25.3897 32.8518 25.4486 32.7116 25.519C32.209 25.771 31.4579 25.5568 30.9542 25.0091C30.8126 24.8552 30.6954 24.6759 30.5094 24.5618C30.7734 24.9456 30.9748 25.3613 31.2259 25.7425C31.4583 26.0952 31.7156 26.4477 31.6754 26.9602C31.4405 27 31.2165 27 30.9506 27Z" fill="#18191B"/>
</g>
<defs>
<clipPath id="clip0_770_336">
<rect width="40" height="40" fill="white"/>
</clipPath>
</defs>
</svg>
