<svg width="40" height="40" viewBox="0 0 40 40" fill="none" xmlns="http://www.w3.org/2000/svg">
<g clip-path="url(#clip0_770_339)">
<path d="M30 0.75H10C4.89137 0.75 0.75 4.89137 0.75 10V30C0.75 35.1086 4.89137 39.25 10 39.25H30C35.1086 39.25 39.25 35.1086 39.25 30V10C39.25 4.89137 35.1086 0.75 30 0.75Z" fill="white"/>
<path d="M27.3566 33C27.7122 33 28 33.2237 28 33.5014C28 33.7774 27.7122 34 27.3566 34H10.6434C10.2881 34 10 33.7774 10 33.5015C10 33.2237 10.2881 33 10.6434 33H27.3566Z" fill="#18191B"/>
<path d="M21.5009 7.62225C20.8816 7.62225 20.3802 7.11964 20.3802 6.50089C20.3802 5.88012 20.8816 5.37751 21.5009 5.37751C22.1195 5.37751 22.6227 5.88012 22.6227 6.50089C22.6227 7.11964 22.1195 7.62225 21.5009 7.62225ZM21.5009 5C20.6718 5 20 5.66775 20 6.50089C20 7.32686 20.6718 8 21.5009 8C22.33 8 23 7.32686 23 6.50089C23 5.66775 22.33 5 21.5009 5Z" fill="#18191B"/>
<path d="M26.8568 11.181C26.8568 12.295 25.9566 13.1976 24.8437 13.1976C23.7323 13.1976 22.8286 12.295 22.8286 11.181C22.8286 10.0705 23.7323 9.16794 24.8437 9.16794C25.9566 9.16794 26.8568 10.0705 26.8568 11.181Z" fill="#18191B"/>
<path d="M30.9951 21.735C30.996 21.6996 30.6728 20.4613 30.5471 20.0407C29.4687 16.482 24.8738 13.7688 24.4339 13.9366C24.3002 13.6407 24.1095 13.3745 23.8548 13.1551C23.6387 12.9405 23.2081 12.7667 23.071 12.7176C22.6779 12.5977 22.2644 12.5863 21.8657 12.6834C21.4156 12.3976 19.158 10.7639 18.853 10.4589C18.1321 9.36678 19.4069 6.47748 19.4312 6.43741C19.4312 6.43741 19.4368 6.43419 19.4368 6.42834C19.495 6.33709 19.5303 6.2204 19.5303 6.10283C19.5303 5.76357 19.2551 5.48572 18.9159 5.48572C18.7398 5.48572 18.581 5.56001 18.4681 5.67787C18.2452 5.88903 17.4649 8.03693 17.169 9.25594C16.937 10.2076 17.29 11.1754 18.5161 12.2298C18.6018 12.2915 20.1978 13.7322 20.3358 13.8316C20.1644 14.0463 20.0275 14.2519 19.9796 14.38C19.9796 14.38 19.9749 14.3832 19.9702 14.3946C19.8617 14.3285 17.4445 18.3213 17.4445 18.3213C17.2523 18.6527 15.0737 23.3916 15.0784 24.2198C14.1129 24.0508 8.69321 24.9077 8.69321 24.9077C8.69321 24.9077 8.69203 24.9077 8.69203 24.9109C8.45425 24.9396 8.23491 25.0709 8.10593 25.2938C7.88775 25.6708 8.01789 26.1507 8.39255 26.3666C8.51948 26.442 8.65431 26.4704 8.78914 26.4704C8.78914 26.4727 8.7903 26.4727 8.7903 26.4727C8.7903 26.4727 14.8716 26.2364 15.5592 26.0957C16.1409 26.01 16.5989 25.4731 16.9028 24.951C17.314 24.2198 17.7472 22.9175 18.0224 21.7315C18.0601 21.7944 18.3994 21.952 18.4874 21.943C18.4737 22.1258 18.2932 24.2508 17.5699 25.793C16.3886 28.3065 14.723 30.0201 14.692 30.0543L14.69 30.0578H14.6865C14.5563 30.1859 14.475 30.3687 14.475 30.5708C14.475 30.9718 14.8041 31.2996 15.2062 31.2996C15.4451 31.2996 15.6519 31.1856 15.7867 31.0118C15.7867 31.0083 15.79 31.0028 15.7935 31.0028C15.8792 30.8633 18.4441 27.847 19.0826 26.7046C19.7076 25.576 20.401 22.143 20.6078 21.606C20.5622 21.5122 21.6818 19.7243 22.6732 18.1672L24.1575 16.3197C24.2865 16.1427 24.3883 15.9541 24.4625 15.7646C24.4772 15.7646 27.8052 16.3711 29.3991 20.924C29.4971 21.2039 29.6983 22.0149 29.6983 22.0149C29.703 22.0172 29.705 22.0208 29.7097 22.0208C29.7521 22.1486 29.8308 22.2661 29.9484 22.3486C30.24 22.5633 30.6453 22.5004 30.8624 22.217C30.8635 22.2114 30.8682 22.2114 30.8682 22.2114C30.8682 22.2114 30.8682 22.2114 30.8717 22.2091C30.8717 22.2091 30.8729 22.2036 30.8749 22.2036C30.9767 22.0629 31.0144 21.895 30.9951 21.735Z" fill="#18191B"/>
</g>
<defs>
<clipPath id="clip0_770_339">
<rect width="40" height="40" fill="white"/>
</clipPath>
</defs>
</svg>
