<svg width="40" height="40" viewBox="0 0 40 40" fill="none" xmlns="http://www.w3.org/2000/svg">
<g clip-path="url(#clip0_770_345)">
<path d="M30 0.75H10C4.89137 0.75 0.75 4.89137 0.75 10V30C0.75 35.1086 4.89137 39.25 10 39.25H30C35.1086 39.25 39.25 35.1086 39.25 30V10C39.25 4.89137 35.1086 0.75 30 0.75Z" fill="white"/>
<path d="M28.0419 30.7477C28.4065 30.7477 28.7016 30.9836 28.7016 31.2765C28.7016 31.5674 28.4065 31.8022 28.0419 31.8022H10.9034C10.5391 31.8022 10.2437 31.5674 10.2437 31.2765C10.2437 30.9836 10.5391 30.7477 10.9034 30.7477H28.0419Z" fill="#18191B"/>
<path d="M23.6448 11.7543C24.8628 11.0541 25.2818 9.49489 24.5777 8.27223C23.8736 7.0552 22.314 6.63978 21.0924 7.34C19.8743 8.04797 19.4589 9.60332 20.163 10.8218C20.8671 12.043 22.4232 12.4623 23.6448 11.7543Z" fill="#18191B"/>
<path d="M32.7769 27.6774C31.5306 27.9415 30.0415 27.808 29.5099 27.7475C29.4958 27.7408 29.4817 27.7338 29.4712 27.7313C29.3796 27.7313 29.2494 27.6774 29.091 27.5151L23.1308 20.9994C23.1836 20.8688 23.1906 20.7808 23.173 20.6654C23.1519 20.2887 23.0005 20.1056 22.8351 19.9394V19.9366C22.821 19.9296 22.7506 19.8666 22.7224 19.8553C21.4726 18.8446 20.6524 18.5063 19.8744 16.834C19.6033 15.9789 19.5434 15.272 19.6103 14.6063C19.9096 14.3246 20.1349 14.1127 20.1349 14.1127C20.927 13.2931 20.8037 11.6773 19.987 10.8851C19.6842 10.5922 19.3393 10.3187 18.7971 10.1603C18.3148 10.023 17.7374 9.88815 17.146 10.2553C16.8397 10.3529 12.9531 15.1977 12.9531 15.1977C12.3793 15.7821 12.1469 17.6867 12.066 18.0458C11.559 21.2776 11.2386 21.5483 11.0028 21.9855C10.6296 22.577 7.74634 26.7519 7.20067 27.551C7.16899 27.5894 7.14435 27.6281 7.11618 27.6707C7.11618 27.6774 7.11266 27.6817 7.11266 27.6817C7.10914 27.6845 7.10913 27.6883 7.10913 27.6912C7.07745 27.7475 7.05282 27.8013 7.03522 27.8605C7.0317 27.8714 7.02817 27.8851 7.02465 27.8961C7.01056 27.9594 7 28.0295 7 28.0971C7 28.0995 7 28.0995 7 28.1038V28.1066C7 28.5963 7.3943 28.9948 7.88364 28.9948C7.96813 28.9948 8.04558 28.9772 8.12655 28.9522H8.13008C8.26034 28.9166 8.37298 28.8504 8.47508 28.7653C9.52418 28.0267 10.7423 26.459 11.6787 25.3233C13.0728 23.6085 14.1184 21.4712 14.4106 19.1473C14.4247 19.0319 14.4493 18.8734 14.4669 18.6935C14.5761 18.6935 14.6817 18.6823 14.7873 18.6661C15.0232 19.0248 15.3541 19.366 15.5618 19.6367C16.3152 20.4714 18.4169 22.2524 18.7443 22.7667C19.1315 23.3307 16.1814 26.6033 15.4491 27.9841C15.4456 27.9841 15.3013 28.2935 15.3013 28.4695C15.3013 28.9592 15.6991 29.3567 16.192 29.3567C16.3117 29.3567 16.4314 29.3292 16.544 29.2796C16.6531 29.2342 16.7482 29.1627 16.8327 29.0828C17.3361 28.6843 20.4482 25.3754 20.8953 23.7708C21.1206 22.9318 20.6348 21.8936 20.2018 21.1755C19.297 19.6863 18.0824 18.3869 16.6707 17.3621L17.4875 16.5989C17.6952 17.5811 18.1317 18.4816 18.8534 19.3096C19.5293 20.1126 21.1805 21.4645 21.2931 21.4849C21.2931 21.4849 21.2931 21.4849 21.2966 21.4849C21.3811 21.5483 21.4762 21.5937 21.5853 21.6155C21.6099 21.6155 21.6311 21.6155 21.6557 21.6155C21.6522 21.6226 22.2964 21.6472 22.4619 20.9994C22.5041 20.7467 22.4126 20.5059 22.2471 20.3408C22.2471 20.3408 22.2471 20.3408 22.2471 20.3383C22.2331 20.327 22.1627 20.2735 22.138 20.257C20.8847 19.2505 20.068 18.9079 19.2864 17.2357C19.0541 16.5042 18.9872 15.818 19.0224 15.1551C19.0576 15.1234 19.0893 15.0889 19.128 15.0534C19.0752 15.8138 19.1597 16.4999 19.378 17.1973C19.9905 18.5105 20.6277 18.9822 21.5008 19.6367C21.7191 19.8018 21.9514 19.9778 22.1943 20.1718C22.2225 20.1897 22.2929 20.2528 22.3105 20.2665L22.3316 20.2844L22.3352 20.2887C22.5182 20.4784 22.6062 20.7495 22.5605 21.0244C22.483 21.3226 22.3141 21.4891 22.138 21.5909C22.1838 21.6789 22.3633 21.5729 22.5006 21.5729L28.3552 28.178C28.4044 28.2305 28.4432 28.2756 28.4925 28.3157C28.5523 28.3678 28.7142 28.4945 28.7142 28.4945C28.7635 28.5234 28.8234 28.5547 28.8867 28.5797C29.8408 28.9796 32.1749 28.973 32.7064 28.6565C32.9212 28.5259 33.2064 27.5866 32.7769 27.6774Z" fill="#18191B"/>
</g>
<defs>
<clipPath id="clip0_770_345">
<rect width="40" height="40" fill="white"/>
</clipPath>
</defs>
</svg>
