<svg width="40" height="40" viewBox="0 0 40 40" fill="none" xmlns="http://www.w3.org/2000/svg">
<g clip-path="url(#clip0_770_350)">
<path d="M30 0.75H10C4.89137 0.75 0.75 4.89137 0.75 10V30C0.75 35.1086 4.89137 39.25 10 39.25H30C35.1086 39.25 39.25 35.1086 39.25 30V10C39.25 4.89137 35.1086 0.75 30 0.75Z" fill="white"/>
<path d="M14.1247 16.6063C14.1276 16.5791 14.1306 16.5595 14.1375 16.5404C14.175 16.4099 14.2757 16.3079 14.3998 16.2696C14.4011 16.2671 17.2045 15.3412 17.6581 14.7392C17.9775 14.3386 18.1987 13.8616 18.4731 13.4356C18.5433 13.3357 18.6279 13.2468 18.7295 13.18C19.0517 12.8695 19.5941 12.8001 20.0681 13.0424C20.0681 13.0424 23.4323 14.7527 23.6957 15.036C23.9141 15.2701 23.8851 15.7414 23.857 15.8787C23.847 15.9872 23.8311 16.0956 23.8139 16.1984C23.5431 17.3459 23.1165 17.9321 22.7627 19.0569C22.625 19.5112 22.533 21.9259 22.5281 21.9687C22.5212 22.0348 22.5001 22.0908 22.4727 22.1445C22.4714 22.1472 22.4696 22.1476 22.4686 22.1515C22.4554 22.1761 22.4415 22.1984 22.4234 22.2195C22.4189 22.2245 22.4157 22.2274 22.413 22.232C22.3735 22.2758 22.3312 22.3165 22.28 22.3442C22.2694 22.3484 22.2617 22.3487 22.2535 22.3546C22.2429 22.3586 22.2337 22.3609 22.2228 22.3636C22.2109 22.3704 22.2005 22.3753 22.1895 22.378C22.1859 22.3789 22.1859 22.3789 22.1823 22.3798C22.1658 22.3838 22.1458 22.3888 22.1275 22.3933C22.1251 22.3915 22.1233 22.392 22.1197 22.3929C22.0987 22.3942 22.0774 22.3942 22.0546 22.3961C22.0523 22.3944 22.0483 22.3938 22.0446 22.3947C22.0368 22.3943 22.0295 22.3961 22.0213 22.3944L22.0177 22.3953L22.0159 22.3958L22.014 22.3962C21.7565 22.3726 21.5645 22.1435 21.5877 21.884C21.5892 21.8745 21.5943 21.8635 21.594 21.8545C21.6076 21.6427 21.6657 20.5356 21.8743 18.8139C21.9061 18.5032 22.0647 17.4112 22.2323 16.5049C22.1189 16.5633 22.0002 16.6077 21.8845 16.649C21.3511 16.8094 20.792 16.8425 20.2429 16.9159C20.4636 17.8817 21.3416 19.5193 21.3425 19.523C21.3656 19.5854 21.3763 19.6525 21.3703 19.7221C21.3453 19.982 21.1193 20.1725 20.86 20.1494C20.7294 20.1378 20.6166 20.0731 20.5391 19.9786C20.5008 19.9645 20.0473 19.075 19.8133 18.7071C19.5738 18.2851 19.2287 17.6469 19.1381 17.1616C19.0821 16.8324 19.063 16.4569 19.2831 16.1793C19.4368 15.9157 20.0148 15.7315 20.6473 15.6588L19.1293 14.8803C19.1197 14.8727 19.1088 14.8679 19.0994 14.8611C18.8669 15.1586 18.6005 15.4287 18.3188 15.6761C17.7631 16.0995 14.6982 17.0482 14.5836 17.0387C14.5836 17.0387 14.5817 17.0391 14.5794 17.0374C14.548 17.0436 14.5174 17.0451 14.4819 17.0424C14.2641 17.0226 14.1046 16.831 14.1259 16.6115C14.1259 16.6115 14.1256 16.61 14.125 16.6078L14.1247 16.6063Z" fill="#18191B"/>
<path d="M18.6167 12.3047C18.7941 13.0243 18.3425 13.7545 17.6125 13.9345C16.8806 14.1149 16.145 13.6774 15.9676 12.9577C15.7899 12.2366 16.2378 11.5072 16.9696 11.3268C17.6996 11.1468 18.4389 11.5835 18.6167 12.3047Z" fill="#18191B"/>
<path d="M10.8982 13.2018C10.747 13.3576 10.5707 13.5852 10.5203 13.7289C10.4574 13.8847 10.1425 14.0764 9.61355 14.2561C9.072 14.4358 8.64379 14.6993 8.27856 15.0467C7.9889 15.3342 7.40956 15.7775 7.01914 16.041C6.0368 16.676 5.96123 16.7718 6.01161 17.4427C6.06199 18.2932 6.35165 18.3891 7.59848 17.9818C8.6312 17.6463 9.87802 17.5864 10.3818 17.85C10.8856 18.1016 12.485 21.6955 12.6991 23.0492C12.8251 23.7919 12.9006 23.9477 13.354 24.3789C13.6437 24.6425 14.0215 24.9659 14.1978 25.1097C14.5127 25.3493 14.5127 25.3852 14.3993 26.0082C14.3364 26.3676 14.1978 26.8707 14.0971 27.1343C13.8578 27.7812 13.8704 27.877 14.2356 28.2124C14.5127 28.488 14.6386 28.5119 15.621 28.5119C16.83 28.5119 17.359 28.3322 18.0013 27.6853C18.3413 27.3499 18.3917 27.3379 18.5932 27.4937C18.7443 27.6374 18.7821 27.8171 18.7317 28.2124C18.7065 28.5 18.7191 28.8833 18.7695 29.075L18.8577 29.4104L19.2859 28.9432C19.777 28.4041 19.6763 28.3682 20.8853 29.4583C21.3891 29.9256 21.4773 30.0693 21.4773 30.4527C21.4773 31.0397 21.7543 31.1595 22.1825 30.7881C22.5856 30.4167 22.5856 29.9136 22.1699 29.662C21.9936 29.5542 21.8551 29.3865 21.8551 29.2906C21.8551 29.1948 21.6788 29.0271 21.4647 28.9312C20.9609 28.6797 20.0919 27.9249 20.0919 27.7333C20.0919 27.5056 21.0742 26.7869 21.8929 26.4035C22.3211 26.1999 22.6107 25.9842 22.6107 25.8764C22.6107 25.7686 22.4722 25.3493 22.2959 24.942C21.8803 23.9716 21.8929 23.5763 22.3211 23.181C22.7493 22.8096 22.9004 22.8096 23.1523 23.169C23.2656 23.3247 23.782 23.7919 24.311 24.1992C24.8273 24.6185 25.2555 24.9779 25.2555 25.0258C25.2555 25.0618 24.9029 25.3613 24.4747 25.6967C23.9709 26.092 23.6183 26.4634 23.4671 26.8108L23.2153 27.3379L23.6812 27.9848C23.9205 28.3442 24.185 28.6078 24.248 28.5718C24.3235 28.5359 24.3739 28.0807 24.3739 27.5655V26.6311L25.5326 25.8644C26.1623 25.4451 26.7038 25.0378 26.729 24.9779C26.7542 24.906 26.4897 24.5227 26.1371 24.1154C25.7971 23.7081 25.5074 23.3127 25.5074 23.2409C25.5074 23.169 25.7341 22.8216 26.0112 22.4742C26.7542 21.5397 26.8802 20.6413 26.4394 19.2756C26.326 18.8922 27.7114 18.6526 28.4544 18.9282C28.6308 18.9881 28.9834 19.2995 29.2479 19.635C29.5123 19.9584 29.9531 20.3537 30.2302 20.4975C31.2503 21.0725 33.3284 20.7491 33.9077 19.9345C34.084 19.6829 34.0714 19.6709 33.2906 19.6829C32.2831 19.6949 31.9934 19.5511 30.608 18.3292C29.5375 17.3828 29.5123 17.3708 28.87 17.3708C28.3159 17.3708 28.0514 17.4546 27.2454 17.9099C26.7038 18.2094 26.1623 18.449 26.0238 18.449C25.8852 18.449 25.5704 18.3172 25.3185 18.1615C24.6762 17.7422 23.442 17.3708 22.4218 17.2869C21.6158 17.227 21.4017 17.263 20.1549 17.6703C18.9332 18.0656 18.6814 18.1016 17.8375 18.0656C17.3086 18.0297 16.7167 17.9458 16.5152 17.862L16.1499 17.7182L16.767 17.3348L17.3842 16.9515L16.7544 16.8796C16.1499 16.8197 15.4321 16.5681 15.4321 16.4244C15.4321 16.3884 15.6588 16.2567 15.9358 16.1489C16.2255 16.041 16.5026 15.8254 16.5781 15.6457C16.767 15.2504 16.6915 15.1785 16.2633 15.3342C15.6588 15.5499 15.0542 15.466 14.0089 15.0108C13.2407 14.6873 12.7999 14.5795 12.2583 14.5675C11.8679 14.5555 11.5027 14.5196 11.4523 14.4597C11.4019 14.4118 11.3641 14.0764 11.3893 13.7289C11.4271 12.9742 11.276 12.8185 10.8982 13.2018ZM20.3186 24.6425C20.7972 25.0857 21.0994 25.505 21.0994 25.7326C21.0994 25.8405 19.4622 27.1223 19.3992 27.0504C19.3111 26.9546 18.4798 25.3134 18.4043 25.0738C18.3287 24.8581 18.4043 24.7743 18.9836 24.5227C19.3488 24.355 19.6889 24.2112 19.7393 24.2112C19.8022 24.1992 20.0541 24.4029 20.3186 24.6425ZM16.8048 25.9962C17.1952 26.092 17.9509 26.6431 17.9509 26.8468C17.9509 26.8947 17.7998 26.9546 17.6108 26.9785C17.3967 27.0025 17.2078 27.1223 17.1449 27.266C16.8804 27.8291 15.2809 28.3083 15.1046 27.865C15.0668 27.7812 15.2431 27.3259 15.4824 26.8707C15.7343 26.4035 15.9358 25.9603 15.9358 25.8764C15.9358 25.7806 16.0114 25.7566 16.1625 25.8165C16.2759 25.8644 16.5655 25.9483 16.8048 25.9962Z" fill="#18191B"/>
</g>
<defs>
<clipPath id="clip0_770_350">
<rect width="40" height="40" fill="white"/>
</clipPath>
</defs>
</svg>
