<svg width="40" height="40" viewBox="0 0 40 40" fill="none" xmlns="http://www.w3.org/2000/svg">
<g clip-path="url(#clip0_770_361)">
<path d="M30 0.75H10C4.89137 0.75 0.75 4.89137 0.75 10V30C0.75 35.1086 4.89137 39.25 10 39.25H30C35.1086 39.25 39.25 35.1086 39.25 30V10C39.25 4.89137 35.1086 0.75 30 0.75Z" fill="white"/>
<path d="M18.498 12.5029L18.5127 12.5049C18.8362 12.5619 18.9928 12.8208 19.0742 12.9395H19.0752C19.1053 12.9844 19.1291 13.0566 19.123 13.1709L19.1162 13.3164L19.1875 13.4443C19.2737 13.5964 19.3708 13.7599 19.4834 13.9199V13.9209C19.5912 14.0815 19.7473 14.223 19.9014 14.3428C20.0616 14.4674 20.2504 14.5916 20.4502 14.7109C20.8499 14.9496 21.3243 15.1878 21.7725 15.3975C22.2226 15.608 22.6561 15.7947 22.9756 15.9277C23.0539 15.9603 23.1259 15.9887 23.1895 16.0146C23.1648 16.0062 23.1381 15.9986 23.1113 15.9893C22.8406 15.8949 22.4755 15.7611 22.0762 15.6074C21.2705 15.2973 20.3539 14.9168 19.793 14.6211L19.7783 14.6133L19.7646 14.6074H19.7637L19.7627 14.6064C19.762 14.6061 19.7608 14.6059 19.7598 14.6055C19.7576 14.6045 19.7545 14.6031 19.751 14.6016C19.7436 14.5983 19.7336 14.5934 19.7207 14.5879C19.6944 14.5766 19.6569 14.5606 19.6113 14.542C19.5205 14.505 19.394 14.4558 19.2539 14.4082C19.1152 14.3611 18.9541 14.3123 18.7959 14.2793C18.6495 14.2488 18.4554 14.2212 18.2715 14.25L18.1797 14.2637L18.0996 14.3105C17.8242 14.4693 17.4692 14.6743 17.1836 14.8398C17.0408 14.9226 16.9151 14.9957 16.8252 15.0479C16.7802 15.0739 16.7436 15.095 16.7188 15.1094C16.7065 15.1165 16.6969 15.1222 16.6904 15.126C16.6875 15.1277 16.6852 15.1289 16.6836 15.1299L16.6816 15.1309L16.6807 15.1318L15.3047 15.9307L16.8906 16.0625C17.7584 16.1346 18.0536 16.0443 18.6055 16.3916C18.6979 16.4614 18.7724 16.5952 18.7959 16.8496C18.8196 17.1062 18.7825 17.3987 18.7354 17.6621V17.6631C18.6134 18.3509 18.251 19.7203 18.0479 20.3779L18.0469 20.3828C18.0464 20.3844 18.0434 20.394 18.0361 20.415C18.0288 20.4365 18.0181 20.4648 18.0059 20.499C17.9815 20.5675 17.949 20.6577 17.9111 20.7617C17.8352 20.9699 17.7389 21.2326 17.6436 21.4902C17.5482 21.7478 17.4537 22.0005 17.3838 22.1885C17.3489 22.2821 17.32 22.3598 17.2998 22.4141C17.2924 22.4339 17.2852 22.4506 17.2803 22.4639C17.2711 22.4811 17.2655 22.488 17.2637 22.4893L17.2588 22.4922C17.2526 22.4966 17.2475 22.4983 17.2441 22.499C17.2404 22.4998 17.2361 22.4999 17.2314 22.499C17.223 22.4973 17.2109 22.4924 17.2002 22.4756L17.1953 22.4678L17.1836 22.4395C17.1819 22.4305 17.1822 22.4209 17.1836 22.4111C17.1856 22.4021 17.1883 22.3889 17.1924 22.3711C17.2006 22.3352 17.2124 22.2819 17.2275 22.2148C17.2579 22.0805 17.3011 21.8882 17.3516 21.6572C17.4524 21.1956 17.5836 20.5758 17.7041 19.9443C17.8241 19.3152 17.9358 18.6645 17.9951 18.1445C18.0245 17.8866 18.0427 17.6454 18.04 17.4492C18.0387 17.3522 18.0327 17.2485 18.0137 17.1523C17.9988 17.0774 17.9595 16.9111 17.8262 16.7793L17.7012 16.6562L17.5254 16.6377C17.3223 16.6169 16.9283 16.6283 16.54 16.6299C16.1217 16.6316 15.6384 16.6242 15.1719 16.5771C14.6986 16.5294 14.2792 16.4432 13.9736 16.3047C13.6711 16.1675 13.5551 16.017 13.5225 15.8682L13.5215 15.8643C13.5121 15.8221 13.4924 15.6761 13.5029 15.5137C13.5144 15.3375 13.5549 15.2456 13.5771 15.2188L13.6074 15.1836L13.6123 15.1729C13.6168 15.1686 13.6231 15.1632 13.6309 15.1562C13.6663 15.1248 13.721 15.0822 13.7959 15.0273C13.9449 14.9181 14.1502 14.7807 14.3945 14.626C14.8815 14.3175 15.4986 13.9541 16.0742 13.624L16.0762 13.6221C16.7142 13.2517 17.2607 12.9436 17.7061 12.7402C17.9278 12.639 18.1099 12.5708 18.2549 12.5332C18.4054 12.4942 18.4777 12.4989 18.498 12.5029ZM23.4971 16.1396L23.4941 16.1387C23.4938 16.1385 23.4932 16.1381 23.4922 16.1377L23.4971 16.1396Z" fill="#18191B" stroke="#18191B"/>
<path d="M19.9414 10.6709C20.3981 10.363 21.0193 10.4831 21.3291 10.9404C21.6374 11.3983 21.5165 12.0213 21.0596 12.3291H21.0586C20.6008 12.637 19.979 12.5162 19.6719 12.0596L19.6182 11.9717C19.3785 11.5252 19.5106 10.961 19.9404 10.6699L19.9414 10.6709Z" fill="#18191B" stroke="#18191B"/>
<path d="M24.7148 14.6318C26.7607 15.2408 30.4696 17.1186 32.4492 20.8906C31.8893 22.2211 30.7557 23.0404 29.4805 23.5205C28.1385 24.0258 26.6994 24.1314 25.7979 24.0732L25.7822 24.0723H10.5908C9.86702 23.9878 8.9072 23.6676 8.25586 23.0166C7.68583 22.4468 7.30153 21.5757 7.61035 20.2168C8.71783 20.2948 10.3271 20.5957 11.6943 21.3955C14.487 23.3846 17.7439 23.7652 20.3525 22.1709L20.4209 22.1299L20.4502 22.1045L20.4805 22.0781C22.0433 20.7441 24.4174 20.1466 26.5176 21.4072C26.9911 21.6914 27.6053 21.5378 27.8896 21.0645C28.1739 20.5908 28.0202 19.9766 27.5469 19.6924C24.5612 17.9002 21.2974 18.7976 19.2559 20.4961C17.4842 21.5472 15.108 21.3903 12.8145 19.7383H12.8154L12.7969 19.7256L12.7783 19.7119L12.7588 19.7002L12.7393 19.6895V19.6885L12.4131 19.5059C11.1282 18.817 9.7451 18.4723 8.60449 18.3135C9.67151 17.0216 10.7437 16.7256 11.1133 16.7256H11.1299L11.1465 16.7246C11.9737 16.6695 12.6388 16.7098 14.5986 17.4189C16.5331 18.7009 17.9047 19.1881 19.0156 19.04C20.0939 18.8963 20.7893 18.1689 21.4023 17.4219C21.9729 17.2959 22.7366 17.0197 23.3936 16.542C23.9931 16.1061 24.5316 15.4786 24.7148 14.6318Z" fill="#18191B" stroke="#18191B"/>
<path d="M8 28.2038C8.7619 28.4666 10.8571 29.1498 13.1429 27.6997C13.1429 27.4154 15.8786 27.6805 17.9048 28.5192C20.9524 29.7806 23.3296 28.2564 24.9524 27.4154C26.0952 26.627 30.0952 26.9424 32 28.5192" fill="#18191B"/>
<path d="M8 28.2038C8.7619 28.4666 10.8571 29.1498 13.1429 27.6997C13.1429 27.4154 15.8786 27.6805 17.9048 28.5192C20.9524 29.7806 23.3296 28.2564 24.9524 27.4154C26.0952 26.627 30.0952 26.9424 32 28.5192" stroke="#18191B" stroke-width="1.5"/>
</g>
<defs>
<clipPath id="clip0_770_361">
<rect width="40" height="40" fill="white"/>
</clipPath>
</defs>
</svg>
