<svg width="40" height="40" viewBox="0 0 40 40" fill="none" xmlns="http://www.w3.org/2000/svg">
<g clip-path="url(#clip0_770_367)">
<path d="M30 0.75H10C4.89137 0.75 0.75 4.89137 0.75 10V30C0.75 35.1086 4.89137 39.25 10 39.25H30C35.1086 39.25 39.25 35.1086 39.25 30V10C39.25 4.89137 35.1086 0.75 30 0.75Z" fill="white"/>
<path d="M13.209 7.6123C13.3077 7.48596 13.4888 7.46402 13.6113 7.55859V7.55957C13.673 7.6078 13.7111 7.6801 13.7188 7.75879C13.7437 8.04991 13.9622 10.6655 13.9912 11.8662C14.0252 13.5606 13.6852 15.3243 12.8828 16.8965L12.25 18.1377L13.5273 17.583C13.9994 17.3781 14.7616 17.1089 15.4883 16.8447C15.8455 16.7149 16.192 16.5863 16.4775 16.4717C16.7373 16.3674 16.9949 16.2547 17.1553 16.1494L17.1562 16.1504C17.1583 16.1491 17.1601 16.1468 17.1621 16.1455C17.1649 16.1436 17.1682 16.1425 17.1709 16.1406L17.1699 16.1396C17.2954 16.056 17.3725 15.9441 17.4209 15.833C17.5654 15.9628 17.7248 16.0798 17.8994 16.1807V16.1816C17.9777 16.2273 18.0575 16.2674 18.1377 16.3037C17.8946 16.6068 17.5648 16.894 17.2393 17.1289H17.2383C16.3712 17.7554 15.4099 18.2503 14.4014 18.6006L13.8369 18.7969L14.1289 19.3174L15.5029 21.7676C15.7201 22.1824 15.8595 22.4497 15.9473 22.6582C16.032 22.8595 16.0474 22.9615 16.0449 23.041C16.0297 23.3287 15.913 23.6536 15.7148 23.9473C15.5145 24.244 15.2545 24.4733 14.998 24.5918L14.9941 24.5938C14.641 24.7609 14.1473 24.7574 13.6934 24.5781L13.5225 24.5098L13.3486 24.5693C13.3408 24.572 13.33 24.5748 13.3203 24.5771C13.3159 24.5782 13.312 24.5788 13.3105 24.5791L13.2793 24.585L13.2471 24.5957C11.977 25.0115 10.3784 25.0601 8.87207 23.7002L8.86133 23.6904L8.84961 23.6816L8.66699 23.5273C8.47937 23.3604 8.27847 23.1574 8.0957 22.9443C7.84709 22.6544 7.65936 22.3758 7.57129 22.1621H7.56934C7.55824 22.1348 7.54264 22.1067 7.52344 22.0771L7.52734 22.0762C7.48179 22.0054 7.49546 21.9175 7.55371 21.8662C7.57465 21.8493 7.59797 21.8382 7.62598 21.832L7.63086 21.8311H7.66016L7.66992 21.8262C7.6773 21.8276 7.6852 21.8279 7.69336 21.8291V21.8301C7.73015 21.8364 7.76322 21.8545 7.78711 21.8828L7.79297 21.8906L7.7998 21.8984C7.80609 21.9066 7.82538 21.9308 7.86621 21.9814C7.91739 22.045 7.98785 22.132 8.06934 22.2295C8.22967 22.4213 8.44261 22.6668 8.63574 22.8555L8.64258 22.8623L8.64941 22.8682C8.84426 23.0446 9.31616 23.4745 9.95996 23.8105C10.6042 24.1468 11.4618 24.4112 12.4131 24.2002L12.9912 24.0723L12.7676 23.5234L11.0068 19.1934L11.002 19.1816L10.9961 19.1699L10.9385 19.0273C10.826 18.6925 10.8565 18.3383 11.002 18.0342L11.0303 17.9736L11.043 17.9082C11.0695 17.7631 11.1312 17.5897 11.2256 17.3867C11.9277 16.1212 12.2758 15.3722 12.4561 14.874C12.6432 14.3566 12.6527 14.0908 12.6836 13.9102L12.6865 13.8916L12.6875 13.874C12.7183 13.5548 12.8365 12.011 12.9453 10.5586C12.9999 9.83004 13.0518 9.12061 13.0908 8.59375C13.1103 8.33061 13.1265 8.11292 13.1377 7.96094C13.1433 7.8849 13.1484 7.82474 13.1514 7.78418C13.1522 7.77252 13.1517 7.76235 13.1523 7.75391C13.1623 7.68872 13.1829 7.6447 13.207 7.61426L13.209 7.6123ZM7.5127 21.8252C7.51095 21.825 7.50927 21.8254 7.50781 21.8252C7.50653 21.825 7.50507 21.8244 7.50391 21.8242C7.50626 21.8246 7.50923 21.8247 7.5127 21.8252ZM16.5527 10.0254C16.6534 9.89979 16.8288 9.87929 16.9502 9.96484L16.9707 9.98535L17 10.0186L17.0254 10.0615L17.0439 10.082L17.0557 10.0996C17.2925 10.4634 17.4806 10.9324 17.6621 11.3994C17.364 11.614 17.1035 11.8867 16.9033 12.21C16.8524 12.0038 16.8028 11.8019 16.7568 11.6074C16.6297 11.0694 16.5373 10.619 16.5088 10.3145V10.293L16.501 10.249C16.4862 10.1675 16.5036 10.0892 16.5527 10.0254Z" fill="#18191B" stroke="#18191B"/>
<path d="M18.4092 23.8224H18.4102C19.3786 23.958 20.05 24.8495 19.9121 25.8137V25.8156C19.786 26.7217 18.9916 27.3716 18.0996 27.3361L17.9199 27.3195H17.918C16.953 27.1872 16.2815 26.2944 16.416 25.3264C16.5502 24.3615 17.4431 23.6875 18.4092 23.8224Z" fill="#18191B" stroke="#18191B"/>
<path d="M22.9609 14.7722C23.4197 14.7333 23.7937 14.8515 24.0059 15.0681L27.3184 19.0554L27.3311 19.0701L27.3447 19.0847C27.3837 19.1246 27.4562 19.2401 27.541 19.4617C27.6202 19.6687 27.6925 19.9188 27.7559 20.1765C27.8188 20.4325 27.8707 20.6866 27.9121 20.8992C27.9464 21.0752 27.9776 21.2454 27.999 21.3455H28C28.2261 22.7885 28.4143 23.5985 28.5801 24.1052C28.7517 24.6298 28.9086 24.8449 28.9971 25.0076L29.0049 25.0212L29.0137 25.0349C29.353 25.5721 31.9254 29.302 32.4053 30.0017L32.417 30.0193L32.4307 30.0359C32.4378 30.0446 32.4415 30.0497 32.4434 30.0525L32.4443 30.0544L32.4902 30.1687C32.4935 30.1876 32.4975 30.2043 32.499 30.2214C32.4952 30.3792 32.3641 30.5056 32.2109 30.5056C32.206 30.5056 32.1899 30.5049 32.1494 30.4919L32.1152 30.4812C32.078 30.4678 32.0489 30.4504 32.0225 30.4265L31.998 30.406L31.9727 30.3875L31.8135 30.2703C31.4368 29.9775 31.0223 29.5546 30.5967 29.073C30.3551 28.7996 30.1168 28.516 29.8867 28.2361L29.2227 27.4226C28.0312 25.9594 27.1474 24.1462 26.9023 22.1863H26.9014C26.8863 22.0667 26.8686 21.9433 26.8506 21.7849L26.8008 21.3416H26.3545C26.291 21.3416 26.224 21.3358 26.1543 21.324L25.835 21.2693L25.6553 21.5388C25.5638 21.6754 25.4523 21.8137 25.333 21.9568C25.2269 22.084 25.1019 22.2282 25.002 22.3552C24.6847 22.7051 24.0796 23.2621 23.4854 23.8142C23.1924 24.0864 22.9056 24.3548 22.6729 24.5847C22.4602 24.7948 22.2524 25.0114 22.1416 25.1775H22.1406C21.9542 25.4474 22.03 25.7581 22.0742 25.9021C22.1303 26.0848 22.2286 26.2825 22.3389 26.4753C22.5621 26.8657 22.8939 27.3356 23.2412 27.8083C23.6144 28.3164 23.9479 28.751 24.2979 29.2292C24.5482 29.5713 24.7596 29.8742 24.9102 30.1179L25.04 30.3416L25.041 30.3425C25.0423 30.3453 25.0438 30.3496 25.0459 30.3542C25.0544 30.3736 25.0671 30.4025 25.0791 30.4353C25.0913 30.4687 25.101 30.5003 25.1074 30.5261C25.1098 30.5355 25.1105 30.5425 25.1113 30.5466C25.1073 30.7013 24.9779 30.8279 24.8262 30.8279C24.7905 30.8278 24.7523 30.8189 24.7109 30.8015C24.6723 30.7835 24.6442 30.763 24.6221 30.739L24.5938 30.7078L24.5596 30.6824L24.3359 30.4763C24.227 30.3699 24.0854 30.2274 23.9189 30.0515C23.5968 29.7112 23.2031 29.2731 22.8115 28.8025C22.4193 28.3312 22.0342 27.8326 21.7246 27.3699C21.4093 26.8984 21.1987 26.5028 21.1201 26.2263H21.1211C21.0564 25.9878 21.0857 25.6792 21.2031 25.3191C21.3186 24.9654 21.503 24.6105 21.6855 24.3064L21.6846 24.3054C22.4543 23.0409 23.4905 21.9341 24.6904 21.0642L25.1797 20.7087L24.7393 20.2947L23.3086 18.9509L22.7754 18.4509L22.5029 19.1287C22.0034 20.37 21.0094 21.6233 18.999 21.9011L18.9844 21.9031L18.9697 21.906C18.6757 21.9644 18.296 22.0064 17.9229 22.0115C17.6294 22.0155 17.3645 21.9957 17.1572 21.9548L17.1367 21.9187L16.9189 21.8914L16.915 21.8904H16.9082L16.8926 21.8884L16.833 21.8699C16.7807 21.8423 16.749 21.789 16.749 21.7312C16.7491 21.7055 16.754 21.6838 16.7676 21.658L16.7773 21.6375C16.7819 21.6319 16.7889 21.6231 16.8008 21.6111C16.8027 21.6095 16.8055 21.6089 16.8076 21.6072C16.8425 21.5781 16.8789 21.5662 16.9131 21.5662C16.9315 21.5674 17.7001 21.5937 18.207 21.5408H18.2148L18.2236 21.5388C18.5438 21.4944 19.4468 21.3754 20.291 20.8982C21.1614 20.4062 21.9783 19.5253 22.0518 18.0154L22.0625 17.7839L21.8936 17.6257L21.6699 17.4167C21.4437 17.1788 21.3194 16.791 21.3438 16.3533C21.3683 15.9127 21.5395 15.5063 21.7939 15.2615L21.7949 15.2595C22.0628 15.0001 22.5033 14.8111 22.9609 14.7722Z" fill="#18191B" stroke="#18191B"/>
<path d="M17.7993 12.8253C18.2875 11.9832 19.3706 11.6949 20.2124 12.1808V12.1798C21.0576 12.6702 21.3477 13.7499 20.8589 14.5939H20.8579C20.3686 15.4403 19.2893 15.7297 18.4448 15.2433H18.4438C17.6006 14.7537 17.3123 13.6712 17.7993 12.8253Z" fill="#18191B" stroke="#18191B"/>
<mask id="path-6-inside-1_770_367" fill="white">
<path d="M27.548 19.771C27.5783 19.7752 27.6122 19.7855 27.6452 19.795C27.6541 19.8013 27.6629 19.8075 27.675 19.8091C27.7111 19.8277 27.7448 19.8514 27.7732 19.8849C27.7975 19.9087 27.8168 19.9358 27.8295 19.9651C27.84 19.986 27.847 20.0079 27.8524 20.0287C27.8561 20.0346 27.8581 20.0395 27.8601 20.0477C27.871 20.1062 27.8748 20.1632 27.859 20.2234L27.8638 20.2165C27.859 20.2403 27.8535 20.267 27.8444 20.2911L31.3026 19.4298L31.1615 18.8625L28.3372 19.5647L29.9534 17.3462L29.4793 17L27.504 19.7129L27.5 19.7712C27.5146 19.7713 27.5308 19.769 27.548 19.771Z"/>
</mask>
<path d="M27.548 19.771C27.5783 19.7752 27.6122 19.7855 27.6452 19.795C27.6541 19.8013 27.6629 19.8075 27.675 19.8091C27.7111 19.8277 27.7448 19.8514 27.7732 19.8849C27.7975 19.9087 27.8168 19.9358 27.8295 19.9651C27.84 19.986 27.847 20.0079 27.8524 20.0287C27.8561 20.0346 27.8581 20.0395 27.8601 20.0477C27.871 20.1062 27.8748 20.1632 27.859 20.2234L27.8638 20.2165C27.859 20.2403 27.8535 20.267 27.8444 20.2911L31.3026 19.4298L31.1615 18.8625L28.3372 19.5647L29.9534 17.3462L29.4793 17L27.504 19.7129L27.5 19.7712C27.5146 19.7713 27.5308 19.769 27.548 19.771Z" fill="#18191B"/>
<path d="M27.548 19.771L27.6853 18.7805L27.6744 18.779L27.6635 18.7777L27.548 19.771ZM27.6452 19.795L28.223 18.9788L28.0847 18.8809L27.9218 18.834L27.6452 19.795ZM27.675 19.8091L28.133 18.9202L27.9785 18.8405L27.8061 18.8177L27.675 19.8091ZM27.7732 19.8849L27.0104 20.5316L27.0404 20.5669L27.0735 20.5993L27.7732 19.8849ZM27.8295 19.9651L26.912 20.3628L26.9232 20.3887L26.9359 20.414L27.8295 19.9651ZM27.8524 20.0287L26.8845 20.28L26.9233 20.4293L27.0052 20.56L27.8524 20.0287ZM27.8601 20.0477L28.8432 19.8645L28.8381 19.8375L28.8316 19.8107L27.8601 20.0477ZM27.859 20.2234L26.8918 19.9695L28.6799 20.7945L27.859 20.2234ZM27.8638 20.2165L28.8441 20.4142L27.0429 19.6454L27.8638 20.2165ZM27.8444 20.2911L26.9089 19.9378L26.235 21.7225L28.0861 21.2615L27.8444 20.2911ZM31.3026 19.4298L31.5443 20.4002L32.5143 20.1586L32.273 19.1884L31.3026 19.4298ZM31.1615 18.8625L32.1319 18.6211L31.8906 17.6508L30.9202 17.892L31.1615 18.8625ZM28.3372 19.5647L27.5289 18.9759L25.9096 21.1987L28.5785 20.5352L28.3372 19.5647ZM29.9534 17.3462L30.7617 17.935L31.3498 17.1277L30.5431 16.5386L29.9534 17.3462ZM29.4793 17L30.069 16.1924L29.2603 15.6019L28.6709 16.4114L29.4793 17ZM27.504 19.7129L26.6956 19.1243L26.5261 19.3571L26.5063 19.6445L27.504 19.7129ZM27.5 19.7712L26.5023 19.7028L26.4295 20.7639L27.4932 20.7712L27.5 19.7712ZM27.548 19.771L27.4107 20.7615C27.3889 20.7585 27.3721 20.7552 27.3618 20.753C27.3514 20.7508 27.3444 20.749 27.3425 20.7484C27.3406 20.7479 27.3409 20.748 27.3458 20.7494C27.3482 20.7501 27.3509 20.7509 27.3549 20.752C27.3583 20.753 27.3636 20.7545 27.3686 20.756L27.6452 19.795L27.9218 18.834C27.9155 18.8322 27.8806 18.8219 27.8487 18.8136C27.8149 18.8047 27.7561 18.7903 27.6853 18.7805L27.548 19.771ZM27.6452 19.795L27.0674 20.6112C27.0678 20.6115 27.0834 20.6226 27.1019 20.6348C27.1219 20.648 27.1534 20.6678 27.1935 20.6889C27.2781 20.7334 27.3964 20.781 27.5439 20.8005L27.675 19.8091L27.8061 18.8177C28.0713 18.8528 28.2505 18.9983 28.223 18.9788L27.6452 19.795ZM27.675 19.8091L27.217 20.698C27.1693 20.6734 27.0876 20.6227 27.0104 20.5316L27.7732 19.8849L28.536 19.2382C28.402 19.0801 28.2529 18.9819 28.133 18.9202L27.675 19.8091ZM27.7732 19.8849L27.0735 20.5993C27.0167 20.5437 26.9567 20.4659 26.912 20.3628L27.8295 19.9651L28.747 19.5674C28.6769 19.4057 28.5783 19.2737 28.4729 19.1705L27.7732 19.8849ZM27.8295 19.9651L26.9359 20.414C26.9022 20.347 26.8881 20.2939 26.8845 20.28L27.8524 20.0287L28.8203 19.7774C28.8059 19.7219 28.7778 19.625 28.7231 19.5162L27.8295 19.9651ZM27.8524 20.0287L27.0052 20.56C26.982 20.5229 26.9547 20.4737 26.9303 20.4134C26.9073 20.3567 26.8947 20.3099 26.8886 20.2847L27.8601 20.0477L28.8316 19.8107C28.809 19.7178 28.77 19.6096 28.6996 19.4974L27.8524 20.0287ZM27.8601 20.0477L26.877 20.2309C26.8741 20.2154 26.8553 20.1085 26.8918 19.9695L27.859 20.2234L28.8262 20.4773C28.8943 20.2179 28.8679 19.997 28.8432 19.8645L27.8601 20.0477ZM27.859 20.2234L28.6799 20.7945L28.6847 20.7876L27.8638 20.2165L27.0429 19.6454L27.0381 19.6523L27.859 20.2234ZM27.8638 20.2165L26.8835 20.0188C26.881 20.0315 26.8821 20.0252 26.8846 20.015C26.8873 20.0042 26.8946 19.9756 26.9089 19.9378L27.8444 20.2911L28.7799 20.6443C28.8221 20.5326 28.8414 20.4276 28.8441 20.4142L27.8638 20.2165ZM27.8444 20.2911L28.0861 21.2615L31.5443 20.4002L31.3026 19.4298L31.0609 18.4594L27.6027 19.3207L27.8444 20.2911ZM31.3026 19.4298L32.273 19.1884L32.1319 18.6211L31.1615 18.8625L30.1911 19.1039L30.3322 19.6712L31.3026 19.4298ZM31.1615 18.8625L30.9202 17.892L28.0959 18.5942L28.3372 19.5647L28.5785 20.5352L31.4028 19.833L31.1615 18.8625ZM28.3372 19.5647L29.1455 20.1535L30.7617 17.935L29.9534 17.3462L29.1451 16.7574L27.5289 18.9759L28.3372 19.5647ZM29.9534 17.3462L30.5431 16.5386L30.069 16.1924L29.4793 17L28.8896 17.8076L29.3637 18.1538L29.9534 17.3462ZM29.4793 17L28.6709 16.4114L26.6956 19.1243L27.504 19.7129L28.3124 20.3015L30.2877 17.5886L29.4793 17ZM27.504 19.7129L26.5063 19.6445L26.5023 19.7028L27.5 19.7712L28.4977 19.8396L28.5017 19.7813L27.504 19.7129ZM27.5 19.7712L27.4932 20.7712C27.5225 20.7714 27.5464 20.7704 27.5556 20.7699C27.56 20.7697 27.5652 20.7695 27.5652 20.7695C27.5666 20.7694 27.5648 20.7695 27.5619 20.7696C27.5563 20.7698 27.5404 20.7704 27.5192 20.7701C27.4975 20.7697 27.4678 20.7684 27.4325 20.7643L27.548 19.771L27.6635 18.7777C27.5783 18.7678 27.5096 18.7702 27.4841 18.7711C27.4773 18.7714 27.4715 18.7717 27.4689 18.7718C27.465 18.772 27.4663 18.7719 27.4669 18.7719C27.4684 18.7718 27.4848 18.7711 27.5068 18.7712L27.5 19.7712Z" fill="#18191B" mask="url(#path-6-inside-1_770_367)"/>
<mask id="path-8-inside-2_770_367" fill="white">
<path d="M10.6596 18.9351C10.6503 18.906 10.6449 18.871 10.6392 18.8371C10.641 18.8265 10.6427 18.8158 10.639 18.8042C10.6401 18.7635 10.6469 18.723 10.6648 18.6829C10.6757 18.6506 10.6918 18.6215 10.7127 18.5973C10.727 18.5789 10.7437 18.5631 10.7601 18.5492C10.7639 18.5433 10.7674 18.5394 10.7739 18.534C10.8219 18.4989 10.8717 18.4708 10.9327 18.4589L10.9245 18.4576C10.948 18.4516 10.9745 18.445 11.0002 18.4428L8.72656 15.6984L8.27627 16.0712L10.1319 18.3131L7.43252 17.8167L7.32568 18.3939L10.6263 19L10.6806 18.9783C10.6743 18.9652 10.6653 18.9516 10.6596 18.9351Z"/>
</mask>
<path d="M10.6596 18.9351C10.6503 18.906 10.6449 18.871 10.6392 18.8371C10.641 18.8265 10.6427 18.8158 10.639 18.8042C10.6401 18.7635 10.6469 18.723 10.6648 18.6829C10.6757 18.6506 10.6918 18.6215 10.7127 18.5973C10.727 18.5789 10.7437 18.5631 10.7601 18.5492C10.7639 18.5433 10.7674 18.5394 10.7739 18.534C10.8219 18.4989 10.8717 18.4708 10.9327 18.4589L10.9245 18.4576C10.948 18.4516 10.9745 18.445 11.0002 18.4428L8.72656 15.6984L8.27627 16.0712L10.1319 18.3131L7.43252 17.8167L7.32568 18.3939L10.6263 19L10.6806 18.9783C10.6743 18.9652 10.6653 18.9516 10.6596 18.9351Z" fill="#18191B"/>
<path d="M10.6596 18.9351L9.70711 19.2395L9.71065 19.2506L9.71445 19.2616L10.6596 18.9351ZM10.6392 18.8371L9.65336 18.6697L9.62507 18.8363L9.65309 19.0029L10.6392 18.8371ZM10.639 18.8042L9.63941 18.7772L9.63483 18.9466L9.68633 19.1081L10.639 18.8042ZM10.6648 18.6829L11.578 19.0905L11.5972 19.0474L11.6123 19.0026L10.6648 18.6829ZM10.7127 18.5973L11.4696 19.2509L11.4865 19.2313L11.5023 19.2109L10.7127 18.5973ZM10.7601 18.5492L11.4067 19.3121L11.5203 19.2158L11.6009 19.0907L10.7601 18.5492ZM10.7739 18.534L10.1837 17.7268L10.1587 17.745L10.1349 17.7648L10.7739 18.534ZM10.9327 18.4589L11.1242 19.4404L11.0894 17.4712L10.9327 18.4589ZM10.9245 18.4576L10.6772 17.4887L10.7679 19.4452L10.9245 18.4576ZM11.0002 18.4428L11.0855 19.4392L12.9893 19.2762L11.7703 17.8048L11.0002 18.4428ZM8.72656 15.6984L9.49662 15.0604L8.85886 14.2906L8.08885 14.9281L8.72656 15.6984ZM8.27627 16.0712L7.63856 15.3009L6.86837 15.9386L7.50593 16.7088L8.27627 16.0712ZM10.1319 18.3131L9.95108 19.2966L12.6558 19.794L10.9023 17.6755L10.1319 18.3131ZM7.43252 17.8167L7.61338 16.8332L6.63102 16.6525L6.44923 17.6347L7.43252 17.8167ZM7.32568 18.3939L6.34239 18.2119L6.16012 19.1966L7.14507 19.3774L7.32568 18.3939ZM10.6263 19L10.4457 19.9835L10.7295 20.0357L10.9974 19.9286L10.6263 19ZM10.6806 18.9783L11.0517 19.9069L12.0458 19.5096L11.5818 18.5449L10.6806 18.9783ZM10.6596 18.9351L11.6122 18.6307C11.6188 18.6515 11.6231 18.668 11.6255 18.6782C11.628 18.6885 11.6294 18.6955 11.6298 18.6975C11.6302 18.6994 11.6301 18.6991 11.6292 18.6942C11.6288 18.6918 11.6284 18.689 11.6277 18.6851C11.6271 18.6817 11.6262 18.6762 11.6254 18.6713L10.6392 18.8371L9.65309 19.0029C9.65429 19.0101 9.66006 19.0457 9.66639 19.0783C9.67306 19.1127 9.68544 19.1717 9.70711 19.2395L10.6596 18.9351ZM10.6392 18.8371L11.6251 19.0045C11.6255 19.0022 11.6288 18.9833 11.6318 18.9605C11.635 18.9363 11.6391 18.8998 11.6406 18.8554C11.6438 18.7623 11.6358 18.6384 11.5918 18.5003L10.639 18.8042L9.68633 19.1081C9.60731 18.8603 9.65758 18.6448 9.65336 18.6697L10.6392 18.8371ZM10.639 18.8042L11.6387 18.8312C11.6372 18.8863 11.6264 18.982 11.578 19.0905L10.6648 18.6829L9.75169 18.2753C9.66745 18.464 9.6431 18.6407 9.63941 18.7772L10.639 18.8042ZM10.6648 18.6829L11.6123 19.0026C11.5863 19.0798 11.5418 19.1672 11.4696 19.2509L10.7127 18.5973L9.95592 17.9437C9.84184 18.0758 9.76517 18.2214 9.71734 18.3631L10.6648 18.6829ZM10.7127 18.5973L11.5023 19.2109C11.4576 19.2686 11.4172 19.3032 11.4067 19.3121L10.7601 18.5492L10.1136 17.7863C10.0703 17.823 9.99653 17.8892 9.92316 17.9837L10.7127 18.5973ZM10.7601 18.5492L11.6009 19.0907C11.5796 19.1237 11.5489 19.1667 11.5072 19.2127C11.4677 19.2563 11.4325 19.2869 11.413 19.3032L10.7739 18.534L10.1349 17.7648C10.0619 17.8255 9.98627 17.9039 9.91943 18.0077L10.7601 18.5492ZM10.7739 18.534L11.3642 19.3412C11.3515 19.3505 11.2641 19.4131 11.1242 19.4404L10.9327 18.4589L10.7413 17.4774C10.4794 17.5285 10.2924 17.6473 10.1837 17.7268L10.7739 18.534ZM10.9327 18.4589L11.0894 17.4712L11.0812 17.4699L10.9245 18.4576L10.7679 19.4452L10.7761 19.4465L10.9327 18.4589ZM10.9245 18.4576L11.1719 19.4265C11.1837 19.4235 11.1773 19.4253 11.1665 19.4275C11.1552 19.4299 11.126 19.4357 11.0855 19.4392L11.0002 18.4428L10.915 17.4464C10.7951 17.4567 10.6919 17.4849 10.6772 17.4887L10.9245 18.4576ZM11.0002 18.4428L11.7703 17.8048L9.49662 15.0604L8.72656 15.6984L7.95651 16.3364L10.2302 19.0808L11.0002 18.4428ZM8.72656 15.6984L8.08885 14.9281L7.63856 15.3009L8.27627 16.0712L8.91399 16.8415L9.36428 16.4687L8.72656 15.6984ZM8.27627 16.0712L7.50593 16.7088L9.3616 18.9507L10.1319 18.3131L10.9023 17.6755L9.04662 15.4336L8.27627 16.0712ZM10.1319 18.3131L10.3128 17.3296L7.61338 16.8332L7.43252 17.8167L7.25166 18.8002L9.95108 19.2966L10.1319 18.3131ZM7.43252 17.8167L6.44923 17.6347L6.34239 18.2119L7.32568 18.3939L8.30898 18.5759L8.41582 17.9987L7.43252 17.8167ZM7.32568 18.3939L7.14507 19.3774L10.4457 19.9835L10.6263 19L10.807 18.0164L7.50629 17.4103L7.32568 18.3939ZM10.6263 19L10.9974 19.9286L11.0517 19.9069L10.6806 18.9783L10.3096 18.0497L10.2553 18.0714L10.6263 19ZM10.6806 18.9783L11.5818 18.5449C11.5701 18.5204 11.5595 18.5008 11.5558 18.4939C11.5547 18.4919 11.5537 18.4901 11.5532 18.489C11.5524 18.4875 11.5523 18.4875 11.552 18.487C11.5517 18.4863 11.5527 18.4881 11.5542 18.4909C11.5594 18.5009 11.5831 18.5456 11.6048 18.6086L10.6596 18.9351L9.71445 19.2616C9.7419 19.3411 9.77291 19.4008 9.78568 19.425C9.78982 19.4328 9.79904 19.4499 9.79519 19.4427C9.79513 19.4426 9.78808 19.4297 9.77944 19.4117L10.6806 18.9783Z" fill="#18191B" mask="url(#path-8-inside-2_770_367)"/>
</g>
<defs>
<clipPath id="clip0_770_367">
<rect width="40" height="40" fill="white"/>
</clipPath>
</defs>
</svg>
