<svg width="40" height="40" viewBox="0 0 40 40" fill="none" xmlns="http://www.w3.org/2000/svg">
<g clip-path="url(#clip0_770_375)">
<path d="M30 0.75H10C4.89137 0.75 0.75 4.89137 0.75 10V30C0.75 35.1086 4.89137 39.25 10 39.25H30C35.1086 39.25 39.25 35.1086 39.25 30V10C39.25 4.89137 35.1086 0.75 30 0.75Z" fill="white"/>
<path d="M13.209 7.61227C13.3077 7.48593 13.4888 7.46398 13.6113 7.55856V7.55954C13.673 7.60777 13.7111 7.68007 13.7188 7.75876C13.7405 8.01326 13.9109 10.0443 13.9727 11.3535L13.9912 11.8672C14.0251 13.5612 13.685 15.3245 12.8828 16.8965L12.25 18.1377L13.5273 17.583C13.9993 17.378 14.7616 17.1089 15.4883 16.8447C15.8455 16.7148 16.192 16.5863 16.4775 16.4716C16.7372 16.3674 16.9948 16.2547 17.1553 16.1494L17.1562 16.1504C17.1583 16.1491 17.1601 16.1468 17.1621 16.1455C17.1649 16.1436 17.1682 16.1425 17.1709 16.1406L17.1699 16.1396C17.2954 16.056 17.3725 15.944 17.4209 15.833C17.5654 15.9627 17.7248 16.0798 17.8994 16.1806V16.1816C17.9777 16.2272 18.0575 16.2673 18.1377 16.3037C17.8946 16.6068 17.5648 16.894 17.2393 17.1289C16.372 17.7554 15.41 18.2502 14.4014 18.6006L13.8369 18.7968L14.1289 19.3174L15.5029 21.7675C15.7201 22.1824 15.8595 22.4497 15.9473 22.6582C16.032 22.8595 16.0474 22.9614 16.0449 23.041C16.0297 23.3287 15.913 23.6536 15.7148 23.9472C15.5145 24.244 15.2545 24.4732 14.998 24.5918L14.9941 24.5937C14.6409 24.7608 14.1472 24.7574 13.6934 24.5781L13.5225 24.5097L13.3486 24.5693C13.3404 24.5721 13.3294 24.5757 13.3193 24.5781L13.3125 24.5791L13.2793 24.5849L13.2471 24.5957C11.977 25.0115 10.3784 25.0601 8.87207 23.7002L8.86133 23.6904L8.84961 23.6816L8.66797 23.5273C8.48019 23.3602 8.27864 23.1576 8.0957 22.9443C7.84707 22.6544 7.65936 22.3758 7.57129 22.1621H7.56934C7.5582 22.1346 7.54334 22.1064 7.52441 22.0771L7.52637 22.0761C7.48036 22.0047 7.49562 21.9153 7.55566 21.8642C7.57579 21.8484 7.59856 21.838 7.62598 21.832L7.63086 21.831H7.66016L7.66992 21.8261C7.6773 21.8276 7.6852 21.8278 7.69336 21.8291V21.83C7.72968 21.8362 7.76309 21.8543 7.78711 21.8828L7.79297 21.8906L7.7998 21.8984C7.80607 21.9066 7.82534 21.9307 7.86621 21.9814C7.91738 22.0449 7.98785 22.132 8.06934 22.2295C8.22967 22.4213 8.44261 22.6667 8.63574 22.8554L8.64258 22.8623L8.64941 22.8681C8.84427 23.0446 9.31616 23.4745 9.95996 23.8105C10.6042 24.1468 11.4618 24.4111 12.4131 24.2002L12.9912 24.0722L12.7676 23.5234L11.0068 19.1933L11.002 19.1816L10.9961 19.1699L10.9385 19.0273C10.826 18.6925 10.8565 18.3382 11.002 18.0341L11.0303 17.9736L11.043 17.9082C11.0695 17.7631 11.1312 17.5897 11.2256 17.3867C11.9277 16.1211 12.2758 15.3722 12.4561 14.874C12.6431 14.3567 12.6527 14.0908 12.6836 13.9101L12.6865 13.8916L12.6875 13.874C12.7183 13.5548 12.8365 12.011 12.9453 10.5586C12.9999 9.83 13.0518 9.12058 13.0908 8.59372C13.1103 8.33058 13.1265 8.11289 13.1377 7.96091C13.1433 7.88487 13.1484 7.82471 13.1514 7.78415C13.1522 7.77249 13.1517 7.76232 13.1523 7.75388C13.1623 7.68869 13.1829 7.64467 13.207 7.61423L13.209 7.61227ZM7.5127 21.8252C7.51095 21.825 7.50927 21.8253 7.50781 21.8252C7.50653 21.825 7.50507 21.8243 7.50391 21.8242C7.50626 21.8246 7.50923 21.8247 7.5127 21.8252ZM16.5527 10.0254C16.6534 9.89976 16.8288 9.87927 16.9502 9.96481L16.9707 9.98532L17 10.0185L17.0254 10.0615L17.0439 10.082L17.0557 10.0996C17.2925 10.4634 17.4806 10.9324 17.6621 11.3994C17.364 11.614 17.1035 11.8867 16.9033 12.2099C16.8524 12.0037 16.8028 11.8019 16.7568 11.6074C16.6297 11.0693 16.5373 10.6189 16.5088 10.3144V10.2929L16.501 10.249C16.4862 10.1675 16.5036 10.0891 16.5527 10.0254Z" fill="#18191B" stroke="#18191B"/>
<path d="M18.4092 23.8225H18.4102C19.3786 23.9579 20.0501 24.8496 19.9121 25.8137V25.8157C19.7776 26.7821 18.8826 27.4569 17.9199 27.3196H17.918C16.9529 27.1872 16.2813 26.2937 16.416 25.3254C16.5505 24.3608 17.4433 23.6875 18.4092 23.8225Z" fill="#18191B" stroke="#18191B"/>
<path d="M22.9609 14.7722C23.4197 14.7333 23.7937 14.8515 24.0059 15.0681L27.3184 19.0554L27.3311 19.0701L27.3447 19.0847C27.3837 19.1246 27.4562 19.2401 27.541 19.4617C27.6202 19.6687 27.6925 19.9188 27.7559 20.1765C27.8188 20.4325 27.8707 20.6866 27.9121 20.8992C27.9464 21.0752 27.9776 21.2454 27.999 21.3455H28C28.2261 22.7885 28.4143 23.5985 28.5801 24.1052C28.7517 24.6298 28.9086 24.8449 28.9971 25.0076L29.0049 25.0212L29.0137 25.0349C29.353 25.5721 31.9254 29.302 32.4053 30.0017L32.417 30.0193L32.4307 30.0359C32.4378 30.0446 32.4415 30.0497 32.4434 30.0525L32.4443 30.0544L32.4902 30.1687C32.4935 30.1876 32.4975 30.2043 32.499 30.2214C32.4952 30.3792 32.3641 30.5056 32.2109 30.5056C32.206 30.5056 32.1899 30.5049 32.1494 30.4919L32.1152 30.4812C32.078 30.4678 32.0489 30.4504 32.0225 30.4265L31.998 30.406L31.9727 30.3875L31.8135 30.2703C31.4368 29.9775 31.0223 29.5546 30.5967 29.073C30.3551 28.7996 30.1168 28.516 29.8867 28.2361L29.2227 27.4226C28.0312 25.9594 27.1474 24.1462 26.9023 22.1863H26.9014C26.8863 22.0667 26.8686 21.9433 26.8506 21.7849L26.8008 21.3416H26.3545C26.291 21.3416 26.224 21.3358 26.1543 21.324L25.835 21.2693L25.6553 21.5388C25.5638 21.6754 25.4523 21.8137 25.333 21.9568C25.2269 22.084 25.1019 22.2282 25.002 22.3552C24.6847 22.7051 24.0796 23.2621 23.4854 23.8142C23.1924 24.0864 22.9056 24.3548 22.6729 24.5847C22.4602 24.7948 22.2524 25.0114 22.1416 25.1775H22.1406C21.9542 25.4474 22.03 25.7581 22.0742 25.9021C22.1303 26.0848 22.2286 26.2825 22.3389 26.4753C22.5621 26.8657 22.8939 27.3356 23.2412 27.8083C23.6144 28.3164 23.9479 28.751 24.2979 29.2292C24.5482 29.5713 24.7596 29.8742 24.9102 30.1179L25.04 30.3416L25.041 30.3425C25.0423 30.3453 25.0438 30.3496 25.0459 30.3542C25.0544 30.3736 25.0671 30.4025 25.0791 30.4353C25.0913 30.4687 25.101 30.5003 25.1074 30.5261C25.1098 30.5355 25.1105 30.5425 25.1113 30.5466C25.1073 30.7013 24.9779 30.8279 24.8262 30.8279C24.7905 30.8278 24.7523 30.8189 24.7109 30.8015C24.6723 30.7835 24.6442 30.763 24.6221 30.739L24.5938 30.7078L24.5596 30.6824L24.3359 30.4763C24.227 30.3699 24.0854 30.2274 23.9189 30.0515C23.5968 29.7112 23.2031 29.2731 22.8115 28.8025C22.4193 28.3312 22.0342 27.8326 21.7246 27.3699C21.4093 26.8984 21.1987 26.5028 21.1201 26.2263H21.1211C21.0564 25.9878 21.0857 25.6792 21.2031 25.3191C21.3186 24.9654 21.503 24.6105 21.6855 24.3064L21.6846 24.3054C22.4543 23.0409 23.4905 21.9341 24.6904 21.0642L25.1797 20.7087L24.7393 20.2947L23.3086 18.9509L22.7754 18.4509L22.5029 19.1287C22.0034 20.37 21.0094 21.6233 18.999 21.9011L18.9844 21.9031L18.9697 21.906C18.6757 21.9644 18.296 22.0064 17.9229 22.0115C17.6294 22.0155 17.3645 21.9957 17.1572 21.9548L17.1367 21.9187L16.9189 21.8914L16.915 21.8904H16.9082L16.8926 21.8884L16.833 21.8699C16.7807 21.8423 16.749 21.789 16.749 21.7312C16.7491 21.7055 16.754 21.6838 16.7676 21.658L16.7773 21.6375C16.7819 21.6319 16.7889 21.6231 16.8008 21.6111C16.8027 21.6095 16.8055 21.6089 16.8076 21.6072C16.8425 21.5781 16.8789 21.5662 16.9131 21.5662C16.9315 21.5674 17.7001 21.5937 18.207 21.5408H18.2148L18.2236 21.5388C18.5438 21.4944 19.4468 21.3754 20.291 20.8982C21.1614 20.4062 21.9783 19.5253 22.0518 18.0154L22.0625 17.7839L21.8936 17.6257L21.6699 17.4167C21.4437 17.1788 21.3194 16.791 21.3438 16.3533C21.3683 15.9127 21.5395 15.5063 21.7939 15.2615L21.7949 15.2595C22.0628 15.0001 22.5033 14.8111 22.9609 14.7722Z" fill="#18191B" stroke="#18191B"/>
<path d="M17.7993 12.8253C18.2875 11.9832 19.3706 11.6949 20.2124 12.1808V12.1798C21.0576 12.67 21.3477 13.7499 20.8589 14.5939H20.8579C20.3686 15.4403 19.2893 15.7297 18.4448 15.2433H18.4438C17.6006 14.7537 17.3123 13.6712 17.7993 12.8253Z" fill="#18191B" stroke="#18191B"/>
</g>
<defs>
<clipPath id="clip0_770_375">
<rect width="40" height="40" fill="white"/>
</clipPath>
</defs>
</svg>
