<svg width="40" height="40" viewBox="0 0 40 40" fill="none" xmlns="http://www.w3.org/2000/svg">
<g clip-path="url(#clip0_770_381)">
<path d="M30 0.75H10C4.89137 0.75 0.75 4.89137 0.75 10V30C0.75 35.1086 4.89137 39.25 10 39.25H30C35.1086 39.25 39.25 35.1086 39.25 30V10C39.25 4.89137 35.1086 0.75 30 0.75Z" fill="white"/>
<path d="M18.481 26.8578L18.4829 26.849L18.481 26.8578ZM25.5972 27.0629L25.5952 27.0609C25.5978 27.0587 25.601 27.0568 25.604 27.0541C25.5988 27.0617 25.5953 27.0645 25.5972 27.0629ZM30.7915 15.6527C30.0121 15.9869 29.2311 16.2509 28.5737 16.3363L28.5571 16.3393L28.5415 16.3422C28.5415 16.3422 28.5398 16.342 28.5327 16.3432C28.5262 16.3443 28.512 16.3469 28.4966 16.35L28.0688 16.4379L28.0981 16.8744C28.1027 16.9425 28.0955 17.0153 28.0747 17.0961L26.5845 21.5453L26.4185 22.0404L26.9194 22.185C27.2525 22.2811 27.9112 22.5743 28.3589 22.8324C28.7323 23.0534 28.9003 23.2654 28.9712 23.4223C29.0391 23.5728 29.035 23.7107 28.9907 23.8354L28.9897 23.8383C28.9054 24.0808 28.6962 24.4017 28.3833 24.7699C28.0782 25.129 27.7055 25.4977 27.3364 25.8344C26.9687 26.1699 26.6112 26.4674 26.3403 26.685C26.0614 26.909 25.8901 27.0356 25.8901 27.0356L25.8823 27.0404C25.8813 27.0411 25.8782 27.0432 25.8726 27.0453C25.8654 27.048 25.8547 27.0502 25.8413 27.0522C25.814 27.056 25.7784 27.0559 25.7388 27.0453V27.0443C25.7017 27.0344 25.6743 27.0194 25.6548 27.0053C25.7256 26.9393 25.8385 26.8348 25.9595 26.7182C26.1529 26.5316 26.4062 26.2849 26.6616 26.0316C26.9164 25.779 27.1764 25.5175 27.3813 25.3012C27.4834 25.1934 27.5757 25.0932 27.6479 25.0092C27.6922 24.9577 27.7578 24.8774 27.8081 24.7953C28.055 24.455 28.1568 24.0804 28.0454 23.7055C27.9414 23.3555 27.6807 23.1104 27.4478 22.9457C26.9918 22.6235 26.3383 22.4132 26.1099 22.3227L26.0942 22.3168L26.0259 22.2973C25.8717 22.2649 25.7489 22.3142 25.7124 22.3295C25.6532 22.3543 25.6071 22.3852 25.5815 22.4037C25.5278 22.4427 25.4766 22.49 25.436 22.5297C25.3511 22.6126 25.2455 22.7281 25.1313 22.8549C24.8953 23.117 24.595 23.4602 24.2505 23.8227C23.9066 24.1845 23.5299 24.5535 23.1538 24.8588C22.8189 25.1306 22.509 25.3316 22.2417 25.4408L22.1313 25.4809C21.354 25.7316 19.333 26.4849 18.7124 26.7025L18.686 26.7113L18.6616 26.7231C18.6452 26.7309 18.6323 26.734 18.6206 26.7367H18.6196L18.5952 26.7397L18.5659 26.7416C18.5618 26.7418 18.5569 26.7417 18.5513 26.7416C18.5483 26.741 18.543 26.7395 18.5386 26.7387C18.5295 26.7369 18.5163 26.7342 18.5015 26.7318L18.5005 26.7328L18.4985 26.7318C18.4857 26.728 18.4749 26.722 18.4644 26.7172C18.8431 26.5402 20.1118 25.9443 20.9448 25.641L20.9438 25.64C21.8179 25.3228 22.7418 24.5104 23.4165 23.7582C23.7614 23.3738 24.0611 22.9831 24.2749 22.644C24.3813 22.4752 24.4732 22.3092 24.5376 22.1566C24.5851 22.0441 24.6374 21.8877 24.6421 21.7221L24.6431 21.7231C24.6442 21.7168 24.6537 21.6518 24.6772 21.5082C24.7004 21.3669 24.7333 21.1719 24.772 20.9418C24.8492 20.4818 24.9508 19.882 25.0522 19.2865C25.1537 18.691 25.2549 18.0997 25.3306 17.6576C25.3684 17.4367 25.3994 17.2529 25.4214 17.1244C25.4324 17.0601 25.4409 17.0094 25.4468 16.975C25.4497 16.9579 25.4521 16.9448 25.4536 16.9359C25.4544 16.9316 25.4552 16.9284 25.4556 16.9262C25.4558 16.9251 25.4555 16.9238 25.4556 16.9232H25.4565V16.9223L25.5806 16.1947L24.9214 16.3354C24.5217 16.2976 24.1157 16.3406 23.7173 16.4389C24.2922 16.2548 24.868 16.1523 25.4067 16.1791L25.6138 16.1898L25.7671 16.0502C25.9594 15.8758 26.2589 15.7555 26.6128 15.7514C26.7001 15.7592 26.8096 15.7701 26.9155 15.7856C27.0435 15.8042 27.1217 15.8243 27.1489 15.8354L27.1606 15.8402L27.1724 15.8441C27.37 15.9128 27.5365 16.0061 27.6782 16.1215L27.814 16.2328L27.9888 16.2338C28.5652 16.2397 29.1309 16.1432 29.5269 16.057C29.8942 15.9972 30.3423 15.8401 30.7915 15.6527ZM20.7593 17.9867C20.5958 18.1094 20.4473 18.2263 20.3169 18.3315C20.1573 18.4601 20.0239 18.572 19.9243 18.6557C19.8738 18.6981 19.8343 18.7316 19.8032 18.7572C19.79 18.7682 19.7796 18.7753 19.7729 18.7807L19.7593 18.7904C19.7584 18.7906 19.7575 18.7913 19.7563 18.7914C19.7533 18.7918 19.7495 18.7903 19.7456 18.7904C19.7464 18.7897 19.7477 18.7893 19.7485 18.7885C19.8389 18.7043 19.9756 18.5862 20.1509 18.4457C20.322 18.3085 20.5267 18.1516 20.7593 17.9867Z" fill="#18191B" stroke="#18191B"/>
<path d="M26.3472 13.5538C26.4837 13.0448 27.0092 12.7426 27.5181 12.879C28.025 13.0149 28.3268 13.5371 28.1899 14.0479C28.0537 14.5558 27.5321 14.857 27.0239 14.7208C26.5142 14.584 26.2115 14.0599 26.3472 13.5538Z" fill="#18191B" stroke="#18191B"/>
<path d="M15.1221 13.0161C15.7339 12.6621 16.5209 12.8731 16.875 13.4878L16.876 13.4888C17.2083 14.0608 17.0448 14.7876 16.5146 15.1704L16.4043 15.2427C15.7922 15.5965 15.0051 15.385 14.6514 14.7729H14.6504C14.2965 14.1571 14.5084 13.37 15.1211 13.0171L15.1221 13.0161Z" fill="#18191B" stroke="#18191B"/>
<path d="M8.81934 11.5029C9.45521 11.514 10.1844 11.5544 10.6875 11.6182V11.6191C11.2575 11.6928 11.8025 12.0742 12.2334 13.2666V13.2656C12.2412 13.291 12.247 13.3125 12.25 13.3213C12.2626 13.3578 12.2797 13.4043 12.2988 13.457C12.3374 13.5631 12.389 13.7033 12.4463 13.8564C12.5617 14.1651 12.6993 14.5292 12.8008 14.8037L12.8936 15.0527L13.1514 15.1162C13.3942 15.1754 13.6031 15.2874 13.7471 15.4209H13.748C13.9256 15.5933 14.0526 15.8868 14.0703 16.2129C14.0879 16.5381 13.9924 16.8117 13.8379 16.9727L13.665 17.1416L13.502 17.2998L13.5127 17.5264C13.5738 18.7583 14.2448 19.4803 14.9551 19.8809C15.6389 20.2665 16.368 20.362 16.6191 20.3975L16.6367 20.3994C17.0521 20.4438 17.6854 20.4219 17.668 20.4219H17.6699L17.6719 20.4248L17.6797 20.4316L17.6875 20.4502C17.6867 20.452 17.6857 20.4547 17.6836 20.457C17.6811 20.4597 17.6776 20.4604 17.6748 20.4619H17.6484L17.5752 20.4844C17.4161 20.5342 17.1654 20.5619 16.8701 20.5586C16.5825 20.5553 16.2909 20.5239 16.0674 20.4795L16.0527 20.4766L16.0371 20.4746L15.7588 20.4258C14.4092 20.1435 13.7233 19.249 13.3633 18.3574L13.0898 17.6807L12.5576 18.1797L11.4326 19.2344L10.9922 19.6475L11.4805 20.0029C12.4147 20.683 13.2203 21.5438 13.8174 22.5283V22.5293C13.9586 22.7636 14.0985 23.035 14.1855 23.3027C14.2745 23.5764 14.2918 23.7976 14.249 23.959C14.1913 24.1604 14.035 24.4597 13.7891 24.8271C13.548 25.1873 13.2462 25.5762 12.9385 25.9453C12.6315 26.3135 12.3229 26.6565 12.0703 26.9229C11.8078 27.1997 11.6305 27.368 11.5762 27.4102L11.5439 27.4346L11.5166 27.4639C11.5029 27.4785 11.4938 27.4822 11.4932 27.4824L11.4834 27.4873L11.4727 27.4922C11.4608 27.4975 11.4472 27.4999 11.4375 27.5C11.3715 27.5 11.3213 27.4506 11.3154 27.3906C11.3193 27.3766 11.3253 27.3586 11.333 27.3379C11.3416 27.3148 11.3514 27.2931 11.3584 27.2773C11.3603 27.273 11.3609 27.2687 11.3623 27.2656C11.4718 27.0611 11.6752 26.7666 11.9355 26.4111C12.0644 26.2353 12.2032 26.0511 12.3447 25.8623C12.4856 25.6744 12.6294 25.4819 12.7676 25.2939C13.0409 24.9221 13.3052 24.548 13.4844 24.2354C13.5726 24.0813 13.6544 23.9173 13.7021 23.7627C13.7372 23.6491 13.8103 23.3688 13.6445 23.1152H13.6455C13.644 23.113 13.6421 23.1107 13.6406 23.1084C13.6392 23.1063 13.6382 23.1037 13.6367 23.1016H13.6357C13.5408 22.9595 13.3701 22.7816 13.2051 22.6182C13.0204 22.4353 12.7933 22.2225 12.5625 22.0078C12.091 21.5692 11.6177 21.1339 11.3721 20.8633C11.2931 20.764 11.1933 20.6488 11.1152 20.5557C11.022 20.4444 10.9385 20.3392 10.8721 20.2373L10.6875 19.9531L10.3545 20.0205C10.3151 20.0285 10.2738 20.0332 10.2305 20.0332H9.77637L9.73242 20.4844C9.72038 20.6068 9.70743 20.6824 9.69434 20.791C9.50423 22.3078 8.81763 23.7206 7.88867 24.8584V24.8594C7.55673 25.2661 7.18906 25.727 6.81055 26.1553C6.42862 26.5874 6.06259 26.9534 5.74512 27.1768L5.7207 27.1943L5.69727 27.2148C5.69508 27.2168 5.68365 27.2248 5.64844 27.2373C5.63343 27.2411 5.62399 27.2439 5.61719 27.2451C5.60925 27.2465 5.6104 27.2461 5.61816 27.2461C5.55241 27.246 5.50007 27.1938 5.5 27.127V27.1172L5.50098 27.1045C5.50664 27.0893 5.51082 27.0787 5.51465 27.0703L5.51758 27.0674C5.51768 27.0672 5.51884 27.0656 5.52148 27.0625L5.53906 27.042L5.55371 27.0195C5.93408 26.4655 7.95517 23.5293 8.22656 23.1084L8.23828 23.0898L8.24805 23.0703C8.30978 22.9534 8.44098 22.7691 8.5791 22.3477C8.71234 21.9411 8.86187 21.2961 9.04199 20.1562C9.05826 20.0739 9.08162 19.9365 9.10449 19.8066C9.13311 19.6442 9.16993 19.4515 9.21582 19.2568C9.26209 19.0606 9.31596 18.8724 9.37695 18.7158C9.44196 18.5489 9.49758 18.4631 9.52734 18.4326L9.54102 18.4189L9.55469 18.4033L12.1328 15.2988L12.373 15.1357L12.2832 14.7949C12.1745 14.38 12.046 13.9061 11.9316 13.5078C11.8238 13.1323 11.7133 12.7679 11.6416 12.6143L11.623 12.5732L11.5967 12.5361L11.4951 12.4102C11.2429 12.1315 10.8881 11.9612 10.5586 11.8506C10.1685 11.7197 9.7315 11.6462 9.33594 11.6045C8.9375 11.5625 8.5618 11.5506 8.28418 11.5498C8.19704 11.5496 8.11856 11.5514 8.05176 11.5527L8.01758 11.5107L7.72266 11.5713C7.7199 11.5718 7.71668 11.5703 7.71191 11.5693C7.70006 11.5622 7.69636 11.5514 7.69922 11.542C7.70055 11.5392 7.70182 11.5374 7.70312 11.5361C7.70392 11.5354 7.70471 11.5342 7.70605 11.5332C7.71491 11.5317 7.72827 11.5305 7.74609 11.5283C7.80544 11.5211 7.89007 11.5147 7.99902 11.5098C8.21595 11.5 8.50218 11.4974 8.81934 11.5029Z" fill="#18191B" stroke="#18191B"/>
</g>
<defs>
<clipPath id="clip0_770_381">
<rect width="40" height="40" fill="white"/>
</clipPath>
</defs>
</svg>
