<svg width="40" height="40" viewBox="0 0 40 40" fill="none" xmlns="http://www.w3.org/2000/svg">
<g clip-path="url(#clip0_770_387)">
<path d="M30 0.75H10C4.89137 0.75 0.75 4.89137 0.75 10V30C0.75 35.1086 4.89137 39.25 10 39.25H30C35.1086 39.25 39.25 35.1086 39.25 30V10C39.25 4.89137 35.1086 0.75 30 0.75Z" fill="white"/>
<path d="M25.9556 9.17377C26.7808 9.17395 27.4496 9.84387 27.4497 10.6679C27.4497 11.4953 26.7805 12.1648 25.9556 12.165C25.1281 12.165 24.4575 11.4944 24.4575 10.6679C24.4576 9.84472 25.1277 9.17377 25.9556 9.17377Z" fill="#18191B" stroke="#18191B"/>
<path d="M21.3228 12.6512L21.313 12.6219C21.2986 12.5957 21.2703 12.5789 21.2378 12.5789C21.1989 12.5792 21.1605 12.6128 21.1567 12.658L21.1616 12.6824L21.1704 12.7449L21.1714 12.7517V12.7586C21.2035 13.1659 21.3352 13.5989 21.5298 14.0115L21.6167 14.1863L21.6177 14.1892C21.8754 14.6903 22.2043 15.1347 22.5171 15.4529L22.5229 15.4588C22.7335 15.6794 22.9292 15.8251 23.0679 15.9002C23.7238 16.2352 24.5424 16.1438 25.2632 15.7596L25.9507 15.3924L25.9976 16.1717L26.1997 19.5789H28.3979L28.6157 15.4949V15.0877C28.6141 14.7058 28.6016 14.396 28.5278 14.1199C28.4419 13.7983 28.2719 13.5289 27.8589 13.3045L27.7446 13.2556C27.6079 13.2093 27.4082 13.1701 27.1841 13.1502C27.0446 13.1378 26.9143 13.1345 26.811 13.1385C26.6908 13.143 26.6557 13.1554 26.6753 13.1482L26.6743 13.1472C26.6605 13.1523 26.6508 13.1568 26.647 13.158C26.6372 13.161 26.6284 13.1635 26.6235 13.1648C26.6208 13.1655 26.6182 13.1662 26.6157 13.1668M21.3228 12.6512V12.6629C21.3228 12.6695 21.3237 12.676 21.3237 12.6765V12.6951L21.3247 12.7146C21.3666 13.2603 21.6271 13.8252 21.7759 14.1121L21.7769 14.1131C21.8508 14.2549 21.908 14.3528 21.9165 14.367L21.9253 14.3816L21.936 14.3963C22.1875 14.7551 22.5008 15.2158 22.8862 15.5301C23.0865 15.6934 23.3348 15.8461 23.6353 15.9099V15.908C23.9354 15.9794 24.1991 15.9065 24.3989 15.8025C24.5924 15.7018 24.7533 15.5589 24.8589 15.4637L25.353 15.0174L24.7866 14.6668C24.6427 14.5778 24.4742 14.4571 24.2944 14.3181C24.2935 14.2675 24.2904 14.2178 24.2837 14.1687C24.5046 14.3387 24.7548 14.5001 25.022 14.5857L25.4175 14.7117L25.6147 14.3474C25.6896 14.2091 25.762 14.0421 25.8159 13.9275L25.8579 13.8387L25.8628 13.739C25.8771 13.449 25.9519 13.3904 25.9888 13.3631C26.0776 13.2972 26.2321 13.2471 26.5864 13.1726C26.5889 13.1722 26.5912 13.1729 26.5923 13.1726L26.5913 13.1717C26.594 13.1711 26.5973 13.1713 26.6001 13.1707L26.5005 12.6795C26.5017 12.6791 26.5027 12.6788 26.5034 12.6785M21.3228 12.6512C21.3229 12.6521 21.3226 12.6531 21.3228 12.6541L21.3237 12.659L21.3228 12.6512ZM26.5034 12.6785L26.6743 13.1463C26.6718 13.1473 26.6703 13.1488 26.6694 13.1492C26.6573 13.154 26.647 13.1574 26.6421 13.159C26.6323 13.1622 26.6245 13.164 26.6216 13.1648C26.6193 13.1655 26.6173 13.1663 26.6157 13.1668M26.5034 12.6785L26.7026 13.1316C26.7158 13.1252 26.7327 13.1187 26.7495 13.1082C26.7629 13.0998 26.8262 13.0614 26.8823 12.9881C26.9114 12.9457 26.9624 12.8312 26.979 12.7586C26.9808 12.7262 26.9759 12.6838 26.9683 12.6385C26.7611 12.6341 26.5876 12.6477 26.5034 12.6785ZM26.6157 13.1668C26.6146 13.1671 26.6135 13.1676 26.6128 13.1678C26.6095 13.1686 26.6061 13.1692 26.604 13.1697C26.6056 13.1693 26.6101 13.1682 26.6157 13.1668ZM22.853 12.5789C22.8796 12.5789 22.9093 12.5935 22.9272 12.6287L23.1519 13.073C23.1111 13.0689 23.0696 13.0683 23.0278 13.0681C22.9419 12.9412 22.8559 12.8138 22.8032 12.7371C22.7933 12.7219 22.7833 12.7056 22.7769 12.6961C22.774 12.6896 22.7712 12.6847 22.77 12.6805C22.7684 12.6743 22.7681 12.6691 22.7681 12.6648C22.7682 12.6169 22.8079 12.5789 22.853 12.5789Z" fill="#18191B" stroke="#18191B"/>
<path d="M32.5078 30.519C32.5082 30.521 32.5086 30.5229 32.5088 30.5239V30.5259C32.5088 30.5257 32.5083 30.5235 32.5078 30.521L32.5059 30.5044C32.5068 30.5105 32.5072 30.5157 32.5078 30.519ZM32.502 30.4175L32.5029 30.4194C32.5039 30.4219 32.5039 30.4233 32.5039 30.4233L32.502 30.4175ZM22.3037 30.77L22.2988 30.7339V30.7319C22.2985 30.7299 22.2975 30.7267 22.2969 30.7222C22.2956 30.7129 22.2935 30.6984 22.291 30.6792C22.2861 30.6405 22.2788 30.5819 22.2705 30.5063C22.2539 30.3553 22.2331 30.1351 22.2148 29.8628C22.1782 29.3164 22.154 28.5641 22.2041 27.7407C22.3063 26.0605 22.7097 24.2206 23.793 23.1382L23.8105 23.1196L23.8271 23.0991C23.9467 22.952 24.2727 22.6433 24.6953 22.3188C25.1152 21.9965 25.5806 21.6978 25.9678 21.5435L26.2832 21.4175V21.3452H28.3037C28.2997 21.379 28.297 21.4128 28.292 21.4458L28.2881 21.4692L28.2871 21.4937C28.2669 21.8693 28.1498 22.2269 28.0234 22.688L28.0205 22.6997C27.8166 23.5218 27.6479 24.4307 27.7715 25.3579C27.8888 26.2609 28.3022 26.8576 28.9443 27.5425L28.9561 27.5552L28.9688 27.5669C29.5 28.06 30.1386 28.5357 30.7402 28.978C31.3531 29.4286 31.9221 29.8408 32.3613 30.23L32.3945 30.2593C32.3987 30.2633 32.4033 30.2675 32.4082 30.272L32.4307 30.2935L32.4336 30.2954L32.4492 30.3091L32.4561 30.3169L32.4688 30.3394L32.4766 30.3501L32.4775 30.3521L32.4805 30.3589L32.4873 30.3804L32.4922 30.3931C32.495 30.4124 32.4967 30.4296 32.498 30.4468C32.4924 30.5472 32.4084 30.6304 32.3047 30.6304C32.2749 30.6304 32.2333 30.6193 32.1885 30.5884L32.166 30.5728C32.1464 30.5579 32.1195 30.5375 32.0859 30.5122C32.0104 30.4551 31.9011 30.3733 31.7686 30.2729C31.5033 30.0721 31.1423 29.7985 30.7598 29.5073C30.3755 29.2149 29.9723 28.9059 29.6221 28.6362L28.8047 27.9976C28.4608 27.6875 28.1631 27.4456 27.9121 27.1528L27.9082 27.1479L27.7529 26.9653C27.4062 26.5443 27.1694 26.1512 27.0215 25.7466C26.8537 25.2874 26.7899 24.7858 26.8369 24.1724L26.8379 24.1636V24.1548C26.8562 23.7079 26.9504 23.2651 27.0684 22.7876L27.1543 22.439L26.8516 22.2456C26.7973 22.211 26.7426 22.1885 26.7217 22.1802L26.4658 22.0796L26.2441 22.2397C26.1458 22.3108 26.0435 22.38 25.9336 22.4546C25.8298 22.525 25.7186 22.6003 25.6113 22.6792C24.6671 23.3387 23.6731 24.2005 23.2266 25.3755V25.3774C22.9126 26.2109 22.7887 27.5928 22.7363 28.7046C22.7095 29.274 22.7005 29.7965 22.6982 30.1782C22.6973 30.3322 22.6986 30.4683 22.6992 30.5737L22.3525 30.9302C22.3231 30.8962 22.3038 30.8533 22.3037 30.8062V30.77Z" fill="#18191B" stroke="#18191B"/>
<mask id="path-5-inside-1_770_387" fill="white">
<path d="M28.7758 20.6591C28.7736 20.6563 28.7736 20.6507 28.7694 20.6452C28.7519 20.6118 28.7389 20.5785 28.7325 20.5396C28.7086 20.4479 28.7247 20.3507 28.7736 20.2646C28.7758 20.2646 28.7758 20.2591 28.7758 20.2591C28.7964 20.2202 28.8278 20.1869 28.8658 20.1563H25.729L25.7671 20.7674H28.8367C28.8094 20.7424 28.7964 20.6952 28.778 20.6618C28.778 20.6618 28.7758 20.6618 28.7758 20.6591Z"/>
</mask>
<path d="M28.7758 20.6591C28.7736 20.6563 28.7736 20.6507 28.7694 20.6452C28.7519 20.6118 28.7389 20.5785 28.7325 20.5396C28.7086 20.4479 28.7247 20.3507 28.7736 20.2646C28.7758 20.2646 28.7758 20.2591 28.7758 20.2591C28.7964 20.2202 28.8278 20.1869 28.8658 20.1563H25.729L25.7671 20.7674H28.8367C28.8094 20.7424 28.7964 20.6952 28.778 20.6618C28.778 20.6618 28.7758 20.6618 28.7758 20.6591Z" fill="#18191B"/>
<path d="M28.7758 20.6591H29.7758V20.3132L29.5621 20.0413L28.7758 20.6591ZM28.7694 20.6452L27.8836 21.1093L27.9231 21.1846L27.9746 21.2521L28.7694 20.6452ZM28.7325 20.5396L29.7192 20.3773L29.7118 20.3319L29.7002 20.2874L28.7325 20.5396ZM28.7736 20.2646V19.2646H28.1915L27.9041 19.7708L28.7736 20.2646ZM28.7758 20.2591L27.8921 19.7911L27.7758 20.0107L27.7758 20.2593L28.7758 20.2591ZM28.8658 20.1563L29.493 20.9352L31.702 19.1563H28.8658V20.1563ZM25.729 20.1563V19.1563H24.6647L24.7309 20.2185L25.729 20.1563ZM25.7671 20.7674L24.769 20.8296L24.8275 21.7674H25.7671V20.7674ZM28.8367 20.7674V21.7674H31.4094L29.5121 20.0299L28.8367 20.7674ZM28.778 20.6618L29.6539 20.1793L29.3689 19.662L28.7784 19.6618L28.778 20.6618ZM28.7758 20.6591L29.5621 20.0413C29.587 20.0729 29.6077 20.1032 29.6248 20.1308C29.642 20.1584 29.6559 20.1839 29.6671 20.2061C29.6784 20.2282 29.6874 20.2481 29.6945 20.2647C29.7015 20.2812 29.7071 20.2956 29.7113 20.3069C29.7155 20.3181 29.7188 20.3275 29.721 20.334C29.7232 20.3405 29.7249 20.3455 29.7256 20.3478C29.726 20.349 29.7263 20.3499 29.7263 20.3502C29.7264 20.3503 29.7264 20.3504 29.7264 20.3503C29.7264 20.3503 29.7263 20.35 29.7262 20.3498C29.7259 20.3489 29.7249 20.3455 29.7235 20.3414C29.7207 20.3329 29.7155 20.3174 29.7083 20.2982C29.701 20.2788 29.6911 20.2545 29.6784 20.2272C29.6656 20.1997 29.65 20.1693 29.6309 20.1372C29.6118 20.1049 29.5897 20.0717 29.5642 20.0383L28.7694 20.6452L27.9746 21.2521C27.9502 21.2201 27.929 21.1883 27.9107 21.1574C27.8924 21.1266 27.8775 21.0976 27.8653 21.0714C27.8532 21.0454 27.8439 21.0225 27.8371 21.0043C27.8303 20.9865 27.8256 20.9722 27.8232 20.965C27.822 20.9614 27.8212 20.9587 27.8211 20.9584C27.8206 20.9569 27.8216 20.9599 27.8223 20.9621C27.8232 20.9649 27.825 20.9705 27.8274 20.9775C27.8297 20.9845 27.8332 20.9944 27.8376 21.0062C27.842 21.018 27.8478 21.0328 27.855 21.0498C27.8623 21.0669 27.8715 21.0872 27.883 21.1098C27.9056 21.1544 27.9396 21.2135 27.9895 21.2769L28.7758 20.6591ZM28.7694 20.6452L29.6552 20.1811C29.6725 20.2141 29.7038 20.2835 29.7192 20.3773L28.7325 20.5396L27.7458 20.702C27.774 20.8735 27.8313 21.0095 27.8836 21.1093L28.7694 20.6452ZM28.7325 20.5396L29.7002 20.2874C29.7496 20.4771 29.707 20.646 29.6431 20.7585L28.7736 20.2646L27.9041 19.7708C27.7424 20.0554 27.6676 20.4187 27.7648 20.7918L28.7325 20.5396ZM28.7736 20.2646V21.2646C29.2713 21.2646 29.5418 20.9293 29.6325 20.7781C29.7201 20.632 29.7477 20.4998 29.7561 20.4578C29.7678 20.3995 29.7719 20.352 29.7736 20.3263C29.7745 20.3116 29.7751 20.2986 29.7754 20.2878C29.7756 20.2823 29.7757 20.2771 29.7757 20.2724C29.7757 20.27 29.7758 20.2677 29.7758 20.2654C29.7758 20.2643 29.7758 20.2632 29.7758 20.2621C29.7758 20.2616 29.7758 20.2611 29.7758 20.2605C29.7758 20.2603 29.7758 20.26 29.7758 20.2597C29.7758 20.2596 29.7758 20.2594 29.7758 20.2594C29.7758 20.2592 29.7758 20.259 28.7758 20.2591C27.7758 20.2593 27.7758 20.2591 27.7758 20.2589C27.7758 20.2588 27.7758 20.2586 27.7758 20.2585C27.7758 20.2582 27.7758 20.258 27.7758 20.2577C27.7758 20.2572 27.7758 20.2566 27.7758 20.2561C27.7758 20.255 27.7758 20.2539 27.7758 20.2528C27.7758 20.2506 27.7759 20.2483 27.7759 20.246C27.776 20.2413 27.7761 20.2363 27.7762 20.2309C27.7765 20.2204 27.777 20.2078 27.778 20.1936C27.7796 20.1689 27.7835 20.1229 27.7949 20.0659C27.803 20.0253 27.8303 19.8944 27.9173 19.7494C28.0073 19.5993 28.277 19.2646 28.7736 19.2646V20.2646ZM28.7758 20.2591L29.6595 20.7271C29.5944 20.8501 29.5162 20.9165 29.493 20.9352L28.8658 20.1563L28.2386 19.3774C28.1394 19.4573 27.9984 19.5903 27.8921 19.7911L28.7758 20.2591ZM28.8658 20.1563V19.1563H25.729V20.1563V21.1563H28.8658V20.1563ZM25.729 20.1563L24.7309 20.2185L24.769 20.8296L25.7671 20.7674L26.7652 20.7052L26.7271 20.0941L25.729 20.1563ZM25.7671 20.7674V21.7674H28.8367V20.7674V19.7674H25.7671V20.7674ZM28.8367 20.7674L29.5121 20.0299C29.5897 20.101 29.638 20.1698 29.6641 20.211C29.6901 20.2523 29.7054 20.2847 29.7093 20.293C29.7117 20.298 29.7129 20.301 29.7119 20.2986C29.7114 20.2974 29.7109 20.2963 29.7095 20.2932C29.7084 20.2907 29.7067 20.2867 29.7047 20.2823C29.6985 20.2684 29.6801 20.2268 29.6539 20.1793L28.778 20.6618L27.9021 21.1443C27.8851 21.1135 27.8752 21.0904 27.8775 21.0954C27.8801 21.1014 27.8771 21.0946 27.883 21.108C27.8863 21.1153 27.8919 21.1279 27.8987 21.1426C27.9116 21.1699 27.9364 21.2209 27.9731 21.2791C28.0098 21.3372 28.0701 21.4213 28.1613 21.5049L28.8367 20.7674ZM28.778 20.6618C28.7784 19.6618 28.779 19.6618 28.7796 19.6618C28.7798 19.6618 28.7804 19.6618 28.7808 19.6618C28.7816 19.6618 28.7824 19.6618 28.7832 19.6618C28.7848 19.6618 28.7865 19.6618 28.7881 19.6619C28.7914 19.6619 28.7947 19.6619 28.7981 19.662C28.8049 19.6622 28.812 19.6624 28.8192 19.6627C28.8336 19.6633 28.8491 19.6642 28.8656 19.6657C28.898 19.6685 28.9361 19.6735 28.9783 19.6821C29.0592 19.6987 29.1759 19.733 29.3 19.8092C29.4307 19.8894 29.5616 20.0118 29.6548 20.1832C29.7469 20.3527 29.7758 20.5217 29.7758 20.6591H28.7758H27.7758C27.7758 20.9889 27.9409 21.3217 28.2538 21.5138C28.3784 21.5902 28.4957 21.6248 28.577 21.6414C28.6194 21.6501 28.6577 21.6551 28.6903 21.658C28.7067 21.6594 28.7223 21.6604 28.7368 21.661C28.744 21.6613 28.751 21.6615 28.7579 21.6616C28.7613 21.6617 28.7646 21.6617 28.7679 21.6618C28.7695 21.6618 28.7712 21.6618 28.7728 21.6618C28.7736 21.6618 28.7744 21.6618 28.7752 21.6618C28.7756 21.6618 28.7762 21.6618 28.7764 21.6618C28.777 21.6618 28.7776 21.6618 28.778 20.6618Z" fill="#18191B" mask="url(#path-5-inside-1_770_387)"/>
<mask id="path-7-inside-2_770_387" fill="white">
<path d="M32.3654 22.5228L29.49 20.434C29.4934 20.4702 29.4978 20.5035 29.487 20.5424C29.4661 20.6452 29.4034 20.7313 29.3134 20.7868C29.2514 20.8257 29.1809 20.8451 29.1081 20.8451C29.0506 20.8451 28.9942 20.8313 28.9434 20.8063L29.7647 24.0894L30.33 23.9478L29.667 21.2868L32.0216 22.9978L32.3654 22.5228Z"/>
</mask>
<path d="M32.3654 22.5228L29.49 20.434C29.4934 20.4702 29.4978 20.5035 29.487 20.5424C29.4661 20.6452 29.4034 20.7313 29.3134 20.7868C29.2514 20.8257 29.1809 20.8451 29.1081 20.8451C29.0506 20.8451 28.9942 20.8313 28.9434 20.8063L29.7647 24.0894L30.33 23.9478L29.667 21.2868L32.0216 22.9978L32.3654 22.5228Z" fill="#18191B"/>
<path d="M32.3654 22.5228L33.1754 23.1091L33.7607 22.3004L32.9531 21.7137L32.3654 22.5228ZM29.49 20.434L30.0777 19.6249L28.2874 18.3244L28.4943 20.5275L29.49 20.434ZM29.487 20.5424L28.5234 20.2749L28.514 20.3087L28.507 20.3432L29.487 20.5424ZM29.3134 20.7868L28.7885 19.9356L28.7819 19.9397L29.3134 20.7868ZM28.9434 20.8063L29.3849 19.9091L27.4499 18.9568L27.9733 21.049L28.9434 20.8063ZM29.7647 24.0894L28.7946 24.3321L29.0373 25.3025L30.0076 25.0594L29.7647 24.0894ZM30.33 23.9478L30.5729 24.9178L31.5418 24.6751L31.3003 23.706L30.33 23.9478ZM29.667 21.2868L30.2548 20.4778L28.0325 18.8629L28.6966 21.5286L29.667 21.2868ZM32.0216 22.9978L31.4337 23.8068L32.2442 24.3957L32.8316 23.5841L32.0216 22.9978ZM32.3654 22.5228L32.9531 21.7137L30.0777 19.6249L29.49 20.434L28.9022 21.243L31.7776 23.3318L32.3654 22.5228ZM29.49 20.434L28.4943 20.5275C28.4947 20.5311 28.495 20.5344 28.4952 20.5368C28.4955 20.5396 28.4956 20.5409 28.4958 20.5424C28.496 20.5453 28.496 20.5445 28.4958 20.5423C28.4954 20.538 28.4941 20.5209 28.4938 20.4971C28.4933 20.4438 28.4983 20.3653 28.5234 20.2749L29.487 20.5424L30.4505 20.8099C30.4864 20.6806 30.4946 20.566 30.4937 20.4773C30.4933 20.4357 30.4909 20.4011 30.4891 20.3792C30.4882 20.3681 30.4873 20.3585 30.4867 20.3525C30.4858 20.343 30.486 20.3451 30.4856 20.3405L29.49 20.434ZM29.487 20.5424L28.507 20.3432C28.5444 20.1592 28.6574 20.0165 28.7885 19.9356L29.3134 20.7868L29.8382 21.638C30.1493 21.4461 30.3877 21.1312 30.4669 20.7416L29.487 20.5424ZM29.3134 20.7868L28.7819 19.9397C28.8856 19.8746 29.0006 19.8451 29.1081 19.8451V20.8451V21.8451C29.3611 21.8451 29.6171 21.7767 29.8448 21.6339L29.3134 20.7868ZM29.1081 20.8451V19.8451C29.2103 19.8451 29.3044 19.8694 29.3849 19.9091L28.9434 20.8063L28.5018 21.7035C28.6839 21.7931 28.8908 21.8451 29.1081 21.8451V20.8451ZM28.9434 20.8063L27.9733 21.049L28.7946 24.3321L29.7647 24.0894L30.7348 23.8467L29.9135 20.5636L28.9434 20.8063ZM29.7647 24.0894L30.0076 25.0594L30.5729 24.9178L30.33 23.9478L30.087 22.9778L29.5217 23.1194L29.7647 24.0894ZM30.33 23.9478L31.3003 23.706L30.6373 21.045L29.667 21.2868L28.6966 21.5286L29.3596 24.1896L30.33 23.9478ZM29.667 21.2868L29.0791 22.0958L31.4337 23.8068L32.0216 22.9978L32.6094 22.1888L30.2548 20.4778L29.667 21.2868ZM32.0216 22.9978L32.8316 23.5841L33.1754 23.1091L32.3654 22.5228L31.5553 21.9365L31.2115 22.4115L32.0216 22.9978Z" fill="#18191B" mask="url(#path-7-inside-2_770_387)"/>
<path d="M29.1055 20.4557L29.2041 20.6158C29.1259 20.6636 29.0084 20.65 28.9463 20.5533M29.1055 20.4557L28.9463 20.5533M29.1055 20.4557L29.04 20.3482L29.0078 20.2965L29.0049 20.2984L28.9775 20.3199C28.9167 20.3777 28.9007 20.4701 28.9434 20.5475L29.0879 20.4605L29.0801 20.4654L28.9434 20.5484C28.9444 20.5501 28.9453 20.5517 28.9463 20.5533M29.1055 20.4557L28.9463 20.5533M29.2676 20.3551C29.3245 20.4522 29.2895 20.563 29.208 20.6139L29.1094 20.4557M29.2676 20.3551L29.1094 20.4557M29.2676 20.3551C29.2666 20.3534 29.2657 20.3518 29.2646 20.3502C29.264 20.3492 29.2634 20.3482 29.2627 20.3473M29.2676 20.3551L29.1074 20.4537M29.1094 20.4557L29.1074 20.4537M29.1094 20.4557L29.2461 20.3687L29.1074 20.4537M29.1074 20.4537L29.1045 20.4488M29.1045 20.4488L29.2627 20.3473M29.1045 20.4488L29.2627 20.3473M29.1045 20.4488L29.0088 20.2955C29.1 20.2404 29.2096 20.2714 29.2627 20.3473" fill="#18191B" stroke="#18191B"/>
<path d="M10.5615 8.51169C11.38 8.40993 12.1281 8.99587 12.2285 9.81442C12.3223 10.584 11.8156 11.2871 11.0771 11.456L10.9268 11.4824C10.1063 11.5842 9.35889 10.9998 9.25781 10.1787C9.15834 9.36015 9.74194 8.61146 10.5605 8.51169H10.5615Z" fill="#18191B" stroke="#18191B"/>
<path d="M11.1602 12.5837C11.3606 12.5756 11.5213 12.676 11.666 12.8425C11.7165 12.9007 11.7591 12.9623 11.7959 13.0193C11.6373 13.37 11.4043 13.8483 11.1406 14.2829C10.9753 14.5554 10.806 14.7966 10.6455 14.9763C10.5015 15.1375 10.3988 15.2071 10.3447 15.2331C10.2929 15.1918 10.2242 15.1312 10.1436 15.0525C9.96796 14.8811 9.77208 14.6678 9.62598 14.5056L9.31738 14.1618L8.9502 14.4431L8.88477 14.4929L8.45312 14.8239L8.81934 15.2263C9.03558 15.4638 9.26175 15.7103 9.46094 15.8972C9.56008 15.9902 9.66653 16.0812 9.77148 16.1521C9.85243 16.2067 10.0156 16.3076 10.2168 16.3132C10.6388 16.363 10.996 16.131 11.2363 15.9128C11.5097 15.6646 11.7601 15.3249 11.9746 14.9861C12.2989 14.4738 12.5793 13.901 12.7656 13.49L12.9189 13.1404L12.9229 13.1306C12.934 13.1026 12.9437 13.0762 12.9531 13.0525L13.001 13.0232L13.041 12.8112C13.0423 12.808 13.0472 12.7994 13.0596 12.7859C13.091 12.7573 13.14 12.7567 13.1719 12.7849C13.1729 12.7862 13.1744 12.788 13.1758 12.7898C13.179 12.794 13.1821 12.7992 13.1865 12.8054C13.1935 12.8169 13.1971 12.829 13.1973 12.8425C13.1953 12.8512 13.1912 12.8706 13.1816 12.9021C13.1616 12.968 13.1296 13.0593 13.085 13.1736C12.996 13.4011 12.8678 13.6954 12.7178 14.0173C12.4168 14.6632 12.0412 15.3915 11.7441 15.8796C11.5388 16.2169 11.2316 16.5452 10.8496 16.7331C10.4833 16.9133 10.0209 16.9795 9.44336 16.7634L9.43457 16.7605L9.43945 16.7614C9.43937 16.7598 9.40029 16.7382 9.31738 16.6648C9.22498 16.583 9.11404 16.47 8.99414 16.3376C8.75499 16.0736 8.50753 15.7605 8.34473 15.529C8.31619 15.4881 8.2778 15.4001 8.24609 15.2771C8.21851 15.1701 8.20658 15.0769 8.20312 15.0407C8.20018 14.8833 8.2182 14.561 8.33105 14.2155C8.44616 13.8633 8.64935 13.5142 9.00098 13.2702L9.00391 13.2683C9.495 12.9234 10.4134 12.6136 11.1602 12.5837Z" fill="#18191B" stroke="#18191B"/>
<path d="M17.0308 11.0887C17.0745 11.0766 17.1211 11.1053 17.1323 11.1453L17.1333 11.1502C17.1349 11.1557 17.1363 11.1626 17.1362 11.1707C17.1362 11.1789 17.1347 11.1861 17.1333 11.1912L17.1313 11.2L17.1284 11.2078C16.9556 11.8849 16.3054 13.6531 15.9126 14.4861C15.7443 14.8405 15.4734 15.1979 15.1128 15.4246C14.7666 15.6421 14.3131 15.7573 13.7163 15.6033L13.7124 15.6024C13.7079 15.6003 13.6957 15.5948 13.6753 15.5828C13.6344 15.5588 13.5796 15.5209 13.5103 15.4676C13.4441 15.4168 13.3719 15.3561 13.2944 15.2889C13.3047 15.2672 13.3162 15.2467 13.3257 15.2264L13.3237 15.2254C13.3289 15.2147 13.335 15.2034 13.3403 15.1912C13.4203 15.0237 13.495 14.858 13.5649 14.701C13.6168 14.7383 13.6657 14.776 13.7144 14.8084C13.8151 14.8755 13.9218 14.9396 14.0249 14.9871C14.0913 15.0177 14.2116 15.066 14.354 15.0731V15.074C14.7236 15.1097 15.0273 14.929 15.2407 14.7381C15.4576 14.544 15.6447 14.2841 15.8032 14.0193C16.0427 13.6195 16.2521 13.1477 16.4185 12.7205L16.5698 12.3133C16.5716 12.3086 16.5732 12.3038 16.5747 12.2996C16.5788 12.2883 16.5843 12.2728 16.5903 12.2557C16.6025 12.2211 16.6197 12.1733 16.6392 12.117C16.6783 12.0039 16.7297 11.8543 16.7808 11.7059C16.832 11.5571 16.8831 11.4086 16.9214 11.2977C16.9405 11.2423 16.9562 11.1965 16.9673 11.1649C16.9711 11.154 16.9737 11.1452 16.9761 11.1385C16.9846 11.1177 17.002 11.0978 17.0308 11.0887ZM16.98 11.1297C16.9795 11.1309 16.9773 11.1334 16.9761 11.1365L16.981 11.1268C16.9808 11.1272 16.9805 11.1284 16.98 11.1297Z" fill="#18191B" stroke="#18191B"/>
<path d="M12.4141 16.8004C12.4961 17.1303 12.5414 17.3533 12.5645 17.5036L9.82617 18.6637C9.68709 18.4198 9.53988 18.1513 9.39062 17.8727C9.89079 18.0048 10.3914 18.0121 10.877 17.8727C11.6078 17.6627 12.1071 17.1898 12.4141 16.8004Z" fill="#18191B" stroke="#18191B"/>
<mask id="path-14-inside-3_770_387" fill="white">
<path d="M13.3018 18.4537L13.1218 17.8981L9.80371 19.3036C9.90037 19.3314 9.98064 19.3897 10.0284 19.4675C10.0348 19.4758 10.0348 19.4842 10.0392 19.4925C10.0575 19.5286 10.0739 19.5619 10.0792 19.598C10.0892 19.6453 10.0892 19.6953 10.0792 19.7453C10.0728 19.7814 10.0556 19.8091 10.0392 19.8369L12.8841 18.6314L13.3018 18.4537Z"/>
</mask>
<path d="M13.3018 18.4537L13.1218 17.8981L9.80371 19.3036C9.90037 19.3314 9.98064 19.3897 10.0284 19.4675C10.0348 19.4758 10.0348 19.4842 10.0392 19.4925C10.0575 19.5286 10.0739 19.5619 10.0792 19.598C10.0892 19.6453 10.0892 19.6953 10.0792 19.7453C10.0728 19.7814 10.0556 19.8091 10.0392 19.8369L12.8841 18.6314L13.3018 18.4537Z" fill="#18191B"/>
<path d="M13.3018 18.4537L13.6933 19.3739L14.5351 19.0158L14.2532 18.1455L13.3018 18.4537ZM13.1218 17.8981L14.0732 17.5899L13.7368 16.5516L12.7318 16.9773L13.1218 17.8981ZM9.80371 19.3036L9.41368 18.3828L6.81358 19.4842L9.52731 20.2646L9.80371 19.3036ZM10.0284 19.4675L9.17641 19.991L9.20416 20.0362L9.23653 20.0781L10.0284 19.4675ZM10.0392 19.4925L10.9312 19.0404L10.9271 19.0322L10.9228 19.0241L10.0392 19.4925ZM10.0792 19.598L9.08985 19.7433L9.09439 19.7742L9.10087 19.8048L10.0792 19.598ZM10.0792 19.7453L9.09866 19.5492L9.09651 19.5599L9.0946 19.5707L10.0792 19.7453ZM10.0392 19.8369L9.17794 19.3288L7.63699 21.9409L10.4294 20.7577L10.0392 19.8369ZM12.8841 18.6314L13.2743 19.5521L13.2756 19.5516L12.8841 18.6314ZM13.3018 18.4537L14.2532 18.1455L14.0732 17.5899L13.1218 17.8981L12.1705 18.2063L12.3505 18.7619L13.3018 18.4537ZM13.1218 17.8981L12.7318 16.9773L9.41368 18.3828L9.80371 19.3036L10.1937 20.2244L13.5119 18.8189L13.1218 17.8981ZM9.80371 19.3036L9.52731 20.2646C9.41292 20.2317 9.27402 20.1499 9.17641 19.991L10.0284 19.4675L10.8805 18.944C10.6873 18.6295 10.3878 18.4311 10.0801 18.3426L9.80371 19.3036ZM10.0284 19.4675L9.23653 20.0781C9.18684 20.0137 9.15108 19.9505 9.12536 19.8952C9.10117 19.8432 9.08736 19.8009 9.08309 19.7876C9.08164 19.7832 9.07916 19.7752 9.08143 19.7825C9.08245 19.7857 9.08616 19.7976 9.09122 19.8122C9.10175 19.8428 9.12193 19.8972 9.15571 19.9609L10.0392 19.4925L10.9228 19.0241C10.9544 19.0837 10.9729 19.1339 10.982 19.1603C10.9863 19.1729 10.9894 19.1826 10.9897 19.1838C10.9913 19.189 10.9882 19.1789 10.9861 19.1724C10.973 19.1319 10.929 18.9977 10.8204 18.8569L10.0284 19.4675ZM10.0392 19.4925L9.1473 19.9447C9.15783 19.9654 9.14839 19.9481 9.13768 19.9217C9.12509 19.8907 9.10231 19.8281 9.08985 19.7433L10.0792 19.598L11.0686 19.4527C11.036 19.2302 10.9389 19.0556 10.9312 19.0404L10.0392 19.4925ZM10.0792 19.598L9.10087 19.8048C9.08127 19.7122 9.08353 19.6249 9.09866 19.5492L10.0792 19.7453L11.0598 19.9414C11.095 19.7657 11.0972 19.5784 11.0576 19.3912L10.0792 19.598ZM10.0792 19.7453L9.0946 19.5707C9.11114 19.4774 9.14026 19.4057 9.16128 19.3619C9.17116 19.3413 9.17934 19.3267 9.18214 19.3218C9.18337 19.3196 9.18595 19.3152 9.17794 19.3288L10.0392 19.8369L10.9005 20.345C10.9007 20.3447 10.9116 20.3264 10.9209 20.3101C10.9317 20.291 10.9477 20.2621 10.9647 20.2266C11 20.1529 11.0409 20.0493 11.0639 19.9199L10.0792 19.7453ZM10.0392 19.8369L10.4294 20.7577L13.2743 19.5521L12.8841 18.6314L12.494 17.7107L9.64908 18.9162L10.0392 19.8369ZM12.8841 18.6314L13.2756 19.5516L13.6933 19.3739L13.3018 18.4537L12.9104 17.5335L12.4927 17.7112L12.8841 18.6314Z" fill="#18191B" mask="url(#path-14-inside-3_770_387)"/>
<mask id="path-16-inside-4_770_387" fill="white">
<path d="M9.87735 20.0007C9.85013 20.0146 9.81652 20.0257 9.78402 20.0368C9.77319 20.0368 9.76235 20.0368 9.75152 20.0423C9.71124 20.0479 9.67014 20.0479 9.62764 20.0368C9.59403 20.0312 9.56265 20.0201 9.53542 20.0034C9.51487 19.9923 9.49654 19.9784 9.48015 19.9646C9.47376 19.9618 9.46931 19.959 9.46292 19.9534C9.42043 19.9118 9.3846 19.8673 9.36293 19.809V19.8173C9.35321 19.7951 9.34237 19.7701 9.33599 19.7451L7 22.4366L7.44137 22.82L9.34988 20.6229L9.30127 23.3671L9.88818 23.3782L9.94679 20.0229L9.91651 19.9729C9.90457 19.9812 9.89262 19.9923 9.87735 20.0007Z"/>
</mask>
<path d="M9.87735 20.0007C9.85013 20.0146 9.81652 20.0257 9.78402 20.0368C9.77319 20.0368 9.76235 20.0368 9.75152 20.0423C9.71124 20.0479 9.67014 20.0479 9.62764 20.0368C9.59403 20.0312 9.56265 20.0201 9.53542 20.0034C9.51487 19.9923 9.49654 19.9784 9.48015 19.9646C9.47376 19.9618 9.46931 19.959 9.46292 19.9534C9.42043 19.9118 9.3846 19.8673 9.36293 19.809V19.8173C9.35321 19.7951 9.34237 19.7701 9.33599 19.7451L7 22.4366L7.44137 22.82L9.34988 20.6229L9.30127 23.3671L9.88818 23.3782L9.94679 20.0229L9.91651 19.9729C9.90457 19.9812 9.89262 19.9923 9.87735 20.0007Z" fill="#18191B"/>
<path d="M9.87735 20.0007L10.3321 20.8913L10.3458 20.8843L10.3593 20.8769L9.87735 20.0007ZM9.78402 20.0368V21.0368H9.95008L10.1072 20.9831L9.78402 20.0368ZM9.75152 20.0423L9.88922 21.0328L10.055 21.0097L10.2043 20.9339L9.75152 20.0423ZM9.62764 20.0368L9.88034 19.0692L9.83659 19.0578L9.79199 19.0504L9.62764 20.0368ZM9.53542 20.0034L10.0582 19.1509L10.0348 19.1366L10.0107 19.1235L9.53542 20.0034ZM9.48015 19.9646L10.1242 19.1996L10.0138 19.1066L9.8815 19.0487L9.48015 19.9646ZM9.46292 19.9534L8.76334 20.6679L8.78307 20.6873L8.80383 20.7055L9.46292 19.9534ZM9.36293 19.809L10.3003 19.4606L8.36293 19.809H9.36293ZM9.36293 19.8173L8.44689 20.2184L10.3629 19.8173H9.36293ZM9.33599 19.7451L10.3049 19.4978L9.83266 17.6472L8.58077 19.0896L9.33599 19.7451ZM7 22.4366L6.24478 21.7811L5.58959 22.536L6.34421 23.1915L7 22.4366ZM7.44137 22.82L6.78558 23.5749L7.54053 24.2307L8.19632 23.4758L7.44137 22.82ZM9.34988 20.6229L10.3497 20.6406L10.3984 17.8909L8.59493 19.9671L9.34988 20.6229ZM9.30127 23.3671L8.30143 23.3494L8.28374 24.348L9.28236 24.3669L9.30127 23.3671ZM9.88818 23.3782L9.86927 24.378L10.8705 24.3969L10.888 23.3957L9.88818 23.3782ZM9.94679 20.0229L10.9466 20.0404L10.9517 19.7518L10.8022 19.5049L9.94679 20.0229ZM9.91651 19.9729L10.7719 19.4549L10.2202 18.5439L9.34573 19.1518L9.91651 19.9729ZM9.87735 20.0007L9.42256 19.1101C9.44147 19.1004 9.45662 19.0937 9.46607 19.0897C9.47561 19.0857 9.48216 19.0832 9.48414 19.0825C9.4861 19.0818 9.48587 19.0819 9.4815 19.0834C9.47941 19.0841 9.47687 19.085 9.47332 19.0862C9.47127 19.0869 9.46429 19.0893 9.46081 19.0905L9.78402 20.0368L10.1072 20.9831C10.1108 20.9819 10.2259 20.9455 10.3321 20.8913L9.87735 20.0007ZM9.78402 20.0368V19.0368C9.78397 19.0368 9.76541 19.0367 9.74422 19.0374C9.72115 19.0381 9.68527 19.0399 9.64193 19.0454C9.55084 19.057 9.42919 19.0844 9.29872 19.1507L9.75152 20.0423L10.2043 20.9339C9.97232 21.0517 9.74786 21.0368 9.78402 21.0368V20.0368ZM9.75152 20.0423L9.61382 19.0518C9.66761 19.0443 9.76426 19.0389 9.88034 19.0692L9.62764 20.0368L9.37494 21.0043C9.57602 21.0568 9.75488 21.0514 9.88922 21.0328L9.75152 20.0423ZM9.62764 20.0368L9.79199 19.0504C9.86875 19.0632 9.9622 19.092 10.0582 19.1509L9.53542 20.0034L9.01262 20.8558C9.1631 20.9481 9.31931 20.9992 9.46329 21.0232L9.62764 20.0368ZM9.53542 20.0034L10.0107 19.1235C10.0751 19.1583 10.1158 19.1925 10.1242 19.1996L9.48015 19.9646L8.83607 20.7295C8.87733 20.7643 8.95468 20.8263 9.06017 20.8832L9.53542 20.0034ZM9.48015 19.9646L9.8815 19.0487C9.91506 19.0634 9.9618 19.0862 10.014 19.12C10.064 19.1522 10.1008 19.1827 10.122 19.2013L9.46292 19.9534L8.80383 20.7055C8.87988 20.7721 8.97006 20.8329 9.07881 20.8805L9.48015 19.9646ZM9.46292 19.9534L10.1625 19.2388C10.1741 19.2501 10.2504 19.3265 10.3003 19.4606L9.36293 19.809L8.42559 20.1574C8.51876 20.4081 8.6668 20.5734 8.76334 20.6679L9.46292 19.9534ZM9.36293 19.809H8.36293V19.8173H9.36293H10.3629V19.809H9.36293ZM9.36293 19.8173L10.279 19.4162C10.2737 19.4041 10.2764 19.4101 10.2803 19.42C10.2844 19.4305 10.2949 19.4584 10.3049 19.4978L9.33599 19.7451L8.36704 19.9924C8.39674 20.1087 8.44165 20.2064 8.44689 20.2184L9.36293 19.8173ZM9.33599 19.7451L8.58077 19.0896L6.24478 21.7811L7 22.4366L7.75522 23.0921L10.0912 20.4006L9.33599 19.7451ZM7 22.4366L6.34421 23.1915L6.78558 23.5749L7.44137 22.82L8.09716 22.065L7.65579 21.6816L7 22.4366ZM7.44137 22.82L8.19632 23.4758L10.1048 21.2787L9.34988 20.6229L8.59493 19.9671L6.68642 22.1642L7.44137 22.82ZM9.34988 20.6229L8.35004 20.6052L8.30143 23.3494L9.30127 23.3671L10.3011 23.3848L10.3497 20.6406L9.34988 20.6229ZM9.30127 23.3671L9.28236 24.3669L9.86927 24.378L9.88818 23.3782L9.90709 22.3784L9.32018 22.3673L9.30127 23.3671ZM9.88818 23.3782L10.888 23.3957L10.9466 20.0404L9.94679 20.0229L8.94694 20.0054L8.88833 23.3607L9.88818 23.3782ZM9.94679 20.0229L10.8022 19.5049L10.7719 19.4549L9.91651 19.9729L9.06114 20.4909L9.09142 20.5409L9.94679 20.0229ZM9.91651 19.9729L9.34573 19.1518C9.3226 19.1679 9.30442 19.1818 9.29744 19.1872C9.29541 19.1888 9.29365 19.1901 9.29248 19.191C9.29189 19.1915 9.29134 19.1919 9.29096 19.1922C9.29053 19.1925 9.2903 19.1927 9.29007 19.1929C9.28904 19.1937 9.29039 19.1926 9.29254 19.191C9.29684 19.1877 9.30888 19.1786 9.32548 19.1673C9.34248 19.1558 9.36607 19.1406 9.39537 19.1245L9.87735 20.0007L10.3593 20.8769C10.4312 20.8373 10.4837 20.7978 10.5038 20.7825C10.5092 20.7784 10.5137 20.7749 10.5157 20.7733C10.5189 20.7709 10.5179 20.7717 10.5176 20.7719C10.5167 20.7726 10.5045 20.7821 10.4873 20.794L9.91651 19.9729Z" fill="#18191B" mask="url(#path-16-inside-4_770_387)"/>
<path d="M9.90137 19.7068C9.89222 19.7495 9.86807 19.7819 9.83984 19.8084L9.77441 19.6795M9.90137 19.7068L9.77441 19.6795M9.90137 19.7068V19.7058M9.90137 19.7068L9.77441 19.6795M9.77441 19.6795V19.6785M9.8125 19.6863L9.90137 19.7058M9.8125 19.6863L9.77441 19.6785M9.8125 19.6863L9.90137 19.7058M9.8125 19.6863L9.77441 19.6785M9.90137 19.7058C9.92199 19.6051 9.8601 19.4996 9.75293 19.4734C9.75136 19.4731 9.74961 19.4737 9.74805 19.4734L9.72559 19.5828L9.77441 19.6785M9.72266 19.5779L9.72363 19.5789L9.74609 19.4724H9.74414M9.72266 19.5779L9.74414 19.4724M9.72266 19.5779L9.74414 19.4724M9.72266 19.5779L9.66895 19.4724C9.69169 19.4682 9.71699 19.4678 9.74414 19.4724M9.71094 19.6726L9.82617 19.8221C9.82413 19.8236 9.82241 19.8255 9.82031 19.8269L9.71094 19.6726Z" fill="#18191B" stroke="#18191B"/>
<path d="M9.03662 31.0048C9.03662 31.0048 9.03762 31.0014 9.03955 30.9969L9.04053 30.995C9.03835 31.0006 9.03702 31.0038 9.03662 31.0048ZM23.0229 14.1483C23.1321 14.1483 23.2202 14.2378 23.2202 14.3427C23.2202 14.4073 23.1876 14.4651 23.1343 14.5028C23.1295 14.5058 23.1241 14.5105 23.1177 14.5145C23.1004 14.5254 23.0758 14.5415 23.0444 14.5614C22.9813 14.6014 22.8892 14.6595 22.7729 14.7333C22.5396 14.8813 22.2061 15.093 21.8032 15.3475C20.9974 15.8566 19.9124 16.539 18.7866 17.2372C17.6603 17.9357 16.4954 18.649 15.5288 19.2196C14.7901 19.6557 14.1924 19.9929 13.8169 20.1825L13.5181 20.3212C13.3497 20.3869 13.2297 20.5048 13.1558 20.5897C13.0759 20.6815 13.0105 20.7816 12.9614 20.8651C12.9113 20.9504 12.8709 21.0306 12.8433 21.0878C12.8296 21.116 12.8175 21.1405 12.811 21.1542C12.8082 21.1602 12.8075 21.1631 12.8071 21.1639C12.8076 21.1629 12.8097 21.1582 12.813 21.1522C12.8149 21.1487 12.8189 21.1426 12.8237 21.1346C12.8256 21.1315 12.8294 21.1256 12.8345 21.118C12.8047 21.1625 12.7807 21.211 12.769 21.2352C12.7522 21.2704 12.7334 21.3123 12.7134 21.3583C12.673 21.451 12.6221 21.5736 12.563 21.7196C12.4442 22.0129 12.2867 22.4125 12.106 22.8798C11.7443 23.8149 11.283 25.0313 10.8286 26.2362C10.3741 27.4414 9.92568 28.6373 9.59033 29.5321C9.42267 29.9795 9.28303 30.3517 9.18506 30.6122C9.13609 30.7424 9.0981 30.8447 9.07178 30.9139C9.06827 30.9232 9.06406 30.9314 9.06104 30.9393C9.01368 30.9854 8.95045 31.0069 8.88721 30.994H8.88818C8.78213 30.9709 8.71761 30.8689 8.73389 30.7714C8.73528 30.767 8.7375 30.7602 8.74072 30.7509C8.74372 30.7422 8.74644 30.7341 8.74854 30.7284C8.74953 30.7257 8.75098 30.7238 8.75146 30.7225V30.7216L8.81006 30.5663L8.80713 30.5575C8.82399 30.5088 8.84547 30.4484 8.86963 30.3778C8.94194 30.1665 9.04452 29.8624 9.16455 29.4882C9.40458 28.7397 9.7153 27.7083 9.99658 26.576C10.2774 25.4455 10.5309 24.2039 10.6528 23.037C10.7574 22.0363 10.7687 21.0518 10.5952 20.2284L13.4819 19.0067H13.4829C13.5115 18.9981 13.5372 18.9873 13.5493 18.9823C13.5785 18.9703 13.6136 18.9549 13.6489 18.9384C13.7224 18.904 13.8261 18.8528 13.9526 18.7899C14.207 18.6634 14.5677 18.48 14.9985 18.2596C15.8613 17.8183 17.0117 17.2242 18.1675 16.6259C19.3239 16.0272 20.4862 15.425 21.3735 14.9667C21.8035 14.7446 22.1681 14.5566 22.436 14.4198L22.4448 14.4423L22.9419 14.1708C22.9701 14.1554 22.9969 14.1484 23.0229 14.1483Z" fill="#18191B" stroke="#18191B"/>
</g>
<defs>
<clipPath id="clip0_770_387">
<rect width="40" height="40" fill="white"/>
</clipPath>
</defs>
</svg>
