<svg width="40" height="40" viewBox="0 0 40 40" fill="none" xmlns="http://www.w3.org/2000/svg">
<g clip-path="url(#clip0_770_403)">
<path d="M30 0.75H10C4.89137 0.75 0.75 4.89137 0.75 10V30C0.75 35.1086 4.89137 39.25 10 39.25H30C35.1086 39.25 39.25 35.1086 39.25 30V10C39.25 4.89137 35.1086 0.75 30 0.75Z" fill="white"/>
<path d="M25.9556 9.17374C26.7809 9.17398 27.4496 9.84387 27.4497 10.6679C27.4497 11.4952 26.7805 12.1647 25.9556 12.1649C25.1282 12.1649 24.4575 11.4944 24.4575 10.6679C24.4576 9.84465 25.1278 9.17374 25.9556 9.17374Z" fill="#18191B" stroke="#18191B"/>
<path d="M21.3228 12.6512L21.313 12.6219C21.2986 12.5957 21.2703 12.5789 21.2378 12.5789C21.1989 12.5792 21.1605 12.6128 21.1567 12.658L21.1616 12.6824L21.1704 12.7449L21.1714 12.7517V12.7586C21.2035 13.1659 21.3352 13.5989 21.5298 14.0115L21.6167 14.1863L21.6177 14.1892C21.8754 14.6903 22.2043 15.1347 22.5171 15.4529L22.5229 15.4588C22.7335 15.6794 22.9292 15.8251 23.0679 15.9002C23.7238 16.2352 24.5424 16.1438 25.2632 15.7596L25.9507 15.3924L25.9976 16.1717L26.1997 19.5789H28.3979L28.6157 15.4949V15.0877C28.6141 14.7058 28.6016 14.396 28.5278 14.1199C28.4419 13.7983 28.2719 13.5289 27.8589 13.3045L27.7446 13.2556C27.6079 13.2093 27.4082 13.1701 27.1841 13.1502C27.0446 13.1378 26.9143 13.1345 26.811 13.1385C26.6908 13.143 26.6557 13.1554 26.6753 13.1482L26.6743 13.1472C26.6605 13.1523 26.6508 13.1568 26.647 13.158C26.6372 13.161 26.6284 13.1635 26.6235 13.1648C26.6208 13.1655 26.6182 13.1662 26.6157 13.1668M21.3228 12.6512V12.6629C21.3228 12.6695 21.3237 12.676 21.3237 12.6765V12.6951L21.3247 12.7146C21.3666 13.2603 21.6271 13.8252 21.7759 14.1121L21.7769 14.1131C21.8508 14.2549 21.908 14.3528 21.9165 14.367L21.9253 14.3816L21.936 14.3963C22.1875 14.7551 22.5008 15.2158 22.8862 15.5301C23.0865 15.6934 23.3348 15.8461 23.6353 15.9099V15.908C23.9354 15.9794 24.1991 15.9065 24.3989 15.8025C24.5924 15.7018 24.7533 15.5589 24.8589 15.4637L25.353 15.0174L24.7866 14.6668C24.6427 14.5778 24.4742 14.4571 24.2944 14.3181C24.2935 14.2675 24.2904 14.2178 24.2837 14.1687C24.5046 14.3387 24.7548 14.5001 25.022 14.5857L25.4175 14.7117L25.6147 14.3474C25.6896 14.2091 25.762 14.0421 25.8159 13.9275L25.8579 13.8387L25.8628 13.739C25.8771 13.449 25.9519 13.3904 25.9888 13.3631C26.0776 13.2972 26.2321 13.2471 26.5864 13.1726C26.5889 13.1722 26.5912 13.1729 26.5923 13.1726L26.5913 13.1717C26.594 13.1711 26.5973 13.1713 26.6001 13.1707L26.5005 12.6795C26.5017 12.6791 26.5027 12.6788 26.5034 12.6785M21.3228 12.6512C21.3229 12.6521 21.3226 12.6531 21.3228 12.6541L21.3237 12.659L21.3228 12.6512ZM26.5034 12.6785L26.6743 13.1463C26.6718 13.1473 26.6703 13.1488 26.6694 13.1492C26.6573 13.154 26.647 13.1574 26.6421 13.159C26.6323 13.1622 26.6245 13.164 26.6216 13.1648C26.6193 13.1655 26.6173 13.1663 26.6157 13.1668M26.5034 12.6785L26.7026 13.1316C26.7158 13.1252 26.7327 13.1187 26.7495 13.1082C26.7629 13.0998 26.8262 13.0614 26.8823 12.9881C26.9114 12.9457 26.9624 12.8312 26.979 12.7586C26.9808 12.7262 26.9759 12.6838 26.9683 12.6385C26.7611 12.6341 26.5876 12.6477 26.5034 12.6785ZM26.6157 13.1668C26.6146 13.1671 26.6135 13.1676 26.6128 13.1678C26.6095 13.1686 26.6061 13.1692 26.604 13.1697C26.6056 13.1693 26.6101 13.1682 26.6157 13.1668ZM22.853 12.5789C22.8796 12.5789 22.9093 12.5935 22.9272 12.6287L23.1519 13.073C23.1111 13.0689 23.0696 13.0683 23.0278 13.0681C22.9419 12.9412 22.8559 12.8138 22.8032 12.7371C22.7933 12.7219 22.7833 12.7056 22.7769 12.6961C22.774 12.6896 22.7712 12.6847 22.77 12.6805C22.7684 12.6743 22.7681 12.6691 22.7681 12.6648C22.7682 12.6169 22.8079 12.5789 22.853 12.5789Z" fill="#18191B" stroke="#18191B"/>
<path d="M32.5078 30.519C32.5082 30.521 32.5086 30.5229 32.5088 30.5239V30.5259C32.5088 30.5257 32.5083 30.5235 32.5078 30.521L32.5059 30.5044C32.5068 30.5105 32.5072 30.5157 32.5078 30.519ZM32.502 30.4175L32.5029 30.4194C32.5039 30.4219 32.5039 30.4233 32.5039 30.4233L32.502 30.4175ZM22.3037 30.77L22.2988 30.7339V30.7319C22.2985 30.7299 22.2975 30.7267 22.2969 30.7222C22.2956 30.7129 22.2935 30.6984 22.291 30.6792C22.2861 30.6405 22.2788 30.5819 22.2705 30.5063C22.2539 30.3553 22.2331 30.1351 22.2148 29.8628C22.1782 29.3164 22.154 28.5641 22.2041 27.7407C22.3063 26.0605 22.7097 24.2206 23.793 23.1382L23.8105 23.1196L23.8271 23.0991C23.9467 22.952 24.2727 22.6433 24.6953 22.3188C25.1152 21.9965 25.5806 21.6978 25.9678 21.5435L26.2832 21.4175V21.3452H28.3037C28.2997 21.379 28.297 21.4128 28.292 21.4458L28.2881 21.4692L28.2871 21.4937C28.2669 21.8693 28.1498 22.2269 28.0234 22.688L28.0205 22.6997C27.8166 23.5218 27.6479 24.4307 27.7715 25.3579C27.8888 26.2609 28.3022 26.8576 28.9443 27.5425L28.9561 27.5552L28.9688 27.5669C29.5 28.06 30.1386 28.5357 30.7402 28.978C31.3531 29.4286 31.9221 29.8408 32.3613 30.23L32.3945 30.2593C32.3987 30.2633 32.4033 30.2675 32.4082 30.272L32.4307 30.2935L32.4336 30.2954L32.4492 30.3091L32.4561 30.3169L32.4688 30.3394L32.4766 30.3501L32.4775 30.3521L32.4805 30.3589L32.4873 30.3804L32.4922 30.3931C32.495 30.4124 32.4967 30.4296 32.498 30.4468C32.4924 30.5472 32.4084 30.6304 32.3047 30.6304C32.2749 30.6304 32.2333 30.6193 32.1885 30.5884L32.166 30.5728C32.1464 30.5579 32.1195 30.5375 32.0859 30.5122C32.0104 30.4551 31.9011 30.3733 31.7686 30.2729C31.5033 30.0721 31.1423 29.7985 30.7598 29.5073C30.3755 29.2149 29.9723 28.9059 29.6221 28.6362L28.8047 27.9976C28.4608 27.6875 28.1631 27.4456 27.9121 27.1528L27.9082 27.1479L27.7529 26.9653C27.4062 26.5443 27.1694 26.1512 27.0215 25.7466C26.8537 25.2874 26.7899 24.7858 26.8369 24.1724L26.8379 24.1636V24.1548C26.8562 23.7079 26.9504 23.2651 27.0684 22.7876L27.1543 22.439L26.8516 22.2456C26.7973 22.211 26.7426 22.1885 26.7217 22.1802L26.4658 22.0796L26.2441 22.2397C26.1458 22.3108 26.0435 22.38 25.9336 22.4546C25.8298 22.525 25.7186 22.6003 25.6113 22.6792C24.6671 23.3387 23.6731 24.2005 23.2266 25.3755V25.3774C22.9126 26.2109 22.7887 27.5928 22.7363 28.7046C22.7095 29.274 22.7005 29.7965 22.6982 30.1782C22.6973 30.3322 22.6986 30.4683 22.6992 30.5737L22.3525 30.9302C22.3231 30.8962 22.3038 30.8533 22.3037 30.8062V30.77Z" fill="#18191B" stroke="#18191B"/>
<path d="M10.5615 8.51169C11.38 8.40993 12.1281 8.99587 12.2285 9.81442C12.3223 10.584 11.8156 11.2871 11.0771 11.456L10.9268 11.4824C10.1063 11.5842 9.35889 10.9998 9.25781 10.1787C9.15834 9.36015 9.74194 8.61146 10.5605 8.51169H10.5615Z" fill="#18191B" stroke="#18191B"/>
<path d="M11.1602 12.5837C11.3606 12.5756 11.5213 12.676 11.666 12.8425C11.7165 12.9007 11.7591 12.9623 11.7959 13.0193C11.6373 13.37 11.4043 13.8483 11.1406 14.2829C10.9753 14.5554 10.806 14.7966 10.6455 14.9763C10.5015 15.1375 10.3988 15.2071 10.3447 15.2331C10.2929 15.1918 10.2242 15.1312 10.1436 15.0525C9.96796 14.8811 9.77208 14.6678 9.62598 14.5056L9.31738 14.1618L8.9502 14.4431L8.88477 14.4929L8.45312 14.8239L8.81934 15.2263C9.03558 15.4638 9.26175 15.7103 9.46094 15.8972C9.56008 15.9902 9.66653 16.0812 9.77148 16.1521C9.85243 16.2067 10.0156 16.3076 10.2168 16.3132C10.6388 16.363 10.996 16.131 11.2363 15.9128C11.5097 15.6646 11.7601 15.3249 11.9746 14.9861C12.2989 14.4738 12.5793 13.9011 12.7656 13.49L12.9189 13.1404L12.9229 13.1306C12.934 13.1026 12.9437 13.0762 12.9531 13.0525L13.001 13.0232L13.041 12.8112C13.0423 12.808 13.0472 12.7994 13.0596 12.7859C13.091 12.7573 13.14 12.7567 13.1719 12.7849C13.1729 12.7862 13.1744 12.7879 13.1758 12.7898C13.179 12.794 13.1821 12.7992 13.1865 12.8054C13.1935 12.8169 13.1971 12.8289 13.1973 12.8425C13.1953 12.8512 13.1912 12.8706 13.1816 12.9021C13.1616 12.968 13.1296 13.0593 13.085 13.1736C12.996 13.4011 12.8678 13.6954 12.7178 14.0173C12.4168 14.6632 12.0412 15.3915 11.7441 15.8796C11.5388 16.2169 11.2316 16.5452 10.8496 16.7331C10.4833 16.9133 10.0209 16.9795 9.44336 16.7634L9.43457 16.7605L9.43848 16.7614C9.44322 16.7622 9.4052 16.7425 9.31738 16.6648C9.22498 16.583 9.11405 16.47 8.99414 16.3376C8.755 16.0736 8.50753 15.7605 8.34473 15.529C8.31619 15.4881 8.2778 15.4001 8.24609 15.2771C8.21851 15.1701 8.20658 15.0769 8.20312 15.0407C8.20018 14.8833 8.2182 14.561 8.33105 14.2155C8.44616 13.8633 8.64935 13.5142 9.00098 13.2702L9.00391 13.2683C9.495 12.9234 10.4134 12.6136 11.1602 12.5837Z" fill="#18191B" stroke="#18191B"/>
<path d="M17.0308 11.0887C17.0744 11.0766 17.121 11.1052 17.1323 11.1453L17.1333 11.1492C17.135 11.1549 17.1362 11.1626 17.1362 11.1707C17.1362 11.1789 17.1347 11.1863 17.1333 11.1912L17.1313 11.2L17.1294 11.2078C16.9566 11.885 16.3054 13.6532 15.9126 14.4861C15.7443 14.8405 15.4733 15.198 15.1128 15.4246C14.7667 15.6421 14.3131 15.7574 13.7163 15.6033L13.7124 15.6024C13.7079 15.6003 13.6957 15.5948 13.6753 15.5828C13.6344 15.5588 13.5796 15.5209 13.5103 15.4676C13.4441 15.4168 13.3719 15.3561 13.2944 15.2889C13.3049 15.2669 13.3154 15.2454 13.3247 15.2254C13.3297 15.215 13.335 15.2035 13.3403 15.1912C13.4203 15.0237 13.495 14.858 13.5649 14.701C13.6168 14.7383 13.6657 14.776 13.7144 14.8084C13.8152 14.8755 13.9218 14.9396 14.0249 14.9871C14.0913 15.0177 14.2116 15.0659 14.354 15.0731V15.074C14.7236 15.1097 15.0273 14.929 15.2407 14.7381C15.4574 14.5442 15.6448 14.2849 15.8032 14.0203C16.0427 13.6204 16.2521 13.1478 16.4185 12.7205L16.5698 12.3133C16.5716 12.3086 16.5732 12.3039 16.5747 12.2996C16.5788 12.2883 16.5843 12.2728 16.5903 12.2557C16.6025 12.2211 16.6197 12.1733 16.6392 12.117C16.6783 12.0039 16.7297 11.8544 16.7808 11.7059C16.832 11.5571 16.8831 11.4086 16.9214 11.2977C16.9405 11.2423 16.9562 11.1965 16.9673 11.1649C16.971 11.1541 16.9737 11.1452 16.9761 11.1385C16.9846 11.1177 17.0021 11.0978 17.0308 11.0887Z" fill="#18191B" stroke="#18191B"/>
<path d="M12.4141 16.8004C12.4961 17.1303 12.5414 17.3533 12.5645 17.5036L9.82617 18.6637C9.68708 18.4198 9.53988 18.1513 9.39062 17.8727C9.89078 18.0048 10.3914 18.0121 10.877 17.8727C11.6079 17.6627 12.1071 17.1898 12.4141 16.8004Z" fill="#18191B" stroke="#18191B"/>
<path d="M9.03662 31.0049C9.03662 31.0049 9.03762 31.0014 9.03955 30.997L9.04053 30.9951C9.03835 31.0007 9.03702 31.0039 9.03662 31.0049ZM23.0229 14.1484C23.1322 14.1484 23.2202 14.2378 23.2202 14.3427C23.2202 14.4073 23.1877 14.4652 23.1343 14.5029C23.1295 14.5059 23.1241 14.5106 23.1177 14.5146C23.1005 14.5255 23.0758 14.5416 23.0444 14.5615C22.9813 14.6015 22.8892 14.6596 22.7729 14.7334C22.5396 14.8814 22.2061 15.0931 21.8032 15.3476C20.9975 15.8567 19.9124 16.5391 18.7866 17.2373C17.6603 17.9358 16.4954 18.6491 15.5288 19.2197C14.7901 19.6558 14.1924 19.993 13.8169 20.1826L13.5181 20.3213C13.3497 20.387 13.2297 20.5049 13.1558 20.5898C13.076 20.6814 13.0105 20.7808 12.9614 20.8642C12.9113 20.9496 12.8709 21.0306 12.8433 21.0879C12.8296 21.1161 12.8175 21.1405 12.811 21.1543C12.8083 21.16 12.8076 21.163 12.8071 21.164C12.8078 21.1627 12.81 21.1588 12.813 21.1533C12.8148 21.1499 12.8178 21.1429 12.8228 21.1347C12.8249 21.1312 12.8293 21.1243 12.8354 21.1152C12.8051 21.1601 12.781 21.2095 12.769 21.2343C12.7521 21.2696 12.7335 21.3122 12.7134 21.3584C12.673 21.4511 12.6221 21.5737 12.563 21.7197C12.4442 22.013 12.2867 22.4126 12.106 22.8799C11.7443 23.815 11.283 25.0314 10.8286 26.2363C10.3741 27.4415 9.92567 28.6374 9.59033 29.5322C9.42267 29.9796 9.28303 30.3518 9.18506 30.6123C9.13609 30.7425 9.0981 30.8448 9.07178 30.914C9.06844 30.9228 9.06491 30.9308 9.06201 30.9384C9.01451 30.9852 8.95079 31.0071 8.88721 30.9941H8.88818C8.78189 30.9709 8.71707 30.8683 8.73389 30.7705C8.73529 30.7661 8.7377 30.7597 8.74072 30.7509C8.74372 30.7423 8.74644 30.7342 8.74854 30.7285C8.74952 30.7258 8.75098 30.7239 8.75146 30.7226V30.7216L8.81006 30.5664L8.80713 30.5576C8.824 30.5088 8.84546 30.4485 8.86963 30.3779C8.94196 30.1666 9.04446 29.8617 9.16455 29.4873C9.40455 28.7389 9.71537 27.7081 9.99658 26.5761C10.2774 25.4456 10.5309 24.2039 10.6528 23.0371C10.7574 22.0364 10.7687 21.0518 10.5952 20.2285L13.4819 19.0068H13.4829C13.5116 18.9981 13.5372 18.9874 13.5493 18.9824C13.5785 18.9704 13.6136 18.955 13.6489 18.9384C13.7224 18.9041 13.8261 18.8529 13.9526 18.79C14.207 18.6635 14.5677 18.4801 14.9985 18.2597C15.8613 17.8184 17.0117 17.2243 18.1675 16.6259C19.3239 16.0273 20.4862 15.4251 21.3735 14.9668C21.803 14.7449 22.1672 14.5567 22.4351 14.4199L22.4448 14.4433L22.9429 14.1699C22.9704 14.1549 22.9967 14.1485 23.0229 14.1484Z" fill="#18191B" stroke="#18191B"/>
<path d="M17.25 10.5C17.6642 10.5 18 10.8358 18 11.25C18 11.6642 17.6642 12 17.25 12C16.8358 12 16.5 11.6642 16.5 11.25C16.5 10.8358 16.8358 10.5 17.25 10.5Z" fill="#18191B" stroke="#18191B"/>
<path d="M13.25 11.5C13.6642 11.5 14 11.8358 14 12.25C14 12.6642 13.6642 13 13.25 13C12.8358 13 12.5 12.6642 12.5 12.25C12.5 11.8358 12.8358 11.5 13.25 11.5Z" fill="#18191B" stroke="#18191B"/>
<path d="M21.25 11.5C21.6642 11.5 22 11.8358 22 12.25C22 12.6642 21.6642 13 21.25 13C20.8358 13 20.5 12.6642 20.5 12.25C20.5 11.8358 20.8358 11.5 21.25 11.5Z" fill="#18191B" stroke="#18191B"/>
<path d="M22.25 11.5C22.6642 11.5 23 11.8358 23 12.25C23 12.6642 22.6642 13 22.25 13C21.8358 13 21.5 12.6642 21.5 12.25C21.5 11.8358 21.8358 11.5 22.25 11.5Z" fill="#18191B" stroke="#18191B"/>
</g>
<defs>
<clipPath id="clip0_770_403">
<rect width="40" height="40" fill="white"/>
</clipPath>
</defs>
</svg>
