<svg width="40" height="40" viewBox="0 0 40 40" fill="none" xmlns="http://www.w3.org/2000/svg">
<g clip-path="url(#clip0_770_417)">
<path d="M30 0.75H10C4.89137 0.75 0.75 4.89137 0.75 10V30C0.75 35.1086 4.89137 39.25 10 39.25H30C35.1086 39.25 39.25 35.1086 39.25 30V10C39.25 4.89137 35.1086 0.75 30 0.75Z" fill="white"/>
<path d="M18.8325 15.3021C19.2746 14.5369 20.2555 14.272 21.0239 14.7162V14.7152C21.7889 15.1602 22.0497 16.1416 21.6089 16.9056C21.193 17.625 20.3058 17.8995 19.5649 17.5677L19.4185 17.4925C18.6519 17.0513 18.389 16.0703 18.8325 15.3031V15.3021Z" fill="#18191B" stroke="#18191B"/>
<path d="M20.2554 11.3037C20.6979 10.5353 21.6768 10.2721 22.4448 10.7149C23.2128 11.1577 23.4755 12.1377 23.0337 12.9043C22.5899 13.6716 21.6101 13.9348 20.8413 13.4903L20.7036 13.4014C20.0452 12.9265 19.8396 12.0201 20.2544 11.3047L20.2554 11.3037Z" fill="#18191B" stroke="#18191B"/>
<path d="M15.6006 15.4518C15.8651 15.3175 16.2363 15.3095 16.6143 15.4479C16.9912 15.5861 17.2972 15.8419 17.4414 16.1237V16.1247C17.5586 16.3557 17.6163 16.6666 17.5938 16.9919C17.5712 17.3169 17.4712 17.6167 17.3193 17.8307L17.1738 18.0358L17.2529 18.2761C17.4506 18.8757 17.8011 19.3109 18.207 19.6257C18.2206 19.8242 18.2831 20.0097 18.3828 20.1706C17.6575 19.7781 17.1689 19.2035 16.8408 18.6423L16.6201 18.2643L16.2168 18.4333L13.8105 19.4401L13.2588 19.6706L13.583 20.1725C14.053 20.9004 14.4327 21.6861 14.7061 22.5065L14.8164 22.86C14.9052 23.1736 14.9828 23.5316 15.001 23.8718C15.0194 24.2169 14.9738 24.4919 14.8662 24.6823C14.2369 25.7446 13.3296 26.2184 12.1865 27.0651C11.6853 27.3632 11.1667 27.6893 10.6875 27.8532L10.666 27.861H10.6641V27.862H10.6631L10.5938 27.8825C10.582 27.886 10.5691 27.8884 10.5576 27.8884C10.4302 27.8884 10.3262 27.7816 10.3262 27.6589C10.3262 27.5906 10.353 27.5346 10.4043 27.489L10.502 27.4011L10.5088 27.3806C10.7056 27.1841 11.0029 26.9308 11.3643 26.6413C11.5642 26.4812 11.7776 26.3146 11.9951 26.1442C12.2117 25.9745 12.4324 25.8008 12.6455 25.6306C13.0676 25.2933 13.477 24.9538 13.7705 24.6579C13.9154 24.5118 14.0517 24.3562 14.1475 24.2028C14.2212 24.0846 14.3659 23.82 14.2676 23.5231H14.2686C14.2676 23.5201 14.2657 23.5174 14.2646 23.5143C14.264 23.5125 14.2643 23.5103 14.2637 23.5085H14.2627C14.2044 23.3365 14.0784 23.1039 13.9482 22.8796C13.8047 22.6323 13.6243 22.3397 13.4375 22.0407C13.057 21.4317 12.655 20.8007 12.4287 20.3825L11.7656 19.1569L11.498 20.5251C11.1854 22.1258 10.4297 23.6047 9.43945 24.819C8.73107 25.6849 7.06347 27.4906 6.89746 27.6657L6.89551 27.6667C6.85313 27.7117 6.79572 27.7389 6.73047 27.739C6.60195 27.739 6.50007 27.6354 6.5 27.5104C6.5 27.4767 6.50896 27.4395 6.53223 27.3972C6.53729 27.3896 6.54379 27.3798 6.55176 27.3679C6.5727 27.3366 6.60339 27.2907 6.64258 27.2321C6.72126 27.1146 6.83445 26.9456 6.9707 26.7419C7.2432 26.3345 7.61007 25.7861 7.98633 25.2224C8.7354 24.1 9.53181 22.9021 9.69141 22.6481L9.7002 22.6354L9.70703 22.6218C9.78794 22.4732 9.93662 22.2696 10.0977 21.779C10.2516 21.31 10.4245 20.5641 10.6338 19.2448C10.6808 19.0362 10.7331 18.8731 10.7969 18.7438L10.8232 18.6911L10.8359 18.6345C10.913 18.2965 11.134 17.994 11.4668 17.8239L11.4883 17.8122L15.6006 15.4518Z" fill="#18191B" stroke="#18191B"/>
<path d="M25.0166 13.1255C25.4359 13.0897 25.7705 13.1975 25.958 13.3873L29.0303 17.0865L29.043 17.1011L29.0557 17.1138C29.0865 17.1458 29.1512 17.2486 29.2295 17.4537C29.302 17.6438 29.368 17.8737 29.4268 18.1119C29.4851 18.3485 29.5337 18.5837 29.5723 18.7808C29.6082 18.9647 29.6406 19.1437 29.6602 19.2291C29.8693 20.5492 30.0421 21.2946 30.1953 21.7632C30.3551 22.252 30.5026 22.4571 30.5811 22.6041L30.5898 22.6207L30.6006 22.6363C30.9125 23.1269 33.2455 26.5105 33.7344 27.2173L33.3271 27.4976C32.9612 27.2246 32.5503 26.811 32.1279 26.3336C31.6805 25.8277 31.2455 25.282 30.8555 24.8033V24.8023L30.6514 24.5455C29.6517 23.2421 28.9216 21.6576 28.7061 19.9605C28.6918 19.8409 28.6764 19.7458 28.6621 19.6031L28.6191 19.1705L28.1846 19.1529L28.085 19.1461C28.0548 19.1429 28.0274 19.1386 28.002 19.1334L27.666 19.063L27.4795 19.3502C27.3992 19.474 27.2989 19.6005 27.1885 19.733C27.0949 19.8452 26.9818 19.9783 26.8896 20.0953C26.5977 20.4184 26.032 20.9371 25.4756 21.4537C25.2036 21.7062 24.9373 21.9559 24.7207 22.1695C24.5689 22.3192 24.4181 22.4739 24.3086 22.6089L24.2188 22.7291C24.0398 22.9942 24.1156 23.2945 24.1572 23.4293C24.2108 23.6024 24.3032 23.7885 24.4062 23.9683C24.6149 24.3326 24.9236 24.7701 25.2461 25.2086C25.4089 25.4299 25.5788 25.6568 25.7451 25.8785C25.9119 26.1008 26.0753 26.3183 26.2275 26.5259C26.5342 26.944 26.7767 27.2966 26.9102 27.5445C26.9115 27.5475 26.9135 27.5506 26.915 27.5543C26.9234 27.574 26.9345 27.6016 26.9453 27.6314C26.9563 27.6619 26.9652 27.6901 26.9707 27.7125C26.9719 27.7172 26.972 27.7212 26.9727 27.7242C26.969 27.8485 26.8697 27.9466 26.7451 27.9468C26.7097 27.9468 26.6773 27.9394 26.6504 27.9283C26.6303 27.9193 26.6011 27.8999 26.5723 27.8707L26.5479 27.8463L26.5215 27.8257L26.3154 27.6363C26.2147 27.5379 26.0843 27.4051 25.9297 27.2418C25.6311 26.9262 25.2663 26.5207 24.9033 26.0845C24.5398 25.6477 24.1828 25.1865 23.8965 24.7584C23.6763 24.4291 23.5127 24.141 23.415 23.9117L23.3398 23.7027C23.2838 23.492 23.3092 23.2148 23.417 22.8853C23.5227 22.5621 23.691 22.2369 23.8584 21.9556C24.571 20.7896 25.5283 19.7582 26.6387 18.9566L27.1309 18.6021L26.6885 18.1871L25.3594 16.941L24.8262 16.44L24.5537 17.1197C24.098 18.2574 23.1849 19.4119 21.334 19.6695L21.3184 19.6714L21.3027 19.6744C21.0335 19.7293 20.6843 19.7675 20.3398 19.7711C19.9881 19.7747 19.6817 19.7414 19.4814 19.6783H19.4805L19.4404 19.6646L19.3916 19.6578L19.3457 19.6431C19.3062 19.6223 19.2852 19.5836 19.2852 19.5435C19.2852 19.5399 19.286 19.5347 19.2881 19.5269C19.2904 19.5184 19.2944 19.5052 19.3037 19.4869L19.3086 19.4781C19.3095 19.4762 19.3097 19.4741 19.3105 19.4722C19.3112 19.4717 19.3125 19.4711 19.3135 19.4703C19.3159 19.4682 19.3188 19.4644 19.3232 19.4605C19.3601 19.4313 19.3868 19.4263 19.4014 19.4263C19.4219 19.4276 20.1339 19.452 20.6064 19.4029H20.6152L20.623 19.4009C20.9196 19.3602 21.7627 19.25 22.5527 18.8043C23.3686 18.3438 24.1361 17.5175 24.209 16.1021L24.2207 15.8707L24.0518 15.7125L23.8389 15.5123C23.6402 15.2992 23.5281 14.9512 23.5498 14.5552C23.569 14.2043 23.6909 13.8794 23.874 13.6558L23.9561 13.566C24.1979 13.3333 24.5982 13.1613 25.0166 13.1255Z" fill="#18191B" stroke="#18191B"/>
</g>
<defs>
<clipPath id="clip0_770_417">
<rect width="40" height="40" fill="white"/>
</clipPath>
</defs>
</svg>
