<svg width="40" height="40" viewBox="0 0 40 40" fill="none" xmlns="http://www.w3.org/2000/svg">
<g clip-path="url(#clip0_770_423)">
<path d="M30 0.75H10C4.89137 0.75 0.75 4.89137 0.75 10V30C0.75 35.1086 4.89137 39.25 10 39.25H30C35.1086 39.25 39.25 35.1086 39.25 30V10C39.25 4.89137 35.1086 0.75 30 0.75Z" fill="white"/>
<path d="M23.0635 8.78903C24.1064 8.18947 25.4406 8.54924 26.04 9.58981V9.59079C26.639 10.6291 26.2824 11.9623 25.2432 12.5654C24.2654 13.1281 23.034 12.8495 22.3867 11.955L22.2656 11.7685C21.6636 10.7282 22.0228 9.39495 23.0645 8.79001L23.0635 8.78903Z" fill="#18191B" stroke="#18191B"/>
<path d="M18.9297 11.8465C19.3493 11.5849 19.7628 11.6578 20.2598 11.8006V11.7996C20.722 11.9357 21.0179 12.1665 21.3027 12.4412C21.6225 12.7502 21.8308 13.2533 21.8604 13.7918C21.8896 14.3259 21.7389 14.8126 21.4492 15.1209C21.4423 15.1273 21.4338 15.1363 21.4229 15.1463C21.395 15.1719 21.3549 15.2092 21.3047 15.2557C21.2042 15.3488 21.0636 15.48 20.9033 15.6326L20.7676 15.7625L20.7627 15.8084L20.4336 16.076C20.3796 16.1197 20.3308 16.164 20.2832 16.2108L20.1416 16.3494L20.1338 16.5467C20.1019 17.2937 20.1733 18.0726 20.4395 18.9119L20.4492 18.9432L20.4639 18.9725C21.3466 20.8578 22.3385 21.3057 23.5957 22.3172L23.6045 22.325L23.6143 22.3318H23.6133C23.6152 22.3334 23.6182 22.3356 23.6221 22.3387C23.63 22.3451 23.6397 22.353 23.6494 22.3611C23.6573 22.3677 23.6644 22.374 23.6699 22.3787L23.6885 22.3973C23.7392 22.4577 23.7637 22.5326 23.7578 22.6092C23.7138 22.7574 23.637 22.8094 23.5703 22.8367C23.5277 22.8542 23.4858 22.8613 23.458 22.8641H23.4512C23.438 22.8628 23.4262 22.8617 23.418 22.8611C23.4141 22.8609 23.4097 22.8603 23.4072 22.8602H23.4053C23.3792 22.8547 23.3484 22.8416 23.3203 22.8211L23.2949 22.8026L23.2676 22.7879L23.2607 22.784L23.2139 22.7576C23.2085 22.7539 23.2023 22.7499 23.1953 22.7449C23.1451 22.7091 23.0724 22.6533 22.9805 22.5809C22.7979 22.4369 22.5537 22.2354 22.29 22.0076C21.7557 21.5461 21.1697 21.002 20.8428 20.616L20.8379 20.6102C20.1298 19.7994 19.7073 18.927 19.5127 17.9842L19.333 17.1111L18.6816 17.7195L17.8213 18.5242L17.3779 18.9393L17.8691 19.2947C19.3004 20.3316 20.5321 21.6462 21.4463 23.1541C21.6634 23.5135 21.8847 23.9396 22.0244 24.368C22.1654 24.8005 22.2065 25.1863 22.126 25.4949C22.0297 25.8361 21.7751 26.3145 21.4004 26.8738C21.0321 27.4235 20.5744 28.0143 20.1094 28.5721C19.645 29.129 19.1784 29.6472 18.7959 30.0506C18.4029 30.4651 18.1233 30.732 18.0244 30.8084L17.9912 30.8338L17.9619 30.8651C17.9316 30.8979 17.8875 30.9286 17.8428 30.9461L17.8271 30.952L17.8115 30.9598C17.7646 30.9818 17.7139 30.994 17.6592 30.994C17.4193 30.9938 17.2286 30.7993 17.2285 30.5662C17.2298 30.5579 17.2321 30.5449 17.2363 30.5281C17.245 30.494 17.2582 30.4541 17.2734 30.4129C17.2885 30.3723 17.3041 30.3358 17.3154 30.3104C17.3203 30.2993 17.3241 30.2914 17.3262 30.2869C17.4989 29.9614 17.8161 29.5015 18.21 28.9637C18.4041 28.6986 18.6121 28.4206 18.8242 28.1375C19.0358 27.8551 19.2514 27.5672 19.458 27.2859C19.868 26.7277 20.2569 26.1762 20.5176 25.7195C20.6466 25.4935 20.7581 25.2662 20.8213 25.0594C20.8721 24.893 20.9442 24.5737 20.7617 24.2957H20.7627C20.7619 24.2944 20.7606 24.2931 20.7598 24.2918C20.7579 24.289 20.7568 24.2858 20.7549 24.283H20.7539C20.6305 24.0965 20.392 23.8461 20.1387 23.5955C19.8651 23.3248 19.5272 23.0077 19.1807 22.6854C18.4777 22.0316 17.7527 21.3663 17.373 20.95C17.2563 20.8008 17.1096 20.6319 16.9854 20.4832C16.8442 20.3143 16.7138 20.1488 16.6084 19.9842L16.4229 19.6951L16.0859 19.7645C16.0115 19.7798 15.9341 19.7869 15.8486 19.7869H15.3945L15.3506 20.2391C15.3329 20.4207 15.3117 20.5752 15.2959 20.7059C15.0002 23.0386 13.9466 25.2053 12.5283 26.9363C12.0294 27.5447 11.4753 28.2431 10.9033 28.8924C10.3285 29.5449 9.76627 30.1119 9.26465 30.4617L9.23926 30.4793L9.2168 30.4988C9.16856 30.5419 9.12011 30.5684 9.06055 30.5838L9.06152 30.5906C9.02684 30.5982 9.00229 30.6043 8.97852 30.6082C8.95304 30.6124 8.93855 30.6131 8.93164 30.6131C8.69635 30.6131 8.50992 30.4291 8.50195 30.1971C8.50218 30.191 8.50391 30.1846 8.50391 30.1785V30.1697C8.50395 30.1525 8.50729 30.1261 8.51367 30.0926C8.51554 30.0874 8.51854 30.0821 8.52051 30.076L8.52734 30.0555L8.53125 30.035C8.53251 30.0295 8.53384 30.025 8.53613 30.0193C8.5389 30.0125 8.54466 30.0014 8.55566 29.9803C8.58154 29.937 8.59063 29.9234 8.59766 29.9149L8.6123 29.8983L8.625 29.8797C9.19649 29.0471 12.2317 24.6477 12.6328 24.0193L12.6436 24.0018L12.6533 23.9842C12.7558 23.7902 12.9342 23.5438 13.1328 22.9373C13.3265 22.3457 13.5487 21.3929 13.8184 19.6863C13.8429 19.5681 13.8774 19.3651 13.9141 19.1561C13.9573 18.9096 14.012 18.6152 14.082 18.3162C14.1524 18.0156 14.2358 17.7205 14.333 17.4705C14.4341 17.2107 14.5331 17.0455 14.6133 16.9637L14.6309 16.9461L14.6475 16.9256C14.6479 16.925 14.6485 16.9238 14.6494 16.9227C14.6514 16.9203 14.6544 16.9167 14.6582 16.9119C14.6659 16.9024 14.6775 16.8884 14.6924 16.8699C14.7223 16.8328 14.7662 16.7782 14.8223 16.7088C14.9344 16.5699 15.0953 16.3713 15.2891 16.1326C15.6768 15.655 16.1968 15.0164 16.7266 14.3758C17.2568 13.7346 17.7948 13.0929 18.2188 12.6063C18.4312 12.3624 18.6116 12.1622 18.7461 12.0213C18.814 11.9502 18.8649 11.8993 18.8994 11.868C18.9044 11.8635 18.9088 11.8601 18.9121 11.8572L18.9297 11.8465ZM28.1816 26.949L28.3213 27.0867L30.8447 29.8943L30.8525 29.9022L30.8594 29.91C31.0939 30.149 31.3834 30.312 31.6943 30.2811C31.7303 30.2775 31.7661 30.2698 31.8018 30.2606C31.717 30.2837 31.6282 30.3003 31.5381 30.2996C31.3164 30.2979 31.0631 30.2143 30.8223 29.9315L30.8135 29.9217L28.2861 27.116C28.2477 27.0725 28.1671 26.9717 28.0605 26.8377C28.105 26.8783 28.1459 26.9154 28.1816 26.949ZM32.2549 29.5154C32.2545 29.514 32.2547 29.5115 32.2539 29.5086C32.2518 29.5004 32.2485 29.4873 32.2451 29.4715C32.2381 29.4387 32.2324 29.4044 32.2305 29.3768C32.2309 29.3605 32.2374 29.3393 32.2598 29.3172C32.2852 29.2921 32.3212 29.2772 32.3574 29.2772C32.3764 29.2773 32.3983 29.2846 32.4199 29.2986L32.4268 29.3065L32.4385 29.3143L32.4512 29.326C32.4572 29.3329 32.4659 29.3424 32.4727 29.3572L32.4805 29.3748L32.4893 29.3914C32.4904 29.3943 32.4984 29.4141 32.5 29.4568C32.5019 29.5062 32.4943 29.5725 32.4717 29.6483C32.426 29.8008 32.3272 29.9619 32.1738 30.0809L32.1719 30.0818C32.0754 30.1572 31.95 30.2177 31.8135 30.2567C31.9256 30.2256 32.0339 30.1671 32.1201 30.074C32.2265 29.9592 32.3248 29.7528 32.2529 29.5154H32.2549Z" fill="#18191B" stroke="#18191B"/>
</g>
<defs>
<clipPath id="clip0_770_423">
<rect width="40" height="40" fill="white"/>
</clipPath>
</defs>
</svg>
