<svg width="40" height="40" viewBox="0 0 40 40" fill="none" xmlns="http://www.w3.org/2000/svg">
<g clip-path="url(#clip0_770_427)">
<path d="M30 0.75H10C4.89137 0.75 0.75 4.89137 0.75 10V30C0.75 35.1086 4.89137 39.25 10 39.25H30C35.1086 39.25 39.25 35.1086 39.25 30V10C39.25 4.89137 35.1086 0.75 30 0.75Z" fill="white"/>
<path d="M8.91113 23.0596C8.64421 22.1177 8.5 21.1252 8.5 20.0996C8.50001 19.0737 8.64401 18.0814 8.91113 17.1396V23.0596Z" fill="#18191B" stroke="#18191B"/>
<path d="M19.7192 9.07977C25.7293 9.07992 30.6227 13.7173 30.9243 19.5358L30.939 20.1032C30.9388 23.3418 29.5139 26.2554 27.2437 28.2731L27.4526 27.5417L27.7056 26.6511C29.2287 24.8728 30.1527 22.5783 30.1528 20.071C30.1528 14.4075 25.4717 9.83383 19.7192 9.83368C18.943 9.83368 18.1876 9.91889 17.4604 10.0768V9.30634C18.191 9.15968 18.9458 9.07977 19.7192 9.07977Z" fill="#18191B" stroke="#18191B"/>
<path d="M10.9736 9.46094L10.9229 9.35742L10.0127 7.5H15.3975V27.623H25.2861L24.1787 31.5H10.0127L10.9229 29.6445L10.9736 29.541V9.46094Z" fill="#18191B" stroke="#18191B"/>
</g>
<defs>
<clipPath id="clip0_770_427">
<rect width="40" height="40" fill="white"/>
</clipPath>
</defs>
</svg>
