<svg width="40" height="40" viewBox="0 0 40 40" fill="none" xmlns="http://www.w3.org/2000/svg">
<g clip-path="url(#clip0_770_432)">
<path d="M30 0.75H10C4.89137 0.75 0.75 4.89137 0.75 10V30C0.75 35.1086 4.89137 39.25 10 39.25H30C35.1086 39.25 39.25 35.1086 39.25 30V10C39.25 4.89137 35.1086 0.75 30 0.75Z" fill="white"/>
<path d="M13.1519 16.522C13.162 16.5348 13.1779 16.5525 13.1987 16.5777C13.2168 16.5996 13.2406 16.6297 13.2593 16.6539C13.2603 16.6552 13.2614 16.6574 13.2632 16.6597L13.3286 16.567L13.729 16.8013C14.7612 17.4051 16.3561 18.3421 17.6929 19.1275C18.3613 19.5202 18.965 19.8756 19.4019 20.1324C19.6202 20.2608 19.7974 20.3643 19.9194 20.4361C19.978 20.4706 20.0242 20.4974 20.0562 20.5162C20.0766 20.5233 20.0952 20.5259 20.1167 20.5201L20.1177 20.5191C20.1845 20.5014 20.2209 20.4355 20.2046 20.3736L20.2017 20.3629C20.1973 20.3451 20.1842 20.3203 20.1499 20.2994L20.1401 20.2935L20.1304 20.2867H20.1294C20.1289 20.2864 20.1284 20.2854 20.1274 20.2847C20.1255 20.2834 20.1224 20.2814 20.1187 20.2789C20.1111 20.2738 20.1 20.2662 20.0854 20.2564C20.0559 20.2365 20.0118 20.2074 19.9556 20.1695C19.8429 20.0935 19.6792 19.9833 19.4771 19.8472C19.0727 19.5751 18.5126 19.1988 17.8901 18.7828C16.644 17.95 15.1516 16.9603 14.1558 16.3248L13.8491 16.1285L13.9419 15.7759C13.9519 15.7377 13.9642 15.7034 13.978 15.6734C13.985 15.6584 13.9923 15.6441 13.9995 15.6314C14.0031 15.625 14.0067 15.6186 14.0103 15.6129C14.012 15.61 14.0144 15.6077 14.0161 15.605C14.017 15.6037 14.0172 15.6015 14.0181 15.6002L14.021 15.5972V15.5963L14.2632 15.2379L14.6528 15.4254C14.6942 15.4453 14.7334 15.4695 14.7739 15.4976H14.7749C15.7834 16.1429 17.2569 17.1191 18.481 17.9361C19.0934 18.3449 19.6446 18.7142 20.0454 18.9839C20.2457 19.1187 20.4085 19.2287 20.5229 19.3062C20.5743 19.341 20.6235 19.376 20.6626 19.4029L20.8081 19.4634L20.8394 19.5298C21.0185 19.6828 21.1457 19.885 21.2046 20.1138H21.2036C21.27 20.3682 21.2462 20.6271 21.1499 20.855C21.2373 20.8419 21.3111 20.851 21.3472 20.856C21.4095 20.8647 21.4705 20.8802 21.5239 20.8961C21.6319 20.9281 21.7578 20.9763 21.8911 21.0328C22.1606 21.147 22.5091 21.3152 22.9019 21.5152C23.6898 21.9164 24.6908 22.4634 25.6714 23.0123C26.6532 23.5619 27.6197 24.1163 28.3403 24.5328C28.7005 24.7409 28.9994 24.9147 29.2085 25.0367C29.313 25.0977 29.3957 25.1465 29.4517 25.1793C29.4794 25.1955 29.5007 25.2079 29.5151 25.2164C29.5224 25.2206 29.528 25.224 29.5317 25.2261C29.5333 25.2271 29.5347 25.2276 29.5356 25.2281L29.5366 25.2291H29.5376L29.5532 25.2388L29.5688 25.2496C29.6124 25.2797 29.6711 25.2949 29.7388 25.2818C29.8685 25.2535 29.9484 25.1264 29.9224 25.0035L29.9214 25.0015C29.9069 24.9316 29.8598 24.8715 29.7866 24.8375L29.8853 24.6236C29.8764 24.6164 29.8689 24.6084 29.8638 24.5992C29.7432 24.7982 29.7381 24.8087 29.7378 24.8091L29.7358 24.8082C29.7349 24.8076 29.7337 24.8063 29.7319 24.8052C29.7283 24.8031 29.7232 24.7997 29.7163 24.7955C29.7024 24.787 29.6816 24.7747 29.6548 24.7584C29.6009 24.7256 29.5218 24.6772 29.4214 24.6158C29.2205 24.4928 28.933 24.317 28.5884 24.1031C27.8993 23.6754 26.9784 23.0968 26.0532 22.4947C25.1296 21.8936 24.1947 21.2645 23.481 20.7369C23.1254 20.474 22.8148 20.2284 22.5854 20.0201C22.4717 19.9167 22.3673 19.8129 22.2856 19.7134C22.2208 19.6345 22.1051 19.4835 22.0757 19.2935V19.2925C22.0413 19.0923 21.8951 18.8183 21.2788 18.4293L21.2681 18.4224L21.2583 18.4156L15.4849 14.3472C15.35 14.2626 15.212 14.1997 15.0757 14.1578L15.0669 14.1548C15.0613 14.1534 15.0531 14.1515 15.0425 14.149C15.0104 14.1415 14.9614 14.1312 14.9028 14.1216C14.7819 14.102 14.6411 14.0887 14.519 14.0982C14.2006 14.1264 14.0113 14.1436 13.7339 14.2623C13.5568 14.3588 13.3963 14.4893 13.2622 14.65L13.2515 14.6627L13.2407 14.6744C13.223 14.693 13.1761 14.7576 13.1118 14.8902C13.0551 15.0072 12.9961 15.1521 12.9409 15.314C12.8974 15.5166 12.8931 15.724 12.9282 15.9293L12.978 16.1392L12.9829 16.1529L12.9858 16.1675C13.0019 16.2341 13.0452 16.3389 13.0991 16.4429L13.1538 16.5211L13.1519 16.522ZM13.1519 16.522L12.9106 16.7759M13.1519 16.522C13.1532 16.5239 13.1549 16.5262 13.1567 16.5289C13.1592 16.5324 13.1653 16.5407 13.1724 16.5523C13.176 16.5583 13.1825 16.5682 13.189 16.5806C13.1945 16.5914 13.2057 16.6145 13.2163 16.6451C13.2202 16.6562 13.2234 16.6721 13.228 16.691L12.8794 16.9839C12.8879 16.9874 12.852 16.943 12.8149 16.898L12.9106 16.7759M12.9106 16.7759L13.1001 16.5357C13.0864 16.5289 13.0609 16.5187 13.0278 16.5084L12.8862 16.5845L12.7456 16.8091L12.8052 16.8863L12.9106 16.7759ZM12.9644 16.4937L12.9272 16.5191L12.9458 16.4908C12.9523 16.4917 12.9584 16.4927 12.9644 16.4937Z" fill="#18191B" stroke="#18191B"/>
<path d="M9.42139 12.4141C9.90243 11.6615 10.9033 11.4396 11.6597 11.919C12.4121 12.397 12.6373 13.3965 12.1606 14.1524C11.6797 14.9069 10.6758 15.1292 9.92334 14.6514C9.16722 14.1717 8.94418 13.1707 9.42236 12.4151L9.42139 12.4141Z" fill="#18191B" stroke="#18191B"/>
<path d="M29.1445 28.0312V28.0303C29.3087 28.1119 29.412 28.1677 29.5205 28.2227C29.6083 28.2671 29.7237 28.3252 29.8398 28.3545C29.9595 28.3847 30.0901 28.3863 30.2227 28.3428C30.1933 28.3819 30.1709 28.4084 30.1523 28.4238C30.1226 28.4485 30.1091 28.4521 30.0732 28.4492C30.0087 28.444 29.9146 28.4153 29.7471 28.3447C29.6147 28.289 29.4232 28.2023 29.2266 28.1348L24.4014 25.7852C24.4195 25.7731 24.4375 25.7609 24.4551 25.748L29.1445 28.0312ZM21.5068 24.3047C21.5321 24.3414 21.5577 24.3769 21.582 24.4121L10.0273 18.7861L10.0586 18.7217L21.5068 24.3047Z" fill="#18191B" stroke="#18191B"/>
<mask id="path-5-inside-1_770_432" fill="white">
<path d="M28.7767 28.0973C28.101 28.7798 27.8887 28.6253 27.2675 28.3218L9.17634 19.455L9.0249 19.7652L27.1367 28.6643C28.0346 29.1372 28.648 28.7414 28.9679 28.3485C29.0808 28.2188 28.7178 28.2625 28.7767 28.0973Z"/>
</mask>
<path d="M28.7767 28.0973C28.101 28.7798 27.8887 28.6253 27.2675 28.3218L9.17634 19.455L9.0249 19.7652L27.1367 28.6643C28.0346 29.1372 28.648 28.7414 28.9679 28.3485C29.0808 28.2188 28.7178 28.2625 28.7767 28.0973Z" fill="#18191B"/>
<path d="M28.7767 28.0973L29.7187 28.4331L28.0661 27.3937L28.7767 28.0973ZM27.2675 28.3218L26.8274 29.2197L26.8286 29.2203L27.2675 28.3218ZM9.17634 19.455L9.61644 18.557L8.7171 18.1163L8.27771 19.0163L9.17634 19.455ZM9.0249 19.7652L8.12627 19.3265L7.68867 20.2228L8.58392 20.6627L9.0249 19.7652ZM27.1367 28.6643L27.6027 27.7795L27.5903 27.773L27.5777 27.7668L27.1367 28.6643ZM28.9679 28.3485L28.2137 27.6919L28.2029 27.7043L28.1925 27.7171L28.9679 28.3485ZM28.7767 28.0973L28.0661 27.3937C27.9215 27.5398 27.8459 27.5948 27.8188 27.6115C27.8057 27.6196 27.8611 27.5842 27.9611 27.5801C28.0489 27.5765 28.0909 27.6016 28.0375 27.5806C28.0112 27.5702 27.974 27.5537 27.9155 27.5256C27.852 27.4951 27.7965 27.4673 27.7065 27.4233L27.2675 28.3218L26.8286 29.2203C26.9532 29.2812 27.1375 29.3755 27.3033 29.4409C27.4856 29.5128 27.7393 29.5908 28.0423 29.5785C28.6711 29.5529 29.1325 29.1592 29.4874 28.8008L28.7767 28.0973ZM27.2675 28.3218L27.7076 27.4238L9.61644 18.557L9.17634 19.455L8.73624 20.3529L26.8274 29.2197L27.2675 28.3218ZM9.17634 19.455L8.27771 19.0163L8.12627 19.3265L9.0249 19.7652L9.92353 20.2039L10.075 19.8937L9.17634 19.455ZM9.0249 19.7652L8.58392 20.6627L26.6957 29.5618L27.1367 28.6643L27.5777 27.7668L9.46589 18.8677L9.0249 19.7652ZM27.1367 28.6643L26.6707 29.5491C27.3205 29.8913 27.9648 29.9611 28.5486 29.7912C29.1046 29.6293 29.4975 29.2818 29.7434 28.9799L28.9679 28.3485L28.1925 27.7171C28.1184 27.808 28.0447 27.8549 27.9896 27.8709C27.9651 27.878 27.9309 27.8836 27.8789 27.8772C27.8251 27.8706 27.7341 27.8487 27.6027 27.7795L27.1367 28.6643ZM28.9679 28.3485L29.7222 29.0051C29.7948 28.9216 29.9586 28.7117 29.986 28.3931C30.0008 28.2214 29.9725 28.0495 29.9041 27.8922C29.8385 27.7416 29.7487 27.6328 29.6738 27.5601C29.6001 27.4886 29.529 27.4405 29.4798 27.4107C29.4294 27.3801 29.3848 27.3586 29.3545 27.3448C29.3015 27.3208 29.2462 27.3008 29.2432 27.2997C29.2237 27.2924 29.243 27.299 29.2698 27.3117C29.2946 27.3235 29.3726 27.3617 29.4592 27.4381C29.5529 27.5208 29.6772 27.667 29.7372 27.8863C29.798 28.1086 29.7648 28.3037 29.7187 28.4331L28.7767 28.0973L27.8348 27.7615C27.7739 27.9322 27.7391 28.162 27.8081 28.4141C27.8763 28.6631 28.0184 28.834 28.136 28.9379C28.2467 29.0355 28.3548 29.0913 28.4124 29.1186C28.472 29.1469 28.5268 29.167 28.5419 29.1727C28.5736 29.1845 28.5521 29.177 28.5285 29.1663C28.513 29.1592 28.482 29.1446 28.4437 29.1214C28.4066 29.0989 28.3461 29.0586 28.281 28.9954C28.2147 28.9311 28.1316 28.8313 28.0702 28.6904C28.006 28.5429 27.9796 28.3815 27.9934 28.2214C28.0066 28.0685 28.0535 27.9475 28.0964 27.8649C28.1386 27.7837 28.184 27.726 28.2137 27.6919L28.9679 28.3485Z" fill="#18191B" mask="url(#path-5-inside-1_770_432)"/>
</g>
<defs>
<clipPath id="clip0_770_432">
<rect width="40" height="40" fill="white"/>
</clipPath>
</defs>
</svg>
