<svg width="40" height="40" viewBox="0 0 40 40" fill="none" xmlns="http://www.w3.org/2000/svg">
<g clip-path="url(#clip0_770_438)">
<path d="M30 0.75H10C4.89137 0.75 0.75 4.89137 0.75 10V30C0.75 35.1086 4.89137 39.25 10 39.25H30C35.1086 39.25 39.25 35.1086 39.25 30V10C39.25 4.89137 35.1086 0.75 30 0.75Z" fill="white"/>
<mask id="path-2-inside-1_770_438" fill="white">
<path d="M26.0535 12.0455C20.3741 8.55549 12.9407 10.3309 9.45029 16.0109L9 15.7342C12.6427 9.80641 20.4027 7.95362 26.3299 11.5959C28.053 12.6547 29.4302 14.062 30.4294 15.6698L30.117 16.1782C29.1503 14.5425 27.7857 13.1099 26.0535 12.0455Z"/>
</mask>
<path d="M26.0535 12.0455C20.3741 8.55549 12.9407 10.3309 9.45029 16.0109L9 15.7342C12.6427 9.80641 20.4027 7.95362 26.3299 11.5959C28.053 12.6547 29.4302 14.062 30.4294 15.6698L30.117 16.1782C29.1503 14.5425 27.7857 13.1099 26.0535 12.0455Z" fill="#18191B"/>
<path d="M26.0535 12.0455L25.53 12.8975L25.53 12.8975L26.0535 12.0455ZM9.45029 16.0109L8.92674 16.8629L9.77873 17.3864L10.3023 16.5345L9.45029 16.0109ZM9 15.7342L8.14801 15.2106L7.62444 16.0626L8.47645 16.5862L9 15.7342ZM26.3299 11.5959L25.8064 12.4479L25.8064 12.4479L26.3299 11.5959ZM30.4294 15.6698L31.2814 16.1933L31.6049 15.6668L31.2788 15.142L30.4294 15.6698ZM30.117 16.1782L29.2561 16.687L30.1003 18.1154L30.969 16.7017L30.117 16.1782ZM26.0535 12.0455L26.5771 11.1935C20.427 7.41429 12.3778 9.3369 8.5983 15.4873L9.45029 16.0109L10.3023 16.5345C13.5036 11.3249 20.3212 9.6967 25.53 12.8975L26.0535 12.0455ZM9.45029 16.0109L9.97384 15.1589L9.52355 14.8822L9 15.7342L8.47645 16.5862L8.92674 16.8629L9.45029 16.0109ZM9 15.7342L9.85199 16.2578C13.2056 10.8005 20.3497 9.09478 25.8064 12.4479L26.3299 11.5959L26.8535 10.7439C20.4557 6.81246 12.0799 8.81234 8.14801 15.2106L9 15.7342ZM26.3299 11.5959L25.8064 12.4479C27.3938 13.4233 28.6607 14.7183 29.5801 16.1976L30.4294 15.6698L31.2788 15.142C30.1997 13.4057 28.7123 11.8861 26.8534 10.7439L26.3299 11.5959ZM30.4294 15.6698L29.5774 15.1463L29.265 15.6547L30.117 16.1782L30.969 16.7017L31.2814 16.1933L30.4294 15.6698ZM30.117 16.1782L30.9779 15.6694C29.9311 13.8982 28.4525 12.3459 26.577 11.1935L26.0535 12.0455L25.53 12.8975C27.119 13.8739 28.3695 15.1868 29.2561 16.687L30.117 16.1782Z" fill="#18191B" mask="url(#path-2-inside-1_770_438)"/>
<path d="M21.627 19.9415C22.3152 18.7923 23.7991 18.4242 24.9453 19.1114C26.0879 19.8024 26.4594 21.2875 25.7734 22.4288C25.1268 23.5026 23.7816 23.8933 22.6729 23.3731L22.4541 23.2559C21.3111 22.5682 20.9397 21.0848 21.627 19.9434V19.9415Z" fill="#18191B" stroke="#18191B"/>
<path d="M6.74902 18.8477C6.7014 18.861 6.65737 18.8862 6.61816 18.92V19.2578H6.50977C6.52957 19.3487 6.58464 19.4333 6.6748 19.4883C6.74269 19.528 6.81447 19.5419 6.87695 19.5362L7.00781 19.5235C7.01566 19.5223 7.02389 19.5218 7.03223 19.5205C7.13903 19.5041 7.28576 19.4819 7.44434 19.459C7.75226 19.4145 8.13344 19.3631 8.3457 19.3496L8.93848 19.3223C14.9464 19.1626 17.3404 22.7251 17.415 22.8535L17.6113 23.1924L17.3301 23.4649C17.173 23.6166 17.0308 23.7946 16.9072 24.003L16.2881 25.1524C17.2839 25.1192 18.3084 25.0642 19.3398 24.9737C20.3779 24.8812 21.4235 24.8489 22.4561 24.8692C22.111 24.6719 21.7695 24.4651 21.4336 24.2666L21.3018 24.1875L21.2354 24.0489C21.1521 23.8723 21.0409 23.7012 20.9072 23.5391L20.9014 23.5303L20.8945 23.5225C20.8626 23.4804 20.7483 23.3683 20.5811 23.2364C20.4174 23.1072 20.2634 23.0067 20.1758 22.9668L20.1699 22.9639L20.1631 22.961C19.8427 22.804 19.5023 22.7258 19.1582 22.7217L18.6846 22.7159L18.667 22.3311C18.6431 22.2995 18.6056 22.2531 18.5488 22.1944C18.4087 22.0494 18.1927 21.8587 17.9062 21.6377C17.3348 21.1969 16.5175 20.6608 15.5518 20.1573C13.6057 19.1426 11.1386 18.3002 8.90234 18.5401L8.90332 18.541C8.63445 18.5701 8.09293 18.6445 7.6084 18.7149C7.36751 18.7499 7.14396 18.7836 6.97949 18.8096C6.89716 18.8226 6.83177 18.833 6.78711 18.8409C6.77213 18.8435 6.76059 18.8452 6.75293 18.8467L6.75098 18.8477H6.74902ZM6.74902 18.8477H6.75L6.75195 18.8467C6.74835 18.8474 6.74523 18.8482 6.74316 18.8487C6.74435 18.8484 6.74644 18.8483 6.74902 18.8477ZM31.4023 23.5069C31.5008 23.4398 31.6251 23.4243 31.7412 23.4727L31.7725 23.4854C31.933 23.577 32.0001 23.7735 31.9258 23.9414V23.9434C31.907 23.9859 31.8792 24.0223 31.8369 24.0586L31.8223 24.0713L31.7441 24.1494L31.7402 24.1553C31.7344 24.1606 31.7282 24.1682 31.7207 24.1748C31.6664 24.2228 31.5858 24.29 31.4824 24.3731C31.2761 24.5389 30.992 24.7569 30.6748 24.9883L29.8428 25.5948L30.834 25.8741C31.9963 26.2012 32.8979 26.6401 33.5 27.1963V27.7901C32.1741 26.8119 30.2901 26.0557 28.1631 25.5586C27.7547 25.4632 27.3351 25.3786 26.9072 25.3018C27.3953 25.3344 27.8304 25.3676 28.1455 25.3926C28.3065 25.4054 28.4361 25.4164 28.5254 25.4239C28.57 25.4276 28.6046 25.4306 28.6279 25.4326C28.6395 25.4336 28.6484 25.4341 28.6543 25.4346C28.6572 25.4349 28.6597 25.4355 28.6611 25.4356H28.6631L28.8135 25.4492L28.9463 25.377C29.4088 25.1248 29.7931 24.8318 30.1758 24.5166C30.5549 24.2044 30.912 23.8874 31.375 23.5244L31.4023 23.5069ZM6.59375 23.3614C7.10218 23.5593 7.83528 23.8253 8.73926 24.1026C10.0291 24.4981 11.6728 24.9155 13.5127 25.1866C12.2866 25.1767 11.1479 25.1389 10.1475 25.086C8.91103 25.0206 7.88799 24.9358 7.1748 24.8682C6.90299 24.8424 6.67626 24.8179 6.5 24.7989V23.3223C6.53054 23.3343 6.56138 23.3488 6.59375 23.3614Z" fill="#18191B" stroke="#18191B"/>
</g>
<defs>
<clipPath id="clip0_770_438">
<rect width="40" height="40" fill="white"/>
</clipPath>
</defs>
</svg>
