<svg width="40" height="40" viewBox="0 0 40 40" fill="none" xmlns="http://www.w3.org/2000/svg">
<g clip-path="url(#clip0_770_443)">
<path d="M30 0.75H10C4.89137 0.75 0.75 4.89137 0.75 10V30C0.75 35.1086 4.89137 39.25 10 39.25H30C35.1086 39.25 39.25 35.1086 39.25 30V10C39.25 4.89137 35.1086 0.75 30 0.75Z" fill="white"/>
<path d="M17.4229 26.4449H25.4834V30.3746H17.4229C16.3377 30.3745 15.458 29.4949 15.458 28.4097C15.4581 27.3246 16.3377 26.445 17.4229 26.4449Z" fill="#18191B" stroke="#18191B"/>
<path d="M21.0527 9.5752L21.498 13.4531L22.4873 13.4795L23.0791 9.99805L24.4561 10.168L24.9492 14.3506L25.9385 14.374L26.418 11.4824L27.4844 11.9297L27.1885 18.3486L25.6318 24.9072H17.25L13.1387 20.1182L12.5586 17.0244L13.8477 16.333L15.6348 17.2061L16.4824 17.6211L16.3496 16.6865L15.4717 10.543L17.3984 10.0547L18.0547 13.0547L19.0381 13.0186L19.542 9.5166L21.0527 9.5752Z" fill="#18191B" stroke="#18191B"/>
</g>
<defs>
<clipPath id="clip0_770_443">
<rect width="40" height="40" fill="white"/>
</clipPath>
</defs>
</svg>
