<svg width="40" height="40" viewBox="0 0 40 40" fill="none" xmlns="http://www.w3.org/2000/svg">
<g clip-path="url(#clip0_770_447)">
<path d="M30 0.75H10C4.89137 0.75 0.75 4.89137 0.75 10V30C0.75 35.1086 4.89137 39.25 10 39.25H30C35.1086 39.25 39.25 35.1086 39.25 30V10C39.25 4.89137 35.1086 0.75 30 0.75Z" fill="white"/>
<mask id="path-2-inside-1_770_447" fill="white">
<path d="M23.6113 15.0701C23.5542 15.0649 23.4728 15.0649 23.3526 15.0649C23.2782 15.0649 23.2008 15.0649 23.111 15.0649C23.0644 15.0649 23.0101 15.0649 22.9582 15.067C22.7576 15.0772 22.5427 15.0905 22.3114 15.0975C21.9527 15.1158 21.5991 15.121 21.2608 15.121C19.1539 15.121 18.0404 14.8153 17.6756 14.6901L17.2212 14.4995V14.9937L17.3485 15.0547C17.3954 15.0751 18.5162 15.5795 21.2608 15.5795C21.6064 15.5795 21.9679 15.5714 22.3317 15.5539C22.8268 15.5336 23.2589 15.508 23.6379 15.4744C23.6512 15.2626 23.6449 15.121 23.6113 15.0701Z"/>
</mask>
<path d="M23.6113 15.0701C23.5542 15.0649 23.4728 15.0649 23.3526 15.0649C23.2782 15.0649 23.2008 15.0649 23.111 15.0649C23.0644 15.0649 23.0101 15.0649 22.9582 15.067C22.7576 15.0772 22.5427 15.0905 22.3114 15.0975C21.9527 15.1158 21.5991 15.121 21.2608 15.121C19.1539 15.121 18.0404 14.8153 17.6756 14.6901L17.2212 14.4995V14.9937L17.3485 15.0547C17.3954 15.0751 18.5162 15.5795 21.2608 15.5795C21.6064 15.5795 21.9679 15.5714 22.3317 15.5539C22.8268 15.5336 23.2589 15.508 23.6379 15.4744C23.6512 15.2626 23.6449 15.121 23.6113 15.0701Z" fill="#18191B"/>
<path d="M23.6113 15.0701L24.4459 14.5192L24.1809 14.1178L23.702 14.0742L23.6113 15.0701ZM22.9582 15.067L22.9178 14.0678L22.9074 14.0683L22.9582 15.067ZM22.3114 15.0975L22.2811 14.098L22.2708 14.0983L22.2604 14.0988L22.3114 15.0975ZM17.6756 14.6901L17.2888 15.6123L17.3195 15.6252L17.351 15.636L17.6756 14.6901ZM17.2212 14.4995L17.608 13.5773L16.2212 12.9956V14.4995H17.2212ZM17.2212 14.9937H16.2212V15.6234L16.7891 15.8955L17.2212 14.9937ZM17.3485 15.0547L16.9164 15.9565L16.9329 15.9644L16.9496 15.9717L17.3485 15.0547ZM22.3317 15.5539L22.2907 14.5547L22.2836 14.5551L22.3317 15.5539ZM23.6379 15.4744L23.7262 16.4705L24.5821 16.3946L24.6359 15.5371L23.6379 15.4744ZM23.6113 15.0701L23.702 14.0742C23.588 14.0638 23.4495 14.0649 23.3526 14.0649V15.0649V16.0649C23.4153 16.0649 23.4571 16.0649 23.4903 16.0654C23.5251 16.066 23.53 16.0668 23.5206 16.066L23.6113 15.0701ZM23.3526 15.0649V14.0649C23.3524 14.0649 23.3523 14.0649 23.3522 14.0649C23.352 14.0649 23.3519 14.0649 23.3517 14.0649C23.3516 14.0649 23.3514 14.0649 23.3513 14.0649C23.3511 14.0649 23.351 14.0649 23.3508 14.0649C23.3507 14.0649 23.3506 14.0649 23.3504 14.0649C23.3503 14.0649 23.3501 14.0649 23.35 14.0649C23.3498 14.0649 23.3497 14.0649 23.3495 14.0649C23.3494 14.0649 23.3492 14.0649 23.3491 14.0649C23.349 14.0649 23.3488 14.0649 23.3487 14.0649C23.3485 14.0649 23.3484 14.0649 23.3482 14.0649C23.3481 14.0649 23.3479 14.0649 23.3478 14.0649C23.3476 14.0649 23.3475 14.0649 23.3474 14.0649C23.3472 14.0649 23.3471 14.0649 23.3469 14.0649C23.3468 14.0649 23.3466 14.0649 23.3465 14.0649C23.3463 14.0649 23.3462 14.0649 23.346 14.0649C23.3459 14.0649 23.3458 14.0649 23.3456 14.0649C23.3455 14.0649 23.3453 14.0649 23.3452 14.0649C23.345 14.0649 23.3449 14.0649 23.3447 14.0649C23.3446 14.0649 23.3444 14.0649 23.3443 14.0649C23.3441 14.0649 23.344 14.0649 23.3439 14.0649C23.3437 14.0649 23.3436 14.0649 23.3434 14.0649C23.3433 14.0649 23.3431 14.0649 23.343 14.0649C23.3428 14.0649 23.3427 14.0649 23.3425 14.0649C23.3424 14.0649 23.3423 14.0649 23.3421 14.0649C23.342 14.0649 23.3418 14.0649 23.3417 14.0649C23.3415 14.0649 23.3414 14.0649 23.3412 14.0649C23.3411 14.0649 23.3409 14.0649 23.3408 14.0649C23.3406 14.0649 23.3405 14.0649 23.3404 14.0649C23.3402 14.0649 23.3401 14.0649 23.3399 14.0649C23.3398 14.0649 23.3396 14.0649 23.3395 14.0649C23.3393 14.0649 23.3392 14.0649 23.339 14.0649C23.3389 14.0649 23.3387 14.0649 23.3386 14.0649C23.3385 14.0649 23.3383 14.0649 23.3382 14.0649C23.338 14.0649 23.3379 14.0649 23.3377 14.0649C23.3376 14.0649 23.3374 14.0649 23.3373 14.0649C23.3371 14.0649 23.337 14.0649 23.3368 14.0649C23.3367 14.0649 23.3366 14.0649 23.3364 14.0649C23.3363 14.0649 23.3361 14.0649 23.336 14.0649C23.3358 14.0649 23.3357 14.0649 23.3355 14.0649C23.3354 14.0649 23.3352 14.0649 23.3351 14.0649C23.3349 14.0649 23.3348 14.0649 23.3347 14.0649C23.3345 14.0649 23.3344 14.0649 23.3342 14.0649C23.3341 14.0649 23.3339 14.0649 23.3338 14.0649C23.3336 14.0649 23.3335 14.0649 23.3333 14.0649C23.3332 14.0649 23.333 14.0649 23.3329 14.0649C23.3328 14.0649 23.3326 14.0649 23.3325 14.0649C23.3323 14.0649 23.3322 14.0649 23.332 14.0649C23.3319 14.0649 23.3317 14.0649 23.3316 14.0649C23.3314 14.0649 23.3313 14.0649 23.3311 14.0649C23.331 14.0649 23.3308 14.0649 23.3307 14.0649C23.3306 14.0649 23.3304 14.0649 23.3303 14.0649C23.3301 14.0649 23.33 14.0649 23.3298 14.0649C23.3297 14.0649 23.3295 14.0649 23.3294 14.0649C23.3292 14.0649 23.3291 14.0649 23.3289 14.0649C23.3288 14.0649 23.3286 14.0649 23.3285 14.0649C23.3284 14.0649 23.3282 14.0649 23.3281 14.0649C23.3279 14.0649 23.3278 14.0649 23.3276 14.0649C23.3275 14.0649 23.3273 14.0649 23.3272 14.0649C23.327 14.0649 23.3269 14.0649 23.3267 14.0649C23.3266 14.0649 23.3264 14.0649 23.3263 14.0649C23.3261 14.0649 23.326 14.0649 23.3259 14.0649C23.3257 14.0649 23.3256 14.0649 23.3254 14.0649C23.3253 14.0649 23.3251 14.0649 23.325 14.0649C23.3248 14.0649 23.3247 14.0649 23.3245 14.0649C23.3244 14.0649 23.3242 14.0649 23.3241 14.0649C23.3239 14.0649 23.3238 14.0649 23.3236 14.0649C23.3235 14.0649 23.3234 14.0649 23.3232 14.0649C23.3231 14.0649 23.3229 14.0649 23.3228 14.0649C23.3226 14.0649 23.3225 14.0649 23.3223 14.0649C23.3222 14.0649 23.322 14.0649 23.3219 14.0649C23.3217 14.0649 23.3216 14.0649 23.3214 14.0649C23.3213 14.0649 23.3211 14.0649 23.321 14.0649C23.3209 14.0649 23.3207 14.0649 23.3206 14.0649C23.3204 14.0649 23.3203 14.0649 23.3201 14.0649C23.32 14.0649 23.3198 14.0649 23.3197 14.0649C23.3195 14.0649 23.3194 14.0649 23.3192 14.0649C23.3191 14.0649 23.3189 14.0649 23.3188 14.0649C23.3186 14.0649 23.3185 14.0649 23.3183 14.0649C23.3182 14.0649 23.3181 14.0649 23.3179 14.0649C23.3178 14.0649 23.3176 14.0649 23.3175 14.0649C23.3173 14.0649 23.3172 14.0649 23.317 14.0649C23.3169 14.0649 23.3167 14.0649 23.3166 14.0649C23.3164 14.0649 23.3163 14.0649 23.3161 14.0649C23.316 14.0649 23.3158 14.0649 23.3157 14.0649C23.3155 14.0649 23.3154 14.0649 23.3152 14.0649C23.3151 14.0649 23.3149 14.0649 23.3148 14.0649C23.3147 14.0649 23.3145 14.0649 23.3144 14.0649C23.3142 14.0649 23.3141 14.0649 23.3139 14.0649C23.3138 14.0649 23.3136 14.0649 23.3135 14.0649C23.3133 14.0649 23.3132 14.0649 23.313 14.0649C23.3129 14.0649 23.3127 14.0649 23.3126 14.0649C23.3124 14.0649 23.3123 14.0649 23.3121 14.0649C23.312 14.0649 23.3118 14.0649 23.3117 14.0649C23.3115 14.0649 23.3114 14.0649 23.3113 14.0649C23.3111 14.0649 23.311 14.0649 23.3108 14.0649C23.3107 14.0649 23.3105 14.0649 23.3104 14.0649C23.3102 14.0649 23.3101 14.0649 23.3099 14.0649C23.3098 14.0649 23.3096 14.0649 23.3095 14.0649C23.3093 14.0649 23.3092 14.0649 23.309 14.0649C23.3089 14.0649 23.3087 14.0649 23.3086 14.0649C23.3084 14.0649 23.3083 14.0649 23.3081 14.0649C23.308 14.0649 23.3078 14.0649 23.3077 14.0649C23.3075 14.0649 23.3074 14.0649 23.3072 14.0649C23.3071 14.0649 23.307 14.0649 23.3068 14.0649C23.3067 14.0649 23.3065 14.0649 23.3064 14.0649C23.3062 14.0649 23.3061 14.0649 23.3059 14.0649C23.3058 14.0649 23.3056 14.0649 23.3055 14.0649C23.3053 14.0649 23.3052 14.0649 23.305 14.0649C23.3049 14.0649 23.3047 14.0649 23.3046 14.0649C23.3044 14.0649 23.3043 14.0649 23.3041 14.0649C23.304 14.0649 23.3038 14.0649 23.3037 14.0649C23.3035 14.0649 23.3034 14.0649 23.3032 14.0649C23.3031 14.0649 23.3029 14.0649 23.3028 14.0649C23.3026 14.0649 23.3025 14.0649 23.3023 14.0649C23.3022 14.0649 23.302 14.0649 23.3019 14.0649C23.3017 14.0649 23.3016 14.0649 23.3015 14.0649C23.3013 14.0649 23.3012 14.0649 23.301 14.0649C23.3009 14.0649 23.3007 14.0649 23.3006 14.0649C23.3004 14.0649 23.3003 14.0649 23.3001 14.0649C23.3 14.0649 23.2998 14.0649 23.2997 14.0649C23.2995 14.0649 23.2994 14.0649 23.2992 14.0649C23.2991 14.0649 23.2989 14.0649 23.2988 14.0649C23.2986 14.0649 23.2985 14.0649 23.2983 14.0649C23.2982 14.0649 23.298 14.0649 23.2979 14.0649C23.2977 14.0649 23.2976 14.0649 23.2974 14.0649C23.2973 14.0649 23.2971 14.0649 23.297 14.0649C23.2968 14.0649 23.2967 14.0649 23.2965 14.0649C23.2964 14.0649 23.2962 14.0649 23.2961 14.0649C23.2959 14.0649 23.2958 14.0649 23.2956 14.0649C23.2955 14.0649 23.2953 14.0649 23.2952 14.0649C23.295 14.0649 23.2949 14.0649 23.2947 14.0649C23.2946 14.0649 23.2944 14.0649 23.2943 14.0649C23.2941 14.0649 23.294 14.0649 23.2938 14.0649C23.2937 14.0649 23.2935 14.0649 23.2934 14.0649C23.2932 14.0649 23.2931 14.0649 23.2929 14.0649C23.2928 14.0649 23.2926 14.0649 23.2925 14.0649C23.2923 14.0649 23.2922 14.0649 23.292 14.0649C23.2919 14.0649 23.2917 14.0649 23.2916 14.0649C23.2914 14.0649 23.2913 14.0649 23.2911 14.0649C23.291 14.0649 23.2908 14.0649 23.2907 14.0649C23.2905 14.0649 23.2904 14.0649 23.2902 14.0649C23.2901 14.0649 23.2899 14.0649 23.2898 14.0649C23.2896 14.0649 23.2895 14.0649 23.2893 14.0649C23.2892 14.0649 23.289 14.0649 23.2889 14.0649C23.2887 14.0649 23.2886 14.0649 23.2884 14.0649C23.2883 14.0649 23.2881 14.0649 23.288 14.0649C23.2878 14.0649 23.2877 14.0649 23.2875 14.0649C23.2874 14.0649 23.2872 14.0649 23.2871 14.0649C23.2869 14.0649 23.2868 14.0649 23.2866 14.0649C23.2865 14.0649 23.2863 14.0649 23.2862 14.0649C23.286 14.0649 23.2859 14.0649 23.2857 14.0649C23.2856 14.0649 23.2854 14.0649 23.2853 14.0649C23.2851 14.0649 23.285 14.0649 23.2848 14.0649C23.2847 14.0649 23.2845 14.0649 23.2844 14.0649C23.2842 14.0649 23.2841 14.0649 23.2839 14.0649C23.2838 14.0649 23.2836 14.0649 23.2835 14.0649C23.2833 14.0649 23.2832 14.0649 23.283 14.0649C23.2829 14.0649 23.2827 14.0649 23.2826 14.0649C23.2824 14.0649 23.2823 14.0649 23.2821 14.0649C23.282 14.0649 23.2818 14.0649 23.2817 14.0649C23.2815 14.0649 23.2814 14.0649 23.2812 14.0649C23.2811 14.0649 23.2809 14.0649 23.2808 14.0649C23.2806 14.0649 23.2805 14.0649 23.2803 14.0649C23.2802 14.0649 23.28 14.0649 23.2799 14.0649C23.2797 14.0649 23.2796 14.0649 23.2794 14.0649C23.2793 14.0649 23.2791 14.0649 23.279 14.0649C23.2788 14.0649 23.2787 14.0649 23.2785 14.0649C23.2784 14.0649 23.2782 14.0649 23.2781 14.0649C23.2779 14.0649 23.2777 14.0649 23.2776 14.0649C23.2774 14.0649 23.2773 14.0649 23.2771 14.0649C23.277 14.0649 23.2768 14.0649 23.2767 14.0649C23.2765 14.0649 23.2764 14.0649 23.2762 14.0649C23.2761 14.0649 23.2759 14.0649 23.2758 14.0649C23.2756 14.0649 23.2755 14.0649 23.2753 14.0649C23.2752 14.0649 23.275 14.0649 23.2749 14.0649C23.2747 14.0649 23.2746 14.0649 23.2744 14.0649C23.2743 14.0649 23.2741 14.0649 23.274 14.0649C23.2738 14.0649 23.2737 14.0649 23.2735 14.0649C23.2734 14.0649 23.2732 14.0649 23.2731 14.0649C23.2729 14.0649 23.2728 14.0649 23.2726 14.0649C23.2724 14.0649 23.2723 14.0649 23.2721 14.0649C23.272 14.0649 23.2718 14.0649 23.2717 14.0649C23.2715 14.0649 23.2714 14.0649 23.2712 14.0649C23.2711 14.0649 23.2709 14.0649 23.2708 14.0649C23.2706 14.0649 23.2705 14.0649 23.2703 14.0649C23.2702 14.0649 23.27 14.0649 23.2699 14.0649C23.2697 14.0649 23.2696 14.0649 23.2694 14.0649C23.2693 14.0649 23.2691 14.0649 23.269 14.0649C23.2688 14.0649 23.2687 14.0649 23.2685 14.0649C23.2683 14.0649 23.2682 14.0649 23.268 14.0649C23.2679 14.0649 23.2677 14.0649 23.2676 14.0649C23.2674 14.0649 23.2673 14.0649 23.2671 14.0649C23.267 14.0649 23.2668 14.0649 23.2667 14.0649C23.2665 14.0649 23.2664 14.0649 23.2662 14.0649C23.2661 14.0649 23.2659 14.0649 23.2658 14.0649C23.2656 14.0649 23.2655 14.0649 23.2653 14.0649C23.2651 14.0649 23.265 14.0649 23.2648 14.0649C23.2647 14.0649 23.2645 14.0649 23.2644 14.0649C23.2642 14.0649 23.2641 14.0649 23.2639 14.0649C23.2638 14.0649 23.2636 14.0649 23.2635 14.0649C23.2633 14.0649 23.2632 14.0649 23.263 14.0649C23.2629 14.0649 23.2627 14.0649 23.2626 14.0649C23.2624 14.0649 23.2622 14.0649 23.2621 14.0649C23.2619 14.0649 23.2618 14.0649 23.2616 14.0649C23.2615 14.0649 23.2613 14.0649 23.2612 14.0649C23.261 14.0649 23.2609 14.0649 23.2607 14.0649C23.2606 14.0649 23.2604 14.0649 23.2603 14.0649C23.2601 14.0649 23.26 14.0649 23.2598 14.0649C23.2596 14.0649 23.2595 14.0649 23.2593 14.0649C23.2592 14.0649 23.259 14.0649 23.2589 14.0649C23.2587 14.0649 23.2586 14.0649 23.2584 14.0649C23.2583 14.0649 23.2581 14.0649 23.258 14.0649C23.2578 14.0649 23.2577 14.0649 23.2575 14.0649C23.2573 14.0649 23.2572 14.0649 23.257 14.0649C23.2569 14.0649 23.2567 14.0649 23.2566 14.0649C23.2564 14.0649 23.2563 14.0649 23.2561 14.0649C23.256 14.0649 23.2558 14.0649 23.2557 14.0649C23.2555 14.0649 23.2554 14.0649 23.2552 14.0649C23.255 14.0649 23.2549 14.0649 23.2547 14.0649C23.2546 14.0649 23.2544 14.0649 23.2543 14.0649C23.2541 14.0649 23.254 14.0649 23.2538 14.0649C23.2537 14.0649 23.2535 14.0649 23.2534 14.0649C23.2532 14.0649 23.253 14.0649 23.2529 14.0649C23.2527 14.0649 23.2526 14.0649 23.2524 14.0649C23.2523 14.0649 23.2521 14.0649 23.252 14.0649C23.2518 14.0649 23.2517 14.0649 23.2515 14.0649C23.2514 14.0649 23.2512 14.0649 23.251 14.0649C23.2509 14.0649 23.2507 14.0649 23.2506 14.0649C23.2504 14.0649 23.2503 14.0649 23.2501 14.0649C23.25 14.0649 23.2498 14.0649 23.2497 14.0649C23.2495 14.0649 23.2493 14.0649 23.2492 14.0649C23.249 14.0649 23.2489 14.0649 23.2487 14.0649C23.2486 14.0649 23.2484 14.0649 23.2483 14.0649C23.2481 14.0649 23.248 14.0649 23.2478 14.0649C23.2476 14.0649 23.2475 14.0649 23.2473 14.0649C23.2472 14.0649 23.247 14.0649 23.2469 14.0649C23.2467 14.0649 23.2466 14.0649 23.2464 14.0649C23.2463 14.0649 23.2461 14.0649 23.2459 14.0649C23.2458 14.0649 23.2456 14.0649 23.2455 14.0649C23.2453 14.0649 23.2452 14.0649 23.245 14.0649C23.2449 14.0649 23.2447 14.0649 23.2446 14.0649C23.2444 14.0649 23.2442 14.0649 23.2441 14.0649C23.2439 14.0649 23.2438 14.0649 23.2436 14.0649C23.2435 14.0649 23.2433 14.0649 23.2432 14.0649C23.243 14.0649 23.2429 14.0649 23.2427 14.0649C23.2425 14.0649 23.2424 14.0649 23.2422 14.0649C23.2421 14.0649 23.2419 14.0649 23.2418 14.0649C23.2416 14.0649 23.2415 14.0649 23.2413 14.0649C23.2411 14.0649 23.241 14.0649 23.2408 14.0649C23.2407 14.0649 23.2405 14.0649 23.2404 14.0649C23.2402 14.0649 23.2401 14.0649 23.2399 14.0649C23.2397 14.0649 23.2396 14.0649 23.2394 14.0649C23.2393 14.0649 23.2391 14.0649 23.239 14.0649C23.2388 14.0649 23.2387 14.0649 23.2385 14.0649C23.2383 14.0649 23.2382 14.0649 23.238 14.0649C23.2379 14.0649 23.2377 14.0649 23.2376 14.0649C23.2374 14.0649 23.2373 14.0649 23.2371 14.0649C23.2369 14.0649 23.2368 14.0649 23.2366 14.0649C23.2365 14.0649 23.2363 14.0649 23.2362 14.0649C23.236 14.0649 23.2359 14.0649 23.2357 14.0649C23.2355 14.0649 23.2354 14.0649 23.2352 14.0649C23.2351 14.0649 23.2349 14.0649 23.2348 14.0649C23.2346 14.0649 23.2344 14.0649 23.2343 14.0649C23.2341 14.0649 23.234 14.0649 23.2338 14.0649C23.2337 14.0649 23.2335 14.0649 23.2334 14.0649C23.2332 14.0649 23.233 14.0649 23.2329 14.0649C23.2327 14.0649 23.2326 14.0649 23.2324 14.0649C23.2323 14.0649 23.2321 14.0649 23.2319 14.0649C23.2318 14.0649 23.2316 14.0649 23.2315 14.0649C23.2313 14.0649 23.2312 14.0649 23.231 14.0649C23.2308 14.0649 23.2307 14.0649 23.2305 14.0649C23.2304 14.0649 23.2302 14.0649 23.2301 14.0649C23.2299 14.0649 23.2298 14.0649 23.2296 14.0649C23.2294 14.0649 23.2293 14.0649 23.2291 14.0649C23.229 14.0649 23.2288 14.0649 23.2287 14.0649C23.2285 14.0649 23.2283 14.0649 23.2282 14.0649C23.228 14.0649 23.2279 14.0649 23.2277 14.0649C23.2276 14.0649 23.2274 14.0649 23.2272 14.0649C23.2271 14.0649 23.2269 14.0649 23.2268 14.0649C23.2266 14.0649 23.2265 14.0649 23.2263 14.0649C23.2261 14.0649 23.226 14.0649 23.2258 14.0649C23.2257 14.0649 23.2255 14.0649 23.2254 14.0649C23.2252 14.0649 23.225 14.0649 23.2249 14.0649C23.2247 14.0649 23.2246 14.0649 23.2244 14.0649C23.2243 14.0649 23.2241 14.0649 23.2239 14.0649C23.2238 14.0649 23.2236 14.0649 23.2235 14.0649C23.2233 14.0649 23.2232 14.0649 23.223 14.0649C23.2228 14.0649 23.2227 14.0649 23.2225 14.0649C23.2224 14.0649 23.2222 14.0649 23.222 14.0649C23.2219 14.0649 23.2217 14.0649 23.2216 14.0649C23.2214 14.0649 23.2213 14.0649 23.2211 14.0649C23.2209 14.0649 23.2208 14.0649 23.2206 14.0649C23.2205 14.0649 23.2203 14.0649 23.2202 14.0649C23.22 14.0649 23.2198 14.0649 23.2197 14.0649C23.2195 14.0649 23.2194 14.0649 23.2192 14.0649C23.219 14.0649 23.2189 14.0649 23.2187 14.0649C23.2186 14.0649 23.2184 14.0649 23.2183 14.0649C23.2181 14.0649 23.2179 14.0649 23.2178 14.0649C23.2176 14.0649 23.2175 14.0649 23.2173 14.0649C23.2171 14.0649 23.217 14.0649 23.2168 14.0649C23.2167 14.0649 23.2165 14.0649 23.2164 14.0649C23.2162 14.0649 23.216 14.0649 23.2159 14.0649C23.2157 14.0649 23.2156 14.0649 23.2154 14.0649C23.2152 14.0649 23.2151 14.0649 23.2149 14.0649C23.2148 14.0649 23.2146 14.0649 23.2144 14.0649C23.2143 14.0649 23.2141 14.0649 23.214 14.0649C23.2138 14.0649 23.2137 14.0649 23.2135 14.0649C23.2133 14.0649 23.2132 14.0649 23.213 14.0649C23.2129 14.0649 23.2127 14.0649 23.2125 14.0649C23.2124 14.0649 23.2122 14.0649 23.2121 14.0649C23.2119 14.0649 23.2117 14.0649 23.2116 14.0649C23.2114 14.0649 23.2113 14.0649 23.2111 14.0649C23.2109 14.0649 23.2108 14.0649 23.2106 14.0649C23.2105 14.0649 23.2103 14.0649 23.2102 14.0649C23.21 14.0649 23.2098 14.0649 23.2097 14.0649C23.2095 14.0649 23.2094 14.0649 23.2092 14.0649C23.209 14.0649 23.2089 14.0649 23.2087 14.0649C23.2086 14.0649 23.2084 14.0649 23.2082 14.0649C23.2081 14.0649 23.2079 14.0649 23.2078 14.0649C23.2076 14.0649 23.2074 14.0649 23.2073 14.0649C23.2071 14.0649 23.207 14.0649 23.2068 14.0649C23.2066 14.0649 23.2065 14.0649 23.2063 14.0649C23.2062 14.0649 23.206 14.0649 23.2058 14.0649C23.2057 14.0649 23.2055 14.0649 23.2054 14.0649C23.2052 14.0649 23.205 14.0649 23.2049 14.0649C23.2047 14.0649 23.2046 14.0649 23.2044 14.0649C23.2042 14.0649 23.2041 14.0649 23.2039 14.0649C23.2038 14.0649 23.2036 14.0649 23.2034 14.0649C23.2033 14.0649 23.2031 14.0649 23.203 14.0649C23.2028 14.0649 23.2026 14.0649 23.2025 14.0649C23.2023 14.0649 23.2022 14.0649 23.202 14.0649C23.2018 14.0649 23.2017 14.0649 23.2015 14.0649C23.2014 14.0649 23.2012 14.0649 23.201 14.0649C23.2009 14.0649 23.2007 14.0649 23.2005 14.0649C23.2004 14.0649 23.2002 14.0649 23.2001 14.0649C23.1999 14.0649 23.1997 14.0649 23.1996 14.0649C23.1994 14.0649 23.1993 14.0649 23.1991 14.0649C23.1989 14.0649 23.1988 14.0649 23.1986 14.0649C23.1985 14.0649 23.1983 14.0649 23.1981 14.0649C23.198 14.0649 23.1978 14.0649 23.1977 14.0649C23.1975 14.0649 23.1973 14.0649 23.1972 14.0649C23.197 14.0649 23.1968 14.0649 23.1967 14.0649C23.1965 14.0649 23.1964 14.0649 23.1962 14.0649C23.196 14.0649 23.1959 14.0649 23.1957 14.0649C23.1956 14.0649 23.1954 14.0649 23.1952 14.0649C23.1951 14.0649 23.1949 14.0649 23.1947 14.0649C23.1946 14.0649 23.1944 14.0649 23.1943 14.0649C23.1941 14.0649 23.1939 14.0649 23.1938 14.0649C23.1936 14.0649 23.1935 14.0649 23.1933 14.0649C23.1931 14.0649 23.193 14.0649 23.1928 14.0649C23.1926 14.0649 23.1925 14.0649 23.1923 14.0649C23.1922 14.0649 23.192 14.0649 23.1918 14.0649C23.1917 14.0649 23.1915 14.0649 23.1913 14.0649C23.1912 14.0649 23.191 14.0649 23.1909 14.0649C23.1907 14.0649 23.1905 14.0649 23.1904 14.0649C23.1902 14.0649 23.19 14.0649 23.1899 14.0649C23.1897 14.0649 23.1896 14.0649 23.1894 14.0649C23.1892 14.0649 23.1891 14.0649 23.1889 14.0649C23.1887 14.0649 23.1886 14.0649 23.1884 14.0649C23.1883 14.0649 23.1881 14.0649 23.1879 14.0649C23.1878 14.0649 23.1876 14.0649 23.1874 14.0649C23.1873 14.0649 23.1871 14.0649 23.187 14.0649C23.1868 14.0649 23.1866 14.0649 23.1865 14.0649C23.1863 14.0649 23.1861 14.0649 23.186 14.0649C23.1858 14.0649 23.1857 14.0649 23.1855 14.0649C23.1853 14.0649 23.1852 14.0649 23.185 14.0649C23.1848 14.0649 23.1847 14.0649 23.1845 14.0649C23.1844 14.0649 23.1842 14.0649 23.184 14.0649C23.1839 14.0649 23.1837 14.0649 23.1835 14.0649C23.1834 14.0649 23.1832 14.0649 23.183 14.0649C23.1829 14.0649 23.1827 14.0649 23.1826 14.0649C23.1824 14.0649 23.1822 14.0649 23.1821 14.0649C23.1819 14.0649 23.1817 14.0649 23.1816 14.0649C23.1814 14.0649 23.1812 14.0649 23.1811 14.0649C23.1809 14.0649 23.1808 14.0649 23.1806 14.0649C23.1804 14.0649 23.1803 14.0649 23.1801 14.0649C23.1799 14.0649 23.1798 14.0649 23.1796 14.0649C23.1794 14.0649 23.1793 14.0649 23.1791 14.0649C23.179 14.0649 23.1788 14.0649 23.1786 14.0649C23.1785 14.0649 23.1783 14.0649 23.1781 14.0649C23.178 14.0649 23.1778 14.0649 23.1776 14.0649C23.1775 14.0649 23.1773 14.0649 23.1771 14.0649C23.177 14.0649 23.1768 14.0649 23.1767 14.0649C23.1765 14.0649 23.1763 14.0649 23.1762 14.0649C23.176 14.0649 23.1758 14.0649 23.1757 14.0649C23.1755 14.0649 23.1753 14.0649 23.1752 14.0649C23.175 14.0649 23.1748 14.0649 23.1747 14.0649C23.1745 14.0649 23.1744 14.0649 23.1742 14.0649C23.174 14.0649 23.1739 14.0649 23.1737 14.0649C23.1735 14.0649 23.1734 14.0649 23.1732 14.0649C23.173 14.0649 23.1729 14.0649 23.1727 14.0649C23.1725 14.0649 23.1724 14.0649 23.1722 14.0649C23.172 14.0649 23.1719 14.0649 23.1717 14.0649C23.1715 14.0649 23.1714 14.0649 23.1712 14.0649C23.1711 14.0649 23.1709 14.0649 23.1707 14.0649C23.1706 14.0649 23.1704 14.0649 23.1702 14.0649C23.1701 14.0649 23.1699 14.0649 23.1697 14.0649C23.1696 14.0649 23.1694 14.0649 23.1692 14.0649C23.1691 14.0649 23.1689 14.0649 23.1687 14.0649C23.1686 14.0649 23.1684 14.0649 23.1682 14.0649C23.1681 14.0649 23.1679 14.0649 23.1677 14.0649C23.1676 14.0649 23.1674 14.0649 23.1672 14.0649C23.1671 14.0649 23.1669 14.0649 23.1667 14.0649C23.1666 14.0649 23.1664 14.0649 23.1663 14.0649C23.1661 14.0649 23.1659 14.0649 23.1658 14.0649C23.1656 14.0649 23.1654 14.0649 23.1653 14.0649C23.1651 14.0649 23.1649 14.0649 23.1648 14.0649C23.1646 14.0649 23.1644 14.0649 23.1643 14.0649C23.1641 14.0649 23.1639 14.0649 23.1638 14.0649C23.1636 14.0649 23.1634 14.0649 23.1633 14.0649C23.1631 14.0649 23.1629 14.0649 23.1628 14.0649C23.1626 14.0649 23.1624 14.0649 23.1623 14.0649C23.1621 14.0649 23.1619 14.0649 23.1618 14.0649C23.1616 14.0649 23.1614 14.0649 23.1613 14.0649C23.1611 14.0649 23.1609 14.0649 23.1608 14.0649C23.1606 14.0649 23.1604 14.0649 23.1603 14.0649C23.1601 14.0649 23.1599 14.0649 23.1598 14.0649C23.1596 14.0649 23.1594 14.0649 23.1593 14.0649C23.1591 14.0649 23.1589 14.0649 23.1588 14.0649C23.1586 14.0649 23.1584 14.0649 23.1583 14.0649C23.1581 14.0649 23.1579 14.0649 23.1577 14.0649C23.1576 14.0649 23.1574 14.0649 23.1572 14.0649C23.1571 14.0649 23.1569 14.0649 23.1567 14.0649C23.1566 14.0649 23.1564 14.0649 23.1562 14.0649C23.1561 14.0649 23.1559 14.0649 23.1557 14.0649C23.1556 14.0649 23.1554 14.0649 23.1552 14.0649C23.1551 14.0649 23.1549 14.0649 23.1547 14.0649C23.1546 14.0649 23.1544 14.0649 23.1542 14.0649C23.1541 14.0649 23.1539 14.0649 23.1537 14.0649C23.1536 14.0649 23.1534 14.0649 23.1532 14.0649C23.1531 14.0649 23.1529 14.0649 23.1527 14.0649C23.1525 14.0649 23.1524 14.0649 23.1522 14.0649C23.152 14.0649 23.1519 14.0649 23.1517 14.0649C23.1515 14.0649 23.1514 14.0649 23.1512 14.0649C23.151 14.0649 23.1509 14.0649 23.1507 14.0649C23.1505 14.0649 23.1504 14.0649 23.1502 14.0649C23.15 14.0649 23.1499 14.0649 23.1497 14.0649C23.1495 14.0649 23.1493 14.0649 23.1492 14.0649C23.149 14.0649 23.1488 14.0649 23.1487 14.0649C23.1485 14.0649 23.1483 14.0649 23.1482 14.0649C23.148 14.0649 23.1478 14.0649 23.1477 14.0649C23.1475 14.0649 23.1473 14.0649 23.1472 14.0649C23.147 14.0649 23.1468 14.0649 23.1466 14.0649C23.1465 14.0649 23.1463 14.0649 23.1461 14.0649C23.146 14.0649 23.1458 14.0649 23.1456 14.0649C23.1455 14.0649 23.1453 14.0649 23.1451 14.0649C23.145 14.0649 23.1448 14.0649 23.1446 14.0649C23.1444 14.0649 23.1443 14.0649 23.1441 14.0649C23.1439 14.0649 23.1438 14.0649 23.1436 14.0649C23.1434 14.0649 23.1433 14.0649 23.1431 14.0649C23.1429 14.0649 23.1427 14.0649 23.1426 14.0649C23.1424 14.0649 23.1422 14.0649 23.1421 14.0649C23.1419 14.0649 23.1417 14.0649 23.1416 14.0649C23.1414 14.0649 23.1412 14.0649 23.141 14.0649C23.1409 14.0649 23.1407 14.0649 23.1405 14.0649C23.1404 14.0649 23.1402 14.0649 23.14 14.0649C23.1399 14.0649 23.1397 14.0649 23.1395 14.0649C23.1393 14.0649 23.1392 14.0649 23.139 14.0649C23.1388 14.0649 23.1387 14.0649 23.1385 14.0649C23.1383 14.0649 23.1381 14.0649 23.138 14.0649C23.1378 14.0649 23.1376 14.0649 23.1375 14.0649C23.1373 14.0649 23.1371 14.0649 23.137 14.0649C23.1368 14.0649 23.1366 14.0649 23.1364 14.0649C23.1363 14.0649 23.1361 14.0649 23.1359 14.0649C23.1358 14.0649 23.1356 14.0649 23.1354 14.0649C23.1352 14.0649 23.1351 14.0649 23.1349 14.0649C23.1347 14.0649 23.1346 14.0649 23.1344 14.0649C23.1342 14.0649 23.134 14.0649 23.1339 14.0649C23.1337 14.0649 23.1335 14.0649 23.1334 14.0649C23.1332 14.0649 23.133 14.0649 23.1328 14.0649C23.1327 14.0649 23.1325 14.0649 23.1323 14.0649C23.1322 14.0649 23.132 14.0649 23.1318 14.0649C23.1316 14.0649 23.1315 14.0649 23.1313 14.0649C23.1311 14.0649 23.131 14.0649 23.1308 14.0649C23.1306 14.0649 23.1304 14.0649 23.1303 14.0649C23.1301 14.0649 23.1299 14.0649 23.1298 14.0649C23.1296 14.0649 23.1294 14.0649 23.1292 14.0649C23.1291 14.0649 23.1289 14.0649 23.1287 14.0649C23.1285 14.0649 23.1284 14.0649 23.1282 14.0649C23.128 14.0649 23.1279 14.0649 23.1277 14.0649C23.1275 14.0649 23.1273 14.0649 23.1272 14.0649C23.127 14.0649 23.1268 14.0649 23.1266 14.0649C23.1265 14.0649 23.1263 14.0649 23.1261 14.0649C23.126 14.0649 23.1258 14.0649 23.1256 14.0649C23.1254 14.0649 23.1253 14.0649 23.1251 14.0649C23.1249 14.0649 23.1247 14.0649 23.1246 14.0649C23.1244 14.0649 23.1242 14.0649 23.1241 14.0649C23.1239 14.0649 23.1237 14.0649 23.1235 14.0649C23.1234 14.0649 23.1232 14.0649 23.123 14.0649C23.1228 14.0649 23.1227 14.0649 23.1225 14.0649C23.1223 14.0649 23.1222 14.0649 23.122 14.0649C23.1218 14.0649 23.1216 14.0649 23.1215 14.0649C23.1213 14.0649 23.1211 14.0649 23.1209 14.0649C23.1208 14.0649 23.1206 14.0649 23.1204 14.0649C23.1202 14.0649 23.1201 14.0649 23.1199 14.0649C23.1197 14.0649 23.1195 14.0649 23.1194 14.0649C23.1192 14.0649 23.119 14.0649 23.1189 14.0649C23.1187 14.0649 23.1185 14.0649 23.1183 14.0649C23.1182 14.0649 23.118 14.0649 23.1178 14.0649C23.1176 14.0649 23.1175 14.0649 23.1173 14.0649C23.1171 14.0649 23.1169 14.0649 23.1168 14.0649C23.1166 14.0649 23.1164 14.0649 23.1162 14.0649C23.1161 14.0649 23.1159 14.0649 23.1157 14.0649C23.1155 14.0649 23.1154 14.0649 23.1152 14.0649C23.115 14.0649 23.1148 14.0649 23.1147 14.0649C23.1145 14.0649 23.1143 14.0649 23.1141 14.0649C23.114 14.0649 23.1138 14.0649 23.1136 14.0649C23.1134 14.0649 23.1133 14.0649 23.1131 14.0649C23.1129 14.0649 23.1127 14.0649 23.1126 14.0649C23.1124 14.0649 23.1122 14.0649 23.112 14.0649C23.1119 14.0649 23.1117 14.0649 23.1115 14.0649C23.1113 14.0649 23.1112 14.0649 23.111 14.0649V15.0649V16.0649C23.1112 16.0649 23.1113 16.0649 23.1115 16.0649C23.1117 16.0649 23.1119 16.0649 23.112 16.0649C23.1122 16.0649 23.1124 16.0649 23.1126 16.0649C23.1127 16.0649 23.1129 16.0649 23.1131 16.0649C23.1133 16.0649 23.1134 16.0649 23.1136 16.0649C23.1138 16.0649 23.114 16.0649 23.1141 16.0649C23.1143 16.0649 23.1145 16.0649 23.1147 16.0649C23.1148 16.0649 23.115 16.0649 23.1152 16.0649C23.1154 16.0649 23.1155 16.0649 23.1157 16.0649C23.1159 16.0649 23.1161 16.0649 23.1162 16.0649C23.1164 16.0649 23.1166 16.0649 23.1168 16.0649C23.1169 16.0649 23.1171 16.0649 23.1173 16.0649C23.1175 16.0649 23.1176 16.0649 23.1178 16.0649C23.118 16.0649 23.1182 16.0649 23.1183 16.0649C23.1185 16.0649 23.1187 16.0649 23.1189 16.0649C23.119 16.0649 23.1192 16.0649 23.1194 16.0649C23.1195 16.0649 23.1197 16.0649 23.1199 16.0649C23.1201 16.0649 23.1202 16.0649 23.1204 16.0649C23.1206 16.0649 23.1208 16.0649 23.1209 16.0649C23.1211 16.0649 23.1213 16.0649 23.1215 16.0649C23.1216 16.0649 23.1218 16.0649 23.122 16.0649C23.1222 16.0649 23.1223 16.0649 23.1225 16.0649C23.1227 16.0649 23.1228 16.0649 23.123 16.0649C23.1232 16.0649 23.1234 16.0649 23.1235 16.0649C23.1237 16.0649 23.1239 16.0649 23.1241 16.0649C23.1242 16.0649 23.1244 16.0649 23.1246 16.0649C23.1247 16.0649 23.1249 16.0649 23.1251 16.0649C23.1253 16.0649 23.1254 16.0649 23.1256 16.0649C23.1258 16.0649 23.126 16.0649 23.1261 16.0649C23.1263 16.0649 23.1265 16.0649 23.1266 16.0649C23.1268 16.0649 23.127 16.0649 23.1272 16.0649C23.1273 16.0649 23.1275 16.0649 23.1277 16.0649C23.1279 16.0649 23.128 16.0649 23.1282 16.0649C23.1284 16.0649 23.1285 16.0649 23.1287 16.0649C23.1289 16.0649 23.1291 16.0649 23.1292 16.0649C23.1294 16.0649 23.1296 16.0649 23.1298 16.0649C23.1299 16.0649 23.1301 16.0649 23.1303 16.0649C23.1304 16.0649 23.1306 16.0649 23.1308 16.0649C23.131 16.0649 23.1311 16.0649 23.1313 16.0649C23.1315 16.0649 23.1316 16.0649 23.1318 16.0649C23.132 16.0649 23.1322 16.0649 23.1323 16.0649C23.1325 16.0649 23.1327 16.0649 23.1328 16.0649C23.133 16.0649 23.1332 16.0649 23.1334 16.0649C23.1335 16.0649 23.1337 16.0649 23.1339 16.0649C23.134 16.0649 23.1342 16.0649 23.1344 16.0649C23.1346 16.0649 23.1347 16.0649 23.1349 16.0649C23.1351 16.0649 23.1352 16.0649 23.1354 16.0649C23.1356 16.0649 23.1358 16.0649 23.1359 16.0649C23.1361 16.0649 23.1363 16.0649 23.1364 16.0649C23.1366 16.0649 23.1368 16.0649 23.137 16.0649C23.1371 16.0649 23.1373 16.0649 23.1375 16.0649C23.1376 16.0649 23.1378 16.0649 23.138 16.0649C23.1381 16.0649 23.1383 16.0649 23.1385 16.0649C23.1387 16.0649 23.1388 16.0649 23.139 16.0649C23.1392 16.0649 23.1393 16.0649 23.1395 16.0649C23.1397 16.0649 23.1399 16.0649 23.14 16.0649C23.1402 16.0649 23.1404 16.0649 23.1405 16.0649C23.1407 16.0649 23.1409 16.0649 23.141 16.0649C23.1412 16.0649 23.1414 16.0649 23.1416 16.0649C23.1417 16.0649 23.1419 16.0649 23.1421 16.0649C23.1422 16.0649 23.1424 16.0649 23.1426 16.0649C23.1427 16.0649 23.1429 16.0649 23.1431 16.0649C23.1433 16.0649 23.1434 16.0649 23.1436 16.0649C23.1438 16.0649 23.1439 16.0649 23.1441 16.0649C23.1443 16.0649 23.1444 16.0649 23.1446 16.0649C23.1448 16.0649 23.145 16.0649 23.1451 16.0649C23.1453 16.0649 23.1455 16.0649 23.1456 16.0649C23.1458 16.0649 23.146 16.0649 23.1461 16.0649C23.1463 16.0649 23.1465 16.0649 23.1466 16.0649C23.1468 16.0649 23.147 16.0649 23.1472 16.0649C23.1473 16.0649 23.1475 16.0649 23.1477 16.0649C23.1478 16.0649 23.148 16.0649 23.1482 16.0649C23.1483 16.0649 23.1485 16.0649 23.1487 16.0649C23.1488 16.0649 23.149 16.0649 23.1492 16.0649C23.1493 16.0649 23.1495 16.0649 23.1497 16.0649C23.1499 16.0649 23.15 16.0649 23.1502 16.0649C23.1504 16.0649 23.1505 16.0649 23.1507 16.0649C23.1509 16.0649 23.151 16.0649 23.1512 16.0649C23.1514 16.0649 23.1515 16.0649 23.1517 16.0649C23.1519 16.0649 23.152 16.0649 23.1522 16.0649C23.1524 16.0649 23.1525 16.0649 23.1527 16.0649C23.1529 16.0649 23.1531 16.0649 23.1532 16.0649C23.1534 16.0649 23.1536 16.0649 23.1537 16.0649C23.1539 16.0649 23.1541 16.0649 23.1542 16.0649C23.1544 16.0649 23.1546 16.0649 23.1547 16.0649C23.1549 16.0649 23.1551 16.0649 23.1552 16.0649C23.1554 16.0649 23.1556 16.0649 23.1557 16.0649C23.1559 16.0649 23.1561 16.0649 23.1562 16.0649C23.1564 16.0649 23.1566 16.0649 23.1567 16.0649C23.1569 16.0649 23.1571 16.0649 23.1572 16.0649C23.1574 16.0649 23.1576 16.0649 23.1577 16.0649C23.1579 16.0649 23.1581 16.0649 23.1583 16.0649C23.1584 16.0649 23.1586 16.0649 23.1588 16.0649C23.1589 16.0649 23.1591 16.0649 23.1593 16.0649C23.1594 16.0649 23.1596 16.0649 23.1598 16.0649C23.1599 16.0649 23.1601 16.0649 23.1603 16.0649C23.1604 16.0649 23.1606 16.0649 23.1608 16.0649C23.1609 16.0649 23.1611 16.0649 23.1613 16.0649C23.1614 16.0649 23.1616 16.0649 23.1618 16.0649C23.1619 16.0649 23.1621 16.0649 23.1623 16.0649C23.1624 16.0649 23.1626 16.0649 23.1628 16.0649C23.1629 16.0649 23.1631 16.0649 23.1633 16.0649C23.1634 16.0649 23.1636 16.0649 23.1638 16.0649C23.1639 16.0649 23.1641 16.0649 23.1643 16.0649C23.1644 16.0649 23.1646 16.0649 23.1648 16.0649C23.1649 16.0649 23.1651 16.0649 23.1653 16.0649C23.1654 16.0649 23.1656 16.0649 23.1658 16.0649C23.1659 16.0649 23.1661 16.0649 23.1663 16.0649C23.1664 16.0649 23.1666 16.0649 23.1667 16.0649C23.1669 16.0649 23.1671 16.0649 23.1672 16.0649C23.1674 16.0649 23.1676 16.0649 23.1677 16.0649C23.1679 16.0649 23.1681 16.0649 23.1682 16.0649C23.1684 16.0649 23.1686 16.0649 23.1687 16.0649C23.1689 16.0649 23.1691 16.0649 23.1692 16.0649C23.1694 16.0649 23.1696 16.0649 23.1697 16.0649C23.1699 16.0649 23.1701 16.0649 23.1702 16.0649C23.1704 16.0649 23.1706 16.0649 23.1707 16.0649C23.1709 16.0649 23.1711 16.0649 23.1712 16.0649C23.1714 16.0649 23.1715 16.0649 23.1717 16.0649C23.1719 16.0649 23.172 16.0649 23.1722 16.0649C23.1724 16.0649 23.1725 16.0649 23.1727 16.0649C23.1729 16.0649 23.173 16.0649 23.1732 16.0649C23.1734 16.0649 23.1735 16.0649 23.1737 16.0649C23.1739 16.0649 23.174 16.0649 23.1742 16.0649C23.1744 16.0649 23.1745 16.0649 23.1747 16.0649C23.1748 16.0649 23.175 16.0649 23.1752 16.0649C23.1753 16.0649 23.1755 16.0649 23.1757 16.0649C23.1758 16.0649 23.176 16.0649 23.1762 16.0649C23.1763 16.0649 23.1765 16.0649 23.1767 16.0649C23.1768 16.0649 23.177 16.0649 23.1771 16.0649C23.1773 16.0649 23.1775 16.0649 23.1776 16.0649C23.1778 16.0649 23.178 16.0649 23.1781 16.0649C23.1783 16.0649 23.1785 16.0649 23.1786 16.0649C23.1788 16.0649 23.179 16.0649 23.1791 16.0649C23.1793 16.0649 23.1794 16.0649 23.1796 16.0649C23.1798 16.0649 23.1799 16.0649 23.1801 16.0649C23.1803 16.0649 23.1804 16.0649 23.1806 16.0649C23.1808 16.0649 23.1809 16.0649 23.1811 16.0649C23.1812 16.0649 23.1814 16.0649 23.1816 16.0649C23.1817 16.0649 23.1819 16.0649 23.1821 16.0649C23.1822 16.0649 23.1824 16.0649 23.1826 16.0649C23.1827 16.0649 23.1829 16.0649 23.183 16.0649C23.1832 16.0649 23.1834 16.0649 23.1835 16.0649C23.1837 16.0649 23.1839 16.0649 23.184 16.0649C23.1842 16.0649 23.1844 16.0649 23.1845 16.0649C23.1847 16.0649 23.1848 16.0649 23.185 16.0649C23.1852 16.0649 23.1853 16.0649 23.1855 16.0649C23.1857 16.0649 23.1858 16.0649 23.186 16.0649C23.1861 16.0649 23.1863 16.0649 23.1865 16.0649C23.1866 16.0649 23.1868 16.0649 23.187 16.0649C23.1871 16.0649 23.1873 16.0649 23.1874 16.0649C23.1876 16.0649 23.1878 16.0649 23.1879 16.0649C23.1881 16.0649 23.1883 16.0649 23.1884 16.0649C23.1886 16.0649 23.1887 16.0649 23.1889 16.0649C23.1891 16.0649 23.1892 16.0649 23.1894 16.0649C23.1896 16.0649 23.1897 16.0649 23.1899 16.0649C23.19 16.0649 23.1902 16.0649 23.1904 16.0649C23.1905 16.0649 23.1907 16.0649 23.1909 16.0649C23.191 16.0649 23.1912 16.0649 23.1913 16.0649C23.1915 16.0649 23.1917 16.0649 23.1918 16.0649C23.192 16.0649 23.1922 16.0649 23.1923 16.0649C23.1925 16.0649 23.1926 16.0649 23.1928 16.0649C23.193 16.0649 23.1931 16.0649 23.1933 16.0649C23.1935 16.0649 23.1936 16.0649 23.1938 16.0649C23.1939 16.0649 23.1941 16.0649 23.1943 16.0649C23.1944 16.0649 23.1946 16.0649 23.1947 16.0649C23.1949 16.0649 23.1951 16.0649 23.1952 16.0649C23.1954 16.0649 23.1956 16.0649 23.1957 16.0649C23.1959 16.0649 23.196 16.0649 23.1962 16.0649C23.1964 16.0649 23.1965 16.0649 23.1967 16.0649C23.1968 16.0649 23.197 16.0649 23.1972 16.0649C23.1973 16.0649 23.1975 16.0649 23.1977 16.0649C23.1978 16.0649 23.198 16.0649 23.1981 16.0649C23.1983 16.0649 23.1985 16.0649 23.1986 16.0649C23.1988 16.0649 23.1989 16.0649 23.1991 16.0649C23.1993 16.0649 23.1994 16.0649 23.1996 16.0649C23.1997 16.0649 23.1999 16.0649 23.2001 16.0649C23.2002 16.0649 23.2004 16.0649 23.2005 16.0649C23.2007 16.0649 23.2009 16.0649 23.201 16.0649C23.2012 16.0649 23.2014 16.0649 23.2015 16.0649C23.2017 16.0649 23.2018 16.0649 23.202 16.0649C23.2022 16.0649 23.2023 16.0649 23.2025 16.0649C23.2026 16.0649 23.2028 16.0649 23.203 16.0649C23.2031 16.0649 23.2033 16.0649 23.2034 16.0649C23.2036 16.0649 23.2038 16.0649 23.2039 16.0649C23.2041 16.0649 23.2042 16.0649 23.2044 16.0649C23.2046 16.0649 23.2047 16.0649 23.2049 16.0649C23.205 16.0649 23.2052 16.0649 23.2054 16.0649C23.2055 16.0649 23.2057 16.0649 23.2058 16.0649C23.206 16.0649 23.2062 16.0649 23.2063 16.0649C23.2065 16.0649 23.2066 16.0649 23.2068 16.0649C23.207 16.0649 23.2071 16.0649 23.2073 16.0649C23.2074 16.0649 23.2076 16.0649 23.2078 16.0649C23.2079 16.0649 23.2081 16.0649 23.2082 16.0649C23.2084 16.0649 23.2086 16.0649 23.2087 16.0649C23.2089 16.0649 23.209 16.0649 23.2092 16.0649C23.2094 16.0649 23.2095 16.0649 23.2097 16.0649C23.2098 16.0649 23.21 16.0649 23.2102 16.0649C23.2103 16.0649 23.2105 16.0649 23.2106 16.0649C23.2108 16.0649 23.2109 16.0649 23.2111 16.0649C23.2113 16.0649 23.2114 16.0649 23.2116 16.0649C23.2117 16.0649 23.2119 16.0649 23.2121 16.0649C23.2122 16.0649 23.2124 16.0649 23.2125 16.0649C23.2127 16.0649 23.2129 16.0649 23.213 16.0649C23.2132 16.0649 23.2133 16.0649 23.2135 16.0649C23.2137 16.0649 23.2138 16.0649 23.214 16.0649C23.2141 16.0649 23.2143 16.0649 23.2144 16.0649C23.2146 16.0649 23.2148 16.0649 23.2149 16.0649C23.2151 16.0649 23.2152 16.0649 23.2154 16.0649C23.2156 16.0649 23.2157 16.0649 23.2159 16.0649C23.216 16.0649 23.2162 16.0649 23.2164 16.0649C23.2165 16.0649 23.2167 16.0649 23.2168 16.0649C23.217 16.0649 23.2171 16.0649 23.2173 16.0649C23.2175 16.0649 23.2176 16.0649 23.2178 16.0649C23.2179 16.0649 23.2181 16.0649 23.2183 16.0649C23.2184 16.0649 23.2186 16.0649 23.2187 16.0649C23.2189 16.0649 23.219 16.0649 23.2192 16.0649C23.2194 16.0649 23.2195 16.0649 23.2197 16.0649C23.2198 16.0649 23.22 16.0649 23.2202 16.0649C23.2203 16.0649 23.2205 16.0649 23.2206 16.0649C23.2208 16.0649 23.2209 16.0649 23.2211 16.0649C23.2213 16.0649 23.2214 16.0649 23.2216 16.0649C23.2217 16.0649 23.2219 16.0649 23.222 16.0649C23.2222 16.0649 23.2224 16.0649 23.2225 16.0649C23.2227 16.0649 23.2228 16.0649 23.223 16.0649C23.2232 16.0649 23.2233 16.0649 23.2235 16.0649C23.2236 16.0649 23.2238 16.0649 23.2239 16.0649C23.2241 16.0649 23.2243 16.0649 23.2244 16.0649C23.2246 16.0649 23.2247 16.0649 23.2249 16.0649C23.225 16.0649 23.2252 16.0649 23.2254 16.0649C23.2255 16.0649 23.2257 16.0649 23.2258 16.0649C23.226 16.0649 23.2261 16.0649 23.2263 16.0649C23.2265 16.0649 23.2266 16.0649 23.2268 16.0649C23.2269 16.0649 23.2271 16.0649 23.2272 16.0649C23.2274 16.0649 23.2276 16.0649 23.2277 16.0649C23.2279 16.0649 23.228 16.0649 23.2282 16.0649C23.2283 16.0649 23.2285 16.0649 23.2287 16.0649C23.2288 16.0649 23.229 16.0649 23.2291 16.0649C23.2293 16.0649 23.2294 16.0649 23.2296 16.0649C23.2298 16.0649 23.2299 16.0649 23.2301 16.0649C23.2302 16.0649 23.2304 16.0649 23.2305 16.0649C23.2307 16.0649 23.2308 16.0649 23.231 16.0649C23.2312 16.0649 23.2313 16.0649 23.2315 16.0649C23.2316 16.0649 23.2318 16.0649 23.2319 16.0649C23.2321 16.0649 23.2323 16.0649 23.2324 16.0649C23.2326 16.0649 23.2327 16.0649 23.2329 16.0649C23.233 16.0649 23.2332 16.0649 23.2334 16.0649C23.2335 16.0649 23.2337 16.0649 23.2338 16.0649C23.234 16.0649 23.2341 16.0649 23.2343 16.0649C23.2344 16.0649 23.2346 16.0649 23.2348 16.0649C23.2349 16.0649 23.2351 16.0649 23.2352 16.0649C23.2354 16.0649 23.2355 16.0649 23.2357 16.0649C23.2359 16.0649 23.236 16.0649 23.2362 16.0649C23.2363 16.0649 23.2365 16.0649 23.2366 16.0649C23.2368 16.0649 23.2369 16.0649 23.2371 16.0649C23.2373 16.0649 23.2374 16.0649 23.2376 16.0649C23.2377 16.0649 23.2379 16.0649 23.238 16.0649C23.2382 16.0649 23.2383 16.0649 23.2385 16.0649C23.2387 16.0649 23.2388 16.0649 23.239 16.0649C23.2391 16.0649 23.2393 16.0649 23.2394 16.0649C23.2396 16.0649 23.2397 16.0649 23.2399 16.0649C23.2401 16.0649 23.2402 16.0649 23.2404 16.0649C23.2405 16.0649 23.2407 16.0649 23.2408 16.0649C23.241 16.0649 23.2411 16.0649 23.2413 16.0649C23.2415 16.0649 23.2416 16.0649 23.2418 16.0649C23.2419 16.0649 23.2421 16.0649 23.2422 16.0649C23.2424 16.0649 23.2425 16.0649 23.2427 16.0649C23.2429 16.0649 23.243 16.0649 23.2432 16.0649C23.2433 16.0649 23.2435 16.0649 23.2436 16.0649C23.2438 16.0649 23.2439 16.0649 23.2441 16.0649C23.2442 16.0649 23.2444 16.0649 23.2446 16.0649C23.2447 16.0649 23.2449 16.0649 23.245 16.0649C23.2452 16.0649 23.2453 16.0649 23.2455 16.0649C23.2456 16.0649 23.2458 16.0649 23.2459 16.0649C23.2461 16.0649 23.2463 16.0649 23.2464 16.0649C23.2466 16.0649 23.2467 16.0649 23.2469 16.0649C23.247 16.0649 23.2472 16.0649 23.2473 16.0649C23.2475 16.0649 23.2476 16.0649 23.2478 16.0649C23.248 16.0649 23.2481 16.0649 23.2483 16.0649C23.2484 16.0649 23.2486 16.0649 23.2487 16.0649C23.2489 16.0649 23.249 16.0649 23.2492 16.0649C23.2493 16.0649 23.2495 16.0649 23.2497 16.0649C23.2498 16.0649 23.25 16.0649 23.2501 16.0649C23.2503 16.0649 23.2504 16.0649 23.2506 16.0649C23.2507 16.0649 23.2509 16.0649 23.251 16.0649C23.2512 16.0649 23.2514 16.0649 23.2515 16.0649C23.2517 16.0649 23.2518 16.0649 23.252 16.0649C23.2521 16.0649 23.2523 16.0649 23.2524 16.0649C23.2526 16.0649 23.2527 16.0649 23.2529 16.0649C23.253 16.0649 23.2532 16.0649 23.2534 16.0649C23.2535 16.0649 23.2537 16.0649 23.2538 16.0649C23.254 16.0649 23.2541 16.0649 23.2543 16.0649C23.2544 16.0649 23.2546 16.0649 23.2547 16.0649C23.2549 16.0649 23.255 16.0649 23.2552 16.0649C23.2554 16.0649 23.2555 16.0649 23.2557 16.0649C23.2558 16.0649 23.256 16.0649 23.2561 16.0649C23.2563 16.0649 23.2564 16.0649 23.2566 16.0649C23.2567 16.0649 23.2569 16.0649 23.257 16.0649C23.2572 16.0649 23.2573 16.0649 23.2575 16.0649C23.2577 16.0649 23.2578 16.0649 23.258 16.0649C23.2581 16.0649 23.2583 16.0649 23.2584 16.0649C23.2586 16.0649 23.2587 16.0649 23.2589 16.0649C23.259 16.0649 23.2592 16.0649 23.2593 16.0649C23.2595 16.0649 23.2596 16.0649 23.2598 16.0649C23.26 16.0649 23.2601 16.0649 23.2603 16.0649C23.2604 16.0649 23.2606 16.0649 23.2607 16.0649C23.2609 16.0649 23.261 16.0649 23.2612 16.0649C23.2613 16.0649 23.2615 16.0649 23.2616 16.0649C23.2618 16.0649 23.2619 16.0649 23.2621 16.0649C23.2622 16.0649 23.2624 16.0649 23.2626 16.0649C23.2627 16.0649 23.2629 16.0649 23.263 16.0649C23.2632 16.0649 23.2633 16.0649 23.2635 16.0649C23.2636 16.0649 23.2638 16.0649 23.2639 16.0649C23.2641 16.0649 23.2642 16.0649 23.2644 16.0649C23.2645 16.0649 23.2647 16.0649 23.2648 16.0649C23.265 16.0649 23.2651 16.0649 23.2653 16.0649C23.2655 16.0649 23.2656 16.0649 23.2658 16.0649C23.2659 16.0649 23.2661 16.0649 23.2662 16.0649C23.2664 16.0649 23.2665 16.0649 23.2667 16.0649C23.2668 16.0649 23.267 16.0649 23.2671 16.0649C23.2673 16.0649 23.2674 16.0649 23.2676 16.0649C23.2677 16.0649 23.2679 16.0649 23.268 16.0649C23.2682 16.0649 23.2683 16.0649 23.2685 16.0649C23.2687 16.0649 23.2688 16.0649 23.269 16.0649C23.2691 16.0649 23.2693 16.0649 23.2694 16.0649C23.2696 16.0649 23.2697 16.0649 23.2699 16.0649C23.27 16.0649 23.2702 16.0649 23.2703 16.0649C23.2705 16.0649 23.2706 16.0649 23.2708 16.0649C23.2709 16.0649 23.2711 16.0649 23.2712 16.0649C23.2714 16.0649 23.2715 16.0649 23.2717 16.0649C23.2718 16.0649 23.272 16.0649 23.2721 16.0649C23.2723 16.0649 23.2724 16.0649 23.2726 16.0649C23.2728 16.0649 23.2729 16.0649 23.2731 16.0649C23.2732 16.0649 23.2734 16.0649 23.2735 16.0649C23.2737 16.0649 23.2738 16.0649 23.274 16.0649C23.2741 16.0649 23.2743 16.0649 23.2744 16.0649C23.2746 16.0649 23.2747 16.0649 23.2749 16.0649C23.275 16.0649 23.2752 16.0649 23.2753 16.0649C23.2755 16.0649 23.2756 16.0649 23.2758 16.0649C23.2759 16.0649 23.2761 16.0649 23.2762 16.0649C23.2764 16.0649 23.2765 16.0649 23.2767 16.0649C23.2768 16.0649 23.277 16.0649 23.2771 16.0649C23.2773 16.0649 23.2774 16.0649 23.2776 16.0649C23.2777 16.0649 23.2779 16.0649 23.2781 16.0649C23.2782 16.0649 23.2784 16.0649 23.2785 16.0649C23.2787 16.0649 23.2788 16.0649 23.279 16.0649C23.2791 16.0649 23.2793 16.0649 23.2794 16.0649C23.2796 16.0649 23.2797 16.0649 23.2799 16.0649C23.28 16.0649 23.2802 16.0649 23.2803 16.0649C23.2805 16.0649 23.2806 16.0649 23.2808 16.0649C23.2809 16.0649 23.2811 16.0649 23.2812 16.0649C23.2814 16.0649 23.2815 16.0649 23.2817 16.0649C23.2818 16.0649 23.282 16.0649 23.2821 16.0649C23.2823 16.0649 23.2824 16.0649 23.2826 16.0649C23.2827 16.0649 23.2829 16.0649 23.283 16.0649C23.2832 16.0649 23.2833 16.0649 23.2835 16.0649C23.2836 16.0649 23.2838 16.0649 23.2839 16.0649C23.2841 16.0649 23.2842 16.0649 23.2844 16.0649C23.2845 16.0649 23.2847 16.0649 23.2848 16.0649C23.285 16.0649 23.2851 16.0649 23.2853 16.0649C23.2854 16.0649 23.2856 16.0649 23.2857 16.0649C23.2859 16.0649 23.286 16.0649 23.2862 16.0649C23.2863 16.0649 23.2865 16.0649 23.2866 16.0649C23.2868 16.0649 23.2869 16.0649 23.2871 16.0649C23.2872 16.0649 23.2874 16.0649 23.2875 16.0649C23.2877 16.0649 23.2878 16.0649 23.288 16.0649C23.2881 16.0649 23.2883 16.0649 23.2884 16.0649C23.2886 16.0649 23.2887 16.0649 23.2889 16.0649C23.289 16.0649 23.2892 16.0649 23.2893 16.0649C23.2895 16.0649 23.2896 16.0649 23.2898 16.0649C23.2899 16.0649 23.2901 16.0649 23.2902 16.0649C23.2904 16.0649 23.2905 16.0649 23.2907 16.0649C23.2908 16.0649 23.291 16.0649 23.2911 16.0649C23.2913 16.0649 23.2914 16.0649 23.2916 16.0649C23.2917 16.0649 23.2919 16.0649 23.292 16.0649C23.2922 16.0649 23.2923 16.0649 23.2925 16.0649C23.2926 16.0649 23.2928 16.0649 23.2929 16.0649C23.2931 16.0649 23.2932 16.0649 23.2934 16.0649C23.2935 16.0649 23.2937 16.0649 23.2938 16.0649C23.294 16.0649 23.2941 16.0649 23.2943 16.0649C23.2944 16.0649 23.2946 16.0649 23.2947 16.0649C23.2949 16.0649 23.295 16.0649 23.2952 16.0649C23.2953 16.0649 23.2955 16.0649 23.2956 16.0649C23.2958 16.0649 23.2959 16.0649 23.2961 16.0649C23.2962 16.0649 23.2964 16.0649 23.2965 16.0649C23.2967 16.0649 23.2968 16.0649 23.297 16.0649C23.2971 16.0649 23.2973 16.0649 23.2974 16.0649C23.2976 16.0649 23.2977 16.0649 23.2979 16.0649C23.298 16.0649 23.2982 16.0649 23.2983 16.0649C23.2985 16.0649 23.2986 16.0649 23.2988 16.0649C23.2989 16.0649 23.2991 16.0649 23.2992 16.0649C23.2994 16.0649 23.2995 16.0649 23.2997 16.0649C23.2998 16.0649 23.3 16.0649 23.3001 16.0649C23.3003 16.0649 23.3004 16.0649 23.3006 16.0649C23.3007 16.0649 23.3009 16.0649 23.301 16.0649C23.3012 16.0649 23.3013 16.0649 23.3015 16.0649C23.3016 16.0649 23.3017 16.0649 23.3019 16.0649C23.302 16.0649 23.3022 16.0649 23.3023 16.0649C23.3025 16.0649 23.3026 16.0649 23.3028 16.0649C23.3029 16.0649 23.3031 16.0649 23.3032 16.0649C23.3034 16.0649 23.3035 16.0649 23.3037 16.0649C23.3038 16.0649 23.304 16.0649 23.3041 16.0649C23.3043 16.0649 23.3044 16.0649 23.3046 16.0649C23.3047 16.0649 23.3049 16.0649 23.305 16.0649C23.3052 16.0649 23.3053 16.0649 23.3055 16.0649C23.3056 16.0649 23.3058 16.0649 23.3059 16.0649C23.3061 16.0649 23.3062 16.0649 23.3064 16.0649C23.3065 16.0649 23.3067 16.0649 23.3068 16.0649C23.307 16.0649 23.3071 16.0649 23.3072 16.0649C23.3074 16.0649 23.3075 16.0649 23.3077 16.0649C23.3078 16.0649 23.308 16.0649 23.3081 16.0649C23.3083 16.0649 23.3084 16.0649 23.3086 16.0649C23.3087 16.0649 23.3089 16.0649 23.309 16.0649C23.3092 16.0649 23.3093 16.0649 23.3095 16.0649C23.3096 16.0649 23.3098 16.0649 23.3099 16.0649C23.3101 16.0649 23.3102 16.0649 23.3104 16.0649C23.3105 16.0649 23.3107 16.0649 23.3108 16.0649C23.311 16.0649 23.3111 16.0649 23.3113 16.0649C23.3114 16.0649 23.3115 16.0649 23.3117 16.0649C23.3118 16.0649 23.312 16.0649 23.3121 16.0649C23.3123 16.0649 23.3124 16.0649 23.3126 16.0649C23.3127 16.0649 23.3129 16.0649 23.313 16.0649C23.3132 16.0649 23.3133 16.0649 23.3135 16.0649C23.3136 16.0649 23.3138 16.0649 23.3139 16.0649C23.3141 16.0649 23.3142 16.0649 23.3144 16.0649C23.3145 16.0649 23.3147 16.0649 23.3148 16.0649C23.3149 16.0649 23.3151 16.0649 23.3152 16.0649C23.3154 16.0649 23.3155 16.0649 23.3157 16.0649C23.3158 16.0649 23.316 16.0649 23.3161 16.0649C23.3163 16.0649 23.3164 16.0649 23.3166 16.0649C23.3167 16.0649 23.3169 16.0649 23.317 16.0649C23.3172 16.0649 23.3173 16.0649 23.3175 16.0649C23.3176 16.0649 23.3178 16.0649 23.3179 16.0649C23.3181 16.0649 23.3182 16.0649 23.3183 16.0649C23.3185 16.0649 23.3186 16.0649 23.3188 16.0649C23.3189 16.0649 23.3191 16.0649 23.3192 16.0649C23.3194 16.0649 23.3195 16.0649 23.3197 16.0649C23.3198 16.0649 23.32 16.0649 23.3201 16.0649C23.3203 16.0649 23.3204 16.0649 23.3206 16.0649C23.3207 16.0649 23.3209 16.0649 23.321 16.0649C23.3211 16.0649 23.3213 16.0649 23.3214 16.0649C23.3216 16.0649 23.3217 16.0649 23.3219 16.0649C23.322 16.0649 23.3222 16.0649 23.3223 16.0649C23.3225 16.0649 23.3226 16.0649 23.3228 16.0649C23.3229 16.0649 23.3231 16.0649 23.3232 16.0649C23.3234 16.0649 23.3235 16.0649 23.3236 16.0649C23.3238 16.0649 23.3239 16.0649 23.3241 16.0649C23.3242 16.0649 23.3244 16.0649 23.3245 16.0649C23.3247 16.0649 23.3248 16.0649 23.325 16.0649C23.3251 16.0649 23.3253 16.0649 23.3254 16.0649C23.3256 16.0649 23.3257 16.0649 23.3259 16.0649C23.326 16.0649 23.3261 16.0649 23.3263 16.0649C23.3264 16.0649 23.3266 16.0649 23.3267 16.0649C23.3269 16.0649 23.327 16.0649 23.3272 16.0649C23.3273 16.0649 23.3275 16.0649 23.3276 16.0649C23.3278 16.0649 23.3279 16.0649 23.3281 16.0649C23.3282 16.0649 23.3284 16.0649 23.3285 16.0649C23.3286 16.0649 23.3288 16.0649 23.3289 16.0649C23.3291 16.0649 23.3292 16.0649 23.3294 16.0649C23.3295 16.0649 23.3297 16.0649 23.3298 16.0649C23.33 16.0649 23.3301 16.0649 23.3303 16.0649C23.3304 16.0649 23.3306 16.0649 23.3307 16.0649C23.3308 16.0649 23.331 16.0649 23.3311 16.0649C23.3313 16.0649 23.3314 16.0649 23.3316 16.0649C23.3317 16.0649 23.3319 16.0649 23.332 16.0649C23.3322 16.0649 23.3323 16.0649 23.3325 16.0649C23.3326 16.0649 23.3328 16.0649 23.3329 16.0649C23.333 16.0649 23.3332 16.0649 23.3333 16.0649C23.3335 16.0649 23.3336 16.0649 23.3338 16.0649C23.3339 16.0649 23.3341 16.0649 23.3342 16.0649C23.3344 16.0649 23.3345 16.0649 23.3347 16.0649C23.3348 16.0649 23.3349 16.0649 23.3351 16.0649C23.3352 16.0649 23.3354 16.0649 23.3355 16.0649C23.3357 16.0649 23.3358 16.0649 23.336 16.0649C23.3361 16.0649 23.3363 16.0649 23.3364 16.0649C23.3366 16.0649 23.3367 16.0649 23.3368 16.0649C23.337 16.0649 23.3371 16.0649 23.3373 16.0649C23.3374 16.0649 23.3376 16.0649 23.3377 16.0649C23.3379 16.0649 23.338 16.0649 23.3382 16.0649C23.3383 16.0649 23.3385 16.0649 23.3386 16.0649C23.3387 16.0649 23.3389 16.0649 23.339 16.0649C23.3392 16.0649 23.3393 16.0649 23.3395 16.0649C23.3396 16.0649 23.3398 16.0649 23.3399 16.0649C23.3401 16.0649 23.3402 16.0649 23.3404 16.0649C23.3405 16.0649 23.3406 16.0649 23.3408 16.0649C23.3409 16.0649 23.3411 16.0649 23.3412 16.0649C23.3414 16.0649 23.3415 16.0649 23.3417 16.0649C23.3418 16.0649 23.342 16.0649 23.3421 16.0649C23.3423 16.0649 23.3424 16.0649 23.3425 16.0649C23.3427 16.0649 23.3428 16.0649 23.343 16.0649C23.3431 16.0649 23.3433 16.0649 23.3434 16.0649C23.3436 16.0649 23.3437 16.0649 23.3439 16.0649C23.344 16.0649 23.3441 16.0649 23.3443 16.0649C23.3444 16.0649 23.3446 16.0649 23.3447 16.0649C23.3449 16.0649 23.345 16.0649 23.3452 16.0649C23.3453 16.0649 23.3455 16.0649 23.3456 16.0649C23.3458 16.0649 23.3459 16.0649 23.346 16.0649C23.3462 16.0649 23.3463 16.0649 23.3465 16.0649C23.3466 16.0649 23.3468 16.0649 23.3469 16.0649C23.3471 16.0649 23.3472 16.0649 23.3474 16.0649C23.3475 16.0649 23.3476 16.0649 23.3478 16.0649C23.3479 16.0649 23.3481 16.0649 23.3482 16.0649C23.3484 16.0649 23.3485 16.0649 23.3487 16.0649C23.3488 16.0649 23.349 16.0649 23.3491 16.0649C23.3492 16.0649 23.3494 16.0649 23.3495 16.0649C23.3497 16.0649 23.3498 16.0649 23.35 16.0649C23.3501 16.0649 23.3503 16.0649 23.3504 16.0649C23.3506 16.0649 23.3507 16.0649 23.3508 16.0649C23.351 16.0649 23.3511 16.0649 23.3513 16.0649C23.3514 16.0649 23.3516 16.0649 23.3517 16.0649C23.3519 16.0649 23.352 16.0649 23.3522 16.0649C23.3523 16.0649 23.3524 16.0649 23.3526 16.0649V15.0649ZM23.111 15.0649V14.0649C23.0677 14.0649 22.9932 14.0648 22.9178 14.0678L22.9582 15.067L22.9986 16.0662C23.027 16.065 23.0611 16.0649 23.111 16.0649V15.0649ZM22.9582 15.067L22.9074 14.0683C22.6932 14.0792 22.4987 14.0914 22.2811 14.098L22.3114 15.0975L22.3416 16.0971C22.5866 16.0896 22.822 16.0752 23.009 16.0657L22.9582 15.067ZM22.3114 15.0975L22.2604 14.0988C21.9248 14.1159 21.5895 14.121 21.2608 14.121V15.121V16.121C21.6087 16.121 21.9806 16.1157 22.3623 16.0962L22.3114 15.0975ZM21.2608 15.121V14.121C19.2507 14.121 18.2484 13.8294 18.0002 13.7443L17.6756 14.6901L17.351 15.636C17.8324 15.8012 19.0571 16.121 21.2608 16.121V15.121ZM17.6756 14.6901L18.0624 13.7679L17.608 13.5773L17.2212 14.4995L16.8344 15.4217L17.2888 15.6123L17.6756 14.6901ZM17.2212 14.4995H16.2212V14.9937H17.2212H18.2212V14.4995H17.2212ZM17.2212 14.9937L16.7891 15.8955L16.9164 15.9565L17.3485 15.0547L17.7806 14.1529L17.6533 14.0919L17.2212 14.9937ZM17.3485 15.0547L16.9496 15.9717C16.9474 15.9708 16.9636 15.9779 16.9825 15.9858C17.0019 15.994 17.0261 16.0039 17.0551 16.0152C17.1132 16.0377 17.1895 16.0655 17.2849 16.0965C17.4759 16.1585 17.7424 16.2329 18.0927 16.3045C18.7933 16.4478 19.8271 16.5795 21.2608 16.5795V15.5795V14.5795C19.9498 14.5795 19.051 14.4591 18.4933 14.345C18.2145 14.288 18.0204 14.2325 17.9023 14.1941C17.8432 14.175 17.8028 14.16 17.7799 14.1511C17.7591 14.143 17.7518 14.1396 17.7474 14.1377L17.3485 15.0547ZM21.2608 15.5795V16.5795C21.6217 16.5795 21.9993 16.5711 22.3797 16.5528L22.3317 15.5539L22.2836 14.5551C21.9365 14.5718 21.5911 14.5795 21.2608 14.5795V15.5795ZM22.3317 15.5539L22.3727 16.5531C22.8773 16.5324 23.3262 16.506 23.7262 16.4705L23.6379 15.4744L23.5496 14.4783C23.1915 14.5101 22.7763 14.5348 22.2907 14.5548L22.3317 15.5539ZM23.6379 15.4744L24.6359 15.5371C24.6436 15.4143 24.6481 15.2794 24.6404 15.1518C24.6365 15.0879 24.6285 15.0047 24.6091 14.9146C24.5926 14.8376 24.5527 14.6811 24.4459 14.5192L23.6113 15.0701L22.7767 15.621C22.7279 15.547 22.6997 15.4811 22.6839 15.4381C22.6676 15.3937 22.6587 15.3577 22.6539 15.3353C22.6489 15.3122 22.6465 15.295 22.6454 15.2861C22.6448 15.2813 22.6445 15.2777 22.6443 15.2755C22.6441 15.2733 22.644 15.2721 22.644 15.2721C22.644 15.2721 22.644 15.2729 22.6441 15.2748C22.6442 15.2766 22.6442 15.2792 22.6443 15.2827C22.6444 15.2898 22.6444 15.2994 22.6442 15.3118C22.6438 15.3371 22.6425 15.3701 22.6399 15.4117L23.6379 15.4744Z" fill="#18191B" mask="url(#path-2-inside-1_770_447)"/>
<mask id="path-4-inside-2_770_447" fill="white">
<path d="M26.3824 13.9087C26.0462 14.2905 25.7549 14.5503 25.2139 14.7339C25.2291 14.8917 25.2241 15.0568 25.2056 15.2128C25.9007 15.0109 26.2927 14.7003 26.7249 14.2113C26.7677 14.1633 26.8143 14.1043 26.8683 14.0381C26.7176 13.9799 26.5679 13.9207 26.4223 13.8628C26.409 13.8779 26.3926 13.8954 26.3824 13.9087Z"/>
</mask>
<path d="M26.3824 13.9087C26.0462 14.2905 25.7549 14.5503 25.2139 14.7339C25.2291 14.8917 25.2241 15.0568 25.2056 15.2128C25.9007 15.0109 26.2927 14.7003 26.7249 14.2113C26.7677 14.1633 26.8143 14.1043 26.8683 14.0381C26.7176 13.9799 26.5679 13.9207 26.4223 13.8628C26.409 13.8779 26.3926 13.8954 26.3824 13.9087Z" fill="#18191B"/>
<path d="M26.3824 13.9087L27.1329 14.5696L27.1553 14.5441L27.1759 14.5173L26.3824 13.9087ZM25.2139 14.7339L24.8925 13.7869L24.1425 14.0415L24.2185 14.8298L25.2139 14.7339ZM25.2056 15.2128L24.2125 15.095L24.0347 16.5942L25.4845 16.1731L25.2056 15.2128ZM26.7249 14.2113L25.9785 13.5458L25.9756 13.549L26.7249 14.2113ZM26.8683 14.0381L27.6432 14.6702L28.5146 13.6019L27.2285 13.1052L26.8683 14.0381ZM26.4223 13.8628L26.7918 12.9336L26.1374 12.6733L25.6718 13.2018L26.4223 13.8628ZM26.3824 13.9087L25.6319 13.2478C25.3601 13.5564 25.2075 13.68 24.8925 13.7869L25.2139 14.7339L25.5352 15.6808C26.3023 15.4205 26.7322 15.0246 27.1329 14.5696L26.3824 13.9087ZM25.2139 14.7339L24.2185 14.8298C24.2256 14.9042 24.2242 14.9965 24.2125 15.095L25.2056 15.2128L26.1986 15.3306C26.2239 15.1171 26.2325 14.8792 26.2093 14.638L25.2139 14.7339ZM25.2056 15.2128L25.4845 16.1731C26.4073 15.9051 26.9525 15.4638 27.4741 14.8735L26.7249 14.2113L25.9756 13.549C25.6328 13.9368 25.394 14.1167 24.9266 14.2525L25.2056 15.2128ZM26.7249 14.2113L27.4712 14.8768C27.5335 14.807 27.6051 14.7168 27.6432 14.6702L26.8683 14.0381L26.0934 13.406C26.0234 13.4918 26.0018 13.5196 25.9785 13.5458L26.7249 14.2113ZM26.8683 14.0381L27.2285 13.1052C27.0825 13.0488 26.9365 12.9911 26.7918 12.9336L26.4223 13.8628L26.0527 14.792C26.1993 14.8503 26.3526 14.9109 26.508 14.9709L26.8683 14.0381ZM26.4223 13.8628L25.6718 13.2018C25.6721 13.2016 25.6715 13.2022 25.6679 13.2063C25.6652 13.2092 25.6593 13.2158 25.6534 13.2224C25.6473 13.2293 25.6385 13.2393 25.6286 13.251C25.619 13.2622 25.6048 13.2793 25.5889 13.3001L26.3824 13.9087L27.1759 14.5173C27.1701 14.5247 27.1653 14.5308 27.1618 14.5351C27.1583 14.5394 27.1554 14.5428 27.1535 14.5451C27.1499 14.5493 27.1479 14.5515 27.1489 14.5504C27.1492 14.55 27.1499 14.5493 27.1511 14.5479C27.1525 14.5464 27.1537 14.5451 27.1559 14.5426C27.1593 14.5388 27.1658 14.5316 27.1727 14.5238L26.4223 13.8628Z" fill="#18191B" mask="url(#path-4-inside-2_770_447)"/>
<mask id="path-6-inside-3_770_447" fill="white">
<path d="M33.8638 14.8255H33.8666L33.8585 14.8153L30.1306 9.00293L29.976 9.57855C29.8596 9.93014 29.6906 10.0543 29.3797 10.2765C29.1343 10.4547 28.8265 10.6738 28.4658 11.0783C28.0991 11.494 27.6174 12.1868 27.1943 12.795C27.1403 12.8714 27.0895 12.9458 27.0386 13.0172C27.175 13.0832 27.3135 13.1466 27.4604 13.2128C27.4961 13.1596 27.5308 13.1088 27.5683 13.0548C27.9841 12.4567 28.4588 11.7762 28.8062 11.384C29.1353 11.0152 29.4074 10.8185 29.6458 10.6485C29.8912 10.4721 30.1082 10.3141 30.2712 10.034L33.3116 14.7358L32.3823 15.4369L29.4011 13.0222L29.1455 13.338L29.813 13.8779V17.8536H30.2172V14.204L32.3651 15.9431L32.37 15.9515H32.3742L32.3823 15.9431L33.8638 14.8276H33.8666L33.8638 14.8255Z"/>
</mask>
<path d="M33.8638 14.8255H33.8666L33.8585 14.8153L30.1306 9.00293L29.976 9.57855C29.8596 9.93014 29.6906 10.0543 29.3797 10.2765C29.1343 10.4547 28.8265 10.6738 28.4658 11.0783C28.0991 11.494 27.6174 12.1868 27.1943 12.795C27.1403 12.8714 27.0895 12.9458 27.0386 13.0172C27.175 13.0832 27.3135 13.1466 27.4604 13.2128C27.4961 13.1596 27.5308 13.1088 27.5683 13.0548C27.9841 12.4567 28.4588 11.7762 28.8062 11.384C29.1353 11.0152 29.4074 10.8185 29.6458 10.6485C29.8912 10.4721 30.1082 10.3141 30.2712 10.034L33.3116 14.7358L32.3823 15.4369L29.4011 13.0222L29.1455 13.338L29.813 13.8779V17.8536H30.2172V14.204L32.3651 15.9431L32.37 15.9515H32.3742L32.3823 15.9431L33.8638 14.8276H33.8666L33.8638 14.8255Z" fill="#18191B"/>
<path d="M33.8638 14.8255V13.8255H30.8638L33.2638 15.6255L33.8638 14.8255ZM33.8666 14.8255V15.8255H35.9381L34.6496 14.2035L33.8666 14.8255ZM33.8585 14.8153L33.0167 15.3552L33.044 15.3977L33.0755 15.4373L33.8585 14.8153ZM30.1306 9.00293L30.9723 8.46306L29.7514 6.55946L29.1648 8.74354L30.1306 9.00293ZM29.976 9.57855L30.9253 9.89284L30.9343 9.86563L30.9417 9.83794L29.976 9.57855ZM29.3797 10.2765L28.7982 9.46288L28.7921 9.46732L29.3797 10.2765ZM28.4658 11.0783L27.7194 10.4127L27.7159 10.4168L28.4658 11.0783ZM27.1943 12.795L28.0109 13.3722L28.0152 13.366L27.1943 12.795ZM27.0386 13.0172L26.2243 12.4367L25.5366 13.4013L26.603 13.9173L27.0386 13.0172ZM27.4604 13.2128L27.0495 14.1245L27.8199 14.4716L28.2907 13.77L27.4604 13.2128ZM27.5683 13.0548L26.7472 12.484L26.7469 12.4844L27.5683 13.0548ZM28.8062 11.384L28.06 10.7182L28.0576 10.7209L28.8062 11.384ZM29.6458 10.6485L30.2264 11.4627L30.2295 11.4605L29.6458 10.6485ZM30.2712 10.034L31.1109 9.49097L30.2263 8.12295L29.4069 9.53101L30.2712 10.034ZM33.3116 14.7358L33.9138 15.5341L34.6564 14.9739L34.1513 14.1928L33.3116 14.7358ZM32.3823 15.4369L31.7529 16.214L32.3604 16.706L32.9845 16.2352L32.3823 15.4369ZM29.4011 13.0222L30.0305 12.2451L29.2531 11.6155L28.6238 12.3931L29.4011 13.0222ZM29.1455 13.338L28.3682 12.7089L27.7388 13.4864L28.5166 14.1155L29.1455 13.338ZM29.813 13.8779H30.813V13.4006L30.4419 13.1004L29.813 13.8779ZM29.813 17.8536H28.813V18.8536H29.813V17.8536ZM30.2172 17.8536V18.8536H31.2172V17.8536H30.2172ZM30.2172 14.204L30.8464 13.4268L29.2172 12.1076V14.204H30.2172ZM32.3651 15.9431L33.2289 15.4394L33.1367 15.2811L32.9943 15.1659L32.3651 15.9431ZM32.37 15.9515L31.5061 16.4552L31.7955 16.9515H32.37V15.9515ZM32.3742 15.9515V16.9515H32.7991L33.0941 16.6456L32.3742 15.9515ZM32.3823 15.9431L31.7808 15.1442L31.7174 15.1919L31.6624 15.249L32.3823 15.9431ZM33.8638 14.8276V13.8276H33.5294L33.2623 14.0287L33.8638 14.8276ZM33.8666 14.8276V15.8276H36.8666L34.4666 14.0276L33.8666 14.8276ZM33.8638 14.8255V15.8255H33.8666V14.8255V13.8255H33.8638V14.8255ZM33.8666 14.8255L34.6496 14.2035L34.6415 14.1933L33.8585 14.8153L33.0755 15.4373L33.0836 15.4475L33.8666 14.8255ZM33.8585 14.8153L34.7002 14.2754L30.9723 8.46306L30.1306 9.00293L29.2888 9.5428L33.0167 15.3552L33.8585 14.8153ZM30.1306 9.00293L29.1648 8.74354L29.0102 9.31916L29.976 9.57855L30.9417 9.83794L31.0963 9.26232L30.1306 9.00293ZM29.976 9.57855L29.0266 9.26426C29.0149 9.29988 29.0083 9.31014 29.0102 9.30669C29.0111 9.30517 29.0129 9.30236 29.0153 9.2991C29.0177 9.29588 29.0192 9.29426 29.0188 9.29465C29.0174 9.29623 29.0055 9.30865 28.9686 9.33774C28.9288 9.36914 28.8792 9.40502 28.7982 9.46291L29.3797 10.2765L29.9611 11.0901C30.0975 10.9926 30.3056 10.8476 30.4827 10.6574C30.6885 10.4364 30.8278 10.1873 30.9253 9.89284L29.976 9.57855ZM29.3797 10.2765L28.7921 9.46732C28.5391 9.65104 28.1564 9.92272 27.7194 10.4127L28.4658 11.0783L29.2121 11.7438C29.4966 11.4248 29.7295 11.2583 29.9673 11.0856L29.3797 10.2765ZM28.4658 11.0783L27.7159 10.4168C27.3018 10.8861 26.782 11.6366 26.3734 12.2239L27.1943 12.795L28.0152 13.366C28.4528 12.737 28.8963 12.1018 29.2157 11.7398L28.4658 11.0783ZM27.1943 12.795L26.3777 12.2178C26.3016 12.3254 26.2833 12.354 26.2243 12.4367L27.0386 13.0172L27.8528 13.5977C27.8957 13.5376 27.9789 13.4174 28.0109 13.3722L27.1943 12.795ZM27.0386 13.0172L26.603 13.9173C26.7517 13.9893 26.9 14.0571 27.0495 14.1245L27.4604 13.2128L27.8712 12.3011C27.727 12.2361 27.5982 12.1771 27.4741 12.117L27.0386 13.0172ZM27.4604 13.2128L28.2907 13.77C28.3234 13.7214 28.355 13.675 28.3896 13.6252L27.5683 13.0548L26.7469 12.4844C26.7065 12.5426 26.6688 12.5978 26.63 12.6556L27.4604 13.2128ZM27.5683 13.0548L28.3894 13.6256C28.8195 13.0069 29.2556 12.3847 29.5547 12.047L28.8062 11.384L28.0576 10.7209C27.6619 11.1676 27.1486 11.9065 26.7472 12.484L27.5683 13.0548ZM28.8062 11.384L29.5523 12.0498C29.8068 11.7646 30.0071 11.619 30.2264 11.4627L29.6458 10.6485L29.0652 9.83429C28.8077 10.0179 28.4638 10.2657 28.0601 10.7182L28.8062 11.384ZM29.6458 10.6485L30.2295 11.4605C30.4665 11.2901 30.8526 11.0231 31.1355 10.5369L30.2712 10.034L29.4069 9.53101C29.3638 9.60503 29.3159 9.65406 29.0621 9.83649L29.6458 10.6485ZM30.2712 10.034L29.4314 10.577L32.4718 15.2788L33.3116 14.7358L34.1513 14.1928L31.1109 9.49097L30.2712 10.034ZM33.3116 14.7358L32.7093 13.9375L31.78 14.6386L32.3823 15.4369L32.9845 16.2352L33.9138 15.5341L33.3116 14.7358ZM32.3823 15.4369L33.0117 14.6598L30.0305 12.2451L29.4011 13.0222L28.7717 13.7993L31.7529 16.214L32.3823 15.4369ZM29.4011 13.0222L28.6238 12.3931L28.3682 12.7089L29.1455 13.338L29.9228 13.9671L30.1784 13.6513L29.4011 13.0222ZM29.1455 13.338L28.5166 14.1155L29.1841 14.6554L29.813 13.8779L30.4419 13.1004L29.7743 12.5605L29.1455 13.338ZM29.813 13.8779H28.813V17.8536H29.813H30.813V13.8779H29.813ZM29.813 17.8536V18.8536H30.2172V17.8536V16.8536H29.813V17.8536ZM30.2172 17.8536H31.2172V14.204H30.2172H29.2172V17.8536H30.2172ZM30.2172 14.204L29.5879 14.9812L31.7358 16.7203L32.3651 15.9431L32.9943 15.1659L30.8464 13.4268L30.2172 14.204ZM32.3651 15.9431L31.5012 16.4468L31.5061 16.4552L32.37 15.9515L33.2338 15.4478L33.2289 15.4394L32.3651 15.9431ZM32.37 15.9515V16.9515H32.3742V15.9515V14.9515H32.37V15.9515ZM32.3742 15.9515L33.0941 16.6456L33.1022 16.6372L32.3823 15.9431L31.6624 15.249L31.6543 15.2574L32.3742 15.9515ZM32.3823 15.9431L32.9838 16.7419L34.4653 15.6264L33.8638 14.8276L33.2623 14.0287L31.7808 15.1442L32.3823 15.9431ZM33.8638 14.8276V15.8276H33.8666V14.8276V13.8276H33.8638V14.8276ZM33.8666 14.8276L34.4666 14.0276L34.4638 14.0255L33.8638 14.8255L33.2638 15.6255L33.2666 15.6276L33.8666 14.8276Z" fill="#18191B" mask="url(#path-6-inside-3_770_447)"/>
<path d="M28.6846 14.2193L29.1074 14.1861V14.2379C29.0968 14.4089 28.9779 14.5505 28.8154 14.5933C28.7377 14.5369 28.6898 14.4689 28.6621 14.4136C28.6388 14.3671 28.6267 14.3243 28.6201 14.2925L28.6279 14.2945L28.6328 14.3072C28.6313 14.3034 28.6302 14.2991 28.6289 14.2955L28.6797 14.313L28.6816 14.314C28.6451 14.3012 28.6235 14.2743 28.6143 14.2427L28.6123 14.2369M28.6846 14.2193L28.6123 14.2369M28.6846 14.2193L28.6123 14.2369M28.6846 14.2193L28.6113 14.2261C28.6116 14.2283 28.6115 14.2321 28.6123 14.2369M29.0977 14.1216C29.1038 14.1371 29.1054 14.1541 29.1074 14.1744V14.1851C29.0423 14.1851 28.9857 14.1851 28.9365 14.1851M29.0977 14.1216L28.9365 14.1851M29.0977 14.1216C29.074 14.0231 29.0135 13.939 28.9336 13.8853L28.8477 13.8423C28.8464 13.8416 28.8216 13.8321 28.7773 13.815C28.7709 13.8207 28.7639 13.8256 28.7578 13.8316C28.6821 13.9061 28.6496 13.9861 28.6357 14.0269C28.6296 14.045 28.6274 14.0625 28.624 14.0777C28.6348 14.081 28.6448 14.0846 28.6543 14.0875C28.6807 14.0954 28.6998 14.1008 28.7119 14.1041C28.7126 14.1042 28.7136 14.1039 28.7148 14.1041C28.7185 14.1046 28.7235 14.1055 28.7285 14.106C28.7511 14.1085 28.7373 14.105 28.7061 14.107C28.6715 14.1096 28.6399 14.1316 28.623 14.1636M29.0977 14.1216L28.9365 14.1851M28.9365 14.1851C28.7225 14.1851 28.6486 14.1852 28.623 14.1851M28.623 14.1851V14.1636M28.623 14.1851C28.619 14.1851 28.6162 14.1851 28.6143 14.1851C28.6163 14.1774 28.6195 14.1704 28.623 14.1636M28.623 14.1851V14.1636M24.4824 11.3804L24.4961 11.3824C24.7285 11.4213 24.8407 11.5918 24.915 11.6949C24.9292 11.7165 24.9443 11.7562 24.9414 11.8199L24.9346 11.9605L25.0029 12.0845C25.0758 12.2165 25.1614 12.3534 25.2607 12.4859V12.4869C25.2626 12.4895 25.2648 12.4921 25.2666 12.4947C25.2693 12.4982 25.2717 12.5019 25.2744 12.5054V12.5045C25.3724 12.6391 25.5053 12.7553 25.6309 12.8492C25.7245 12.9192 25.8301 12.9866 25.9404 13.0543C25.8206 12.9999 25.7096 12.9484 25.6123 12.899L25.583 12.8853H25.5811L25.5713 12.8804C25.5649 12.8778 25.556 12.8742 25.5449 12.8697C25.5225 12.8605 25.4908 12.8476 25.4521 12.8326C25.375 12.8026 25.2669 12.7628 25.1475 12.7242C25.0297 12.6861 24.8921 12.6465 24.7559 12.6197C24.6308 12.5951 24.4586 12.5708 24.293 12.5963L24.2041 12.6099L24.126 12.6539C23.8968 12.7812 23.5997 12.9455 23.3604 13.0787C23.2406 13.1453 23.135 13.2046 23.0596 13.2466C23.022 13.2675 22.9914 13.2839 22.9707 13.2955C22.9604 13.3012 22.9527 13.3061 22.9473 13.3091L22.9395 13.313V13.314L21.4922 14.1187L23.1426 14.2486C23.8806 14.3067 24.1058 14.2362 24.5469 14.5045C24.5947 14.5412 24.6464 14.6172 24.6641 14.7984C24.6825 14.9882 24.6551 15.211 24.6162 15.4214C24.5145 15.9684 24.2129 17.0716 24.042 17.5933L24.0391 17.6011C24.0385 17.6027 24.0361 17.6091 24.0312 17.6226C24.0253 17.6392 24.0179 17.6618 24.0078 17.689C23.9876 17.7438 23.9604 17.8162 23.9287 17.9C23.8654 18.0675 23.7848 18.2791 23.7051 18.4869C23.6638 18.5944 23.622 18.7007 23.584 18.7994C23.5924 18.7631 23.6023 18.7253 23.6113 18.6861C23.6967 18.3138 23.8066 17.8132 23.9082 17.3033C24.0093 16.7959 24.104 16.2686 24.1543 15.8453C24.1792 15.6358 24.1958 15.4357 24.1934 15.2701C24.1922 15.1883 24.1861 15.0967 24.168 15.0093C24.154 14.9421 24.1146 14.7825 23.9805 14.6558L23.8564 14.5386L23.6865 14.5211C23.5117 14.5038 23.1749 14.5132 22.8535 14.5142C22.5033 14.5154 22.1008 14.5092 21.7129 14.4713C21.3182 14.4326 20.974 14.3642 20.7275 14.2564C20.4806 14.1484 20.4163 14.0415 20.3994 13.9673L20.3984 13.9654L20.3975 13.9586C20.3966 13.9538 20.3957 13.947 20.3945 13.939C20.3922 13.923 20.3896 13.9024 20.3877 13.8785C20.3838 13.8299 20.382 13.7733 20.3857 13.7173C20.3896 13.6606 20.3985 13.614 20.4092 13.5797C20.4202 13.5444 20.4281 13.5375 20.4219 13.5445L20.4561 13.5064L20.458 13.5005H20.46C20.4864 13.4779 20.5293 13.4444 20.5908 13.4009C20.7131 13.3145 20.8836 13.2059 21.0879 13.0816C21.4948 12.834 22.0109 12.5412 22.4941 12.275L22.4961 12.274C23.0321 11.9761 23.4875 11.7302 23.8574 11.5679C24.0416 11.4871 24.1901 11.433 24.3066 11.4039C24.3641 11.3895 24.4078 11.3829 24.4395 11.3804H24.4824ZM28.7168 14.105L28.7188 14.106C28.7172 14.1056 28.7157 14.1046 28.7139 14.1041C28.7151 14.1043 28.716 14.1049 28.7168 14.105Z" fill="#18191B" stroke="#18191B"/>
<path d="M26.0776 9.83075C26.4662 9.57181 26.9891 9.67559 27.2485 10.0612V10.0622C27.5078 10.4457 27.4072 10.9683 27.022 11.2292C26.6598 11.4739 26.1773 11.3993 25.9048 11.072L25.853 11.0026L25.8081 10.9284C25.6052 10.5509 25.7167 10.0768 26.0786 9.83173L26.0776 9.83075Z" fill="#18191B" stroke="#18191B"/>
<path d="M8.61816 14.4232C8.69164 13.9662 9.12369 13.6534 9.58301 13.7269H9.58496C10.0434 13.7989 10.3578 14.2299 10.2861 14.6907C10.2132 15.1501 9.7809 15.4639 9.32422 15.389L9.32031 15.388C8.86151 15.3162 8.54587 14.8843 8.61816 14.4232Z" fill="#18191B" stroke="#18191B"/>
<path d="M10.7661 28.4613C10.764 28.4617 10.7618 28.461 10.7603 28.4613C10.7625 28.4609 10.766 28.4609 10.77 28.4603C10.7721 28.46 10.775 28.4597 10.7778 28.4594C10.7731 28.46 10.7692 28.4608 10.7661 28.4613ZM10.9419 28.4603C10.9433 28.4605 10.9444 28.4612 10.9448 28.4613H10.9429C10.942 28.4612 10.9405 28.4606 10.939 28.4603C10.9377 28.4601 10.936 28.4596 10.9341 28.4594C10.9374 28.4598 10.9402 28.4601 10.9419 28.4603ZM8.50146 18.432C8.50042 18.1881 8.50043 17.8047 8.5249 17.4574C8.53721 17.2828 8.55438 17.1312 8.57764 17.0179C8.58812 16.967 8.59854 16.9325 8.60596 16.9115H8.60693L8.62939 16.8763C8.71948 16.7377 8.8374 16.6806 8.93994 16.6635L8.95947 16.6605L8.97803 16.6556C9.03853 16.6406 9.15903 16.63 9.31787 16.6293C9.46572 16.6286 9.60953 16.636 9.70068 16.641L9.71436 16.642H9.72803C9.85193 16.642 9.9261 16.6576 9.96631 16.6713L10.0513 16.6996L10.1401 16.6976C10.4822 16.6891 11.1098 16.696 11.812 16.7074C11.4403 16.7228 11.0859 16.7377 10.7778 16.7504L10.2759 16.7709L10.2993 17.2738C10.311 17.526 10.2948 17.8427 10.2651 18.2484L10.2642 18.2601L10.1147 21.3802L10.1128 21.4115L10.1157 21.4418C10.196 22.4955 10.3445 24.0348 10.4819 25.4027L10.23 23.4047L10.2104 23.2523L10.1089 23.1371L10.0161 23.0502C9.89991 22.9588 9.71609 22.8656 9.47705 22.8656H9.47217L9.35596 22.8724C9.09653 22.9069 8.92367 23.0505 8.85205 23.1283L8.72607 23.266L8.72021 23.4525L8.64307 26.1146C8.6431 24.7873 8.64314 23.0949 8.64404 21.5883V21.5619C8.64397 21.5605 8.6432 21.5579 8.64307 21.5551C8.6428 21.5494 8.64261 21.5406 8.64209 21.5297C8.64105 21.5078 8.63914 21.4756 8.63721 21.4349C8.63332 21.353 8.62825 21.2353 8.62158 21.0941C8.60824 20.8117 8.59053 20.4335 8.57275 20.0502C8.55496 19.6665 8.53725 19.2778 8.52393 18.975C8.51726 18.8235 8.51118 18.6936 8.50732 18.597C8.5054 18.5489 8.50441 18.5093 8.50342 18.4799C8.50293 18.4652 8.50266 18.4533 8.50244 18.4447C8.50221 18.4357 8.50146 18.4329 8.50146 18.434V18.432Z" fill="#18191B" stroke="#18191B"/>
<mask id="path-12-inside-4_770_447" fill="white">
<path d="M17.2208 16.2519H14.7104V15.9533H17.2208V16.2519Z"/>
</mask>
<path d="M17.2208 16.2519H14.7104V15.9533H17.2208V16.2519Z" fill="#18191B"/>
<path d="M17.2208 16.2519V17.2519H18.2208V16.2519H17.2208ZM14.7104 16.2519H13.7104V17.2519H14.7104V16.2519ZM14.7104 15.9533V14.9533H13.7104V15.9533H14.7104ZM17.2208 15.9533H18.2208V14.9533H17.2208V15.9533ZM17.2208 16.2519V15.2519H14.7104V16.2519V17.2519H17.2208V16.2519ZM14.7104 16.2519H15.7104V15.9533H14.7104H13.7104V16.2519H14.7104ZM14.7104 15.9533V16.9533H17.2208V15.9533V14.9533H14.7104V15.9533ZM17.2208 15.9533H16.2208V16.2519H17.2208H18.2208V15.9533H17.2208Z" fill="#18191B" mask="url(#path-12-inside-4_770_447)"/>
<path d="M15.4243 10.032C15.6645 9.63406 16.1832 9.50451 16.5815 9.74396C16.9818 9.98444 17.111 10.5031 16.8716 10.9022C16.6275 11.3018 16.1119 11.4281 15.7144 11.1893C15.3145 10.9491 15.1838 10.4305 15.4233 10.0311L15.4243 10.032Z" fill="#18191B" stroke="#18191B"/>
<path d="M14.0449 11.4434C14.1722 11.4468 14.295 11.4757 14.4033 11.5283L14.4141 11.5332C14.4153 11.5338 14.4188 11.5356 14.4248 11.5391C14.4332 11.5439 14.4439 11.5509 14.457 11.5596C14.4836 11.5771 14.5147 11.5991 14.5449 11.623C14.5751 11.647 14.6018 11.6692 14.6211 11.6875C14.6445 11.7098 14.643 11.713 14.6318 11.6973L14.6455 11.7168L14.6621 11.7344C14.7022 11.7806 14.7378 11.8368 14.7695 11.9004C14.5524 11.9089 14.3348 11.9212 14.1182 11.9404C13.81 11.9678 13.503 11.9865 13.2002 12.002L13.2598 11.8926C13.3009 11.8247 13.3502 11.7627 13.4102 11.7021L13.6533 11.457L13.6416 11.4316L14.0449 11.4434ZM8.50195 11.8408C8.55534 11.86 8.61126 11.8801 8.66992 11.9004C8.63474 11.8972 8.60077 11.8957 8.56836 11.8926C8.54556 11.8904 8.52333 11.8869 8.50195 11.8848V11.8408ZM13.3506 10.917C13.4452 10.9916 13.5158 11.0544 13.5635 11.1016L13.5703 11.2744L13.5098 11.1426C13.5043 11.131 13.4953 11.1132 13.4922 11.1074C13.4904 11.1042 13.4878 11.0992 13.4863 11.0967C13.4836 11.0921 13.4806 11.0877 13.4795 11.0859C13.4773 11.0823 13.4757 11.0789 13.4746 11.0771C13.4721 11.0732 13.4691 11.0698 13.4668 11.0664C13.462 11.0593 13.4559 11.0504 13.4492 11.041C13.4359 11.0222 13.4181 10.9977 13.3955 10.9688C13.3828 10.9524 13.3664 10.9362 13.3506 10.917Z" fill="#18191B" stroke="#18191B"/>
<path d="M18.8628 19.4722C19.2396 19.2566 19.7165 19.3652 19.9673 19.7125L20.0142 19.7847C20.247 20.1881 20.1074 20.7047 19.7065 20.9351L19.7056 20.9361C19.3045 21.1684 18.7879 21.0316 18.5513 20.6255C18.322 20.2229 18.4604 19.7056 18.8628 19.4722Z" fill="#18191B" stroke="#18191B"/>
<path d="M11.4307 30.0752V30.0742H11.4316L11.4326 30.0723C11.4336 30.0713 11.4355 30.0703 11.4365 30.0693L11.4307 30.0752ZM16.5098 19.5996L16.5107 19.5986C16.5363 19.6727 16.605 19.8587 16.6748 20.0449C16.7614 20.2759 16.8644 20.5508 16.9404 20.7559L17.0332 21.0039L17.291 21.0674C17.4143 21.0976 17.524 21.1484 17.6084 21.208L17.6836 21.2705C17.7899 21.373 17.8757 21.5606 17.8877 21.7812C17.8996 22.0002 17.8348 22.1695 17.749 22.2607L17.626 22.377L17.4561 22.5352L17.4678 22.7666C17.4742 22.8955 17.4885 23.0175 17.5107 23.1328L17.3232 22.6611L16.7891 23.1611L15.9414 23.9561L15.5 24.3701L15.9893 24.7256C16.6802 25.2276 17.272 25.8625 17.7129 26.5898V26.5908C17.8167 26.7639 17.9184 26.9584 17.9805 27.1475C18.044 27.341 18.0498 27.4791 18.0273 27.5664C17.9892 27.6985 17.8808 27.9105 17.6973 28.1846C17.5191 28.4506 17.2952 28.7398 17.0654 29.0156C16.8365 29.2905 16.6062 29.5463 16.418 29.7451C16.3261 29.8422 16.2441 29.9232 16.1797 29.9863C16.2611 29.8589 16.3725 29.7015 16.5059 29.5195C16.6021 29.3882 16.7052 29.2502 16.8115 29.1084C16.9173 28.9673 17.0265 28.8226 17.1309 28.6807C17.3366 28.4009 17.539 28.1136 17.6777 27.8711C17.7458 27.7521 17.8126 27.62 17.8525 27.4902C17.8805 27.3993 17.9514 27.1386 17.7939 26.8975H17.7949C17.7929 26.8943 17.7912 26.8909 17.7891 26.8877H17.7881C17.7084 26.7681 17.57 26.6252 17.4473 26.5039C17.3069 26.3651 17.1343 26.2033 16.9609 26.042C16.6041 25.7102 16.2538 25.389 16.0732 25.1895C16.0135 25.1151 15.9374 25.0252 15.8838 24.9609C15.815 24.8785 15.7564 24.8046 15.7119 24.7354L15.5322 24.4551L15.2031 24.5137C15.151 24.523 15.1323 24.5244 15.1221 24.5244H14.6738L14.625 24.9697C14.6208 25.0084 14.6159 25.0468 14.6104 25.0859C14.6053 25.1215 14.5982 25.1664 14.5938 25.2041C14.4542 26.3179 13.9522 27.3542 13.2686 28.2002C13.0145 28.5078 12.741 28.8503 12.457 29.1709C12.2281 29.4293 12.0101 29.6495 11.8164 29.8096C12.2669 29.1563 13.5359 27.3155 13.7207 27.0215L13.7363 26.9961C13.7828 26.9112 13.8897 26.7617 13.999 26.4277C14.1023 26.1122 14.2153 25.6194 14.3506 24.7607L14.3496 24.7598C14.3631 24.692 14.3816 24.5887 14.3975 24.499C14.419 24.3773 14.4468 24.2351 14.4805 24.0918C14.5146 23.9469 14.5529 23.8114 14.5957 23.7012C14.6169 23.6465 14.6366 23.6036 14.6543 23.5723C14.6704 23.5437 14.6806 23.5324 14.6816 23.5312L14.6953 23.5166L14.708 23.501L16.6152 21.2031L16.8867 21.0654L16.7861 20.6768C16.7044 20.3622 16.6075 20.0046 16.5215 19.7041C16.4932 19.6052 16.4629 19.506 16.4346 19.4131C16.4591 19.4721 16.4859 19.5335 16.5098 19.5996ZM20.71 25.1133L20.6816 25.085C20.6803 25.0834 20.6791 25.0817 20.6777 25.0801C20.6919 25.0955 20.7033 25.1072 20.71 25.1133Z" fill="#18191B" stroke="#18191B"/>
<path d="M26.0068 17.7015C26.5016 17.7528 26.842 18.1835 26.7949 18.6312V18.6321C26.7478 19.0793 26.3288 19.4279 25.8281 19.3763H25.8291C25.3309 19.3241 24.9944 18.898 25.041 18.4466C25.0858 18.0267 25.4572 17.6937 25.9141 17.6966L26.0068 17.7015Z" fill="#18191B" stroke="#18191B"/>
<path d="M25.5576 20.4307L25.5742 20.4346L25.5898 20.4376C25.7554 20.4701 25.8862 20.519 25.9658 20.5743L25.9775 20.5821C26.0018 20.5981 26.1128 20.6788 26.2246 20.7999C26.3405 20.9254 26.4189 21.0532 26.4434 21.1631L26.4531 21.2051L26.4688 21.2442V21.2452L26.4697 21.2462C26.4702 21.2473 26.4709 21.2491 26.4717 21.251C26.4733 21.255 26.4756 21.2607 26.4785 21.2676C26.4844 21.2816 26.4931 21.3014 26.5039 21.3262C26.5255 21.3758 26.5563 21.4461 26.5967 21.5313C26.6692 21.6845 26.7733 21.8883 26.9014 22.1114L26.333 21.2911L26.1406 22.5274L25.665 25.5938L25.6182 25.8975L25.8672 26.0762C26.4607 26.5044 27.1017 27.2067 27.5449 27.8712L27.7227 28.1534C27.7357 28.1769 27.7638 28.2442 27.7979 28.3741C27.8092 28.4175 27.8191 28.465 27.8301 28.5157C27.8221 28.5006 27.8155 28.4841 27.8057 28.4688H27.8066C27.8041 28.4648 27.8015 28.4602 27.7988 28.4561H27.7979C27.7177 28.3357 27.5798 28.1929 27.458 28.0723C27.3176 27.9334 27.1452 27.7725 26.9717 27.6114C26.6123 27.2778 26.2585 26.9539 26.0771 26.7549C26.0173 26.6794 25.946 26.5944 25.8936 26.5313C25.8241 26.4477 25.7663 26.3741 25.7227 26.3057L25.5322 26.0059L25.1865 26.088C25.1773 26.0901 25.16 26.0928 25.1338 26.0928H24.6943L24.6377 26.5284C24.6275 26.6069 24.6131 26.7047 24.6055 26.7696C24.468 27.864 23.9064 28.8522 23.2041 29.7159C23.0739 29.8742 22.9404 30.0489 22.8096 30.2208C22.6769 30.3951 22.5461 30.5678 22.4141 30.7335C22.2023 30.9991 22.0066 31.2181 21.8301 31.3731C22.2827 30.718 23.5464 28.885 23.7295 28.5928L23.7451 28.5655C23.7902 28.4824 23.8975 28.3304 24.0068 27.9971C24.1097 27.6835 24.2226 27.196 24.3555 26.3497C24.3565 26.3452 24.3585 26.3407 24.3594 26.337C24.363 26.3205 24.3659 26.3045 24.3682 26.2921C24.3704 26.2798 24.3732 26.2662 24.375 26.2559C24.3771 26.2445 24.3789 26.2339 24.3809 26.2237L24.3887 26.1827L24.3896 26.1407C24.4003 25.6546 24.4296 24.5534 24.457 23.5723C24.4707 23.0822 24.4845 22.6222 24.4941 22.2852C24.4989 22.1167 24.5021 21.9785 24.5049 21.8829C24.5063 21.8352 24.5081 21.7977 24.5088 21.7725C24.5091 21.7601 24.5096 21.7506 24.5098 21.7442C24.5099 21.7412 24.5097 21.7389 24.5098 21.7374C24.5068 21.7413 24.2891 21.9429 24.0029 21.9454C24.0054 21.8601 24.0067 21.7964 24.0078 21.7589C24.0173 21.7598 24.0267 21.762 24.0361 21.7628L24.0391 21.7247L24.5098 21.7296C24.5117 21.6285 24.5304 21.5186 24.5635 21.3829L24.7021 20.8155L24.1201 20.7667C23.9788 20.7548 23.8037 20.7061 23.6016 20.6387C23.8882 20.6884 24.1666 20.7232 24.4287 20.7647L24.6631 20.8018L24.8408 20.6436C24.9471 20.5485 25.0746 20.4809 25.2168 20.4464C25.2821 20.4396 25.3579 20.4326 25.4307 20.4297C25.4723 20.4281 25.5071 20.4274 25.5342 20.4288C25.5452 20.4293 25.5529 20.4302 25.5576 20.4307Z" fill="#18191B" stroke="#18191B"/>
</g>
<defs>
<clipPath id="clip0_770_447">
<rect width="40" height="40" fill="white"/>
</clipPath>
</defs>
</svg>
