<svg width="40" height="40" viewBox="0 0 40 40" fill="none" xmlns="http://www.w3.org/2000/svg">
<g clip-path="url(#clip0_770_463)">
<path d="M30 0.75H10C4.89137 0.75 0.75 4.89137 0.75 10V30C0.75 35.1086 4.89137 39.25 10 39.25H30C35.1086 39.25 39.25 35.1086 39.25 30V10C39.25 4.89137 35.1086 0.75 30 0.75Z" fill="white"/>
<path d="M17.7544 16.1852L17.7632 16.1862C17.9038 16.1936 18.0475 16.2344 18.1792 16.3151V16.316C18.5989 16.5768 18.7291 17.1298 18.4683 17.5504H18.4673C18.2989 17.8228 18.0066 17.9734 17.7075 17.9713H17.7017C17.569 17.9719 17.094 17.9813 16.6099 17.9762C16.6115 17.9755 16.6131 17.9749 16.6147 17.9742L17.853 17.4879L17.1782 17.2623C17.2244 16.9738 17.1339 16.6733 16.9204 16.4615C17.016 16.4142 17.1027 16.3711 17.1763 16.3365C17.2341 16.3094 17.2827 16.2867 17.3198 16.2701C17.3384 16.2618 17.3542 16.2556 17.3657 16.2506C17.3714 16.2482 17.3761 16.2461 17.3794 16.2448L17.3813 16.2438C17.503 16.1964 17.63 16.1764 17.7544 16.1852Z" fill="#18191B" stroke="#18191B"/>
<mask id="path-3-inside-1_770_463" fill="white">
<path d="M16.352 16.7555C16.3922 16.7643 16.4361 16.7687 16.4706 16.7924C16.6522 16.9035 16.707 17.1413 16.5927 17.3222C16.542 17.4065 16.4593 17.4496 16.3708 17.4752C16.2909 17.2382 16.2832 17.0021 16.352 16.7555Z"/>
</mask>
<path d="M16.352 16.7555C16.3922 16.7643 16.4361 16.7687 16.4706 16.7924C16.6522 16.9035 16.707 17.1413 16.5927 17.3222C16.542 17.4065 16.4593 17.4496 16.3708 17.4752C16.2909 17.2382 16.2832 17.0021 16.352 16.7555Z" fill="#18191B"/>
<path d="M16.352 16.7555L16.5658 15.7786L15.6427 15.5766L15.3888 16.4868L16.352 16.7555ZM16.4706 16.7924L15.9044 17.6166L15.9262 17.6316L15.9487 17.6454L16.4706 16.7924ZM16.5927 17.3222L15.7473 16.788L15.7414 16.7974L15.7357 16.8068L16.5927 17.3222ZM16.3708 17.4752L15.4232 17.7947L15.729 18.7018L16.6487 18.4358L16.3708 17.4752ZM16.352 16.7555L16.1381 17.7324C16.1528 17.7356 16.1655 17.7381 16.1737 17.7397C16.1779 17.7406 16.1817 17.7413 16.1843 17.7418C16.1874 17.7424 16.1888 17.7427 16.1903 17.743C16.1974 17.7444 16.1852 17.7421 16.1671 17.7375C16.1329 17.7288 16.0248 17.6994 15.9044 17.6166L16.4706 16.7924L17.0368 15.9681C16.8819 15.8617 16.7346 15.8182 16.6597 15.7992C16.6214 15.7894 16.5885 15.783 16.575 15.7803C16.5533 15.7761 16.5617 15.7777 16.5658 15.7786L16.352 16.7555ZM16.4706 16.7924L15.9487 17.6454C15.6501 17.4628 15.5662 17.0746 15.7473 16.788L16.5927 17.3222L17.4381 17.8563C17.8477 17.208 17.6542 16.3442 16.9924 15.9394L16.4706 16.7924ZM16.5927 17.3222L15.7357 16.8068C15.87 16.5836 16.066 16.5223 16.0929 16.5146L16.3708 17.4752L16.6487 18.4358C16.8525 18.3768 17.214 18.2294 17.4496 17.8376L16.5927 17.3222ZM16.3708 17.4752L17.3184 17.1557C17.302 17.1072 17.3007 17.0761 17.3152 17.0242L16.352 16.7555L15.3888 16.4868C15.2656 16.9281 15.2797 17.3691 15.4232 17.7947L16.3708 17.4752Z" fill="#18191B" mask="url(#path-3-inside-1_770_463)"/>
<path d="M11.1423 24.4248C11.9182 24.4248 12.5472 23.7958 12.5472 23.0199C12.5472 22.2439 11.9182 21.6149 11.1423 21.6149C10.3663 21.6149 9.7373 22.2439 9.7373 23.0199C9.7373 23.7958 10.3663 24.4248 11.1423 24.4248Z" fill="#18191B" stroke="#18191B" stroke-width="0.7"/>
<path d="M26.9372 24.4248C27.7131 24.4248 28.3421 23.7958 28.3421 23.0199C28.3421 22.2439 27.7131 21.6149 26.9372 21.6149C26.1612 21.6149 25.5322 22.2439 25.5322 23.0199C25.5322 23.7958 26.1612 24.4248 26.9372 24.4248Z" fill="#18191B" stroke="#18191B" stroke-width="0.7"/>
<path d="M9.20508 20.5605C8.47797 21.1341 8.00988 22.0216 8.00977 23.0195C8.00977 23.1261 7.96995 23.2357 7.91016 23.3105C7.85374 23.381 7.80236 23.3973 7.76562 23.3975H6C5.72391 23.3975 5.50009 23.1735 5.5 22.8975V22.2334C5.5 22.0221 5.63291 21.8338 5.83203 21.7627L9.20508 20.5605ZM21.1816 16.5H24.5654C24.6803 16.5 24.7918 16.5399 24.8809 16.6123H24.8818L27.7422 18.9395C28.3784 19.4567 29.3124 19.3672 29.8389 18.7383L31.5625 16.6787C31.6574 16.5655 31.7976 16.5001 31.9453 16.5H33.8994C34.2927 16.5003 34.5319 16.9338 34.3223 17.2666L30.5049 23.3193C30.4743 23.3678 30.4209 23.3975 30.3633 23.3975H30.3145C30.2776 23.3975 30.2256 23.3814 30.1689 23.3105C30.1092 23.2357 30.0693 23.1261 30.0693 23.0195C30.0691 21.2897 28.6664 19.8877 26.9365 19.8877C25.2069 19.888 23.8049 21.2898 23.8047 23.0195C23.8047 23.1261 23.7649 23.2357 23.7051 23.3105C23.6484 23.3814 23.5964 23.3975 23.5596 23.3975H14.5195C14.4828 23.3975 14.4307 23.3815 14.374 23.3105C14.3142 23.2357 14.2744 23.126 14.2744 23.0195C14.2742 21.2897 12.8723 19.8878 11.1426 19.8877C11.125 19.8877 11.1073 19.8884 11.0898 19.8887L12.4756 19.3955C12.5297 19.3763 12.5867 19.3662 12.6436 19.3662H18.3682C18.8365 19.3662 19.274 19.1482 19.5557 18.7832L19.666 18.6182L20.749 16.749C20.8385 16.5949 21.0034 16.5 21.1816 16.5Z" fill="#18191B" stroke="#18191B"/>
</g>
<defs>
<clipPath id="clip0_770_463">
<rect width="40" height="40" fill="white"/>
</clipPath>
</defs>
</svg>
