<svg width="40" height="40" viewBox="0 0 40 40" fill="none" xmlns="http://www.w3.org/2000/svg">
<g clip-path="url(#clip0_770_484)">
<path d="M30 0.75H10C4.89137 0.75 0.75 4.89137 0.75 10V30C0.75 35.1086 4.89137 39.25 10 39.25H30C35.1086 39.25 39.25 35.1086 39.25 30V10C39.25 4.89137 35.1086 0.75 30 0.75Z" fill="white"/>
<path d="M32.25 17C32.25 20.9619 28.8237 24.25 24.5 24.25C20.1763 24.25 16.75 20.9619 16.75 17C16.75 13.0381 20.1763 9.75 24.5 9.75C28.8237 9.75 32.25 13.0381 32.25 17Z" fill="#18191B" stroke="#18191B" stroke-width="1.5"/>
<path d="M15 14.5C19.1421 14.5 22.5 17.8579 22.5 22C22.5 26.1421 19.1421 29.5 15 29.5C10.8579 29.5 7.5 26.1421 7.5 22C7.5 17.8579 10.8579 14.5 15 14.5Z" fill="#18191B" stroke="#18191B"/>
</g>
<defs>
<clipPath id="clip0_770_484">
<rect width="40" height="40" fill="white"/>
</clipPath>
</defs>
</svg>
