<svg width="40" height="40" viewBox="0 0 40 40" fill="none" xmlns="http://www.w3.org/2000/svg">
<g clip-path="url(#clip0_770_488)">
<path d="M30 0.75H10C4.89137 0.75 0.75 4.89137 0.75 10V30C0.75 35.1086 4.89137 39.25 10 39.25H30C35.1086 39.25 39.25 35.1086 39.25 30V10C39.25 4.89137 35.1086 0.75 30 0.75Z" fill="white"/>
<path d="M29.7554 12.7222L29.2368 15.0943L26.5444 16.6568L24.936 17.5894H28.6567L28.4282 18.6646H22.8511L23.0464 17.815L27.8931 14.9673L28.0601 14.8697L28.1177 14.6851L28.3013 14.0982L28.5034 13.4488H25.1997L25.0776 13.773L24.979 14.0367H23.7554L24.0679 12.7222H29.7554Z" fill="#18191B" stroke="#18191B"/>
<path d="M29.6333 21.5927L27.1899 24.1054L26.9487 24.3525L27.0952 24.665L28.4526 27.5712H26.8794L25.7339 25.3447L25.2944 24.4931L26.0835 23.705L28.1958 21.5927H29.6333ZM25.6577 21.5927L25.2456 23.2294L24.8022 24.9863L24.9019 24.8857L24.7964 25.4872L24.4292 27.5712H22.8481L24.2017 21.5927H25.6577Z" fill="#18191B" stroke="#18191B"/>
<path d="M15.7061 27.5869C15.6928 27.6845 15.6901 27.7961 15.7158 27.9141C15.7386 28.0182 15.7798 28.107 15.8301 28.1836C15.814 28.3297 15.7873 28.5922 15.7627 28.8447L15.7617 28.8486C15.7398 29.0918 15.7272 29.3062 15.7344 29.4912C15.357 29.4959 14.7812 29.5 13.915 29.5C12.6278 29.5 11.9865 29.4999 11.6309 29.4873C11.4532 29.481 11.3688 29.4723 11.3213 29.4639C11.2863 29.4577 11.2679 29.4517 11.2109 29.4297L11.2021 29.4268L11.126 29.3916C11.0427 29.3477 10.9405 29.2764 10.8379 29.1807C10.7357 29.0854 10.6562 28.9872 10.6045 28.9053L10.5625 28.8291L10.5 28.6885V20.6875C10.6305 20.9763 10.7693 21.2755 10.8965 21.5264L10.9072 21.5459L10.918 21.5645C10.9777 21.6604 11.0552 21.7171 11.0977 21.7451C11.1465 21.7774 11.1955 21.8007 11.2373 21.8174C11.2963 21.841 11.3606 21.8573 11.4258 21.8691L11.4277 21.8711C11.6887 22.3144 12.3993 23.3668 12.6816 23.7334L12.6836 23.7344C12.8979 24.0103 13.2914 24.4132 13.6865 24.7852C14.0839 25.1592 14.5191 25.5363 14.8262 25.7549L14.8271 25.7559C15.0337 25.9017 15.1126 25.9649 15.1543 26.0078C15.1749 26.029 15.1871 26.0432 15.2246 26.1289V26.1299L15.2266 26.1338C15.2291 26.1395 15.2311 26.1452 15.2334 26.1504C15.2259 26.1756 15.2185 26.2017 15.2139 26.2295C15.1913 26.366 15.2151 26.4883 15.2402 26.5752C15.2874 26.7384 15.3892 26.943 15.5186 27.1904V27.1914C15.6321 27.4089 15.6801 27.5113 15.7012 27.5713C15.7035 27.578 15.705 27.5832 15.7061 27.5869ZM13.3896 10.5029C13.375 10.5625 13.363 10.6231 13.3535 10.6846L13.332 10.8584C13.3319 10.8597 13.3322 10.861 13.332 10.8623C13.2101 10.9623 13.1358 11.1001 13.1055 11.2139L13.1025 11.2236L13.1006 11.2344C13.076 11.3451 13.0825 11.4556 13.0889 11.5215C13.0964 11.5993 13.1104 11.6796 13.1279 11.7529C13.145 11.8243 13.1693 11.9055 13.2012 11.9795C13.2079 11.995 13.2165 12.0135 13.2266 12.0332C13.2234 12.0583 13.2225 12.0882 13.2168 12.1201C13.2102 12.1573 13.1993 12.1927 13.1914 12.2256C13.1816 12.2266 13.1713 12.2287 13.1602 12.2295L13.1504 12.2305C13.0579 12.2389 12.9652 12.2522 12.8887 12.2686C12.8533 12.2761 12.8042 12.2876 12.7559 12.3057C12.7445 12.3099 12.727 12.32 12.7041 12.3311L12.5215 12.3525C12.0223 12.3879 11.6325 12.542 11.3135 12.9033L11.3105 12.9062C11.0362 13.2217 10.7045 13.8318 10.5 14.3545V11.3682L10.6045 11.1572L10.6055 11.1543C10.7633 10.8289 11.0481 10.6123 11.4014 10.543L11.4072 10.542C11.4198 10.541 11.4559 10.5379 11.5264 10.5342C11.6195 10.5293 11.7452 10.5256 11.8945 10.5215C12.1925 10.5133 12.5774 10.5073 12.9766 10.5049L12.9756 10.5039L13.3896 10.5029ZM12.4082 12.79C12.4082 12.7533 12.4124 12.7189 12.4189 12.6875C12.4124 12.719 12.4082 12.7534 12.4082 12.79ZM12.4209 12.6758C12.4235 12.6649 12.4275 12.6547 12.4307 12.6445C12.4276 12.6547 12.4234 12.6649 12.4209 12.6758ZM13.4824 12.2939C13.4709 12.2879 13.4587 12.2839 13.4482 12.2773C13.4588 12.2838 13.4708 12.288 13.4824 12.2939Z" fill="#18191B" stroke="#18191B"/>
<path d="M16.1523 10.5582C16.5765 10.5648 16.7701 10.5701 16.8857 10.5836C16.921 10.5877 16.9395 10.59 16.96 10.5973L17.0469 10.6403L17.0518 10.6432C17.1326 10.6849 17.2526 10.7761 17.374 10.903C17.495 11.0293 17.5832 11.1551 17.624 11.2408L17.6797 11.3619L17.6895 15.486L17.6943 18.1256C17.692 18.1132 17.6899 18.1005 17.6875 18.0875V18.0836L17.6377 17.8795C17.5753 17.6561 17.4792 17.3878 17.3926 17.1949L17.3916 17.194L17.3252 17.0348C17.199 16.7094 17.1177 16.3361 17.0693 15.8033L17.0479 15.524C17.0287 15.2079 16.9845 14.8149 16.9463 14.649L16.9453 14.6481C16.8048 14.0431 16.4717 13.5915 15.9365 13.2272L15.9258 13.2203C15.8623 13.1793 15.7896 13.1269 15.7256 13.0778L15.5771 12.9557L15.4707 12.8658C15.4588 12.8567 15.446 12.8485 15.4336 12.8395C15.4799 12.7733 15.5231 12.7059 15.5566 12.6442L15.5576 12.6451C15.5805 12.604 15.6016 12.5699 15.6172 12.5465C15.6311 12.5348 15.6437 12.5265 15.6514 12.5192C15.6826 12.4891 15.7101 12.457 15.7295 12.4332C15.7707 12.3828 15.8154 12.322 15.8555 12.2633L15.8613 12.2545L15.8672 12.2448C15.9684 12.0817 16.0752 11.8554 16.0371 11.5856H16.0381C16.0401 11.6034 16.0397 11.6113 16.04 11.6061C16.0404 11.6015 16.0412 11.5909 16.0439 11.5768C16.0497 11.5474 16.0594 11.5157 16.0693 11.4918L16.0684 11.4908C16.1463 11.3129 16.1834 11.1117 16.1904 10.9371C16.1946 10.8333 16.1868 10.6962 16.1523 10.5582ZM15.3828 12.6627C15.353 12.669 15.319 12.6744 15.2812 12.6744C15.3179 12.6744 15.3518 12.6691 15.3828 12.6627ZM15.4336 12.649C15.4247 12.6519 15.4154 12.6552 15.4053 12.6578C15.4152 12.6553 15.4244 12.6519 15.4336 12.649Z" fill="#18191B" stroke="#18191B"/>
<path d="M17.6885 22.0555C17.6943 22.638 17.6982 23.5007 17.6982 24.7333L17.6992 26.912C17.698 27.4498 17.6953 27.8198 17.6895 28.0829C17.6779 28.6028 17.6547 28.6552 17.6289 28.7421C17.6258 28.7518 17.6206 28.7608 17.6172 28.7704C17.5835 28.6298 17.5416 28.4837 17.4893 28.3329L17.4873 28.329C17.4785 28.3043 17.4705 28.2788 17.4639 28.2548C17.4576 28.232 17.4524 28.2121 17.4492 28.1962C17.4538 28.1573 17.4554 28.125 17.4551 28.1044C17.4543 28.0566 17.4486 28.0116 17.4424 27.9735C17.43 27.8973 17.4092 27.8162 17.3818 27.7421L17.3779 27.7313L17.373 27.7206L17.3613 27.6815C17.3531 27.6535 17.3431 27.6178 17.333 27.576L17.2783 27.3046C17.2526 27.1456 17.2466 27.084 17.248 27.0311C17.2495 26.9782 17.259 26.9118 17.2959 26.7479L17.2979 26.7401C17.3475 26.5013 17.3879 26.2681 17.3516 26.0311C17.3135 25.7827 17.2004 25.5846 17.0771 25.3934L17.0742 25.3885C16.9999 25.2761 16.981 25.2391 16.959 25.163C16.9431 25.1082 16.9277 25.0383 16.9082 24.9344L16.834 24.4999C16.6797 23.5597 16.5863 23.2108 16.2686 22.6757C16.1368 22.4484 16.0623 22.2875 16.0098 22.119C16.0056 22.1056 16.002 22.0918 15.998 22.078C16.009 22.0831 16.0192 22.0897 16.0303 22.0946C16.2821 22.2055 16.5464 22.2461 16.8271 22.2489V22.2499H16.832C16.987 22.2499 17.1303 22.2436 17.2744 22.2128C17.4244 22.1806 17.5493 22.1271 17.6748 22.0643L17.6738 22.0634C17.6788 22.0609 17.6835 22.058 17.6885 22.0555ZM17.4414 28.244C17.4388 28.2602 17.4345 28.2852 17.4248 28.3143C17.4353 28.283 17.4388 28.2522 17.4434 28.2245C17.4427 28.2303 17.4425 28.2369 17.4414 28.244ZM15.1211 16.5634C15.2025 16.9843 15.2552 17.2454 15.332 17.4862C15.41 17.7305 15.5103 17.9453 15.666 18.2753L15.668 18.2782C15.7213 18.3889 15.77 18.4963 15.8145 18.5917C15.6866 18.6725 15.5677 18.7717 15.4639 18.8739C15.3899 18.5851 15.2813 18.1877 15.1279 17.6649H15.126C15.0951 17.5564 15.0432 17.4572 14.999 17.3866C14.9604 17.325 14.9108 17.2619 14.8584 17.203C14.8606 17.1964 14.8629 17.1895 14.8652 17.1825C14.9018 17.0722 14.9533 16.9301 15.0078 16.786C15.0426 16.6942 15.0791 16.6036 15.1123 16.5214C15.115 16.5353 15.1184 16.5492 15.1211 16.5634Z" fill="#18191B" stroke="#18191B"/>
</g>
<defs>
<clipPath id="clip0_770_488">
<rect width="40" height="40" fill="white"/>
</clipPath>
</defs>
</svg>
