<svg width="40" height="40" viewBox="0 0 40 40" fill="none" xmlns="http://www.w3.org/2000/svg">
<g clip-path="url(#clip0_770_495)">
<path d="M30 0.75H10C4.89137 0.75 0.75 4.89137 0.75 10V30C0.75 35.1086 4.89137 39.25 10 39.25H30C35.1086 39.25 39.25 35.1086 39.25 30V10C39.25 4.89137 35.1086 0.75 30 0.75Z" fill="white"/>
<path d="M27.8999 14.7552C28.1882 14.4426 28.6765 14.4226 28.9897 14.7113C29.3028 15.0001 29.3222 15.4891 29.0347 15.8011C28.7452 16.1152 28.2557 16.1353 27.9429 15.847C27.63 15.5586 27.6098 15.07 27.8999 14.7552Z" fill="#18191B" stroke="#18191B"/>
<path d="M27.1499 25.9303C27.1686 25.9423 27.2279 25.99 27.3345 26.0944C27.4335 26.1913 27.553 26.3173 27.687 26.4645C27.9547 26.7586 28.2675 27.1237 28.5669 27.4821C28.8655 27.8396 29.1485 28.1874 29.3569 28.4459C29.3823 28.4774 29.4061 28.508 29.4292 28.5367L29.4194 28.5485L29.6147 28.778L29.3003 28.4635C29.0416 28.2041 28.6937 27.8552 28.3384 27.4948C27.9826 27.1339 27.6196 26.7627 27.3306 26.4606C27.1861 26.3096 27.0617 26.1773 26.9663 26.0729C26.9185 26.0206 26.879 25.9767 26.8491 25.942C26.8343 25.9249 26.8228 25.9109 26.814 25.9C26.8097 25.8948 26.8066 25.8904 26.8042 25.8873C26.8018 25.8843 26.8003 25.8824 26.8003 25.8824L26.7925 25.8717L26.7837 25.86L26.7593 25.8239C26.7384 25.7849 26.7205 25.7285 26.7114 25.6481L27.1499 25.9303ZM26.4575 16.9137C26.5596 16.9326 26.654 16.953 26.7397 16.9733C26.8955 17.0102 27.0125 17.0474 27.0894 17.0768L27.2397 17.3776L27.6733 17.193C27.8002 17.1391 27.9305 17.1133 28.064 17.1178H28.1147C28.1243 17.1186 28.1366 17.121 28.1519 17.1237C28.1833 17.1291 28.2202 17.1369 28.2593 17.1481C28.3295 17.1681 28.3924 17.1933 28.4253 17.2067C28.5735 17.2803 28.6988 17.3891 28.7905 17.527L28.9077 17.7037L29.1177 17.7418C29.3029 17.7753 29.839 17.8444 30.3472 17.902C30.5883 17.9293 30.83 17.9533 31.0337 17.9723C31.0138 17.9719 30.9936 17.974 30.9731 17.9733H30.9722C30.941 17.9714 30.9074 17.9699 30.8882 17.9694C30.8426 17.9681 30.7824 17.9668 30.7134 17.9655C30.5745 17.9628 30.3941 17.9607 30.2144 17.9576C30.0338 17.9546 29.8531 17.9511 29.7114 17.9479C29.5557 17.9443 29.4852 17.9407 29.4849 17.941L28.9634 17.8785L28.9263 18.402C28.921 18.4766 28.9133 18.5423 28.9048 18.5934C28.9005 18.6188 28.8972 18.6381 28.894 18.651C28.8905 18.6652 28.8893 18.6652 28.8931 18.6559L28.8335 18.8024L28.8354 18.8141L28.6821 19.2311L28.8101 19.2565C28.7673 19.5202 28.7047 19.8684 28.6382 20.2203C28.5702 20.5803 28.4994 20.9404 28.4458 21.2106C28.419 21.3454 28.3971 21.4582 28.3813 21.5367C28.3735 21.5759 28.367 21.6066 28.3628 21.6276C28.3609 21.6372 28.359 21.6447 28.3579 21.65C28.3577 21.6508 28.3547 21.6642 28.3452 21.6969C28.3358 21.7293 28.3234 21.7728 28.3071 21.8258C28.2746 21.9314 28.2297 22.0716 28.1763 22.236C28.0692 22.5652 27.9269 22.9873 27.7759 23.4127C27.6246 23.8391 27.4659 24.2641 27.3247 24.6031C27.2539 24.7732 27.1905 24.9157 27.1362 25.0231C27.0742 25.1458 27.0464 25.178 27.0552 25.1686L26.7056 25.5426C26.7051 25.4321 26.7202 25.3089 26.7476 25.1832C26.8535 24.7362 27.1822 23.9945 27.5532 23.3414L28.1636 22.2682L27.1099 22.5758L26.7925 22.2145L26.4204 22.6832C26.3488 22.7737 25.4685 23.9012 25.1138 25.0231V25.024C25.0059 25.3663 24.9202 25.7013 24.853 26.0192C24.892 25.6176 24.9359 25.2703 24.9849 25.066L24.9839 25.0651C25.0633 24.7427 25.3631 24.1342 25.6987 23.5055C25.8611 23.2013 26.0206 22.9129 26.1519 22.6725C26.2527 22.4876 26.3474 22.3059 26.4048 22.1813C26.42 22.1564 26.4327 22.1362 26.439 22.1227C26.4572 22.0836 26.4702 22.0445 26.479 22.0172C26.4977 21.959 26.5174 21.8866 26.5356 21.8112C26.5729 21.6572 26.6169 21.4477 26.6646 21.2096C26.7603 20.7309 26.8739 20.1126 26.9771 19.5387L26.9819 19.5114L26.9839 19.484L27.0835 18.0143C27.0943 17.9205 27.1166 17.8311 27.1479 17.7506L27.272 17.4332L27.022 17.2028C27.0115 17.1933 26.9948 17.1792 26.9888 17.1744C26.9851 17.1716 26.9789 17.1667 26.9761 17.1647C26.9707 17.1608 26.9664 17.1573 26.9644 17.1559C26.9598 17.1528 26.9557 17.1504 26.9536 17.149C26.9491 17.1461 26.9446 17.1435 26.9409 17.1412C26.9331 17.1364 26.9239 17.1307 26.9136 17.1246C26.8926 17.1123 26.865 17.0959 26.8306 17.0778C26.7615 17.0415 26.6641 16.9954 26.5415 16.9459C26.5148 16.9351 26.4867 16.9247 26.4575 16.9137ZM28.8677 18.9537V18.9518L28.8667 18.9469L28.8677 18.9537Z" fill="#18191B" stroke="#18191B"/>
<mask id="path-4-inside-1_770_495" fill="white">
<path d="M22.4485 11.7724C21.7937 11.7724 21.2642 11.2408 21.2642 10.5848C21.2642 9.93138 21.7937 9.40004 22.4485 9.40004C23.101 9.40004 23.6329 9.93138 23.6329 10.5848C23.6329 11.2408 23.101 11.7724 22.4485 11.7724ZM22.4485 9C21.5715 9 20.8623 9.7116 20.8623 10.5848C20.8623 11.4655 21.5715 12.1724 22.4485 12.1724C23.3232 12.1724 24.0347 11.4655 24.0347 10.5848C24.0347 9.7116 23.3232 9 22.4485 9Z"/>
</mask>
<path d="M22.4485 11.7724C21.7937 11.7724 21.2642 11.2408 21.2642 10.5848C21.2642 9.93138 21.7937 9.40004 22.4485 9.40004C23.101 9.40004 23.6329 9.93138 23.6329 10.5848C23.6329 11.2408 23.101 11.7724 22.4485 11.7724ZM22.4485 9C21.5715 9 20.8623 9.7116 20.8623 10.5848C20.8623 11.4655 21.5715 12.1724 22.4485 12.1724C23.3232 12.1724 24.0347 11.4655 24.0347 10.5848C24.0347 9.7116 23.3232 9 22.4485 9Z" fill="#18191B"/>
<path d="M22.4485 11.7724V10.7724C22.349 10.7724 22.2642 10.6915 22.2642 10.5848H21.2642H20.2642C20.2642 11.7901 21.2385 12.7724 22.4485 12.7724V11.7724ZM21.2642 10.5848H22.2642C22.2642 10.4824 22.3473 10.4 22.4485 10.4V9.40004V8.40004C21.2402 8.40004 20.2642 9.38036 20.2642 10.5848H21.2642ZM22.4485 9.40004V10.4C22.5488 10.4 22.6329 10.4838 22.6329 10.5848H23.6329H24.6329C24.6329 9.37898 23.6532 8.40004 22.4485 8.40004V9.40004ZM23.6329 10.5848H22.6329C22.6329 10.6901 22.5471 10.7724 22.4485 10.7724V11.7724V12.7724C23.6549 12.7724 24.6329 11.7915 24.6329 10.5848H23.6329ZM22.4485 9V8C21.0188 8 19.8623 9.15973 19.8623 10.5848H20.8623H21.8623C21.8623 10.2635 22.1242 10 22.4485 10V9ZM20.8623 10.5848H19.8623C19.8623 12.0182 21.0196 13.1724 22.4485 13.1724V12.1724V11.1724C22.1234 11.1724 21.8623 10.9128 21.8623 10.5848H20.8623ZM22.4485 12.1724V13.1724C23.8742 13.1724 25.0347 12.0191 25.0347 10.5848H24.0347H23.0347C23.0347 10.9119 22.7722 11.1724 22.4485 11.1724V12.1724ZM24.0347 10.5848H25.0347C25.0347 9.15878 23.875 8 22.4485 8V9V10C22.7715 10 23.0347 10.2644 23.0347 10.5848H24.0347Z" fill="#18191B" mask="url(#path-4-inside-1_770_495)"/>
<path d="M20.4658 12.4694C20.2021 12.7552 19.502 13.5023 18.6182 14.3063C17.5656 15.2639 16.3082 16.2557 15.2471 16.6931L15.2334 16.6989L15.2197 16.7057C15.2197 16.7057 15.2184 16.706 15.2168 16.7067C15.2145 16.7078 15.2126 16.7085 15.208 16.7106C15.2006 16.7141 15.1867 16.7212 15.1709 16.7292L14.7832 16.9255L14.9238 17.3366C14.9498 17.4126 14.9631 17.4971 14.9639 17.5934L14.6494 22.7057L14.6172 23.2263L15.1396 23.237C15.5218 23.2444 16.299 23.3667 16.8457 23.5124V23.5134C17.3106 23.6426 17.5576 23.8232 17.6846 23.9782C17.7762 24.0902 17.821 24.2072 17.832 24.3239V24.4431C17.811 24.7312 17.6786 25.1351 17.4521 25.613C17.2308 26.08 16.9409 26.5758 16.6465 27.0358C16.3529 27.4945 16.0595 27.9101 15.835 28.2165C15.7231 28.3692 15.6287 28.494 15.5605 28.5827L15.457 28.7155L15.4512 28.7214C15.4458 28.7277 15.4288 28.7438 15.3945 28.7585C15.3609 28.7728 15.3167 28.7839 15.2656 28.7839C15.1866 28.7838 15.1318 28.7579 15.1025 28.737C15.1536 28.6571 15.2563 28.4942 15.3682 28.3083C15.5193 28.0571 15.7165 27.7253 15.9141 27.3864C16.111 27.0485 16.3104 26.6999 16.4648 26.4147C16.5419 26.2726 16.6101 26.1409 16.6621 26.0329C16.6954 25.9638 16.7414 25.8617 16.7695 25.7643C16.9293 25.346 16.9286 24.9386 16.7148 24.5905C16.5141 24.2638 16.1817 24.0835 15.8936 23.9772C15.3288 23.7689 14.5904 23.7334 14.3184 23.7018L14.3096 23.7009L14.3018 23.6999L14.2305 23.6989C14.0721 23.7076 13.9651 23.7868 13.9336 23.8112C13.8822 23.8511 13.8459 23.8941 13.8252 23.9196C13.7817 23.9732 13.7422 24.0348 13.7109 24.0876C13.6457 24.1976 13.568 24.3482 13.4834 24.5143C13.309 24.8566 13.0883 25.3038 12.8271 25.7839C12.5665 26.2631 12.2727 26.7599 11.9609 27.1901C11.6836 27.5727 11.4107 27.8762 11.1543 28.071L11.0459 28.1472C10.2972 28.6311 8.38335 29.9933 7.78906 30.3991L7.76562 30.4147L7.74512 30.4323C7.72577 30.4489 7.70894 30.4582 7.69238 30.4665L7.6875 30.4684L7.67383 30.4733L7.67285 30.4743L7.63281 30.488C7.62728 30.4898 7.62125 30.491 7.61328 30.4929C7.61164 30.493 7.60967 30.4927 7.60742 30.4929C7.60393 30.4931 7.59878 30.4935 7.59375 30.4938C7.58338 30.4946 7.56842 30.496 7.55176 30.4977V30.4987C7.49015 30.4981 7.44363 30.4817 7.41211 30.4645L7.42188 30.4587L7.44629 30.4382C7.75086 30.1826 8.96953 29.1489 9.78906 28.5749L9.79004 28.5759C10.6123 28.0014 11.3517 26.8906 11.8496 25.9089C12.1036 25.4081 12.3089 24.9145 12.4375 24.4997C12.5015 24.2933 12.5498 24.0952 12.5742 23.9196C12.5924 23.7884 12.6025 23.6145 12.5625 23.447C12.5627 23.4471 12.5549 23.3747 12.5381 23.2067C12.5225 23.0511 12.5018 22.8362 12.4775 22.5827C12.4291 22.076 12.3669 21.4148 12.3057 20.7585C12.2444 20.1022 12.1838 19.4509 12.1387 18.9636C12.1161 18.72 12.098 18.5174 12.085 18.3757C12.0784 18.3051 12.0728 18.2495 12.0693 18.2116C12.0676 18.1927 12.0663 18.1774 12.0654 18.1677C12.065 18.163 12.0647 18.1594 12.0645 18.1569C12.0643 18.1557 12.0645 18.1536 12.0645 18.153H12.0635L11.9932 17.3893L11.3867 17.7253C10.1137 17.941 8.97679 18.9376 8.17285 19.821C7.74765 20.2882 7.39004 20.7517 7.12695 21.112C6.99532 21.2923 6.88691 21.4479 6.80566 21.5641C6.76445 21.6231 6.73177 21.6697 6.70605 21.7057C6.69395 21.7227 6.68453 21.734 6.67871 21.7419L6.66113 21.7634C6.65839 21.7651 6.65323 21.7674 6.64648 21.7702C6.6295 21.7773 6.60503 21.7838 6.5752 21.7839C6.5609 21.7839 6.54835 21.7788 6.53711 21.777C6.54898 21.7567 6.56389 21.7319 6.58203 21.7028C6.6542 21.5874 6.76568 21.4244 6.91113 21.2263C7.20182 20.8302 7.62101 20.3086 8.13086 19.7741C9.16818 18.6868 10.5053 17.6215 11.8379 17.3347L12.04 17.2907L12.1523 17.1169C12.3126 16.8683 12.604 16.6515 12.9844 16.5446C13.0797 16.5279 13.2016 16.5079 13.3213 16.4938C13.4611 16.4774 13.5536 16.4746 13.5918 16.4792L13.6045 16.4811L13.6162 16.4821C13.8492 16.4991 14.057 16.5515 14.2441 16.6354L14.4033 16.7077L14.5732 16.6638C15.1777 16.5084 15.7433 16.2484 16.1348 16.0466C16.5241 15.8716 16.9819 15.5554 17.4287 15.2057C17.8961 14.8399 18.3865 14.4118 18.8291 14.0065C19.2723 13.6007 19.6725 13.2136 19.9619 12.9284C20.1068 12.7856 20.2244 12.6677 20.3057 12.5856L20.3994 12.4909C20.41 12.4833 20.4321 12.4737 20.4658 12.4694Z" fill="#18191B" stroke="#18191B"/>
<path d="M13.1406 13.2586C13.7386 13.2589 14.2245 13.7446 14.2246 14.3465C14.2246 14.9453 13.7398 15.4312 13.1406 15.4315C12.5395 15.4315 12.0518 14.9437 12.0518 14.3465C12.0519 13.7463 12.5407 13.2586 13.1406 13.2586Z" fill="#18191B" stroke="#18191B"/>
</g>
<defs>
<clipPath id="clip0_770_495">
<rect width="40" height="40" fill="white"/>
</clipPath>
</defs>
</svg>
