<svg width="40" height="40" viewBox="0 0 40 40" fill="none" xmlns="http://www.w3.org/2000/svg">
<g clip-path="url(#clip0_770_502)">
<path d="M30 0.75H10C4.89137 0.75 0.75 4.89137 0.75 10V30C0.75 35.1086 4.89137 39.25 10 39.25H30C35.1086 39.25 39.25 35.1086 39.25 30V10C39.25 4.89137 35.1086 0.75 30 0.75Z" fill="white"/>
<mask id="path-2-inside-1_770_502" fill="white">
<path d="M21.0088 11.6607L21.3091 11.971L6.29774 26.4674L6 26.157L21.0088 11.6607Z"/>
</mask>
<path d="M21.0088 11.6607L21.3091 11.971L6.29774 26.4674L6 26.157L21.0088 11.6607Z" fill="#18191B"/>
<path d="M21.0088 11.6607L21.7274 10.9653L21.0326 10.2474L20.3141 10.9414L21.0088 11.6607ZM21.3091 11.971L22.0038 12.6903L22.7239 11.9949L22.0277 11.2756L21.3091 11.971ZM6.29774 26.4674L5.57607 27.1596L6.27064 27.8837L6.9924 27.1867L6.29774 26.4674ZM6 26.157L5.30528 25.4377L4.58847 26.1301L5.27833 26.8492L6 26.157ZM21.0088 11.6607L20.2902 12.3561L20.5905 12.6664L21.3091 11.971L22.0277 11.2756L21.7274 10.9653L21.0088 11.6607ZM21.3091 11.971L20.6144 11.2517L5.60308 25.7481L6.29774 26.4674L6.9924 27.1867L22.0038 12.6903L21.3091 11.971ZM6.29774 26.4674L7.01941 25.7752L6.72167 25.4648L6 26.157L5.27833 26.8492L5.57607 27.1596L6.29774 26.4674ZM6 26.157L6.69472 26.8763L21.7035 12.38L21.0088 11.6607L20.3141 10.9414L5.30528 25.4377L6 26.157Z" fill="#18191B" mask="url(#path-2-inside-1_770_502)"/>
<path d="M15.8315 11.1266C15.9565 11.1388 16.0774 11.173 16.1831 11.2272L16.2036 11.2369L16.2241 11.2457C16.2283 11.2482 16.263 11.2671 16.3286 11.3229C16.3907 11.3757 16.4619 11.4474 16.5386 11.5319C16.636 11.6693 16.7004 11.832 16.7202 12.0035L16.7212 12.0143L16.7231 12.025C16.7282 12.057 16.7276 12.1094 16.7251 12.1656L16.4468 12.5494C15.9658 13.2089 15.2335 14.2152 14.603 15.0836C15.1636 14.2093 15.8196 13.1967 16.269 12.528L16.5288 12.1412L16.2202 11.9L15.8169 11.2477L15.4058 11.9772C15.4045 11.979 15.4039 11.9791 15.4019 11.9821C15.4003 11.9843 15.3982 11.9874 15.396 11.9908C15.3942 11.9936 15.3924 11.9971 15.3901 12.0006C14.451 13.4021 12.6959 16.1702 12.6411 16.2574L12.6401 16.2594C12.5111 16.4561 12.4539 16.6972 12.4907 16.9391L12.4917 16.9469C12.5082 17.045 12.5422 17.1366 12.5854 17.2223V17.3864C12.5758 17.3941 12.5658 17.4006 12.5571 17.4078C12.4897 17.4646 12.4165 17.5366 12.3442 17.6129C12.1978 17.7677 12.0163 17.9795 11.8169 18.2223C11.4162 18.7101 10.9186 19.3528 10.436 19.9899C9.95253 20.6281 9.48037 21.265 9.12939 21.7418C8.95385 21.9803 8.80907 22.1798 8.70752 22.319C8.65681 22.3884 8.61649 22.4428 8.58936 22.4801L8.55029 22.5338C8.54943 22.535 8.54879 22.5361 8.54834 22.5367V22.5377H8.54736L8.53174 22.5612C8.52978 22.5642 8.52793 22.5669 8.52686 22.568C8.52607 22.5688 8.52514 22.5688 8.5249 22.569V22.5699C8.52472 22.57 8.52349 22.5704 8.521 22.5709H8.51709C8.51207 22.5719 8.50579 22.5716 8.49854 22.567C8.4951 22.5648 8.49228 22.5623 8.49072 22.5602L8.48779 22.5524C8.48782 22.5519 8.4884 22.5507 8.48877 22.5494C8.48973 22.5464 8.4921 22.5402 8.49854 22.5328L8.62256 22.3912V22.3571C8.64012 22.332 8.6601 22.3036 8.68213 22.2721C8.77814 22.1346 8.91577 21.9376 9.07959 21.6998C9.40703 21.2246 9.84281 20.5848 10.2749 19.9283C10.706 19.2733 11.1382 18.595 11.4556 18.0446C11.6135 17.7707 11.7489 17.5175 11.8423 17.3102C11.8885 17.2076 11.9307 17.1037 11.9585 17.0065C11.979 16.9348 12.022 16.7714 11.978 16.5992L11.9751 16.5895C11.9556 16.5187 11.9396 16.3488 12.2271 15.9274L12.2349 15.9166L12.2417 15.9049L14.8403 11.6149C14.8961 11.5341 14.9598 11.4643 15.0269 11.4049C15.0296 11.4028 15.033 11.4007 15.0366 11.3981C15.0546 11.3848 15.0811 11.3654 15.1138 11.3444C15.1837 11.2993 15.2605 11.2585 15.3247 11.2369L15.3267 11.236C15.5348 11.1647 15.6449 11.1286 15.8315 11.1266ZM17.105 12.2555L17.2036 12.3571C17.2079 12.3529 17.1988 12.3822 17.1899 12.4166L16.9653 12.2994L16.8813 12.233L17.105 12.2555ZM17.0913 12.2408L16.8247 12.1881L16.8052 12.1735C16.8164 12.1613 16.8294 12.1458 16.8462 12.1315C16.8636 12.1166 16.8892 12.0967 16.9224 12.0778C16.9246 12.0765 16.9268 12.0752 16.9292 12.0739L17.0913 12.2408Z" fill="#18191B" stroke="#18191B"/>
<path d="M16.6455 8.94336C16.9526 8.48341 17.5766 8.36164 18.0371 8.67188C18.4984 8.98342 18.6203 9.60808 18.3105 10.0713C17.999 10.5308 17.3742 10.6506 16.9131 10.3398H16.9121C16.4517 10.0307 16.3317 9.40679 16.6436 8.94727L16.6455 8.94336Z" fill="#18191B" stroke="#18191B"/>
<path d="M20.915 17.8918C21.2953 17.6643 21.8225 17.6226 22.7129 18.1828V18.1818C22.727 18.1916 22.7368 18.2001 22.7402 18.2023C22.7618 18.2164 22.7886 18.2335 22.8184 18.2521C22.8785 18.2898 22.9591 18.3387 23.0488 18.3937C23.2304 18.505 23.4536 18.6409 23.6562 18.7658L23.7773 18.84H23.9189C23.9272 18.84 23.9518 18.8369 23.9854 18.8342L23.9863 18.8371C24.0356 18.8347 24.082 18.8371 24.1445 18.842C24.1719 18.8441 24.2083 18.8451 24.249 18.8478L24.2686 18.8527C24.469 18.9041 24.6342 18.9945 24.7373 19.0949L24.7402 19.0969C24.8732 19.2248 24.9738 19.4511 24.9883 19.7101C25.0024 19.9647 24.9292 20.1715 24.8203 20.2902L24.6777 20.4211L24.6484 20.4484L24.623 20.4807C24.5811 20.5338 24.4205 20.6936 24.2168 20.883C24.0208 21.0652 23.837 21.2263 23.7734 21.2756L23.7549 21.2902L23.7373 21.3068L22.7861 22.1994L22.3447 22.6144L22.835 22.9689C23.5179 23.4635 24.1188 24.0772 24.5908 24.7726L24.7852 25.0764C24.9033 25.271 25.019 25.4938 25.0898 25.7111C25.1625 25.9342 25.1723 26.1033 25.1416 26.218C25.1218 26.288 25.0586 26.417 24.9268 26.6076C24.8001 26.7907 24.6339 26.998 24.4453 27.217C24.0593 27.6651 23.638 28.0991 23.2949 28.4797L23.2891 28.4855L23.2842 28.4914C23.2798 28.4965 23.2745 28.5002 23.2705 28.5021C23.2691 28.5028 23.2681 28.503 23.2676 28.5031C23.2638 28.5031 23.2614 28.5028 23.2598 28.5021C23.2578 28.5013 23.2553 28.4996 23.2529 28.4973C23.248 28.4923 23.2451 28.4859 23.2451 28.4787C23.2452 28.4737 23.2461 28.4718 23.2461 28.4719L23.2451 28.4728L23.2568 28.4572L23.2676 28.4416C23.5557 27.9981 23.95 27.5162 24.3047 27.0275C24.4701 26.7996 24.6297 26.5647 24.7344 26.3566C24.7861 26.2538 24.8388 26.1306 24.8633 26.0012C24.8861 25.88 24.8972 25.6758 24.7705 25.4836H24.7725C24.6891 25.3551 24.5329 25.1955 24.3906 25.0549C24.2341 24.9002 24.0423 24.7193 23.8477 24.5383C23.5469 24.2585 23.2476 23.9824 23.0303 23.7668L22.8428 23.5734C22.7761 23.4889 22.6961 23.3937 22.6348 23.3195C22.5569 23.2255 22.4907 23.1404 22.4395 23.0607L22.2559 22.7746L21.9219 22.84C21.878 22.8487 21.848 22.8517 21.8262 22.8517H21.3828L21.3301 23.2922C21.3197 23.3795 21.3056 23.4874 21.2979 23.5549C21.1349 24.8218 20.5639 26.0004 19.79 26.9543C19.508 27.2969 19.201 27.6821 18.8828 28.0412C18.5607 28.4047 18.257 28.7078 17.9971 28.8898L17.9619 28.9142L17.9443 28.9308C17.9426 28.9314 17.9409 28.9331 17.9385 28.9338L17.9326 28.9348C17.9307 28.9353 17.929 28.9354 17.9277 28.9357H17.9258C17.9235 28.9348 17.9205 28.9334 17.918 28.9308C17.9155 28.9284 17.9132 28.9256 17.9121 28.923L17.9111 28.9201L17.915 28.9113C17.9158 28.9089 17.9153 28.9064 17.916 28.9045L17.9268 28.8937L17.9443 28.8674C18.2595 28.4068 19.9747 25.9228 20.2031 25.5617L20.2119 25.5471L20.2207 25.5314C20.2726 25.4353 20.389 25.2717 20.5088 24.9064C20.6233 24.5571 20.7502 24.0082 20.9004 23.0471L20.8994 23.0461C20.9141 22.9724 20.9347 22.8577 20.9531 22.7541C20.9775 22.617 21.0076 22.4555 21.0459 22.2932C21.0846 22.129 21.1292 21.9738 21.1787 21.8469C21.2323 21.7094 21.2749 21.6513 21.2871 21.6389L21.3018 21.6232L21.3154 21.6066L23.1602 19.383L23.1611 19.384L23.1758 19.3664L23.5225 18.9601L23.0947 18.6408C22.6785 18.3298 22.2385 18.0148 22.0723 17.925L22.0254 17.9006L21.9756 17.8859L21.834 17.8527C21.5017 17.7959 21.1616 17.8723 20.8799 17.9719C20.7896 18.0038 20.6995 18.0405 20.6104 18.0803C20.7177 18.0107 20.8203 17.9476 20.9131 17.8928L20.915 17.8918Z" fill="#18191B" stroke="#18191B"/>
<path d="M25.9922 17.0737C26.4762 16.7972 27.0909 16.9636 27.3682 17.4438V17.4429C27.6443 17.9231 27.4796 18.5396 26.998 18.8188C26.5188 19.0955 25.9015 18.931 25.623 18.4487L25.6221 18.4478L25.5762 18.3569C25.3678 17.8949 25.541 17.3362 25.9932 17.0747L25.9922 17.0737Z" fill="#18191B" stroke="#18191B"/>
<mask id="path-8-inside-2_770_502" fill="white">
<path d="M23.8324 28.6685C23.7819 28.7237 23.7315 28.779 23.6861 28.8302L23.6759 28.8421H23.6734C23.5674 28.9612 23.4186 29.0263 23.2672 29.0263C23.0174 29.0263 22.8079 28.8597 22.7449 28.6329L19.1693 28.5067C19.0355 28.6556 18.9018 28.7916 18.7681 28.9228L32.8887 29.4146L32.9038 28.9839L23.8324 28.6685Z"/>
</mask>
<path d="M23.8324 28.6685C23.7819 28.7237 23.7315 28.779 23.6861 28.8302L23.6759 28.8421H23.6734C23.5674 28.9612 23.4186 29.0263 23.2672 29.0263C23.0174 29.0263 22.8079 28.8597 22.7449 28.6329L19.1693 28.5067C19.0355 28.6556 18.9018 28.7916 18.7681 28.9228L32.8887 29.4146L32.9038 28.9839L23.8324 28.6685Z" fill="#18191B"/>
<path d="M23.8324 28.6685L23.8671 27.6691L23.406 27.6531L23.0945 27.9935L23.8324 28.6685ZM23.6861 28.8302L22.9379 28.1668L22.9323 28.173L22.9268 28.1794L23.6861 28.8302ZM23.6759 28.8421V29.8421H24.1358L24.4351 29.4929L23.6759 28.8421ZM23.6734 28.8421V27.8421H23.2247L22.9264 28.1773L23.6734 28.8421ZM22.7449 28.6329L23.7084 28.3653L23.5123 27.6594L22.7801 27.6335L22.7449 28.6329ZM19.1693 28.5067L19.2045 27.5073L18.7377 27.4909L18.4255 27.8383L19.1693 28.5067ZM18.7681 28.9228L18.0677 28.2091L16.4045 29.8411L18.7333 29.9222L18.7681 28.9228ZM32.8887 29.4146L32.8539 30.414L33.853 30.4488L33.8881 29.4497L32.8887 29.4146ZM32.9038 28.9839L33.9032 29.019L33.9382 28.0193L32.9385 27.9845L32.9038 28.9839ZM23.8324 28.6685L23.0945 27.9935C23.044 28.0488 22.9889 28.1092 22.9379 28.1668L23.6861 28.8302L24.4343 29.4937C24.474 29.4489 24.5197 29.3987 24.5702 29.3435L23.8324 28.6685ZM23.6861 28.8302L22.9268 28.1794L22.9166 28.1913L23.6759 28.8421L24.4351 29.4929L24.4453 29.481L23.6861 28.8302ZM23.6759 28.8421V27.8421H23.6734V28.8421V29.8421H23.6759V28.8421ZM23.6734 28.8421L22.9264 28.1773C23.0097 28.0836 23.1325 28.0263 23.2672 28.0263V29.0263V30.0263C23.7046 30.0263 24.125 29.8388 24.4204 29.5069L23.6734 28.8421ZM23.2672 29.0263V28.0263C23.472 28.0263 23.6526 28.1645 23.7084 28.3653L22.7449 28.6329L21.7813 28.9006C21.9631 29.5549 22.5627 30.0263 23.2672 30.0263V29.0263ZM22.7449 28.6329L22.7801 27.6335L19.2045 27.5073L19.1693 28.5067L19.134 29.5061L22.7096 29.6323L22.7449 28.6329ZM19.1693 28.5067L18.4255 27.8383C18.3106 27.9662 18.1928 28.0862 18.0677 28.2091L18.7681 28.9228L19.4685 29.6366C19.6107 29.497 19.7603 29.3451 19.9131 29.1751L19.1693 28.5067ZM18.7681 28.9228L18.7333 29.9222L32.8539 30.414L32.8887 29.4146L32.9235 28.4152L18.8029 27.9234L18.7681 28.9228ZM32.8887 29.4146L33.8881 29.4497L33.9032 29.019L32.9038 28.9839L31.9044 28.9489L31.8893 29.3796L32.8887 29.4146ZM32.9038 28.9839L32.9385 27.9845L23.8671 27.6691L23.8324 28.6685L23.7976 29.6679L32.869 29.9833L32.9038 28.9839Z" fill="#18191B" mask="url(#path-8-inside-2_770_502)"/>
<mask id="path-10-inside-3_770_502" fill="white">
<path d="M18.2986 29.322C18.238 29.3742 18.1648 29.4126 18.0866 29.4373C18.0286 29.453 17.9831 29.461 17.9327 29.461C17.7081 29.461 17.5113 29.322 17.4305 29.1219L7.53655 28.431L7.50879 28.8597L28.3238 30.3154L28.3515 29.8867L18.4575 29.1928C18.4071 29.2382 18.349 29.2837 18.2986 29.322Z"/>
</mask>
<path d="M18.2986 29.322C18.238 29.3742 18.1648 29.4126 18.0866 29.4373C18.0286 29.453 17.9831 29.461 17.9327 29.461C17.7081 29.461 17.5113 29.322 17.4305 29.1219L7.53655 28.431L7.50879 28.8597L28.3238 30.3154L28.3515 29.8867L18.4575 29.1928C18.4071 29.2382 18.349 29.2837 18.2986 29.322Z" fill="#18191B"/>
<path d="M18.2986 29.322L17.6936 28.5258L17.6692 28.5444L17.646 28.5644L18.2986 29.322ZM18.0866 29.4373L18.3479 30.4026L18.368 30.3972L18.3878 30.3909L18.0866 29.4373ZM17.4305 29.1219L18.3578 28.7475L18.1237 28.1679L17.5002 28.1244L17.4305 29.1219ZM7.53655 28.431L7.60621 27.4335L6.60359 27.3634L6.53864 28.3664L7.53655 28.431ZM7.50879 28.8597L6.51088 28.7951L6.44659 29.7879L7.43902 29.8573L7.50879 28.8597ZM28.3238 30.3154L28.2541 31.313L29.2569 31.3831L29.3217 30.3799L28.3238 30.3154ZM28.3515 29.8867L29.3494 29.9512L29.4136 28.9588L28.4215 28.8892L28.3515 29.8867ZM18.4575 29.1928L18.5275 28.1953L18.1038 28.1656L17.7882 28.4498L18.4575 29.1928ZM18.2986 29.322L17.646 28.5644C17.7022 28.5159 17.7535 28.4939 17.7854 28.4838L18.0866 29.4373L18.3878 30.3909C18.5761 30.3314 18.7738 30.2325 18.9513 30.0797L18.2986 29.322ZM18.0866 29.4373L17.8253 28.4721C17.8177 28.4741 17.8284 28.4709 17.8498 28.4675C17.8739 28.4636 17.9025 28.461 17.9327 28.461V29.461V30.461C18.1024 30.461 18.241 30.4315 18.3479 30.4026L18.0866 29.4373ZM17.9327 29.461V28.461C18.126 28.461 18.2898 28.5791 18.3578 28.7475L17.4305 29.1219L16.5033 29.4964C16.7329 30.0649 17.2902 30.461 17.9327 30.461V29.461ZM17.4305 29.1219L17.5002 28.1244L7.60621 27.4335L7.53655 28.431L7.46689 29.4286L17.3609 30.1195L17.4305 29.1219ZM7.53655 28.431L6.53864 28.3664L6.51088 28.7951L7.50879 28.8597L8.5067 28.9243L8.53446 28.4956L7.53655 28.431ZM7.50879 28.8597L7.43902 29.8573L28.2541 31.313L28.3238 30.3154L28.3936 29.3179L7.57855 27.8622L7.50879 28.8597ZM28.3238 30.3154L29.3217 30.3799L29.3494 29.9512L28.3515 29.8867L27.3536 29.8222L27.3259 30.2509L28.3238 30.3154ZM28.3515 29.8867L28.4215 28.8892L18.5275 28.1953L18.4575 29.1928L18.3876 30.1904L28.2816 30.8843L28.3515 29.8867ZM18.4575 29.1928L17.7882 28.4498C17.7699 28.4664 17.7388 28.4915 17.6936 28.5258L18.2986 29.322L18.9037 30.1182C18.9592 30.076 19.0444 30.0101 19.1268 29.9358L18.4575 29.1928Z" fill="#18191B" mask="url(#path-10-inside-3_770_502)"/>
</g>
<defs>
<clipPath id="clip0_770_502">
<rect width="40" height="40" fill="white"/>
</clipPath>
</defs>
</svg>
