<svg width="40" height="40" viewBox="0 0 40 40" fill="none" xmlns="http://www.w3.org/2000/svg">
<g clip-path="url(#clip0_770_511)">
<path d="M30 0.75H10C4.89137 0.75 0.75 4.89137 0.75 10V30C0.75 35.1086 4.89137 39.25 10 39.25H30C35.1086 39.25 39.25 35.1086 39.25 30V10C39.25 4.89137 35.1086 0.75 30 0.75Z" fill="white"/>
<path d="M16.1738 10.5C18.3904 10.5 20.5337 11.2624 22.249 12.6494L20.8955 14.0029C19.5426 12.9625 17.8814 12.3923 16.166 12.3896H16.165C14.4483 12.3911 12.7858 12.9611 11.4316 14.002L10.0957 12.6514C11.8116 11.2628 13.9561 10.5 16.1738 10.5Z" fill="#18191B" stroke="#18191B"/>
<path d="M23.5771 13.956C24.6687 15.2625 25.3992 16.8363 25.6875 18.5204C26.0048 20.375 25.7734 22.2816 25.0225 24.0068C24.2713 25.7321 23.0328 27.201 21.459 28.2324C19.8852 29.2636 18.0447 29.8134 16.1631 29.8134C14.2813 29.8134 12.4401 29.2638 10.8662 28.2324C9.29243 27.201 8.0538 25.732 7.30273 24.0068C6.55184 22.2817 6.32137 20.3749 6.63867 18.5204C6.92677 16.8371 7.65541 15.2632 8.74609 13.957L10.1016 15.3203C9.19692 16.4589 8.62648 17.8308 8.46191 19.2822C8.27957 20.8911 8.60392 22.5176 9.38965 23.9335L9.70605 24.5019L10.1738 24.0507L14.2451 20.1318L14.3203 20.0585L14.3604 19.9628L15.2344 17.8515V21.7812L11.3564 25.5146L10.9404 25.914L11.3955 26.2685C12.7576 27.3309 14.4356 27.9081 16.1631 27.9081C17.8905 27.9081 19.5686 27.3309 20.9307 26.2685L21.3848 25.914L20.9697 25.5146L17.0908 21.7802V17.8437L17.9658 19.9521L18.0059 20.0478L18.0811 20.1201L22.1523 24.04L22.6201 24.4911L22.9355 23.9218C23.6721 22.5944 24.0034 21.0828 23.8916 19.5732L23.8633 19.2714C23.6988 17.8199 23.1285 16.4483 22.2236 15.3095L23.5771 13.956Z" fill="#18191B" stroke="#18191B"/>
<path d="M25.2212 12.2983C26.1421 13.3616 26.8721 14.578 27.3735 15.895L27.4956 16.2173H33.1431C33.2376 16.2173 33.329 16.2548 33.396 16.3218C33.4627 16.3886 33.4995 16.4793 33.4995 16.5737V23.7251C33.4995 23.7723 33.4906 23.8192 33.4722 23.8628C33.4537 23.9066 33.4262 23.9467 33.3921 23.98C33.3581 24.0131 33.3176 24.0396 33.2729 24.0571C33.229 24.0743 33.1818 24.0828 33.1343 24.0815V24.0806H27.4946L27.3726 24.4048C26.8778 25.7213 26.1542 26.9383 25.2388 28.0024L25.0005 27.7642C26.8258 25.6522 27.8374 22.9511 27.8374 20.1489C27.8374 17.3444 26.8248 14.6405 24.9966 12.5278L25.2212 12.2983ZM29.3774 16.772L29.3286 16.7778L29.2817 16.7925C29.0871 16.8558 28.907 16.9574 28.7515 17.0903C28.6346 17.1902 28.5331 17.3061 28.4507 17.4351L28.3745 17.5679C28.2202 17.8396 28.1326 18.1436 28.1196 18.4546L28.1187 18.5786V19.6382H30.0688L28.7407 20.8911L28.686 20.9429C28.6397 20.9865 28.5878 21.0356 28.5337 21.0894L28.3726 21.2603C28.1488 21.5139 28.0137 21.832 27.9849 22.1665L27.979 22.3081V23.5581H32.1128V23.5571C32.3556 23.5577 32.5924 23.4832 32.7915 23.3433L32.7925 23.3442C32.9929 23.2036 33.1525 23.012 33.2554 22.7896L33.2563 22.7886C33.3524 22.5801 33.3931 22.3513 33.3794 22.1226H33.3804V21.3481H31.271L32.4478 20.2358L32.4487 20.2368C32.5982 20.1057 32.7365 19.9623 32.8628 19.8091L32.8687 19.8022L32.8735 19.7954C33.0806 19.5254 33.2019 19.1995 33.2222 18.8599L33.2231 18.8452V18.354C33.2301 18.2632 33.2302 18.1721 33.2192 18.0815L33.2173 18.063L33.2134 18.0444C33.1893 17.9229 33.1517 17.8041 33.1011 17.6909L32.9868 17.437L33.0239 17.4028L32.9429 17.3384L32.814 17.0483L32.7065 17.1489L32.5757 17.0454C32.3442 16.8609 32.0557 16.7629 31.7603 16.7681H29.644C29.5552 16.7613 29.466 16.7614 29.3774 16.772ZM30.7993 18.9497L30.3228 19.3979V18.9497H30.7993Z" fill="#18191B" stroke="#18191B"/>
<mask id="path-5-inside-1_770_511" fill="white">
<path d="M23.6635 28.6127H23.5907V28.7191H23.5571V28.4335H23.6747C23.6865 28.4325 23.6983 28.4342 23.7093 28.4385C23.7203 28.4427 23.7303 28.4494 23.7383 28.458C23.7464 28.4666 23.7524 28.4769 23.756 28.4882C23.7595 28.4995 23.7604 28.5114 23.7587 28.5231C23.7607 28.5429 23.7556 28.5628 23.7443 28.5792C23.7331 28.5956 23.7163 28.6075 23.6971 28.6127L23.7643 28.7191H23.7195L23.6635 28.6127ZM23.5907 28.5791H23.6691C23.6839 28.5791 23.6982 28.5732 23.7087 28.5627C23.7192 28.5522 23.7251 28.5379 23.7251 28.5231C23.7251 28.5082 23.7192 28.494 23.7087 28.4835C23.6982 28.473 23.6839 28.4671 23.6691 28.4671H23.5907V28.5791Z"/>
</mask>
<path d="M23.6635 28.6127H23.5907V28.7191H23.5571V28.4335H23.6747C23.6865 28.4325 23.6983 28.4342 23.7093 28.4385C23.7203 28.4427 23.7303 28.4494 23.7383 28.458C23.7464 28.4666 23.7524 28.4769 23.756 28.4882C23.7595 28.4995 23.7604 28.5114 23.7587 28.5231C23.7607 28.5429 23.7556 28.5628 23.7443 28.5792C23.7331 28.5956 23.7163 28.6075 23.6971 28.6127L23.7643 28.7191H23.7195L23.6635 28.6127ZM23.5907 28.5791H23.6691C23.6839 28.5791 23.6982 28.5732 23.7087 28.5627C23.7192 28.5522 23.7251 28.5379 23.7251 28.5231C23.7251 28.5082 23.7192 28.494 23.7087 28.4835C23.6982 28.473 23.6839 28.4671 23.6691 28.4671H23.5907V28.5791Z" fill="#18191B"/>
<path d="M23.6635 28.6127L24.5485 28.147L24.2673 27.6127H23.6635V28.6127ZM23.5907 28.6127V27.6127H22.5907V28.6127H23.5907ZM23.5907 28.7191V29.7191H24.5907V28.7191H23.5907ZM23.5571 28.7191H22.5571V29.7191H23.5571V28.7191ZM23.5571 28.4335V27.4335H22.5571V28.4335H23.5571ZM23.6747 28.4335V29.4335H23.717L23.7592 29.4299L23.6747 28.4335ZM23.7093 28.4385L23.3452 29.3699L23.3526 29.3727L23.7093 28.4385ZM23.7383 28.458L23.0061 29.1391L23.0104 29.1436L23.7383 28.458ZM23.756 28.4882L24.7113 28.1923L24.7088 28.1847L23.756 28.4882ZM23.7587 28.5231L22.7691 28.3793L22.7514 28.5011L22.7638 28.6236L23.7587 28.5231ZM23.7443 28.5792L22.9209 28.0118L22.9185 28.0152L23.7443 28.5792ZM23.6971 28.6127L23.4357 27.6475L22.1284 28.0015L22.8516 29.1467L23.6971 28.6127ZM23.7643 28.7191V29.7191H25.5786L24.6098 28.1851L23.7643 28.7191ZM23.7195 28.7191L22.8346 29.1848L23.1158 29.7191H23.7195V28.7191ZM23.5907 28.5791H22.5907V29.5791H23.5907V28.5791ZM23.5907 28.4671V27.4671H22.5907V28.4671H23.5907ZM23.6635 28.6127V27.6127H23.5907V28.6127V29.6127H23.6635V28.6127ZM23.5907 28.6127H22.5907V28.7191H23.5907H24.5907V28.6127H23.5907ZM23.5907 28.7191V27.7191H23.5571V28.7191V29.7191H23.5907V28.7191ZM23.5571 28.7191H24.5571V28.4335H23.5571H22.5571V28.7191H23.5571ZM23.5571 28.4335V29.4335H23.6747V28.4335V27.4335H23.5571V28.4335ZM23.6747 28.4335L23.7592 29.4299C23.6194 29.4418 23.4777 29.4216 23.3452 29.3699L23.7093 28.4385L24.0734 27.5071C23.919 27.4468 23.7537 27.4232 23.5903 27.4371L23.6747 28.4335ZM23.7093 28.4385L23.3526 29.3727C23.2227 29.3231 23.1037 29.244 23.0061 29.1391L23.7383 28.458L24.4705 27.7769C24.3569 27.6548 24.2179 27.5623 24.066 27.5043L23.7093 28.4385ZM23.7383 28.458L23.0104 29.1436C22.9136 29.0409 22.844 28.9198 22.8032 28.7918L23.756 28.4882L24.7088 28.1847C24.6608 28.034 24.5793 27.8923 24.4663 27.7724L23.7383 28.458ZM23.756 28.4882L22.8008 28.7841C22.7598 28.6516 22.7497 28.5132 22.7691 28.3793L23.7587 28.5231L24.7483 28.6669C24.7712 28.5096 24.7593 28.3474 24.7113 28.1923L23.756 28.4882ZM23.7587 28.5231L22.7638 28.6236C22.742 28.4077 22.7975 28.1909 22.9209 28.0118L23.7443 28.5792L24.5678 29.1466C24.7137 28.9347 24.7795 28.6781 24.7537 28.4226L23.7587 28.5231ZM23.7443 28.5792L22.9185 28.0152C23.0425 27.8337 23.2265 27.7041 23.4357 27.6475L23.6971 28.6127L23.9585 29.5779C24.2062 29.5109 24.4237 29.3575 24.5701 29.1432L23.7443 28.5792ZM23.6971 28.6127L22.8516 29.1467L22.9188 29.2531L23.7643 28.7191L24.6098 28.1851L24.5426 28.0787L23.6971 28.6127ZM23.7643 28.7191V27.7191H23.7195V28.7191V29.7191H23.7643V28.7191ZM23.7195 28.7191L24.6045 28.2534L24.5485 28.147L23.6635 28.6127L22.7786 29.0784L22.8346 29.1848L23.7195 28.7191ZM23.5907 28.5791V29.5791H23.6691V28.5791V27.5791H23.5907V28.5791ZM23.6691 28.5791V29.5791C23.9486 29.5791 24.2174 29.4683 24.4158 29.2698L23.7087 28.5627L23.0016 27.8556C23.1791 27.6781 23.4193 27.5791 23.6691 27.5791V28.5791ZM23.7087 28.5627L24.4158 29.2698C24.6143 29.0714 24.7251 28.8026 24.7251 28.5231H23.7251H22.7251C22.7251 28.2732 22.8242 28.033 23.0016 27.8556L23.7087 28.5627ZM23.7251 28.5231H24.7251C24.7251 28.2426 24.6136 27.9742 24.4158 27.7764L23.7087 28.4835L23.0016 29.1906C22.8249 29.0139 22.7251 28.7738 22.7251 28.5231H23.7251ZM23.7087 28.4835L24.4158 27.7764C24.2174 27.5779 23.9486 27.4671 23.6691 27.4671V28.4671V29.4671C23.4193 29.4671 23.1791 29.3681 23.0016 29.1906L23.7087 28.4835ZM23.6691 28.4671V27.4671H23.5907V28.4671V29.4671H23.6691V28.4671ZM23.5907 28.4671H22.5907V28.5791H23.5907H24.5907V28.4671H23.5907Z" fill="#18191B" mask="url(#path-5-inside-1_770_511)"/>
<path d="M23.4414 28.6692C23.4402 28.6665 23.4386 28.6641 23.4375 28.6614M23.4414 28.6692C23.4403 28.6666 23.4395 28.664 23.4385 28.6614M23.4414 28.6692C23.447 28.6817 23.453 28.694 23.4609 28.7053C23.4534 28.6938 23.4468 28.6818 23.4414 28.6692ZM23.4375 28.6614H23.4385M23.4375 28.6614H23.4385M23.4375 28.6614C23.4271 28.6355 23.4209 28.6078 23.4209 28.5793H23.4229L23.4277 28.6243C23.4303 28.637 23.4338 28.6493 23.4385 28.6614M23.4824 28.4202C23.464 28.4406 23.4486 28.4638 23.4385 28.4895L23.4268 28.5334C23.4246 28.5454 23.423 28.5574 23.4229 28.5696H23.4209C23.422 28.5138 23.4447 28.4606 23.4824 28.4202Z" fill="#18191B" stroke="#18191B"/>
</g>
<defs>
<clipPath id="clip0_770_511">
<rect width="40" height="40" fill="white"/>
</clipPath>
</defs>
</svg>
