<svg width="40" height="40" viewBox="0 0 40 40" fill="none" xmlns="http://www.w3.org/2000/svg">
<g clip-path="url(#clip0_770_786)">
<path d="M30.3896 0H9.61039C4.30272 0 0 4.30272 0 9.61039V30.3896C0 35.6973 4.30272 40 9.61039 40H30.3896C35.6973 40 40 35.6973 40 30.3896V9.61039C40 4.30272 35.6973 0 30.3896 0Z" fill="white"/>
<path d="M5 11.6006L34.1608 11.6006V11L5 11V11.6006Z" fill="#18191B"/>
<path d="M21.7647 12.5337C21.7647 13.785 20.7506 14.7953 19.5018 14.7953C18.2508 14.7953 17.2393 13.785 17.2393 12.5337C17.2393 11.284 18.2508 10.2724 19.5018 10.2724C20.7506 10.2724 21.7647 11.284 21.7647 12.5337Z" fill="#18191B"/>
<path d="M14.6606 6.80388C15.4991 6.15259 16.4958 6.17115 16.8901 6.83723C17.2824 7.50457 16.9184 8.57022 16.0815 9.21899C15.2395 9.8706 14.2415 9.85456 13.8507 9.18848C13.4587 8.52114 13.8202 7.45171 14.6606 6.80388ZM26.9769 33.2221C26.9731 33.2186 26.9731 33.2186 26.9719 33.2161C26.9719 33.2161 22.7133 29.7746 21.794 29.4367C22.5657 28.2471 22.6926 23.5373 22.6926 23.1563L22.8744 17.536C22.8744 17.3554 22.8536 17.1833 22.8253 17.0112C22.8216 17.0049 22.7442 16.1903 22.2574 15.6838C22.0633 15.4774 22.0583 15.3912 21.6171 15.1124C21.5152 15.0533 21.3 14.9648 20.7667 14.9183C20.0968 14.8629 19.4713 15.1023 19.4934 15.1061C19.2206 15.2474 18.9758 15.4466 18.7719 15.6863C17.0487 15.8276 15.5689 16.2677 13.8693 15.3396C12.5494 14.3774 12.3908 13.6091 11.7235 12.3471C11.7134 12.3225 11.6753 12.2511 11.6694 12.2389L11.6656 12.2363C11.5526 12.0608 11.356 11.9415 11.131 11.9352C11.2452 11.8371 13.4662 9.94676 13.7437 9.71078C14.3079 10.319 15.3871 10.2538 16.2731 9.51035C16.616 9.22781 16.8828 8.88361 17.0647 8.52115C17.3991 7.84878 17.4432 7.11757 17.1103 6.59496C16.605 5.79611 15.4078 5.8024 14.4372 6.60975C13.6295 7.28589 13.2325 8.30593 13.4181 9.09252C13.4181 9.14538 13.4256 9.19068 13.4379 9.22529C13.0641 9.54465 10.1119 11.8824 10.0053 12.2879C9.98166 12.411 10.0408 12.5066 10.1119 12.562C10.229 12.427 10.4033 12.31 10.6751 12.2917C10.9221 12.2977 11.1433 12.4169 11.2783 12.6114H11.2833L11.2956 12.6381C11.3031 12.6507 11.3447 12.7281 11.356 12.7526C11.485 13.0009 11.6005 13.2318 11.7049 13.4496C12.1265 14.322 12.4324 14.9526 13.4722 15.7083C14.2711 16.1472 15.1045 16.3439 16.1639 16.3439C16.7082 16.3439 17.2466 16.2948 17.817 16.2394C18.0086 16.2209 18.198 16.2026 18.3921 16.1878C18.3969 16.1815 18.4352 16.1815 18.4497 16.184C18.4463 16.2246 18.4362 16.2737 18.4362 16.2737C16.7145 16.415 15.1203 16.7089 13.4181 15.7823C12.0982 14.8198 11.9396 14.0518 11.2748 12.7895C11.2651 12.7611 11.2267 12.6935 11.2194 12.6812C11.2194 12.6812 11.2169 12.6812 11.2169 12.6787C11.104 12.5031 10.9061 12.3826 10.6824 12.3801C10.0861 12.4147 9.99896 12.9823 10.0053 12.9798C10.004 13.0009 10.0002 13.0192 10.0002 13.0415C10.0002 13.1359 10.0223 13.2318 10.0603 13.3143V13.318C10.0603 13.4187 10.9614 15.0816 11.5366 15.8093C12.5566 17.1094 13.8841 17.7302 15.5346 17.9331C15.8996 17.9268 17.2123 18.175 18.1486 18.277V18.3657C18.2373 20.0839 18.4412 24.3302 18.3182 24.4123C17.6965 24.9224 11.8695 32.3251 11.4799 32.9886C11.3953 33.1176 11.3437 33.2677 11.3437 33.4335C11.3437 33.8674 11.6964 34.2201 12.1291 34.2201C12.3008 34.2201 12.4547 34.1647 12.5837 34.0725H12.5875C13.4933 33.7076 18.6231 27.9397 19.9848 25.7643C20.0537 25.8172 20.4262 25.8505 20.4901 25.8134C20.1374 26.9788 19.8621 28.3182 19.8511 29.1564C19.8546 29.7624 19.9848 30.4533 20.442 30.8158C20.968 31.2865 26.1066 34.525 26.1066 34.525H26.1117C26.2271 34.5889 26.3587 34.6294 26.5012 34.6294C26.9388 34.6294 27.2865 34.2793 27.2865 33.8454C27.2865 33.5908 27.1638 33.3637 26.9769 33.2221Z" fill="#18191B"/>
<path d="M30 17C30.5523 17 31 16.5523 31 16C31 15.4477 30.5523 15 30 15C29.4477 15 29 15.4477 29 16C29 16.5523 29.4477 17 30 17Z" fill="#18191B"/>
<circle cx="16.25" cy="8.25" r="0.25" fill="#18191B"/>
<circle cx="16.25" cy="7.25" r="0.25" fill="#18191B"/>
<circle cx="15.25" cy="7.25" r="0.25" fill="#18191B"/>
<circle cx="15.25" cy="8.25" r="0.25" fill="#18191B"/>
<circle cx="14.25" cy="8.25" r="0.25" fill="#18191B"/>
<circle cx="14.25" cy="9.25" r="0.25" fill="#18191B"/>
<circle cx="15.25" cy="9.25" r="0.25" fill="#18191B"/>
</g>
<defs>
<clipPath id="clip0_770_786">
<rect width="40" height="40" fill="white"/>
</clipPath>
</defs>
</svg>
