<svg width="40" height="40" viewBox="0 0 40 40" fill="none" xmlns="http://www.w3.org/2000/svg">
<g clip-path="url(#clip0_770_518)">
<path d="M30 0.75H10C4.89137 0.75 0.75 4.89137 0.75 10V30C0.75 35.1086 4.89137 39.25 10 39.25H30C35.1086 39.25 39.25 35.1086 39.25 30V10C39.25 4.89137 35.1086 0.75 30 0.75Z" fill="white"/>
<path d="M21.2964 22.0604C21.5518 22.0604 21.7572 22.2657 21.7573 22.5194C21.7573 22.7725 21.551 22.9794 21.2964 22.9794C21.0416 22.9792 20.8354 22.772 20.8354 22.5194C20.8356 22.2661 21.0408 22.0606 21.2964 22.0604Z" fill="#18191B" stroke="#18191B"/>
<path d="M21.2949 24.0088H21.3262C21.3309 24.0095 21.3354 24.0102 21.3389 24.0107C21.3411 24.0111 21.3431 24.0115 21.3447 24.0117H21.3467L21.3691 24.0156L21.3818 24.0166C21.4278 24.026 21.452 24.0312 21.4707 24.0352C21.4789 24.0383 21.4964 24.0459 21.5303 24.0645L21.7129 24.1641L21.7295 24.3057C21.7342 24.346 21.7368 24.3699 21.7383 24.3916V24.457C21.7388 24.5147 21.7398 24.5987 21.7402 24.7051C21.7412 24.9181 21.7424 25.2201 21.7432 25.5811C21.7447 26.2582 21.745 27.1429 21.7461 28.0391C21.6625 27.9785 21.546 27.9169 21.3984 27.8975L21.2969 27.8916C21.0973 27.8916 20.9456 27.9672 20.8467 28.0391C20.8476 27.1429 20.8483 26.2583 20.8496 25.5811C20.8503 25.2201 20.8518 24.9181 20.8525 24.7051C20.8529 24.5987 20.8531 24.5149 20.8535 24.457C20.8537 24.428 20.8543 24.406 20.8545 24.3916V24.3896C20.8582 24.3566 20.8593 24.3414 20.8623 24.3213L20.8857 24.1621L21.0645 24.0635C21.0842 24.0526 21.0986 24.045 21.1094 24.04C21.1116 24.039 21.1135 24.0379 21.1152 24.0371C21.1355 24.0327 21.1612 24.0281 21.2178 24.0166L21.2217 24.0156H21.2236L21.2432 24.0117C21.2394 24.0124 21.2377 24.0127 21.2441 24.0117C21.2464 24.0114 21.2519 24.0105 21.2568 24.0098L21.2588 24.0088H21.292L21.293 24.0078L21.2949 24.0088Z" fill="#18191B" stroke="#18191B"/>
<path d="M21.1591 26.9394L11 15.9034Z" fill="#18191B"/>
<path d="M21.1591 26.9394L11 15.9034" stroke="#18191B" stroke-width="0.5" stroke-linecap="round"/>
<path d="M21.3037 27.343L25.6944 13Z" fill="#18191B"/>
<path d="M21.3037 27.343L25.6944 13" stroke="#18191B" stroke-width="0.5" stroke-linecap="round"/>
<path d="M12.9307 9.91016C14.602 8.24439 17.3472 7.04758 21.7412 7.66406C22.1701 7.72425 22.5385 7.81804 22.7715 7.88574L22.957 7.94238C23.0287 7.96602 23.1077 7.98969 23.1895 8.00879C25.0426 8.44221 26.2236 9.77213 26.8779 11.3838C27.5367 13.0065 27.635 14.8624 27.3457 16.209C27.3274 16.294 27.2965 16.3273 27.2803 16.3408C27.2619 16.3561 27.2295 16.3733 27.1748 16.376C27.0571 16.3816 26.8725 16.3166 26.7314 16.1357C25.4251 14.4583 23.0402 12.494 19.7979 12.793L19.7646 12.7959L19.7314 12.8037C15.4804 13.7837 13.5439 16.561 12.8223 18.8369C12.7457 19.0784 12.5452 19.2707 12.335 19.3457C12.1399 19.4151 12.0013 19.3723 11.9062 19.25C10.6864 17.6811 10.4531 16.0641 10.5068 15.3701L10.5078 15.3564C10.585 13.8274 11.2381 11.5973 12.9307 9.91016Z" fill="#18191B" stroke="#18191B"/>
</g>
<defs>
<clipPath id="clip0_770_518">
<rect width="40" height="40" fill="white"/>
</clipPath>
</defs>
</svg>
