<svg width="40" height="40" viewBox="0 0 40 40" fill="none" xmlns="http://www.w3.org/2000/svg">
<g clip-path="url(#clip0_770_525)">
<path d="M30 0.75H10C4.89137 0.75 0.75 4.89137 0.75 10V30C0.75 35.1086 4.89137 39.25 10 39.25H30C35.1086 39.25 39.25 35.1086 39.25 30V10C39.25 4.89137 35.1086 0.75 30 0.75Z" fill="white"/>
<path d="M31.2109 10.5088L31.2129 10.5098C31.8685 10.5898 32.3357 11.1895 32.2559 11.8457C32.1748 12.5039 31.5761 12.9723 30.9189 12.8906C30.3038 12.8139 29.8547 12.2838 29.8672 11.6758L29.876 11.5537C29.9563 10.8976 30.5554 10.4275 31.2109 10.5088Z" fill="#18191B" stroke="#18191B"/>
<path d="M30.7085 13.9758C31.3313 14.0008 32.0993 14.2605 32.5044 14.5451L32.5063 14.5471C32.7886 14.7429 32.9538 15.0243 33.0483 15.3137C33.1394 15.5925 33.1555 15.8532 33.1538 15.9836C33.1518 16.007 33.143 16.0844 33.1196 16.175C33.0934 16.2767 33.0632 16.3423 33.0464 16.3664C32.9097 16.5607 32.7016 16.824 32.5005 17.0461C32.3994 17.1577 32.3059 17.2524 32.23 17.3195C32.1366 17.4021 32.1201 17.3976 32.1636 17.383L32.1548 17.3859L32.147 17.3889C31.6747 17.5657 31.302 17.5109 31.0083 17.3664C30.6991 17.2142 30.4473 16.9465 30.2778 16.6682C30.027 16.256 29.7092 15.6385 29.4536 15.09C29.4029 14.9813 29.3548 14.8765 29.311 14.7775C29.4697 15.1222 29.6962 15.5768 29.9556 15.9865C30.1395 16.277 30.3573 16.5724 30.5972 16.7902C30.8074 16.981 31.135 17.1984 31.5298 17.1486C31.7175 17.1392 31.8663 17.0466 31.9351 17.0002C32.0292 16.9366 32.123 16.8559 32.2085 16.7756C32.3804 16.6142 32.5748 16.403 32.7583 16.2014L33.1255 15.798L32.6929 15.467L32.6372 15.425L32.271 15.1437L31.9614 15.4875C31.8371 15.6255 31.6724 15.8055 31.5249 15.9494C31.4761 15.9971 31.4314 16.0341 31.396 16.0646C31.3896 16.0602 31.3819 16.0565 31.3745 16.051C31.3274 16.0153 31.2703 15.9615 31.2046 15.8879C31.0723 15.7397 30.931 15.5386 30.7915 15.3088C30.5781 14.9571 30.3879 14.5711 30.2544 14.2785C30.2788 14.2427 30.306 14.2062 30.3364 14.1711C30.4519 14.0381 30.5693 13.9702 30.7085 13.9758Z" fill="#18191B" stroke="#18191B"/>
<path d="M25.7378 12.8316C25.7704 12.926 25.8134 13.0518 25.8569 13.1783C25.9004 13.3046 25.9447 13.4315 25.978 13.5279C25.9947 13.576 26.0086 13.6174 26.019 13.647C26.0241 13.6615 26.0291 13.6742 26.0327 13.6841C26.0338 13.6873 26.0353 13.6912 26.0366 13.6949V13.6959C26.192 14.1336 26.4203 14.7016 26.6958 15.1617C26.8325 15.39 26.9963 15.6183 27.189 15.7906C27.378 15.9596 27.6557 16.1273 27.9995 16.0943C28.1345 16.0869 28.2465 16.0418 28.3042 16.0152C28.397 15.9724 28.4914 15.915 28.5786 15.857C28.5973 15.8446 28.615 15.8293 28.6343 15.816L28.7886 16.1529C28.7932 16.1633 28.7973 16.1729 28.8013 16.1812V16.1832C28.7525 16.2246 28.7081 16.2638 28.6655 16.2964C28.6079 16.3407 28.5639 16.3709 28.5327 16.3892C28.5246 16.394 28.5183 16.3969 28.5142 16.399C28.0277 16.5238 27.6642 16.4305 27.3872 16.2564C27.0954 16.073 26.8728 15.782 26.7339 15.4898C26.4217 14.8279 25.9172 13.4638 25.7358 12.8267C25.7364 12.8283 25.7372 12.83 25.7378 12.8316Z" fill="#18191B" stroke="#18191B"/>
<path d="M29.6807 17.6505C29.9525 17.9639 30.3607 18.3107 30.9316 18.4747C31.306 18.5822 31.6899 18.5896 32.0732 18.5128C31.9846 18.6757 31.8976 18.8335 31.8135 18.9816L29.5986 18.0431C29.6153 17.9459 29.6411 17.8181 29.6807 17.6505Z" fill="#18191B" stroke="#18191B"/>
<path d="M20.6138 15.3075C20.619 15.3075 20.6237 15.3082 20.6284 15.3094C20.6334 15.3108 20.6398 15.3133 20.647 15.3173L21.1274 15.58L21.1362 15.5594C21.3579 15.6728 21.6473 15.8221 21.9839 15.996C22.7391 16.386 23.728 16.8985 24.7124 17.4081C25.6962 17.9174 26.6761 18.423 27.4106 18.7987C27.7774 18.9863 28.0844 19.143 28.3013 19.2509C28.4091 19.3045 28.4987 19.3472 28.562 19.3768C28.5924 19.3911 28.6233 19.4059 28.6499 19.4169C28.6603 19.4211 28.6825 19.4293 28.7085 19.4374L31.1079 20.453C30.9707 21.1528 30.9821 21.9763 31.0688 22.8065C31.1731 23.8044 31.3899 24.8649 31.6294 25.829C31.8693 26.7945 32.1348 27.6734 32.3394 28.3114C32.4418 28.6308 32.5286 28.8909 32.5903 29.0712C32.6073 29.1206 32.6225 29.1641 32.6353 29.201L32.6333 29.2108L32.6919 29.3651V29.3661C32.6923 29.3671 32.6931 29.3689 32.6938 29.371C32.6955 29.3755 32.6974 29.3818 32.6997 29.3885C32.7006 29.3911 32.702 29.3934 32.7026 29.3954C32.7088 29.438 32.6812 29.4858 32.6313 29.4979C32.6071 29.503 32.5818 29.497 32.5601 29.4813C32.5594 29.4797 32.5587 29.4781 32.5581 29.4764C32.5357 29.4176 32.5032 29.3306 32.4614 29.2196C32.378 28.9979 32.2594 28.6814 32.1167 28.3007C31.8312 27.539 31.4499 26.5209 31.063 25.495C30.6761 24.4693 30.2831 23.4338 29.9751 22.6376C29.8212 22.2398 29.6877 21.8994 29.5864 21.6493C29.536 21.5247 29.4923 21.4195 29.4575 21.3397C29.4403 21.3001 29.4236 21.2634 29.4087 21.2323C29.3989 21.2118 29.3759 21.1668 29.3472 21.1239C29.3525 21.1319 29.3578 21.1372 29.3599 21.1405C29.3648 21.1487 29.3687 21.1555 29.3706 21.1591C29.3744 21.166 29.3763 21.1714 29.3765 21.1718C29.3769 21.1727 29.3766 21.1715 29.3735 21.1649C29.3682 21.1535 29.358 21.1317 29.3462 21.1073C29.3222 21.0577 29.2868 20.987 29.2427 20.912C29.1997 20.8388 29.141 20.7497 29.0688 20.6669C29.0191 20.6097 28.9437 20.5326 28.8413 20.4716L28.731 20.4178C28.4896 20.3235 27.871 19.9813 27.0308 19.4852C26.2087 18.9999 25.2178 18.3932 24.2593 17.7987C23.3012 17.2045 22.3777 16.6236 21.6919 16.1903C21.3492 15.9738 21.0662 15.7938 20.8677 15.6678C20.7686 15.605 20.69 15.5555 20.6362 15.5214C20.6094 15.5043 20.5875 15.4906 20.5728 15.4813C20.5688 15.4789 20.5653 15.4765 20.562 15.4745C20.5352 15.4555 20.521 15.4276 20.521 15.3983C20.5212 15.3504 20.5619 15.3076 20.6138 15.3075Z" fill="#18191B" stroke="#18191B"/>
<path d="M15.0815 11.4968C15.5513 10.9 16.4216 10.7981 17.0171 11.2702L17.019 11.2712C17.6163 11.741 17.7191 12.6078 17.2485 13.2087C16.777 13.8063 15.9099 13.9079 15.314 13.4352L15.311 13.4333L15.2046 13.3405C14.7025 12.8578 14.6388 12.0605 15.0815 11.4968Z" fill="#18191B" stroke="#18191B"/>
<path d="M14.0005 14.3107C14.2608 14.2766 14.5156 14.3046 14.7085 14.381V14.382C14.957 14.4842 15.1994 14.7274 15.3462 15.0441C15.4919 15.3584 15.5092 15.6696 15.4194 15.8956L15.314 16.1202L15.2144 16.3302L15.311 16.5421C15.8473 17.7146 16.7768 18.1558 17.6216 18.2706C18.4368 18.3814 19.1829 18.1919 19.4458 18.1261V18.1271L19.4595 18.1232C19.8347 18.0179 20.3307 17.8026 20.4702 17.7404L20.4712 17.7413C20.4741 17.7402 20.4786 17.7395 20.4849 17.7394C20.4894 17.7393 20.4953 17.74 20.5024 17.7413L20.5132 17.7462C20.5147 17.7471 20.5174 17.7479 20.521 17.7501H20.52C20.5269 17.7561 20.5304 17.76 20.5317 17.7618C20.5328 17.7633 20.5333 17.7646 20.5337 17.7657L20.5366 17.7726C20.5451 17.7934 20.537 17.8191 20.5151 17.8312V17.8322C20.486 17.848 20.4592 17.8659 20.4351 17.8859C20.295 18.0002 20.0569 18.1256 19.7651 18.2384C19.4802 18.3486 19.1797 18.4328 18.9409 18.4777L18.9272 18.4806L18.9146 18.4835C17.3208 18.8747 16.1953 18.2283 15.4458 17.4454L14.9419 16.9181L14.6323 17.5782L13.9419 19.0509L13.6841 19.5997L14.272 19.7482C15.4555 20.0468 16.584 20.5798 17.5532 21.3116C17.7846 21.487 18.0294 21.6991 18.2212 21.9288C18.4159 22.1621 18.5218 22.3739 18.5435 22.5538V22.5548C18.5675 22.7777 18.531 23.1368 18.4331 23.5968C18.3378 24.0445 18.1947 24.5445 18.0376 25.0265C17.8809 25.5073 17.7123 25.9637 17.5688 26.3234C17.4196 26.6976 17.3112 26.9326 17.2739 26.9952L17.2524 27.0304L17.2378 27.0685C17.231 27.0858 17.2197 27.1023 17.2085 27.1134L17.1968 27.1251C17.1913 27.1309 17.18 27.1406 17.1597 27.1486L17.1577 27.1495C17.0831 27.179 16.9987 27.1454 16.9634 27.0734C16.961 27.0549 16.9594 27.0302 16.9585 27.0021V26.9132C16.9874 26.668 17.0716 26.3032 17.186 25.8605C17.2435 25.638 17.3067 25.4032 17.3716 25.1632C17.4362 24.9242 17.5021 24.6795 17.564 24.4415C17.6865 23.9705 17.7991 23.5019 17.8521 23.1271C17.8781 22.9423 17.894 22.7525 17.8804 22.5851C17.8701 22.4595 17.8316 22.168 17.5806 21.9923H17.5815C17.58 21.9912 17.5782 21.9905 17.5767 21.9894C17.5743 21.9878 17.5722 21.9851 17.5698 21.9835L17.5688 21.9845C17.4241 21.8848 17.1904 21.7775 16.9644 21.6818C16.7131 21.5754 16.4076 21.4562 16.0981 21.3361C15.6223 21.1514 15.1447 20.9684 14.7896 20.8165L14.48 20.6759C14.2061 20.5201 13.9831 20.425 13.7515 20.2609L13.48 20.0685L13.1968 20.2443C13.1426 20.2781 13.0975 20.3024 13.0552 20.3204L12.6548 20.4913L12.769 20.9122C12.7848 20.9698 12.7995 21.025 12.813 21.0792C12.8255 21.1294 12.8384 21.184 12.8511 21.2316V21.2325C13.2578 22.7983 13.1387 24.4501 12.6753 25.9318C12.5069 26.4603 12.3275 27.055 12.1235 27.6232C11.9182 28.1952 11.702 28.6979 11.4751 29.0441L11.4604 29.0675L11.4478 29.0909C11.434 29.1179 11.4184 29.1347 11.4058 29.1447C11.4012 29.1481 11.3966 29.1517 11.3921 29.1554C11.3744 29.1697 11.3687 29.1715 11.3726 29.17L11.3696 29.171C11.2938 29.2008 11.2129 29.1665 11.1772 29.0997L11.1636 29.0685V29.048L11.1606 29.0284C11.1607 29.0277 11.1604 29.0225 11.1616 29.0109L11.1636 28.9962C11.1638 28.9953 11.1642 28.9943 11.1646 28.9933L11.1724 28.9689L11.1782 28.9445C11.3329 28.2611 12.1723 24.5928 12.2671 24.0704L12.27 24.0548L12.271 24.0392C12.2879 23.8941 12.3448 23.6677 12.3159 23.2013C12.2951 22.8647 12.2311 22.3934 12.0874 21.6798L11.9155 20.881C11.8995 20.7932 11.869 20.6492 11.8403 20.5118C11.8047 20.3413 11.7643 20.1386 11.7329 19.9298C11.7012 19.7191 11.6797 19.5123 11.6782 19.3341C11.6767 19.145 11.6985 19.0368 11.7173 18.9923L11.7251 18.9728L11.7319 18.9532L12.7388 15.8595L12.9585 15.1847L12.2495 15.2042C12.2085 15.2054 12.1679 15.2104 12.1265 15.2169C9.79967 15.4752 6.95417 15.1989 6.63916 15.1671L6.62061 15.1652L6.60205 15.1642L6.56982 15.1505C6.56628 15.1455 6.56143 15.139 6.55908 15.1281L6.55811 15.1183L6.55908 15.0929C6.56044 15.088 6.56262 15.0842 6.56592 15.0802C6.56928 15.0769 6.57439 15.0727 6.58154 15.0695C6.58676 15.0671 6.59247 15.0657 6.59814 15.0646C6.60066 15.0647 6.60324 15.0654 6.60596 15.0656C6.63976 15.0677 6.68926 15.0707 6.75244 15.0743C6.87921 15.0817 7.06191 15.0914 7.28467 15.1017C7.72976 15.1223 8.33848 15.1449 8.9917 15.1515C9.64385 15.1581 10.3476 15.1495 10.979 15.1066C11.5751 15.066 12.1538 14.9899 12.5669 14.8497L12.5679 14.8507C12.8034 14.7884 13.0781 14.7013 13.3608 14.5909L13.3687 14.587C13.408 14.5709 13.4465 14.5541 13.4751 14.5411C13.5069 14.5268 13.5293 14.5161 13.5493 14.5079L13.6245 14.4777L13.687 14.424C13.6999 14.4128 13.7196 14.3966 13.7612 14.3781C13.8049 14.3586 13.879 14.3339 14.0005 14.3107Z" fill="#18191B" stroke="#18191B"/>
</g>
<defs>
<clipPath id="clip0_770_525">
<rect width="40" height="40" fill="white"/>
</clipPath>
</defs>
</svg>
