<svg width="40" height="40" viewBox="0 0 40 40" fill="none" xmlns="http://www.w3.org/2000/svg">
<g clip-path="url(#clip0_770_807)">
<path d="M30.3896 0H9.61039C4.30272 0 0 4.30272 0 9.61039V30.3896C0 35.6973 4.30272 40 9.61039 40H30.3896C35.6973 40 40 35.6973 40 30.3896V9.61039C40 4.30272 35.6973 0 30.3896 0Z" fill="white"/>
<path d="M21.6156 8C22.6979 8 23.5784 8.87734 23.5784 9.96404C23.5784 11.0487 22.6979 11.9292 21.6156 11.9292C20.53 11.9292 19.6504 11.0487 19.6504 9.96404C19.6504 8.87734 20.53 8 21.6156 8Z" fill="#18191B"/>
<path d="M25.8997 17.079C25.9568 15.8013 25.9615 14.9229 25.473 13.5366C26.1583 13.493 26.7966 13.4587 26.9419 13.5992C27.8602 14.1849 26.459 17.5938 26.4338 17.6339C26.4338 17.6339 26.4306 17.6394 26.4306 17.643C26.37 17.7402 26.3366 17.8489 26.339 17.9713C26.346 18.3122 26.6274 18.5833 26.9682 18.5774C27.1431 18.5753 27.3009 18.4975 27.4095 18.3774C27.6283 18.1633 28.375 15.9981 28.652 14.7717C28.867 13.8168 28.7091 12.4554 27.245 11.8174C26.8262 11.6171 24.7913 11.9488 24.1875 12.0264C23.4587 11.863 22.2039 12.063 21.3482 12.2633C20.9708 12.3491 20.7684 12.5243 20.6653 12.7152C20.1643 13.3214 19.287 15.5612 18.9107 15.6801C17.9648 16.2154 15.6105 13.3821 15.5888 13.3422C15.5888 13.3387 15.5864 13.3328 15.582 13.3307C15.5247 13.2332 15.4435 13.1533 15.3349 13.0985C15.3235 13.0926 15.3553 13.1093 15.303 13.0847C15.288 13.0206 15.0716 13.0539 15.0547 13C15.0122 13.183 15.0547 13.0985 15.0547 13.0985C15.0547 13.0985 15.2059 13.0927 15.0547 13C15.0351 13.0574 14.8134 13.0206 14.7996 13.0903C14.6749 13.1477 14.5697 13.2392 14.5056 13.3674C14.4257 13.5253 14.421 13.6988 14.4737 13.8534C14.5607 14.1451 16.1197 15.8242 17.0737 16.6421C17.8137 17.2769 19.0925 17.7791 20.3406 16.7873C20.5303 16.6479 20.7936 16.0816 21.0337 15.481C21.0337 15.481 21.4615 17.2336 21.497 17.8283C21.5277 18.3888 21.5107 18.9698 21.4683 19.5133H25.7123C25.7981 18.4254 25.8953 17.1706 25.8997 17.079Z" fill="#18191B"/>
<path d="M25.6492 20.2761H21.3917C21.2795 21.157 21.1284 21.8009 21.0769 21.8296C20.917 22.381 19.2593 25.1972 19.0833 26.476C18.9026 27.7744 19.2801 32.0787 19.264 32.2445C19.264 32.2445 19.2663 32.2503 19.2663 32.2559C19.2663 32.4755 19.3659 32.6908 19.5556 32.836C19.876 33.0796 20.3357 33.0132 20.5794 32.6908C20.6994 32.5306 20.7419 32.335 20.719 32.1496L20.7167 32.1473C20.71 32.1016 20.4101 29.7302 20.9832 27.008C21.3322 25.3377 22.469 23.5248 22.5674 23.3796C22.6327 23.4367 22.9999 23.5134 23.0684 23.4847C22.5721 24.6036 22.1352 25.9017 22.023 26.7369C21.9522 27.3375 21.9955 28.0432 22.4061 28.4584C22.8752 28.9902 27.5924 32.8416 27.5924 32.8416L27.5936 32.8395C27.7022 32.9195 27.8317 32.9766 27.9746 32.9938C28.4059 33.0477 28.7983 32.7423 28.8507 32.3098C28.8841 32.0547 28.7869 31.8158 28.6164 31.6497C28.6141 31.6497 28.6141 31.6462 28.6141 31.6462C28.6141 31.6462 24.797 27.6977 23.9229 27.2517C24.4251 26.5905 25.537 21.4887 25.5839 21.1089C25.5839 21.1089 25.6126 20.7622 25.6492 20.2761Z" fill="#18191B"/>
<path d="M5 20.1938H34.1608V19.5932H5V20.1938Z" fill="#18191B"/>
<path d="M14.2502 13C13.8335 10.5 13.8335 10.9167 13.8335 10.5H15.5002L15.0835 13L14.6668 14L14.2502 13Z" fill="#18191B"/>
<path d="M13 8.83333C13 8.3731 13.3731 8 13.8333 8H15.5C15.9602 8 16.3333 8.3731 16.3333 8.83333V10.8183C16.3333 11.1339 16.155 11.4225 15.8727 11.5637L15.0393 11.9803C14.8047 12.0976 14.5286 12.0976 14.294 11.9803L13.4607 11.5637C13.1783 11.4225 13 11.1339 13 10.8183V8.83333Z" fill="#18191B"/>
<path d="M10 17C10.5523 17 11 16.5523 11 16C11 15.4477 10.5523 15 10 15C9.44772 15 9 15.4477 9 16C9 16.5523 9.44772 17 10 17Z" fill="#18191B"/>
</g>
<defs>
<clipPath id="clip0_770_807">
<rect width="40" height="40" fill="white"/>
</clipPath>
</defs>
</svg>
