<svg width="40" height="40" viewBox="0 0 40 40" fill="none" xmlns="http://www.w3.org/2000/svg">
<g clip-path="url(#clip0_770_534)">
<path d="M30 0.75H10C4.89137 0.75 0.75 4.89137 0.75 10V30C0.75 35.1086 4.89137 39.25 10 39.25H30C35.1086 39.25 39.25 35.1086 39.25 30V10C39.25 4.89137 35.1086 0.75 30 0.75Z" fill="white"/>
<path d="M8.50195 17.2881C8.50206 17.2645 8.51884 17.2502 8.53711 17.25C8.54877 17.25 8.55952 17.2538 8.56641 17.2607L8.57715 17.2881H9.57715C9.57725 17.2647 9.59448 17.25 9.61328 17.25C9.6383 17.2501 9.65322 17.2679 9.65332 17.2881V23.0107C9.65307 23.0295 9.63706 23.0477 9.61328 23.0479C9.60438 23.0479 9.59548 23.0457 9.58789 23.0381L9.57715 23.0107H8.57715C8.5769 23.0304 8.55911 23.0479 8.53711 23.0479C8.52842 23.0477 8.52006 23.0455 8.5127 23.0381C8.50516 23.0305 8.50206 23.021 8.50195 23.0107V17.2881ZM30.4131 17.2881C30.4131 17.2754 30.4177 17.267 30.4238 17.2607C30.43 17.2545 30.4382 17.25 30.4502 17.25C30.4719 17.25 30.4882 17.2667 30.4883 17.2881H31.4883C31.4884 17.2661 31.5044 17.2502 31.5264 17.25C31.5481 17.25 31.5653 17.2667 31.5654 17.2881V23.0107C31.5653 23.0201 31.5616 23.0292 31.5537 23.0371C31.5458 23.045 31.5363 23.0479 31.5264 23.0479C31.5161 23.0477 31.5068 23.0438 31.5 23.0371L31.4883 23.0107H30.4883C30.4882 23.02 30.4854 23.0292 30.4775 23.0371C30.4696 23.045 30.4602 23.0479 30.4502 23.0479C30.4307 23.0478 30.4133 23.0328 30.4131 23.0107V17.2881Z" fill="#18191B" stroke="#18191B"/>
<path d="M20.2334 7.5C21.2397 7.50008 22.0557 8.3114 22.0557 9.31836C22.0556 10.3219 21.2388 11.1376 20.2334 11.1377C19.2276 11.1377 18.4102 10.3217 18.4102 9.31836C18.4102 8.31163 19.2267 7.5 20.2334 7.5Z" fill="#18191B" stroke="#18191B"/>
<path d="M20.2329 12.2604C21.282 12.2604 22.1323 13.1107 22.1323 14.1598V21.0026C22.1323 22.0516 21.2819 22.902 20.2329 22.902C19.1839 22.9019 18.3335 22.0516 18.3335 21.0026V14.1598C18.3335 13.1108 19.1839 12.2604 20.2329 12.2604Z" fill="#18191B" stroke="#18191B"/>
<path d="M19.2437 21.5034L19.0298 32.1597C19.026 32.349 18.8715 32.5003 18.6821 32.5005C18.4899 32.5005 18.3336 32.345 18.3335 32.1528V21.5034H19.2437Z" fill="#18191B" stroke="#18191B"/>
<path d="M22.1328 21.5034V32.1528C22.1327 32.345 21.9764 32.5005 21.7842 32.5005C21.5946 32.5004 21.4403 32.3491 21.4365 32.1597L21.2227 21.5034H22.1328Z" fill="#18191B" stroke="#18191B"/>
<path d="M19.7925 23.1831C19.6075 23.2826 19.4707 23.4283 19.3813 23.5474L19.3511 23.5776L19.3315 23.5493L19.4233 23.1831H19.7925ZM20.7456 23.1831L20.8862 23.3228C20.825 23.2681 20.7582 23.2223 20.687 23.1831H20.7456Z" fill="#18191B" stroke="#18191B"/>
<path d="M22.7837 13.9379C23.7704 14.658 24.8338 15.7589 25.7524 16.8246C26.8898 18.144 27.7507 19.3453 27.8843 19.5326L27.895 19.5472L27.9058 19.5599C27.9318 19.5917 27.939 19.6191 27.939 19.6429C27.9389 19.6638 27.9314 19.6886 27.9097 19.7191L27.9048 19.726C27.878 19.7571 27.8437 19.7728 27.8071 19.7728C27.7866 19.7728 27.7706 19.768 27.7573 19.7621C27.7438 19.7561 27.7294 19.7465 27.7153 19.7318C27.713 19.7288 27.711 19.7254 27.7085 19.722C27.6848 19.6914 27.6496 19.6465 27.605 19.5892C27.5158 19.4748 27.387 19.3109 27.228 19.1117C26.91 18.7133 26.4698 18.1725 25.9829 17.6058C25.4968 17.0401 24.9596 16.4433 24.4478 15.934C23.9591 15.4476 23.4597 15.0074 23.0337 14.764H23.0347C22.9571 14.713 22.8728 14.6599 22.7837 14.6049V13.9379Z" fill="#18191B" stroke="#18191B"/>
<path d="M18.4165 14.3203C18.0626 14.4496 17.7037 14.5977 17.4692 14.7441C17.0361 14.9831 16.5234 15.4345 16.022 15.9335C15.5102 16.4429 14.9729 17.0397 14.4868 17.6054C14 18.1721 13.5597 18.7128 13.2417 19.1113C13.0828 19.3104 12.9539 19.4743 12.8647 19.5888C12.8203 19.6458 12.7859 19.6909 12.7622 19.7216C12.7595 19.7251 12.7558 19.7283 12.7534 19.7314C12.7268 19.7589 12.6982 19.7724 12.6626 19.7724C12.6259 19.7724 12.5915 19.7574 12.5649 19.7265L12.561 19.7216C12.5379 19.6899 12.5308 19.6637 12.5308 19.6425C12.5308 19.6189 12.5386 19.5916 12.5649 19.5595L12.5757 19.5468L12.5854 19.5331C12.7189 19.3462 13.5877 18.1334 14.7339 16.8056C15.8826 15.4749 17.2537 14.0958 18.4165 13.4716V14.3203Z" fill="#18191B" stroke="#18191B"/>
</g>
<defs>
<clipPath id="clip0_770_534">
<rect width="40" height="40" fill="white"/>
</clipPath>
</defs>
</svg>
