<svg width="40" height="40" viewBox="0 0 40 40" fill="none" xmlns="http://www.w3.org/2000/svg">
<g clip-path="url(#clip0_770_544)">
<path d="M30 0.75H10C4.89137 0.75 0.75 4.89137 0.75 10V30C0.75 35.1086 4.89137 39.25 10 39.25H30C35.1086 39.25 39.25 35.1086 39.25 30V10C39.25 4.89137 35.1086 0.75 30 0.75Z" fill="white"/>
<path d="M31.8225 18.987H29.8445C29.7463 18.987 29.666 19.0674 29.6659 19.1657V20.5331C29.6659 20.6312 29.7456 20.7108 29.8436 20.7108H29.9234C30.0214 20.7108 30.1011 20.7904 30.1011 20.8885V24.6447C30.1011 24.7427 30.0214 24.8224 29.9234 24.8224L29.2108 24.8222C29.1125 24.8222 29.033 24.7427 29.033 24.6447V15.8642C29.033 15.7661 29.1125 15.6865 29.2108 15.6865H30.1875C30.2856 15.6865 30.3653 15.7661 30.3653 15.8642V16.8765C30.3653 16.9748 30.4448 17.0543 30.5431 17.0543H31.8088C31.9068 17.0543 32.0002 16.9748 32.0002 16.8765V14.6367C32.0002 14.2872 31.7169 14.0038 31.3674 14.0038H28.071C27.4884 14.0038 27.0161 14.4762 27.0161 15.0587V25.4617C27.0161 26.0733 27.512 26.5692 28.1237 26.5692H30.7415C31.4365 26.5692 32.0001 25.9789 32.0001 25.2507V19.1646C32.0001 19.0664 31.9207 18.987 31.8225 18.987Z" fill="#18191B"/>
<path d="M23.9633 24.6008C23.9633 24.7209 23.8658 24.8184 23.7457 24.8184H23.2072C23.0871 24.8184 22.9897 24.7209 22.9897 24.6008V21.1111C22.9897 20.991 23.0871 20.8935 23.2072 20.8935H23.7457C23.8659 20.8935 23.9633 20.991 23.9633 21.1111V24.6008ZM22.9897 15.9C22.9897 15.7798 23.0871 15.6825 23.2074 15.6825H23.7277C23.8479 15.6825 23.9452 15.7798 23.9452 15.9V18.8257C23.9452 18.9459 23.8479 19.0432 23.7276 19.0432H23.2074C23.0871 19.0432 22.9897 18.9459 22.9897 18.8257V15.9ZM25.9502 20.7318C25.9441 20.7044 25.9371 20.6774 25.9285 20.6505C25.829 20.3323 25.5761 20.1362 25.3619 19.8981C25.3197 19.8511 25.2785 19.8033 25.2373 19.7557C25.2424 19.7615 25.3124 19.7323 25.3212 19.729C25.3498 19.7183 25.3777 19.7059 25.4048 19.6922C25.5799 19.6027 25.723 19.4261 25.7774 19.2373C25.7811 19.2246 25.7844 19.2119 25.7871 19.1991C25.8104 19.0901 25.8052 18.9737 25.8079 18.8629C25.8089 18.8195 25.81 18.776 25.8109 18.7327C25.8128 18.6301 25.8145 18.5276 25.8158 18.4251C25.8172 18.3055 25.8183 18.1861 25.8193 18.0665C25.8204 17.9343 25.8212 17.8022 25.8219 17.6701C25.8226 17.53 25.8231 17.3899 25.8235 17.2497C25.824 17.1062 25.8242 16.9626 25.8244 16.819C25.8245 16.6766 25.8245 16.5341 25.8245 16.3915L25.8242 15.981C25.8241 15.8543 25.8238 15.7277 25.8235 15.601C25.8231 15.4891 25.8228 15.3772 25.8226 15.2654C25.8224 15.1726 25.8221 15.0801 25.8217 14.9874C25.8215 14.9186 25.8213 14.8497 25.821 14.7811C25.8208 14.7406 25.8206 14.7002 25.8203 14.6598C25.8203 14.6509 25.8202 14.6419 25.8202 14.633C25.8202 14.2834 25.5367 14 25.1873 14H21.308C21.1879 14 21.0905 14.0974 21.0905 14.2175V18.7457C21.0905 18.8658 20.993 18.9632 20.8728 18.9632C20.7527 18.9632 20.6553 19.0606 20.6553 19.1808V20.4893C20.6553 20.6094 20.7527 20.7068 20.8728 20.7068C20.993 20.7068 21.0905 20.8041 21.0905 20.9244V26.3477C21.0905 26.4679 21.2015 26.5654 21.3217 26.5654H24.6637C25.3881 26.5654 25.9758 25.9812 25.982 25.2582C25.982 25.2582 25.9802 21.8 25.984 21.2226C25.9851 21.0584 25.9859 20.8913 25.9502 20.7318Z" fill="#18191B"/>
<path d="M19.9035 14.2567C19.9035 14.115 19.7888 14.0003 19.647 14.0003H18.1432C18.0015 14.0002 17.8868 14.115 17.8868 14.2567V23.9462L17.8867 24.555C17.8867 24.7 17.768 24.8186 17.623 24.8186H16.8865C16.7415 24.8186 16.6228 24.6999 16.6228 24.555V23.9462L16.6227 14.2567C16.6227 14.115 16.508 14.0002 16.3664 14.0003H14.8625C14.7207 14.0003 14.606 14.115 14.606 14.2567C14.606 14.2567 14.6061 24.6289 14.6061 24.8983C14.6061 25.2412 14.6019 25.587 14.7767 25.8959C14.8457 26.0176 14.9333 26.1274 15.0358 26.2212C15.0609 26.2439 15.087 26.2656 15.1137 26.2866C15.1329 26.3015 15.1524 26.316 15.1725 26.3299C15.1836 26.3377 15.1951 26.3454 15.2065 26.3528C15.3422 26.441 15.4949 26.5054 15.6589 26.539C15.7446 26.5565 15.8336 26.5658 15.9246 26.5658H18.5848C18.6758 26.5658 18.7648 26.5565 18.8505 26.539C19.0145 26.5054 19.1673 26.441 19.3029 26.3528C19.3143 26.3454 19.3258 26.3377 19.3369 26.3299C19.3569 26.316 19.3765 26.3015 19.3957 26.2866C19.4224 26.2656 19.4484 26.2439 19.4736 26.2212C19.5762 26.1274 19.6636 26.0176 19.7327 25.8959C19.9076 25.587 19.9034 25.2412 19.9034 24.8983L19.9035 14.2567Z" fill="#18191B"/>
<path d="M11.4062 19.444C11.4062 19.5579 11.3138 19.6502 11.1999 19.6502H10.6581C10.5442 19.6502 10.4519 19.5579 10.4519 19.444V15.9538C10.4519 15.8398 10.5442 15.7474 10.6581 15.7474H11.1999C11.3138 15.7474 11.4062 15.8398 11.4062 15.9538V19.444ZM13.4142 14.7387C13.4143 14.331 13.0837 14.0003 12.6759 14.0003H8.64131C8.52737 14.0003 8.435 14.0927 8.435 14.2067V19.444C8.435 19.5579 8.34275 19.6502 8.22875 19.6502H8.20619C8.09238 19.6502 8 19.7425 8 19.8565V21.2942C8 21.4082 8.09225 21.5004 8.20607 21.5004H8.22875C8.34276 21.5004 8.435 21.5928 8.435 21.7068V26.0557C8.435 26.347 8.67105 26.5831 8.96244 26.5831H9.92432C10.2156 26.5831 10.4518 26.347 10.4518 26.0557V21.6059C10.4518 21.5477 10.499 21.5003 10.5572 21.5003H11.8246C12.2517 21.5003 12.7467 21.5663 13.1133 21.2473C13.3387 21.0511 13.402 20.7471 13.4171 20.4573C13.4171 20.116 13.4142 14.7387 13.4142 14.7387Z" fill="#18191B"/>
</g>
<defs>
<clipPath id="clip0_770_544">
<rect width="40" height="40" fill="white"/>
</clipPath>
</defs>
</svg>
