<svg width="40" height="40" viewBox="0 0 40 40" fill="none" xmlns="http://www.w3.org/2000/svg">
<g clip-path="url(#clip0_770_550)">
<path d="M30 0.75H10C4.89137 0.75 0.75 4.89137 0.75 10V30C0.75 35.1086 4.89137 39.25 10 39.25H30C35.1086 39.25 39.25 35.1086 39.25 30V10C39.25 4.89137 35.1086 0.75 30 0.75Z" fill="white"/>
<path fill-rule="evenodd" clip-rule="evenodd" d="M14.0018 29.0421V12.0742C14.4628 7.55636 20.169 8.00906 20.2473 8.01527C26.328 7.77196 26.3414 12.0742 26.3414 12.0742V15.2902H21.1662L21.1938 12.7565C20.1051 11.7757 19.2597 12.7289 19.2597 12.7289L19.2873 16.9784C19.4228 16.1331 22.0643 16.1882 22.0643 16.1882C25.9049 16.1882 26.3414 18.3933 26.3414 18.3933V29.1775C25.6315 33.6428 19.9947 32.963 19.9947 32.963C13.7284 33.1009 14.0018 29.0421 14.0018 29.0421ZM18.0606 29.8599V22.0708L18.0556 21.963H17.9051V21.6469H18.0531V21.3609H18.3591V21.2254H19.7213C20.07 22.2389 21.7206 21.3358 21.7206 21.3358C23.1655 20.3474 23.7877 21.2329 23.7877 21.2329V23.1696C22.1144 23.1696 21.2114 23.6336 21.2114 23.6336V25.7508C20.1728 25.6204 19.7238 26.2099 19.7238 26.2099V30.2612H19.5582V30.4318H18.3165V30.2788H17.9026V29.8599H18.0606Z" fill="#18191B"/>
</g>
<defs>
<clipPath id="clip0_770_550">
<rect width="40" height="40" fill="white"/>
</clipPath>
</defs>
</svg>
