<svg width="40" height="40" viewBox="0 0 40 40" fill="none" xmlns="http://www.w3.org/2000/svg">
<g clip-path="url(#clip0_770_553)">
<path d="M30 0.75H10C4.89137 0.75 0.75 4.89137 0.75 10V30C0.75 35.1086 4.89137 39.25 10 39.25H30C35.1086 39.25 39.25 35.1086 39.25 30V10C39.25 4.89137 35.1086 0.75 30 0.75Z" fill="white"/>
<path d="M29.0147 9.63926C28.2151 8.25124 26.4381 7.77309 25.0529 8.57473C23.6637 9.37434 23.1912 11.1537 23.9908 12.5421C24.7904 13.9257 26.5674 14.4035 27.9526 13.6022C29.3418 12.7978 29.8184 11.0228 29.0147 9.63926Z" fill="#18191B"/>
<path d="M9 32.2171C9 32.2171 9 32.2139 9 32.209C9 32.1303 9.01212 32.056 9.02827 31.9805C9.03231 31.9647 9.04037 31.9534 9.04037 31.9409C9.06461 31.873 9.08884 31.8117 9.12115 31.7483C9.12115 31.7438 9.12115 31.739 9.12115 31.739C9.12115 31.739 9.12924 31.7325 9.13328 31.7281C9.16155 31.6776 9.19385 31.6332 9.2302 31.5908C9.85616 30.6789 13.1314 25.9195 13.5635 25.2491C13.826 24.752 14.1894 24.4443 14.771 20.764C14.8598 20.3586 15.1264 18.1895 15.7806 17.5191L20.0452 12.3874C20.0492 12.3794 20.0533 12.3794 20.0573 12.3765C19.706 11.0354 19.2295 9.32383 19.0639 8.96885C18.022 7.50168 13.6644 7.71006 13.6079 7.72581C13.6039 7.72581 13.5958 7.73066 13.5917 7.72581C13.4383 7.75731 13.2767 7.74641 13.1233 7.69108C12.6831 7.52066 12.461 7.02837 12.6306 6.58696C12.7194 6.36121 12.8931 6.19562 13.1031 6.1088C13.4787 5.92747 16.6368 5.98282 18.3531 6.20049C19.6939 6.37374 20.7681 7.30784 21.5273 9.40906C21.5475 9.51648 22.117 11.0071 22.4481 11.9032C22.965 12.0292 23.4416 12.2739 23.7929 12.6051C24.7218 13.5073 24.8591 15.35 23.9545 16.2837L23.6556 16.5725C23.8212 19.9091 27.1933 20.3618 28.009 20.4769C28.6269 20.5431 29.5679 20.5084 29.6002 20.5084C29.8022 20.5084 29.9919 20.5827 30.1373 20.7087C30.1535 20.7216 30.1737 20.7325 30.1898 20.7531C30.2383 20.7923 30.2746 20.8351 30.3029 20.8856C30.315 20.9029 30.3231 20.9062 30.3312 20.9264C30.3433 20.9345 30.3433 20.9534 30.3473 20.9659C30.4079 21.0843 30.4483 21.2135 30.4483 21.3557C30.4483 21.7894 30.1212 22.1444 29.7052 22.1997C29.6972 22.1997 29.6971 22.1997 29.6931 22.1997C28.9379 22.4364 27.6699 22.3778 26.8379 22.2122C23.9706 21.8181 22.545 19.9991 21.8464 18.2682L20.017 19.9834C21.6202 21.1505 23.0054 22.6302 24.0352 24.3292C24.5279 25.1466 25.0812 26.3294 24.8268 27.2841C24.3139 29.114 20.7721 32.8794 20.1906 33.3289C20.1017 33.4238 19.9927 33.5058 19.8635 33.5579C19.7423 33.6132 19.605 33.6447 19.4677 33.6447C18.9064 33.6447 18.4541 33.192 18.4541 32.6351C18.4541 32.4299 18.6196 32.0875 18.6237 32.0798C19.4556 30.5133 22.8156 26.7793 22.3754 26.1404C21.9998 25.5565 19.6091 23.5247 18.7529 22.5781C18.5106 22.2675 18.139 21.8811 17.8685 21.4659C17.7513 21.4897 17.6302 21.5022 17.505 21.5022C17.4848 21.7074 17.4566 21.8887 17.4404 22.0228C17.1093 24.6652 15.9179 27.1024 14.3268 29.051C13.2646 30.3522 11.8754 32.1303 10.68 32.9711C10.5669 33.0737 10.4337 33.1399 10.2883 33.1872H10.2802C10.1913 33.2106 10.0985 33.2312 10.0056 33.2312C9.44827 33.2312 9 32.7817 9 32.2248C9 32.2248 9 32.2248 9 32.2171Z" fill="#18191B"/>
<path d="M13.5 5.75C13.5 5.33579 13.1642 5 12.75 5C12.3358 5 12 5.33579 12 5.75V9.25C12 9.66421 12.3358 10 12.75 10C13.1642 10 13.5 9.66421 13.5 9.25V5.75Z" fill="#18191B"/>
</g>
<defs>
<clipPath id="clip0_770_553">
<rect width="40" height="40" fill="white"/>
</clipPath>
</defs>
</svg>
