<svg width="40" height="40" viewBox="0 0 40 40" fill="none" xmlns="http://www.w3.org/2000/svg">
<g clip-path="url(#clip0_770_558)">
<path d="M30 0.75H10C4.89137 0.75 0.75 4.89137 0.75 10V30C0.75 35.1086 4.89137 39.25 10 39.25H30C35.1086 39.25 39.25 35.1086 39.25 30V10C39.25 4.89137 35.1086 0.75 30 0.75Z" fill="white"/>
<path d="M13.5218 7.32715H13.5186C13.3769 7.12848 13.1387 7 12.8746 7C12.4335 7 12.0728 7.3587 12.0728 7.80145C12.0728 8.02524 12.1662 8.22263 12.3079 8.37365L13.3995 9.61883C13.8954 9.36091 14.3945 9.11941 14.8903 8.89304L13.5218 7.32715Z" fill="#18191B"/>
<path d="M27.6128 8.37365C27.7641 8.22907 27.8543 8.02782 27.8543 7.80145C27.8543 7.3587 27.4936 7 27.0493 7C26.7885 7 26.5534 7.12848 26.4053 7.32329C26.4021 7.32715 26.4021 7.32715 26.4021 7.32715L26.0415 7.73835C26.5856 7.91834 27.1073 8.13215 27.6064 8.38363L27.6128 8.37365Z" fill="#18191B"/>
<path d="M18.0652 25.3379C18.0652 24.0625 17.0283 23.0221 15.7532 23.0221C14.4716 23.0221 13.438 24.0625 13.438 25.3379C13.438 26.6195 14.4716 27.6534 15.7532 27.6534C17.0283 27.6534 18.0652 26.6195 18.0652 25.3379Z" fill="#18191B"/>
<path d="M33.7275 16.5924C32.3042 9.9057 26.0155 6.07197 19.3276 7.49682C14.8647 8.44673 9.73198 11.4781 6 15.1118C6.0161 15.1244 6.03543 15.1408 6.05475 15.1595C9.29408 12.0251 13.9599 9.34607 20.3548 8.28927C26.9204 7.2038 31.8953 12.2602 32.7292 16.8049C33.7951 22.617 30.8552 29.3729 22.8277 31.0721C22.2578 31.2019 21.4045 31.3426 20.3548 31.4823V24.939C21.0503 24.7641 21.4947 24.1179 21.7909 22.8096C22.1773 21.113 22.2385 19.6488 22.2514 18.8854C22.29 16.9369 21.5236 15.352 21.5751 15.2754C21.5784 15.2754 21.5816 15.2754 21.5816 15.2754L26.769 9.33963C26.2667 9.09072 25.7451 8.87692 25.1977 8.70433L20.3676 14.2325C20.2517 14.3458 20.0135 14.6414 19.9458 14.6414C19.8879 14.6414 15.5022 9.58757 15.5022 9.58757C14.9452 9.77368 14.4107 9.97751 13.8955 10.1888C13.8955 10.1888 18.4067 15.3495 18.4421 15.3785C18.6289 15.7684 18.0847 15.7874 18.2586 16.811C18.4067 17.684 18.645 17.3104 18.7222 18.8854C18.7866 20.2625 18.1523 22.1405 17.9849 22.9001C17.7885 23.812 18.2586 24.494 18.996 24.8008V24.8034C18.996 24.8034 18.996 30.0749 18.996 31.4949V31.6433C18.1942 31.7299 17.3215 31.8005 16.3974 31.8546L13.3352 31.8005V32.0748L14.4075 32.0935C14.81 32.106 15.2156 32.116 15.6181 32.116L17.7434 32.1514L19.07 32.174C19.1795 32.4219 19.4081 32.5929 19.6722 32.5929C19.933 32.5929 20.1552 32.4319 20.2711 32.1965L20.9473 32.2094L20.9537 31.9325L20.5737 31.9286L20.3451 31.9225C20.3483 31.9 20.3484 31.881 20.3516 31.862C21.8135 31.7074 23.1433 31.4975 24.1898 31.2785C30.8778 29.8559 35.1475 23.2839 33.7275 16.5924Z" fill="#18191B"/>
</g>
<defs>
<clipPath id="clip0_770_558">
<rect width="40" height="40" fill="white"/>
</clipPath>
</defs>
</svg>
