<svg width="40" height="40" viewBox="0 0 40 40" fill="none" xmlns="http://www.w3.org/2000/svg">
<g clip-path="url(#clip0_770_564)">
<path d="M30 0.75H10C4.89137 0.75 0.75 4.89137 0.75 10V30C0.75 35.1086 4.89137 39.25 10 39.25H30C35.1086 39.25 39.25 35.1086 39.25 30V10C39.25 4.89137 35.1086 0.75 30 0.75Z" fill="white"/>
<path d="M19.0589 16.3462C19.0589 16.3462 19.7633 16.4008 20.3593 17.166L20.0342 17.2206L19.8716 17.166C19.8716 17.166 19.384 16.5648 19.0589 16.3462ZM17.9752 19.7348L17.65 18.915H17.5417L16.9998 19.5709C17.3791 19.8988 17.9752 19.7348 17.9752 19.7348ZM22.9602 14.9251L22.6893 15.0344L23.0144 15.6356L24.0981 16.0182C23.6646 15.0891 22.9602 14.9251 22.9602 14.9251ZM19.8716 16.0729C20.1968 16.4555 20.5219 17.002 20.5219 17.002C21.0637 16.4555 22.2016 16.2368 23.6646 16.2915C21.6056 15.8543 19.8716 16.0729 19.8716 16.0729ZM17.8668 15.253C17.8668 15.253 18.4628 15.253 19.2756 15.417C18.7338 15.0344 17.8668 14.8158 17.8668 14.8158V15.253ZM22.8518 18.2591L21.9307 19.0789L22.6351 19.2976L23.3395 18.5324L22.9602 18.3684L22.8518 18.2591ZM16.7289 13.9413C16.7289 13.9413 17.1082 14.1599 17.1624 14.1599C17.2166 14.1599 17.9752 14.4332 18.3003 14.5425C18.5712 14.6518 18.7338 14.5425 18.7879 14.5425C18.8421 14.5425 19.7633 13.996 19.7633 13.996C18.9505 13.668 18.1919 13.4494 18.1919 13.4494C18.1377 13.4494 16.7289 13.9413 16.7289 13.9413ZM22.2558 14.4332C22.2016 14.3239 22.0932 14.3239 21.443 14.2146C20.847 14.1599 20.3051 14.1053 20.1968 14.1053C20.0884 14.1053 20.0342 14.1599 20.0342 14.1599C20.0342 14.1599 19.7091 14.3785 19.4382 14.5425C19.1672 14.7065 19.1131 14.7611 19.0589 14.8704C19.0047 14.9251 19.1672 15.1437 19.1672 15.1437L19.6007 15.6903C19.6549 15.6903 19.8175 15.7996 19.8175 15.7996C19.8175 15.7996 20.6844 15.7449 21.2263 15.6903H22.6351C22.6893 15.6903 22.6351 15.4717 22.5267 15.1984C22.4183 14.9798 22.2558 14.4332 22.2558 14.4332ZM17.1082 15.0344C17.1082 15.0344 17.1624 15.0344 17.2708 15.0891C17.3791 15.0891 17.4333 14.9798 17.4333 14.8704C17.4333 14.7065 17.2708 14.6518 17.2708 14.6518H17.1624L16.9998 14.7065L16.9456 15.0891H16.9998L17.1082 15.0344C17.054 14.9251 17.054 14.8704 17.054 14.7611C17.054 14.7065 17.1624 14.5972 17.2166 14.5972C17.2166 14.5972 17.3249 14.5972 17.2708 14.8158C17.2708 15.0344 17.1082 15.0344 17.1082 15.0344ZM26.2655 19.3522L25.832 19.9534V20.0081H26.4281C26.5364 19.6255 26.2655 19.3522 26.2655 19.3522ZM15.4285 16.5101H15.3201L15.0492 16.4555C14.7782 16.4008 14.8866 15.9089 14.8866 15.9089L14.5615 16.0182C14.4531 15.7996 13.9655 15.1984 13.9655 15.1984L13.8571 15.6356C13.9113 15.6903 14.1822 16.1275 14.2364 16.2368L14.0738 16.4008C14.0738 16.4008 14.0196 16.5101 14.0196 16.5648C14.0196 16.6194 13.9655 16.6741 13.9655 16.6741L13.7487 16.7834H13.6945L12.9359 16.1822V16.6194H12.9901C13.0443 16.7287 13.1527 16.9474 13.4236 17.0567C13.6403 17.166 13.9113 17.166 14.0196 17.1113C14.128 17.166 14.1822 17.166 14.2364 17.2206C14.4531 17.33 14.5073 17.2753 14.5073 17.2753L14.8324 17.166H14.8866L14.9408 17.1113L15.0492 16.8927C15.0492 16.8927 15.591 16.9474 15.8078 16.9474C16.0245 16.6194 16.7289 16.1275 17.2166 16.0729C17.7042 16.0729 18.517 16.1822 19.1672 16.8381C19.7633 17.4939 19.6007 18.3684 19.6007 18.3684L20.7928 18.751L20.2509 18.3684C19.8175 17.2753 18.7879 16.2915 18.7879 16.2915C18.7879 16.2915 18.517 16.2368 18.3545 16.2368C18.1919 16.1822 18.0835 16.0729 18.0835 16.0729C18.0835 16.0729 18.0293 16.0182 17.921 15.8543L17.8126 15.6356C17.8126 15.6356 17.7042 15.5263 17.5417 15.417C17.3791 15.3077 16.7831 15.253 16.458 15.1984C16.1329 15.1437 16.1329 15.1984 16.1329 15.1984C17.054 15.417 17.3249 15.4717 17.3791 15.5263C17.3791 15.5263 17.4333 15.6356 17.4875 15.6903C16.7289 15.5263 16.0245 15.6356 15.8619 15.6903C15.9703 15.8543 15.9703 16.0729 15.8619 16.2368C15.7536 16.3462 15.4285 16.5101 15.4285 16.5101ZM25.7236 20.4453L25.8862 21.1559C25.8862 21.1559 26.0488 20.9919 26.2113 20.7733C26.3739 20.5547 26.4281 20.336 26.4281 20.336L25.7778 20.3907L25.7236 20.4453ZM12.665 15.4717L12.6108 16.0729H12.9359L12.9901 15.6903V15.9089H13.0443V15.581H12.9901V15.3624L13.4778 15.6356L13.532 15.7449L13.6403 15.8543H13.7487L13.8029 15.7996V15.7449C13.4778 15.7449 13.4778 15.581 13.4778 15.581C13.4778 15.581 13.532 15.1984 13.5862 15.0891C13.6403 14.9798 13.8571 15.0344 13.8571 15.0344L13.8029 14.9798H13.6945C13.5862 14.9251 13.261 14.7065 13.1527 14.6518V14.5972L13.2069 14.5425V14.3239H13.261C13.261 14.2692 13.3152 14.2692 13.3152 14.2146C13.4236 14.2146 14.2364 14.0506 14.2364 14.0506L13.4778 13.8866V13.832C13.261 13.7773 13.0985 13.7227 12.9901 13.668C12.7192 13.996 12.6108 14.4332 12.6108 14.4332C12.6108 14.4332 12.5566 15.1984 12.5566 15.3077C12.5025 15.417 12.665 15.4717 12.665 15.4717ZM25.3985 19.7895L25.5069 19.9534L25.5611 19.8988L25.9946 19.3522V19.2976C25.7778 19.2976 25.3985 19.7895 25.3985 19.7895ZM24.0981 18.8057L23.773 18.6964L23.0144 19.5709L23.5562 19.7348C23.6646 19.2976 24.0981 18.8057 24.0981 18.8057ZM25.236 20.0628C24.9651 20.6093 25.0192 20.9919 25.0192 20.9919L25.2902 20.3907V20.2814C25.3444 20.2814 25.2902 20.1721 25.236 20.0628ZM24.9651 16.5101C24.9651 16.5101 24.8567 16.7287 24.8025 16.7834C24.7483 16.8381 24.369 16.8927 24.1523 16.9474C23.9355 17.0567 23.5562 17.2206 23.4479 17.33C23.3937 17.3846 23.3937 17.5486 23.3937 17.6032C23.3937 17.6032 23.5021 17.6579 23.5562 17.6579L23.0686 18.0951L23.1769 18.2045L24.369 18.587C24.6399 18.3684 25.0192 18.3138 25.0192 18.3138C24.8025 18.2045 23.8813 17.8219 23.6104 17.7126C23.6104 17.7126 23.4479 17.6579 23.4479 17.6032V17.4393C23.4479 17.4393 24.1523 16.8927 25.236 16.8927L25.3985 16.5648L24.9651 16.5101ZM25.6695 21.3198L25.4527 20.664H25.3985L25.0734 21.2652L25.1276 21.3198C25.3985 21.4291 25.6695 21.3198 25.6695 21.3198ZM17.4875 15.0891L17.65 15.1437C17.65 15.1437 17.7584 15.1437 17.7584 15.0344V14.8158L17.5959 14.7065L17.3791 14.6518C17.4333 14.7065 17.4333 14.7611 17.4333 14.7611H17.4875C17.4875 14.7065 17.5417 14.7065 17.5417 14.7611C17.5417 14.7611 17.65 14.8158 17.5959 14.9798C17.65 15.0344 17.5417 15.0891 17.4875 15.0891ZM16.9998 18.0951C16.6205 18.8057 16.8915 19.2976 16.8915 19.2976L17.3791 18.587V18.4777L16.9998 18.0951ZM13.4778 13.8866L14.128 14.0506C14.1822 14.0506 14.5615 13.996 14.5615 13.996L13.532 13.7227L13.4778 13.8866ZM13.8571 13.7227C14.724 13.832 14.8866 13.996 14.8866 13.996C14.8866 13.996 15.2117 13.9413 15.3743 13.9413C15.1033 13.7227 13.9113 13.3401 13.9113 13.3401C13.9113 13.3401 13.8571 13.5041 13.8571 13.7227ZM15.1575 15.417C14.995 15.5263 14.8324 15.8543 14.8866 16.1275C14.9408 16.4008 14.995 16.4008 15.1575 16.4008C14.8866 16.2915 14.9408 15.8543 15.1575 15.581C15.3201 15.3623 15.4826 15.5263 15.4826 15.5263C15.4826 15.5263 15.3201 15.3077 15.1575 15.417ZM11.3104 23.5061C10.606 23.5061 9.79315 23.7794 10.2809 24.5445C14.2906 31.4858 18.517 33.1255 20.3051 34C21.1179 33.6174 22.4183 33.0162 23.9897 31.9231C24.9109 31.3219 24.8025 30.3927 24.5858 29.7915C23.4479 26.9494 17.2166 23.7247 11.3104 23.5061ZM33.9056 10.5526C32.2801 9.40486 28.2704 7.32794 20.3051 7.32794C17.5417 7.32794 15.2117 7.60122 13.3694 7.98381C13.8029 8.69433 14.0196 9.51417 14.0196 10.3887C14.0196 11.5911 13.5862 12.6842 12.8818 13.5041C13.0443 13.5587 13.261 13.6134 13.532 13.668L13.6403 13.3947C13.6403 13.3947 13.7487 13.3947 13.8029 13.4494C13.8029 13.1761 13.9655 13.1761 13.9655 13.1761C13.9655 13.1761 13.9655 13.1215 14.0196 13.1215C14.2906 13.1761 15.0492 13.5587 15.3743 13.7227C15.6994 13.8866 15.6994 13.9413 15.6994 13.9413C15.6994 13.9413 16.458 13.9413 16.6747 13.8866C16.8915 13.8866 17.2708 13.7227 17.8126 13.5587C18.3545 13.3947 18.4628 13.3401 18.5712 13.3401C18.6796 13.3401 19.6549 13.3947 20.5219 13.5041C21.3888 13.6134 22.2016 13.9413 22.3642 14.0506L22.6351 14.1053L22.6893 13.9413L22.2558 13.7773C22.2558 13.7773 22.31 13.5041 22.31 13.4494C22.31 13.3947 22.3642 13.3401 22.4183 13.3401C22.4725 13.3401 22.9602 13.4494 23.1228 13.5041C23.2853 13.5587 23.8272 13.9413 23.8813 13.9413C23.9355 13.9413 23.9355 13.996 23.9355 13.996C23.9355 14.1053 23.8272 14.3239 23.8272 14.3239C23.8272 14.3239 23.9897 14.3785 24.0439 14.4332C24.0981 14.4879 24.2606 14.5972 24.4232 14.7611C24.5858 14.8704 24.5316 15.0344 24.5316 15.0344L24.9109 15.417V15.581L25.832 16.5101V16.5648L25.3985 16.8381C25.3985 16.8381 25.9946 16.7834 26.4281 17.002C26.8615 17.2206 26.9157 17.33 26.9157 17.4393C26.8074 17.4939 26.6448 17.5486 26.6448 17.5486C26.3197 17.6579 25.5069 18.2045 25.5069 18.2045V18.2591L25.9404 18.3684C26.4281 17.9312 27.295 17.7672 27.9452 17.8765C30.1668 18.3138 31.684 19.7895 32.0091 21.0466C32.0091 21.1012 32.0633 21.2105 32.0633 21.2652C34.2849 16.0182 34.0682 12.247 33.9056 10.5526ZM26.1029 18.5324C26.1571 18.587 26.2113 18.587 26.2655 18.6417C26.5906 18.8603 26.7532 18.9696 26.8074 19.4615C26.8615 19.8441 26.7532 20.3907 26.4822 20.8826C27.9994 21.9211 30.1126 21.1012 30.9254 21.9211C30.7629 19.8441 27.7285 17.7672 26.1029 18.5324ZM13.6403 15.8543L13.532 15.9089V16.3462L13.6403 16.2915V15.8543ZM29.2999 22.6316C28.162 22.6316 27.0241 22.249 26.2113 21.2652V21.3198C25.7236 21.9757 25.1818 21.9757 24.9651 21.9757C24.7483 21.9757 24.0439 21.6478 23.773 21.3198C23.5021 20.9919 23.5021 20.3907 23.5021 20.3907L22.4183 20.0081L21.0637 19.2429L20.847 19.1883C20.4135 19.4069 19.8716 19.2429 19.384 18.8603C19.3298 19.0789 19.0589 19.6255 18.7338 19.8988C18.4086 20.1721 17.7584 20.5547 17.2708 20.5547C16.7831 20.5547 15.6994 20.0081 15.3743 19.2429C15.0492 18.4777 15.3743 17.6579 15.3743 17.6579L14.8324 17.5486L14.6157 17.2753C14.6157 17.2753 13.9655 17.8219 13.261 17.6032C12.5566 17.3846 11.9606 16.7834 11.798 16.2368C11.6897 15.6903 11.8522 15.1984 11.9064 15.1437C11.798 14.7611 11.798 14.5425 11.798 14.5425H11.7439V14.3785C11.0395 14.8704 10.2267 15.0891 9.35967 15.0891C8.38434 15.0891 7.46319 14.7611 6.70459 14.2692C6.81296 15.4717 7.13808 16.8927 7.57156 18.4777C8.16759 20.664 10.1183 21.3745 13.0443 21.8664C19.4923 22.9049 25.6695 27.8785 25.236 30.9393C26.8615 29.5729 28.5955 27.5506 30.3294 24.5445C31.0338 23.3968 30.3836 22.6316 29.2999 22.6316ZM12.069 15.0891L12.0148 15.6903H12.3941V15.6356H12.3399V15.581H12.2857L12.3399 15.4717L12.3941 15.1984L12.3399 15.1437V15.0344L12.3941 14.9798L12.4483 14.3239L12.1773 14.1599C12.2857 13.7227 12.5566 13.3401 12.5566 13.3401H12.3941C12.1232 13.668 12.0148 14.1053 12.0148 14.1053C12.0148 14.1053 11.9606 14.8158 11.9606 14.9251C11.9606 15.0891 12.069 15.0891 12.069 15.0891ZM18.0293 18.751L18.3003 19.6255C18.8421 19.2429 18.9505 18.6417 18.9505 18.6417L18.0835 18.6964L18.0293 18.751ZM18.517 17.3846L18.0835 18.1498L18.1377 18.2045L19.0047 18.2591C19.0047 17.6579 18.517 17.3846 18.517 17.3846ZM13.0985 15.6903L13.0443 16.0182H13.0985V15.6903ZM17.2166 17.7672L17.65 18.0951L17.7584 18.0405L18.2461 17.2753C17.6501 17.2206 17.2166 17.7672 17.2166 17.7672ZM13.2069 15.7449L13.1527 15.6903V16.0729H13.2069V15.7449ZM13.3694 15.8543L13.3152 16.2368H13.3694V15.8543ZM13.4778 15.9089L13.4236 16.2915H13.4778V15.9089ZM13.261 15.7996L13.2069 16.1822H13.261V15.7996Z" fill="#18191B"/>
<path d="M9.35949 13.7773C11.2149 13.7773 12.719 12.2602 12.719 10.3887C12.719 8.51716 11.2149 7 9.35949 7C7.50409 7 6 8.51716 6 10.3887C6 12.2602 7.50409 13.7773 9.35949 13.7773Z" fill="#18191B"/>
</g>
<defs>
<clipPath id="clip0_770_564">
<rect width="40" height="40" fill="white"/>
</clipPath>
</defs>
</svg>
