<svg width="40" height="40" viewBox="0 0 40 40" fill="none" xmlns="http://www.w3.org/2000/svg">
<g clip-path="url(#clip0_770_568)">
<path d="M30 0.75H10C4.89137 0.75 0.75 4.89137 0.75 10V30C0.75 35.1086 4.89137 39.25 10 39.25H30C35.1086 39.25 39.25 35.1086 39.25 30V10C39.25 4.89137 35.1086 0.75 30 0.75Z" fill="white"/>
<path d="M32.7656 17.519C33.9454 16.8373 34.3504 15.3271 33.67 14.1513C32.9882 12.9677 31.4793 12.5628 30.2981 13.2446C29.1169 13.9263 28.7137 15.4365 29.3955 16.6123C30.0773 17.7948 31.5833 18.2008 32.7656 17.519Z" fill="#18191B"/>
<path d="M33.9146 21.514C33.9109 21.5048 33.8867 21.4594 33.8789 21.4461C33.8509 21.4049 33.8175 21.3674 33.7831 21.3302C33.767 21.3169 33.7524 21.3064 33.7377 21.2927C33.6126 21.1905 33.4527 21.1223 33.2755 21.1223C33.253 21.1223 32.4526 21.153 31.9266 21.1011C31.2301 21.0026 28.3659 20.6137 28.2248 17.7747L28.2701 17.3486C28.5524 17.069 28.7201 16.6906 28.7773 16.2672C28.88 15.7187 28.6843 15.1396 28.5217 14.8024C28.3192 14.3763 27.9186 14.1233 27.3074 14.0115C27.0262 13.2513 26.5442 11.99 26.5217 11.901C25.877 10.1151 24.9651 9.32012 23.8293 9.17388C22.3668 8.98332 19.6823 8.93798 19.3587 9.09514C19.1845 9.16979 19.0339 9.30956 18.9633 9.50148C18.8194 9.87544 19.0046 10.2924 19.3775 10.4349C19.5094 10.4867 19.6451 10.4935 19.7757 10.4693C19.7811 10.4693 23.5429 10.2777 24.435 11.5254C24.556 11.7916 24.885 12.9582 25.1686 14.0143C23.6574 14.1608 22.4336 14.4537 21.761 14.6347C19.7504 15.1702 19.0141 15.8104 18.5065 16.5376C18.4946 16.527 18.3108 16.796 18.2471 16.9797C18.1138 17.2766 18.0112 17.639 17.9301 17.9932C17.9314 18.181 15.344 22.884 14.6356 23.2798C14.1294 23.7339 9.96161 26.774 9.23857 27.3678C9.19868 27.3944 9.16256 27.4251 9.1254 27.4595C9.12267 27.4664 9.03608 27.5649 9.00404 27.6129C8.9962 27.6262 8.98937 27.6368 8.9829 27.6433C8.95085 27.7019 8.90142 27.827 8.90142 27.8311H8.89905C8.76985 28.292 9.03335 28.7645 9.48879 28.8978C9.56754 28.9193 9.64457 28.9257 9.72332 28.9285C9.72469 28.9257 9.98411 28.895 10.0987 28.8364C11.2744 28.4304 12.8245 27.3065 13.9992 26.4914C15.734 25.285 19.3523 21.4086 20.1578 19.8814C20.211 19.8746 20.1912 19.8773 20.211 19.8746C20.4414 20.2264 20.8648 20.5393 21.0728 20.8056C21.7996 21.6098 23.833 23.3381 24.15 23.8283C24.5257 24.3782 21.668 27.5475 20.9606 28.8845C20.9606 28.8886 20.8208 29.1841 20.8208 29.3546C20.8208 29.8288 21.203 30.2109 21.6785 30.2109C21.7985 30.2109 21.9141 30.1867 22.0167 30.139C22.1248 30.0909 22.2192 30.0272 22.2962 29.9443C22.7878 29.5663 25.8 26.3625 26.2353 24.807C26.4538 23.9919 26.6348 23.6657 25.5617 22.2916C24.5216 20.9655 23.1925 19.4925 22.1418 18.599L22.0355 18.5284C22.2257 18.4524 22.4694 18.3648 22.7984 18.2553C23.8517 17.8974 25.3111 17.8626 26.3205 17.8493L26.6866 19.217C27.2781 20.6924 28.4924 22.237 30.9308 22.5711C31.6392 22.7136 33.3648 22.5605 33.3675 22.5578C33.7231 22.5165 33.9999 22.2131 33.9999 21.8457C33.9999 21.7257 33.9695 21.6125 33.9146 21.514Z" fill="#18191B"/>
<path d="M19.5 32C19.7761 32 20 31.7761 20 31.5C20 31.2239 19.7761 31 19.5 31C19.2239 31 19 31.2239 19 31.5C19 31.7761 19.2239 32 19.5 32Z" fill="#18191B"/>
<path d="M6.43301 29.116C6.67216 29.2541 6.97795 29.1722 7.11603 28.933C7.2541 28.6939 7.17216 28.3881 6.93301 28.25C6.69387 28.1119 6.38807 28.1939 6.25 28.433C6.11193 28.6722 6.19387 28.978 6.43301 29.116Z" fill="#18191B"/>
<path d="M21.5 32C21.7761 32 22 31.7761 22 31.5C22 31.2239 21.7761 31 21.5 31C21.2239 31 21 31.2239 21 31.5C21 31.7761 21.2239 32 21.5 32Z" fill="#18191B"/>
<path d="M8.16495 30.116C8.40409 30.2541 8.70989 30.1722 8.84796 29.933C8.98603 29.6939 8.90409 29.3881 8.66495 29.25C8.4258 29.1119 8.12 29.1939 7.98193 29.433C7.84386 29.6722 7.9258 29.978 8.16495 30.116Z" fill="#18191B"/>
<path d="M23.5 32C23.7761 32 24 31.7761 24 31.5C24 31.2239 23.7761 31 23.5 31C23.2239 31 23 31.2239 23 31.5C23 31.7761 23.2239 32 23.5 32Z" fill="#18191B"/>
<path d="M9.89688 31.116C10.136 31.2541 10.4418 31.1722 10.5799 30.933C10.718 30.6939 10.636 30.3881 10.3969 30.25C10.1577 30.1119 9.85194 30.1939 9.71387 30.433C9.5758 30.6722 9.65773 30.978 9.89688 31.116Z" fill="#18191B"/>
</g>
<defs>
<clipPath id="clip0_770_568">
<rect width="40" height="40" fill="white"/>
</clipPath>
</defs>
</svg>
