<svg width="40" height="40" viewBox="0 0 40 40" fill="none" xmlns="http://www.w3.org/2000/svg">
<g clip-path="url(#clip0_770_578)">
<path d="M30 0.75H10C4.89137 0.75 0.75 4.89137 0.75 10V30C0.75 35.1086 4.89137 39.25 10 39.25H30C35.1086 39.25 39.25 35.1086 39.25 30V10C39.25 4.89137 35.1086 0.75 30 0.75Z" fill="white"/>
<path d="M5 25.7782C5 25.7782 11.8035 26.616 18.9492 26.0071C25.193 25.477 31.702 26.94 34.1792 29.435V27.5316C31.7662 25.1166 25.0864 24.922 18.8074 25.4404C11.6661 26.0323 5 23.1057 5 23.1057V25.7782Z" fill="#18191B"/>
<path d="M26.8092 17.2591C26.4957 17.2131 26.1991 17.2647 25.9164 17.3734L25.9864 16.9764C26.0184 16.8011 26.031 16.6271 26.0298 16.4577C26.5048 16.4234 26.9774 16.3927 27.4524 16.3695C29.032 16.2895 30.6023 16.1029 32.1705 15.9118C31.319 17.0016 30.5876 17.9571 29.7452 19.0594C28.8134 18.0579 28.027 17.3426 26.8092 17.2591ZM28.9714 20.9616L29.1659 20.702L29.3778 20.9616H28.9714ZM28.24 20.9616H25.2835L25.4118 20.2326C25.5604 19.6774 26.2188 19.0275 26.7155 18.9106C27.3003 18.8018 28.3842 19.7978 28.8307 20.2268C28.6362 20.4811 28.24 20.9616 28.24 20.9616ZM12.2215 17.2591C11.9068 17.2131 11.6091 17.2647 11.3275 17.3734L11.3964 16.9764C11.4272 16.8011 11.4433 16.6271 11.4409 16.4577C11.9136 16.4234 12.3885 16.3927 12.8647 16.3695C14.4432 16.2895 16.0114 16.1029 17.5828 15.9118C16.729 17.0016 15.9988 17.9571 15.1563 19.0594C14.2246 18.0579 13.4369 17.3426 12.2215 17.2591ZM14.3802 20.9616L14.5747 20.702L14.7866 20.9616H14.3802ZM13.6511 20.9616H10.6946L10.8206 20.2326C10.9695 19.6774 11.6308 19.0275 12.1243 18.9106C12.7091 18.8018 13.7965 19.7978 14.2427 20.2268C14.0461 20.4811 13.6511 20.9616 13.6511 20.9616ZM31.2548 20.9616C31.1118 20.6733 30.9298 20.4331 30.156 19.46C31.0957 18.2205 32.9156 15.8717 32.9156 15.8717C32.9546 15.8799 33.0574 15.8969 33.0941 15.8969C33.3197 15.8969 33.5107 15.7803 33.6194 15.6051C33.6288 15.5936 33.632 15.5857 33.6367 15.5708C33.6859 15.4849 33.7155 15.3877 33.7155 15.2789C33.7155 14.9411 33.4375 14.6665 33.1023 14.6642C33.1023 14.6642 27.2007 14.6012 25.2401 14.6815C25.0913 14.5614 24.9275 14.4696 24.7479 14.4066C24.8223 14.4204 24.5099 14.3436 24.4994 14.3404C23.9834 14.2511 23.4706 14.4204 23.0563 14.7673V14.7694C22.6636 15.1014 22.358 15.5936 22.2265 16.1808C22.2183 16.223 22.2092 16.2655 22.2024 16.3089L21.3955 20.8793C21.3908 20.9045 21.3861 20.9309 21.3829 20.9593L16.6671 20.9616C16.5206 20.6733 16.3422 20.4331 15.5648 19.46C16.5045 18.2205 18.361 15.8547 18.361 15.8547C18.3898 15.8603 18.487 15.8831 18.5178 15.8831C18.8612 15.8831 19.1349 15.6086 19.1349 15.2652C19.1349 14.9241 18.8612 14.6472 18.5178 14.6472C18.4949 14.6472 12.6118 14.6012 10.6513 14.6815C10.5068 14.5634 10.3457 14.4755 10.174 14.4125C10.0904 14.3724 9.94481 14.3322 9.78248 14.329C9.31073 14.283 8.84601 14.4468 8.46626 14.7673V14.7694C8.07245 15.1014 7.76917 15.5936 7.63644 16.1808C7.62706 16.223 7.61916 16.2655 7.61242 16.3089L6.80751 20.8793C6.80311 20.9045 6.79607 20.9309 6.7949 20.9593L5.01514 20.9616V21.5283C6.87285 21.5319 8.72938 21.5374 10.5848 21.5374H10.5927C11.4787 21.5374 12.3669 21.5339 13.2538 21.5283C11.545 23.7409 9.84429 25.9578 8.141 28.1727C8.17763 28.207 8.25441 28.2814 8.29456 28.3192H8.7455C10.4807 26.0551 12.2262 23.7922 13.9623 21.5283C13.9623 21.5283 23.3171 21.5374 25.176 21.5374H25.1827C26.0699 21.5374 26.9581 21.5339 27.845 21.5283C26.135 23.7409 24.4332 25.9578 22.7287 28.1727C22.7653 28.207 22.8444 28.2814 22.8822 28.3192H23.3355C25.0708 26.0551 26.8162 23.7922 28.5503 21.5283H34.194V20.9616H31.2548Z" fill="#18191B"/>
<path d="M12.7035 12.1062C12.7035 13.2677 11.7614 14.2121 10.5973 14.2121C9.43431 14.2121 8.49023 13.2677 8.49023 12.1062C8.49023 10.9409 9.43431 10 10.5973 10C11.7614 10 12.7035 10.9409 12.7035 12.1062Z" fill="#18191B"/>
<path d="M27.242 12.1062C27.242 13.2677 26.3011 14.2121 25.137 14.2121C23.9752 14.2121 23.0322 13.2677 23.0322 12.1062C23.0322 10.9409 23.9752 10 25.137 10C26.3011 10 27.242 10.9409 27.242 12.1062Z" fill="#18191B"/>
</g>
<defs>
<clipPath id="clip0_770_578">
<rect width="40" height="40" fill="white"/>
</clipPath>
</defs>
</svg>
