<svg width="40" height="40" viewBox="0 0 40 40" fill="none" xmlns="http://www.w3.org/2000/svg">
<g clip-path="url(#clip0_770_584)">
<path d="M30 0.75H10C4.89137 0.75 0.75 4.89137 0.75 10V30C0.75 35.1086 4.89137 39.25 10 39.25H30C35.1086 39.25 39.25 35.1086 39.25 30V10C39.25 4.89137 35.1086 0.75 30 0.75Z" fill="white"/>
<path d="M29.2492 8.4668C28.4403 7.06256 26.6446 6.58372 25.2388 7.39431C23.8357 8.20368 23.3508 9.99892 24.163 11.4085C24.9769 12.8127 26.7725 13.2916 28.1735 12.481C29.5765 11.6716 30.0619 9.87635 29.2492 8.4668Z" fill="#18191B"/>
<path d="M31.3481 17.9598C31.3416 17.9439 31.3387 17.928 31.3322 17.912C31.3224 17.899 31.3081 17.8912 31.3003 17.872C31.2652 17.816 31.2203 17.7682 31.1741 17.7237C31.1565 17.7045 31.1345 17.6918 31.1181 17.6804C30.9555 17.5447 30.7529 17.4569 30.5245 17.4569C30.4926 17.4569 29.4696 17.4969 28.7913 17.4283C28.0571 17.3245 25.4305 16.9621 24.4279 14.7951C24.9945 13.7941 24.7886 12.2734 23.9621 11.4755C23.614 11.1372 23.1258 10.8896 22.6085 10.7572C22.1632 10.6453 21.7562 10.6134 21.3542 10.6935C21.2823 10.7045 21.2092 10.7299 21.1373 10.7491C20.2691 10.4859 17.631 9.62391 17.0165 9.81225C14.8617 10.3662 14.3494 12.2142 14.4388 13.5739C14.5508 15.3217 15.1077 18.4706 15.3646 18.8089C15.4876 19.0005 15.6837 19.1406 15.928 19.1806C16.3938 19.2685 16.8408 18.9523 16.9254 18.4865C16.954 18.319 16.9319 18.1592 16.8727 18.0154C16.8743 18.0076 16.8727 17.9995 16.8649 17.9995C16.8567 17.9709 16.5376 16.6512 16.4179 15.2866C16.4163 15.2416 16.4114 15.1988 16.4097 15.1542C16.8902 15.3217 17.4855 15.4222 18.0616 15.2576C19.3179 14.8989 19.9961 13.4431 19.9594 13.3075C19.921 13.18 18.5711 12.2971 17.3196 12.6563C17.0132 12.7441 16.7497 12.8957 16.5135 13.0791C16.5344 13.0154 16.5519 12.9565 16.5744 12.8957C16.6782 12.6293 16.8314 12.425 17.0483 12.3294C17.2796 12.1697 18.1511 12.3531 19.0846 12.5656L19.0434 12.6134L19.0511 12.6084C19.0434 12.6166 19.0274 12.6371 19.0176 12.6485C19.6084 12.8528 20.0374 13.1592 20.0681 13.2756C20.1285 13.4865 19.3992 14.9912 18.0951 15.3663C17.6387 15.497 17.173 15.4733 16.7497 15.3744C16.6381 15.5101 16.5695 15.5897 16.5695 15.5897C16.6827 16.7068 16.9094 17.7282 16.9732 17.9472L16.9879 17.9868C17.0516 18.1592 17.0692 18.33 17.0389 18.5057C16.954 18.9731 16.5519 19.3114 16.0796 19.3114C16.0237 19.3114 15.9665 19.3085 15.9072 19.2954C15.6437 19.2525 15.4173 19.101 15.2658 18.8759C15.2163 18.8007 15.1505 18.6332 15.0835 18.4019C14.9544 19.0049 14.8764 19.543 14.8364 19.7265C14.2521 23.4497 13.8852 23.7643 13.6139 24.2669C13.1796 24.9451 9.8633 29.7617 9.22962 30.6797C9.19612 30.7226 9.16261 30.7671 9.13564 30.8231C9.13238 30.8231 9.1242 30.8313 9.1242 30.8313C9.1242 30.8342 9.12421 30.8341 9.12298 30.839C9.08907 30.9028 9.06538 30.9669 9.0429 31.0384C9.038 31.0499 9.03351 31.0658 9.0286 31.0785C9.01103 31.1504 9 31.2301 9 31.3101C9 31.313 9 31.313 9 31.3179V31.3212C9 31.8797 9.45637 32.3426 10.0165 32.3426C10.1138 32.3426 10.2049 32.3234 10.2976 32.2993C10.2976 32.2993 10.2988 32.2948 10.3037 32.2948C10.4508 32.2515 10.5848 32.1796 10.6996 32.0762C11.9094 31.2256 13.3108 29.4217 14.3894 28.1131C16 26.1389 17.1983 23.6765 17.5366 21C17.5525 20.8594 17.5815 20.6809 17.6036 20.4766C17.7298 20.4733 17.8512 20.4574 17.9725 20.4366C18.2438 20.8517 18.625 21.2476 18.8644 21.5618C19.7343 22.5243 22.1521 24.5749 22.5305 25.1653C22.9774 25.8149 19.5761 29.5897 18.7353 31.1773C18.732 31.1822 18.5645 31.5332 18.5645 31.7363C18.5645 32.2993 19.0209 32.7577 19.5892 32.7577C19.7293 32.7577 19.8699 32.7254 19.9929 32.6698C20.1191 32.6188 20.2323 32.5342 20.3234 32.4382C20.9089 31.9883 24.492 28.174 25.0105 26.3228C25.2724 25.3569 24.7057 24.1602 24.2076 23.33C23.1658 21.6177 21.7693 20.1175 20.1412 18.9412L21.9973 17.1971C22.2191 17.0291 22.5239 16.7628 22.8336 16.4755C23.7402 17.8275 25.1956 18.9972 27.5113 19.3196C28.4228 19.4997 29.8066 19.5716 30.6332 19.3085C30.6364 19.3085 30.6381 19.3036 30.6426 19.3036C31.1006 19.2444 31.4568 18.8615 31.4568 18.386C31.4568 18.2311 31.4168 18.0873 31.3481 17.9598Z" fill="#18191B"/>
</g>
<defs>
<clipPath id="clip0_770_584">
<rect width="40" height="40" fill="white"/>
</clipPath>
</defs>
</svg>
