<svg width="40" height="40" viewBox="0 0 40 40" fill="none" xmlns="http://www.w3.org/2000/svg">
<g clip-path="url(#clip0_770_588)">
<path d="M30 0.75H10C4.89137 0.75 0.75 4.89137 0.75 10V30C0.75 35.1086 4.89137 39.25 10 39.25H30C35.1086 39.25 39.25 35.1086 39.25 30V10C39.25 4.89137 35.1086 0.75 30 0.75Z" fill="white"/>
<path d="M16.7955 16.3769C16.4839 15.3498 15.3954 14.7706 14.3672 15.0855C13.3411 15.3993 12.7633 16.4878 13.0771 17.5127C13.3898 18.5377 14.4781 19.1166 15.5041 18.8017C16.5323 18.4901 17.1093 17.4018 16.7955 16.3769Z" fill="#18191B"/>
<path d="M19.9179 22.8785C20.3626 22.6248 24.3242 24.9179 25.2298 25.4462H19.0693C19.4994 24.3736 19.7645 23.2399 19.9179 22.8785ZM26.6773 25.4462C26.4344 23.1764 25.8509 20.7145 24.8958 18.2261C21.7554 10.0421 15.8602 4.69306 11.7339 6.27824C11.6146 6.32044 11.5034 6.37536 11.3904 6.42811C15.4923 5.26898 21.1414 10.5417 24.1932 18.4955C24.9296 20.4112 25.4433 22.3099 25.7506 24.1202C25.1652 23.6603 24.1868 22.8942 24.0704 22.812C23.4007 22.3448 21.9751 21.4467 21.2239 21.0526C20.648 20.7513 19.7434 20.3582 19.1328 20.8359C18.3825 21.4963 18.3137 22.0965 17.9683 22.9705C17.9683 22.9705 17.7167 21.7922 17.5571 21.0472C17.6207 20.596 18.3403 19.7507 18.3403 19.7507C19.4539 18.5937 21.4184 15.9151 21.4511 15.7744C21.4522 15.7723 21.4922 15.6879 21.5039 15.6403C21.582 15.336 21.3962 15.0243 21.0897 14.9502C21.0875 14.948 21.0854 14.948 21.0832 14.948H21.0813C21.0443 14.9375 21.0115 14.9345 20.985 14.9345C20.7916 14.9237 20.6068 15.0116 20.4938 15.1647C20.4905 15.1647 17.9101 18.5377 16.8768 18.8704C16.6834 18.937 16.4838 18.99 16.2828 19.0395C16.0683 18.9583 15.8464 18.9446 15.6384 19.01C15.5262 19.05 14.9091 19.198 14.5986 19.8248C14.3026 20.3815 14.5564 21.7183 14.9251 23.4491C15.0655 24.1148 15.2229 24.8281 15.3741 25.4462H7V26.001H33.8109C30.0111 28.3701 23.5159 29.3507 19.9062 29.0443C13.2926 28.4811 7 29.2523 7 29.2523V31.7282C7 31.7282 13.1679 29.0199 19.7753 29.5642C23.4978 29.8736 30.099 30.4495 34 27.6303V26.001V25.8847V25.4462H26.6773Z" fill="#18191B"/>
</g>
<defs>
<clipPath id="clip0_770_588">
<rect width="40" height="40" fill="white"/>
</clipPath>
</defs>
</svg>
