<svg width="40" height="40" viewBox="0 0 40 40" fill="none" xmlns="http://www.w3.org/2000/svg">
<g clip-path="url(#clip0_770_592)">
<path d="M30 0.75H10C4.89137 0.75 0.75 4.89137 0.75 10V30C0.75 35.1086 4.89137 39.25 10 39.25H30C35.1086 39.25 39.25 35.1086 39.25 30V10C39.25 4.89137 35.1086 0.75 30 0.75Z" fill="white"/>
<path d="M17.8178 14.3935C18.1843 13.1316 19.5055 12.3999 20.7734 12.7687C22.0359 13.1388 22.7628 14.4615 22.3966 15.7233C22.0284 16.9894 20.7054 17.7137 19.4425 17.3488C18.1771 16.9835 17.4496 15.6585 17.8178 14.3935Z" fill="#18191B"/>
<path d="M7.5534 31.0253C7.5534 31.0253 9.54201 25.5602 9.74947 24.9339C9.86683 24.4886 10.0946 24.1658 9.83692 21.121C9.83176 20.8555 9.84567 20.6133 9.89432 20.3929C9.88489 19.8391 10.1126 19.284 10.5649 18.8923L14.4741 15.1609C15.2845 14.4625 16.789 14.6597 17.483 15.4634C18.023 16.0911 18.2172 17.1684 17.908 17.9519C18.2837 18.552 18.8018 18.8889 19.3468 19.0699C19.3468 19.1355 20.4203 19.3502 20.4352 19.4108C21.1404 19.5151 21.2807 19.4366 21.6602 19.3873C21.9497 19.3496 23.7013 18.3342 24.1317 18.2284C24.5521 18.125 23.5294 18.67 23.8872 18.4967C24.415 18.2883 23.5189 18.8234 23.8953 18.5297C24.0294 18.5821 24.1481 18.6687 24.2325 18.7884C24.2785 18.8516 24.3177 18.9236 24.3332 19.0089C24.3338 19.0115 24.3361 19.015 24.337 19.0189C24.4295 19.3952 24.2009 19.7729 23.8234 19.8657C23.7654 19.8799 22.417 20.4304 21.7833 20.5514C19.341 21.1587 17.6785 20.2047 16.667 19.1617L14.2905 20.9215C15.1455 21.7283 15.8861 22.6565 16.4765 23.6736C16.8637 24.3539 17.3017 25.3363 17.0767 26.1149C16.6253 27.6071 15.6192 28.5073 14.645 29.6863C14.1927 30.1309 13.6509 30.6952 13.0989 31.0496C13.0785 31.0655 13.0536 31.0781 13.0307 31.0933C13.0138 31.1012 13.0016 31.1152 12.9887 31.1184L12.9838 31.1196C12.9256 31.1537 12.8611 31.1801 12.7944 31.1965C12.3492 31.306 11.8993 31.0299 11.7916 30.5917C11.7322 30.3501 11.7843 30.1159 11.915 29.9263C11.915 29.9263 11.9153 29.9221 11.9147 29.9196C12.6281 28.6472 15.4338 25.6688 15.0805 25.1339C14.7966 24.6739 13.0235 23.0908 12.2677 22.2582C12.362 24.2103 11.9055 26.1359 11.1088 27.8144C10.5536 28.9799 9.19669 31.4354 9.06163 31.6726C8.95379 31.8634 8.77112 32.0111 8.54078 32.0678C8.09782 32.1767 7.64877 31.9079 7.53954 31.4636C7.50303 31.3151 7.51189 31.1664 7.5534 31.0253Z" fill="#18191B"/>
<path d="M33.5382 19.6657C33.4399 19.619 33.337 19.5993 33.2346 19.6019C33.2213 19.5988 33.2103 19.595 33.202 19.5971C33.1875 19.5942 33.1771 19.6032 33.1652 19.6061C33.1211 19.6105 33.0737 19.6222 33.0286 19.6333C33.0135 19.6434 32.9996 19.6533 32.9842 19.6571C32.8479 19.7163 32.7307 19.8224 32.6602 19.9652C32.6481 19.9875 32.3519 20.6492 32.097 21.0594C31.8105 21.4839 30.8059 22.9763 29.1896 23.0132L29.8603 18.4299C29.9715 17.8748 29.8151 17.3307 29.4832 16.9264C29.3972 16.7352 29.2643 16.5426 29.1106 16.3519C27.1508 14.24 27.1342 13.8707 26.9608 13.4725C26.755 12.8859 25.0589 7.67448 25.0589 7.67448C25.0079 7.54865 24.9303 7.43258 24.8169 7.3446C24.4803 7.07981 23.9881 7.13323 23.7208 7.47248C23.5829 7.64797 23.5346 7.86583 23.5642 8.06774C23.604 8.32184 24.0184 10.9327 24.2802 12.1202C24.6636 13.8281 25.441 15.5228 26.6459 16.916C25.6016 16.7383 23.3672 16.5926 22.8884 16.4142C22.316 16.2235 22.6718 12.3837 22.4624 11.0257C22.4616 11.0227 22.4616 11.0227 22.4609 11.0196C22.4476 10.8073 22.3512 10.5993 22.1662 10.4549C21.8267 10.194 21.3357 10.2472 21.0684 10.5864C21.029 10.6411 20.9964 10.6975 20.9716 10.7551C20.9716 10.7551 20.9716 10.755 20.9711 10.7583C20.9634 10.7731 20.9612 10.7897 20.9571 10.8036C20.945 10.8259 20.9364 10.8474 20.9294 10.8748C20.7265 11.4557 20.6515 12.1886 20.5737 12.7773C21.0134 12.8784 21.4266 13.1018 21.7481 13.4379C22.6384 14.3646 22.6067 15.8463 21.6798 16.7339C21.4878 16.9195 21.2673 17.0606 21.0303 17.1704C21.4145 17.7002 22.1289 18.0748 22.6983 18.3049C23.7271 18.7213 24.8168 18.9812 25.9169 19.084L25.1748 21.7669C24.9542 22.6643 24.8585 23.0418 24.9542 23.3852C25.1785 24.1442 25.9508 24.8361 26.7112 24.9838C27.2551 25.0947 27.8667 24.9185 28.3451 24.5789C28.4029 24.584 28.455 24.5808 28.455 24.5808C29.8972 24.6897 31.6456 24.3209 32.9008 22.4676C33.3014 21.9444 33.7767 21.0809 33.8681 20.476C33.8681 20.476 33.8673 20.4729 33.869 20.4693C33.9752 20.16 33.8409 19.8133 33.5382 19.6657Z" fill="#18191B"/>
<path d="M26.0755 25.3555C26.5347 26.5073 25.9788 27.8153 24.8242 28.273C23.6747 28.7358 22.3659 28.1726 21.9067 27.0208C21.4428 25.8701 22.0029 24.5643 23.1568 24.1036C24.3083 23.6435 25.6163 24.2037 26.0755 25.3555Z" fill="#18191B"/>
</g>
<defs>
<clipPath id="clip0_770_592">
<rect width="40" height="40" fill="white"/>
</clipPath>
</defs>
</svg>
