<svg width="40" height="40" viewBox="0 0 40 40" fill="none" xmlns="http://www.w3.org/2000/svg">
<g clip-path="url(#clip0_770_598)">
<path d="M30 0.75H10C4.89137 0.75 0.75 4.89137 0.75 10V30C0.75 35.1086 4.89137 39.25 10 39.25H30C35.1086 39.25 39.25 35.1086 39.25 30V10C39.25 4.89137 35.1086 0.75 30 0.75Z" fill="white"/>
<path d="M29.2852 31C29.6802 31 30 31.2237 30 31.5014C30 31.7774 29.6802 32 29.2852 32H10.7148C10.3201 32 10 31.7774 10 31.5015C10 31.2237 10.3201 31 10.7148 31H29.2852Z" fill="#18191B"/>
<path d="M31.9998 28.574C31.9998 28.7876 31.758 28.9605 31.4576 28.9605C31.1592 28.9605 30.9185 28.7876 30.9185 28.574V18.5337C30.9185 18.3203 31.1592 18.1472 31.4576 18.1472C31.758 18.1472 31.9998 18.3203 31.9998 18.5337V28.574Z" fill="#18191B"/>
<path d="M28.414 15.9195C27.6628 15.9195 27.0545 15.3102 27.0545 14.5601C27.0545 13.8075 27.6628 13.1982 28.414 13.1982C29.1644 13.1982 29.7748 13.8075 29.7748 14.5601C29.7748 15.3102 29.1644 15.9195 28.414 15.9195ZM28.414 12.7405C27.4083 12.7405 26.5933 13.5501 26.5933 14.5601C26.5933 15.5614 27.4083 16.3775 28.414 16.3775C29.4197 16.3775 30.2324 15.5614 30.2324 14.5601C30.2324 13.5501 29.4197 12.7405 28.414 12.7405Z" fill="#18191B"/>
<path d="M13.3385 8.40423C13.2964 8.30128 13.2264 8.21342 13.123 8.17102C13.026 8.13123 12.9203 8.14103 12.8175 8.1816C12.8175 8.1816 12.8008 8.18951 12.7974 8.19106C12.6677 8.25309 12.5547 8.36933 12.4873 8.53374C12.425 8.68552 12.4192 8.84272 12.4604 8.97488L12.4594 8.97742C12.4594 8.97742 14.0869 12.7188 14.1163 14.1791C14.1531 14.602 14.1753 15.1845 14.0966 15.7521C13.9033 15.9358 13.7406 16.1557 13.6111 16.4159C13.51 16.596 13.426 16.9665 13.3829 17.1645C13.3176 17.6727 13.4264 18.1635 13.6805 18.5279C13.1421 21.5313 15.8187 25.585 15.9918 25.656L15.9958 25.6577C16.0327 25.6935 16.0753 25.7287 16.1274 25.7501C16.3603 25.8457 16.6427 25.6837 16.7641 25.3878C16.8368 25.2107 16.8322 25.0227 16.7635 24.8851C16.7635 24.8851 16.7645 24.8826 16.764 24.8794L16.765 24.8769C16.7623 24.8728 16.7609 24.8693 16.7556 24.8671C16.5995 24.5666 14.2977 21.4115 14.874 19.2068C14.8727 19.2033 14.8737 19.2008 14.8733 19.1977C14.8733 19.1977 19.858 20.7258 20.0159 20.761C20.6183 20.7806 22.9567 23.1942 23.3411 24.9094C23.5677 25.9156 24.0713 27.4669 24.1895 27.8376C24.2218 28.0134 24.3202 28.1602 24.4754 28.2239C24.7473 28.3354 25.0874 28.1469 25.2307 27.7979L25.2328 27.7928C25.2328 27.7928 25.2328 27.7928 25.2338 27.7903C25.239 27.7776 25.2396 27.7631 25.2448 27.7505C25.2541 27.7188 25.2665 27.6884 25.2739 27.653C25.2789 27.6255 25.2829 27.5976 25.2852 27.5661C25.289 27.5499 25.2902 27.5356 25.29 27.5208C25.2928 27.5072 25.2932 27.4955 25.2934 27.4837C25.2955 27.4787 25.2924 27.4597 25.2903 27.447C25.2866 27.3746 25.2724 27.3096 25.2521 27.2481C25.0964 26.5163 24.568 24.2514 24.405 23.3777C24.0821 21.667 21.3863 19.1452 21.4698 18.9814C21.7934 18.3961 22.5487 16.6549 23.5548 17.6293C23.814 17.7977 25.5627 20.1585 25.609 20.2336C25.6619 20.3144 25.7298 20.3748 25.8175 20.4107C26.0931 20.5238 26.4311 20.3345 26.5744 19.9854C26.6636 19.7679 26.6565 19.5374 26.569 19.3685C26.5194 19.2683 24.6602 15.9963 23.282 15.3097C22.7903 15.0606 22.1053 15.1342 21.4227 16.0127C21.0627 16.4855 20.625 17.1985 20.4512 17.6L15.8036 15.3501C15.6652 15.2934 15.525 15.2595 15.3817 15.2509C15.3806 15.2357 15.3804 15.2208 15.3794 15.2057C15.3756 12.7127 13.4978 8.73855 13.3385 8.40423Z" fill="#18191B"/>
<path d="M12.5001 14.798C13.3123 15.1313 13.7013 16.0591 13.3676 16.8723C13.034 17.6854 12.1038 18.0767 11.2915 17.7435C10.4775 17.4094 10.0886 16.4768 10.4222 15.6637C10.7559 14.8505 11.6861 14.464 12.5001 14.798Z" fill="#18191B"/>
</g>
<defs>
<clipPath id="clip0_770_598">
<rect width="40" height="40" fill="white"/>
</clipPath>
</defs>
</svg>
