<svg width="40" height="40" viewBox="0 0 40 40" fill="none" xmlns="http://www.w3.org/2000/svg">
<g clip-path="url(#clip0_770_605)">
<path d="M30 0.75H10C4.89137 0.75 0.75 4.89137 0.75 10V30C0.75 35.1086 4.89137 39.25 10 39.25H30C35.1086 39.25 39.25 35.1086 39.25 30V10C39.25 4.89137 35.1086 0.75 30 0.75Z" fill="white"/>
<path d="M15.1065 10.8868C16.4484 11.0978 17.7036 10.183 17.916 8.84122C18.1309 7.50188 17.2149 6.24389 15.8742 6.03024C14.5363 5.81932 13.277 6.73411 13.0647 8.07345C12.8511 9.41143 13.7644 10.6705 15.1065 10.8868Z" fill="#18191B"/>
<path d="M23.5122 12.4063C22.751 13.4708 21.4745 15.0129 20.6813 14.7031C20.481 14.6696 20.0937 14.1623 19.6691 13.5614C19.4461 13.8619 19.119 14.2519 18.7571 14.6631C18.7464 14.6765 18.7344 14.6898 18.7224 14.7031C18.6049 14.8327 18.486 14.9664 18.3645 15.0997L18.3618 15.1038C18.685 15.6405 19.0028 16.1054 19.2098 16.2148C20.8135 17.1603 22.2076 16.3724 22.9607 15.5136C23.7325 14.6392 24.8515 13.0835 25.3082 12.2983L23.5122 12.4063Z" fill="#18191B"/>
<path d="M25.0146 11.0402C24.6661 10.9603 24.4711 11.0669 24.3977 11.1339C24.3817 11.151 24.3643 11.1712 24.3496 11.1913H25.275C25.1989 11.1206 25.1094 11.0669 25.0146 11.0402Z" fill="#18191B"/>
<path d="M30.3624 11.2847H15.1035V12.8069L18.339 12.6162C18.4084 12.5293 18.4578 12.4664 18.4765 12.4398L18.4779 12.4223L18.4979 12.409C18.5714 12.2795 18.6795 12.1728 18.8037 12.1058C18.9252 12.0391 19.0628 12.0019 19.1989 12.0019C19.4941 12.0019 19.7678 12.1622 19.9147 12.4223C19.9294 12.4531 19.9414 12.4866 19.9521 12.5198L26.0665 12.1595V11.5677H30.3624V11.2847Z" fill="#18191B"/>
<path d="M19.8281 12.4692C19.6372 12.1219 19.1965 11.9992 18.852 12.1889C18.7251 12.2596 18.6357 12.3557 18.5729 12.4692C18.5676 12.4733 18.5676 12.4798 18.5635 12.4825C18.5622 12.4893 18.4968 12.5758 18.3886 12.7095C17.7824 13.468 15.7407 15.8476 14.7832 15.3468C14.5562 15.2839 14.2157 14.619 13.8632 13.8981L13.9554 13.8646C14.1917 14.3493 14.6203 15.2039 14.81 15.2572C14.9034 15.3041 14.9849 15.3202 15.0783 15.3202C16.0144 15.3202 17.6609 13.4574 18.2618 12.7163L15.0076 12.9098V11.1914H17.5474C17.4726 11.1712 17.3965 11.1538 17.307 11.151C16.2882 11.0536 14.8126 11.0536 13.9887 11.338C12.6681 11.7882 12.166 13.1436 12.0445 13.6041C12.0125 13.7552 11.9537 14.2492 12.0645 14.5657C12.3062 15.2802 12.851 16.4858 13.1608 16.6954C14.6591 17.8036 16.1279 17.1668 16.9665 16.3925C18.0441 15.3974 19.7974 13.3812 19.8855 13.0339C19.9256 12.9006 19.9296 12.7563 19.8908 12.6199C19.8775 12.5693 19.8575 12.5198 19.8281 12.4692Z" fill="#18191B"/>
<path d="M18.876 33.9479C18.876 33.9185 18.8707 33.885 18.8653 33.8545C18.8653 33.845 18.8653 33.8409 18.8653 33.8344C18.8653 33.8118 17.7837 23.8529 17.5474 20.0913C17.4152 17.9975 17.733 16.3925 17.968 15.5311C17.968 15.5311 17.964 15.5311 17.964 15.5338C17.8024 15.7047 17.6422 15.8675 17.4873 16.025C17.4846 16.0278 17.4766 16.0319 17.4752 16.0346C17.4031 16.1078 17.3337 16.1748 17.267 16.2414C17.2589 16.2455 17.2496 16.2548 17.2429 16.2616C17.1695 16.3324 17.0974 16.399 17.0333 16.4619C16.658 16.8062 15.8742 17.3873 14.846 17.3873C14.2384 17.3873 13.6536 17.1829 13.1034 16.773C13.074 16.7556 13.046 16.7262 13.0139 16.6927C13.0006 16.6793 12.9885 16.666 12.9752 16.6527C12.9539 16.6287 12.9338 16.6021 12.9138 16.5713C12.8844 16.5351 12.8564 16.4923 12.8243 16.4486C12.819 16.4353 12.807 16.4192 12.8003 16.4059C12.5746 16.0517 12.3196 15.5071 12.0645 14.9035C12.1807 16.8732 12.9899 19.6773 13.1141 20.2342C13.1034 26.0294 13.0967 33.8812 13.0967 33.8812C13.094 33.9079 13.0887 33.9277 13.0887 33.9479C13.0887 34.4193 13.4733 34.8066 13.9433 34.8066C14.4147 34.8066 14.7939 34.4193 14.7939 33.9479L15.0623 24.7581C15.1064 24.714 15.2733 24.5711 15.5337 24.5711C15.7901 24.5711 15.9596 24.714 16.0051 24.7581L17.1761 34.0682C17.1788 34.0719 17.1802 34.0788 17.1802 34.0788C17.2443 34.4887 17.5968 34.8066 18.0214 34.8066C18.0334 34.8066 18.0428 34.8025 18.0534 34.7997C18.0628 34.8025 18.0748 34.8066 18.0842 34.8066C18.2284 34.8066 18.3512 34.7529 18.4607 34.6757C18.7091 34.5287 18.876 34.2589 18.876 33.9479Z" fill="#18191B"/>
</g>
<defs>
<clipPath id="clip0_770_605">
<rect width="40" height="40" fill="white"/>
</clipPath>
</defs>
</svg>
