<svg width="40" height="40" viewBox="0 0 40 40" fill="none" xmlns="http://www.w3.org/2000/svg">
<g clip-path="url(#clip0_770_623)">
<path d="M30 0.75H10C4.89137 0.75 0.75 4.89137 0.75 10V30C0.75 35.1086 4.89137 39.25 10 39.25H30C35.1086 39.25 39.25 35.1086 39.25 30V10C39.25 4.89137 35.1086 0.75 30 0.75Z" fill="white"/>
<path d="M29.4883 23.5801C29.4921 23.5825 29.4939 23.5852 29.4951 23.5869C29.4965 23.5889 29.4982 23.5922 29.499 23.5957C29.5005 23.6024 29.4998 23.6108 29.4941 23.6201L29.4854 23.6328C29.4783 23.6441 29.4683 23.6615 29.4551 23.6826C29.4287 23.7249 29.3909 23.785 29.3457 23.8574C29.255 24.0027 29.1333 24.1969 29.0117 24.3916C28.8071 24.7192 28.5961 25.056 28.5312 25.1602L26.1924 26.9863L26.1709 27.0039L20.6758 31.293L20.6543 31.3096L20.6416 31.3213L18.3232 33.1328L18.3193 33.1357L18.2891 33.1406L18.2471 33.1543L16.6016 33.6885L16.5986 33.6895C16.595 33.6906 16.5924 33.6906 16.5908 33.6904C16.5889 33.6903 16.5865 33.6897 16.584 33.6885C16.5813 33.6871 16.5783 33.685 16.5762 33.6826C16.5743 33.6804 16.5713 33.6767 16.5693 33.6709C16.5687 33.6686 16.5692 33.6666 16.5693 33.665C16.5695 33.6627 16.57 33.6597 16.5713 33.6572C16.5725 33.6549 16.5741 33.6533 16.5752 33.6523L16.582 33.6494L16.5889 33.6475L18.2275 33.1133L18.3115 33.0859L18.3809 33.0322L28.4268 25.1787L28.4961 25.125L28.542 25.0508L29.4551 23.5928C29.4649 23.5772 29.4794 23.5757 29.4883 23.5801Z" fill="#18191B" stroke="#18191B"/>
<mask id="path-3-inside-1_770_623" fill="white">
<path d="M21.6019 33.618C21.2997 33.8529 20.86 33.8 20.6201 33.494C20.3852 33.1914 20.4368 32.7534 20.7424 32.5139C21.0467 32.279 21.4864 32.3319 21.7247 32.6294C21.9591 32.9405 21.9062 33.3785 21.6019 33.618ZM20.615 32.3484C20.2218 32.659 20.1524 33.2244 20.458 33.6214C20.7674 34.015 21.3345 34.0844 21.731 33.775C22.1229 33.4724 22.194 32.899 21.8846 32.5054C21.5757 32.1135 21.0069 32.0424 20.615 32.3484Z"/>
</mask>
<path d="M21.6019 33.618C21.2997 33.8529 20.86 33.8 20.6201 33.494C20.3852 33.1914 20.4368 32.7534 20.7424 32.5139C21.0467 32.279 21.4864 32.3319 21.7247 32.6294C21.9591 32.9405 21.9062 33.3785 21.6019 33.618ZM20.615 32.3484C20.2218 32.659 20.1524 33.2244 20.458 33.6214C20.7674 34.015 21.3345 34.0844 21.731 33.775C22.1229 33.4724 22.194 32.899 21.8846 32.5054C21.5757 32.1135 21.0069 32.0424 20.615 32.3484Z" fill="#18191B"/>
<path d="M21.6019 33.618L22.2156 34.4075L22.2204 34.4038L21.6019 33.618ZM20.6201 33.494L19.8301 34.1072L19.8331 34.111L20.6201 33.494ZM20.7424 32.5139L20.1313 31.7223L20.1255 31.7268L20.7424 32.5139ZM21.7247 32.6294L22.5234 32.0276L22.5144 32.0158L22.5052 32.0042L21.7247 32.6294ZM20.615 32.3484L19.9995 31.5602L19.9951 31.5637L20.615 32.3484ZM20.458 33.6214L19.6655 34.2314L19.6718 34.2394L20.458 33.6214ZM21.731 33.775L21.1198 32.9835L21.1158 32.9866L21.731 33.775ZM21.8846 32.5054L22.6708 31.8874L22.6699 31.8863L21.8846 32.5054ZM21.6019 33.618L20.9882 32.8284C21.1226 32.724 21.3086 32.7515 21.4071 32.877L20.6201 33.494L19.8331 34.111C20.4113 34.8485 21.4768 34.9818 22.2156 34.4075L21.6019 33.618ZM20.6201 33.494L21.41 32.8808C21.5115 33.0116 21.4883 33.1998 21.3592 33.301L20.7424 32.5139L20.1255 31.7268C19.3852 32.307 19.2588 33.3712 19.8302 34.1072L20.6201 33.494ZM20.7424 32.5139L21.3534 33.3055C21.2278 33.4024 21.0481 33.3843 20.9442 33.2545L21.7247 32.6294L22.5052 32.0042C21.9246 31.2794 20.8656 31.1555 20.1313 31.7223L20.7424 32.5139ZM21.7247 32.6294L20.926 33.2311C20.8404 33.1176 20.8505 32.9368 20.9834 32.8322L21.6019 33.618L22.2204 34.4038C22.9618 33.8202 23.0777 32.7634 22.5234 32.0276L21.7247 32.6294ZM20.615 32.3484L19.9951 31.5637C19.1715 32.2142 19.0267 33.4014 19.6656 34.2314L20.458 33.6214L21.2504 33.0114C21.2781 33.0473 21.272 33.1037 21.2348 33.1331L20.615 32.3484ZM20.458 33.6214L19.6718 34.2394C20.3221 35.0666 21.5159 35.2112 22.3462 34.5634L21.731 33.775L21.1158 32.9866C21.153 32.9575 21.2127 32.9633 21.2442 33.0034L20.458 33.6214ZM21.731 33.775L22.3421 34.5665C23.1772 33.9217 23.321 32.7145 22.6708 31.8874L21.8846 32.5054L21.0984 33.1234C21.0809 33.1012 21.0756 33.0741 21.0781 33.0533C21.0806 33.0327 21.0927 33.0044 21.1198 32.9835L21.731 33.775ZM21.8846 32.5054L22.6699 31.8863C22.0241 31.0669 20.8302 30.9116 19.9995 31.5602L20.615 32.3484L21.2304 33.1366C21.1836 33.1731 21.1273 33.16 21.0992 33.1244L21.8846 32.5054Z" fill="#18191B" mask="url(#path-3-inside-1_770_623)"/>
<mask id="path-5-inside-2_770_623" fill="white">
<path d="M28.2228 28.4388C27.9236 28.6783 27.4839 28.6207 27.2456 28.3198C27.0112 28.0138 27.0624 27.5758 27.3679 27.3392C27.6672 27.0997 28.1086 27.1543 28.3451 27.4552C28.5834 27.7658 28.5305 28.2039 28.2228 28.4388ZM27.2393 27.1742C26.8474 27.4848 26.7763 28.0502 27.0823 28.4468C27.3895 28.8404 27.9583 28.9098 28.3519 28.6038C28.7434 28.2948 28.8145 27.7244 28.5089 27.3261C28.2029 26.9376 27.6324 26.8682 27.2393 27.1742Z"/>
</mask>
<path d="M28.2228 28.4388C27.9236 28.6783 27.4839 28.6207 27.2456 28.3198C27.0112 28.0138 27.0624 27.5758 27.3679 27.3392C27.6672 27.0997 28.1086 27.1543 28.3451 27.4552C28.5834 27.7658 28.5305 28.2039 28.2228 28.4388ZM27.2393 27.1742C26.8474 27.4848 26.7763 28.0502 27.0823 28.4468C27.3895 28.8404 27.9583 28.9098 28.3519 28.6038C28.7434 28.2948 28.8145 27.7244 28.5089 27.3261C28.2029 26.9376 27.6324 26.8682 27.2393 27.1742Z" fill="#18191B"/>
<path d="M28.2228 28.4388L27.616 27.644L27.6068 27.6509L27.5978 27.6581L28.2228 28.4388ZM27.2456 28.3198L26.4517 28.9279L26.4566 28.9343L26.4616 28.9407L27.2456 28.3198ZM27.3679 27.3392L27.9802 28.1298L27.9864 28.125L27.9927 28.12L27.3679 27.3392ZM28.3451 27.4552L29.1385 26.8465L29.1313 26.8373L28.3451 27.4552ZM27.2393 27.1742L26.625 26.3851L26.6181 26.3905L27.2393 27.1742ZM27.0823 28.4468L26.2905 29.0577L26.2939 29.0621L27.0823 28.4468ZM28.3519 28.6038L28.9657 29.3933L28.9714 29.3888L28.3519 28.6038ZM28.5089 27.3261L29.3023 26.7173L29.2944 26.7074L28.5089 27.3261ZM28.2228 28.4388L27.5978 27.6581C27.7476 27.5383 27.9367 27.5818 28.0295 27.699L27.2456 28.3198L26.4616 28.9407C27.0311 29.6597 28.0995 29.8184 28.8477 29.2195L28.2228 28.4388ZM27.2456 28.3198L28.0394 27.7117C28.1311 27.8315 28.1206 28.0211 27.9802 28.1298L27.3679 27.3392L26.7556 26.5486C26.0041 27.1306 25.8912 28.1962 26.4517 28.9279L27.2456 28.3198ZM27.3679 27.3392L27.9927 28.12C27.851 28.2334 27.6601 28.202 27.5588 28.0732L28.3451 27.4552L29.1313 26.8373C28.557 26.1066 27.4833 25.9661 26.7431 26.5584L27.3679 27.3392ZM28.3451 27.4552L27.5517 28.0639C27.4642 27.95 27.4697 27.7557 27.616 27.644L28.2228 28.4388L28.8296 29.2337C29.5913 28.6522 29.7025 27.5817 29.1385 26.8465L28.3451 27.4552ZM27.2393 27.1742L26.6181 26.3905C25.7999 27.039 25.6483 28.2253 26.2905 29.0577L27.0823 28.4468L27.874 27.836C27.9043 27.8752 27.8948 27.9307 27.8604 27.9579L27.2393 27.1742ZM27.0823 28.4468L26.2939 29.0621C26.9417 29.8921 28.1382 30.0366 28.9656 29.3933L28.3519 28.6038L27.7381 27.8143C27.7783 27.7831 27.8372 27.7888 27.8706 27.8316L27.0823 28.4468ZM28.3519 28.6038L28.9714 29.3888C29.7941 28.7394 29.9393 27.5477 29.3022 26.7174L28.5089 27.3261L27.7155 27.9349C27.6896 27.9011 27.6926 27.8502 27.7323 27.8189L28.3519 28.6038ZM28.5089 27.3261L29.2944 26.7074C28.6465 25.8847 27.4501 25.7429 26.625 26.3851L27.2393 27.1742L27.8535 27.9633C27.832 27.9801 27.8064 27.9849 27.7873 27.9826C27.7684 27.9803 27.7425 27.9693 27.7233 27.9449L28.5089 27.3261Z" fill="#18191B" mask="url(#path-5-inside-2_770_623)"/>
<path d="M25.3193 6.50195C26.7236 6.45349 27.899 7.54718 27.9443 8.95215V8.9541C27.9942 10.3558 26.898 11.5328 25.4951 11.5811H25.4932C24.1811 11.6303 23.0645 10.6693 22.8867 9.3877L22.8643 9.12793C22.8168 7.727 23.9171 6.55041 25.3193 6.50195Z" fill="#18191B" stroke="#18191B"/>
<path d="M12.6436 10.1005C14.9066 8.45004 17.1013 8.74803 18.7783 9.49506L18.793 9.50189L18.8086 9.50775L18.8105 9.50873C18.812 9.50929 18.8145 9.50959 18.8174 9.51068C18.8238 9.51308 18.8333 9.517 18.8447 9.52142C18.868 9.53039 18.8987 9.54211 18.9287 9.55463L19.0879 9.62201L19.2559 9.57513C19.9165 9.39011 20.631 9.45608 21.1348 9.75287C21.8273 10.1742 22.3744 11.1325 22.3896 11.9872L22.3936 12.2079L22.5596 12.3535C22.8227 12.5847 23.0969 12.9106 23.54 13.4892L24.0449 14.1581C25.7079 16.5547 26.767 18.5709 27.4492 20.2714V20.2724C27.8051 21.1645 28.0513 21.7825 28.208 22.1777C28.2863 22.375 28.3424 22.517 28.3789 22.6093C28.3928 22.6446 28.4038 22.6731 28.4121 22.6943V22.7031L28.4453 22.789C28.4586 22.8239 28.4668 22.8683 28.4668 22.9091C28.4666 23.128 28.2912 23.3014 28.0762 23.3017C27.9245 23.3017 27.7875 23.2117 27.7227 23.082V23.079C27.7217 23.0756 27.7199 23.0707 27.7188 23.0663C27.7164 23.0578 27.7135 23.047 27.71 23.0351L27.707 23.0253L27.7041 23.0165L27.5283 22.5595C27.305 22.0228 26.8684 21.088 26.0605 19.6953L25.5303 18.8046C24.5135 16.9339 22.7956 14.7703 22.1426 13.9755L21.7256 13.4687L21.3477 14.0038L19.2822 16.9247L18.9375 17.413L19.4785 17.666C20.6287 18.2053 21.7124 18.8895 22.6904 19.6972L23.1025 20.0507C23.6762 20.568 24.2786 21.2354 24.5186 21.8974L24.5615 22.0302C24.596 22.15 24.8898 23.1402 23.1514 27.496C22.7697 28.2298 22.3673 29.0546 21.8906 29.6464L21.877 29.663L21.8652 29.6806C21.872 29.6706 21.8756 29.6661 21.8682 29.6747C21.8665 29.6767 21.865 29.6795 21.8623 29.6826C21.8599 29.6853 21.856 29.6894 21.8525 29.6933C21.8455 29.7014 21.8357 29.7126 21.8252 29.7255L21.8125 29.7411L21.8096 29.7451L21.8027 29.7529L21.7998 29.7558C21.7768 29.7804 21.7403 29.8113 21.6953 29.8408C21.4373 30.0025 21.0998 29.9245 20.9375 29.663L20.8828 29.5536C20.8438 29.4456 20.8423 29.3273 20.876 29.2109L20.3955 29.0722H20.4404L20.8857 29.1601C20.9677 28.744 21.1614 28.1379 21.4102 27.4277C21.533 27.0768 21.6667 26.7075 21.8027 26.332C21.9384 25.9575 22.0766 25.5762 22.207 25.205C22.4661 24.4675 22.7028 23.7469 22.833 23.1718C22.8975 22.8868 22.9423 22.6102 22.9424 22.373C22.9424 22.1753 22.914 21.8305 22.6445 21.6103H22.6455C22.4659 21.4622 22.1455 21.2811 21.7998 21.0995C21.4375 20.9093 20.9946 20.6919 20.5361 20.4687C19.6078 20.0167 18.6223 19.5461 18.0176 19.2011L16.8008 18.5068L17.3037 19.8144C18.1659 22.0579 18.3724 24.4908 18.0859 26.7704C17.8768 28.3843 17.2102 31.8808 17.1436 32.2294L17.1426 32.2304C17.1154 32.3727 17.0334 32.5002 16.8965 32.5859L16.8955 32.5869C16.6375 32.7489 16.2915 32.669 16.1279 32.4091C16.0772 32.3232 16.0515 32.2276 16.0488 32.1347V32.1328C16.0493 32.1187 16.0499 32.0975 16.0508 32.0703C16.0525 32.0158 16.0544 31.9358 16.0576 31.8339C16.064 31.6295 16.073 31.3365 16.084 30.9824C16.1059 30.274 16.1357 29.3205 16.165 28.3408C16.2235 26.3877 16.2827 24.3135 16.2842 23.8828V23.8671L16.2832 23.8515C16.2678 23.5915 16.2947 23.2584 16.1221 22.5585C15.9542 21.8782 15.5982 20.8333 14.834 19.0351C14.7355 18.7487 14.6714 18.5013 14.6582 18.29L14.6543 18.2187L14.6299 18.1513C14.4395 17.6233 14.4812 17.0106 14.7949 16.4872L14.8066 16.4658L17.7695 10.9365L18.0498 10.413L17.4863 10.2255C16.2982 9.83012 15.1604 10.0516 14.2754 10.4013C13.3906 10.751 12.7145 11.2469 12.4307 11.4531L12.4238 11.4579L12.417 11.4638C11.9043 11.8642 11.1952 12.597 11.168 12.6279L11.1641 12.6318C11.0985 12.6938 11.013 12.7291 10.9199 12.7353L10.8564 12.7392C10.8403 12.7376 10.8212 12.7367 10.8008 12.7324H10.7979C10.79 12.7291 10.7816 12.7258 10.7725 12.7226L10.7734 12.7216C10.6956 12.6942 10.6456 12.6612 10.6133 12.6269L10.6064 12.6191L10.5625 12.5654C10.4735 12.4317 10.4781 12.2479 10.5869 12.1122L10.585 12.1103C10.6172 12.0705 10.6432 12.0293 10.6611 11.9863C10.8263 11.6978 11.1217 11.354 11.4844 11.0126C11.8565 10.6623 12.2705 10.3418 12.6191 10.1181L12.6318 10.1093L12.6436 10.1005ZM10.9189 12.7997C10.9203 12.8007 10.9216 12.8018 10.9229 12.8027C10.9218 12.8019 10.9194 12.8002 10.916 12.7978C10.917 12.7984 10.9182 12.7992 10.9189 12.7997Z" fill="#18191B" stroke="#18191B"/>
</g>
<defs>
<clipPath id="clip0_770_623">
<rect width="40" height="40" fill="white"/>
</clipPath>
</defs>
</svg>
