<svg width="40" height="40" viewBox="0 0 40 40" fill="none" xmlns="http://www.w3.org/2000/svg">
<g clip-path="url(#clip0_770_630)">
<path d="M30 0.75H10C4.89137 0.75 0.75 4.89137 0.75 10V30C0.75 35.1086 4.89137 39.25 10 39.25H30C35.1086 39.25 39.25 35.1086 39.25 30V10C39.25 4.89137 35.1086 0.75 30 0.75Z" fill="white"/>
<path d="M30.5386 20.328C31.3704 19.7205 32.5372 19.9067 33.1401 20.7411L33.1421 20.743C33.7492 21.5742 33.5653 22.7389 32.728 23.3485C31.8956 23.9544 30.7282 23.7711 30.1226 22.9335V22.9325L30.0181 22.7733C29.5425 21.9576 29.7536 20.8983 30.5376 20.329L30.5386 20.328Z" fill="#18191B" stroke="#18191B"/>
<mask id="path-3-inside-1_770_630" fill="white">
<path d="M32.5683 29.0518C32.4604 29.2486 32.457 29.2051 31.9569 29.1041L28.1715 28.3712C28.0603 28.6305 27.8022 28.8106 27.5047 28.8106C27.3609 28.8106 27.2236 28.771 27.1059 28.6893C27.0765 28.6687 26.9946 28.6076 26.7233 28.3879C26.6024 28.2869 26.4422 28.1529 26.2591 27.996L17.1584 26.2271L17.0146 26.9564L31.9079 29.8422C32.4538 29.8691 32.9539 30.1691 33.0781 29.2346C33.1043 29.0453 32.6958 28.8655 32.5683 29.0518Z"/>
</mask>
<path d="M32.5683 29.0518C32.4604 29.2486 32.457 29.2051 31.9569 29.1041L28.1715 28.3712C28.0603 28.6305 27.8022 28.8106 27.5047 28.8106C27.3609 28.8106 27.2236 28.771 27.1059 28.6893C27.0765 28.6687 26.9946 28.6076 26.7233 28.3879C26.6024 28.2869 26.4422 28.1529 26.2591 27.996L17.1584 26.2271L17.0146 26.9564L31.9079 29.8422C32.4538 29.8691 32.9539 30.1691 33.0781 29.2346C33.1043 29.0453 32.6958 28.8655 32.5683 29.0518Z" fill="#18191B"/>
<path d="M32.5683 29.0518L31.743 28.487L31.7151 28.5278L31.6914 28.5711L32.5683 29.0518ZM31.9569 29.1041L32.1549 28.1239L32.147 28.1223L31.9569 29.1041ZM28.1715 28.3712L28.3616 27.3894L27.5702 27.2362L27.2525 27.9771L28.1715 28.3712ZM27.1059 28.6893L26.532 29.5083L26.5356 29.5108L27.1059 28.6893ZM26.7233 28.3879L26.0822 29.1554L26.0881 29.1602L26.094 29.165L26.7233 28.3879ZM26.2591 27.996L26.9098 27.2367L26.7093 27.0648L26.4499 27.0144L26.2591 27.996ZM17.1584 26.2271L17.3492 25.2455L16.3703 25.0552L16.1773 26.0337L17.1584 26.2271ZM17.0146 26.9564L16.0335 26.763L15.8395 27.7473L16.8244 27.9382L17.0146 26.9564ZM31.9079 29.8422L31.7176 30.824L31.7875 30.8375L31.8586 30.841L31.9079 29.8422ZM33.0781 29.2346L32.0876 29.0975L32.0869 29.1029L33.0781 29.2346ZM32.5683 29.0518L31.6914 28.5711C31.6794 28.5929 31.6831 28.585 31.6942 28.5679C31.7055 28.5507 31.7435 28.4939 31.8107 28.4304C31.8858 28.3594 31.9864 28.2903 32.1116 28.2439C32.2307 28.1997 32.333 28.1906 32.3954 28.1897C32.4532 28.1889 32.4912 28.1951 32.4917 28.1951C32.4938 28.1955 32.4853 28.1942 32.454 28.1876C32.4124 28.1789 32.2775 28.1486 32.1549 28.1239L31.9569 29.1041L31.759 30.0843C31.8865 30.1101 31.9395 30.1232 32.0425 30.1448C32.099 30.1567 32.2568 30.1919 32.424 30.1895C32.6673 30.1861 32.9484 30.107 33.1844 29.884C33.3415 29.7355 33.4322 29.5562 33.4451 29.5326L32.5683 29.0518ZM31.9569 29.1041L32.147 28.1223L28.3616 27.3894L28.1715 28.3712L27.9815 29.353L31.7669 30.0859L31.9569 29.1041ZM28.1715 28.3712L27.2525 27.9771C27.2943 27.8795 27.3907 27.8106 27.5047 27.8106V28.8106V29.8106C28.2136 29.8106 28.8264 29.3815 29.0906 28.7653L28.1715 28.3712ZM27.5047 28.8106V27.8106C27.5479 27.8106 27.613 27.8241 27.6761 27.8678L27.1059 28.6893L26.5356 29.5108C26.8341 29.718 27.1738 29.8106 27.5047 29.8106V28.8106ZM27.1059 28.6893L27.6797 27.8703C27.6833 27.8729 27.6278 27.8336 27.3527 27.6108L26.7233 28.3879L26.094 29.165C26.3615 29.3816 26.4696 29.4646 26.532 29.5083L27.1059 28.6893ZM26.7233 28.3879L27.3645 27.6205C27.2441 27.5199 27.0879 27.3892 26.9098 27.2367L26.2591 27.996L25.6085 28.7554C25.7966 28.9166 25.9608 29.0539 26.0822 29.1554L26.7233 28.3879ZM26.2591 27.996L26.4499 27.0144L17.3492 25.2455L17.1584 26.2271L16.9677 27.2087L26.0684 28.9776L26.2591 27.996ZM17.1584 26.2271L16.1773 26.0337L16.0335 26.763L17.0146 26.9564L17.9958 27.1499L18.1396 26.4206L17.1584 26.2271ZM17.0146 26.9564L16.8244 27.9382L31.7176 30.824L31.9079 29.8422L32.0981 28.8605L17.2049 25.9747L17.0146 26.9564ZM31.9079 29.8422L31.8586 30.841C31.9368 30.8448 31.9898 30.8563 32.167 30.8807C32.2939 30.8981 32.5542 30.9336 32.8322 30.8824C33.1668 30.8208 33.4973 30.642 33.7356 30.3057C33.9425 30.0137 34.0286 29.6738 34.0694 29.3664L33.0781 29.2346L32.0869 29.1029C32.0773 29.175 32.0673 29.2098 32.0644 29.2184C32.0617 29.2268 32.0702 29.1967 32.1037 29.1494C32.14 29.0983 32.1963 29.04 32.2744 28.9922C32.3509 28.9453 32.422 28.9243 32.47 28.9155C32.5141 28.9074 32.538 28.9095 32.5276 28.9091C32.5167 28.9086 32.4925 28.9066 32.44 28.8994C32.4144 28.8959 32.3879 28.8919 32.3539 28.8869C32.3218 28.8822 32.2836 28.8766 32.2439 28.8712C32.1645 28.8604 32.0656 28.8488 31.9571 28.8434L31.9079 29.8422ZM33.0781 29.2346L34.0687 29.3717C34.1299 28.9299 33.923 28.5997 33.7698 28.43C33.6114 28.2545 33.4209 28.1405 33.248 28.0722C33.0758 28.0042 32.8468 27.9525 32.5918 27.9816C32.3227 28.0124 31.9769 28.1452 31.743 28.487L32.5683 29.0518L33.3935 29.6166C33.2233 29.8652 32.9765 29.9507 32.819 29.9687C32.6757 29.9851 32.5711 29.9552 32.5136 29.9325C32.4556 29.9096 32.3702 29.8643 32.2851 29.77C32.2052 29.6814 32.0395 29.4446 32.0876 29.0975L33.0781 29.2346Z" fill="#18191B" mask="url(#path-3-inside-1_770_630)"/>
<mask id="path-5-inside-2_770_630" fill="white">
<path d="M31.6561 29.5549C31.3259 30.1335 31.1559 30.0681 30.6852 29.9763L16.972 27.2833L16.9263 27.5184L30.6591 30.2293C31.3455 30.3849 31.6855 30.0096 31.8293 29.689C31.8816 29.5817 31.6463 29.6762 31.6561 29.5549Z"/>
</mask>
<path d="M31.6561 29.5549C31.3259 30.1335 31.1559 30.0681 30.6852 29.9763L16.972 27.2833L16.9263 27.5184L30.6591 30.2293C31.3455 30.3849 31.6855 30.0096 31.8293 29.689C31.8816 29.5817 31.6463 29.6762 31.6561 29.5549Z" fill="#18191B"/>
<path d="M31.6561 29.5549L32.6528 29.6355L30.7875 29.0593L31.6561 29.5549ZM30.6852 29.9763L30.4925 30.9576L30.4937 30.9578L30.6852 29.9763ZM16.972 27.2833L17.1647 26.3021L16.1815 26.109L15.9903 27.0925L16.972 27.2833ZM16.9263 27.5184L15.9446 27.3276L15.7544 28.3064L16.7326 28.4995L16.9263 27.5184ZM30.6591 30.2293L30.8801 29.2541L30.8665 29.251L30.8527 29.2483L30.6591 30.2293ZM31.8293 29.689L30.9304 29.2509L30.9234 29.2652L30.9168 29.2798L31.8293 29.689ZM31.6561 29.5549L30.7875 29.0593C30.7569 29.113 30.734 29.1488 30.7181 29.1717C30.702 29.1948 30.6973 29.1985 30.7044 29.191C30.712 29.1829 30.7351 29.1599 30.7748 29.1336C30.8164 29.106 30.8674 29.0805 30.9254 29.0624C31.0408 29.0264 31.1213 29.0392 31.1028 29.0371C31.094 29.0361 31.0744 29.0332 31.0329 29.0255C31.0129 29.0217 30.9909 29.0174 30.9642 29.0121C30.9389 29.0071 30.9078 29.0009 30.8766 28.9948L30.6852 29.9763L30.4937 30.9578C30.5779 30.9742 30.7367 31.0082 30.8752 31.0241C31.0313 31.042 31.2632 31.0521 31.5212 30.9716C32.0589 30.8038 32.3475 30.3609 32.5246 30.0506L31.6561 29.5549ZM30.6852 29.9763L30.8779 28.9951L17.1647 26.3021L16.972 27.2833L16.7793 28.2646L30.4925 30.9576L30.6852 29.9763ZM16.972 27.2833L15.9903 27.0925L15.9446 27.3276L16.9263 27.5184L17.9079 27.7092L17.9536 27.4741L16.972 27.2833ZM16.9263 27.5184L16.7326 28.4995L30.4654 31.2104L30.6591 30.2293L30.8527 29.2483L17.1199 26.5374L16.9263 27.5184ZM30.6591 30.2293L30.438 31.2046C31.0026 31.3326 31.5296 31.2575 31.9661 30.9929C32.3779 30.7432 32.6141 30.3828 32.7417 30.0983L31.8293 29.689L30.9168 29.2798C30.9106 29.2938 30.9051 29.3013 30.9041 29.3025C30.9039 29.3028 30.9115 29.2934 30.9292 29.2826C30.9379 29.2774 30.9472 29.273 30.9561 29.2698C30.9651 29.2665 30.971 29.2655 30.9725 29.2653C30.9764 29.2648 30.9491 29.2697 30.8801 29.2541L30.6591 30.2293ZM31.8293 29.689L32.7282 30.1272C32.756 30.0702 32.79 29.9883 32.8124 29.8862C32.8352 29.7827 32.8495 29.6427 32.821 29.4822C32.7912 29.3147 32.7202 29.1576 32.6146 29.0248C32.5134 28.8976 32.4 28.8168 32.3104 28.7667C32.2223 28.7175 32.143 28.6902 32.0898 28.6747C32.0353 28.6588 31.9888 28.6499 31.9585 28.6449C31.9274 28.6398 31.9014 28.6367 31.8861 28.635C31.8721 28.6335 31.857 28.6321 31.8551 28.6319C31.84 28.6304 31.8661 28.6324 31.9007 28.6388C31.9332 28.6447 32.0236 28.6629 32.1315 28.7165C32.2478 28.7743 32.4093 28.8864 32.5263 29.0867C32.6449 29.2898 32.6644 29.4919 32.6528 29.6355L31.6561 29.5549L30.6593 29.4744C30.6453 29.6483 30.67 29.874 30.7994 30.0955C30.9272 30.3143 31.105 30.4397 31.2412 30.5074C31.369 30.5709 31.4827 30.5955 31.54 30.606C31.5993 30.6169 31.6517 30.6215 31.6621 30.6226C31.69 30.6253 31.6618 30.623 31.6313 30.6179C31.612 30.6147 31.5759 30.6081 31.5308 30.595C31.487 30.5822 31.4162 30.5581 31.3354 30.513C31.2531 30.467 31.1457 30.391 31.0492 30.2696C30.9481 30.1425 30.8803 29.9922 30.8519 29.8326C30.8248 29.6801 30.8387 29.5492 30.8592 29.4561C30.8794 29.3645 30.9091 29.2945 30.9304 29.2509L31.8293 29.689Z" fill="#18191B" mask="url(#path-5-inside-2_770_630)"/>
<path d="M10.4785 9.75C10.5515 9.55592 10.7669 9.45233 10.9678 9.52148L10.9707 9.52246C11.0793 9.55936 11.1657 9.64851 11.2061 9.76758C11.2067 9.76963 11.2083 9.77138 11.209 9.77344L11.2266 9.83105C11.2414 9.88123 11.2634 9.95454 11.291 10.0479C11.3466 10.2354 11.4258 10.5044 11.5215 10.8262C11.7129 11.4696 11.9699 12.3279 12.2295 13.1885C12.489 14.0487 12.7518 14.9131 12.957 15.5664C13.0595 15.8925 13.1487 16.1698 13.2158 16.3682C13.249 16.4662 13.2794 16.5502 13.3037 16.6133C13.3154 16.6437 13.3293 16.6781 13.3438 16.709C13.3505 16.7234 13.3617 16.7479 13.3779 16.7744C13.386 16.7876 13.4011 16.8106 13.4219 16.8359C13.4368 16.8542 13.4849 16.9113 13.5664 16.957L13.6318 16.9941L13.7051 17.0098C14.4064 17.1616 17.8298 17.8487 21.0693 18.4961C22.6908 18.8201 24.2689 19.1346 25.4414 19.3682C26.0275 19.4849 26.5122 19.5821 26.8506 19.6494C27.0198 19.6831 27.1529 19.7096 27.2432 19.7275C27.2881 19.7365 27.3225 19.7434 27.3457 19.748C27.3539 19.7497 27.3609 19.7499 27.3662 19.751V19.752C28.0927 19.9199 28.5603 20.473 28.6191 21.0117L28.624 21.0537L28.6357 21.0938C28.6471 21.1337 28.6599 21.2308 28.6582 21.3516C28.6574 21.4077 28.6536 21.4595 28.6475 21.502C28.6409 21.5474 28.6338 21.5674 28.6338 21.5674L28.6318 21.5732C28.3702 22.2674 27.6484 22.7593 26.8232 23.2285C26.4435 23.4445 26.0208 23.6681 25.71 23.8877C25.5509 24.0001 25.3909 24.131 25.2666 24.2861C25.1555 24.4249 25.0583 24.6017 25.0312 24.8135L25.0234 24.9072C25.0114 25.1928 25.1094 25.4595 25.2422 25.6914C25.3784 25.9293 25.5711 26.1655 25.7949 26.3975C26.2421 26.8609 26.8723 27.3684 27.5977 27.9102L27.6055 27.916L27.6133 27.9209C27.6646 27.9562 27.6982 28.0153 27.6982 28.0811C27.6982 28.1844 27.6101 28.2733 27.5049 28.2734C27.4699 28.2734 27.4374 28.2636 27.4023 28.2422C27.398 28.2388 27.3932 28.2348 27.3877 28.2305C27.3585 28.2074 27.3147 28.1729 27.2588 28.1279C27.1468 28.0379 26.9859 27.9072 26.7939 27.7471C26.4095 27.4265 25.9016 26.9893 25.4014 26.5225C24.8981 26.0527 24.4159 25.5643 24.0762 25.1396C23.9056 24.9264 23.7829 24.7452 23.7109 24.6016C23.6677 24.5152 23.6543 24.4643 23.6494 24.4424C23.6564 24.4284 23.6683 24.4043 23.6924 24.3711C23.737 24.3095 23.8037 24.2352 23.8916 24.1504C24.068 23.9803 24.2975 23.8008 24.5312 23.6289C24.7361 23.4782 25.0106 23.2866 25.1494 23.1826C25.2205 23.1294 25.3139 23.0572 25.3799 22.9854C25.3986 22.9649 25.4269 22.9326 25.4531 22.8906C25.4744 22.8566 25.5248 22.7692 25.5342 22.6465C25.5462 22.4873 25.4835 22.3162 25.3389 22.2031C25.2291 22.1175 25.1153 22.0998 25.0693 22.0947H25.0703C23.8406 21.9543 22.1525 21.766 20.6914 21.6123C19.2508 21.4607 17.9815 21.3369 17.6289 21.3369H17.5605L17.4951 21.3555C17.4942 21.3557 17.4772 21.3602 17.4355 21.3672C17.395 21.374 17.3415 21.3812 17.2754 21.3896C17.1433 21.4065 16.9696 21.4255 16.7646 21.4434C16.3551 21.479 15.8294 21.5117 15.2734 21.5273C14.7164 21.543 14.135 21.5413 13.6133 21.5088C13.0829 21.4757 12.6482 21.4127 12.3652 21.3203C11.7204 21.1094 10.3758 20.3984 9.12207 19.6992C8.50616 19.3557 7.92781 19.0241 7.49121 18.7734C7.27358 18.6485 7.08883 18.5422 6.9541 18.4658C6.88717 18.4279 6.83011 18.396 6.78613 18.3721C6.77733 18.3673 6.76367 18.3623 6.74902 18.3545L6.74707 18.3525C6.74272 18.3495 6.73866 18.3469 6.73535 18.3447C6.73365 18.3436 6.73193 18.3418 6.73047 18.3408L6.72852 18.3398L6.72754 18.3389H6.72656L6.7041 18.3242L6.67969 18.3125L6.61816 18.2734C6.56234 18.2283 6.52148 18.164 6.50586 18.0879C6.47352 17.9189 6.58485 17.7474 6.76465 17.7119L6.76367 17.7109C6.84838 17.6948 6.92442 17.712 6.9873 17.752L6.99316 17.7568L7.0166 17.7715C7.0476 17.791 7.87079 18.3011 8.9834 18.8906C10.0899 19.4769 11.5166 20.1607 12.7432 20.5078H12.7441C13.7657 20.7951 14.8418 20.7346 15.6621 20.6113C16.0763 20.5491 16.4351 20.4694 16.7012 20.4043C16.8336 20.3719 16.9452 20.3428 17.0244 20.3223C17.1267 20.2958 17.137 20.2947 17.1182 20.2969L17.6982 20.2295L17.5508 19.6992C17.5509 19.6965 17.5516 19.6935 17.5518 19.6904L18.2764 19.0811L17.208 18.9023C16.0611 18.7112 14.5918 18.3919 13.7275 18.1094C13.3961 17.9926 13.0674 17.8804 12.7891 17.7295C12.5025 17.574 12.3648 17.4265 12.3184 17.293L12.3135 17.2783L12.3076 17.2637L12.2471 17.0908C12.1719 16.8525 12.0536 16.425 11.9072 15.8652C11.7179 15.141 11.4934 14.2423 11.2783 13.3643C11.0633 12.4865 10.8578 11.6309 10.7061 10.9951C10.6302 10.6775 10.5678 10.4148 10.5244 10.2314C10.5043 10.1466 10.488 10.0787 10.4766 10.0303L10.4658 9.96484C10.4531 9.89347 10.4567 9.81982 10.4785 9.75Z" fill="#18191B" stroke="#18191B"/>
</g>
<defs>
<clipPath id="clip0_770_630">
<rect width="40" height="40" fill="white"/>
</clipPath>
</defs>
</svg>
