<svg width="40" height="41" viewBox="0 0 40 41" fill="none" xmlns="http://www.w3.org/2000/svg">
<path d="M30 0.75H10C4.89137 0.75 0.75 4.89137 0.75 10V30C0.75 35.1086 4.89137 39.25 10 39.25H30C35.1086 39.25 39.25 35.1086 39.25 30V10C39.25 4.89137 35.1086 0.75 30 0.75Z" fill="white"/>
<path d="M16.7651 7.26843C17.0006 6.58016 17.7511 6.21353 18.439 6.45007V6.45105C19.0837 6.67352 19.4456 7.34663 19.2944 7.9989L19.2573 8.12976C19.021 8.8159 18.2699 9.18146 17.5806 8.94519C16.8948 8.70885 16.5268 7.95725 16.7642 7.26941L16.7651 7.26843Z" fill="#18191B" stroke="#18191B"/>
<mask id="path-3-inside-1_770_641" fill="white">
<path d="M11.1055 31.4839L11.6683 32.0467C16.6795 25.3617 25.8497 22.8647 33.7236 26.5345L34.0594 25.8225C25.8767 22.0063 16.3513 24.574 11.1055 31.4839Z"/>
</mask>
<path d="M11.1055 31.4839L11.6683 32.0467C16.6795 25.3617 25.8497 22.8647 33.7236 26.5345L34.0594 25.8225C25.8767 22.0063 16.3513 24.574 11.1055 31.4839Z" fill="#18191B"/>
<path d="M11.1055 31.4839L10.309 30.8792L9.78146 31.5741L10.3984 32.191L11.1055 31.4839ZM11.6683 32.0467L10.9612 32.7538L11.7767 33.5693L12.4684 32.6465L11.6683 32.0467ZM33.7236 26.5345L33.3011 27.4409L34.2034 27.8614L34.628 26.961L33.7236 26.5345ZM34.0594 25.8225L34.9638 26.249L35.3922 25.3407L34.482 24.9162L34.0594 25.8225ZM11.1055 31.4839L10.3984 32.191L10.9612 32.7538L11.6683 32.0467L12.3754 31.3396L11.8126 30.7768L11.1055 31.4839ZM11.6683 32.0467L12.4684 32.6465C17.2015 26.3325 25.8643 23.9748 33.3011 27.4409L33.7236 26.5345L34.146 25.6281C25.835 21.7546 16.1575 24.3908 10.8681 31.4469L11.6683 32.0467ZM33.7236 26.5345L34.628 26.961L34.9638 26.249L34.0594 25.8225L33.1549 25.3959L32.8191 26.1079L33.7236 26.5345ZM34.0594 25.8225L34.482 24.9162C25.8639 20.8969 15.8337 23.602 10.309 30.8792L11.1055 31.4839L11.9019 32.0885C16.8689 25.546 25.8894 23.1156 33.6367 26.7288L34.0594 25.8225Z" fill="#18191B" mask="url(#path-3-inside-1_770_641)"/>
<path d="M18.8809 10.3264C20.3204 10.098 22.2616 10.0879 23.666 10.8381C23.7959 10.908 24.0261 11.0404 24.25 11.1711L24.7959 11.4963C24.7983 11.498 24.8014 11.4997 24.8047 11.5021L24.8096 11.506C24.8167 11.5122 24.8203 11.517 24.8213 11.5187L24.8223 11.5226C24.8245 11.5371 24.8144 11.5517 24.7969 11.5578C24.7959 11.5578 24.7949 11.5578 24.7939 11.5578L24.5684 11.4289C24.3785 11.3202 24.1099 11.1673 23.9717 11.0998L23.9697 11.0988L23.6299 10.9426C21.9529 10.2131 20.5478 10.178 19.5234 10.3547C18.9803 10.4484 18.5494 10.6004 18.2471 10.7346C18.096 10.8016 17.9764 10.8646 17.8906 10.9133C17.8479 10.9375 17.8139 10.9587 17.7881 10.9748L17.7451 11.0021C17.7432 11.0034 17.7411 11.0045 17.7402 11.0051L17.6953 11.0344L17.6592 11.0724L17.6553 11.0764L17.5137 11.2219V11.2736C17.4088 11.4238 17.3064 11.5837 17.2334 11.7492L17.2246 11.7697C17.2236 11.7721 17.222 11.7745 17.2207 11.7775C17.2136 11.7938 17.2029 11.8174 17.1895 11.8478C17.1625 11.9088 17.1239 11.9954 17.0781 12.0988C16.9864 12.3058 16.8648 12.5806 16.7432 12.8547C16.6216 13.1286 16.5003 13.4025 16.4092 13.6076C16.3637 13.7101 16.3254 13.7959 16.2988 13.8557C16.2856 13.8855 16.2747 13.909 16.2676 13.925C16.264 13.933 16.2616 13.9394 16.2598 13.9435C16.2589 13.9455 16.2583 13.9474 16.2578 13.9484L16.2568 13.9494L15.585 15.4631L16.9824 14.5744C17.8045 14.0517 18.0376 13.752 18.7988 13.6769C18.9527 13.6762 19.117 13.7556 19.3037 13.9592C19.4959 14.1687 19.655 14.4505 19.7852 14.7121H19.7861C19.9911 15.1231 20.2834 15.8163 20.5381 16.466L20.6611 16.7805L20.6797 16.8283C20.7868 17.1118 20.8814 17.361 20.9453 17.55L20.9473 17.5568C20.9473 17.5568 20.948 17.5597 20.9502 17.5666C20.9525 17.5736 20.9553 17.5831 20.959 17.5949C20.9664 17.6189 20.9768 17.6504 20.9883 17.6887C21.0112 17.7651 21.0402 17.866 21.0742 17.9826C21.1423 18.216 21.2275 18.5111 21.3105 18.801C21.3936 19.0907 21.4748 19.3753 21.5352 19.5871C21.5653 19.6928 21.59 19.7807 21.6074 19.842C21.6101 19.8513 21.6129 19.8603 21.6152 19.8683L21.626 19.9162L21.625 19.9123C21.6252 19.9193 21.6245 19.9314 21.623 19.9533L21.6113 20.1223L21.4385 20.0383C21.4087 20.0238 21.3907 20.0039 21.3799 19.9846C21.3768 19.9772 21.3725 19.9683 21.3682 19.9582C21.3555 19.9287 21.337 19.8861 21.3135 19.8322C21.2663 19.7241 21.1983 19.5694 21.1143 19.381C20.9462 19.0042 20.7137 18.4911 20.4561 17.9465L20.4268 17.8849L20.4287 17.883L20.2979 17.6096C20.2883 17.5897 20.2781 17.5699 20.2686 17.55L20.1035 17.2004L20.0986 17.2062C19.845 16.6889 19.5859 16.1783 19.3486 15.7668C19.2002 15.5094 19.0537 15.2759 18.9189 15.0998C18.8523 15.0127 18.7776 14.9245 18.6973 14.8527C18.6341 14.7963 18.4917 14.6789 18.292 14.6584L18.127 14.6418L17.9844 14.7267C17.8686 14.7959 17.7164 14.9078 17.5586 15.0266C17.3883 15.1547 17.2045 15.2962 16.9863 15.4592C16.5574 15.7795 16.0551 16.1375 15.5498 16.425L15.4131 16.5031L15.3457 16.6447C15.3429 16.6506 15.3403 16.6568 15.3379 16.6623L15.0615 17.0441L15.5088 17.3293C15.6136 17.3963 15.7043 17.4577 15.7764 17.5051H15.7773C17.0856 18.3609 18.073 19.6201 18.7031 20.9807V20.9816C18.7934 21.1811 18.9178 21.4452 19.0176 21.6642L19.166 21.9894L19.2285 22.131C19.5331 22.8217 19.7897 23.4851 19.8672 23.9816L19.873 24.0139L19.8818 24.0461C19.8863 24.0615 19.8868 24.0746 19.8838 24.09L19.876 24.1281C19.8729 24.1393 19.8698 24.1518 19.8643 24.1711L19.8262 24.3019L19.7051 24.1994C19.6951 24.191 19.6847 24.1845 19.6758 24.1779L19.6543 24.1564L19.6504 24.1516C19.6424 24.1381 19.6377 24.1293 19.6348 24.1232L19.6279 24.1096L19.6201 24.0969C19.4844 23.8551 19.1128 23.1958 18.7012 22.4689L18.457 22.0383L18.4463 22.0187C17.9155 21.079 17.3725 20.1272 17.2324 19.8996L17.2227 19.884L17.2109 19.8683C17.1297 19.7561 17.021 19.5546 16.6963 19.2394C16.3834 18.9357 15.8601 18.5106 14.8965 17.8371H14.8955C14.829 17.7861 14.7223 17.7095 14.6211 17.6359C14.4922 17.5423 14.34 17.4288 14.1875 17.3058C14.0341 17.1822 13.8869 17.0539 13.7666 16.9299C13.6411 16.8005 13.5695 16.7007 13.5391 16.6369L13.3232 16.7394C13.323 16.7333 13.3218 16.7272 13.3213 16.7209L13.5254 16.6057C13.4198 16.42 13.3762 16.2614 13.3838 16.1682L13.3877 16.1193L13.3867 16.1183C13.39 16.1025 13.3956 16.0791 13.4043 16.0471C13.4272 15.9625 13.4645 15.8454 13.5156 15.6984C13.6175 15.4058 13.765 15.0227 13.9346 14.6008C14.2732 13.7581 14.693 12.7804 14.9971 12.1008L15.6094 10.7326L14.2979 11.4592H14.2969C14.2962 11.4595 14.2952 11.4604 14.2939 11.4611C14.2913 11.4626 14.2874 11.4651 14.2822 11.468C14.2717 11.4738 14.2558 11.482 14.2354 11.4933C14.1942 11.5162 14.1336 11.5504 14.0566 11.593C13.9025 11.6782 13.6816 11.7994 13.417 11.9455C12.8877 12.2377 12.1815 12.6276 11.4727 13.0158C10.7635 13.4042 10.053 13.7908 9.51562 14.0783C9.27904 14.2049 9.07692 14.3094 8.9248 14.3879L8.9209 14.384L8.63574 14.5226L8.625 14.5217L8.62109 14.5187C8.61561 14.5141 8.61257 14.51 8.61133 14.508C8.61034 14.5063 8.60996 14.5039 8.60938 14.5012L8.6084 14.4982C8.6065 14.4893 8.60793 14.482 8.61133 14.4758C8.61518 14.4688 8.62092 14.4656 8.625 14.4641L8.65332 14.4533L8.67969 14.4387C9.91268 13.782 11.559 12.8635 13.002 12.0607C14.4582 11.2505 15.6845 10.5711 16.1064 10.3732L16.1172 10.3683L16.127 10.3625C16.173 10.3383 16.329 10.2967 16.6201 10.2717C16.887 10.2487 17.203 10.2445 17.5146 10.2502C17.8247 10.2558 18.1216 10.2711 18.3467 10.2873C18.437 10.2938 18.5149 10.301 18.5762 10.3068L18.6377 10.3644L18.8809 10.3264Z" fill="#18191B" stroke="#18191B"/>
</svg>
