<svg width="40" height="40" viewBox="0 0 40 40" fill="none" xmlns="http://www.w3.org/2000/svg">
<g clip-path="url(#clip0_770_636)">
<path d="M30 0.75H10C4.89137 0.75 0.75 4.89137 0.75 10V30C0.75 35.1086 4.89137 39.25 10 39.25H30C35.1086 39.25 39.25 35.1086 39.25 30V10C39.25 4.89137 35.1086 0.75 30 0.75Z" fill="white"/>
<mask id="path-2-inside-1_770_636" fill="white">
<path d="M9.41847 12.1505L9 12.5875L30.1119 32.976L30.5333 32.5425L9.41847 12.1505Z"/>
</mask>
<path d="M9.41847 12.1505L9 12.5875L30.1119 32.976L30.5333 32.5425L9.41847 12.1505Z" fill="#18191B"/>
<path d="M9.41847 12.1505L10.1132 11.4312L9.39079 10.7336L8.69622 11.4589L9.41847 12.1505ZM9 12.5875L8.27775 11.8959L7.58904 12.6151L8.30532 13.3068L9 12.5875ZM30.1119 32.976L29.4172 33.6953L30.1342 34.3877L30.8289 33.673L30.1119 32.976ZM30.5333 32.5425L31.2503 33.2395L31.9496 32.5202L31.228 31.8232L30.5333 32.5425ZM9.41847 12.1505L8.69622 11.4589L8.27775 11.8959L9 12.5875L9.72225 13.2791L10.1407 12.8421L9.41847 12.1505ZM9 12.5875L8.30532 13.3068L29.4172 33.6953L30.1119 32.976L30.8066 32.2567L9.69468 11.8682L9 12.5875ZM30.1119 32.976L30.8289 33.673L31.2503 33.2395L30.5333 32.5425L29.8163 31.8455L29.3949 32.279L30.1119 32.976ZM30.5333 32.5425L31.228 31.8232L10.1132 11.4312L9.41847 12.1505L8.72378 12.8698L29.8386 33.2618L30.5333 32.5425Z" fill="#18191B" mask="url(#path-2-inside-1_770_636)"/>
<path d="M14.9043 13.1815L14.7988 13.2391C14.815 13.2957 14.8308 13.3521 14.8242 13.3455L15.2607 13.2166C15.2641 13.1976 15.2676 13.1815 15.2686 13.1697C15.271 13.1379 15.2703 13.1126 15.2695 13.1004C15.2686 13.0863 15.2666 13.0742 15.2656 13.0672C15.2638 13.0537 15.2626 13.0431 15.2617 13.0389L15.3057 13.1951C15.306 13.1966 15.3061 13.1987 15.3066 13.201L15.4023 13.1424L15.6758 13.5184C16.3799 14.4848 17.4665 15.9814 18.377 17.2361C18.8322 17.8636 19.2435 18.4314 19.541 18.8416C19.6897 19.0467 19.8105 19.2124 19.8936 19.327C19.9338 19.3825 19.9655 19.4258 19.9873 19.4559C19.9942 19.4622 20.0002 19.4685 20.0078 19.4725L20.041 19.4822L20.042 19.4832C20.1103 19.4937 20.1698 19.4468 20.1797 19.3836L20.1816 19.3729C20.1848 19.3551 20.1823 19.3278 20.1592 19.2947L20.1523 19.285L20.1465 19.2752L20.1455 19.2742L20.1445 19.2723C20.1433 19.2703 20.1411 19.2673 20.1387 19.2635C20.1338 19.2558 20.1267 19.2443 20.1172 19.2293C20.0981 19.1991 20.0696 19.1539 20.0332 19.0965C19.9604 18.9817 19.8552 18.8155 19.7246 18.6102C19.463 18.1989 19.1001 17.6302 18.6963 16.9998C17.8878 15.7378 16.9159 14.2338 16.2578 13.2527L16.0557 12.951L16.2803 12.6649C16.305 12.6334 16.3306 12.607 16.3555 12.5848C16.3679 12.5737 16.3799 12.5633 16.3916 12.5545L16.418 12.5369C16.4193 12.5361 16.4206 12.5348 16.4219 12.534L16.4238 12.533L16.4248 12.532H16.4258V12.5311L16.791 12.2986L17.0732 12.6277C17.1036 12.6631 17.1304 12.7009 17.1562 12.743L18.3184 14.5096C18.7407 15.1597 19.1789 15.8404 19.5762 16.4598C19.9737 17.0795 20.3305 17.639 20.5898 18.0467C20.7195 18.2505 20.8246 18.4172 20.8984 18.534C20.9319 18.5869 20.9632 18.6384 20.9883 18.6785L21.1035 18.7986V18.8729C21.2035 19.0828 21.2373 19.3165 21.2002 19.5467L21.1992 19.5457C21.1582 19.8055 21.0321 20.0326 20.8525 20.2029C20.938 20.2258 21.0019 20.2638 21.0332 20.283C21.087 20.316 21.137 20.3554 21.1797 20.3914C21.2659 20.4641 21.3623 20.5587 21.4619 20.6639C21.6631 20.8763 21.9147 21.1693 22.1943 21.5096C22.7557 22.1927 23.4539 23.0954 24.1328 23.991C24.8124 24.8875 25.4761 25.7818 25.9697 26.452C26.2166 26.7871 26.4217 27.067 26.5645 27.2625C26.6356 27.36 26.6914 27.4367 26.7295 27.4891C26.7486 27.5153 26.7636 27.536 26.7734 27.5496C26.7781 27.556 26.7817 27.5609 26.7842 27.5643C26.7853 27.5658 26.7865 27.5673 26.7871 27.5682L26.7881 27.5692V27.5701L26.7998 27.5848L26.8096 27.6014C26.8373 27.6462 26.8846 27.683 26.9512 27.6981C27.0817 27.7245 27.2058 27.6406 27.2314 27.5174V27.5145C27.246 27.445 27.2274 27.3711 27.1738 27.3104L27.5488 26.9793H27.5449L27.1396 27.2645L27.1387 27.2635C27.1381 27.2627 27.1378 27.2611 27.1367 27.2596C27.1343 27.2561 27.1307 27.2507 27.126 27.244C27.1166 27.2306 27.1021 27.2112 27.084 27.1854C27.0477 27.1337 26.9942 27.0583 26.9268 26.9617C26.7919 26.7687 26.6002 26.4919 26.3701 26.158C25.9099 25.4902 25.2972 24.5909 24.6904 23.6688C24.0847 22.7483 23.4799 21.7973 23.0371 21.0281C22.8166 20.6451 22.6297 20.2961 22.5029 20.0135C22.4401 19.8734 22.3866 19.7368 22.3516 19.6131C22.3238 19.5148 22.278 19.3294 22.3271 19.1434C22.3761 18.9461 22.3527 18.6367 21.9434 18.033L21.9355 18.0223L21.9297 18.0115L18.2725 11.9803L18.2021 11.8826C18.1298 11.7888 18.0515 11.7058 17.9688 11.6346L17.9668 11.6326C17.9632 11.6297 17.9547 11.623 17.9414 11.6131C17.915 11.5934 17.875 11.5642 17.8252 11.532C17.7215 11.4652 17.5959 11.3972 17.4795 11.3572V11.3563C17.1788 11.2554 16.9986 11.1967 16.6992 11.1942C16.4976 11.2115 16.2972 11.2663 16.1094 11.3602L16.0801 11.3738C16.0565 11.3837 15.987 11.4236 15.875 11.5193C15.7763 11.6037 15.665 11.7135 15.5498 11.8397C15.3873 12.0655 15.2863 12.3284 15.2529 12.6111L15.251 12.6248L15.249 12.6395C15.2371 12.7064 15.2345 12.8194 15.2422 12.9363L15.2617 13.032L14.9043 13.1815ZM14.9043 13.1815L15.2041 13.0203C15.1944 13.0089 15.1754 12.9912 15.1504 12.9695L14.9893 12.9822L14.7715 13.1317L14.7959 13.2274L14.9043 13.1815ZM15.0977 12.9295L15.0537 12.9393L15.0811 12.9197C15.0868 12.9232 15.0925 12.9261 15.0977 12.9295Z" fill="#18191B" stroke="#18191B"/>
<path d="M13.4849 7.77344C14.2272 7.2759 15.2336 7.47399 15.7349 8.2168C16.2019 8.91005 16.0606 9.83756 15.4312 10.3643L15.3003 10.4629C14.5575 10.9618 13.5476 10.7644 13.0493 10.0254V10.0244C12.5488 9.28207 12.7452 8.27538 13.4858 7.77441L13.4849 7.77344Z" fill="#18191B" stroke="#18191B"/>
</g>
<defs>
<clipPath id="clip0_770_636">
<rect width="40" height="40" fill="white"/>
</clipPath>
</defs>
</svg>
