<svg width="40" height="40" viewBox="0 0 40 40" fill="none" xmlns="http://www.w3.org/2000/svg">
<g clip-path="url(#clip0_770_646)">
<path d="M30 0.75H10C4.89137 0.75 0.75 4.89137 0.75 10V30C0.75 35.1086 4.89137 39.25 10 39.25H30C35.1086 39.25 39.25 35.1086 39.25 30V10C39.25 4.89137 35.1086 0.75 30 0.75Z" fill="white"/>
<path d="M18.0821 10.5608C18.9601 9.12948 21.0399 9.12948 21.9179 10.5608L31.2806 25.8235C32.2002 27.3227 31.1214 29.25 29.3626 29.25H10.6373C8.87853 29.25 7.79977 27.3227 8.71943 25.8235L18.0821 10.5608Z" fill="#18191B" stroke="#18191B" stroke-width="1.5"/>
<path d="M20 13.5C20.8284 13.5 21.5 14.1716 21.5 15C21.5 15.8284 20.8284 16.5 20 16.5C19.1716 16.5 18.5 15.8284 18.5 15C18.5 14.1716 19.1716 13.5 20 13.5Z" fill="#18191B" stroke="#18191B"/>
<path d="M17 18.5C17.8284 18.5 18.5 19.1716 18.5 20C18.5 20.8284 17.8284 21.5 17 21.5C16.1716 21.5 15.5 20.8284 15.5 20C15.5 19.1716 16.1716 18.5 17 18.5Z" fill="#18191B" stroke="#18191B"/>
<path d="M14 23.5C14.8284 23.5 15.5 24.1716 15.5 25C15.5 25.8284 14.8284 26.5 14 26.5C13.1716 26.5 12.5 25.8284 12.5 25C12.5 24.1716 13.1716 23.5 14 23.5Z" fill="#18191B" stroke="#18191B"/>
<path d="M20 23.5C20.8284 23.5 21.5 24.1716 21.5 25C21.5 25.8284 20.8284 26.5 20 26.5C19.1716 26.5 18.5 25.8284 18.5 25C18.5 24.1716 19.1716 23.5 20 23.5Z" fill="#18191B" stroke="#18191B"/>
<path d="M26 23.5C26.8284 23.5 27.5 24.1716 27.5 25C27.5 25.8284 26.8284 26.5 26 26.5C25.1716 26.5 24.5 25.8284 24.5 25C24.5 24.1716 25.1716 23.5 26 23.5Z" fill="#18191B" stroke="#18191B"/>
<path d="M23 18.5C23.8284 18.5 24.5 19.1716 24.5 20C24.5 20.8284 23.8284 21.5 23 21.5C22.1716 21.5 21.5 20.8284 21.5 20C21.5 19.1716 22.1716 18.5 23 18.5Z" fill="#18191B" stroke="#18191B"/>
</g>
<defs>
<clipPath id="clip0_770_646">
<rect width="40" height="40" fill="white"/>
</clipPath>
</defs>
</svg>
