<svg width="40" height="40" viewBox="0 0 40 40" fill="none" xmlns="http://www.w3.org/2000/svg">
<g clip-path="url(#clip0_770_655)">
<path d="M30 0.75H10C4.89137 0.75 0.75 4.89137 0.75 10V30C0.75 35.1086 4.89137 39.25 10 39.25H30C35.1086 39.25 39.25 35.1086 39.25 30V10C39.25 4.89137 35.1086 0.75 30 0.75Z" fill="white"/>
<path d="M28.7554 27.0533C29.9619 26.7759 31.1652 27.5288 31.4419 28.7339V28.7349C31.7208 29.9375 30.9683 31.1419 29.7642 31.4175H29.7622C28.559 31.6975 27.3541 30.9444 27.0757 29.7359V29.7349C26.7985 28.5377 27.5468 27.3356 28.7554 27.0533Z" fill="#18191B" stroke="#18191B"/>
<path d="M16.3477 10.7856L16.3564 10.7876C16.4695 10.8203 16.5613 10.9002 16.6172 11.0132C16.774 11.3434 18.1518 14.1905 18.7051 15.5366V15.5376C19.4841 17.4468 19.8716 19.6053 19.6436 21.7446L19.4961 23.1313L20.4912 22.1548C20.9382 21.7163 21.6856 21.0809 22.3896 20.4702C22.7366 20.1692 23.0714 19.8755 23.3428 19.6235C23.5934 19.3909 23.8282 19.1567 23.9561 18.9771L23.958 18.978C23.9604 18.9748 23.9615 18.9705 23.9639 18.9673C23.9649 18.9658 23.9668 18.9648 23.9678 18.9634L23.9668 18.9624C24.1584 18.6901 24.0973 18.3675 24.0518 18.1978C23.9951 17.9867 23.8896 17.7535 23.7666 17.52C23.5181 17.0482 23.1434 16.475 22.7461 15.894C22.5459 15.6013 22.3362 15.3015 22.1309 15.0073C21.925 14.7124 21.7236 14.4223 21.5352 14.146C21.1869 13.6354 20.9024 13.1912 20.7285 12.8599V12.8413L20.6562 12.7222C20.5872 12.6076 20.5687 12.477 20.6064 12.3521L20.6055 12.3511C20.6773 12.1207 20.9221 11.9878 21.1582 12.0513C21.1992 12.0661 21.2366 12.0832 21.2686 12.103L21.2812 12.1108L21.2861 12.1147L21.2998 12.1245C21.3052 12.1282 21.3103 12.1315 21.3145 12.1343C21.3167 12.1358 21.3191 12.1377 21.3213 12.1392L21.332 12.1499L21.3662 12.1743C21.918 12.571 22.4523 13.1941 22.9609 13.7495C25.4735 17.1137 25.447 18.0349 25.4453 18.1323C25.4333 18.7798 25.0488 19.5448 24.6445 20.1694C23.9317 21.2582 23.0532 22.2363 22.0557 23.0825L21.6016 23.4683L22.0596 23.8491L24.5381 25.9067L25.043 26.3257L25.3125 25.728C25.6935 24.8851 26.6878 22.5995 27.1377 20.728C27.889 18.1694 28.0232 16.8993 28.0469 16.5493L28.0479 16.5327V16.5103C28.0479 16.5083 28.0488 16.5067 28.0488 16.5054C28.0661 16.3901 28.1488 16.2892 28.2695 16.2554C28.4302 16.2135 28.596 16.3111 28.6387 16.4722L28.6396 16.4741C28.6457 16.4965 28.6497 16.5361 28.6465 16.5747L28.6348 16.7085C28.6338 16.717 28.6329 16.7263 28.6318 16.7358C28.6217 16.8244 28.606 16.9604 28.584 17.1499C28.5399 17.5297 28.4699 18.1248 28.3672 18.9839V18.9849C28.1984 20.4161 27.8285 22.1282 27.1416 24.1948L26.8271 25.103C26.4068 26.1576 26.1951 26.6464 25.9648 26.9888L25.8408 27.1733L25.8945 27.3892C26.0778 28.1244 25.8313 29.0663 25.3379 29.5806C24.9848 29.9459 24.3917 30.1635 23.7832 30.1548L23.5986 30.1528L23.4561 30.271C23.4461 30.2792 23.4333 30.2889 23.4209 30.2974L23.4072 30.3062L23.3779 30.3237L23.3516 30.3462C22.0813 31.3812 20.2568 32.1464 17.9238 31.2446L17.9092 31.2388L17.8955 31.2349L17.6182 31.1372C17.3295 31.0284 17.0113 30.8857 16.709 30.7231C16.307 30.5069 15.9675 30.2735 15.7607 30.063C15.7354 30.0341 15.7063 30.0079 15.6738 29.9849C15.5529 29.889 15.5189 29.7254 15.5859 29.5972C15.6073 29.5598 15.6425 29.5212 15.6953 29.4849L15.6934 29.4829C15.6953 29.4816 15.6973 29.4803 15.6992 29.479C15.7156 29.4724 15.733 29.4665 15.752 29.4595H15.7578L15.8096 29.4478C15.8742 29.4338 15.9456 29.4425 16.0088 29.4761V29.4751C16.1814 29.5803 16.8586 29.9837 17.3701 30.2026L17.3789 30.2065L17.3867 30.2095C17.6834 30.3243 18.3915 30.5992 19.249 30.6978C20.1069 30.7963 21.1611 30.7238 22.1162 30.0962L22.6123 29.77L22.2061 29.3364L18.3418 25.2114L18.333 25.2017L18.3232 25.1919L18.1895 25.0483C17.8995 24.6977 17.7705 24.2559 17.8027 23.8267L17.8076 23.7632L17.7959 23.7017C17.7611 23.5066 17.7594 23.2731 17.7783 22.9966C18.0234 21.2651 18.0909 20.2744 18.0781 19.6411C18.0649 18.9866 17.9625 18.6953 17.917 18.4712L17.9092 18.438L17.4883 17.0054C17.2781 16.3001 17.0171 15.4305 16.7637 14.5874C16.5094 13.7416 16.2616 12.9186 16.0771 12.3071C15.9849 12.0014 15.9087 11.7483 15.8555 11.5718C15.8289 11.4837 15.8082 11.4147 15.7939 11.3677C15.7886 11.3498 15.7837 11.3351 15.7803 11.3237C15.7606 11.2342 15.7635 11.1556 15.7842 11.0894V11.0874C15.859 10.8443 16.112 10.713 16.3477 10.7856Z" fill="#18191B" stroke="#18191B"/>
<mask id="path-4-inside-1_770_655" fill="white">
<path d="M29.9861 13.5662L9.20105 8L9 8.74484L15.5316 10.4968C15.712 10.3223 15.956 10.2247 16.2176 10.2247C16.3152 10.2247 16.4142 10.2368 16.5089 10.2663C16.7691 10.3462 16.982 10.5278 17.1047 10.7689L17.1195 10.8045C17.1402 10.8488 17.1623 10.89 17.186 10.9404L20.335 11.7847C20.5183 11.6027 20.7682 11.4888 21.0388 11.4888C21.1393 11.4888 21.2354 11.5081 21.3315 11.5376C21.4039 11.5615 21.4763 11.591 21.5473 11.6368H21.5517L21.5592 11.644C21.5695 11.647 21.5813 11.6561 21.5902 11.6633C21.5976 11.6663 21.602 11.6708 21.6065 11.678C21.6183 11.6811 21.6257 11.6901 21.6345 11.6973C21.6523 11.7075 21.6715 11.7197 21.6878 11.7344C21.9228 11.9043 22.1535 12.1129 22.3782 12.3286L29.785 14.3156L29.9861 13.5662Z"/>
</mask>
<path d="M29.9861 13.5662L9.20105 8L9 8.74484L15.5316 10.4968C15.712 10.3223 15.956 10.2247 16.2176 10.2247C16.3152 10.2247 16.4142 10.2368 16.5089 10.2663C16.7691 10.3462 16.982 10.5278 17.1047 10.7689L17.1195 10.8045C17.1402 10.8488 17.1623 10.89 17.186 10.9404L20.335 11.7847C20.5183 11.6027 20.7682 11.4888 21.0388 11.4888C21.1393 11.4888 21.2354 11.5081 21.3315 11.5376C21.4039 11.5615 21.4763 11.591 21.5473 11.6368H21.5517L21.5592 11.644C21.5695 11.647 21.5813 11.6561 21.5902 11.6633C21.5976 11.6663 21.602 11.6708 21.6065 11.678C21.6183 11.6811 21.6257 11.6901 21.6345 11.6973C21.6523 11.7075 21.6715 11.7197 21.6878 11.7344C21.9228 11.9043 22.1535 12.1129 22.3782 12.3286L29.785 14.3156L29.9861 13.5662Z" fill="#18191B"/>
<path d="M29.9861 13.5662L30.9519 13.8254L31.2112 12.8591L30.2448 12.6002L29.9861 13.5662ZM9.20105 8L9.45973 7.03404L8.49568 6.77587L8.2356 7.7394L9.20105 8ZM9 8.74484L8.03455 8.48424L7.77354 9.45122L8.74093 9.7107L9 8.74484ZM15.5316 10.4968L15.2725 11.4627L15.8197 11.6094L16.2269 11.2156L15.5316 10.4968ZM16.5089 10.2663L16.2115 11.2211L16.2154 11.2222L16.5089 10.2663ZM17.1047 10.7689L18.0281 10.385L18.0133 10.3496L17.9959 10.3153L17.1047 10.7689ZM17.1195 10.8045L16.1961 11.1884L16.2044 11.2083L16.2135 11.2278L17.1195 10.8045ZM17.186 10.9404L16.2811 11.3659L16.4786 11.7861L16.927 11.9063L17.186 10.9404ZM20.335 11.7847L20.076 12.7506L20.6315 12.8995L21.0396 12.4943L20.335 11.7847ZM21.3315 11.5376L21.645 10.588L21.635 10.5847L21.625 10.5816L21.3315 11.5376ZM21.5473 11.6368L21.0052 12.4771L21.2527 12.6368H21.5473V11.6368ZM21.5517 11.6368L22.2443 10.9154L21.954 10.6368H21.5517V11.6368ZM21.5592 11.644L20.8666 12.3654L21.0438 12.5354L21.2796 12.6041L21.5592 11.644ZM21.5902 11.6633L20.9613 12.4407L21.0768 12.5342L21.2145 12.59L21.5902 11.6633ZM21.6065 11.678L20.7585 12.208L20.9687 12.5444L21.3524 12.6452L21.6065 11.678ZM21.6345 11.6973L21.0013 12.4713L21.0654 12.5237L21.1373 12.5649L21.6345 11.6973ZM21.6878 11.7344L21.0181 12.477L21.0582 12.5132L21.1019 12.5448L21.6878 11.7344ZM22.3782 12.3286L21.6857 13.05L21.871 13.2279L22.1191 13.2944L22.3782 12.3286ZM29.785 14.3156L29.5259 15.2814L30.4917 15.5405L30.7508 14.5748L29.785 14.3156ZM29.9861 13.5662L30.2448 12.6002L9.45973 7.03404L9.20105 8L8.94237 8.96596L29.7274 14.5322L29.9861 13.5662ZM9.20105 8L8.2356 7.7394L8.03455 8.48424L9 8.74484L9.96545 9.00544L10.1665 8.2606L9.20105 8ZM9 8.74484L8.74093 9.7107L15.2725 11.4627L15.5316 10.4968L15.7907 9.53094L9.25907 7.77898L9 8.74484ZM15.5316 10.4968L16.2269 11.2156C16.2217 11.2206 16.2166 11.2234 16.2136 11.2246C16.2106 11.2258 16.2115 11.2247 16.2176 11.2247V10.2247V9.2247C15.7053 9.2247 15.2094 9.41718 14.8363 9.77804L15.5316 10.4968ZM16.2176 10.2247V11.2247C16.2253 11.2247 16.2287 11.2252 16.228 11.2251C16.2273 11.225 16.2215 11.2242 16.2115 11.221L16.5089 10.2663L16.8063 9.31155C16.5978 9.2466 16.3959 9.2247 16.2176 9.2247V10.2247ZM16.5089 10.2663L16.2154 11.2222C16.2154 11.2222 16.2153 11.2222 16.2152 11.2222C16.2152 11.2222 16.2151 11.2221 16.215 11.2221C16.2147 11.222 16.2144 11.2218 16.2141 11.2217C16.2134 11.2213 16.2128 11.2209 16.2125 11.2206C16.2116 11.2198 16.2122 11.22 16.2135 11.2225L17.1047 10.7689L17.9959 10.3153C17.7524 9.83686 17.3261 9.47117 16.8024 9.31035L16.5089 10.2663ZM17.1047 10.7689L16.1813 11.1528L16.1961 11.1884L17.1195 10.8045L18.0429 10.4206L18.0281 10.385L17.1047 10.7689ZM17.1195 10.8045L16.2135 11.2278C16.2305 11.2642 16.2473 11.2976 16.2573 11.3176C16.2688 11.3406 16.2751 11.3532 16.2811 11.3659L17.186 10.9404L18.0909 10.5149C18.0732 10.4772 18.0566 10.444 18.0459 10.4227C18.0338 10.3985 18.0292 10.3891 18.0255 10.3812L17.1195 10.8045ZM17.186 10.9404L16.927 11.9063L20.076 12.7506L20.335 11.7847L20.594 10.8188L17.445 9.97451L17.186 10.9404ZM20.335 11.7847L21.0396 12.4943C21.0445 12.4894 21.0484 12.4875 21.049 12.4873C21.049 12.4872 21.0481 12.4876 21.0461 12.4881C21.044 12.4885 21.0415 12.4888 21.0388 12.4888V11.4888V10.4888C20.4831 10.4888 19.9855 10.7225 19.6304 11.0751L20.335 11.7847ZM21.0388 11.4888V12.4888C21.0095 12.4888 21.0029 12.4828 21.038 12.4936L21.3315 11.5376L21.625 10.5816C21.4679 10.5334 21.2691 10.4888 21.0388 10.4888V11.4888ZM21.3315 11.5376L21.018 12.4872C21.0326 12.492 21.0355 12.4936 21.0322 12.4921C21.0281 12.4903 21.0182 12.4855 21.0052 12.4771L21.5473 11.6368L22.0894 10.7965C21.9208 10.6878 21.7615 10.6265 21.645 10.588L21.3315 11.5376ZM21.5473 11.6368V12.6368H21.5517V11.6368V10.6368H21.5473V11.6368ZM21.5517 11.6368L20.8591 12.3582L20.8666 12.3654L21.5592 11.644L22.2518 10.9226L22.2443 10.9154L21.5517 11.6368ZM21.5592 11.644L21.2796 12.6041C21.2042 12.5822 21.1461 12.5552 21.1092 12.5363C21.0711 12.5166 21.0415 12.4981 21.0223 12.4853C20.9864 12.4615 20.9613 12.4408 20.9613 12.4407L21.5902 11.6633L22.2191 10.8859C22.2102 10.8786 22.1748 10.8498 22.1281 10.8188C22.0909 10.7941 21.9869 10.727 21.8388 10.6839L21.5592 11.644ZM21.5902 11.6633L21.2145 12.59C21.1134 12.5491 21.0115 12.4877 20.9194 12.4022C20.8341 12.3231 20.7826 12.2466 20.7585 12.208L21.6065 11.678L22.4545 11.148C22.3776 11.025 22.2276 10.8427 21.9659 10.7366L21.5902 11.6633ZM21.6065 11.678L21.3524 12.6452C21.1712 12.5976 21.0501 12.5095 20.9972 12.4672C20.9735 12.4482 20.9552 12.4315 20.959 12.4349C20.9591 12.4349 20.9591 12.435 20.9593 12.4351C20.9594 12.4353 20.9596 12.4355 20.9599 12.4357C20.9604 12.4361 20.9611 12.4368 20.962 12.4376C20.9637 12.4391 20.9665 12.4416 20.9699 12.4446C20.9766 12.4505 20.9875 12.46 21.0013 12.4713L21.6345 11.6973L22.2677 10.9233C22.2876 10.9396 22.3043 10.955 22.2972 10.9485C22.2967 10.9481 22.2742 10.9275 22.246 10.905C22.1843 10.8556 22.0536 10.7615 21.8606 10.7108L21.6065 11.678ZM21.6345 11.6973L21.1373 12.5649C21.1323 12.5621 21.1182 12.5539 21.0994 12.5411C21.0809 12.5285 21.0517 12.5074 21.0181 12.477L21.6878 11.7344L22.3575 10.9918C22.2627 10.9063 22.1716 10.8526 22.1317 10.8297L21.6345 11.6973ZM21.6878 11.7344L21.1019 12.5448C21.2797 12.6733 21.4706 12.8435 21.6857 13.05L22.3782 12.3286L23.0707 11.6072C22.8364 11.3823 22.5659 11.1353 22.2737 10.924L21.6878 11.7344ZM22.3782 12.3286L22.1191 13.2944L29.5259 15.2814L29.785 14.3156L30.0441 13.3498L22.6373 11.3628L22.3782 12.3286ZM29.785 14.3156L30.7508 14.5748L30.9519 13.8254L29.9861 13.5662L29.0203 13.307L28.8192 14.0564L29.785 14.3156Z" fill="#18191B" mask="url(#path-4-inside-1_770_655)"/>
</g>
<defs>
<clipPath id="clip0_770_655">
<rect width="40" height="40" fill="white"/>
</clipPath>
</defs>
</svg>
