<svg width="40" height="40" viewBox="0 0 40 40" fill="none" xmlns="http://www.w3.org/2000/svg">
<g clip-path="url(#clip0_770_660)">
<path d="M30 0.75H10C4.89137 0.75 0.75 4.89137 0.75 10V30C0.75 35.1086 4.89137 39.25 10 39.25H30C35.1086 39.25 39.25 35.1086 39.25 30V10C39.25 4.89137 35.1086 0.75 30 0.75Z" fill="white"/>
<path d="M30.5483 13.6772C31.49 13.1339 32.6929 13.4566 33.2368 14.4008V14.4018C33.7444 15.279 33.4942 16.3929 32.6851 16.977L32.5151 17.0864C31.5729 17.6293 30.3727 17.3062 29.8286 16.3627L29.8276 16.3618L29.7358 16.183C29.3274 15.2776 29.665 14.1871 30.5483 13.6772Z" fill="#18191B" stroke="#18191B"/>
<path d="M21.1582 9.50391C22.0425 9.51924 23.0589 9.57796 23.7646 9.66992H23.7656C24.646 9.78335 25.4429 10.3837 26.0518 12.0703L26.0527 12.0693C26.0742 12.136 26.11 12.2389 26.1455 12.335C26.1988 12.479 26.2704 12.6702 26.3496 12.8809C26.5085 13.3034 26.6989 13.8062 26.8389 14.1846L26.9375 14.4521L27.2178 14.5029C27.7341 14.5974 27.9605 14.7857 28.0703 15.0166L28.0713 15.0195C28.2168 15.3213 28.3596 15.7831 28.2861 16.1758L28.2832 16.1875L28.2822 16.2002C28.2368 16.5356 28.1079 16.8052 27.918 16.9932L27.792 17.1182L27.7725 17.2959L27.7275 17.7217L27.7236 17.7607L27.7256 17.7998C27.8064 19.4246 28.6841 20.3701 29.6211 20.9004C30.5322 21.416 31.5078 21.5474 31.8564 21.5967L31.8779 21.5986C32.4364 21.6536 33.2917 21.6221 33.2754 21.6221C33.3211 21.6221 33.3718 21.6397 33.4209 21.6797C33.4246 21.6829 33.4283 21.6857 33.4316 21.6885C33.4458 21.7041 33.4538 21.714 33.459 21.7207L33.4639 21.7314L33.4775 21.7568C33.491 21.7811 33.5 21.8109 33.5 21.8457C33.5 21.9571 33.4152 22.0493 33.3096 22.0615H33.3066C33.3051 22.0617 33.3025 22.0622 33.2998 22.0625C33.289 22.0635 33.272 22.0644 33.249 22.0664C33.2025 22.0704 33.1334 22.0759 33.0488 22.082C32.8796 22.0942 32.6469 22.109 32.3936 22.1191C31.8651 22.1403 31.3156 22.1387 31.0293 22.0811L31.0137 22.0781L30.999 22.0762L30.5967 22.0068C28.6665 21.6032 27.6754 20.3244 27.1611 19.0576L26.8037 17.7197L26.7031 17.3447L26.3145 17.3496C25.3231 17.3627 23.7823 17.3942 22.6406 17.7812C22.3068 17.8923 22.0525 17.9834 21.8496 18.0645L20.9639 18.418L21.7598 18.9453L21.8398 18.998C22.8516 19.8632 24.1457 21.2963 25.168 22.5996C25.6967 23.2767 25.8515 23.6192 25.8906 23.8447C25.9285 24.0637 25.8753 24.2196 25.7539 24.6719C25.6675 24.9808 25.4351 25.4185 25.0898 25.9346C24.7516 26.4401 24.3302 26.9837 23.9023 27.4971C23.4754 28.0094 23.0467 28.4859 22.6953 28.8564C22.333 29.2385 22.0781 29.481 21.9912 29.5479L21.959 29.5732L21.9307 29.6035C21.9061 29.6298 21.8695 29.6568 21.8135 29.6816L21.8057 29.6855C21.7747 29.7 21.732 29.7109 21.6787 29.7109C21.4788 29.7109 21.3213 29.5521 21.3213 29.3545C21.3213 29.3717 21.3184 29.3666 21.3271 29.332C21.3347 29.3023 21.3465 29.2666 21.3604 29.2285C21.3739 29.1913 21.3883 29.1571 21.3994 29.1309C21.4038 29.1205 21.4068 29.1112 21.4102 29.1035C21.5694 28.8066 21.8567 28.3911 22.2139 27.9033C22.5928 27.3859 22.9608 26.9062 23.3643 26.3574C23.7424 25.8431 24.102 25.3328 24.3438 24.9102C24.4632 24.7012 24.5682 24.4893 24.6279 24.2949C24.6754 24.1402 24.748 23.8293 24.5684 23.5566H24.5703C24.456 23.38 24.2275 23.1416 23.9893 22.9062C23.7366 22.6567 23.4245 22.365 23.1055 22.0684C22.6176 21.6149 22.1202 21.1573 21.7568 20.7959L21.4434 20.4707C21.3124 20.3101 21.1309 20.1412 20.998 20.0127C20.837 19.8568 20.7103 19.7249 20.6289 19.6006L20.4561 19.3359L20.1426 19.3789C20.1403 19.3792 20.1389 19.3797 20.1377 19.3799C20.1365 19.38 20.1357 19.3799 20.1357 19.3799C20.1304 19.3805 20.1211 19.3824 20.0947 19.3857L19.8369 19.418L19.7158 19.6484C19.3481 20.3456 18.2863 21.6521 17.0615 22.9658C15.9955 24.1092 14.8602 25.1996 14.043 25.8369L13.7139 26.0811C13.1198 26.4932 12.4514 26.969 11.7812 27.3955C11.1067 27.8249 10.4655 28.1812 9.93555 28.3643L9.90234 28.375L9.87109 28.3916C9.88698 28.3835 9.88717 28.3859 9.85938 28.3936C9.83596 28.4 9.80583 28.4058 9.77344 28.4121C9.7486 28.4169 9.72481 28.4205 9.7041 28.4238C9.66438 28.4214 9.64056 28.42 9.62207 28.415C9.52006 28.383 9.44307 28.3104 9.40137 28.2197V27.9268C9.40476 27.919 9.40794 27.9113 9.41113 27.9043L9.41211 27.9014C9.41493 27.8971 9.41763 27.8933 9.41992 27.8896C9.41674 27.8944 9.41833 27.8921 9.42871 27.8789C9.43772 27.8674 9.44882 27.8535 9.46094 27.8389C9.46667 27.8319 9.47765 27.8181 9.48633 27.8076C9.50088 27.7949 9.50961 27.7882 9.51562 27.7842L9.53711 27.7695L9.55566 27.7539C9.9052 27.4669 11.1128 26.5696 12.3174 25.6719C13.4647 24.8169 14.629 23.9455 14.9443 23.6719C15.0981 23.5674 15.2452 23.4112 15.3652 23.2666C15.5177 23.083 15.687 22.8516 15.8623 22.5957C16.2135 22.0829 16.6093 21.4412 16.9795 20.8125C17.3503 20.1827 17.6993 19.5587 17.9561 19.0791C18.0842 18.8397 18.1918 18.6327 18.2676 18.4775C18.3051 18.4008 18.3373 18.3311 18.3613 18.2744C18.3731 18.2467 18.3859 18.2149 18.3965 18.1836C18.3984 18.1781 18.4081 18.1479 18.417 18.1045C18.4954 17.7619 18.5898 17.437 18.7031 17.1846L18.7119 17.1641L18.7197 17.1436C18.7298 17.1146 18.7538 17.0659 18.7852 17.0107L18.916 16.8242C19.1392 16.5045 19.4052 16.2119 19.8389 15.9355C20.2806 15.6541 20.9153 15.3777 21.8896 15.1182L21.8906 15.1172C22.5469 14.9405 23.7423 14.6548 25.2168 14.5117L25.8047 14.4551L25.6514 13.8848C25.5091 13.3551 25.3548 12.7955 25.2207 12.334C25.0922 11.8919 24.9696 11.4921 24.8906 11.3184L24.8701 11.2744L24.8418 11.2344L24.7139 11.0771C24.3945 10.7281 23.936 10.5069 23.4883 10.3594C22.9623 10.1861 22.3683 10.0881 21.8242 10.0322C20.742 9.92113 19.7575 9.96935 19.7754 9.96973H19.7295L19.6846 9.97754C19.6335 9.987 19.5942 9.98282 19.5605 9.96973L19.5557 9.96777L19.5166 9.94824C19.43 9.89359 19.3902 9.78346 19.4297 9.68066L19.4326 9.67383C19.4494 9.62837 19.4899 9.58287 19.5557 9.55469L19.5664 9.5498L19.5527 9.55664C19.5609 9.55504 19.5889 9.5491 19.6455 9.54199C19.7346 9.53083 19.8582 9.52081 20.0117 9.51367C20.3173 9.49948 20.7173 9.49626 21.1582 9.50391Z" fill="#18191B" stroke="#18191B"/>
<mask id="path-4-inside-1_770_660" fill="white">
<path d="M22.0326 30.1761C21.9195 30.2242 21.7995 30.2481 21.6785 30.2481C21.3856 30.2481 21.1259 30.1083 20.9619 29.8939H18.1802V30.5303H25.1951V29.8939H22.4175C22.3804 29.9273 22.3483 29.9512 22.3217 29.975C22.2379 30.0602 22.1404 30.1281 22.0326 30.1761Z"/>
</mask>
<path d="M22.0326 30.1761C21.9195 30.2242 21.7995 30.2481 21.6785 30.2481C21.3856 30.2481 21.1259 30.1083 20.9619 29.8939H18.1802V30.5303H25.1951V29.8939H22.4175C22.3804 29.9273 22.3483 29.9512 22.3217 29.975C22.2379 30.0602 22.1404 30.1281 22.0326 30.1761Z" fill="#18191B"/>
<path d="M22.0326 30.1761L22.4239 31.0964L22.4317 31.0931L22.4393 31.0897L22.0326 30.1761ZM20.9619 29.8939L21.7561 29.2864L21.456 28.8939H20.9619V29.8939ZM18.1802 29.8939V28.8939H17.1802V29.8939H18.1802ZM18.1802 30.5303H17.1802V31.5303H18.1802V30.5303ZM25.1951 30.5303V31.5303H26.1951V30.5303H25.1951ZM25.1951 29.8939H26.1951V28.8939H25.1951V29.8939ZM22.4175 29.8939V28.8939H22.0337L21.7484 29.1507L22.4175 29.8939ZM22.3217 29.975L21.6549 29.2298L21.6311 29.2511L21.6087 29.2738L22.3217 29.975ZM22.0326 30.1761L21.6412 29.2559C21.6537 29.2506 21.667 29.2481 21.6785 29.2481V30.2481V31.2481C21.932 31.2481 22.1852 31.1979 22.4239 31.0964L22.0326 30.1761ZM21.6785 30.2481V29.2481C21.711 29.2481 21.7396 29.2648 21.7561 29.2864L20.9619 29.8939L20.1676 30.5015C20.5121 30.9519 21.0601 31.2481 21.6785 31.2481V30.2481ZM20.9619 29.8939V28.8939H18.1802V29.8939V30.8939H20.9619V29.8939ZM18.1802 29.8939H17.1802V30.5303H18.1802H19.1802V29.8939H18.1802ZM18.1802 30.5303V31.5303H25.1951V30.5303V29.5303H18.1802V30.5303ZM25.1951 30.5303H26.1951V29.8939H25.1951H24.1951V30.5303H25.1951ZM25.1951 29.8939V28.8939H22.4175V29.8939V30.8939H25.1951V29.8939ZM22.4175 29.8939L21.7484 29.1507C21.7478 29.1513 21.7452 29.1536 21.7311 29.1652C21.7258 29.1695 21.7135 29.1796 21.7024 29.1889C21.6903 29.1989 21.6736 29.2131 21.6549 29.2298L22.3217 29.975L22.9885 30.7203C22.9831 30.7251 22.9803 30.7273 22.9829 30.7252C22.9865 30.7222 22.9895 30.7197 23.0002 30.711C23.018 30.6963 23.0501 30.6699 23.0866 30.6371L22.4175 29.8939ZM22.3217 29.975L21.6087 29.2738C21.6097 29.2728 21.6118 29.2709 21.615 29.2687C21.6182 29.2665 21.6219 29.2643 21.6258 29.2626L22.0326 30.1761L22.4393 31.0897C22.6636 30.9898 22.8645 30.8492 23.0346 30.6762L22.3217 29.975Z" fill="#18191B" mask="url(#path-4-inside-1_770_660)"/>
<mask id="path-6-inside-2_770_660" fill="white">
<path d="M9.72838 28.9629H9.72191C9.62851 28.9629 9.55009 28.9496 9.47816 28.9349C9.06943 28.8126 8.80694 28.4304 8.8308 28.0217L6.29828 26.6755L6 27.2346L12.192 30.5303L12.4917 29.9644L10.3011 28.8034C10.237 28.8299 10.1746 28.8497 10.1146 28.8739C10.0069 28.9285 9.79111 28.9564 9.72838 28.9629Z"/>
</mask>
<path d="M9.72838 28.9629H9.72191C9.62851 28.9629 9.55009 28.9496 9.47816 28.9349C9.06943 28.8126 8.80694 28.4304 8.8308 28.0217L6.29828 26.6755L6 27.2346L12.192 30.5303L12.4917 29.9644L10.3011 28.8034C10.237 28.8299 10.1746 28.8497 10.1146 28.8739C10.0069 28.9285 9.79111 28.9564 9.72838 28.9629Z" fill="#18191B"/>
<path d="M9.72838 28.9629V29.9629H9.78005L9.83145 29.9575L9.72838 28.9629ZM9.47816 28.9349L9.1915 29.8929L9.23423 29.9057L9.27793 29.9146L9.47816 28.9349ZM8.8308 28.0217L9.8291 28.08L9.86648 27.4397L9.30017 27.1387L8.8308 28.0217ZM6.29828 26.6755L6.76765 25.7925L5.88598 25.3238L5.41599 26.2048L6.29828 26.6755ZM6 27.2346L5.11771 26.7639L4.64655 27.647L5.53016 28.1173L6 27.2346ZM12.192 30.5303L11.7222 31.413L12.6067 31.8838L13.0757 30.9983L12.192 30.5303ZM12.4917 29.9644L13.3754 30.4324L13.8433 29.5489L12.96 29.0808L12.4917 29.9644ZM10.3011 28.8034L10.7694 27.9198L10.3538 27.6995L9.91905 27.8792L10.3011 28.8034ZM10.1146 28.8739L9.74055 27.9465L9.70072 27.9625L9.66242 27.9819L10.1146 28.8739ZM9.72838 28.9629V27.9629H9.72191V28.9629V29.9629H9.72838V28.9629ZM9.72191 28.9629V27.9629C9.72349 27.9629 9.72337 27.963 9.71914 27.9625C9.71363 27.9618 9.70302 27.9602 9.67839 27.9551L9.47816 28.9349L9.27793 29.9146C9.37607 29.9347 9.5302 29.9629 9.72191 29.9629V28.9629ZM9.47816 28.9349L9.76482 27.9768C9.79784 27.9867 9.8324 28.0234 9.8291 28.08L8.8308 28.0217L7.8325 27.9634C7.78148 28.8373 8.34102 29.6384 9.1915 29.8929L9.47816 28.9349ZM8.8308 28.0217L9.30017 27.1387L6.76765 25.7925L6.29828 26.6755L5.82891 27.5585L8.36143 28.9047L8.8308 28.0217ZM6.29828 26.6755L5.41599 26.2048L5.11771 26.7639L6 27.2346L6.88229 27.7053L7.18057 27.1462L6.29828 26.6755ZM6 27.2346L5.53016 28.1173L11.7222 31.413L12.192 30.5303L12.6618 29.6475L6.46984 26.3518L6 27.2346ZM12.192 30.5303L13.0757 30.9983L13.3754 30.4324L12.4917 29.9644L11.608 29.4964L11.3083 30.0623L12.192 30.5303ZM12.4917 29.9644L12.96 29.0808L10.7694 27.9198L10.3011 28.8034L9.83281 29.687L12.0234 30.848L12.4917 29.9644ZM10.3011 28.8034L9.91905 27.8792C9.90958 27.8831 9.89671 27.888 9.86527 27.8994C9.8399 27.9086 9.79054 27.9263 9.74055 27.9465L10.1146 28.8739L10.4887 29.8013C10.4987 29.7972 10.5105 29.7929 10.5474 29.7795C10.5781 29.7684 10.6285 29.7501 10.6832 29.7275L10.3011 28.8034ZM10.1146 28.8739L9.66242 27.9819C9.67781 27.9741 9.69084 27.9683 9.70075 27.964C9.71075 27.9598 9.71888 27.9566 9.72473 27.9545C9.73599 27.9503 9.74245 27.9485 9.74272 27.9484C9.74332 27.9483 9.74097 27.9489 9.73533 27.9503C9.72983 27.9515 9.72269 27.9531 9.714 27.9547C9.6962 27.9582 9.6769 27.9613 9.65887 27.9639C9.64072 27.9665 9.62818 27.9679 9.62531 27.9682L9.72838 28.9629L9.83145 29.9575C9.88386 29.9521 9.98383 29.9397 10.0953 29.9181C10.1799 29.9016 10.3795 29.8607 10.5668 29.7658L10.1146 28.8739Z" fill="#18191B" mask="url(#path-6-inside-2_770_660)"/>
</g>
<defs>
<clipPath id="clip0_770_660">
<rect width="40" height="40" fill="white"/>
</clipPath>
</defs>
</svg>
