<svg width="40" height="40" viewBox="0 0 40 40" fill="none" xmlns="http://www.w3.org/2000/svg">
<g clip-path="url(#clip0_770_666)">
<path d="M30 0.75H10C4.89137 0.75 0.75 4.89137 0.75 10V30C0.75 35.1086 4.89137 39.25 10 39.25H30C35.1086 39.25 39.25 35.1086 39.25 30V10C39.25 4.89137 35.1086 0.75 30 0.75Z" fill="white"/>
<path d="M15.5381 11.6839C15.933 10.8717 16.877 10.5046 17.707 10.8109L17.8711 10.8812C18.7338 11.3026 19.0948 12.3479 18.6729 13.2103C18.2488 14.0766 17.2059 14.4345 16.3438 14.011L16.3408 14.0101C15.4773 13.5921 15.1173 12.548 15.5381 11.6839Z" fill="#18191B" stroke="#18191B"/>
<path d="M21.624 29.2393C21.5933 28.9385 21.5986 28.4798 21.6201 27.9268C21.6308 27.6522 21.6454 27.3615 21.6602 27.0654C21.6749 26.7707 21.6893 26.4699 21.7012 26.1777C21.7247 25.5981 21.7369 25.0287 21.7041 24.585C21.6879 24.3658 21.6587 24.1491 21.6035 23.9678C21.5609 23.8277 21.4537 23.5394 21.1621 23.416L21.1631 23.415C21.1585 23.413 21.1532 23.4112 21.1484 23.4092C21.1475 23.4088 21.1465 23.4086 21.1455 23.4082H21.1445C20.96 23.332 20.6698 23.2685 20.3809 23.2139C20.0624 23.1536 19.6783 23.0916 19.2871 23.0303C18.4928 22.9058 17.6871 22.7853 17.2334 22.6738C17.0809 22.6241 16.8997 22.5743 16.7441 22.5293C16.5667 22.478 16.3993 22.4252 16.25 22.3633L15.9453 22.2373L15.709 22.4678C15.652 22.5234 15.6075 22.5611 15.5615 22.5918L15.1885 22.8408L15.3955 23.2383C15.4663 23.3745 15.5264 23.4952 15.5713 23.5869L15.5752 23.5938C16.4572 25.3374 16.7398 27.3127 16.5703 29.168C16.5092 29.8234 16.4497 30.5654 16.3555 31.2812C16.2607 32.0017 16.1353 32.6518 15.9551 33.1221L15.9443 33.1504L15.9365 33.1797C15.9261 33.2213 15.9088 33.2561 15.8828 33.2871L15.874 33.2969C15.8578 33.316 15.8405 33.3323 15.8203 33.3467C15.7257 33.4073 15.6102 33.4032 15.5225 33.3486V33.3408L15.4258 33.2441C15.4252 33.2429 15.4245 33.2416 15.4238 33.2402C15.4203 33.2332 15.4171 33.2244 15.4131 33.2148L15.4062 33.1943V33.1934C15.406 33.1925 15.4057 33.1911 15.4053 33.1895C15.4044 33.186 15.4036 33.1811 15.4023 33.1748C15.4002 33.1641 15.3979 33.151 15.3955 33.1348C15.395 33.1148 15.3949 33.1015 15.3955 33.0957L15.3984 33.0713V33.0459C15.4059 32.2052 15.4495 27.7257 15.4336 27.0967V27.0791L15.4316 27.0615L15.4023 26.7051C15.3838 26.5512 15.3482 26.3542 15.2734 26.0918C15.1651 25.7113 14.9734 25.1831 14.626 24.3896L14.2236 23.5039C14.1848 23.4114 14.1116 23.252 14.04 23.0918C13.955 22.9014 13.8569 22.6727 13.7666 22.4346C13.6757 22.1949 13.597 21.9555 13.5488 21.7422C13.4982 21.5179 13.4928 21.3713 13.5068 21.2959L13.5107 21.2754L13.5127 21.2539V21.25C13.5129 21.2475 13.5132 21.2439 13.5137 21.2393C13.5147 21.2295 13.5167 21.2151 13.5186 21.1963C13.5223 21.1586 13.5281 21.1035 13.5352 21.0332C13.5493 20.8925 13.5695 20.6914 13.5938 20.4502C13.6423 19.9679 13.7067 19.3248 13.7715 18.6816C13.8362 18.0384 13.9007 17.3948 13.9492 16.9121C13.9735 16.671 13.9946 16.47 14.0088 16.3291C14.0159 16.2587 14.0206 16.2029 14.0244 16.165C14.0259 16.1499 14.0274 16.1374 14.0283 16.1279C14.0857 15.7765 14.4515 15.3722 15.0098 15.1963L15.0195 15.1934L15.0293 15.1895C15.3482 15.0742 15.6715 15.0405 15.9385 15.084C16.206 15.1325 16.4865 15.2872 16.7246 15.5225L16.8115 15.6074L16.9268 15.6445C18.3263 16.0845 19.8023 16.5451 21.5742 16.0176L21.6055 16.0088L21.6357 15.9951C23.2505 15.2741 23.6572 14.4284 24.5166 13.3965L24.542 13.3662L24.5508 13.3506C24.5524 13.3485 24.5545 13.3463 24.5566 13.3438C24.5592 13.3406 24.5621 13.3378 24.5645 13.335C24.596 13.3066 24.636 13.2917 24.6787 13.293C24.7189 13.3068 24.7463 13.3237 24.7656 13.3418L24.9004 13.4678L24.3936 14.0596C23.9721 14.5513 23.3462 15.2284 22.9336 15.5664L22.9287 15.5703C21.7966 16.5218 20.5197 16.8266 18.9814 16.6895C18.712 16.6427 18.2049 16.6083 17.6992 16.5811L17.2734 16.5586L17.1836 16.9756L17.1602 17.083L17.1123 17.3057L17.249 17.4873C18.147 18.6862 19.3063 18.9569 20.2939 18.8789C21.2518 18.8032 22.0592 18.4021 22.3467 18.2607L22.3535 18.2568L22.3604 18.2539C22.7981 18.0219 23.4718 17.5369 23.4219 17.5684L23.4375 17.5586C23.4629 17.5413 23.4957 17.5315 23.543 17.5361L23.5635 17.5371L23.5645 17.5381C23.5717 17.5403 23.5798 17.5428 23.5889 17.5459C23.6324 17.573 23.6486 17.5907 23.6553 17.6006C23.6962 17.6619 23.6886 17.7495 23.624 17.8066M21.624 29.2393C21.6239 29.2381 21.6241 29.2368 21.624 29.2363V29.2354C21.6248 29.2402 21.6259 29.2487 21.6279 29.2598C21.6321 29.2827 21.6384 29.3144 21.6465 29.3477C21.6548 29.3816 21.6636 29.4117 21.6719 29.4346C21.6738 29.4397 21.6755 29.4441 21.6768 29.4473C21.7143 29.5005 21.7706 29.5405 21.8467 29.5615L22.3496 29.6992C22.5075 29.3463 22.6741 29.0023 22.8311 28.6709C23.0633 28.1806 23.2744 27.7078 23.4355 27.2217L22.5615 27.041C22.6346 26.3995 22.6885 25.7178 22.6934 25.1104C22.6983 24.4899 22.6512 23.9998 22.5547 23.708C22.4754 23.4758 22.2806 23.2384 21.9863 23.0088C21.6971 22.7832 21.3516 22.5953 21.0361 22.4502H21.0352C19.7028 21.8355 18.2428 21.4968 16.7764 21.4502L16.1709 21.4307L16.3047 20.8398L16.7363 18.9443L16.8984 18.2305L17.5049 18.6416C18.5956 19.3821 20.1027 19.8621 21.9033 18.9785L21.917 18.9717L21.9316 18.9658C22.2039 18.8524 22.5369 18.6763 22.8457 18.4736C23.0949 18.31 23.3059 18.1411 23.4551 17.9893V17.9561L23.624 17.8066M21.624 29.2393C21.6243 29.2419 21.6247 29.2445 21.625 29.2471V29.2451C21.6247 29.2428 21.6242 29.2408 21.624 29.2393ZM23.624 17.8066C23.6272 17.8039 23.6303 17.8019 23.6328 17.7998C23.6389 17.7948 23.6441 17.7909 23.6465 17.7891L23.6475 17.7881C23.6459 17.7893 23.6416 17.792 23.6367 17.7959C23.6334 17.7986 23.6291 17.8022 23.624 17.8066ZM23.6074 17.8223C23.5941 17.835 23.5789 17.8532 23.5615 17.875C23.5678 17.8671 23.5733 17.8591 23.5791 17.8525C23.5895 17.8407 23.599 17.8304 23.6074 17.8223ZM23.6074 17.8223L23.6094 17.8213L23.6143 17.8164C23.6123 17.8182 23.6096 17.8202 23.6074 17.8223ZM15.3408 32.957C15.3439 32.9629 15.3493 32.974 15.3555 32.9883C15.3498 32.9754 15.3447 32.9657 15.3418 32.96C15.3407 32.9578 15.3395 32.9553 15.3389 32.9541L15.3408 32.957ZM23.6768 17.5713C23.6784 17.5717 23.6801 17.5722 23.6807 17.5723L23.6709 17.5703C23.668 17.5696 23.6648 17.5674 23.6611 17.5664C23.6684 17.5682 23.6739 17.5707 23.6768 17.5713ZM25.2793 13.7197L25.2803 13.6768L25.2959 13.6494C25.2901 13.6727 25.2844 13.6961 25.2793 13.7197ZM24.5469 13.3564C24.5461 13.3575 24.5452 13.358 24.5449 13.3584C24.5457 13.3573 24.5464 13.3553 24.5479 13.3535C24.5472 13.3545 24.5473 13.3559 24.5469 13.3564Z" fill="#18191B" stroke="#18191B"/>
</g>
<defs>
<clipPath id="clip0_770_666">
<rect width="40" height="40" fill="white"/>
</clipPath>
</defs>
</svg>
