<svg width="40" height="40" viewBox="0 0 40 40" fill="none" xmlns="http://www.w3.org/2000/svg">
<g clip-path="url(#clip0_770_670)">
<path d="M30 0.75H10C4.89137 0.75 0.75 4.89137 0.75 10V30C0.75 35.1086 4.89137 39.25 10 39.25H30C35.1086 39.25 39.25 35.1086 39.25 30V10C39.25 4.89137 35.1086 0.75 30 0.75Z" fill="white"/>
<mask id="path-2-inside-1_770_670" fill="white">
<path d="M13.5 9C13.7761 9 14 8.77614 14 8.5C14 8.22386 13.7761 8 13.5 8C13.2239 8 13 8.22386 13 8.5C13 8.77614 13.2239 9 13.5 9Z"/>
</mask>
<path d="M13.5 9C13.7761 9 14 8.77614 14 8.5C14 8.22386 13.7761 8 13.5 8C13.2239 8 13 8.22386 13 8.5C13 8.77614 13.2239 9 13.5 9Z" fill="#18191B"/>
<path d="M14 8.5H13C13 8.22386 13.2239 8 13.5 8V9V10C14.3284 10 15 9.32843 15 8.5H14ZM13.5 9V8C13.7761 8 14 8.22386 14 8.5H13H12C12 9.32843 12.6716 10 13.5 10V9ZM13 8.5H14C14 8.77614 13.7761 9 13.5 9V8V7C12.6716 7 12 7.67157 12 8.5H13ZM13.5 8V9C13.2239 9 13 8.77614 13 8.5H14H15C15 7.67157 14.3284 7 13.5 7V8Z" fill="#18191B" mask="url(#path-2-inside-1_770_670)"/>
<path d="M29.4844 18.1345C29.4797 18.1298 29.4753 18.1263 29.4736 18.1247H29.4746L29.4688 18.1198C29.2812 17.9546 28.6662 17.4524 28.4219 17.2673L28.21 17.1169C27.1261 16.3925 25.6632 16.0765 24.3643 15.9909C23.6796 15.9458 23.0619 15.9659 22.6035 16.0153C22.3735 16.0401 22.1925 16.0714 22.0674 16.1022C22.0189 16.1142 21.9846 16.1255 21.9619 16.1335L21.7344 16.3649L21.4141 16.1774C21.4117 16.1765 21.3986 16.1711 21.3701 16.1608C21.3294 16.1461 21.2756 16.1277 21.2148 16.1091C21.0919 16.0714 20.9605 16.0363 20.8779 16.0182L20.8701 16.0163L20.8633 16.0143C20.7341 15.9821 20.5512 15.9976 20.3682 16.0427C20.2832 16.0636 20.2112 16.0876 20.165 16.1052C20.1597 16.1072 20.1546 16.1084 20.1504 16.11L20.1221 16.1257C19.9564 16.2111 19.8062 16.331 19.6777 16.4841L19.543 16.6452L19.335 16.6618C18.0169 16.7683 16.5632 17.1729 14.9795 16.3112L14.9512 16.2956L14.9238 16.2761C13.7064 15.3895 13.5116 14.6013 12.9922 13.614L12.9873 13.6061C12.9867 13.6049 12.9864 13.6031 12.9854 13.6013C12.9821 13.5954 12.9777 13.588 12.9736 13.5807C12.9695 13.5735 12.966 13.5678 12.9639 13.5641C12.9628 13.5623 12.9631 13.5619 12.9639 13.5632L12.9629 13.5622C12.9599 13.5575 12.9555 13.5536 12.9502 13.5505C12.9449 13.5475 12.9372 13.544 12.9268 13.5436L12.8818 13.5417L12.875 13.5964C12.8752 13.5999 12.8757 13.6019 12.876 13.6032C12.8764 13.6052 12.877 13.6101 12.8809 13.6188L12.5244 13.777L12.5527 13.8229H12.9248C12.9243 13.7543 12.9086 13.7033 12.9072 13.6989C12.905 13.6914 12.9034 13.6852 12.9023 13.6823L12.9033 13.6833C12.9055 13.6884 12.9081 13.6959 12.9121 13.7048C12.9289 13.7415 12.956 13.7968 12.9932 13.8688C13.0669 14.0118 13.1723 14.2048 13.293 14.4157C13.4774 14.738 13.6871 15.0822 13.8711 15.3474L14.0449 15.5817L14.0488 15.5876C14.7916 16.5423 15.7591 17.0053 17.0176 17.1608C17.2651 17.1606 17.5962 17.1932 17.8643 17.2106C18.1857 17.2315 18.475 17.2357 18.7021 17.194L19.6084 17.028L19.2529 17.8786C19.2521 17.8806 19.2506 17.882 19.25 17.8835C19.2518 17.9178 19.2543 17.9594 19.2568 18.0075C19.2648 18.1594 19.276 18.3768 19.2891 18.6374C19.3152 19.1584 19.3495 19.8544 19.3789 20.5534C19.4083 21.2515 19.4335 21.956 19.4434 22.4929C19.4483 22.7602 19.449 22.9927 19.4443 23.1638C19.4421 23.2473 19.4389 23.3273 19.4316 23.3932C19.4282 23.4243 19.4217 23.4686 19.4102 23.5143C19.4046 23.5364 19.3936 23.5759 19.373 23.6198C19.3609 23.6457 19.3189 23.7259 19.2305 23.7985L19.2324 23.8015C19.2312 23.8026 19.2229 23.8101 19.2061 23.8268C19.1878 23.845 19.1638 23.8689 19.1348 23.9001C19.0764 23.9627 19.0024 24.0463 18.9131 24.1491C18.7348 24.3545 18.5049 24.6285 18.2402 24.9499C17.7115 25.592 17.0501 26.4157 16.3936 27.2448C15.7369 28.0739 15.0868 28.9071 14.5811 29.5661C14.0612 30.2434 13.724 30.6987 13.6631 30.8024L13.6514 30.822L13.6377 30.8415C13.6294 30.8533 13.6172 30.8797 13.6172 30.9177C13.6175 31.001 13.6881 31.0709 13.7715 31.071C13.8022 31.071 13.8286 31.062 13.8525 31.0446L13.9844 30.9489H14.0186C14.0252 30.9444 14.0332 30.9399 14.041 30.9343C14.0981 30.8933 14.1708 30.8348 14.2598 30.7585C14.4376 30.6059 14.6614 30.3963 14.9189 30.1403C15.433 29.6293 16.0649 28.9528 16.7119 28.2263C18.0146 26.7636 19.339 25.1409 19.8799 24.277L20.1641 23.8239L20.5254 24.0856C20.5363 24.0871 20.5483 24.0902 20.5615 24.0915C20.5682 24.0921 20.575 24.092 20.5811 24.0925L21.5547 23.57L21.2012 24.7292C20.912 25.6778 20.6998 26.7415 20.6934 27.3679C20.6942 27.5851 20.7179 27.8004 20.7734 27.9821C20.8156 28.12 20.8702 28.2214 20.9316 28.2927L20.9961 28.3542L21.0059 28.362L21.0156 28.3708C21.0923 28.4385 21.404 28.6557 21.8809 28.9724C22.3394 29.2769 22.9114 29.6483 23.4717 30.0085C24.0316 30.3684 24.5787 30.7162 24.9854 30.9743C25.1887 31.1034 25.3572 31.2106 25.4746 31.2849C25.5332 31.3219 25.5791 31.3511 25.6104 31.3708L25.6387 31.3864C25.6698 31.4038 25.6965 31.4108 25.7217 31.4108C25.8101 31.4108 25.8759 31.3421 25.876 31.2595C25.876 31.215 25.8536 31.1721 25.8174 31.1432L25.8037 31.1325L25.6152 30.9899V30.9802C25.5197 30.9035 25.3896 30.8 25.2354 30.6774C24.893 30.4055 24.4294 30.04 23.9424 29.6667C23.4545 29.2927 22.9464 28.9139 22.5156 28.612C22.3 28.4608 22.1078 28.3311 21.9492 28.2331C21.7822 28.1298 21.6805 28.0792 21.6367 28.0632L21.0459 27.8474L21.3887 27.32C21.4912 27.1622 21.6043 26.8187 21.7041 26.3093C21.7996 25.8214 21.8713 25.2474 21.9238 24.6843C22.0289 23.5572 22.0547 22.5137 22.0547 22.3708V22.3552L22.2031 17.694C22.2027 17.5927 22.1933 17.4954 22.1777 17.3962C22.1672 17.3692 22.1545 17.3355 22.1416 17.3015C22.1223 17.2505 22.0792 17.1389 22.0654 17.0837L21.9355 16.5622L22.4111 16.4782C22.4332 16.4691 22.4602 16.4581 22.4922 16.446C22.5825 16.4117 22.7109 16.3681 22.873 16.3239C23.1973 16.2355 23.6589 16.1466 24.2285 16.1354C25.303 16.1144 26.7412 16.3708 28.3477 17.3942L28.6709 17.6091L28.6758 17.612C28.7526 17.6666 28.8795 17.7654 29.0088 17.8679L29.3574 18.1462L29.3896 18.1725L29.4023 18.1872C29.4069 18.1909 29.4131 18.196 29.4209 18.2018C29.4252 18.205 29.4296 18.2087 29.4336 18.2116C29.4355 18.2125 29.4379 18.2138 29.4404 18.2145C29.4444 18.2156 29.4475 18.2155 29.4492 18.2155C29.4788 18.2155 29.5 18.1929 29.5 18.1657C29.4999 18.1627 29.4983 18.1514 29.4844 18.1345ZM29.4844 18.1345C29.4887 18.1388 29.4916 18.1426 29.4932 18.1442C29.4926 18.1437 29.4915 18.1428 29.4902 18.1413L29.4844 18.1345Z" fill="#18191B" stroke="#18191B"/>
<path d="M19.9023 12.1597C20.6613 12.1597 21.2812 12.779 21.2812 13.5406C21.281 14.3042 20.6609 14.9224 19.9023 14.9224C19.1377 14.9222 18.5198 14.3034 18.5195 13.5406C18.5195 12.7799 19.1373 12.1599 19.9023 12.1597Z" fill="#18191B" stroke="#18191B"/>
</g>
<defs>
<clipPath id="clip0_770_670">
<rect width="40" height="40" fill="white"/>
</clipPath>
</defs>
</svg>
