<svg width="40" height="40" viewBox="0 0 40 40" fill="none" xmlns="http://www.w3.org/2000/svg">
<g clip-path="url(#clip0_770_675)">
<path d="M30 0.75H10C4.89137 0.75 0.75 4.89137 0.75 10V30C0.75 35.1086 4.89137 39.25 10 39.25H30C35.1086 39.25 39.25 35.1086 39.25 30V10C39.25 4.89137 35.1086 0.75 30 0.75Z" fill="white"/>
<path d="M26.7739 11.9443L24.1235 13.9219L23.9224 14.0723V26.2783L21.2974 28.8193V12.6152L24.3687 11.5156L26.7739 11.9443Z" fill="#18191B" stroke="#18191B"/>
<path d="M16.0771 14.0723L15.876 13.9219L13.2246 11.9443L15.6299 11.5146L18.7021 12.6152V28.8193L16.0771 26.2783V14.0723Z" fill="#18191B" stroke="#18191B"/>
<path d="M8.94727 19.5947C9.63006 19.5947 9.93855 19.5975 10.1006 19.6152C10.1082 19.6161 10.1151 19.6174 10.1211 19.6182C10.1283 19.6272 10.1372 19.6376 10.1465 19.6494C10.1775 19.6887 10.2189 19.7418 10.2695 19.8066C10.3709 19.9365 10.5083 20.1131 10.6719 20.3242C10.9989 20.7463 11.4303 21.3051 11.8877 21.8994V21.9004L13.4277 23.9209L13.4131 24.126C13.3996 24.2646 13.3843 24.3196 13.374 24.3457C13.3686 24.3594 13.3606 24.3774 13.3174 24.4209L13.3115 24.4277L13.2637 24.4766L9.77148 24.498C8.6997 24.5018 7.77117 24.4996 7.10645 24.4912C7.09265 24.491 7.07898 24.4904 7.06543 24.4902C7.32802 24.2314 7.64308 23.9311 7.97363 23.6348L8.25977 23.8662L8.39355 23.9746L8.56543 23.9775L9.86816 23.999V24C10.3951 24.0111 10.7412 24.0137 10.9502 24.001C11.036 23.9958 11.1719 23.9852 11.2891 23.9375C11.3424 23.9158 11.5094 23.8408 11.5908 23.6436C11.6763 23.4363 11.604 23.2606 11.5566 23.1777H11.5576C11.5562 23.1753 11.5542 23.1733 11.5527 23.1709C11.55 23.1662 11.5484 23.1612 11.5459 23.1572H11.5439C11.5258 23.1285 11.5085 23.1048 11.5068 23.1025C11.4959 23.0881 11.483 23.0707 11.4688 23.0527C11.4399 23.0164 11.4001 22.9684 11.3525 22.9102C11.257 22.7931 11.1233 22.6311 10.9619 22.4365C10.639 22.0472 10.2029 21.5237 9.7334 20.9619H9.73242C9.30127 20.4466 8.90581 19.9679 8.60059 19.5977C8.70934 19.5963 8.82552 19.5947 8.94727 19.5947ZM12.9922 17.5088C12.7711 17.7692 12.5315 18.044 12.3428 18.2568L12.0693 17.9893L11.9238 17.8457H7.65039C7.66062 17.7516 7.68164 17.6756 7.70703 17.6201C7.7201 17.5916 7.73431 17.5722 7.74512 17.5576C7.78617 17.5547 7.83789 17.5518 7.90039 17.5488C8.0831 17.5401 8.33823 17.532 8.64355 17.5254C9.25332 17.5121 10.0514 17.5038 10.8447 17.501C11.63 17.4982 12.408 17.4999 12.9922 17.5088Z" fill="#18191B" stroke="#18191B"/>
<path d="M27.4883 19.5166V19.5176L28.0986 19.5293C28.0186 20.6385 28.0703 21.5575 28.2773 22.1602V22.1611C28.668 23.3066 29.5207 24.1205 30.6045 24.4053C30.4896 24.4285 30.3609 24.4502 30.2158 24.4658L29.9355 24.4893C29.5478 24.5134 29.2827 24.4956 29.0498 24.4346C28.8183 24.3739 28.5854 24.2624 28.2764 24.0547L28.2725 24.0518L28.0225 23.874C26.8152 22.9456 26.2691 21.4537 26.5908 19.9053V19.9023C26.6304 19.7061 26.6521 19.5958 26.6719 19.5176C26.6958 19.5155 26.7268 19.511 26.7666 19.5098C26.9294 19.5048 27.1482 19.5108 27.4883 19.5166ZM30.832 17.5137V17.5146C31.5873 17.5202 32.216 17.5301 32.707 17.541C32.5056 17.6907 32.2702 17.8644 31.9971 18.0625L31.958 18.0156L31.8086 17.835H29.084C28.5269 17.835 28.0079 17.8296 27.5879 17.8232L27.9033 17.501L30.832 17.5137Z" fill="#18191B" stroke="#18191B"/>
</g>
<defs>
<clipPath id="clip0_770_675">
<rect width="40" height="40" fill="white"/>
</clipPath>
</defs>
</svg>
