<svg width="40" height="40" viewBox="0 0 40 40" fill="none" xmlns="http://www.w3.org/2000/svg">
<g clip-path="url(#clip0_770_681)">
<path d="M30 0.75H10C4.89137 0.75 0.75 4.89137 0.75 10V30C0.75 35.1086 4.89137 39.25 10 39.25H30C35.1086 39.25 39.25 35.1086 39.25 30V10C39.25 4.89137 35.1086 0.75 30 0.75Z" fill="white"/>
<path d="M18.8325 15.3021C19.2746 14.5369 20.2555 14.272 21.0239 14.7162V14.7152C21.7411 15.1325 22.0149 16.0211 21.6831 16.7601L21.6089 16.9056C21.193 17.625 20.3058 17.8996 19.5649 17.5677L19.4185 17.4926C18.6519 17.0515 18.389 16.0703 18.8325 15.3031V15.3021Z" fill="#18191B" stroke="#18191B"/>
<path d="M20.2554 11.3037C20.6979 10.5352 21.6769 10.272 22.4448 10.7148C23.2128 11.1577 23.4755 12.1377 23.0337 12.9043C22.5899 13.6716 21.6101 13.9348 20.8413 13.4902L20.7036 13.4014C20.0452 12.9265 19.8396 12.02 20.2544 11.3047L20.2554 11.3037Z" fill="#18191B" stroke="#18191B"/>
<path d="M15.6006 15.4518C15.8651 15.3174 16.2363 15.3094 16.6143 15.4479C16.9912 15.5861 17.2972 15.8419 17.4414 16.1237V16.1246C17.5586 16.3557 17.6163 16.6666 17.5938 16.9918C17.5712 17.3168 17.4712 17.6166 17.3193 17.8307L17.1738 18.0367L17.2529 18.276C17.4506 18.8757 17.8011 19.3108 18.207 19.6256C18.2206 19.8241 18.2831 20.0096 18.3828 20.1705C17.6575 19.778 17.1689 19.2035 16.8408 18.6422L16.6201 18.2643L16.2168 18.4332L13.8105 19.4401L13.2588 19.6705L13.583 20.1725C14.0529 20.9003 14.4327 21.6861 14.7061 22.5065L14.8164 22.86C14.9052 23.1735 14.9828 23.5315 15.001 23.8717C15.0194 24.2169 14.9738 24.4919 14.8662 24.6823C14.2369 25.7446 13.3296 26.2182 12.1865 27.0651C11.6852 27.3631 11.1667 27.6892 10.6875 27.8531L10.665 27.861L10.6631 27.8619L10.5928 27.8834C10.5816 27.8867 10.5689 27.8883 10.5576 27.8883C10.4302 27.8883 10.3262 27.7815 10.3262 27.6588C10.3262 27.5905 10.3529 27.5345 10.4043 27.4889L10.502 27.401L10.5088 27.3805C10.7056 27.184 11.0029 26.9307 11.3643 26.6412C11.5642 26.4811 11.7776 26.3146 11.9951 26.1442C12.2117 25.9745 12.4324 25.8007 12.6455 25.6305C13.0677 25.2932 13.477 24.9528 13.7705 24.6569C13.9153 24.5109 14.0518 24.3561 14.1475 24.2028C14.2212 24.0846 14.3658 23.8199 14.2676 23.5231H14.2686C14.2676 23.5201 14.2657 23.5173 14.2646 23.5143C14.264 23.5124 14.2643 23.5103 14.2637 23.5084H14.2627C14.2043 23.3363 14.0785 23.103 13.9482 22.8785C13.8047 22.6314 13.6242 22.3395 13.4375 22.0406C13.057 21.4316 12.655 20.8007 12.4287 20.3824L11.7656 19.1569L11.498 20.525C11.1854 22.1258 10.4297 23.6047 9.43945 24.819C8.7311 25.6849 7.06354 27.4904 6.89746 27.6656L6.89551 27.6666C6.85325 27.7115 6.79589 27.7389 6.73047 27.7389C6.60184 27.7389 6.50005 27.6353 6.5 27.5104C6.5 27.4766 6.50893 27.4395 6.53223 27.3971C6.53729 27.3895 6.54379 27.3797 6.55176 27.3678C6.5727 27.3365 6.60339 27.2906 6.64258 27.2321C6.72126 27.1145 6.83445 26.9455 6.9707 26.7418C7.24319 26.3344 7.61008 25.7861 7.98633 25.2223C8.73539 24.0999 9.53181 22.9021 9.69141 22.6481L9.7002 22.6354L9.70703 22.6217C9.78794 22.4731 9.93662 22.2695 10.0977 21.7789C10.2516 21.3099 10.4245 20.564 10.6338 19.2448C10.6808 19.0361 10.7331 18.8731 10.7969 18.7438L10.8232 18.691L10.8359 18.6344C10.913 18.2964 11.1339 17.9941 11.4668 17.8239L11.4883 17.8121L15.6006 15.4518ZM10.5811 27.8903L10.5781 27.8912C10.5792 27.8908 10.5805 27.8899 10.582 27.8893C10.5838 27.8886 10.5862 27.8873 10.5889 27.8864C10.5856 27.8876 10.5832 27.8894 10.5811 27.8903Z" fill="#18191B" stroke="#18191B"/>
<path d="M25.0166 13.1256C25.4359 13.0898 25.7705 13.1975 25.958 13.3873L29.0303 17.0865L29.042 17.1012L29.0557 17.1149C29.0867 17.1472 29.1515 17.2494 29.2295 17.4537C29.302 17.6438 29.368 17.8738 29.4268 18.1119C29.4851 18.3486 29.5337 18.5837 29.5723 18.7809C29.6082 18.9648 29.6406 19.1438 29.6602 19.2291C29.8693 20.5493 30.0421 21.2947 30.1953 21.7633C30.3551 22.2521 30.5027 22.4572 30.5811 22.6041L30.5898 22.6207L30.6006 22.6364C30.9116 23.1257 33.233 26.4923 33.7305 27.2115L33.3125 27.486C32.9504 27.2129 32.5445 26.8046 32.1279 26.3336C31.6805 25.8277 31.2455 25.2821 30.8555 24.8033V24.8024L30.6514 24.5455C29.6524 23.243 28.9232 21.6602 28.707 19.9645C28.6926 19.8429 28.6765 19.7476 28.6621 19.6031L28.6191 19.1705L28.1846 19.153L28.085 19.1461C28.0548 19.1429 28.0274 19.1387 28.002 19.1334L27.666 19.0631L27.4795 19.3512C27.3992 19.4749 27.2988 19.6007 27.1885 19.733C27.0949 19.8453 26.9818 19.9782 26.8896 20.0953C26.5977 20.4184 26.032 20.9372 25.4756 21.4537C25.2036 21.7062 24.9373 21.956 24.7207 22.1696C24.569 22.3192 24.4181 22.474 24.3086 22.609L24.2188 22.7291C24.0398 22.9942 24.1156 23.2946 24.1572 23.4293C24.2108 23.6024 24.3032 23.7885 24.4062 23.9684C24.6149 24.3326 24.9236 24.7701 25.2461 25.2086C25.4089 25.43 25.5788 25.6569 25.7451 25.8785C25.9119 26.1009 26.0753 26.3184 26.2275 26.526C26.5342 26.9441 26.7767 27.2967 26.9102 27.5446C26.9115 27.5475 26.9135 27.5506 26.915 27.5543C26.9234 27.5741 26.9345 27.6016 26.9453 27.6315C26.9563 27.662 26.9651 27.6901 26.9707 27.7125C26.9719 27.7172 26.972 27.7212 26.9727 27.7242C26.969 27.8486 26.8696 27.9467 26.7451 27.9469C26.7097 27.9469 26.677 27.9389 26.6494 27.9274C26.6291 27.9179 26.6003 27.8992 26.5723 27.8707L26.5479 27.8463L26.5215 27.8258L26.3154 27.6364C26.2147 27.538 26.0843 27.4052 25.9297 27.2418C25.6311 26.9263 25.2663 26.5207 24.9033 26.0846C24.5397 25.6476 24.1829 25.1857 23.8965 24.7574C23.6764 24.4282 23.5126 24.141 23.415 23.9117L23.3398 23.7028C23.2838 23.492 23.3092 23.2149 23.417 22.8854C23.5227 22.5622 23.691 22.2369 23.8584 21.9557C24.571 20.7897 25.5283 19.7582 26.6387 18.9567L27.1309 18.6022L26.6885 18.1871L25.3594 16.941L24.8262 16.4401L24.5537 17.1198C24.098 18.2574 23.1849 19.4118 21.334 19.6696L21.3184 19.6715L21.3027 19.6744C21.0335 19.7293 20.6843 19.7676 20.3398 19.7711C19.9883 19.7747 19.6826 19.7415 19.4824 19.6783H19.4805L19.4375 19.6637L19.3916 19.6578C19.3223 19.6483 19.2852 19.5969 19.2852 19.5436C19.2852 19.5398 19.286 19.5347 19.2881 19.527C19.2904 19.5185 19.2944 19.5052 19.3037 19.4869L19.3086 19.4781C19.3095 19.4763 19.3097 19.4741 19.3105 19.4723C19.3112 19.4717 19.3125 19.4712 19.3135 19.4703C19.3159 19.4683 19.3188 19.4644 19.3232 19.4606C19.3601 19.4314 19.3868 19.4264 19.4014 19.4264C19.4219 19.4277 20.1339 19.4521 20.6064 19.403H20.6152L20.623 19.401C20.9195 19.3602 21.7627 19.2501 22.5527 18.8043C23.3687 18.3439 24.1361 17.5175 24.209 16.1022L24.2207 15.8707L24.0518 15.7115L23.8389 15.5114C23.6405 15.2983 23.5282 14.951 23.5498 14.5553C23.569 14.2044 23.6909 13.8795 23.874 13.6559L23.9561 13.566C24.1979 13.3334 24.5982 13.1614 25.0166 13.1256Z" fill="#18191B" stroke="#18191B"/>
<path d="M8.91846 18.3784C8.53488 18.5038 8.11801 18.712 7.73975 18.9916C7.63756 19.0672 7.53725 19.1502 7.43896 19.2387L7.42822 18.8705C7.66305 18.7032 7.9876 18.5397 8.34131 18.4487C8.53928 18.3978 8.73381 18.3742 8.91846 18.3784Z" fill="#18191B" stroke="#18191B"/>
<path d="M30.8887 17.3784C31.0734 17.3741 31.2678 17.3978 31.4658 17.4487C31.8195 17.5396 32.1441 17.7032 32.3789 17.8705L32.3682 18.2387C32.2701 18.1504 32.1703 18.067 32.0684 17.9916C31.69 17.7119 31.2724 17.5038 30.8887 17.3784Z" fill="#18191B" stroke="#18191B"/>
<path d="M22 10.5L22.8469 9.65314C22.9383 9.56169 23.078 9.53901 23.1937 9.59686C23.452 9.726 23.726 9.452 23.5969 9.19371L23.5854 9.17082C23.5331 9.06613 23.4261 9 23.309 9H23.0707C22.739 9 22.4536 9.23445 22.3892 9.5598L22.3199 9.91011C22.2764 10.1296 22.1688 10.3312 22.0106 10.4894L22 10.5Z" fill="#18191B" stroke="#18191B"/>
<path d="M19.5 15L18.1531 13.6531C18.0617 13.5617 17.922 13.539 17.8063 13.5969C17.548 13.726 17.274 13.452 17.4031 13.1937L17.4146 13.1708C17.4669 13.0661 17.5739 13 17.691 13H17.9293C18.261 13 18.5464 13.2345 18.6108 13.5598L18.6801 13.9101C18.7236 14.1296 18.8312 14.3312 18.9894 14.4894L19.5 15Z" fill="#18191B" stroke="#18191B"/>
</g>
<defs>
<clipPath id="clip0_770_681">
<rect width="40" height="40" fill="white"/>
</clipPath>
</defs>
</svg>
