<svg width="40" height="40" viewBox="0 0 40 40" fill="none" xmlns="http://www.w3.org/2000/svg">
<g clip-path="url(#clip0_770_691)">
<path d="M30 0.75H10C4.89137 0.75 0.75 4.89137 0.75 10V30C0.75 35.1086 4.89137 39.25 10 39.25H30C35.1086 39.25 39.25 35.1086 39.25 30V10C39.25 4.89137 35.1086 0.75 30 0.75Z" fill="white"/>
<path d="M22.1032 11.1767C22.8625 11.8177 23.9984 11.7197 24.6373 10.9585C25.2744 10.1956 25.1764 9.06043 24.4143 8.42246C23.655 7.78174 22.5161 7.88144 21.8792 8.64264C21.2412 9.40585 21.339 10.5407 22.1032 11.1767Z" fill="#18191B"/>
<path d="M32.4441 22.7175C32.2885 21.9934 29.264 21.9806 25.0481 22.5825C24.7594 23.3357 24.4698 23.9669 24.3583 24.1409C24.326 24.2193 24.2722 24.2975 24.2037 24.3581C24.1371 24.4247 24.055 24.4736 23.964 24.5079C23.8886 24.5344 23.8074 24.549 23.7252 24.549C23.4376 24.549 23.1715 24.3661 23.0736 24.0921C23.0325 23.9766 23.0423 23.784 23.0472 23.7076C23.0775 23.4824 23.1499 23.1919 23.2399 22.866C22.2155 23.0403 21.1402 23.2427 20.0385 23.4777C19.9622 23.4922 19.8878 23.512 19.8144 23.5265C19.5121 24.3827 19.1501 25.3563 18.7343 25.9532C18.6892 26.0391 18.6217 26.1145 18.5366 26.1781C18.474 26.2252 18.4212 26.2545 18.3644 26.274C18.2871 26.3033 18.2079 26.3151 18.1266 26.3151C17.8341 26.3151 17.5738 26.1322 17.4721 25.8552L17.4652 25.8357L17.4662 25.8337C17.4515 25.7936 17.4418 25.7475 17.4359 25.6939V25.6626C17.432 25.6155 17.432 25.5694 17.4418 25.5206L17.4427 25.5061C17.4495 25.464 17.4603 25.4297 17.4721 25.3906L17.5494 25.09C17.6228 24.8162 17.7255 24.417 17.839 23.9766C12.2815 25.3199 8.2064 26.9511 8.3913 27.8287C8.60266 28.8229 14.1581 28.4822 20.7987 27.0715C27.4413 25.6576 32.6545 23.7106 32.4441 22.7175Z" fill="#18191B"/>
<path d="M27.7338 14.9488C27.7044 14.8656 27.6556 14.7972 27.594 14.7404C27.589 14.7356 27.584 14.7256 27.5772 14.7188C27.5694 14.7141 27.5597 14.7091 27.5527 14.7061C27.5214 14.6845 27.49 14.665 27.456 14.6504C27.4452 14.6424 27.4304 14.6407 27.4177 14.6327C27.3062 14.5956 27.181 14.5888 27.0597 14.6327C27.0419 14.6407 26.5029 14.8608 26.1282 14.9538C25.6272 15.0632 23.5657 15.5113 22.7604 13.5984L22.8769 13.3705C23.2046 12.6349 22.734 11.5899 22.0002 11.262C21.7272 11.1427 21.3936 11.1007 21.0697 11.135C20.7635 11.1818 20.6176 11.262 20.5237 11.3384C20.466 11.3599 20.4063 11.3872 20.3486 11.4088C20.0922 11.4999 19.8447 11.5703 19.6343 11.6192C18.3017 12.0545 14.026 11.6367 14.026 11.6367C13.8851 11.6387 13.7432 11.6956 13.6415 11.803C13.5319 11.9205 13.4898 12.0743 13.5064 12.2208C13.5064 12.2258 13.5074 12.2434 13.5094 12.2474C13.527 12.3608 13.5788 12.4685 13.6659 12.5517C13.7608 12.6369 13.8773 12.6837 13.9956 12.6905C14.294 12.7298 17.0562 13.085 19.3476 12.9009C19.3741 12.8961 19.3985 12.8941 19.4259 12.8941L18.3722 15.8264C18.1315 16.3529 18.4397 17.6737 18.4729 17.93C18.9142 20.195 18.7684 20.4573 18.7175 20.8017C18.6148 21.2841 17.7098 24.7527 17.5385 25.415C17.5258 25.4493 17.518 25.4806 17.5111 25.5159L17.5102 25.5227C17.5102 25.5257 17.5102 25.5275 17.5102 25.5325C17.5043 25.5746 17.5013 25.6156 17.5063 25.6597C17.5063 25.6695 17.5063 25.6793 17.5072 25.687C17.5111 25.7331 17.5209 25.7819 17.5385 25.826C17.5385 25.8308 17.5385 25.8308 17.5385 25.8308V25.8338C17.6569 26.1587 18.017 26.325 18.3418 26.2075C18.3966 26.188 18.4456 26.1587 18.4906 26.1243C18.4925 26.1223 18.4945 26.1223 18.4945 26.1223C18.5727 26.0657 18.6324 25.9924 18.6755 25.914C19.198 25.1675 19.6275 23.8377 19.9738 22.8546C20.4856 21.379 20.6617 19.7089 20.2948 18.0963C20.2752 18.0131 20.2537 17.9037 20.2243 17.7814C20.2948 17.7539 20.3613 17.7198 20.4288 17.6805C20.6725 17.8646 20.9699 18.0114 21.1783 18.1404C21.8789 18.5123 23.7036 19.1904 24.0441 19.4486C24.4384 19.7304 23.2702 22.6197 23.1175 23.7107C23.1175 23.7107 23.097 23.9504 23.1391 24.0677C23.2575 24.3905 23.6146 24.5589 23.9394 24.4416C24.0226 24.4121 24.096 24.3662 24.1547 24.3074C24.2173 24.2488 24.2652 24.1774 24.2965 24.104C24.5412 23.7205 25.8063 20.7704 25.7154 19.5964C25.6643 18.9847 25.0872 18.4144 24.6263 18.0427C23.6684 17.2725 22.5462 16.7001 21.3622 16.3627L22.0657 14.9733C22.8387 15.8315 24.0598 16.5896 25.8111 16.2159C26.3316 16.1345 27.084 15.8998 27.4755 15.5995C27.4755 15.5995 27.4765 15.5965 27.4803 15.5965C27.7142 15.477 27.8267 15.2002 27.7338 14.9488Z" fill="#18191B"/>
<path d="M32.8179 25.7994H32.8277C29.3092 27.9961 23.2929 28.9031 19.9506 28.6173C13.8285 28.0958 8 28.8132 8 28.8132V31.1046C8 31.1046 13.7121 28.5978 19.8292 29.1017C23.2772 29.3855 29.3886 29.9208 33 27.3083V25.6577C32.9451 25.7105 32.8845 25.7573 32.8179 25.7994Z" fill="#18191B"/>
</g>
<defs>
<clipPath id="clip0_770_691">
<rect width="40" height="40" fill="white"/>
</clipPath>
</defs>
</svg>
