<svg width="40" height="40" viewBox="0 0 40 40" fill="none" xmlns="http://www.w3.org/2000/svg">
<g clip-path="url(#clip0_770_697)">
<path d="M30 0.75H10C4.89137 0.75 0.75 4.89137 0.75 10V30C0.75 35.1086 4.89137 39.25 10 39.25H30C35.1086 39.25 39.25 35.1086 39.25 30V10C39.25 4.89137 35.1086 0.75 30 0.75Z" fill="white"/>
<path d="M22.197 20.6852C23.5779 21.5127 25.3694 21.0687 26.2017 19.6863C27.0309 18.3068 26.5806 16.5153 25.2029 15.6829C23.8204 14.8537 22.0289 15.2977 21.1982 16.685C20.3674 18.0645 20.8177 19.856 22.197 20.6852Z" fill="#18191B"/>
<path d="M30.969 22.3926C31.6143 21.9218 32.131 21.5014 32.1594 21.4413L32.1627 21.438C32.2548 21.3589 32.3307 21.2635 32.383 21.1446C32.575 20.7119 32.3782 20.2095 31.952 20.0143C31.9455 20.0143 31.9407 20.011 31.9362 20.011H31.9329C31.6553 19.8954 31.3542 19.9351 31.1212 20.0938C31.1163 20.0938 31.1147 20.0938 31.1147 20.0938C30.1317 20.8593 29.5501 21.4778 28.7067 21.9377C28.7067 21.9377 25.5421 21.66 23.8045 21.6791C23.7648 21.6868 22.9658 21.7234 23.2052 21.7108C22.6979 21.4462 22.2032 21.1401 21.688 20.8357C21.5849 20.617 21.4502 20.4108 21.2932 20.2205C21.1489 20.0301 20.6685 19.6417 20.3832 19.5118C19.9948 19.3215 19.581 19.2265 19.164 19.2216C19.1386 18.6161 13.6104 14.5335 8.84938 15.0441C8.29132 15.1045 6.65046 15.3452 6.61714 15.3659C6.41579 15.4215 6.23664 15.5514 6.11935 15.7418C6.11935 15.7466 6.11935 15.7466 6.11935 15.7495C6.11935 15.7495 6.11776 15.7543 6.11776 15.7576C6.11139 15.7576 6.11297 15.7576 6.11139 15.7657C5.88309 16.1651 6.0163 16.6724 6.41421 16.9151C6.57274 17.0101 6.75192 17.0498 6.92312 17.034C6.92786 17.0385 6.92787 17.0385 6.93582 17.0417C6.93582 17.0417 8.00279 16.8721 8.37854 16.8486C14.5806 16.4439 16.9714 20.0857 16.9825 20.1048C16.7922 20.2886 16.6226 20.5025 16.4768 20.7485L15.8394 21.9328C10.4158 21.5886 6.00043 19.5751 6.00043 19.5751V22.2465C6.00043 22.2465 12.5275 23.0741 19.3844 22.4718C25.3788 21.9377 31.6237 23.3992 34 25.8851V23.9856C33.3137 23.2725 32.2641 22.7571 30.969 22.3926Z" fill="#18191B"/>
</g>
<defs>
<clipPath id="clip0_770_697">
<rect width="40" height="40" fill="white"/>
</clipPath>
</defs>
</svg>
