<svg width="40" height="40" viewBox="0 0 40 40" fill="none" xmlns="http://www.w3.org/2000/svg">
<g clip-path="url(#clip0_770_701)">
<path d="M30 0.75H10C4.89137 0.75 0.75 4.89137 0.75 10V30C0.75 35.1086 4.89137 39.25 10 39.25H30C35.1086 39.25 39.25 35.1086 39.25 30V10C39.25 4.89137 35.1086 0.75 30 0.75Z" fill="white"/>
<path d="M17.6156 7C18.6979 7 19.5784 7.87734 19.5784 8.96404C19.5784 10.0487 18.6979 10.9292 17.6156 10.9292C16.53 10.9292 15.6504 10.0487 15.6504 8.96404C15.6504 7.87734 16.53 7 17.6156 7Z" fill="#18191B"/>
<path d="M9.96564 10.4455C9.96564 9.84487 10.4517 9.35877 11.0511 9.35877C11.6517 9.35877 12.1367 9.84487 12.1367 10.4455C12.1367 11.0461 11.6517 11.5322 11.0511 11.5322C10.4517 11.5322 9.96564 11.0461 9.96564 10.4455ZM21.8997 16.079C21.9568 14.8013 21.9615 13.9229 21.473 12.5366C22.1583 12.493 22.7966 12.4587 22.9419 12.5992C23.8602 13.1849 22.459 16.5938 22.4338 16.6339C22.4338 16.6339 22.4306 16.6394 22.4306 16.643C22.37 16.7402 22.3366 16.8488 22.339 16.9712C22.346 17.3121 22.6274 17.5833 22.9682 17.5774C23.1431 17.5753 23.3009 17.4975 23.4095 17.3774C23.6283 17.1633 24.375 14.9981 24.652 13.7717C24.867 12.8168 24.7091 11.4554 23.245 10.8174C22.8262 10.6171 20.7913 10.9488 20.1875 11.0264C19.4587 10.863 18.2039 11.063 17.3482 11.2633C16.9708 11.3491 16.7684 11.5243 16.6653 11.7152C16.1643 12.3214 15.287 14.5612 14.9107 14.6801C13.9648 15.2154 11.6105 12.382 11.5888 12.3421C11.5888 12.3386 11.5864 12.3328 11.582 12.3307C11.5247 12.2332 11.4435 12.1533 11.3349 12.0985C11.3235 12.0926 11.3144 12.0903 11.303 12.0847C11.288 12.0206 11.2719 11.9612 11.255 11.9073C11.9777 11.8065 12.5349 11.1948 12.5349 10.4455C12.5349 9.62525 11.8725 8.96405 11.0511 8.96405C10.2333 8.96405 9.56885 9.62525 9.56885 10.4455C9.56885 11.1948 10.1281 11.8065 10.8488 11.9073C10.8292 11.9647 10.8134 12.0206 10.7996 12.0903C10.6749 12.1477 10.5697 12.2391 10.5056 12.3673C10.4257 12.5252 10.421 12.6988 10.4737 12.8534C10.5607 13.1451 12.1197 14.8242 13.0737 15.6421C13.8137 16.2769 15.0925 16.7791 16.3406 15.7873C16.5303 15.6479 16.7936 15.0816 17.0337 14.481C17.0337 14.481 17.4615 16.2336 17.497 16.8283C17.5277 17.3888 17.5107 17.9698 17.4683 18.5133H21.7123C21.7981 17.4254 21.8953 16.1706 21.8997 16.079Z" fill="#18191B"/>
<path d="M21.6492 19.2761H17.3917C17.2795 20.157 17.1284 20.8009 17.0769 20.8296C16.917 21.381 15.2593 24.1972 15.0833 25.476C14.9026 26.7744 15.2801 31.0787 15.264 31.2445C15.264 31.2445 15.2663 31.2503 15.2663 31.2559C15.2663 31.4755 15.3659 31.6908 15.5556 31.836C15.876 32.0796 16.3357 32.0132 16.5794 31.6908C16.6994 31.5306 16.7419 31.335 16.719 31.1496L16.7167 31.1473C16.71 31.1016 16.4101 28.7302 16.9832 26.008C17.3322 24.3377 18.469 22.5248 18.5674 22.3796C18.6327 22.4367 18.9999 22.5134 19.0684 22.4847C18.5721 23.6036 18.1352 24.9017 18.023 25.7369C17.9522 26.3375 17.9955 27.0432 18.4061 27.4584C18.8752 27.9902 23.5924 31.8416 23.5924 31.8416L23.5936 31.8395C23.7022 31.9195 23.8317 31.9766 23.9746 31.9938C24.4059 32.0477 24.7983 31.7423 24.8507 31.3098C24.8841 31.0547 24.7869 30.8158 24.6164 30.6497C24.6141 30.6497 24.6141 30.6462 24.6141 30.6462C24.6141 30.6462 20.797 26.6977 19.9229 26.2517C20.4251 25.5905 21.537 20.4887 21.5839 20.1089C21.5839 20.1089 21.6126 19.7622 21.6492 19.2761Z" fill="#18191B"/>
<path d="M15 11.4998C15 11.7784 14.7784 12 14.5032 12C14.2212 12 14 11.7784 14 11.4998C14 11.2211 14.2212 11 14.5032 11C14.7784 11 15 11.2211 15 11.4998Z" fill="#18191B"/>
<path d="M5 19.1938H34.1608V18.5932H5V19.1938Z" fill="#18191B"/>
</g>
<defs>
<clipPath id="clip0_770_701">
<rect width="40" height="40" fill="white"/>
</clipPath>
</defs>
</svg>
