<svg width="40" height="40" viewBox="0 0 40 40" fill="none" xmlns="http://www.w3.org/2000/svg">
<g clip-path="url(#clip0_770_708)">
<path d="M30 0.75H10C4.89137 0.75 0.75 4.89137 0.75 10V30C0.75 35.1086 4.89137 39.25 10 39.25H30C35.1086 39.25 39.25 35.1086 39.25 30V10C39.25 4.89137 35.1086 0.75 30 0.75Z" fill="white"/>
<path d="M9.78162 13.2226C10.8762 12.8464 11.4592 11.6514 11.0829 10.5547C10.7043 9.46007 9.51162 8.87834 8.41585 9.25459C7.32125 9.63113 6.73979 10.8247 7.11488 11.9228C7.49346 13.0174 8.68498 13.5989 9.78162 13.2226Z" fill="#18191B"/>
<path d="M12.762 13.5361C12.7404 13.4211 12.6858 13.314 12.6003 13.225C12.5682 13.1908 12.5364 13.1599 12.4941 13.1339C12.2127 12.9491 11.8282 13.0311 11.6435 13.314C11.5798 13.4164 11.5489 13.5271 11.5466 13.6389C11.5454 13.6447 11.5454 13.6503 11.5454 13.6526C11.5454 13.6581 11.5308 13.7495 11.5022 13.8919C11.3484 14.7107 10.7646 17.3217 9.84657 17.3299C9.64604 17.3696 9.12384 17.0047 8.57071 16.6033L8.62558 16.5406C8.99833 16.8086 9.6618 17.2817 9.82847 17.2476C9.91517 17.2444 9.98464 17.2248 10.0541 17.1871C10.7599 16.8144 11.2558 14.7507 11.412 13.9524C11.3688 13.9492 10.8011 13.0825 9.96304 13.2968C9.11333 13.5134 8.14775 14.0802 7.63927 14.6252C6.82051 15.4918 6.98572 16.7175 7.08147 17.113C7.11591 17.2385 7.2674 17.632 7.48077 17.829C7.94926 18.268 8.84334 18.9601 9.16238 18.9945C10.7336 19.2316 11.5866 18.1597 11.9103 17.242C12.3221 16.0584 12.8362 13.835 12.762 13.5361Z" fill="#18191B"/>
<path d="M16.3813 10.7793C16.2216 10.4807 15.8501 10.3631 15.55 10.5263C15.3778 10.6173 15.2706 10.7793 15.2365 10.9562C15.2353 10.9594 15.0792 12.2592 15.0713 12.2788C14.9262 13.3883 14.5809 15.0632 13.8602 15.1498C13.6938 15.2012 13.2011 14.9753 12.6369 14.6904C12.589 15.0074 12.5 15.4315 12.394 15.8875C12.3894 15.9023 12.3858 15.9161 12.3826 15.933C12.3462 16.0789 12.3117 16.2272 12.272 16.372C12.272 16.3755 12.272 16.3755 12.272 16.3779C12.7291 16.6549 13.1556 16.8773 13.3552 16.8773C14.9446 16.9456 15.679 15.7882 15.9023 14.8419C16.1314 13.8751 16.4201 11.883 16.4508 11.11C16.4586 10.9959 16.4382 10.8853 16.3813 10.7793Z" fill="#18191B"/>
<path d="M12.354 18.9636H12.3505L12.3336 18.9601L12.3266 18.9581C12.1158 18.909 11.9389 18.787 11.8248 18.6101C11.7075 18.4277 11.6654 18.2134 11.711 18.0001C11.7565 17.7858 11.882 17.6069 12.0645 17.4872C12.2355 17.3754 12.4474 17.3354 12.6482 17.3731C12.4874 16.9113 12.3952 16.526 12.3175 16.1871L12.3164 16.1894C12.2638 16.3868 12.2081 16.575 12.1523 16.7516C12.1523 16.7575 12.1511 16.763 12.1488 16.7689C12.1237 16.8509 12.0998 16.9285 12.0723 17.0047C12.0712 17.014 12.07 17.0219 12.0668 17.031C12.0405 17.113 12.0107 17.193 11.9868 17.2671C11.842 17.6775 11.485 18.4277 10.7098 18.8404C10.2515 19.0856 9.72932 19.1633 9.14903 19.0766C9.12159 19.0742 9.08511 19.0629 9.04862 19.0491C9.03257 19.0456 9.02002 19.0401 9.00397 19.0377C8.98003 19.0287 8.95172 19.015 8.92544 19.0001C8.88779 18.9832 8.85014 18.9636 8.80898 18.9408C8.7976 18.9353 8.78621 18.9295 8.7725 18.9236C8.459 18.7435 8.05093 18.4335 7.61426 18.0789C8.24008 19.1061 9.29498 20.3034 9.96867 21.0445L12.875 19.0091C12.8021 19.0036 12.7326 18.9978 12.6596 18.9887C12.4588 18.9718 12.3838 18.9636 12.354 18.9636Z" fill="#18191B"/>
<path d="M13.622 19.445C13.6208 19.4415 13.6208 19.4415 13.6208 19.4392L10.4966 21.6284C10.5136 21.6456 10.5308 21.6684 10.5445 21.6797C12.2241 24.7297 11.0495 32.8765 11.0609 32.8937C11.0609 32.8937 11.0463 32.9792 11.0463 33.0224C11.0463 33.4273 11.3735 33.749 11.7737 33.749C12.0781 33.749 12.3347 33.5665 12.4474 33.3041C12.4611 33.2904 14.0084 22.7834 14.1646 22.4071C14.2329 22.2475 15.4734 20.9649 17.0184 19.4085C16.1544 19.3195 15.2192 19.2261 14.2215 19.1347C13.8762 19.3822 13.6573 19.5054 13.622 19.445Z" fill="#18191B"/>
<path d="M23.2774 13.185H23.2798C23.4062 13.0539 23.4861 12.8738 23.4861 12.6753C23.4861 12.2763 23.1601 11.9456 22.7564 11.9456C22.5521 11.9456 22.3688 12.0334 22.2354 12.168C21.714 12.6059 18.5455 15.5146 16.1978 17.5237C17.0417 17.5441 17.9539 17.5634 18.843 17.5806C21.0687 15.3572 23.259 13.2057 23.2774 13.185Z" fill="#18191B"/>
<path d="M10.166 21.0104C10.2707 21.0159 10.3653 21.0559 10.4327 21.1301C10.4406 21.1359 10.443 21.1438 10.4476 21.1528C10.4739 21.1838 10.4978 21.2156 10.5136 21.2498C10.5332 21.2976 10.5445 21.349 10.5445 21.4039C10.5445 21.4404 10.5332 21.4745 10.525 21.5087L13.5762 19.3685L13.3996 19.0573C13.2673 19.0457 13.1363 19.0322 13.004 19.0209L10.166 21.0104Z" fill="#18191B"/>
<path d="M11.1418 25.1778L10.4564 21.657L10.4404 21.6684C10.4451 21.6626 10.4474 21.6547 10.4518 21.6488C10.4337 21.6684 10.4132 21.6888 10.3949 21.7084C10.3651 21.7276 10.3368 21.7516 10.3058 21.7653C10.2944 21.7688 10.2819 21.7743 10.274 21.7767C10.2308 21.7939 10.1896 21.8053 10.1453 21.8053C10.1088 21.8053 10.0744 21.7971 10.0414 21.7857C10.0174 21.7822 9.99702 21.7708 9.97542 21.7594C9.96841 21.7574 9.96287 21.7574 9.95586 21.7516C9.90566 21.7198 9.85895 21.6774 9.82363 21.6284V21.6342C9.80758 21.6115 9.79299 21.5919 9.78131 21.5633L7.96631 24.8416L8.5034 25.1402L9.98797 22.4641L10.5361 25.2975L11.1418 25.1778Z" fill="#18191B"/>
<path d="M10.1456 21.0869C9.97222 21.0869 9.82861 21.227 9.82861 21.4039C9.82861 21.5805 9.97222 21.7197 10.1456 21.7197C10.3198 21.7197 10.4626 21.5805 10.4626 21.4039C10.4626 21.227 10.3198 21.0869 10.1456 21.0869Z" fill="#18191B"/>
<path d="M29.569 16.7427C29.6863 16.6093 29.977 16.5033 30.0807 16.4861H30.0818C30.6499 16.4496 31.0877 16.3892 31.196 16.33C31.3008 16.2786 31.391 16.1954 31.4502 16.0903C31.4753 16.0506 31.4934 16.0071 31.5072 15.9616C31.6076 15.6367 31.4251 15.2946 31.0991 15.1954C30.9861 15.1577 30.8688 15.1601 30.7605 15.1898C30.7546 15.1898 30.7523 15.1898 30.75 15.1919C30.7433 15.1954 30.6531 15.2068 30.506 15.2181C29.6784 15.2946 27.0091 15.4519 26.7469 14.5684C26.6509 14.3915 26.8573 13.7861 27.0899 13.1454L27.1664 13.1795C27.0114 13.6162 26.7399 14.386 26.8176 14.5307C26.845 14.6128 26.8836 14.6767 26.9384 14.7336C27.4936 15.306 29.6133 15.2181 30.4251 15.1463C30.4239 15.1384 31.0512 15.0608 31.3338 15.0631C31.4672 15.0631 31.579 14.2091 31.2223 13.5958C30.7798 12.841 29.3991 12.0426 28.7388 11.7029C27.676 11.1591 26.5461 11.6515 26.1915 11.8546C26.0797 11.9229 25.7434 12.1795 25.6124 12.4361C25.3193 13.0062 24.8995 14.0576 24.9556 14.3746C25.016 14.825 25.162 15.1863 25.366 15.4805C25.1882 15.8623 24.9716 16.2727 24.7402 16.6344L27.9075 18.6126C28.2724 18.1371 28.9747 17.4325 29.569 16.7427Z" fill="#18191B"/>
<path d="M31.5849 12.0825C32.6783 11.7062 33.2621 10.5112 32.8859 9.4143C32.5073 8.31969 31.3134 7.73824 30.2188 8.11449C29.1219 8.49308 28.5404 9.6846 28.9167 10.7815C29.2941 11.8761 30.4891 12.4611 31.5849 12.0825Z" fill="#18191B"/>
<path d="M27.6123 18.8613C27.6228 18.8499 27.626 18.8385 27.6363 18.8268C27.6649 18.7927 27.7048 18.7664 27.748 18.7436V18.7413C27.7927 18.7185 27.8382 18.7072 27.8908 18.6981L24.6776 16.6948L24.3057 17.2159L27.5507 19.2148C27.5393 19.1771 27.5268 19.1406 27.5268 19.0971C27.5268 19.0093 27.5624 18.9319 27.6123 18.8633V18.8613Z" fill="#18191B"/>
<path d="M28.349 19.055C28.3514 19.0801 28.349 19.1061 28.3467 19.1347L28.3444 19.1292C28.342 19.1689 28.3307 19.2112 28.3149 19.2488C28.3137 19.2544 28.3137 19.2591 28.3091 19.2658C28.3047 19.2795 28.3012 19.2909 28.293 19.3023C28.2921 19.3116 28.2863 19.3171 28.2816 19.323C28.2691 19.3399 28.2565 19.3595 28.2407 19.3799C28.2168 19.4027 28.1894 19.4254 28.1596 19.445C28.1482 19.4505 28.1368 19.4505 28.1266 19.4564C28.0971 19.471 28.072 19.4791 28.0399 19.4847C28.0388 19.4882 28.0388 19.4882 28.0388 19.4882C28.032 19.4905 28.0274 19.4905 28.0242 19.494C27.9956 19.4996 27.967 19.5075 27.9375 19.5075C27.894 19.5075 27.8575 19.4961 27.8198 19.4847L29.0446 22.852L29.6249 22.6398L28.6374 19.933L31.2849 21.4608L31.5917 20.9272L28.349 19.055Z" fill="#18191B"/>
<path d="M31.8934 29.2929C31.8934 29.2792 31.8923 29.2654 31.889 29.2485C31.8867 29.2371 31.8844 29.2222 31.882 29.2109C31.8753 29.1744 31.8628 29.1344 31.8467 29.1002C31.8423 29.0853 31.8377 29.0775 31.833 29.0681C31.824 29.0512 31.8184 29.0316 31.8079 29.0147C31.8079 29.0147 31.7977 29.0033 31.7875 28.9861C31.7808 28.9747 31.7749 28.9633 31.7659 28.952C31.3485 28.3077 27.8002 22.7492 27.6554 19.4026C27.6394 19.3877 27.6256 19.3685 27.611 19.3513L24.2438 17.2817C24.0923 17.4472 23.9393 17.5728 23.7969 17.6297C23.3774 17.7972 13.7379 17.5897 12.6638 17.4586C12.4793 17.4154 12.2773 17.4472 12.1074 17.5555C11.7688 17.778 11.6754 18.2248 11.8931 18.5646C12.0014 18.7298 12.1667 18.8384 12.3447 18.8781H12.3459C12.3981 18.8918 23.578 19.8244 24.5015 20.5031C25.383 21.1493 29.9596 28.7809 30.5379 29.7272C30.5539 29.7523 30.5665 29.7786 30.5857 29.7978C30.5936 29.8151 30.6006 29.8241 30.6006 29.8241C30.603 29.8265 30.6062 29.83 30.6097 29.83C30.7431 29.9952 30.9436 30.1003 31.1742 30.1003C31.5744 30.1003 31.9028 29.7751 31.9028 29.3737C31.9028 29.3454 31.8946 29.3224 31.8934 29.2929Z" fill="#18191B"/>
<path d="M27.9374 19.4255C28.1198 19.4255 28.2657 19.283 28.2657 19.0971C28.2657 18.9182 28.1198 18.7722 27.9374 18.7722C27.7561 18.7722 27.6113 18.9182 27.6113 19.0971C27.6113 19.283 27.7561 19.4255 27.9374 19.4255Z" fill="#18191B"/>
</g>
<defs>
<clipPath id="clip0_770_708">
<rect width="40" height="40" fill="white"/>
</clipPath>
</defs>
</svg>
