<svg width="40" height="40" viewBox="0 0 40 40" fill="none" xmlns="http://www.w3.org/2000/svg">
<g clip-path="url(#clip0_770_725)">
<path d="M39.25 9.61039V30.3896C39.25 35.2793 35.2793 39.25 30.3896 39.25H9.61039C4.72071 39.25 0.75 35.2793 0.75 30.3896V9.61039C0.75 4.72071 4.72071 0.75 9.61039 0.75H30.3896C35.2793 0.75 39.25 4.72071 39.25 9.61039Z" fill="white"/>
<path d="M8.76705 13.3529C8.8203 12.9727 9.08466 12.9998 9.37799 13.0007C15.3127 13.0082 21.2483 13.0073 27.183 13.0082H33C32.9468 13.2203 32.7851 13.3576 32.7048 13.5388C32.5796 13.5556 32.6105 13.4463 32.5806 13.3894C32.5413 13.4968 32.6105 13.6033 32.5908 13.7126C32.5264 13.8097 32.4535 13.9031 32.3975 14.0059C32.3162 14.1544 32.2162 14.1488 32.0817 14.0788C32.0126 14.0433 31.9528 13.8938 31.8444 14.0255C31.766 14.1208 31.68 14.2002 31.7062 14.3571C31.7314 14.5075 31.8202 14.5159 31.9267 14.5318C31.9519 14.5356 31.9752 14.5496 32.0247 14.5692C31.6548 15.1456 31.2924 15.7098 30.9299 16.275C30.8552 16.3917 30.7384 16.3516 30.6366 16.3525C28.9999 16.3553 27.3642 16.359 25.7276 16.3525C25.5389 16.3525 25.424 16.3973 25.3306 16.5683C25.1905 16.8242 24.9859 17.0484 24.8682 17.3128C24.7467 17.5856 24.5291 17.6678 24.2834 17.7397C24.1918 17.7668 24.1722 17.6855 24.1302 17.6379C24.0078 17.4987 23.864 17.4184 23.6117 17.4912C23.8555 17.6314 24.0555 17.7771 24.2778 17.8649C24.4515 17.9331 24.4301 17.9966 24.3516 18.1143C24.2479 18.2685 24.1535 18.4282 24.0517 18.5823C23.9611 18.7187 23.9228 18.9074 23.6622 18.757C23.4819 18.6533 23.3688 18.8626 23.3642 19.0092C23.3604 19.1391 23.3427 19.1643 23.225 19.1662C23.1727 19.1662 23.1185 19.2091 23.069 19.24C22.8495 19.3773 22.8429 19.4679 23.0886 19.5651C23.3324 19.6613 23.3128 19.7519 23.1895 19.9425C22.5346 20.9485 21.8929 21.963 21.2474 22.9747C21.2119 23.0308 21.182 23.0915 21.1269 23.1887H21.6369C22.2245 23.1887 22.813 23.184 23.4006 23.1915C23.5809 23.1943 23.7958 23.1111 23.9097 23.3605C23.9368 23.4194 24.1022 23.425 24.1096 23.3577C24.1386 23.0999 24.3245 23.1924 24.4515 23.1915C25.3315 23.1849 26.2106 23.1877 27.1092 23.2512C26.233 23.61 25.3567 23.9687 24.4805 24.3283C24.3964 24.3601 24.2815 24.3171 24.232 24.4311C23.0111 24.9467 21.7901 25.4643 20.5682 25.978C18.5467 26.8272 16.5243 27.6717 14.5028 28.5218C14.3281 28.5955 14.1525 28.6301 13.9628 28.6282C13.2613 28.6226 12.5597 28.6264 11.8077 28.6264C12.1524 28.0827 12.471 27.5839 12.7839 27.0822C12.8652 26.9514 12.9269 27.0794 12.9969 27.0785C13.0754 27.0785 13.1978 27.1607 13.2295 27.0505C13.2781 26.8823 13.1043 27.0047 13.0558 26.9486C13.0315 26.9206 12.9978 26.901 12.9689 26.8758L12.9708 26.8533L12.9941 26.8365C13.0847 26.7786 13.1174 26.6936 13.1118 26.5908C14.2888 24.7328 15.464 22.8748 16.642 21.0167C17.5612 19.5669 18.4832 18.1181 19.4034 16.6692C19.4594 16.5804 19.5108 16.4879 19.5902 16.3553H19.2492C16.8793 16.3553 14.5093 16.3544 12.1394 16.3581C11.9479 16.3581 11.7788 16.3189 11.6078 16.232C10.1365 15.4875 8.66243 14.7504 7.1902 14.0078C7.11359 13.9695 6.98468 13.9704 7.0015 13.8284C7.00056 13.7481 7.04447 13.6873 7.09024 13.6276C7.13975 13.5724 7.17805 13.5089 7.22476 13.4519C7.31444 13.3305 7.43588 13.4603 7.53583 13.4127C7.54985 13.0073 7.82729 12.9867 8.13369 13.0063C8.23458 13.0129 8.35976 12.9774 8.35602 13.1493C8.35322 13.2716 8.47186 13.2558 8.53725 13.2997C8.61385 13.3156 8.67457 13.4052 8.76705 13.3529Z" fill="#18191B"/>
</g>
<defs>
<clipPath id="clip0_770_725">
<rect width="40" height="40" fill="white"/>
</clipPath>
</defs>
</svg>
