<svg width="40" height="40" viewBox="0 0 40 40" fill="none" xmlns="http://www.w3.org/2000/svg">
<g clip-path="url(#clip0_770_733)">
<path d="M30 0.75H10C4.89137 0.75 0.75 4.89137 0.75 10V30C0.75 35.1086 4.89137 39.25 10 39.25H30C35.1086 39.25 39.25 35.1086 39.25 30V10C39.25 4.89137 35.1086 0.75 30 0.75Z" fill="white"/>
<path d="M21.8697 10.1214C21.8697 11.2397 20.9643 12.1459 19.848 12.1459C18.7317 12.1459 17.8291 11.2397 17.8291 10.1214C17.8291 9.00683 18.7317 8.10059 19.848 8.10059C20.9643 8.10059 21.8697 9.00683 21.8697 10.1214Z" fill="#18191B"/>
<path d="M27.6732 7.94138C27.7463 7.84016 27.7913 7.7215 27.7913 7.5899C27.7913 7.26345 27.5242 7 27.198 7C27.0377 7 26.8915 7.06269 26.7847 7.16364C26.7847 7.16364 21.0767 12.192 20.8152 12.5873C20.5902 12.4588 20.3372 12.3731 20.0701 12.3402C19.8789 12.2997 19.5386 12.3436 19.1674 12.4358C18.8328 12.5544 18.5376 12.7631 18.3042 13.0322C17.9837 13.378 17.8009 13.9328 17.8037 14.6633C17.8037 14.9136 17.8122 15.1081 17.8318 15.2453C17.8318 15.2453 18.113 20.9899 18.1412 21.1985C18.1327 21.4566 18.3155 22.3463 18.6754 22.6429C19.0465 22.9427 19.3334 31.3396 19.3334 31.3396C19.3277 31.5209 19.3924 31.702 19.5274 31.8418C19.8001 32.1218 20.2444 32.1306 20.5228 31.8603C20.6858 31.702 20.7561 31.4791 20.728 31.2651C20.728 31.2628 20.728 31.2628 20.728 31.2628C20.728 31.2628 20.5537 23.1075 21.0879 22.6429C21.3832 22.3826 21.5434 21.954 21.5434 21.1985L21.8668 14.4547C21.8668 14.2601 21.8415 14.0734 21.7965 13.8943C21.8106 13.8889 27.6732 7.94138 27.6732 7.94138Z" fill="#18191B"/>
<path d="M6 28.1566V27.5799C6 27.5799 16.3447 32.0648 20.0281 32.0648C23.6947 32.0648 34 27.5799 34 27.5799V28.1566C34 28.1566 23.6947 32.6381 20.0281 32.6412C16.3447 32.6457 6 28.1566 6 28.1566Z" fill="#18191B"/>
</g>
<defs>
<clipPath id="clip0_770_733">
<rect width="40" height="40" fill="white"/>
</clipPath>
</defs>
</svg>
