<svg width="40" height="40" viewBox="0 0 40 40" fill="none" xmlns="http://www.w3.org/2000/svg">
<g clip-path="url(#clip0_770_738)">
<path d="M30 0.75H10C4.89137 0.75 0.75 4.89137 0.75 10V30C0.75 35.1086 4.89137 39.25 10 39.25H30C35.1086 39.25 39.25 35.1086 39.25 30V10C39.25 4.89137 35.1086 0.75 30 0.75Z" fill="white"/>
<path d="M16.1825 13.4444C16.9636 13.9124 17.9744 13.6629 18.4425 12.8831C18.9067 12.1029 18.6559 11.0921 17.8796 10.624C17.0997 10.156 16.0889 10.4119 15.6234 11.1882C15.1528 11.9655 15.4049 12.9764 16.1825 13.4444Z" fill="#18191B"/>
<path d="M21.128 14.4054C21.4951 14.1421 21.7871 13.9063 21.8047 13.8712V13.8686C21.8545 13.8252 21.8983 13.769 21.9257 13.7028C22.0353 13.4594 21.9257 13.176 21.6823 13.0664C21.6823 13.0664 21.6759 13.0664 21.6759 13.0639H21.6733C21.5174 12.9977 21.3478 13.0227 21.2143 13.1099L21.213 13.1137C20.6564 13.5405 20.3331 13.89 19.8552 14.152C19.8552 14.152 18.0706 13.9936 17.0936 14.0022C17.0684 14.0124 16.6192 14.0309 16.7515 14.021C16.4684 13.875 16.1898 13.7003 15.8978 13.5319C15.8406 13.407 15.7656 13.2885 15.6732 13.1824C15.5934 13.0763 15.3215 12.8543 15.1618 12.783C14.9432 12.6731 14.71 12.6208 14.4726 12.6169C14.4615 12.2802 11.3431 9.97514 8.65851 10.2646C8.34414 10.2998 7.41925 10.4333 7.39945 10.4432C7.28699 10.4767 7.18603 10.548 7.12118 10.6579C7.12118 10.6579 7.12118 10.6614 7.11735 10.6614L7.11607 10.664C7.11607 10.6678 7.11607 10.6678 7.11607 10.6678C6.98764 10.8988 7.05984 11.1857 7.28443 11.3192C7.37325 11.3729 7.47804 11.394 7.5742 11.3853C7.5742 11.3879 7.57644 11.3879 7.58027 11.3879C7.58027 11.3879 8.18057 11.2917 8.3927 11.2818C11.8906 11.0534 13.2385 13.1076 13.2436 13.1201C13.1376 13.2223 13.0401 13.3434 12.959 13.4782L12.5983 14.1495C9.54346 13.9523 7.05377 12.8204 7.05377 12.8204V14.3242C7.05377 14.3242 10.7325 14.7922 14.6001 14.4478C17.9795 14.152 21.5011 14.9731 22.8404 16.3772V15.3063C22.4535 14.9047 21.8596 14.6114 21.128 14.4054Z" fill="#18191B"/>
<path d="M32.1899 11.0608C31.7369 10.2745 30.7299 10.0065 29.9424 10.4617C29.1562 10.9135 28.8868 11.9221 29.3421 12.7045C29.7938 13.4945 30.8011 13.7626 31.5874 13.3096C32.3736 12.8543 32.6429 11.847 32.1899 11.0608Z" fill="#18191B"/>
<path d="M20.8462 23.8587C20.8462 23.8549 20.8462 23.8549 20.8462 23.8549C20.8462 23.8076 20.8536 23.7664 20.8635 23.7239C20.8648 23.7153 20.8686 23.7089 20.8699 23.7028C20.8823 23.6641 20.8961 23.6255 20.9136 23.5903C20.9159 23.5903 20.9159 23.5865 20.9184 23.5865L20.921 23.5804C20.9386 23.5517 20.9571 23.5229 20.9759 23.5006C21.3315 22.984 23.1899 20.2895 23.4305 19.9103C23.5803 19.6295 23.7889 19.4496 24.1158 17.3705C24.1694 17.1334 24.3154 15.9092 24.6873 15.5287L27.1057 12.6208C27.1083 12.617 27.1109 12.6169 27.1109 12.6147C26.9137 11.8521 26.6467 10.8863 26.5543 10.6867C25.9591 9.85283 23.4893 9.97136 23.458 9.97775C23.4532 9.97775 23.4519 9.98127 23.4455 9.98127C23.3608 9.99628 23.2707 9.99021 23.1835 9.95635C22.9353 9.85923 22.8117 9.58192 22.9053 9.33496C22.9538 9.20781 23.0525 9.11421 23.1711 9.06405C23.3858 8.95798 25.1729 8.98929 26.1486 9.11644C26.9061 9.21388 27.5166 9.74421 27.9431 10.9362C27.9581 10.9946 28.2814 11.8371 28.4686 12.3451C28.7594 12.4173 29.0328 12.5585 29.2261 12.7444C29.7564 13.2572 29.8328 14.2993 29.3236 14.8296L29.1514 14.9919C29.245 16.8813 31.1542 17.1398 31.6171 17.2072C31.9704 17.242 32.5007 17.2197 32.5183 17.2197C32.633 17.2197 32.7429 17.2644 32.8266 17.3343C32.8327 17.3443 32.8451 17.3506 32.8541 17.3605C32.8803 17.3829 32.8988 17.4082 32.9177 17.4366C32.925 17.443 32.9301 17.4503 32.9375 17.4567C32.9388 17.4628 32.9388 17.4756 32.9451 17.4855C32.9774 17.5452 33.0001 17.6225 33.0001 17.7024C33.0001 17.9446 32.8142 18.1493 32.5768 18.1816H32.5733C32.1439 18.3151 31.4264 18.2803 30.9519 18.1842C29.3296 17.9608 28.5197 16.9324 28.1268 15.9529L27.0885 16.9264C27.998 17.5877 28.7817 18.4238 29.366 19.3822C29.6469 19.8528 29.9612 20.5205 29.8152 21.0633C29.5232 22.0952 27.5166 24.2319 27.1894 24.4852C27.1383 24.5427 27.076 24.5874 27.0022 24.6187C26.9348 24.6475 26.8588 24.6638 26.7751 24.6638C26.4607 24.6638 26.2061 24.4079 26.2061 24.0919C26.2061 23.9798 26.2984 23.7788 26.2984 23.7788C26.7716 22.8904 28.6757 20.7764 28.4249 20.4144C28.2127 20.0825 26.8588 18.9356 26.3732 18.395C26.2361 18.2167 26.0253 17.9995 25.8742 17.7663C25.8042 17.7787 25.7333 17.7823 25.6633 17.7823C25.6534 17.9033 25.6384 18.0059 25.6269 18.0755C25.44 19.5784 24.7684 20.9572 23.865 22.0629C23.2621 22.8016 22.4759 23.8038 21.7995 24.283C21.7347 24.3418 21.6599 24.383 21.5762 24.4079H21.5711C21.5226 24.4216 21.4702 24.4341 21.4178 24.4341C21.1018 24.4341 20.8462 24.1718 20.8462 23.8587Z" fill="#18191B"/>
<path d="M7.63129 28.6345C7.63129 26.6378 9.25264 25.0181 11.2494 25.0181C13.2471 25.0181 14.8633 26.6378 14.8633 28.6345C14.8633 30.6313 13.2471 32.2549 11.2494 32.2549C9.25264 32.2549 7.63129 30.6313 7.63129 28.6345ZM7 28.6345C7 30.9795 8.90185 32.8839 11.2494 32.8839C13.5953 32.8839 15.4997 30.9795 15.4997 28.6345C15.4997 26.2874 13.5953 24.3852 11.2494 24.3852C8.90185 24.3852 7 26.2874 7 28.6345Z" fill="#18191B"/>
<path d="M20.2547 28.6345C20.2547 26.6378 21.8731 25.0181 23.8699 25.0181C25.8666 25.0181 27.4854 26.6378 27.4854 28.6345C27.4854 30.6313 25.8666 32.2549 23.8699 32.2549C21.8731 32.2549 20.2547 30.6313 20.2547 28.6345ZM19.6221 28.6345C19.6221 30.9795 21.5227 32.8839 23.8699 32.8839C26.2186 32.8839 28.1218 30.9795 28.1218 28.6345C28.1218 26.2874 26.2186 24.3852 23.8699 24.3852C21.5227 24.3852 19.6221 26.2874 19.6221 28.6345Z" fill="#18191B"/>
<path d="M9.04649 23.9836C9.05161 23.9485 9.0564 23.9223 9.06406 23.9037C9.10528 23.744 9.2238 23.6191 9.37459 23.568C9.37459 23.5641 12.7517 22.376 13.2869 21.6348C13.6626 21.1393 13.9185 20.5617 14.2431 20.0374C14.3229 19.9125 14.4277 19.8016 14.5475 19.7218C14.9306 19.3349 15.5897 19.2387 16.1673 19.5208C16.1673 19.5208 20.2892 21.5077 20.6125 21.8431C20.8821 22.1239 20.8585 22.6932 20.8272 22.859C20.8173 22.9926 20.8023 23.121 20.7812 23.2485C20.4815 24.6449 19.9786 25.3637 19.578 26.734C19.4196 27.2867 19.3659 30.2156 19.3608 30.2671C19.3569 30.3444 19.3307 30.4143 19.301 30.4779C19.2985 30.4814 19.2959 30.4814 19.2921 30.484C19.2809 30.5166 19.2611 30.5453 19.2422 30.5677C19.2349 30.5776 19.2336 30.5802 19.2285 30.5865C19.1825 30.6412 19.1311 30.6888 19.0688 30.7236C19.0589 30.7274 19.049 30.7313 19.0365 30.7338C19.0276 30.7437 19.0125 30.7463 19.0001 30.7498C18.9902 30.76 18.9777 30.7623 18.9627 30.7661C18.9589 30.7686 18.9589 30.7686 18.9528 30.7686C18.9304 30.7786 18.9065 30.7811 18.8892 30.7849C18.8841 30.7849 18.8803 30.7849 18.8777 30.7885C18.8541 30.791 18.8279 30.791 18.7991 30.791C18.7991 30.791 18.7918 30.791 18.7867 30.791C18.778 30.791 18.7707 30.7948 18.7605 30.7948C18.7579 30.7948 18.7579 30.7948 18.7531 30.7948V30.791H18.7518C18.4349 30.7687 18.1988 30.5003 18.2228 30.1846C18.2228 30.1722 18.2263 30.162 18.2263 30.1521C18.2388 29.8939 18.2825 28.5521 18.4947 26.4595C18.5273 26.0851 18.6908 24.7596 18.8716 23.6577C18.7394 23.7315 18.5908 23.7852 18.456 23.8398C17.8123 24.0433 17.1343 24.1021 16.4717 24.2031C16.7612 25.3698 17.8659 27.3317 17.8682 27.3317C17.8957 27.4078 17.9119 27.4876 17.9068 27.5739C17.8819 27.8908 17.6113 28.1266 17.2953 28.1017C17.1394 28.0918 16.9998 28.0183 16.9024 27.9033C16.8561 27.8908 16.2858 26.8237 15.9951 26.3819C15.6919 25.8803 15.2612 25.1142 15.1376 24.5302C15.0616 24.1331 15.0293 23.6766 15.2925 23.3383C15.466 23.0127 16.166 22.7753 16.9324 22.6731L15.0728 21.7696C15.0616 21.7632 15.0466 21.7533 15.0341 21.7473C14.7622 22.1115 14.445 22.4434 14.1095 22.7504C13.4457 23.2772 9.75669 24.5015 9.61292 24.4912H9.60813C9.57299 24.5015 9.53306 24.5015 9.49312 24.5015C9.22732 24.4813 9.02892 24.2516 9.04649 23.9858C9.04649 23.9858 9.05033 23.9858 9.05033 23.9836H9.04649Z" fill="#18191B"/>
<path d="M14.3926 18.6736C14.63 19.5419 14.1096 20.4467 13.2345 20.6764C12.3636 20.9134 11.4627 20.3917 11.2292 19.5208C10.9959 18.6448 11.5151 17.7474 12.3898 17.5164C13.2598 17.2806 14.1594 17.7985 14.3926 18.6736Z" fill="#18191B"/>
</g>
<defs>
<clipPath id="clip0_770_738">
<rect width="40" height="40" fill="white"/>
</clipPath>
</defs>
</svg>
