<svg width="40" height="40" viewBox="0 0 40 40" fill="none" xmlns="http://www.w3.org/2000/svg">
<g clip-path="url(#clip0_770_748)">
<path d="M30 0.75H10C4.89137 0.75 0.75 4.89137 0.75 10V30C0.75 35.1086 4.89137 39.25 10 39.25H30C35.1086 39.25 39.25 35.1086 39.25 30V10C39.25 4.89137 35.1086 0.75 30 0.75Z" fill="white"/>
<path d="M8.19712 23.9453C7.62604 23.8459 7.15574 23.4729 7.03577 23.0304C6.96378 22.7669 6.97818 22.6823 7.29011 21.5138C7.72682 19.8878 8.15393 18.2917 8.37948 17.4365C8.50905 16.9591 8.70581 16.2182 8.82098 15.7956L9.02734 15.0249L10.5054 15.0099C11.3932 15.005 11.9787 15.0149 11.9787 15.0448C11.9787 15.0696 11.9019 15.368 11.8059 15.7061C11.7148 16.0442 11.5948 16.4768 11.5468 16.6657C11.4988 16.8597 11.2732 17.695 11.0525 18.5304C10.8269 19.3657 10.539 20.4348 10.4142 20.9072L10.1839 21.7624L10.2895 21.8768C10.3806 21.9663 10.4622 21.9862 10.7838 22.0061C11.3212 22.0309 11.5804 21.9812 11.6716 21.837C11.7387 21.7276 11.8347 21.3796 12.6074 18.4807C12.7945 17.7845 13.0297 16.9094 13.1304 16.5414C13.2312 16.1735 13.3656 15.6762 13.428 15.4376L13.5384 15H15.0164C15.8275 15 16.4897 15.0099 16.4897 15.0249C16.4897 15.0398 16.3793 15.4624 16.245 15.9597C16.1106 16.4569 15.885 17.3022 15.7459 17.8343C14.7909 21.4193 14.3734 22.921 14.263 23.1398C14.0231 23.632 13.6055 23.8608 12.7945 23.9503C12.209 24.0099 8.56184 24.005 8.19712 23.9453ZM15.5203 23.9702C15.5059 23.9552 15.5251 23.8408 15.5635 23.7116C15.5971 23.5823 15.7027 23.1994 15.7939 22.8564C15.8802 22.5133 16.101 21.6978 16.2786 21.0414C16.4513 20.3851 16.6865 19.5149 16.7969 19.1022L16.9984 18.3564L20.1945 18.3414L23.3906 18.3315L23.3042 18.6398C23.2562 18.8138 23.1363 19.2613 23.0403 19.6392L22.8579 20.3204H19.4315L19.2539 20.9818C19.0572 21.6928 18.5965 23.4481 18.5053 23.7912L18.4525 24H16.9984C16.2018 24 15.5347 23.9901 15.5203 23.9702ZM24.5712 23.9254C23.8657 23.7663 23.4482 23.3436 23.4482 22.7818C23.4482 22.5829 23.7745 21.2552 24.1681 19.8729C24.216 19.6939 24.36 19.1718 24.48 18.7044C24.9119 17.0635 25.1326 16.263 25.2382 15.9945C25.4446 15.4525 25.8717 15.1641 26.6348 15.0547C26.8603 15.0199 27.9833 15 29.5045 15H32L31.9712 15.1144C31.9568 15.174 31.8368 15.6166 31.7121 16.0939L31.4769 16.9641L29.706 16.989C28.4535 17.0088 27.9064 17.0337 27.8345 17.0735C27.7193 17.1431 27.6569 17.347 26.9514 20.0072C26.6779 21.0265 26.5195 21.7077 26.5387 21.7773C26.5915 21.9961 26.7019 22.011 28.5927 22.011C30.0852 22.011 30.3635 22.021 30.3443 22.0807C30.3299 22.1155 30.2483 22.4138 30.1667 22.737C30.0852 23.0652 29.9748 23.4779 29.922 23.6669L29.826 24L27.345 23.995C25.4734 23.995 24.7919 23.9751 24.5712 23.9254ZM17.4015 16.8994C17.4015 16.8497 17.4639 16.5862 17.5407 16.3127C17.6175 16.0442 17.7278 15.6365 17.7854 15.4127L17.891 15H21.0775C22.8291 15 24.264 15.0099 24.264 15.0249C24.264 15.0646 24.0481 15.895 23.8897 16.4669L23.7505 16.9641L20.5784 16.979C17.5263 16.989 17.4015 16.984 17.4015 16.8994Z" fill="#18191B"/>
</g>
<defs>
<clipPath id="clip0_770_748">
<rect width="40" height="40" fill="white"/>
</clipPath>
</defs>
</svg>
