<svg width="40" height="40" viewBox="0 0 40 40" fill="none" xmlns="http://www.w3.org/2000/svg">
<g clip-path="url(#clip0_770_751)">
<path d="M30 0.75H10C4.89137 0.75 0.75 4.89137 0.75 10V30C0.75 35.1086 4.89137 39.25 10 39.25H30C35.1086 39.25 39.25 35.1086 39.25 30V10C39.25 4.89137 35.1086 0.75 30 0.75Z" fill="white"/>
<path d="M27.3566 33C27.7122 33 28 33.2237 28 33.5014C28 33.7774 27.7122 34 27.3566 34H10.6434C10.2881 34 10 33.7774 10 33.5015C10 33.2237 10.2881 33 10.6434 33H27.3566Z" fill="#18191B"/>
<path d="M30 23.9834C30 24.3138 29.7862 24.5813 29.5208 24.5813C29.2571 24.5813 29.0444 24.3138 29.0444 23.9834V8.45192C29.0444 8.12176 29.2571 7.85406 29.5208 7.85406C29.7862 7.85406 30 8.12176 30 8.45192V23.9834Z" fill="#18191B"/>
<path d="M25.8258 8.9399C25.1311 8.9399 24.5686 8.37641 24.5686 7.6827C24.5686 6.98674 25.1311 6.42324 25.8258 6.42324C26.5197 6.42324 27.0842 6.98674 27.0842 7.6827C27.0842 8.37641 26.5197 8.9399 25.8258 8.9399ZM25.8258 6C24.8957 6 24.1421 6.74865 24.1421 7.6827C24.1421 8.60873 24.8957 9.36341 25.8258 9.36341C26.7558 9.36341 27.5075 8.60873 27.5075 7.6827C27.5075 6.74865 26.7558 6 25.8258 6Z" fill="#18191B"/>
<path d="M26.8708 10.5052V10.5032C26.9345 10.4169 26.9736 10.309 26.9736 10.1916C26.9736 9.90026 26.7376 9.66217 26.4475 9.66217C26.3045 9.66217 26.1751 9.71913 26.078 9.81422C26.078 9.81422 20.9837 14.2958 20.7506 14.6536C20.5497 14.538 20.3271 14.4594 20.088 14.4281C19.9167 14.3939 19.6118 14.4321 19.2814 14.5134C18.9816 14.6212 18.7199 14.8054 18.5112 15.0455C17.1343 15.1554 15.9524 15.5111 14.5951 14.7713C13.5092 13.9792 13.4327 13.3814 12.8612 12.3211C12.7679 12.1593 12.5968 12.0534 12.4036 12.0534C12.1105 12.0534 11.8755 12.2887 11.8755 12.5828C11.8755 12.6543 11.889 12.72 11.9136 12.7787C11.9136 12.7787 12.678 14.2713 13.0925 14.7909C13.9051 15.8295 14.9664 16.3245 16.2788 16.4833C16.7178 16.4783 17.4989 16.6186 18.0624 16.5029C18.0546 16.7214 18.0624 16.9194 18.0897 17.0253C18.0927 17.0202 18.5375 23.0819 18.5611 23.2681C18.526 24.2235 18.0809 26.9333 16.1983 28.6973L13.9393 30.9583C13.8452 31.069 13.7807 31.2132 13.7807 31.3728C13.7807 31.7208 14.062 32 14.4079 32C14.5745 32 14.7263 31.9335 14.8389 31.8256C14.8389 31.8256 17.1323 29.8978 17.8692 29.1697C19.104 27.9446 20.4077 24.0295 20.579 24.0471C21.1867 24.1402 22.9291 24.1863 22.4529 25.7035C22.402 26.0464 20.9132 29.1873 20.9132 29.1873C20.9132 29.1893 20.9132 29.1893 20.9132 29.1893C20.8858 29.258 20.871 29.3343 20.871 29.4129C20.871 29.7608 21.1505 30.0401 21.4963 30.0401C21.7228 30.0401 21.9178 29.9194 22.0294 29.741C22.0294 29.741 24.2131 26.3159 24.3305 24.3803C24.3649 23.7355 24.0671 23.0328 23.0821 22.682C22.5568 22.5026 21.7983 22.3458 21.3994 22.3371L21.6895 16.3137C21.6895 16.1451 21.6689 15.9765 21.6267 15.815C21.6375 15.81 26.8708 10.5052 26.8708 10.5052Z" fill="#18191B"/>
<path d="M21.0347 12.5561C21.0347 13.5529 20.2301 14.3595 19.2313 14.3595C18.2365 14.3595 17.4292 13.5529 17.4292 12.5561C17.4292 11.5616 18.2365 10.753 19.2313 10.753C20.2301 10.753 21.0347 11.5616 21.0347 12.5561Z" fill="#18191B"/>
</g>
<defs>
<clipPath id="clip0_770_751">
<rect width="40" height="40" fill="white"/>
</clipPath>
</defs>
</svg>
