<svg width="40" height="40" viewBox="0 0 40 40" fill="none" xmlns="http://www.w3.org/2000/svg">
<g clip-path="url(#clip0_770_758)">
<path d="M30 0.75H10C4.89137 0.75 0.75 4.89137 0.75 10V30C0.75 35.1086 4.89137 39.25 10 39.25H30C35.1086 39.25 39.25 35.1086 39.25 30V10C39.25 4.89137 35.1086 0.75 30 0.75Z" fill="white"/>
<path d="M10.0012 14.4963C9.17549 14.4963 8.50694 13.8262 8.50694 13.0012C8.50694 12.1735 9.17549 11.5033 10.0012 11.5033C10.826 11.5033 11.4969 12.1735 11.4969 13.0012C11.4969 13.8262 10.826 14.4963 10.0012 14.4963ZM10.0012 11C8.89578 11 8 11.8903 8 13.0012C8 14.1025 8.89578 15 10.0012 15C11.1066 15 12 14.1025 12 13.0012C12 11.8903 11.1066 11 10.0012 11Z" fill="#18191B"/>
<path d="M31.4962 22.3071C31.8046 22.521 32.6365 23.2137 32.6365 23.2137C32.6406 23.2137 32.6446 23.2137 32.6487 23.2137C32.7866 23.3135 32.9611 23.3768 33.1478 23.3768C33.6063 23.3768 33.9838 23.0043 34 22.5449C34 22.54 34 22.5368 34 22.5319V22.5291C34 22.5242 34 22.5242 34 22.521C34 22.2941 33.9107 22.0961 33.7687 21.9423C33.7443 21.9106 32.4701 20.8564 32.0197 20.5159C28.2052 17.6258 21.3553 18.2759 21.0307 18.7881C20.6736 18.577 20.2638 18.4423 19.8336 18.4074C19.5211 18.3709 18.9125 18.4549 18.6852 18.5503C18.1861 18.7166 17.7519 19.021 17.407 19.4251C15.1791 19.6041 13.2678 20.1751 11.0684 18.9735C9.31942 17.6973 9.16518 16.7116 8.23996 14.9995L8.23595 14.9946C8.08986 14.7536 7.82605 14.5953 7.52981 14.5872H7.5258C7.51769 14.5872 7.51362 14.5824 7.51362 14.5824C7.03883 14.5824 6.65333 14.9679 6.65333 15.4435C6.65333 15.5701 6.68578 15.6922 6.73853 15.7998V15.803C6.73853 15.9349 7.89909 18.0747 8.64576 19.01C9.95648 20.69 11.673 21.4906 13.7953 21.7475C14.5055 21.7362 15.7675 21.9662 16.6806 21.7759C16.6643 22.1326 16.6806 22.4495 16.7252 22.6192C16.7292 22.6159 16.8347 24.0902 16.9687 25.9086C16.8632 25.9212 16.7942 25.9321 16.7942 25.9321C10.9426 25.7848 6 23.5355 6 23.5355V26.2016C6 26.2016 12.5252 27.0338 19.3832 26.4284C25.3809 25.8972 31.6261 27.3508 34 29.8395V27.9501C32.2672 26.1508 28.2417 25.5912 23.8023 25.6359C23.6562 25.6627 22.6823 25.631 22.3455 25.6359L22.5443 21.4732C22.5443 21.1973 22.5118 20.9229 22.4429 20.6665C22.4631 20.6584 26.3872 18.7674 31.4962 22.3071Z" fill="#18191B"/>
<path d="M21.6678 15.3246C21.6678 16.9364 20.3571 18.2411 18.7542 18.2411C17.1391 18.2411 15.8325 16.9364 15.8325 15.3246C15.8325 13.7107 17.1391 12.4077 18.7542 12.4077C20.3571 12.4077 21.6678 13.7107 21.6678 15.3246Z" fill="#18191B"/>
</g>
<defs>
<clipPath id="clip0_770_758">
<rect width="40" height="40" fill="white"/>
</clipPath>
</defs>
</svg>
