<svg width="40" height="40" viewBox="0 0 40 40" fill="none" xmlns="http://www.w3.org/2000/svg">
<g clip-path="url(#clip0_770_763)">
<path d="M30 0.75H10C4.89137 0.75 0.75 4.89137 0.75 10V30C0.75 35.1086 4.89137 39.25 10 39.25H30C35.1086 39.25 39.25 35.1086 39.25 30V10C39.25 4.89137 35.1086 0.75 30 0.75Z" fill="white"/>
<path d="M21.9876 12.5033C21.9876 13.5994 21.0964 14.4884 20 14.4884C18.9037 14.4884 18.0117 13.5994 18.0117 12.5033C18.0117 11.4037 18.9037 10.5191 20 10.5191C21.0964 10.5191 21.9876 11.4037 21.9876 12.5033Z" fill="#18191B"/>
<path d="M27.5349 9.58368C27.5327 9.57926 27.52 9.56543 27.5166 9.56322C27.4096 9.43879 27.2531 9.35999 27.077 9.35999C26.9086 9.35999 26.7615 9.43022 26.6548 9.54359H26.6526C26.6526 9.54359 23.7719 13.311 22.4173 14.0587C22.049 14.3015 21.5286 14.6073 20.9797 14.7909C20.8749 14.7336 20.7671 14.6797 20.6537 14.6452C20.5758 14.6255 20.4732 14.6073 20.3684 14.5857C20.3468 14.5802 20.3263 14.5771 20.3048 14.5749C20.2766 14.5694 20.2487 14.5661 20.2171 14.5608C20.1903 14.5586 20.1632 14.5534 20.1342 14.55C20.1245 14.5478 20.106 14.55 20.0899 14.55C20.0595 14.5445 20.0294 14.5445 20.0001 14.5445C19.9688 14.5445 19.9406 14.5445 19.9061 14.55C19.8942 14.55 19.877 14.5478 19.8618 14.55C19.835 14.5534 19.8079 14.5586 19.7797 14.5608C19.7507 14.5661 19.7225 14.5694 19.6934 14.5749C19.673 14.5771 19.6514 14.5802 19.6307 14.5857C19.525 14.6073 19.4222 14.6255 19.3445 14.6452C19.23 14.6797 19.123 14.7336 19.0193 14.7909C18.4718 14.6073 17.95 14.3015 17.5817 14.0587C16.2252 13.311 13.3468 9.54359 13.3468 9.54359H13.3456C13.2386 9.43022 13.0896 9.35999 12.9212 9.35999C12.7462 9.35999 12.5897 9.43879 12.4827 9.56322C12.4782 9.56543 12.4664 9.57926 12.463 9.58368C12.3864 9.68405 12.3389 9.80627 12.3389 9.9412C12.3389 10.0817 12.3909 10.208 12.4741 10.3106C12.7257 10.6648 15.7231 14.8418 18.0559 16.0653C18.0634 16.0675 18.0723 16.073 18.0786 16.0783C18.0678 16.1507 18.0604 16.2295 18.0515 16.3061C18.0366 16.4176 18.0289 32.1807 18.0289 32.1807C18.0258 32.2 18.0225 32.2172 18.0225 32.2335C18.0225 32.6181 18.3313 32.9248 18.7138 32.9248C19.0951 32.9248 19.4028 32.6181 19.4028 32.2335L19.6199 24.8013C19.6544 24.7645 19.7916 24.6489 20.0001 24.6489C20.2075 24.6489 20.3468 24.7645 20.3803 24.8013L20.5954 32.2335C20.5954 32.6181 20.9042 32.9248 21.2867 32.9248C21.6688 32.9248 21.9768 32.6181 21.9768 32.2335C21.9768 32.2172 21.9724 32.2 21.9724 32.1807C21.9724 32.1807 21.9627 16.4176 21.9453 16.3061C21.94 16.2295 21.9304 16.1507 21.9218 16.0783C21.9259 16.073 21.9356 16.0675 21.9445 16.0653C24.2774 14.8418 27.2714 10.6648 27.5241 10.3106C27.6084 10.208 27.6602 10.0817 27.6602 9.9412C27.6602 9.80627 27.6118 9.68405 27.5349 9.58368Z" fill="#18191B"/>
<path d="M32 9.85466H31.137V7.49688C31.137 7.22148 30.9144 7 30.6401 7C30.3647 7 30.1433 7.22148 30.1433 7.49688C30.1433 7.22148 29.9207 7 29.6464 7C29.371 7 29.1506 7.22148 29.1506 7.49688V9.85466H10.9108V7.49688C10.9108 7.22148 10.6885 7 10.412 7C10.1385 7 9.91703 7.22148 9.91703 7.49688C9.91703 7.22148 9.69471 7 9.41931 7C9.14584 7 8.92464 7.22148 8.92464 7.49688V9.85466H8V10.4218H8.92464V12.7787C8.92464 13.0519 9.14584 13.2753 9.41931 13.2753C9.69471 13.2753 9.91703 13.0519 9.91703 12.7787C9.91703 13.0519 10.1385 13.2753 10.412 13.2753C10.6885 13.2753 10.9108 13.0519 10.9108 12.7787V10.4218H29.1506V12.7787C29.1506 13.0519 29.371 13.2753 29.6464 13.2753C29.9207 13.2753 30.1433 13.0519 30.1433 12.7787C30.1433 13.0519 30.3647 13.2753 30.6401 13.2753C30.9144 13.2753 31.137 13.0519 31.137 12.7787V10.4218H32V9.85466Z" fill="#18191B"/>
</g>
<defs>
<clipPath id="clip0_770_763">
<rect width="40" height="40" fill="white"/>
</clipPath>
</defs>
</svg>
