<svg width="40" height="40" viewBox="0 0 40 40" fill="none" xmlns="http://www.w3.org/2000/svg">
<g clip-path="url(#clip0_770_768)">
<path d="M30 0.75H10C4.89137 0.75 0.75 4.89137 0.75 10V30C0.75 35.1086 4.89137 39.25 10 39.25H30C35.1086 39.25 39.25 35.1086 39.25 30V10C39.25 4.89137 35.1086 0.75 30 0.75Z" fill="white"/>
<path d="M18.3996 15.0524C18.9793 14.0487 20.2652 13.7001 21.2737 14.2831C22.2771 14.866 22.6213 16.1522 22.0419 17.156C21.4598 18.1629 20.1739 18.5048 19.169 17.9262C18.162 17.3468 17.8178 16.0585 18.3996 15.0524Z" fill="#18191B"/>
<path d="M20.5913 13.9231C19.5875 13.3434 19.2399 12.0575 19.8219 11.0538C20.4025 10.0456 21.6875 9.70143 22.6945 10.2821C23.7018 10.863 24.0468 12.1488 23.4662 13.1549C22.8844 14.1608 21.5995 14.5061 20.5913 13.9231Z" fill="#18191B"/>
<path d="M6.10418 27.1377C6.10418 27.1377 8.95863 22.8751 9.26825 22.3823C9.46256 22.0255 9.72565 21.797 10.1462 19.1345C10.1977 18.906 10.2606 18.7014 10.3487 18.5229C10.4573 18.0465 10.7692 17.6189 11.2392 17.3787L15.3737 15.0056C16.215 14.5781 17.4623 15.0638 17.8875 15.8985C18.2179 16.5499 18.1573 17.5136 17.7274 18.1196C17.9229 18.7128 18.2957 19.1105 18.7244 19.3803C18.7107 19.4365 18.7037 19.4889 18.7037 19.5439C18.7037 19.889 18.9597 20.1816 19.2995 20.2319L19.3141 20.2343C19.5544 20.3145 19.8868 20.3519 20.2778 20.3519C20.6597 20.3519 21.0758 20.3165 21.4188 20.2434C21.9149 20.176 22.3503 20.0479 22.7345 19.8755C22.8384 19.9487 22.9218 20.0479 22.969 20.1681C22.995 20.2319 23.0134 20.3019 23.0088 20.3783C23.0088 20.3806 23.0099 20.3841 23.0099 20.3876C23.0099 20.7294 22.7345 21.0048 22.3916 21.0048C22.3389 21.0048 21.0679 21.1924 20.4996 21.1625C18.2796 21.1684 17.0564 20.001 16.4096 18.8946L14.0032 19.9015C14.5657 20.7727 15.0047 21.7238 15.2961 22.7194C15.4846 23.3837 15.6529 24.3175 15.2961 24.9371C14.5952 26.1202 13.5438 26.6795 12.461 27.4842C11.9799 27.7699 11.3969 28.1392 10.8494 28.3265C10.8286 28.3358 10.8046 28.3414 10.7818 28.3496C10.7657 28.3528 10.7522 28.3622 10.7405 28.3622H10.7361C10.6791 28.3791 10.6182 28.3882 10.5576 28.3882C10.1532 28.3882 9.82603 28.0569 9.82603 27.6589C9.82603 27.4395 9.91996 27.2498 10.0718 27.1149C10.0718 27.1149 10.073 27.1114 10.073 27.1091C10.9521 26.1694 13.9827 24.209 13.7928 23.6764C13.6465 23.2225 12.461 21.4929 11.989 20.6206C11.6586 22.3126 10.862 23.866 9.82603 25.1361C9.10495 26.0175 7.42547 27.8351 7.25984 28.0098C7.12727 28.1506 6.93968 28.2387 6.73044 28.2387C6.32805 28.2387 6 27.9138 6 27.5103C6 27.3754 6.03892 27.2498 6.10418 27.1377Z" fill="#18191B"/>
<path d="M18.8675 19.2305C18.8742 19.2226 18.88 19.2171 18.8868 19.2045C18.9143 19.1667 18.9395 19.1345 18.9714 19.105C18.9839 19.0936 18.9965 19.0842 19.0079 19.0728C19.1168 18.985 19.2514 18.9265 19.4012 18.9265C19.4241 18.9265 20.1045 18.9528 20.5549 18.906C21.1445 18.8249 23.5852 18.4969 23.7098 16.0767L23.488 15.8686C22.8363 15.192 22.9337 13.8579 23.6092 13.2062C24.286 12.5547 25.6679 12.3683 26.322 13.0429L29.4152 16.767C29.8337 17.2004 30.0792 18.8179 30.148 19.1176C30.5685 21.7832 30.8304 22.0086 31.0224 22.3685C31.3312 22.8543 33.7089 26.3011 34.1628 26.9572C34.188 26.9891 34.2108 27.0268 34.2324 27.0587C34.2324 27.0623 34.2371 27.0646 34.2371 27.0646C34.2392 27.0713 34.2392 27.0713 34.2392 27.0737C34.2632 27.1205 34.2839 27.1676 34.2965 27.2144C34.2977 27.2258 34.3032 27.2349 34.3056 27.244C34.3182 27.299 34.3261 27.3549 34.3261 27.4131C34.3261 27.4166 34.3296 27.4166 34.3296 27.4166L34.3261 27.419H34.3296C34.3296 27.8237 34.0027 28.1506 33.598 28.1506C33.5295 28.1506 33.4631 28.1357 33.399 28.1187C33.399 28.1187 33.3978 28.1187 33.3946 28.1187C33.286 28.0865 33.1921 28.0338 33.1122 27.9607C32.2445 27.3493 31.2384 26.0643 30.4682 25.1191C29.3146 23.7083 28.4539 21.941 28.2104 20.0239C28.199 19.9279 28.1794 19.7988 28.1648 19.6525C28.0767 19.649 27.9874 19.6411 27.8993 19.6227C27.705 19.9223 27.4364 20.2024 27.2605 20.4309C26.6386 21.1192 24.9067 22.588 24.6334 23.0088C24.3168 23.4774 26.7504 26.1808 27.3565 27.3171C27.3565 27.3171 27.4741 27.5688 27.4741 27.7172C27.4741 28.1219 27.1472 28.4467 26.7448 28.4467C26.6418 28.4467 26.5426 28.426 26.4534 28.3882C26.3641 28.3496 26.2819 28.289 26.2154 28.2214C25.7961 27.8969 23.2296 25.1624 22.8582 23.8376C22.6707 23.147 23.0777 22.2898 23.4321 21.6952C24.1795 20.4722 25.1821 19.3918 26.346 18.5516L25.0177 17.3055C24.5158 18.5586 23.4801 19.8755 21.4029 20.1646C20.7971 20.2881 19.878 20.3279 19.3316 20.1556L19.3246 20.1532C19.0205 20.112 18.7852 19.8606 18.7852 19.5439C18.7852 19.4421 18.8136 19.3485 18.8584 19.2604C18.8628 19.2513 18.8628 19.2399 18.8675 19.2305Z" fill="#18191B"/>
</g>
<defs>
<clipPath id="clip0_770_768">
<rect width="40" height="40" fill="white"/>
</clipPath>
</defs>
</svg>
