<svg width="40" height="40" viewBox="0 0 40 40" fill="none" xmlns="http://www.w3.org/2000/svg">
<g clip-path="url(#clip0_770_774)">
<path d="M30 0.75H10C4.89137 0.75 0.75 4.89137 0.75 10V30C0.75 35.1086 4.89137 39.25 10 39.25H30C35.1086 39.25 39.25 35.1086 39.25 30V10C39.25 4.89137 35.1086 0.75 30 0.75Z" fill="white"/>
<path d="M23.1184 15.0323C23.8469 16.0472 25.2619 16.2772 26.2749 15.5457C27.2862 14.8115 27.5159 13.3974 26.7829 12.3853C26.0543 11.3707 24.6352 11.1419 23.6246 11.874C22.6122 12.6083 22.3824 14.022 23.1184 15.0323Z" fill="#18191B"/>
<path d="M28.823 21.3626C28.8129 21.2522 28.7744 21.1538 28.7167 21.0655C28.7121 21.0582 28.7091 21.0444 28.7029 21.0341C28.6949 21.0259 28.6845 21.0168 28.6769 21.011C28.6454 20.9751 28.6132 20.9416 28.5761 20.9135C28.5655 20.9004 28.548 20.8937 28.5349 20.88C28.4104 20.8005 28.2598 20.7538 28.0985 20.7699C28.0744 20.7742 27.3495 20.8769 26.8641 20.8749C26.2197 20.8543 23.5686 20.7665 23.1752 18.1868L23.3873 17.9448C24.0131 17.1487 23.7608 15.73 22.967 15.1046C22.6708 14.8753 22.277 14.7214 21.8716 14.6636C21.4839 14.6266 21.2815 14.6794 21.1435 14.7437C21.0665 14.7522 20.9854 14.7671 20.9083 14.7756C20.5678 14.8079 20.2444 14.8176 19.9729 14.8125C18.2144 14.9333 13.1302 13.109 13.1302 13.109C12.9578 13.0681 12.7674 13.0938 12.6103 13.1935C12.4406 13.303 12.342 13.4776 12.3172 13.6613C12.3157 13.6674 12.3115 13.6891 12.3126 13.6946C12.2992 13.8383 12.3293 13.9856 12.4099 14.1138C12.4994 14.2468 12.6269 14.3397 12.7692 14.3843C13.1209 14.5241 16.379 15.8065 19.2292 16.2868C19.2629 16.2892 19.2933 16.2942 19.3267 16.3027L17.1402 19.5535C16.6849 20.1213 16.6544 21.8263 16.6161 22.1489C16.4575 25.046 16.1991 25.3209 16.0312 25.7251C15.7575 26.2816 13.5874 30.2319 13.175 30.9867C13.149 31.0246 13.1298 31.0604 13.1106 31.1013C13.11 31.1034 13.1073 31.1092 13.1073 31.1092C13.1064 31.1129 13.1058 31.115 13.1043 31.1212C13.0842 31.1706 13.068 31.2198 13.0604 31.2751C13.0574 31.287 13.0544 31.2989 13.0532 31.3087C13.0438 31.366 13.0407 31.4286 13.0486 31.4878C13.0472 31.4936 13.0472 31.4936 13.0472 31.4936L13.0462 31.4972C13.0906 31.9297 13.4784 32.2432 13.9106 32.1999C13.9834 32.1929 14.0521 32.1722 14.1175 32.1442C14.1205 32.1424 14.1229 32.143 14.1229 32.143C14.2357 32.0981 14.331 32.0269 14.4076 31.9446C15.2742 31.1953 16.2068 29.7062 16.9314 28.6142C18.009 26.9727 18.7374 24.9907 18.786 22.9119C18.7878 22.8046 18.7952 22.6645 18.797 22.5064C18.8913 22.4945 18.9829 22.4734 19.0773 22.4463C19.3177 22.7456 19.6352 23.016 19.8496 23.2374C20.5893 23.9063 22.6054 25.2941 22.941 25.7137C23.3351 26.1785 21.0223 29.3416 20.5006 30.6248C20.5001 30.6269 20.4019 30.9107 20.4171 31.0665C20.4621 31.4965 20.8457 31.8116 21.2778 31.7686C21.3883 31.7581 21.4919 31.7248 21.5815 31.6711C21.6759 31.6189 21.7563 31.5466 21.817 31.4668C22.2332 31.0745 24.6829 27.867 24.9331 26.4079C25.0589 25.6464 24.5307 24.7736 24.0831 24.1787C23.1522 22.9452 21.9601 21.9022 20.6206 21.1268L21.9055 19.6493C22.5839 20.9332 23.8394 22.2331 26.0894 22.3161C26.7489 22.3769 27.7384 22.3222 28.3081 22.0765C28.3081 22.0765 28.3102 22.0731 28.3148 22.0743C28.6368 22.0006 28.859 21.6977 28.823 21.3626Z" fill="#18191B"/>
<path d="M30.1249 23.24L29.7717 23.6013L11.7871 7.12551L12.1405 6.76709L30.1249 23.24Z" fill="#18191B"/>
</g>
<defs>
<clipPath id="clip0_770_774">
<rect width="40" height="40" fill="white"/>
</clipPath>
</defs>
</svg>
