<svg
    width="21"
    height="18"
    viewBox="0 0 22 18"
    fill="none"
    xmlns="http://www.w3.org/2000/svg"
  >
    <path
      d="M11 5L7.90142 10.3669H14.0986L11 5ZM11 13.7051H11.5367V9.8302H11H10.4633V13.7051H11Z"
      fill="white"
    />
    <path
      d="M10.5879 0.75C12.2813 0.75 13.9152 1.35753 15.1836 2.45605C16.4517 3.55438 17.2672 5.0679 17.4814 6.71191L17.5283 7.06738L17.834 7.25488C18.8195 7.85847 19.584 8.75193 20.0205 9.80566C20.4568 10.8592 20.544 12.0206 20.2695 13.125C19.9949 14.2297 19.3724 15.2233 18.4883 15.9619C17.604 16.7006 16.5033 17.1467 15.3438 17.2344L15.1348 17.25H6.04199L5.83301 17.2344C4.67336 17.1467 3.5728 16.7006 2.68848 15.9619C1.80431 15.2233 1.18182 14.2297 0.907227 13.125C0.632744 12.0205 0.719899 10.8592 1.15625 9.80566C1.59277 8.75186 2.35716 7.85847 3.34277 7.25488L3.64844 7.06738L3.69434 6.71191C3.90854 5.0679 4.72509 3.55438 5.99316 2.45605C7.26141 1.35769 8.89466 0.750083 10.5879 0.75Z"
      fill="white"
    />
  </svg>