<svg xmlns="http://www.w3.org/2000/svg" width="22" height="16" viewBox="0 0 22 16" fill="none">
   <path d="M10.1858 9.06412L0.79144 15.3274C0.714746 15.3784 0.625645 15.4077 0.533627 15.4121C0.44161 15.4165 0.350121 15.3959 0.268906 15.3524C0.18769 15.3089 0.11979 15.2442 0.0724356 15.1652C0.0250816 15.0862 4.75887e-05 14.9958 0 14.9037V0.509029C4.75887e-05 0.416906 0.0250816 0.326521 0.0724356 0.247501C0.11979 0.16848 0.18769 0.103784 0.268906 0.0603014C0.350121 0.0168193 0.44161 -0.00382006 0.533627 0.000581848C0.625645 0.00498376 0.714746 0.0342622 0.79144 0.0852984L10.1858 6.34857V0.509029C10.1859 0.416906 10.2109 0.326521 10.2583 0.247501C10.3056 0.16848 10.3735 0.103784 10.4547 0.0603014C10.536 0.0168193 10.6274 -0.00382006 10.7195 0.000581848C10.8115 0.00498376 10.9006 0.0342622 10.9773 0.0852984L21.7733 7.28261C21.843 7.32912 21.9002 7.39213 21.9397 7.46605C21.9793 7.53997 22 7.62251 22 7.70634C22 7.79018 21.9793 7.87272 21.9397 7.94664C21.9002 8.02055 21.843 8.08356 21.7733 8.13008L10.9773 15.3274C10.9006 15.3784 10.8115 15.4077 10.7195 15.4121C10.6274 15.4165 10.536 15.3959 10.4547 15.3524C10.3735 15.3089 10.3056 15.2442 10.2583 15.1652C10.2109 15.0862 10.1859 14.9958 10.1858 14.9037V9.06412Z" fill="white"/>
 </svg>