<svg xmlns="http://www.w3.org/2000/svg" width="22" height="19" viewBox="0 0 22 19" fill="none"> 
   <path d="M10.9996 0C12.9448 0 14.8233 0.698 16.2837 1.96289C17.7441 3.22778 18.6867 4.97287 18.9341 6.87207C20.097 7.58425 21.002 8.64031 21.5191 9.88867C22.036 11.1369 22.1384 12.5139 21.813 13.8232C21.4875 15.1327 20.7508 16.3083 19.7066 17.1807C18.6623 18.053 17.3642 18.5784 15.9986 18.6816V18.7002H6.00053V18.6816C4.63507 18.5784 3.33768 18.0528 2.2935 17.1807C1.24922 16.3083 0.511589 15.1328 0.186077 13.8232C-0.139327 12.5138 -0.036041 11.1369 0.480999 9.88867C0.998088 8.64036 1.90213 7.58425 3.06498 6.87207C3.31244 4.9729 4.25502 3.22778 5.71537 1.96289C7.17575 0.698007 9.05429 2.32847e-05 10.9996 0ZM7.78276 11.0762H10.4439V14.5449H11.5591V11.0762H14.2203L11.0015 5.50098L7.78276 11.0762Z" fill="white"/> 
 </svg>