<svg xmlns="http://www.w3.org/2000/svg" width="22" height="21" viewBox="0 0 22 21" fill="none"> 
   <path d="M14.4376 0C15.8776 0.474065 17.2039 1.24142 18.3331 2.25293C18.0929 2.86697 17.9942 3.52711 18.044 4.18457C18.0939 4.84227 18.291 5.48079 18.6212 6.05176C18.9507 6.6238 19.4051 7.11405 19.9503 7.48633C20.4955 7.85861 21.1179 8.10345 21.7706 8.20215C22.0791 9.68577 22.0792 11.2176 21.7706 12.7012C20.4948 12.8969 19.3175 13.6464 18.6212 14.8506C18.2909 15.4216 18.093 16.06 18.0431 16.7178C17.9932 17.3757 18.0926 18.037 18.3331 18.6514C17.2038 19.6624 15.8774 20.4286 14.4376 20.9023C14.0257 20.3867 13.5022 19.9704 12.9073 19.6846C12.3126 19.3989 11.6609 19.2513 11.0011 19.252C10.341 19.2514 9.68874 19.3995 9.09385 19.6855C8.49912 19.9716 7.97625 20.3885 7.56455 20.9043C6.12459 20.4306 4.79841 19.6635 3.66904 18.6523C3.9095 18.0381 4.00793 17.3775 3.95811 16.7197C3.90823 16.062 3.71122 15.4235 3.38096 14.8525C3.05133 14.2807 2.59699 13.79 2.05186 13.418C1.50667 13.0459 0.884205 12.8017 0.231544 12.7031C-0.0771836 11.2191 -0.0771809 9.68715 0.231544 8.20312C0.884304 8.10442 1.50666 7.85959 2.05186 7.4873C2.59699 7.11503 3.05146 6.62474 3.38096 6.05273C3.71107 5.48192 3.90817 4.84403 3.95811 4.18652C4.00799 3.52889 3.90932 2.8681 3.66904 2.25391V2.25293C4.79828 1.24138 6.12453 0.474061 7.56455 0C7.97629 0.515823 8.49905 0.932733 9.09385 1.21875C9.68874 1.50477 10.341 1.65288 11.0011 1.65234C11.661 1.65287 12.3126 1.50462 12.9073 1.21875C13.5022 0.93273 14.0258 0.515885 14.4376 0ZM11.8634 7.25C11.4428 7.13882 11.0043 7.11203 10.5733 7.1709C10.1422 7.22985 9.7261 7.37367 9.35069 7.59375C8.59926 8.03438 8.05293 8.75455 7.83018 9.59668C7.6075 10.4389 7.72671 11.3353 8.16221 12.0898C8.59789 12.8445 9.31446 13.3967 10.1554 13.625C10.9962 13.8533 11.893 13.7392 12.6505 13.3086C13.0288 13.0935 13.3614 12.8058 13.628 12.4619C13.8946 12.118 14.0902 11.7246 14.2042 11.3047C14.3182 10.8848 14.3482 10.4461 14.2921 10.0146C14.236 9.58327 14.0955 9.16677 13.878 8.79004C13.6605 8.41331 13.3701 8.08361 13.0245 7.81934C12.6788 7.555 12.2841 7.36123 11.8634 7.25Z" stroke="white" strokeWidth="1.5"/> 
 </svg>