<svg
  width="22"
  height="16"
  viewBox="0 0 22 16"
  fill="none"
  xmlns="http://www.w3.org/2000/svg"
>
  <path
    d="M15 0C15.2652 0 15.5195 0.105433 15.707 0.292969C15.8946 0.480505 16 0.734784 16 1V5.2002L21.2129 1.5498C21.2877 1.49736 21.3756 1.46701 21.4668 1.46094C21.5581 1.45494 21.6503 1.47333 21.7314 1.51562C21.8125 1.55791 21.8803 1.622 21.9277 1.7002C21.9752 1.77848 22.0001 1.86843 22 1.95996V14.04C22.0001 14.1316 21.9752 14.2215 21.9277 14.2998C21.8803 14.378 21.8125 14.4421 21.7314 14.4844C21.6503 14.5267 21.5581 14.5451 21.4668 14.5391C21.3756 14.533 21.2877 14.5026 21.2129 14.4502L16 10.7998V15C16 15.2652 15.8946 15.5195 15.707 15.707C15.5195 15.8946 15.2652 16 15 16H1C0.734784 16 0.480505 15.8946 0.292969 15.707C0.105433 15.5195 0 15.2652 0 15V1C0 0.734784 0.105432 0.480505 0.292969 0.292969C0.480505 0.105432 0.734784 0 1 0H15ZM7.49707 8.97949L5.58203 7.06445L5 7.64746L4.41797 8.22949L7.44336 11.2549L8.02441 10.7266L12.5537 6.60938L11.4463 5.39062L7.49707 8.97949Z"
    fill="white"
  />
</svg> 