<svg width="24" height="24" viewBox="0 0 24 24" fill="none" xmlns="http://www.w3.org/2000/svg">
<g id="Story-Post--Streamline-Sharp.svg">
<g id="Story-Post--Streamline-Sharp.svg_2">
<path id="Ellipse 445" d="M2 12C2 17.5228 6.47715 22 12 22C17.5228 22 22 17.5228 22 12C22 6.47715 17.5228 2 12 2" stroke="white" stroke-width="2"/>
<path id="Vector" d="M9.63294 9.17746V14.8223C9.63092 14.9153 9.65373 15.0072 9.699 15.0885C9.74427 15.1699 9.81038 15.2377 9.89054 15.285C9.97069 15.3323 10.062 15.3574 10.1551 15.3577C10.2482 15.3581 10.3396 15.3336 10.4201 15.2869L15.1337 12.4626C15.2127 12.4139 15.278 12.3459 15.3232 12.2649C15.3685 12.1839 15.3923 12.0926 15.3923 11.9999C15.3923 11.9071 15.3685 11.8158 15.3232 11.7348C15.278 11.6538 15.2127 11.5858 15.1337 11.5371L10.4201 8.71282C10.3396 8.66609 10.2482 8.64163 10.1551 8.64197C10.062 8.64231 9.97069 8.66742 9.89054 8.71473C9.81038 8.76204 9.74427 8.82985 9.699 8.91117C9.65373 8.99249 9.63092 9.0844 9.63294 9.17746Z" stroke="white" stroke-width="1.67" stroke-linecap="round" stroke-linejoin="round"/>
<path id="Ellipse 446" d="M2.2002 9.99999C2.36868 9.17 2.63996 8.37734 3.00016 7.63586" stroke="white" stroke-width="2"/>
<path id="Ellipse 448" d="M5.99991 3.99902C5.24266 4.56781 4.56879 5.24161 3.99991 5.99879" stroke="white" stroke-width="2"/>
<path id="Ellipse 449" d="M9.99995 2.19995C9.16989 2.36844 8.37717 2.63975 7.63565 3" stroke="white" stroke-width="2"/>
</g>
</g>
</svg>
