 <svg
    width="12"
    height="12"
    viewBox="0 0 12 12"
    fill="none"
    xmlns="http://www.w3.org/2000/svg"
  >
    <path
      d="M0 1.28572C0 0.575635 0.575634 0 1.28571 0H4.04762C4.7577 0 5.33333 0.575634 5.33333 1.28571V4.04762C5.33333 4.7577 4.7577 5.33333 4.04762 5.33333H1.28572C0.575635 5.33333 0 4.7577 0 4.04762V1.28572ZM0 7.95238C0 7.2423 0.575634 6.66667 1.28571 6.66667H4.04762C4.7577 6.66667 5.33333 7.2423 5.33333 7.95238V10.7143C5.33333 11.4244 4.7577 12 4.04762 12H1.28572C0.575635 12 0 11.4244 0 10.7143V7.95238ZM6.66667 1.28572C6.66667 0.575635 7.2423 0 7.95238 0H10.7143C11.4244 0 12 0.575634 12 1.28571V4.04762C12 4.7577 11.4244 5.33333 10.7143 5.33333H7.95238C7.2423 5.33333 6.66667 4.7577 6.66667 4.04762V1.28572ZM6.66667 7.95238C6.66667 7.2423 7.2423 6.66667 7.95238 6.66667H10.7143C11.4244 6.66667 12 7.2423 12 7.95238V10.7143C12 11.4244 11.4244 12 10.7143 12H7.95238C7.2423 12 6.66667 11.4244 6.66667 10.7143V7.95238Z"
      fill="url(#paint0_linear_2032_536)"
    />
    <defs>
      <linearGradient
        id="paint0_linear_2032_536"
        x1="16.38"
        y1="6.07118"
        x2="3.92925"
        y2="-2.05927"
        gradientUnits="userSpaceOnUse"
      >
        <stop stopColor="#00BBFF" />
        <stop offset="1" stopColor="#0051FF" />
      </linearGradient>
    </defs>
  </svg>