<svg xmlns="http://www.w3.org/2000/svg" width="38" height="25" viewBox="0 0 38 25" fill="none">
  <path fill-rule="evenodd" clip-rule="evenodd" d="M11.1836 0C12.7511 0 14.1592 0.303792 15.407 0.911676C16.2464 1.31033 16.982 1.8129 17.615 2.41793V0.480048L24.8143 0.480048L24.8143 23.8069H17.615V21.9149C17.0017 22.4948 16.282 22.9819 15.455 23.3747C14.1749 23.9825 12.7511 24.2867 11.1836 24.2867C9.03969 24.2867 7.11963 23.7588 5.42375 22.7029C3.76003 21.647 2.43174 20.207 1.43954 18.3831C0.479844 16.5592 0 14.4792 0 12.1433C0 9.80754 0.479844 7.72752 1.43954 5.90363C2.43174 4.07977 3.76003 2.63976 5.42375 1.5838C7.11963 0.527933 9.03969 0 11.1836 0ZM10.7671 7.55488C9.70048 6.93915 8.3675 7.70878 8.3675 8.94037V15.314C8.3675 16.5455 9.70048 17.3152 10.7671 16.6994L16.287 13.5129C17.3536 12.897 17.3536 11.3573 16.287 10.7415L10.7671 7.55488Z" fill="url(#paint0_linear_2457_3139)"/>
  <path d="M38.0001 23.8063H30.6562L30.6562 0.479492L38.0001 0.479492V23.8063Z" fill="url(#paint1_linear_2457_3139)"/>
  <defs>
    <linearGradient id="paint0_linear_2457_3139" x1="47.8493" y1="12.2874" x2="13.9042" y2="-22.3947" gradientUnits="userSpaceOnUse">
      <stop stop-color="#00EEFF"/>
      <stop offset="1" stop-color="#0051FF"/>
    </linearGradient>
    <linearGradient id="paint1_linear_2457_3139" x1="47.8503" y1="12.2868" x2="13.9052" y2="-22.3952" gradientUnits="userSpaceOnUse">
      <stop stop-color="#00EEFF"/>
      <stop offset="1" stop-color="#0051FF"/>
    </linearGradient>
  </defs>
</svg>