<svg width="40" height="40" viewBox="0 0 40 40" fill="none" xmlns="http://www.w3.org/2000/svg">
<g clip-path="url(#clip0_770_312)">
<path d="M30 0.75H10C4.89137 0.75 0.75 4.89137 0.75 10V30C0.75 35.1086 4.89137 39.25 10 39.25H30C35.1086 39.25 39.25 35.1086 39.25 30V10C39.25 4.89137 35.1086 0.75 30 0.75Z" fill="white"/>
<path d="M21.6867 9.05536C21.3955 10.4201 20.0561 11.2889 18.6903 11.0005C17.3273 10.712 16.4522 9.37192 16.742 8.00368C17.0333 6.63895 18.3741 5.76668 19.7413 6.05511C21.107 6.34705 21.9794 7.69063 21.6867 9.05536Z" fill="#18191B"/>
<path d="M13.7962 32.4034C13.7962 33.4516 12.9429 34.3028 11.8958 34.3028C10.8505 34.3028 10 33.4516 10 32.4034C10 31.3623 10.8505 30.5076 11.8958 30.5076C12.9429 30.5076 13.7962 31.3623 13.7962 32.4034Z" fill="#18191B"/>
<path d="M29.8039 12.3793C29.6597 12.2245 29.462 12.1471 29.264 12.1471H29.2626C29.2626 12.1471 23.2585 12.7345 21.3901 12.1225C20.942 12.017 20.3704 11.8482 19.8234 11.5984C19.821 11.609 19.8196 11.6266 19.8196 11.6407C19.8196 11.6407 19.8168 11.6371 19.8168 11.6336C19.8097 11.6266 19.8087 11.6195 19.8059 11.6125C19.7 11.5246 19.586 11.4402 19.4636 11.3663C19.3715 11.3241 19.2508 11.2678 19.1228 11.2185C19.0996 11.208 19.0736 11.1975 19.0461 11.1869C19.0117 11.1728 18.9786 11.1623 18.9441 11.1517C18.91 11.1377 18.8755 11.1236 18.8414 11.1131C18.8273 11.1095 18.8041 11.106 18.7876 11.099C18.7493 11.0884 18.7106 11.0814 18.6751 11.0708C18.6364 11.0638 18.6008 11.0568 18.5597 11.0497C18.5432 11.0462 18.5196 11.0392 18.5044 11.0392C18.4703 11.0356 18.4331 11.0356 18.3989 11.0321C18.3588 11.0286 18.3247 11.0251 18.286 11.0251C18.2614 11.0251 18.234 11.0216 18.208 11.0216C18.069 11.0181 17.9357 11.0181 17.8355 11.0181C17.4823 11.0462 17.183 11.1517 16.9343 11.2959C16.9287 11.2959 16.9245 11.2959 16.9206 11.2994C16.1813 11.609 15.8981 11.7989 14.8939 12.6536C13.4719 13.846 12.602 15.2389 12.4441 17.0784C12.3491 18.007 12.5897 20.3425 12.5897 20.3425C12.6076 20.434 12.6432 20.5219 12.697 20.6099C12.9182 20.9475 13.3744 21.0495 13.7205 20.8244C13.9485 20.6732 14.0652 20.4199 14.0515 20.1631L14.0543 20.1596C13.9171 18.4748 13.5527 17.7151 14.2221 15.9599C14.5601 15.3338 14.9597 14.866 15.412 14.4791C14.5752 18.3728 12.6432 27.4792 12.6502 27.4792C12.6351 27.5355 12.6294 27.5953 12.6294 27.6586C12.6294 28.1475 13.0227 28.5379 13.5074 28.5379C13.8742 28.5379 14.1876 28.3093 14.3209 27.9892L14.3266 27.9681C14.347 27.9153 14.3621 27.8626 14.3677 27.8098L15.4887 23.7297C15.5425 23.6981 15.743 23.5855 16.004 23.6418C16.2636 23.6981 16.4025 23.881 16.437 23.9337L14.7398 33.2406C14.6382 33.7119 14.9421 34.1797 15.4131 34.2782C15.89 34.3837 16.3557 34.0777 16.4574 33.6064C16.4616 33.5818 16.4616 33.5607 16.4672 33.5396C16.4672 33.5396 20.593 14.0641 20.6314 13.7827C23.9964 14.3103 28.8366 13.6842 29.308 13.6244C29.4743 13.6138 29.6379 13.547 29.7655 13.4274C29.8946 13.3114 29.965 13.1601 29.9938 13.0019C29.9938 12.9948 29.9949 12.9702 29.9949 12.9631C30.0185 12.7591 29.9594 12.5411 29.8039 12.3793Z" fill="#18191B"/>
</g>
<defs>
<clipPath id="clip0_770_312">
<rect width="40" height="40" fill="white"/>
</clipPath>
</defs>
</svg>
