<svg xmlns="http://www.w3.org/2000/svg" width="12" height="12" viewBox="0 0 12 12" fill="none">
  <path d="M5.46973 1.32049C5.66167 0.842504 6.33833 0.842503 6.53027 1.32048L7.67669 4.17532C7.75843 4.37886 7.94946 4.51766 8.16831 4.5325L11.2377 4.74062C11.7516 4.77546 11.9607 5.419 11.5654 5.74925L9.20456 7.72175C9.03623 7.86239 8.96327 8.08696 9.01678 8.29968L9.76733 11.2831C9.893 11.7827 9.34557 12.1804 8.90934 11.9065L6.30383 10.2708C6.11807 10.1541 5.88193 10.1541 5.69617 10.2707L3.09066 11.9065C2.65443 12.1804 2.107 11.7827 2.23267 11.2831L2.98322 8.29968C3.03674 8.08696 2.96377 7.86239 2.79544 7.72175L0.434597 5.74925C0.0393227 5.41899 0.24842 4.77546 0.762323 4.74062L3.8317 4.5325C4.05054 4.51766 4.24157 4.37886 4.32331 4.17532L5.46973 1.32049Z" fill="white"/>
</svg>