<svg width="15" height="12" viewBox="0 0 15 12" fill="none" xmlns="http://www.w3.org/2000/svg">
  <path d="M10.9091 4.27202L14.4634 1.78338C14.5145 1.74756 14.5745 1.72645 14.6368 1.72236C14.699 1.71827 14.7612 1.73136 14.8166 1.7602C14.872 1.78903 14.9183 1.83251 14.9507 1.88589C14.983 1.93928 15.0001 2.00051 15 2.06293V10.2993C15.0001 10.3617 14.983 10.4229 14.9507 10.4763C14.9183 10.5297 14.872 10.5732 14.8166 10.602C14.7612 10.6309 14.699 10.6439 14.6368 10.6399C14.5745 10.6358 14.5145 10.6147 14.4634 10.5788L10.9091 8.0902V10.9538C10.9091 11.1347 10.8373 11.3081 10.7094 11.436C10.5815 11.5638 10.4081 11.6357 10.2273 11.6357H0.681818C0.500989 11.6357 0.327566 11.5638 0.1997 11.436C0.0718342 11.3081 0 11.1347 0 10.9538V1.40838C0 1.22755 0.0718342 1.05413 0.1997 0.926263C0.327566 0.798397 0.500989 0.726562 0.681818 0.726562H10.2273C10.4081 0.726562 10.5815 0.798397 10.7094 0.926263C10.8373 1.05413 10.9091 1.22755 10.9091 1.40838V4.27202ZM2.72727 3.45384V4.81747H4.09091V3.45384H2.72727Z" fill="white"/>
  <path d="M2.04545 2.77202H4.77273V5.49929H2.04545V2.77202Z" fill="white"/>
</svg> 