<svg xmlns="http://www.w3.org/2000/svg" width="247" height="57" viewBox="0 0 247 57" fill="none">
  <g clip-path="url(#clip0_2032_10)">
    <path d="M0.410156 41.296L20.4547 14.8501H24.3342L4.28974 41.296H0.410156ZM0.410156 43.1064V41.296L2.99654 40.1967H24.0109V43.1064H0.410156ZM1.44471 15.9494V13.0397H24.3342V14.8501L21.2306 15.9494H1.44471Z" fill="white"/>
    <path d="M44.6196 43.7531C41.6454 43.7531 38.9512 43.0634 36.5373 41.684C34.1664 40.3046 32.2913 38.4295 30.9119 36.0586C29.5325 33.6878 28.8428 31.0152 28.8428 28.0408C28.8428 25.0665 29.5109 22.4154 30.8472 20.0877C32.1835 17.7168 34.0155 15.8417 36.3433 14.4623C38.7142 13.0829 41.3436 12.3932 44.2316 12.3932C46.9904 12.3932 49.4044 13.0182 51.4735 14.2683C53.5857 15.4753 55.2238 17.1565 56.3876 19.3118C57.5946 21.4671 58.1981 23.9457 58.1981 26.7476C58.1981 27.0063 58.1765 27.3511 58.1334 27.7822C58.0903 28.1702 58.0257 28.6659 57.9395 29.2694H31.1705V26.4243H56.0643L54.9651 27.3296C55.0513 24.9587 54.6634 22.8896 53.8012 21.1222C52.9391 19.3118 51.689 17.9108 50.051 16.9194C48.4129 15.9279 46.4516 15.4322 44.1669 15.4322C41.7963 15.4322 39.7056 15.971 37.8951 17.0487C36.0847 18.0832 34.6621 19.5273 33.6276 21.3809C32.6361 23.2345 32.1404 25.3898 32.1404 27.8469C32.1404 30.4332 32.6577 32.6963 33.6923 34.6361C34.7699 36.5328 36.2571 38.02 38.1538 39.0976C40.0505 40.1322 42.2704 40.6495 44.8135 40.6495C46.7533 40.6495 48.5423 40.3046 50.1803 39.6149C51.8614 38.8821 53.2624 37.8044 54.3832 36.3819L56.5816 38.5157C55.2022 40.1537 53.4564 41.4469 51.3442 42.3953C49.2751 43.3004 47.0335 43.7531 44.6196 43.7531Z" fill="white"/>
    <path d="M88.333 43.1065V25.2605C88.333 22.3292 87.4709 19.9584 85.7467 18.1479C84.0224 16.3374 81.7378 15.4322 78.8927 15.4322C76.9529 15.4322 75.2287 15.8633 73.72 16.7254C72.2543 17.5444 71.0905 18.6867 70.2283 20.1523C69.4093 21.618 68.9998 23.3207 68.9998 25.2605L67.3186 24.2906C67.3186 22.0059 67.8575 19.9799 68.9351 18.2126C70.0128 16.4021 71.4784 14.9796 73.332 13.945C75.1856 12.9105 77.2978 12.3932 79.6686 12.3932C82.0395 12.3932 84.1086 12.9536 85.876 14.0743C87.6864 15.152 89.0874 16.6392 90.0789 18.5359C91.0703 20.4325 91.566 22.5448 91.566 24.8725V43.1065H88.333ZM65.7021 43.1065V13.0398H68.9998V43.1065H65.7021Z" fill="white"/>
    <path d="M105.025 43.1046V0.299866H108.322V43.1046H105.025ZM97.2656 15.9475V13.0378H116.082V15.9475H97.2656Z" fill="white"/>
    <path d="M134.903 43.7531C132.015 43.7531 129.407 43.0634 127.079 41.684C124.795 40.3046 122.984 38.451 121.648 36.1233C120.312 33.7524 119.644 31.0798 119.644 28.1055C119.644 25.1743 120.312 22.5232 121.648 20.1523C122.984 17.7815 124.795 15.9064 127.079 14.527C129.364 13.1044 131.929 12.3932 134.774 12.3932C137.102 12.3932 139.171 12.8458 140.981 13.751C142.835 14.6132 144.344 15.8417 145.507 17.4366C146.714 19.0316 147.49 20.9283 147.835 23.1267V32.955C147.447 35.1534 146.65 37.0716 145.443 38.7097C144.279 40.3046 142.792 41.5547 140.981 42.4599C139.214 43.322 137.188 43.7531 134.903 43.7531ZM135.356 40.6495C138.804 40.6495 141.542 39.5072 143.568 37.2225C145.637 34.8948 146.671 31.8558 146.671 28.1055C146.671 25.5622 146.197 23.3638 145.249 21.5102C144.344 19.6135 143.029 18.1479 141.305 17.1133C139.58 16.0357 137.576 15.4969 135.291 15.4969C132.92 15.4969 130.808 16.0357 128.955 17.1133C127.144 18.191 125.7 19.6782 124.622 21.5749C123.588 23.4715 123.071 25.6269 123.071 28.0408C123.071 30.4979 123.588 32.6748 124.622 34.5715C125.7 36.4681 127.166 37.9553 129.019 39.033C130.873 40.1106 132.985 40.6495 135.356 40.6495ZM146.542 43.1065V35.0241L147.253 27.6529L146.542 20.3463V13.0398H149.84V43.1065H146.542Z" fill="white"/>
    <path d="M171.947 56.491C169.016 56.491 166.365 55.9306 163.994 54.8099C161.623 53.7322 159.726 52.1588 158.304 50.0897L160.373 48.0206C161.537 49.6586 163.11 50.9518 165.093 51.9002C167.076 52.8916 169.382 53.3873 172.012 53.3873C175.848 53.3873 178.866 52.3528 181.064 50.2837C183.306 48.2146 184.426 45.4342 184.426 41.9427V34.3775L185.202 27.3942L184.426 20.605V13.0398H187.724V41.9427C187.724 44.8738 187.056 47.4171 185.72 49.5724C184.426 51.7277 182.594 53.4089 180.223 54.6159C177.853 55.866 175.094 56.491 171.947 56.491ZM172.594 42.9126C169.749 42.9126 167.184 42.266 164.899 40.9728C162.658 39.6365 160.89 37.826 159.597 35.5414C158.304 33.2136 157.657 30.5841 157.657 27.6529C157.657 24.7647 158.304 22.1784 159.597 19.8937C160.89 17.566 162.658 15.7339 164.899 14.3976C167.141 13.0613 169.684 12.3932 172.529 12.3932C174.857 12.3932 176.947 12.8458 178.801 13.751C180.655 14.6132 182.185 15.8417 183.392 17.4366C184.642 19.0316 185.439 20.9283 185.784 23.1267V32.2437C185.396 34.399 184.577 36.2957 183.327 37.9338C182.12 39.5287 180.59 40.7572 178.736 41.6194C176.926 42.4815 174.878 42.9126 172.594 42.9126ZM173.176 39.8736C175.417 39.8736 177.4 39.3778 179.124 38.3864C180.892 37.3518 182.249 35.9293 183.198 34.1188C184.146 32.2653 184.62 30.1099 184.62 27.6529C184.62 25.2389 184.125 23.1267 183.133 21.3162C182.185 19.5058 180.848 18.0832 179.124 17.0487C177.4 16.0141 175.374 15.4969 173.046 15.4969C170.718 15.4969 168.649 16.0141 166.839 17.0487C165.028 18.0832 163.606 19.5058 162.571 21.3162C161.537 23.1267 161.02 25.2174 161.02 27.5882C161.02 29.9591 161.537 32.0713 162.571 33.9249C163.606 35.7784 165.028 37.2441 166.839 38.3217C168.692 39.3563 170.805 39.8736 173.176 39.8736Z" fill="white"/>
    <path fill-rule="evenodd" clip-rule="evenodd" d="M212.503 12.5105C214.52 12.5105 216.331 12.9013 217.936 13.6833C219.016 14.1961 219.962 14.8426 220.776 15.621V13.128H230.038V43.1361H220.776V40.7023C219.988 41.4483 219.062 42.0748 217.998 42.5802C216.351 43.362 214.52 43.7534 212.503 43.7534C209.745 43.7534 207.275 43.0743 205.093 41.7159C202.953 40.3576 201.244 38.5051 199.968 36.1588C198.733 33.8126 198.116 31.1368 198.116 28.1319C198.116 25.1271 198.733 22.4513 199.968 20.105C201.244 17.7588 202.953 15.9063 205.093 14.5479C207.275 13.1896 209.745 12.5105 212.503 12.5105ZM211.967 22.2292C210.595 21.4372 208.88 22.4272 208.88 24.0116V32.2107C208.88 33.795 210.595 34.7851 211.967 33.993L219.068 29.8937C220.44 29.1015 220.44 27.1207 219.068 26.3285L211.967 22.2292Z" fill="url(#paint0_linear_2032_10)"/>
    <path d="M247 43.136H237.553V13.1279H247V43.136Z" fill="url(#paint1_linear_2032_10)"/>
  </g>
  <defs>
    <linearGradient id="paint0_linear_2032_10" x1="259.671" y1="28.3172" x2="216.003" y2="-16.2984" gradientUnits="userSpaceOnUse">
      <stop stop-color="#00EEFF"/>
      <stop offset="1" stop-color="#0051FF"/>
    </linearGradient>
    <linearGradient id="paint1_linear_2032_10" x1="259.672" y1="28.3171" x2="216.004" y2="-16.2985" gradientUnits="userSpaceOnUse">
      <stop stop-color="#00EEFF"/>
      <stop offset="1" stop-color="#0051FF"/>
    </linearGradient>
    <clipPath id="clip0_2032_10">
      <rect width="247" height="56.9005" fill="white"/>
    </clipPath>
  </defs>
</svg>