<svg
  xmlns="http://www.w3.org/2000/svg"
  width="148"
  height="36"
  viewBox="0 0 148 36"
  fill="none"
>
  <rect opacity="0.07" width="36" height="36" rx="7" fill="white" />
  <path
    d="M14.5184 13.2506C14.5182 13.5821 14.3854 13.8999 14.1491 14.1342C13.9128 14.3685 13.5925 14.5 13.2585 14.4999C12.9246 14.4997 12.6044 14.3678 12.3684 14.1333C12.1323 13.8988 11.9998 13.5808 12 13.2493C12.0002 12.9178 12.133 12.5999 12.3692 12.3657C12.6055 12.1314 12.9259 11.9998 13.2598 12C13.5938 12.0002 13.914 12.132 14.15 12.3665C14.386 12.6011 14.5185 12.9191 14.5184 13.2506ZM14.5561 15.4254H12.0378V23.25H14.5561V15.4254ZM18.5351 15.4254H16.0294V23.25H18.5099V19.144C18.5099 16.8566 21.5131 16.6441 21.5131 19.144V23.25H24V18.294C24 14.438 19.5551 14.5817 18.5099 16.4754L18.5351 15.4254Z"
    fill="white"
  />
  <rect
    opacity="0.07"
    x="56"
    width="36"
    height="36"
    rx="7"
    fill="white"
  />
  <path
    d="M71.3338 18C71.3338 16.5273 72.5273 15.3331 74 15.3331C75.4727 15.3331 76.6669 16.5273 76.6669 18C76.6669 19.4727 75.4727 20.6669 74 20.6669C72.5273 20.6669 71.3338 19.4727 71.3338 18ZM69.8921 18C69.8921 20.2688 71.7312 22.1079 74 22.1079C76.2688 22.1079 78.1079 20.2688 78.1079 18C78.1079 15.7312 76.2688 13.8921 74 13.8921C71.7312 13.8921 69.8921 15.7312 69.8921 18ZM77.3105 13.7292C77.3105 13.9191 77.3667 14.1047 77.4721 14.2626C77.5775 14.4205 77.7274 14.5436 77.9028 14.6164C78.0782 14.6891 78.2712 14.7082 78.4574 14.6712C78.6437 14.6343 78.8148 14.5429 78.9491 14.4087C79.0834 14.2745 79.1749 14.1035 79.212 13.9173C79.2491 13.7311 79.2302 13.538 79.1576 13.3626C79.085 13.1871 78.962 13.0372 78.8042 12.9316C78.6464 12.8261 78.4608 12.7697 78.2709 12.7696H78.2705C78.016 12.7697 77.772 12.8708 77.592 13.0508C77.412 13.2307 77.3107 13.4747 77.3105 13.7292ZM70.768 24.5118C69.988 24.4763 69.5641 24.3464 69.2824 24.2366C68.9089 24.0912 68.6424 23.918 68.3622 23.6382C68.082 23.3584 67.9085 23.0922 67.7638 22.7187C67.654 22.4371 67.524 22.013 67.4886 21.233C67.4498 20.3898 67.442 20.1364 67.442 18.0001C67.442 15.8637 67.4504 15.6111 67.4886 14.7671C67.5241 13.9871 67.655 13.5639 67.7638 13.2815C67.9092 12.908 68.0824 12.6415 68.3622 12.3613C68.642 12.0811 68.9082 11.9076 69.2824 11.7629C69.564 11.6531 69.988 11.5231 70.768 11.4877C71.6113 11.4489 71.8646 11.4412 74 11.4412C76.1354 11.4412 76.389 11.4495 77.233 11.4877C78.0129 11.5232 78.4362 11.6541 78.7186 11.7629C79.0921 11.9076 79.3586 12.0815 79.6388 12.3613C79.919 12.6411 80.0918 12.908 80.2372 13.2815C80.347 13.5631 80.4769 13.9871 80.5124 14.7671C80.5512 15.6111 80.5589 15.8637 80.5589 18.0001C80.5589 20.1364 80.5512 20.3891 80.5124 21.233C80.4769 22.013 80.3463 22.4369 80.2372 22.7187C80.0918 23.0922 79.9186 23.3587 79.6388 23.6382C79.359 23.9178 79.0921 24.0912 78.7186 24.2366C78.437 24.3464 78.0129 24.4764 77.233 24.5118C76.3897 24.5506 76.1364 24.5583 74 24.5583C71.8636 24.5583 71.611 24.5506 70.768 24.5118ZM70.7018 10.0484C69.8501 10.0872 69.2682 10.2223 68.7599 10.42C68.2336 10.6243 67.788 10.8982 67.3428 11.3428C66.8975 11.7873 66.6243 12.2336 66.42 12.7599C66.2223 13.2685 66.0872 13.8501 66.0484 14.7018C66.009 15.5548 66 15.8275 66 18C66 20.1725 66.009 20.4452 66.0484 21.2982C66.0872 22.15 66.2223 22.7315 66.42 23.2401C66.6243 23.7661 66.8976 24.2129 67.3428 24.6572C67.788 25.1016 68.2336 25.3752 68.7599 25.58C69.2691 25.7777 69.8501 25.9128 70.7018 25.9516C71.5552 25.9903 71.8275 26 74 26C76.1725 26 76.4452 25.991 77.2982 25.9516C78.15 25.9128 78.7315 25.7777 79.2401 25.58C79.7661 25.3752 80.212 25.1018 80.6572 24.6572C81.1025 24.2127 81.3752 23.7661 81.58 23.2401C81.7777 22.7315 81.9134 22.1499 81.9516 21.2982C81.9903 20.4446 81.9994 20.1725 81.9994 18C81.9994 15.8275 81.9903 15.5548 81.9516 14.7018C81.9128 13.85 81.7777 13.2682 81.58 12.7599C81.3752 12.2339 81.1018 11.788 80.6572 11.3428C80.2127 10.8975 79.7661 10.6243 79.2407 10.42C78.7315 10.2223 78.1499 10.0866 77.2989 10.0484C76.4459 10.0097 76.1732 10 74.0006 10C71.8281 10 71.5552 10.009 70.7018 10.0484Z"
    fill="url(#paint0_radial_1_498)"
  />
  <path
    d="M71.3338 18C71.3338 16.5273 72.5273 15.3331 74 15.3331C75.4727 15.3331 76.6669 16.5273 76.6669 18C76.6669 19.4727 75.4727 20.6669 74 20.6669C72.5273 20.6669 71.3338 19.4727 71.3338 18ZM69.8921 18C69.8921 20.2688 71.7312 22.1079 74 22.1079C76.2688 22.1079 78.1079 20.2688 78.1079 18C78.1079 15.7312 76.2688 13.8921 74 13.8921C71.7312 13.8921 69.8921 15.7312 69.8921 18ZM77.3105 13.7292C77.3105 13.9191 77.3667 14.1047 77.4721 14.2626C77.5775 14.4205 77.7274 14.5436 77.9028 14.6164C78.0782 14.6891 78.2712 14.7082 78.4574 14.6712C78.6437 14.6343 78.8148 14.5429 78.9491 14.4087C79.0834 14.2745 79.1749 14.1035 79.212 13.9173C79.2491 13.7311 79.2302 13.538 79.1576 13.3626C79.085 13.1871 78.962 13.0372 78.8042 12.9316C78.6464 12.8261 78.4608 12.7697 78.2709 12.7696H78.2705C78.016 12.7697 77.772 12.8708 77.592 13.0508C77.412 13.2307 77.3107 13.4747 77.3105 13.7292ZM70.768 24.5118C69.988 24.4763 69.5641 24.3464 69.2824 24.2366C68.9089 24.0912 68.6424 23.918 68.3622 23.6382C68.082 23.3584 67.9085 23.0922 67.7638 22.7187C67.654 22.4371 67.524 22.013 67.4886 21.233C67.4498 20.3898 67.442 20.1364 67.442 18.0001C67.442 15.8637 67.4504 15.6111 67.4886 14.7671C67.5241 13.9871 67.655 13.5639 67.7638 13.2815C67.9092 12.908 68.0824 12.6415 68.3622 12.3613C68.642 12.0811 68.9082 11.9076 69.2824 11.7629C69.564 11.6531 69.988 11.5231 70.768 11.4877C71.6113 11.4489 71.8646 11.4412 74 11.4412C76.1354 11.4412 76.389 11.4495 77.233 11.4877C78.0129 11.5232 78.4362 11.6541 78.7186 11.7629C79.0921 11.9076 79.3586 12.0815 79.6388 12.3613C79.919 12.6411 80.0918 12.908 80.2372 13.2815C80.347 13.5631 80.4769 13.9871 80.5124 14.7671C80.5512 15.6111 80.5589 15.8637 80.5589 18.0001C80.5589 20.1364 80.5512 20.3891 80.5124 21.233C80.4769 22.013 80.3463 22.4369 80.2372 22.7187C80.0918 23.0922 79.9186 23.3587 79.6388 23.6382C79.359 23.9178 79.0921 24.0912 78.7186 24.2366C78.437 24.3464 78.0129 24.4764 77.233 24.5118C76.3897 24.5506 76.1364 24.5583 74 24.5583C71.8636 24.5583 71.611 24.5506 70.768 24.5118ZM70.7018 10.0484C69.8501 10.0872 69.2682 10.2223 68.7599 10.42C68.2336 10.6243 67.788 10.8982 67.3428 11.3428C66.8975 11.7873 66.6243 12.2336 66.42 12.7599C66.2223 13.2685 66.0872 13.8501 66.0484 14.7018C66.009 15.5548 66 15.8275 66 18C66 20.1725 66.009 20.4452 66.0484 21.2982C66.0872 22.15 66.2223 22.7315 66.42 23.2401C66.6243 23.7661 66.8976 24.2129 67.3428 24.6572C67.788 25.1016 68.2336 25.3752 68.7599 25.58C69.2691 25.7777 69.8501 25.9128 70.7018 25.9516C71.5552 25.9903 71.8275 26 74 26C76.1725 26 76.4452 25.991 77.2982 25.9516C78.15 25.9128 78.7315 25.7777 79.2401 25.58C79.7661 25.3752 80.212 25.1018 80.6572 24.6572C81.1025 24.2127 81.3752 23.7661 81.58 23.2401C81.7777 22.7315 81.9134 22.1499 81.9516 21.2982C81.9903 20.4446 81.9994 20.1725 81.9994 18C81.9994 15.8275 81.9903 15.5548 81.9516 14.7018C81.9128 13.85 81.7777 13.2682 81.58 12.7599C81.3752 12.2339 81.1018 11.788 80.6572 11.3428C80.2127 10.8975 79.7661 10.6243 79.2407 10.42C78.7315 10.2223 78.1499 10.0866 77.2989 10.0484C76.4459 10.0097 76.1732 10 74.0006 10C71.8281 10 71.5552 10.009 70.7018 10.0484Z"
    fill="white"
  />
  <rect
    opacity="0.07"
    x="112"
    width="36"
    height="36"
    rx="7"
    fill="white"
  />
  <path
    d="M123.035 11L128.536 18.446L123 24.5H124.246L129.093 19.1996L133.01 24.5H137.25L131.439 16.6351L136.592 11H135.346L130.882 15.8815L127.275 11H123.035ZM124.867 11.929H126.815L135.417 23.5708H133.469L124.867 11.929Z"
    fill="white"
  />
  <defs>
    <radialGradient
      id="paint0_radial_1_498"
      cx="0"
      cy="0"
      r="1"
      gradientUnits="userSpaceOnUse"
      gradientTransform="translate(68.1257 26.0756) scale(20.8867 20.8867)"
    >
      <stop offset="0.09" stop-color="#FA8F21" />
      <stop offset="0.78" stop-color="#D82D7E" />
    </radialGradient>
  </defs>
</svg> 