<svg xmlns="http://www.w3.org/2000/svg" width="18" height="16" viewBox="0 0 18 16" fill="none">
  <path d="M13.0895 15.5365H4.9105C3.75172 15.5372 2.63006 15.1279 1.74415 14.3809C0.85823 13.634 0.265206 12.5977 0.0700829 11.4554C-0.12504 10.3132 0.0903279 9.13876 0.67805 8.14009C1.26577 7.14142 2.18793 6.38293 3.28124 5.99895C3.2442 5.22494 3.36467 4.45146 3.63536 3.72538C3.90604 2.99929 4.3213 2.33571 4.85598 1.77484C5.39066 1.21396 6.03363 0.767457 6.74595 0.46238C7.45827 0.157303 8.2251 0 9 0C9.7749 0 10.5417 0.157303 11.254 0.46238C11.9664 0.767457 12.6093 1.21396 13.144 1.77484C13.6787 2.33571 14.094 2.99929 14.3646 3.72538C14.6353 4.45146 14.7558 5.22494 14.7188 5.99895C15.8121 6.38293 16.7342 7.14142 17.3219 8.14009C17.9097 9.13876 18.125 10.3132 17.9299 11.4554C17.7348 12.5977 17.1418 13.634 16.2559 14.3809C15.3699 15.1279 14.2483 15.5372 13.0895 15.5365Z" fill="white"/>
</svg>
