<svg xmlns="http://www.w3.org/2000/svg" width="15" height="13" viewBox="0 0 15 13" fill="none">
  <path d="M2.38672 6.86719C2.39858 6.86719 2.40924 6.87012 2.41895 6.87207V12.3438C2.40917 12.3457 2.39871 12.3496 2.38672 12.3496H1.10059C1.09943 12.3481 1.09792 12.3464 1.09668 12.3447C1.03709 12.2646 0.95699 12.1035 0.881836 11.833C0.733495 11.299 0.650391 10.5162 0.650391 9.6084C0.650409 8.70087 0.733546 7.9187 0.881836 7.38477C0.957074 7.11392 1.03706 6.95209 1.09668 6.87207C1.09798 6.87033 1.09937 6.86877 1.10059 6.86719H2.38672ZM7.52441 0.651367C7.8093 0.657359 8.2575 0.742532 8.62598 1.03027C8.97727 1.30473 9.34469 1.83048 9.34473 2.91016C9.34473 3.38705 9.30229 3.72466 9.25781 3.9834L9.21387 4.21875C9.20321 4.27303 9.19316 4.32741 9.18359 4.38184L9.18066 4.39648L9.17676 4.42285C9.15486 4.56358 9.17013 4.7055 9.21875 4.83594C9.2671 4.96552 9.34477 5.07483 9.43652 5.16016C9.528 5.24519 9.63343 5.3064 9.74121 5.3457C9.84648 5.38404 9.95653 5.40173 10.0654 5.40137V5.40234C11.5263 5.40234 12.604 5.56341 13.293 5.78418C13.6403 5.89547 13.853 6.01126 13.9658 6.10059C13.9861 6.11669 13.9991 6.13214 14.0098 6.14258C13.9951 6.22306 13.9521 6.31214 13.8604 6.39941L13.8545 6.40527C13.7994 6.45893 13.7503 6.52399 13.7129 6.59961L13.6797 6.67871C13.6409 6.78959 13.6302 6.91048 13.6504 7.0293C13.6706 7.14723 13.7189 7.2521 13.7842 7.33789C13.8491 7.42319 13.9287 7.48714 14.0107 7.53223V7.5332L14.0215 7.53906C14.1407 7.60151 14.2251 7.68063 14.2773 7.75879C14.3286 7.83552 14.3492 7.91054 14.3496 7.97852C14.3479 8.14479 14.2381 8.34992 13.9365 8.4668L13.9316 8.46875C13.8484 8.50185 13.765 8.5522 13.6924 8.62305C13.6377 8.67639 13.589 8.74132 13.5518 8.81641L13.5195 8.89453C13.4807 9.00438 13.4691 9.12428 13.4883 9.24219C13.5027 9.33024 13.5328 9.41118 13.5742 9.48242L13.623 9.55566C13.6891 9.64252 13.7148 9.72429 13.7148 9.79883C13.7148 9.99356 13.585 10.2211 13.2314 10.3193L13.2266 10.3213C13.0729 10.3653 12.9107 10.4673 12.8057 10.6426C12.6958 10.826 12.6726 11.0547 12.7549 11.2627L12.7559 11.2646C12.7585 11.2713 12.7597 11.2782 12.7617 11.2842C12.6892 11.3374 12.5426 11.4169 12.2793 11.4951C11.7088 11.6646 10.767 11.7851 9.36914 11.7852C7.33476 11.7852 5.99138 11.4813 5.54492 11.3027C5.38306 11.2378 5.28247 11.1734 5.2168 11.0938C5.16153 11.0267 5.08203 10.8905 5.08203 10.583V7.14355C5.08203 6.48437 5.50577 6.02011 6.19336 5.33594C6.79859 4.73458 7.67383 3.90839 7.67383 2.64551C7.67381 1.84723 7.60743 1.3345 7.55957 0.96875C7.54183 0.829972 7.53097 0.730952 7.52441 0.651367Z" fill="white" stroke="#606770" stroke-width="1.3"/>
</svg>
