<svg xmlns="http://www.w3.org/2000/svg" width="34" height="34" viewBox="0 0 34 34" fill="none">
  <rect width="33.5486" height="33.5486" rx="7.66825" fill="#EEEEEE" fill-opacity="0.5"/>
  <path d="M7.72829 22.977C7.62078 23.2446 7.65944 23.5687 7.82463 23.7846C7.98983 24.0005 8.24535 24.061 8.46142 23.9353L11.2564 22.3093C13.6054 20.9427 16.1688 20.3175 18.7279 20.4646C18.7583 21.5004 18.8034 22.5357 18.8632 23.5701L18.9397 24.8936C18.9862 25.6966 19.6965 26.1454 20.2347 25.7119C22.5707 23.8304 24.6016 21.406 26.219 18.5679L26.7336 17.6649C26.8736 17.4192 26.8736 17.0883 26.7336 16.8425L26.219 15.9395C24.6016 13.1015 22.5707 10.6771 20.2347 8.79553C19.6965 8.36203 18.9862 8.8109 18.9397 9.61386L18.8632 10.9374C18.8118 11.8252 18.7713 12.7138 18.7417 13.6028H18.0225C14.018 13.6028 10.3538 16.4412 8.54476 20.9445L7.72829 22.977Z" fill="white"/>
</svg>
