<svg xmlns="http://www.w3.org/2000/svg" width="37" height="37" viewBox="0 0 37 37" fill="none">
  <circle cx="18.2121" cy="18.2121" r="18.2121" fill="url(#paint0_linear_3491_2167)"/>
  <path d="M18.1988 7.80273C19.2434 7.80273 21.6714 8.3776 21.6714 11.8799C21.6714 12.8554 21.555 13.4643 21.4736 13.8864C21.4575 13.9691 21.4423 14.052 21.4282 14.135L21.4272 14.139C21.421 14.1795 21.4252 14.2206 21.4396 14.2596C21.4541 14.2987 21.4783 14.3346 21.5108 14.3651C21.5433 14.3956 21.5832 14.4199 21.6279 14.4363C21.6726 14.4528 21.721 14.461 21.7698 14.4604C25.9321 14.4604 28.1548 15.3821 28.1548 16.3236C28.1548 16.7457 27.9655 17.1313 27.6561 17.4282C27.6466 17.4376 27.6395 17.4486 27.6354 17.4604C27.6313 17.4722 27.6303 17.4846 27.6323 17.4968C27.6344 17.509 27.6395 17.5207 27.6474 17.5312C27.6552 17.5416 27.6656 17.5505 27.6779 17.5573C27.964 17.7086 28.1999 17.9177 28.364 18.1655C28.528 18.4132 28.6149 18.6915 28.6165 18.9747C28.6165 19.6556 28.1652 20.24 27.4669 20.5132C27.4537 20.5185 27.442 20.526 27.4326 20.5353C27.4231 20.5446 27.4161 20.5555 27.412 20.5672C27.4079 20.579 27.4068 20.5913 27.4088 20.6034C27.4107 20.6155 27.4157 20.6271 27.4234 20.6375C27.6192 20.8972 27.7347 21.2021 27.7347 21.5307C27.7347 22.2798 27.2171 22.9093 26.4043 23.1373C26.3787 23.1447 26.3576 23.1602 26.3456 23.1805C26.3335 23.2008 26.3315 23.2243 26.34 23.2458C26.3977 23.3915 26.4327 23.5467 26.4327 23.7082C26.4327 24.5444 24.7522 25.223 20.8027 25.223C17.9168 25.223 15.926 24.7914 15.1605 24.4818C14.5975 24.2538 13.9531 23.8405 13.9531 22.629V17.8099C13.9531 16.4479 14.8596 15.5373 15.7613 14.6315C16.6564 13.7335 17.5487 12.8388 17.5487 11.5093C17.5487 10.4482 17.4626 9.77518 17.3983 9.27871C17.3614 8.98731 17.332 8.7561 17.332 8.54389C17.332 8.12659 17.6954 7.80432 18.1988 7.80273ZM11.1145 16.5129H9.22205C8.27584 16.5129 7.80273 18.6397 7.80273 21.2638C7.80273 23.888 8.27584 26.0148 9.22205 26.0148H11.1145C11.3654 26.0148 11.6061 25.9314 11.7835 25.7829C11.961 25.6344 12.0607 25.433 12.0607 25.223V17.3047C12.0607 17.0947 11.961 16.8933 11.7835 16.7448C11.6061 16.5963 11.3654 16.5129 11.1145 16.5129Z" fill="white"/>
  <defs>
    <linearGradient id="paint0_linear_3491_2167" x1="18.2121" y1="-7.80518" x2="18.2121" y2="45.5302" gradientUnits="userSpaceOnUse">
      <stop stop-color="#6B79F2"/>
      <stop offset="1" stop-color="#0019FE"/>
    </linearGradient>
  </defs>
</svg>
