<svg xmlns="http://www.w3.org/2000/svg" width="24" height="24" viewBox="0 0 24 24" fill="none">
  <path d="M16.7922 3.90348C18.1066 3.97615 19.339 4.56539 20.2209 5.54279C21.1028 6.52019 21.5626 7.80653 21.5002 9.12148C21.5002 12.1935 18.8482 14.0805 16.3032 16.3435C13.7912 18.5865 12.4382 19.8125 12.0002 20.0955C11.5232 19.7865 9.85717 18.2725 7.69717 16.3435C5.14117 14.0715 2.50017 12.1665 2.50017 9.12148C2.43773 7.80653 2.89755 6.52019 3.77943 5.54279C4.6613 4.56539 5.89373 3.97615 7.20817 3.90348C7.93631 3.88142 8.65772 4.04867 9.30188 4.38888C9.94603 4.7291 10.4909 5.23065 10.8832 5.84448C11.7232 7.01948 11.8632 7.60748 12.0032 7.60748C12.1432 7.60748 12.2812 7.01948 13.1132 5.84148C13.5032 5.22481 14.0483 4.72128 14.6939 4.3812C15.3395 4.04112 16.063 3.87639 16.7922 3.90348ZM16.7922 1.90348C15.8841 1.87441 14.9812 2.05057 14.1506 2.41884C13.3201 2.7871 12.5833 3.33799 11.9952 4.03048C11.4075 3.34001 10.6723 2.79039 9.84371 2.42224C9.01515 2.05408 8.11445 1.8768 7.20817 1.90348C5.36304 1.97564 3.62155 2.77547 2.36451 4.12808C1.10747 5.48069 0.43716 7.27602 0.500165 9.12148C0.500165 12.7315 3.05017 14.9485 5.51517 17.0915C5.79817 17.3375 6.08417 17.5855 6.36817 17.8385L7.39517 18.7565C8.51521 19.8223 9.68943 20.8296 10.9132 21.7745C11.2369 21.9841 11.6144 22.0957 12.0002 22.0957C12.3859 22.0957 12.7634 21.9841 13.0872 21.7745C14.3499 20.8007 15.5602 19.761 16.7132 18.6595L17.6352 17.8355C17.9282 17.5755 18.2252 17.3165 18.5202 17.0615C20.8542 15.0365 23.5002 12.7415 23.5002 9.12148C23.5632 7.27602 22.8929 5.48069 21.6358 4.12808C20.3788 2.77547 18.6373 1.97564 16.7922 1.90348Z" fill="white"/>
</svg>
