<svg xmlns="http://www.w3.org/2000/svg" width="18" height="18" viewBox="0 0 18 18" fill="none">
  <path d="M10.4921 13.9933L5.65137 11.3531C5.18671 11.8144 4.59589 12.1277 3.95341 12.2537C3.31092 12.3796 2.64552 12.3125 2.04111 12.0608C1.43669 11.8092 0.920314 11.3842 0.557076 10.8395C0.193838 10.2948 0 9.65472 0 9C0 8.34528 0.193838 7.70522 0.557076 7.16051C0.920314 6.6158 1.43669 6.19082 2.04111 5.93915C2.64552 5.68749 3.31092 5.6204 3.95341 5.74635C4.59589 5.8723 5.18671 6.18564 5.65137 6.64688L10.4921 4.00674C10.3261 3.2278 10.446 2.41513 10.8299 1.71733C11.2138 1.01954 11.8361 0.483251 12.5829 0.206544C13.3297 -0.0701632 14.1512 -0.0688003 14.8971 0.210383C15.643 0.489567 16.2635 1.02791 16.6451 1.72698C17.0267 2.42604 17.1439 3.23911 16.9753 4.01749C16.8067 4.79587 16.3635 5.48756 15.7269 5.96606C15.0902 6.44455 14.3026 6.67789 13.508 6.62339C12.7134 6.56889 11.965 6.23021 11.3996 5.66926L6.5589 8.30941C6.65546 8.76474 6.65546 9.23526 6.5589 9.69059L11.3996 12.3307C11.965 11.7698 12.7134 11.4311 13.508 11.3766C14.3026 11.3221 15.0902 11.5554 15.7269 12.0339C16.3635 12.5124 16.8067 13.2041 16.9753 13.9825C17.1439 14.7609 17.0267 15.574 16.6451 16.273C16.2635 16.9721 15.643 17.5104 14.8971 17.7896C14.1512 18.0688 13.3297 18.0702 12.5829 17.7935C11.8361 17.5168 11.2138 16.9805 10.8299 16.2827C10.446 15.5849 10.3261 14.7722 10.4921 13.9933Z" fill="white"/>
</svg>
