<svg xmlns="http://www.w3.org/2000/svg" width="14" height="16" viewBox="0 0 14 16" fill="none">
  <path d="M12.1404 3.42183C12.0324 3.36602 11.9273 3.30483 11.8254 3.23851C11.5292 3.04267 11.2576 2.81191 11.0165 2.55121C10.4132 1.86091 10.1879 1.16061 10.1049 0.6703H10.1082C10.0389 0.26332 10.0675 0 10.0719 0H7.324V10.6255C7.324 10.7681 7.324 10.9091 7.31801 11.0484C7.31801 11.0658 7.31634 11.0818 7.31534 11.1004C7.31534 11.1081 7.31534 11.1161 7.31367 11.1241C7.31367 11.1261 7.31367 11.1281 7.31367 11.1301C7.28471 11.5114 7.1625 11.8796 6.95779 12.2026C6.75309 12.5255 6.47216 12.7931 6.13973 12.982C5.79326 13.1791 5.4014 13.2825 5.00279 13.282C3.72252 13.282 2.6849 12.2381 2.6849 10.9488C2.6849 9.65952 3.72252 8.61557 5.00279 8.61557C5.24514 8.61535 5.48599 8.65348 5.71642 8.72856L5.71975 5.9307C5.02024 5.84035 4.3096 5.89594 3.63265 6.09398C2.9557 6.29201 2.32713 6.62819 1.78661 7.08131C1.31299 7.49283 0.914818 7.98383 0.610007 8.53224C0.494013 8.73223 0.0563678 9.53586 0.00337045 10.8401C-0.0299612 11.5804 0.192361 12.3474 0.298356 12.6644V12.671C0.365019 12.8577 0.623339 13.4947 1.04432 14.0316C1.38378 14.4624 1.78484 14.8407 2.23459 15.1546V15.1479L2.24126 15.1546C3.57153 16.0585 5.04645 15.9992 5.04645 15.9992C5.30177 15.9889 6.15706 15.9992 7.12835 15.5389C8.20563 15.0286 8.81893 14.2683 8.81893 14.2683C9.21074 13.814 9.52229 13.2963 9.74022 12.7374C9.98887 12.0837 10.0719 11.2998 10.0719 10.9865V5.3494C10.1052 5.3694 10.5492 5.66305 10.5492 5.66305C10.5492 5.66305 11.1888 6.07303 12.1868 6.34002C12.9027 6.53001 13.8673 6.57001 13.8673 6.57001V3.84214C13.5294 3.87881 12.8431 3.77215 12.1404 3.42183Z" fill="white"/>
</svg>