<svg xmlns="http://www.w3.org/2000/svg" width="40" height="37" viewBox="0 0 40 37" fill="none">
  <g opacity="0.9">
    <g filter="url(#filter0_d_3491_2096)">
      <path d="M18.1711 32.1448C19.0867 32.7984 20.3152 32.7984 21.2308 32.1448C25.8065 28.8784 30.1883 25.1204 33.2195 20.3113C34.738 17.9021 35.3746 15.9537 35.6249 14.3604C35.726 13.7995 35.7788 13.2207 35.7788 12.6291C35.7788 7.49014 31.7906 3.32422 26.8708 3.32422C23.9307 3.32422 21.3233 4.81203 19.7009 7.10618C18.0786 4.81203 15.4712 3.32422 12.5311 3.32422C7.6113 3.32422 3.62305 7.49014 3.62305 12.6291C3.62305 13.2207 3.67591 13.7995 3.77698 14.3604C4.02734 15.9537 4.66386 17.9021 6.18242 20.3113C9.21357 25.1204 13.5954 28.8784 18.1711 32.1448Z" fill="#FBFBFB"/>
      <path d="M18.1711 28.2336C19.0867 28.8872 20.3152 28.8872 21.2308 28.2336C26.268 25.5162 28.0796 24.6105 33.2195 20.3113C34.738 17.9021 35.3746 15.9537 35.6249 14.3604C35.726 13.7995 35.7788 13.2207 35.7788 12.6291C35.7788 7.49014 31.7906 3.32422 26.8708 3.32422C23.9307 3.32422 21.3233 4.81203 19.7009 7.10618C18.0786 4.81203 15.4712 3.32422 12.5311 3.32422C7.6113 3.32422 3.62305 7.49014 3.62305 12.6291C3.62305 13.2207 3.67591 13.7995 3.77698 14.3604C4.02734 15.9537 4.66386 17.9021 6.18242 20.3113C11.7752 24.6105 13.5868 25.5162 18.1711 28.2336Z" fill="white"/>
    </g>
  </g>
  <defs>
    <filter id="filter0_d_3491_2096" x="-0.000141382" y="-5.64754e-05" width="39.4026" height="36.5569" filterUnits="userSpaceOnUse" color-interpolation-filters="sRGB">
      <feFlood flood-opacity="0" result="BackgroundImageFix"/>
      <feColorMatrix in="SourceAlpha" type="matrix" values="0 0 0 0 0 0 0 0 0 0 0 0 0 0 0 0 0 0 127 0" result="hardAlpha"/>
      <feOffset dy="0.298913"/>
      <feGaussianBlur stdDeviation="1.81159"/>
      <feColorMatrix type="matrix" values="0 0 0 0 0 0 0 0 0 0 0 0 0 0 0 0 0 0 0.1 0"/>
      <feBlend mode="normal" in2="BackgroundImageFix" result="effect1_dropShadow_3491_2096"/>
      <feBlend mode="normal" in="SourceGraphic" in2="effect1_dropShadow_3491_2096" result="shape"/>
    </filter>
  </defs>
</svg>
