<svg xmlns="http://www.w3.org/2000/svg" width="39" height="32" viewBox="0 0 39 32" fill="none">
  <g filter="url(#filter0_d_3491_2088)">
    <path d="M34.1926 16.5349C34.5819 16.1834 34.5922 15.5758 34.215 15.2113L22.1812 3.58051C21.6063 3.02485 20.6459 3.43226 20.6459 4.23182V9.08699C16.1477 9.01746 12.7683 10.194 10.2569 11.9969C7.70619 13.828 6.08102 16.2835 5.07956 18.6634C4.07904 21.0411 3.69346 23.3607 3.63206 24.9511C3.60178 25.7354 3.64855 26.3828 3.76094 26.7783C3.78966 26.8793 3.82847 26.9854 3.88425 27.0792C3.93336 27.1618 4.03724 27.3055 4.22599 27.3656C4.45311 27.4378 4.64588 27.3451 4.75761 27.2492C4.85845 27.1626 4.92621 27.051 4.97311 26.9572L4.97907 26.9453L4.98386 26.9341L4.98431 26.933L4.98547 26.9305L4.99471 26.9103C5.00364 26.8912 5.01818 26.8609 5.03875 26.8206C5.07991 26.7399 5.14516 26.6189 5.23797 26.4665C5.42362 26.1615 5.71914 25.7309 6.15203 25.2439C7.0167 24.2712 8.43212 23.07 10.624 22.1933C11.8716 21.6942 13.9512 21.4671 15.9902 21.4303C17.9359 21.3953 19.7506 21.5344 20.6459 21.7318V26.7293C20.6459 27.5142 21.5762 27.9276 22.1587 27.4016L34.1926 16.5349Z" fill="#FBFBFB"/>
    <path d="M30.4853 15.2421C31.3546 14.2317 30.4853 12.7903 30.4853 12.7903L28.9854 10.1602L22.1812 3.58051C21.6063 3.02485 20.6459 3.43226 20.6459 4.23182V9.08699C16.1477 9.01746 12.7683 10.194 10.2569 11.9969C7.70619 13.828 6.08102 16.2835 5.07956 18.6634C4.07904 21.0411 3.69346 23.3607 3.63206 24.9511C3.60178 25.7354 3.64855 26.3828 3.76094 26.7783C3.78966 26.8793 3.82847 26.9854 3.88425 27.0792C3.93336 27.1618 4.03724 27.3055 4.22599 27.3656C4.45311 27.4378 4.64588 27.3451 4.75761 27.2492C4.85845 27.1626 4.92621 27.051 4.97311 26.9572L4.97907 26.9453L4.98386 26.9341L4.98431 26.933L4.98547 26.9305L4.99471 26.9103C5.00364 26.8912 5.01818 26.8609 5.03875 26.8206C5.07991 26.7399 5.14516 26.6189 5.23797 26.4665C5.42362 26.1615 5.71914 25.7309 6.15203 25.2439C7.0167 24.2712 11.8144 20.867 14.5318 19.5083C16.7962 18.1496 20.6459 17.2438 20.6459 17.2438V22.6786C20.6459 23.4635 21.5762 23.8769 22.1587 23.3508L30.4853 15.2421Z" fill="white"/>
  </g>
  <defs>
    <filter id="filter0_d_3491_2088" x="-0.000141382" y="-5.64754e-05" width="38.1155" height="31.5589" filterUnits="userSpaceOnUse" color-interpolation-filters="sRGB">
      <feFlood flood-opacity="0" result="BackgroundImageFix"/>
      <feColorMatrix in="SourceAlpha" type="matrix" values="0 0 0 0 0 0 0 0 0 0 0 0 0 0 0 0 0 0 127 0" result="hardAlpha"/>
      <feOffset dy="0.298913"/>
      <feGaussianBlur stdDeviation="1.81159"/>
      <feColorMatrix type="matrix" values="0 0 0 0 0 0 0 0 0 0 0 0 0 0 0 0 0 0 0.1 0"/>
      <feBlend mode="normal" in2="BackgroundImageFix" result="effect1_dropShadow_3491_2088"/>
      <feBlend mode="normal" in="SourceGraphic" in2="effect1_dropShadow_3491_2088" result="shape"/>
    </filter>
  </defs>
</svg>
