<svg xmlns="http://www.w3.org/2000/svg" width="39" height="38" viewBox="0 0 39 38" fill="none">
  <g opacity="0.9">
    <g filter="url(#filter0_d_3491_2092)">
      <path fill-rule="evenodd" clip-rule="evenodd" d="M19.7682 29.5901C19.6705 29.5916 19.5726 29.5923 19.4745 29.5923C10.72 29.5923 3.62305 23.712 3.62305 16.4583C3.62305 9.20454 10.72 3.32422 19.4745 3.32422C28.229 3.32422 35.3259 9.20454 35.3259 16.4583C35.3259 18.2928 34.872 20.0394 34.0522 21.6253C32.9522 23.8674 31.2545 25.8684 29.4129 27.5946C26.607 30.2247 23.3604 32.2101 21.0486 33.329C20.4371 33.625 19.7682 33.1616 19.7682 32.5161V29.5901ZM14.0397 17.1376C14.0397 18.3883 13.0259 19.4021 11.7752 19.4021C10.5246 19.4021 9.51073 18.3883 9.51073 17.1376C9.51073 15.887 10.5246 14.8731 11.7752 14.8731C13.0259 14.8731 14.0397 15.887 14.0397 17.1376ZM19.4745 19.4021C20.7251 19.4021 21.739 18.3883 21.739 17.1376C21.739 15.887 20.7251 14.8731 19.4745 14.8731C18.2239 14.8731 17.21 15.887 17.21 17.1376C17.21 18.3883 18.2239 19.4021 19.4745 19.4021ZM29.4383 17.1376C29.4383 18.3883 28.4244 19.4021 27.1738 19.4021C25.9231 19.4021 24.9093 18.3883 24.9093 17.1376C24.9093 15.887 25.9231 14.8731 27.1738 14.8731C28.4244 14.8731 29.4383 15.887 29.4383 17.1376Z" fill="#FBFBFB"/>
      <path fill-rule="evenodd" clip-rule="evenodd" d="M19.4745 29.5923C28.229 29.5923 35.3259 23.712 35.3259 16.4583C35.3259 9.20454 28.229 3.32422 19.4745 3.32422C10.72 3.32422 3.62305 9.20454 3.62305 16.4583C3.62305 23.712 10.72 29.5923 19.4745 29.5923ZM11.7752 19.4021C13.0259 19.4021 14.0397 18.3883 14.0397 17.1376C14.0397 15.887 13.0259 14.8731 11.7752 14.8731C10.5246 14.8731 9.51073 15.887 9.51073 17.1376C9.51073 18.3883 10.5246 19.4021 11.7752 19.4021ZM21.739 17.1376C21.739 18.3883 20.7251 19.4021 19.4745 19.4021C18.2239 19.4021 17.21 18.3883 17.21 17.1376C17.21 15.887 18.2239 14.8731 19.4745 14.8731C20.7251 14.8731 21.739 15.887 21.739 17.1376ZM27.1738 19.4021C28.4244 19.4021 29.4383 18.3883 29.4383 17.1376C29.4383 15.887 28.4244 14.8731 27.1738 14.8731C25.9231 14.8731 24.9093 15.887 24.9093 17.1376C24.9093 18.3883 25.9231 19.4021 27.1738 19.4021Z" fill="white"/>
    </g>
  </g>
  <defs>
    <filter id="filter0_d_3491_2092" x="-0.000141382" y="-5.64754e-05" width="38.9495" height="37.3421" filterUnits="userSpaceOnUse" color-interpolation-filters="sRGB">
      <feFlood flood-opacity="0" result="BackgroundImageFix"/>
      <feColorMatrix in="SourceAlpha" type="matrix" values="0 0 0 0 0 0 0 0 0 0 0 0 0 0 0 0 0 0 127 0" result="hardAlpha"/>
      <feOffset dy="0.298913"/>
      <feGaussianBlur stdDeviation="1.81159"/>
      <feColorMatrix type="matrix" values="0 0 0 0 0 0 0 0 0 0 0 0 0 0 0 0 0 0 0.1 0"/>
      <feBlend mode="normal" in2="BackgroundImageFix" result="effect1_dropShadow_3491_2092"/>
      <feBlend mode="normal" in="SourceGraphic" in2="effect1_dropShadow_3491_2092" result="shape"/>
    </filter>
  </defs>
</svg>
