<svg xmlns="http://www.w3.org/2000/svg" width="19" height="16" viewBox="0 0 19 16" fill="none">
  <path fill-rule="evenodd" clip-rule="evenodd" d="M9.53865 1.55821C9.01773 1.46652 8.48114 1.55832 8.02032 1.81797C7.55951 2.07761 7.20301 2.48902 7.01157 2.98209C6.82013 3.47515 6.80561 4.01935 6.97048 4.52192C7.13536 5.02449 7.46942 5.45433 7.91573 5.73818C8.086 5.84676 8.2062 6.0185 8.24992 6.21566C8.29364 6.41282 8.2573 6.61927 8.14888 6.78965L5.16058 11.4854C5.31575 11.7828 5.36846 12.1231 5.31053 12.4535C5.2526 12.7839 5.08727 13.086 4.84017 13.3129C4.59307 13.5397 4.27802 13.6787 3.94388 13.7083C3.60974 13.7379 3.27517 13.6564 2.99208 13.4764C2.70898 13.2965 2.49318 13.0281 2.37813 12.713C2.26308 12.3979 2.25521 12.0537 2.35576 11.7336C2.4563 11.4136 2.65963 11.1357 2.93422 10.943C3.2088 10.7503 3.53929 10.6536 3.87444 10.6679L6.49549 6.54964C6.02265 6.09286 5.67607 5.5215 5.48944 4.89111C5.30282 4.26073 5.2825 3.59277 5.43047 2.95221C5.57844 2.31165 5.88966 1.72028 6.33387 1.23561C6.77807 0.75095 7.34013 0.389485 7.9654 0.186373C8.59067 -0.0167389 9.25786 -0.0545848 9.90209 0.0765158C10.5463 0.207616 11.1457 0.503201 11.6418 0.934525C12.138 1.36585 12.5141 1.91823 12.7335 2.53795C12.953 3.15767 13.0083 3.82364 12.8942 4.47108C12.8768 4.56964 12.8401 4.66381 12.7863 4.7482C12.7325 4.83259 12.6626 4.90556 12.5806 4.96294C12.4986 5.02032 12.4061 5.06099 12.3084 5.08262C12.2107 5.10425 12.1097 5.10642 12.0111 5.08901C11.9126 5.0716 11.8184 5.03495 11.734 4.98115C11.6496 4.92735 11.5766 4.85745 11.5193 4.77545C11.4619 4.69345 11.4212 4.60095 11.3996 4.50323C11.378 4.40551 11.3758 4.30449 11.3932 4.20593C11.4984 3.60901 11.3622 2.99474 11.0146 2.49822C10.6669 2.00169 10.1355 1.66357 9.53865 1.55821ZM7.61857 3.80896C7.61874 3.57807 7.67138 3.35024 7.7725 3.14267C7.87362 2.93511 8.02059 2.75323 8.2023 2.61078C8.38401 2.46834 8.59572 2.36905 8.82143 2.32041C9.04714 2.27177 9.28095 2.27506 9.5052 2.33002C9.72945 2.38498 9.93828 2.49019 10.1159 2.63769C10.2936 2.78518 10.4354 2.97112 10.5306 3.18145C10.6258 3.39177 10.6721 3.621 10.6657 3.8518C10.6594 4.0826 10.6007 4.30895 10.4941 4.51375L13.1152 8.632C13.7422 8.39206 14.4215 8.32208 15.0843 8.42916C15.7471 8.53625 16.3698 8.81658 16.8894 9.24178C17.409 9.66698 17.807 10.2219 18.0431 10.8504C18.2791 11.479 18.3449 12.1587 18.2338 12.8208C18.1226 13.4829 17.8385 14.1039 17.4101 14.6209C16.9817 15.1378 16.4243 15.5324 15.7943 15.7646C15.1644 15.9968 14.4843 16.0584 13.8228 15.9432C13.1614 15.828 12.5422 15.54 12.0279 15.1084C11.8779 14.9772 11.7853 14.7924 11.77 14.5936C11.7546 14.3949 11.8178 14.1981 11.9459 14.0454C12.074 13.8927 12.2568 13.7962 12.4551 13.7768C12.6535 13.7573 12.8516 13.8163 13.007 13.9412C13.3306 14.2125 13.723 14.3888 14.1408 14.4507C14.5585 14.5125 14.9852 14.4575 15.3736 14.2915C15.7619 14.1256 16.0967 13.8554 16.3408 13.5108C16.5849 13.1661 16.7288 12.7606 16.7564 12.3392C16.7841 11.9178 16.6945 11.497 16.4975 11.1235C16.3006 10.7499 16.004 10.4382 15.6406 10.223C15.2773 10.0077 14.8614 9.89731 14.4392 9.90403C14.0169 9.91075 13.6048 10.0343 13.2485 10.261C13.078 10.3694 12.8715 10.4056 12.6743 10.3617C12.4772 10.3179 12.3055 10.1975 12.197 10.0271L9.20797 5.33131C9.00253 5.34015 8.79743 5.30732 8.60502 5.23481C8.41261 5.16229 8.23686 5.05158 8.08837 4.90935C7.93987 4.76712 7.8217 4.5963 7.74096 4.40719C7.66022 4.21808 7.61859 4.01459 7.61857 3.80896ZM3.4828 9.0663C3.55174 9.25616 3.54246 9.46562 3.45703 9.64864C3.37159 9.83166 3.21697 9.97327 3.02717 10.0423C2.63431 10.1855 2.28823 10.4336 2.02661 10.7598C1.76499 11.086 1.59784 11.4776 1.54336 11.8922C1.48888 12.3067 1.54915 12.7283 1.71761 13.111C1.88608 13.4937 2.15628 13.8228 2.49882 14.0626C2.84136 14.3024 3.2431 14.4436 3.66033 14.4709C4.07756 14.4983 4.49429 14.4106 4.86517 14.2175C5.23605 14.0245 5.54686 13.7334 5.76379 13.3759C5.98071 13.0185 6.09543 12.6084 6.09547 12.1902C6.09547 11.9882 6.17575 11.7944 6.31864 11.6515C6.46153 11.5086 6.65533 11.4283 6.8574 11.4283H13.1555C13.3233 11.1378 13.5822 10.9107 13.8921 10.7824C14.202 10.654 14.5456 10.6315 14.8697 10.7183C15.1937 10.8051 15.48 10.9964 15.6842 11.2626C15.8884 11.5287 15.9991 11.8548 15.9991 12.1902C15.9991 12.5257 15.8884 12.8518 15.6842 13.1179C15.48 13.384 15.1937 13.5753 14.8697 13.6622C14.5456 13.749 14.202 13.7265 13.8921 13.5981C13.5822 13.4697 13.3233 13.2427 13.1555 12.9522H7.54238C7.40952 13.6031 7.10874 14.208 6.66988 14.7068C6.23103 15.2056 5.66935 15.581 5.04061 15.7957C4.41187 16.0103 3.73792 16.0568 3.08565 15.9306C2.43338 15.8043 1.82547 15.5097 1.32225 15.0759C0.819036 14.6421 0.43801 14.0842 0.216989 13.4577C-0.00403067 12.8312 -0.0573593 12.1577 0.0622963 11.5042C0.181952 10.8507 0.470431 10.2398 0.899104 9.73225C1.32778 9.22467 1.88174 8.83802 2.506 8.61067C2.69586 8.54146 2.90542 8.5505 3.08861 8.63581C3.27179 8.72111 3.41359 8.87645 3.4828 9.0663Z" fill="white"/>
</svg>
