<svg xmlns="http://www.w3.org/2000/svg" width="18" height="18" viewBox="0 0 18 18" fill="none">
  <g opacity="0.8">
    <path d="M4.99805 5.90146C4.99805 4.83526 4.99805 4.30216 5.20554 3.89493C5.38806 3.53672 5.6793 3.24548 6.03751 3.06296C6.44474 2.85547 6.97784 2.85547 8.04404 2.85547H9.0911C10.1573 2.85547 10.6904 2.85547 11.0976 3.06296C11.4558 3.24548 11.7471 3.53672 11.9296 3.89493C12.1371 4.30216 12.1371 4.83526 12.1371 5.90146V14.2779L10.5912 12.9038C9.87518 12.2673 9.51716 11.9491 9.11314 11.8283C8.75722 11.7218 8.37792 11.7218 8.02199 11.8283C7.61797 11.9491 7.25996 12.2673 6.54392 12.9038L4.99805 14.2779V5.90146Z" stroke="black" stroke-width="1.90374" stroke-linecap="round" stroke-linejoin="round"/>
  </g>
</svg>
