<svg xmlns="http://www.w3.org/2000/svg" width="15" height="14" viewBox="0 0 15 14" fill="none">
  <path d="M8.83496 0.952148H5.09082C2.48921 0.952153 1.00316 3.05689 0.952148 5.40332C0.927044 6.56015 1.26892 7.67019 1.93848 8.47363C2.5892 9.25448 3.60302 9.8125 5.09082 9.8125H5.9043L6.03125 10.6162C6.16533 11.464 6.30976 12.0609 6.45117 12.4668C6.4841 12.5613 6.51712 12.6421 6.54688 12.7109C6.81923 12.3654 7.10339 11.8444 7.37891 11.3135C7.51308 11.0549 7.65362 10.7783 7.77246 10.5742C7.83043 10.4747 7.90694 10.351 7.99414 10.2432C8.03672 10.1905 8.10785 10.1079 8.20703 10.0312C8.28971 9.96735 8.51146 9.81255 8.83496 9.8125C11.7238 9.8125 13.2746 7.64524 13.3242 5.36133C13.3489 4.22153 12.9879 3.12033 12.2705 2.31543C11.5682 1.52754 10.4614 0.952148 8.83496 0.952148Z" stroke="black" stroke-opacity="0.8" stroke-width="1.90374"/>
</svg>
