<svg className="w-[18px] h-[13px] fill-white" viewBox="0 0 18 13">
                                <path d="M9 1.14538e-09C9.01549 7.16445e-07 14.6309 0.000163857 16.0322 0.375977C16.8072 0.583418 17.4166 1.19283 17.624 1.96777C17.9961 3.36054 18 6.25664 18 6.2998C18 6.2998 18.0004 9.22955 17.624 10.6328C17.4166 11.4077 16.8072 12.0172 16.0322 12.2246C14.6309 12.6004 9.01549 12.6006 9 12.6006C9 12.6006 3.37121 12.601 1.96777 12.2246C1.19284 12.0172 0.583418 11.4077 0.375977 10.6328C-0.000339341 9.22955 1.09977e-09 6.2998 1.09977e-09 6.2998C2.08206e-05 6.25664 0.00246392 3.36054 0.375977 1.96777C0.583418 1.19283 1.19284 0.583418 1.96777 0.375977C3.3712 -0.000343977 9 1.14538e-09 9 1.14538e-09ZM7.20117 9L11.8779 6.30078L7.20117 3.60059V9Z"/>
                              </svg>